M48
INCH,TZ
T1C0.031
T2C0.035
T3C0.039
T4C0.043
T5C0.047
%
G90
G05
T1
X49800Y-42200
X50000Y-38200
X52800Y-42200
X53000Y-38200
X53800Y-38800
X53800Y-41800
X54160Y-44390
X54400Y-35600
X54400Y-36950
X54800Y-38800
X54800Y-41800
X55800Y-38800
X55800Y-41800
X56800Y-38800
X56800Y-41800
X57160Y-44390
X57400Y-35600
X57400Y-36950
X57800Y-38200
X57800Y-42200
X60800Y-38200
X60800Y-42200
T2
X50800Y-36200
X50800Y-40200
X50800Y-44200
X51800Y-36200
X51800Y-40200
X51800Y-44200
X54800Y-40200
X55800Y-40200
X58800Y-36200
X58800Y-40200
X58800Y-44200
X59800Y-36200
X59800Y-40200
X59800Y-44200
T3
X52800Y-34400
X53800Y-34400
T4
X53191Y-43618
X53191Y-45390
X55750Y-43618
X55750Y-45390
T5
X55800Y-34200
X56800Y-34200
X57784Y-34200
T0
M30
