G04 #@! TF.FileFunction,Copper,L2,Bot,Signal*
%FSLAX46Y46*%
G04 Gerber Fmt 4.6, Leading zero omitted, Abs format (unit mm)*
G04 Created by KiCad (PCBNEW 4.0.7) date 03/05/18 15:50:36*
%MOMM*%
%LPD*%
G01*
G04 APERTURE LIST*
%ADD10C,0.100000*%
%ADD11R,1.600000X1.600000*%
%ADD12O,1.600000X1.600000*%
%ADD13R,1.800000X2.600000*%
%ADD14O,1.800000X2.600000*%
%ADD15C,3.000000*%
%ADD16R,1.700000X1.700000*%
%ADD17O,1.700000X1.700000*%
%ADD18C,1.400000*%
%ADD19O,1.400000X1.400000*%
%ADD20C,1.440000*%
%ADD21C,2.000000*%
%ADD22O,3.048000X1.727200*%
%ADD23O,1.400000X2.000000*%
G04 APERTURE END LIST*
D10*
D11*
X124333000Y-139192000D03*
D12*
X157353000Y-123952000D03*
X126873000Y-139192000D03*
X154813000Y-123952000D03*
X129413000Y-139192000D03*
X152273000Y-123952000D03*
X131953000Y-139192000D03*
X149733000Y-123952000D03*
X134493000Y-139192000D03*
X147193000Y-123952000D03*
X137033000Y-139192000D03*
X144653000Y-123952000D03*
X139573000Y-139192000D03*
X142113000Y-123952000D03*
X142113000Y-139192000D03*
X139573000Y-123952000D03*
X144653000Y-139192000D03*
X137033000Y-123952000D03*
X147193000Y-139192000D03*
X134493000Y-123952000D03*
X149733000Y-139192000D03*
X131953000Y-123952000D03*
X152273000Y-139192000D03*
X129413000Y-123952000D03*
X154813000Y-139192000D03*
X126873000Y-123952000D03*
X157353000Y-139192000D03*
X124333000Y-123952000D03*
X159893000Y-139192000D03*
X159893000Y-123952000D03*
D13*
X43307000Y-52451000D03*
D14*
X45847000Y-52451000D03*
X48387000Y-52451000D03*
X50927000Y-52451000D03*
X53467000Y-52451000D03*
X56007000Y-52451000D03*
X58547000Y-52451000D03*
X61087000Y-52451000D03*
X63627000Y-52451000D03*
X66167000Y-52451000D03*
X68707000Y-52451000D03*
X71247000Y-52451000D03*
X73787000Y-52451000D03*
X76327000Y-52451000D03*
X78867000Y-52451000D03*
X81407000Y-52451000D03*
D15*
X37807900Y-52451000D03*
X37807900Y-83451700D03*
X112806480Y-83451700D03*
X112807000Y-52451000D03*
D16*
X54579143Y-93228000D03*
D17*
X54579143Y-95768000D03*
X54579143Y-98308000D03*
X54579143Y-100848000D03*
D16*
X61260572Y-93228000D03*
D17*
X61260572Y-95768000D03*
X61260572Y-98308000D03*
X61260572Y-100848000D03*
D18*
X36227001Y-120148000D03*
D19*
X41307001Y-120148000D03*
D18*
X43677001Y-120148000D03*
D19*
X48757001Y-120148000D03*
D20*
X68957001Y-92908000D03*
X71497001Y-95448000D03*
X68957001Y-97988000D03*
D21*
X53247001Y-111728000D03*
X53247001Y-107228000D03*
X59747001Y-111728000D03*
X59747001Y-107228000D03*
X36777001Y-114038000D03*
X36777001Y-109538000D03*
X43277001Y-114038000D03*
X43277001Y-109538000D03*
D22*
X49547001Y-95558000D03*
X49547001Y-100558000D03*
X37047001Y-95558000D03*
X37047001Y-100558000D03*
D16*
X38371048Y-128018000D03*
D17*
X38371048Y-130558000D03*
X38371048Y-133098000D03*
D23*
X134107001Y-117128001D03*
X136647001Y-117128001D03*
X139187001Y-117128001D03*
X141727001Y-117128001D03*
X144267001Y-117128001D03*
X146807001Y-117128001D03*
X149347001Y-117128001D03*
M02*
