<?xml version="1.0" standalone="no"?>
 <!DOCTYPE svg PUBLIC "-//W3C//DTD SVG 1.1//EN" 
 "http://www.w3.org/Graphics/SVG/1.1/DTD/svg11.dtd"> 
<svg xmlns="http://www.w3.org/2000/svg" version="1.1" 
    width="29.7002cm" height="21.0007cm" viewBox="0 0 116930 82680 ">
<title>SVG Picture created as tower of power-B.SilkS.svg date 2018/03/09 14:17:47 </title>
  <desc>Picture generated by PCBNEW </desc>
<g style="fill:#000000; fill-opacity:1;stroke:#000000; stroke-opacity:1;
stroke-linecap:round; stroke-linejoin:round; "
 transform="translate(0 0) scale(1 1)">
</g>
<g style="fill:#000000; fill-opacity:0.0; 
stroke:#000000; stroke-width:-0.000393701; stroke-opacity:1; 
stroke-linecap:round; stroke-linejoin:round;">
</g>
<g style="fill:#000000; fill-opacity:0.0; 
stroke:#000000; stroke-width:47.2441; stroke-opacity:1; 
stroke-linecap:round; stroke-linejoin:round;">
<path d="M14811 31960
L14811 32960
" />
<path d="M14811 32960
L13759 32960
" />
<path d="M13759 31960
L13759 16909
" />
<path d="M13759 34011
L13759 32960
" />
<path d="M19811 32960
L20862 32960
" />
<path d="M19811 32960
L19811 17960
" />
<path d="M19811 17960
L20862 17960
" />
<path d="M14811 31960
L13759 31960
" />
<path d="M14811 31960
L14811 17960
" />
<path d="M14811 17960
L13759 17960
" />
<path d="M13759 16909
L20862 16909
" />
<path d="M20862 16909
L20862 34011
" />
<path d="M20862 34011
L13759 34011
" />
<path d="M16188 45208
L16188 43185
" />
<path d="M16188 43185
L17236 43185
" />
<path d="M17236 43185
L17236 45208
" />
<path d="M17236 45208
L16188 45208
" />
<path d="M16188 45708
L16188 46232
" />
<path d="M16188 46232
L16712 46232
" />
<path d="M14811 45208
L14811 43185
" />
<path d="M14811 43185
L15858 43185
" />
<path d="M15858 43185
L15858 45208
" />
<path d="M15858 45208
L14811 45208
" />
<path d="M14811 45708
L14811 46232
" />
<path d="M14811 46232
L15334 46232
" />
<path d="M49169 12767
L49169 14232
" />
<path d="M49846 12767
L49846 14232
" />
<path d="M15433 39724
L17204 39724
" />
<path d="M14940 41299
L14940 40708
" />
<path d="M17204 42283
L15433 42283
" />
<path d="M17696 40708
L17696 41299
" />
<path d="M21200 19885
L22303 19885
" />
<path d="M22303 19885
L22303 30019
" />
<path d="M22303 30019
L21200 30019
" />
<path d="M21200 30019
L21200 19885
" />
<path d="M21200 20952
L22303 20952
" />
<path d="M48287 17370
L48287 16185
" />
<path d="M48287 15704
L48287 14566
" />
<path d="M45641 17370
L45641 16185
" />
<path d="M45641 15704
L45641 14566
" />
<path d="M48287 17370
L45641 17370
" />
<path d="M48287 14566
L45641 14566
" />
<path d="M31893 22232
L31893 23279
" />
<path d="M29870 22232
L31893 22232
" />
<path d="M29870 23279
L31893 23279
" />
<path d="M29870 22232
L29870 23279
" />
<path d="M29370 22232
L28846 22232
" />
<path d="M28846 22232
L28846 22755
" />
<path d="M41460 38685
L41460 36669
" />
<path d="M40429 38685
L40429 36669
" />
<path d="M41460 38685
L41337 38685
" />
<path d="M40552 38685
L40429 38685
" />
<path d="M41460 36669
L41337 36669
" />
<path d="M40552 36669
L40429 36669
" />
<path d="M39413 38685
L39413 36669
" />
<path d="M38381 38685
L38381 36669
" />
<path d="M39413 38685
L39289 38685
" />
<path d="M38505 38685
L38381 38685
" />
<path d="M39413 36669
L39289 36669
" />
<path d="M38505 36669
L38381 36669
" />
</g>
<g style="fill:#000000; fill-opacity:0.0; 
stroke:#000000; stroke-width:59.0551; stroke-opacity:1; 
stroke-linecap:round; stroke-linejoin:round;">
<path d="M17592 34526
L17404 34526
" />
<path d="M17629 34638
L17498 34245
L17367 34638
" />
<path d="M17029 34638
L17254 34638
" />
<path d="M17142 34638
L17142 34245
L17179 34301
L17217 34338
L17254 34357
" />
<path d="M16843 46410
L16843 46691
L16862 46747
L16900 46785
L16956 46804
L16993 46804
" />
<path d="M16450 46804
L16675 46804
" />
<path d="M16562 46804
L16562 46410
L16600 46466
L16637 46504
L16675 46522
" />
<path d="M15465 46410
L15465 46691
L15484 46747
L15522 46785
L15578 46804
L15615 46804
" />
<path d="M15297 46447
L15278 46429
L15240 46410
L15147 46410
L15109 46429
L15090 46447
L15072 46485
L15072 46522
L15090 46579
L15315 46804
L15072 46804
" />
<path d="M48953 13434
L48766 13303
" />
<path d="M48953 13209
L48559 13209
L48559 13359
L48578 13396
L48597 13415
L48634 13434
L48691 13434
L48728 13415
L48747 13396
L48766 13359
L48766 13209
" />
<path d="M48953 13809
L48953 13584
" />
<path d="M48953 13696
L48559 13696
L48616 13659
L48653 13621
L48672 13584
" />
<path d="M16993 42855
L17125 42667
" />
<path d="M17218 42855
L17218 42461
L17068 42461
L17031 42480
L17012 42499
L16993 42536
L16993 42592
L17012 42630
L17031 42649
L17068 42667
L17218 42667
" />
<path d="M16675 42836
L16712 42855
L16787 42855
L16825 42836
L16843 42799
L16843 42649
L16825 42611
L16787 42592
L16712 42592
L16675 42611
L16656 42649
L16656 42686
L16843 42724
" />
<path d="M16506 42836
L16468 42855
L16393 42855
L16356 42836
L16337 42799
L16337 42780
L16356 42742
L16393 42724
L16450 42724
L16487 42705
L16506 42667
L16506 42649
L16487 42611
L16450 42592
L16393 42592
L16356 42611
" />
<path d="M16018 42836
L16056 42855
L16131 42855
L16168 42836
L16187 42799
L16187 42649
L16168 42611
L16131 42592
L16056 42592
L16018 42611
L16000 42649
L16000 42686
L16187 42724
" />
<path d="M15887 42592
L15737 42592
" />
<path d="M15831 42461
L15831 42799
L15812 42836
L15775 42855
L15737 42855
" />
<path d="M15400 42855
L15625 42855
" />
<path d="M15512 42855
L15512 42461
L15550 42517
L15587 42555
L15625 42574
" />
<path d="M20985 25180
L20797 25049
" />
<path d="M20985 24955
L20591 24955
L20591 25105
L20610 25143
L20628 25162
L20666 25180
L20722 25180
L20760 25162
L20778 25143
L20797 25105
L20797 24955
" />
<path d="M20985 25349
L20591 25349
L20985 25574
L20591 25574
" />
<path d="M20985 25968
L20985 25743
" />
<path d="M20985 25855
L20591 25855
L20647 25818
L20685 25780
L20703 25743
" />
<path d="M48934 15734
L48746 15602
" />
<path d="M48934 15509
L48540 15509
L48540 15659
L48559 15696
L48577 15715
L48615 15734
L48671 15734
L48709 15715
L48727 15696
L48746 15659
L48746 15509
" />
<path d="M48540 15846
L48934 15977
L48540 16109
" />
<path d="M48934 16446
L48934 16221
" />
<path d="M48934 16334
L48540 16334
L48596 16296
L48634 16259
L48652 16221
" />
<path d="M28237 22455
L28555 22455
L28593 22474
L28612 22493
L28630 22530
L28630 22605
L28612 22643
L28593 22662
L28555 22680
L28237 22680
" />
<path d="M28274 22849
L28255 22868
L28237 22905
L28237 22999
L28255 23037
L28274 23055
L28312 23074
L28349 23074
L28405 23055
L28630 22830
L28630 23074
" />
<path d="M42093 37611
L42112 37592
L42130 37536
L42130 37499
L42112 37442
L42074 37405
L42037 37386
L41962 37367
L41905 37367
L41830 37386
L41793 37405
L41755 37442
L41737 37499
L41737 37536
L41755 37592
L41774 37611
" />
<path d="M42130 37986
L42130 37761
" />
<path d="M42130 37874
L41737 37874
L41793 37836
L41830 37799
L41849 37761
" />
<path d="M40046 37611
L40064 37592
L40083 37536
L40083 37499
L40064 37442
L40027 37405
L39989 37386
L39914 37367
L39858 37367
L39783 37386
L39746 37405
L39708 37442
L39689 37499
L39689 37536
L39708 37592
L39727 37611
" />
<path d="M39727 37761
L39708 37780
L39689 37817
L39689 37911
L39708 37949
L39727 37967
L39764 37986
L39802 37986
L39858 37967
L40083 37742
L40083 37986
" />
</g> 
</svg>
