<?xml version="1.0" encoding="UTF-8" standalone="no"?>
<svg
   xmlns:dc="http://purl.org/dc/elements/1.1/"
   xmlns:cc="http://creativecommons.org/ns#"
   xmlns:rdf="http://www.w3.org/1999/02/22-rdf-syntax-ns#"
   xmlns:svg="http://www.w3.org/2000/svg"
   xmlns="http://www.w3.org/2000/svg"
   xmlns:sodipodi="http://sodipodi.sourceforge.net/DTD/sodipodi-0.dtd"
   xmlns:inkscape="http://www.inkscape.org/namespaces/inkscape"
   version="1.1"
   width="29.7002cm"
   height="21.0007cm"
   viewBox="0 0 116930 82680 "
   id="svg248"
   sodipodi:docname="tower of power-F.SilkS.svg"
   inkscape:version="0.92.2 (5c3e80d, 2017-08-06)">
  <metadata
     id="metadata254">
    <rdf:RDF>
      <cc:Work
         rdf:about="">
        <dc:format>image/svg+xml</dc:format>
        <dc:type
           rdf:resource="http://purl.org/dc/dcmitype/StillImage" />
      </cc:Work>
    </rdf:RDF>
  </metadata>
  <defs
     id="defs252" />
  <sodipodi:namedview
     pagecolor="#ffffff"
     bordercolor="#666666"
     borderopacity="1"
     objecttolerance="10"
     gridtolerance="10"
     guidetolerance="10"
     inkscape:pageopacity="0"
     inkscape:pageshadow="2"
     inkscape:window-width="1920"
     inkscape:window-height="1017"
     id="namedview250"
     showgrid="false"
     inkscape:zoom="2.8284271"
     inkscape:cx="352.56635"
     inkscape:cy="689.66056"
     inkscape:window-x="-8"
     inkscape:window-y="-8"
     inkscape:window-maximized="1"
     inkscape:current-layer="svg248" />
  <title
     id="title2">SVG Picture created as tower of power-F.SilkS.svg date 2018/03/09 14:17:47 </title>
  <desc
     id="desc4">Picture generated by PCBNEW </desc>
  <g
     style="fill:#000000; fill-opacity:1;stroke:#000000; stroke-opacity:1; stroke-linecap:round; stroke-linejoin:round; "
     transform="translate(0 0) scale(1 1)"
     id="g6" />
  <g
     style="fill:#000000; fill-opacity:0.0;  stroke:#000000; stroke-width:-0.000393701; stroke-opacity:1;  stroke-linecap:round; stroke-linejoin:round;"
     id="g8" />
  <g
     style="fill:#000000; fill-opacity:0.0;  stroke:#000000; stroke-width:39.3701; stroke-opacity:1;  stroke-linecap:round; stroke-linejoin:round;"
     id="g14">
    <circle
       cx="39921.3"
       cy="32834.6"
       r="6692.91"
       id="circle10" />
    <circle
       cx="39921.3"
       cy="32834.6"
       r="5118.11"
       id="circle12" />
  </g>
  <g
     style="fill:#000000; fill-opacity:0.0;  stroke:#000000; stroke-width:78.7402; stroke-opacity:1;  stroke-linecap:round; stroke-linejoin:round;"
     id="g44">
    <circle
       cx="38307.1"
       cy="34862.2"
       r="196.85"
       id="circle16" />
    <circle
       cx="41535.4"
       cy="34862.2"
       r="196.85"
       id="circle18" />
    <circle
       cx="41535.4"
       cy="30846.5"
       r="196.85"
       id="circle20" />
    <circle
       cx="38307.1"
       cy="30846.5"
       r="196.85"
       id="circle22" />
    <path
       d="M37480 35118 L37480 30551 "
       id="path24" />
    <path
       d="M42362 30551 L42362 35118 "
       id="path26" />
    <path
       d="M37795 30236 L42047 30236 "
       id="path28" />
    <path
       d="M37795 35433 L42047 35433 "
       id="path30" />
    <path
       d="M37795.3 30236.2 A314.961 314.961 0.0 0 0 37480.3 30551.2 "
       id="path32" />
    <path
       d="M37480.3 35118.1 A314.961 314.961 0.0 0 0 37795.3 35433.1 "
       id="path34" />
    <path
       d="M42047.2 35433.1 A314.961 314.961 0.0 0 0 42362.2 35118.1 "
       id="path36" />
    <path
       d="M42362.2 30551.2 A314.961 314.961 0.0 0 0 42047.2 30236.2 "
       id="path38" />
    <path
       d="M38897 32244 L40944 32244 "
       id="path40" />
    <circle
       cx="39921.3"
       cy="32834.6"
       r="1181.1"
       id="circle42" />
  </g>
  <g
     style="fill:#000000; fill-opacity:0.0;  stroke:#000000; stroke-width:39.3701; stroke-opacity:1;  stroke-linecap:round; stroke-linejoin:round;"
     id="g94">
    <path
       d="M27421 13405 L27421 33090 "
       id="path46" />
    <path
       d="M27421.3 13405.5 A1181.1 1181.1 0.0 0 0 26240.2 12224.4 "
       id="path48" />
    <path
       d="M10098 12224 L26240 12224 "
       id="path50" />
    <path
       d="M10098.4 12224.4 A1181.1 1181.1 0.0 0 0 8917.32 13405.5 "
       id="path52" />
    <path
       d="M8917 33484 L8917 13405 "
       id="path54" />
    <path
       d="M8917.32 33484.3 A1181.1 1181.1 0.0 0 0 10098.4 34665.4 "
       id="path56" />
    <path
       d="M14035 34665 L10098 34665 "
       id="path58" />
    <path
       d="M26240.2 34665.4 A1181.1 1181.1 0.0 0 0 27421.3 33484.3 "
       id="path60" />
    <path
       d="M26240 34665 L14035 34665 "
       id="path62" />
    <path
       d="M14035 34665 L14429 34665 "
       id="path64" />
    <path
       d="M27421 33484 L27421 31515 "
       id="path66" />
    <circle
       cx="8917.32"
       cy="11633.9"
       r="393.701"
       id="circle68" />
    <circle
       cx="8917.32"
       cy="35255.9"
       r="393.701"
       id="circle70" />
    <circle
       cx="27421.3"
       cy="35255.9"
       r="393.701"
       id="circle72" />
    <circle
       cx="27421.3"
       cy="11633.9"
       r="393.701"
       id="circle74" />
    <path
       d="M18169 38208 L25452 38208 "
       id="path76" />
    <path
       d="M25452 38208 L25452 36043 "
       id="path78" />
    <path
       d="M25452 36043 L28208 36043 "
       id="path80" />
    <path
       d="M28208 36043 L28208 10846 "
       id="path82" />
    <path
       d="M28208 10846 L8129 10846 "
       id="path84" />
    <path
       d="M8129 10846 L8129 36043 "
       id="path86" />
    <path
       d="M8129 36043 L10885 36043 "
       id="path88" />
    <path
       d="M18169 38208 L10885 38208 "
       id="path90" />
    <path
       d="M10885 38208 L10885 36043 "
       id="path92" />
  </g>
  <g
     style="fill:#000000; fill-opacity:0.0;  stroke:#000000; stroke-width:47.2441; stroke-opacity:1;  stroke-linecap:round; stroke-linejoin:round;"
     id="g168">
    <path
       d="M29173 40137 L34015 40137 "
       id="path96" />
    <path
       d="M34015 41940 L34015 43177 "
       id="path98" />
    <path
       d="M34015 44980 L29173 44980 "
       id="path100" />
    <path
       d="M29173 41208 L29173 40137 "
       id="path102" />
    <circle
       cx="31633.9"
       cy="42574.8"
       r="1802.78"
       id="circle104" />
    <path
       d="M29173 44980 L29173 43909 "
       id="path106" />
    <path
       d="M29173 43177 L29173 41940 "
       id="path108" />
    <path
       d="M34015 43909 L34015 44980 "
       id="path110" />
    <path
       d="M34015 40137 L34015 41208 "
       id="path112" />
    <path
       d="M32326 24562 L63933 24562 "
       id="path114" />
    <path
       d="M63933 24562 L63933 10279 "
       id="path116" />
    <path
       d="M63933 10279 L32641 10279 "
       id="path118" />
    <path
       d="M32326 10279 L32326 24562 "
       id="path120" />
    <path
       d="M32330 10279 L32641 10279 "
       id="path122" />
    <path
       d="M34940 10137 L36122 10137 "
       id="path124" />
    <path
       d="M35610 14468 L60610 14468 "
       id="path126" />
    <path
       d="M35413 20176 L35413 14665 "
       id="path128" />
    <path
       d="M60610 20374 L35610 20374 "
       id="path130" />
    <path
       d="M60807 14665 L60807 20177 "
       id="path132" />
    <path
       d="M60807.1 14665.4 A196.85 196.85 0.0 0 0 60610.2 14468.5 "
       id="path134" />
    <path
       d="M60610.5 20373.9 A197 197 0.0 0 0 60807.5 20176.9 "
       id="path136" />
    <path
       d="M35413.5 20176.9 A197 197 0.0 0 0 35610.5 20373.9 "
       id="path138" />
    <path
       d="M35610.5 14467.9 A197 197 0.0 0 0 35413.5 14664.9 "
       id="path140" />
    <path
       d="M33562 12500 L62303 12500 "
       id="path142" />
    <path
       d="M62303 12500 L62303 22342 "
       id="path144" />
    <path
       d="M62303 22342 L33562 22342 "
       id="path146" />
    <path
       d="M33562 22342 L33562 12500 "
       id="path148" />
    <path
       d="M45629 40137 L50472 40137 "
       id="path150" />
    <path
       d="M50472 41940 L50472 43177 "
       id="path152" />
    <path
       d="M50472 44980 L45629 44980 "
       id="path154" />
    <path
       d="M45629 41208 L45629 40137 "
       id="path156" />
    <circle
       cx="48090.6"
       cy="42574.8"
       r="1802.78"
       id="circle158" />
    <path
       d="M45629 44980 L45629 43909 "
       id="path160" />
    <path
       d="M45629 43177 L45629 41940 "
       id="path162" />
    <path
       d="M50472 43909 L50472 44980 "
       id="path164" />
    <path
       d="M50472 40137 L50472 41208 "
       id="path166" />
  </g>
</svg>
