<?xml version="1.0" standalone="no"?>
 <!DOCTYPE svg PUBLIC "-//W3C//DTD SVG 1.1//EN" 
 "http://www.w3.org/Graphics/SVG/1.1/DTD/svg11.dtd"> 
<svg xmlns="http://www.w3.org/2000/svg" version="1.1" 
    width="29.7002cm" height="21.0007cm" viewBox="0 0 116930 82680 ">
<title>SVG Picture created as tower of power-F.SilkS.svg date 2018/03/05 19:04:43 </title>
  <desc>Picture generated by PCBNEW </desc>
<g style="fill:#000000; fill-opacity:1;stroke:#000000; stroke-opacity:1;
stroke-linecap:round; stroke-linejoin:round; "
 transform="translate(0 0) scale(1 1)">
</g>
<g style="fill:#000000; fill-opacity:0.0; 
stroke:#000000; stroke-width:-0.000393701; stroke-opacity:1; 
stroke-linecap:round; stroke-linejoin:round;">
</g>
<g style="fill:#000000; fill-opacity:0.0; 
stroke:#000000; stroke-width:47.2441; stroke-opacity:1; 
stroke-linecap:round; stroke-linejoin:round;">
<path d="M44225 65350
L43225 65350
" />
<path d="M43225 65350
L43225 66401
" />
<path d="M44225 66401
L59276 66401
" />
<path d="M42173 66401
L43225 66401
" />
<path d="M43225 60350
L43225 59298
" />
<path d="M43225 60350
L58225 60350
" />
<path d="M58225 60350
L58225 59298
" />
<path d="M44225 65350
L44225 66401
" />
<path d="M44225 65350
L58225 65350
" />
<path d="M58225 65350
L58225 66401
" />
<path d="M59276 66401
L59276 59298
" />
<path d="M59276 59298
L42173 59298
" />
<path d="M42173 59298
L42173 66401
" />
<path d="M13845 33894
L45451 33894
" />
<path d="M45451 33894
L45451 19610
" />
<path d="M45451 19610
L14160 19610
" />
<path d="M13845 19610
L13845 33894
" />
<path d="M13849 19610
L14160 19610
" />
<path d="M16459 19468
L17640 19468
" />
<path d="M17128 23799
L42128 23799
" />
<path d="M16932 29508
L16932 23996
" />
<path d="M42129 29705
L17128 29705
" />
<path d="M42325 23996
L42325 29508
" />
<path d="M42325.6 23996.5 A196.85 196.85 0.0 0 0 42128.7 23799.6 " />
<path d="M42129 29705 A197 197 0.0 0 0 42326 29508 " />
<path d="M16932 29508 A197 197 0.0 0 0 17129 29705 " />
<path d="M17129 23799 A197 197 0.0 0 0 16932 23996 " />
<path d="M15081 21831
L43821 21831
" />
<path d="M43821 21831
L43821 31673
" />
<path d="M43821 31673
L15081 31673
" />
<path d="M15081 31673
L15081 21831
" />
<path d="M20964 40227
L22011 40227
" />
<path d="M20964 37203
L20964 40227
" />
<path d="M22011 37203
L22011 40227
" />
<path d="M20964 37203
L22011 37203
" />
<path d="M20964 36703
L20964 36180
" />
<path d="M20964 36180
L21487 36180
" />
<path d="M23594 40227
L24641 40227
" />
<path d="M23594 37203
L23594 40227
" />
<path d="M24641 37203
L24641 40227
" />
<path d="M23594 37203
L24641 37203
" />
<path d="M23594 36703
L23594 36180
" />
<path d="M23594 36180
L24118 36180
" />
<path d="M14530 46963
L15994 46963
" />
<path d="M14530 47640
L15994 47640
" />
<path d="M17463 46963
L18927 46963
" />
<path d="M17463 47640
L18927 47640
" />
<path d="M25723 36255
L26907 36255
" />
<path d="M27388 36255
L28526 36255
" />
<path d="M25723 38900
L26907 38900
" />
<path d="M27388 38900
L28526 38900
" />
<path d="M25723 36255
L25723 38900
" />
<path d="M28526 36255
L28526 38900
" />
<path d="M21357 44381
L23128 44381
" />
<path d="M20864 42806
L20864 43396
" />
<path d="M23128 41822
L21357 41822
" />
<path d="M23620 43396
L23620 42806
" />
<path d="M14872 45290
L16644 45290
" />
<path d="M14380 43715
L14380 44306
" />
<path d="M16644 42731
L14872 42731
" />
<path d="M17136 44306
L17136 43715
" />
<path d="M14624 36184
L19467 36184
" />
<path d="M19467 37987
L19467 39223
" />
<path d="M19467 41026
L14624 41026
" />
<path d="M14624 37255
L14624 36184
" />
<circle cx="17085.4" cy="38621.3" r="1802.78" /> 
<path d="M14624 41026
L14624 39955
" />
<path d="M14624 39223
L14624 37987
" />
<path d="M19467 39955
L19467 41026
" />
<path d="M19467 36184
L19467 37255
" />
<path d="M14583 52924
L15630 52924
" />
<path d="M14583 50900
L14583 52924
" />
<path d="M15630 50900
L15630 52924
" />
<path d="M14583 50900
L15630 50900
" />
<path d="M14583 50400
L14583 49877
" />
<path d="M14583 49877
L15106 49877
" />
</g>
<g style="fill:#000000; fill-opacity:0.0; 
stroke:#000000; stroke-width:39.3701; stroke-opacity:1; 
stroke-linecap:round; stroke-linejoin:round;">
<path d="M65726 22059
L65726 41744
" />
<path d="M65727 22059.3 A1181.1 1181.1 0.0 0 0 64545.9 20878.1 " />
<path d="M48404 20878
L64545 20878
" />
<path d="M48404.1 20878.1 A1181.1 1181.1 0.0 0 0 47223 22059.3 " />
<path d="M47223 42137
L47223 22059
" />
<path d="M47223 42138 A1181.1 1181.1 0.0 0 0 48404.1 43319.1 " />
<path d="M52341 43319
L48404 43319
" />
<path d="M64545.9 43319.1 A1181.1 1181.1 0.0 0 0 65727 42138 " />
<path d="M64545 43319
L52341 43319
" />
<path d="M52341 43319
L52734 43319
" />
<path d="M65726 42137
L65726 40169
" />
<circle cx="47223" cy="20287.6" r="393.701" /> 
<circle cx="47223" cy="43909.6" r="393.701" /> 
<circle cx="65727" cy="43909.6" r="393.701" /> 
<circle cx="65727" cy="20287.6" r="393.701" /> 
<path d="M56475 46862
L63758 46862
" />
<path d="M63758 46862
L63758 44697
" />
<path d="M63758 44697
L66514 44697
" />
<path d="M66514 44697
L66514 19500
" />
<path d="M66514 19500
L46435 19500
" />
<path d="M46435 19500
L46435 44697
" />
<path d="M46435 44697
L49191 44697
" />
<path d="M56475 46862
L49191 46862
" />
<path d="M49191 46862
L49191 44697
" />
</g>
<g style="fill:#000000; fill-opacity:0.0; 
stroke:#000000; stroke-width:59.0551; stroke-opacity:1; 
stroke-linecap:round; stroke-linejoin:round;">
<path d="M41790 63131
L41790 62943
" />
<path d="M41903 63168
L41509 63037
L41903 62906
" />
<path d="M41903 62568
L41903 62793
" />
<path d="M41903 62681
L41509 62681
L41565 62718
L41603 62756
L41621 62793
" />
<path d="M14280 19328
L14280 18934
L14374 18934
L14430 18953
L14468 18990
L14486 19028
L14505 19103
L14505 19159
L14486 19234
L14468 19271
L14430 19309
L14374 19328
L14280 19328
" />
<path d="M14655 19309
L14711 19328
L14805 19328
L14843 19309
L14861 19290
L14880 19253
L14880 19215
L14861 19178
L14843 19159
L14805 19140
L14730 19121
L14693 19103
L14674 19084
L14655 19046
L14655 19009
L14674 18971
L14693 18953
L14730 18934
L14824 18934
L14880 18953
" />
<path d="M15255 19328
L15030 19328
" />
<path d="M15142 19328
L15142 18934
L15105 18990
L15067 19028
L15030 19046
" />
<path d="M21356 35571
L21356 35852
L21337 35908
L21300 35945
L21244 35964
L21206 35964
" />
<path d="M21750 35964
L21525 35964
" />
<path d="M21637 35964
L21637 35571
L21600 35627
L21562 35664
L21525 35683
" />
<path d="M23987 35571
L23987 35852
L23968 35908
L23930 35945
L23874 35964
L23837 35964
" />
<path d="M24155 35608
L24174 35589
L24212 35571
L24305 35571
L24343 35589
L24362 35608
L24380 35646
L24380 35683
L24362 35739
L24137 35964
L24380 35964
" />
<path d="M15196 46748
L15065 46560
" />
<path d="M14972 46748
L14972 46354
L15121 46354
L15159 46373
L15178 46391
L15196 46429
L15196 46485
L15178 46523
L15159 46541
L15121 46560
L14972 46560
" />
<path d="M15571 46748
L15346 46748
" />
<path d="M15459 46748
L15459 46354
L15421 46410
L15384 46448
L15346 46466
" />
<path d="M18130 46748
L17998 46560
" />
<path d="M17905 46748
L17905 46354
L18055 46354
L18092 46373
L18111 46391
L18130 46429
L18130 46485
L18111 46523
L18092 46541
L18055 46560
L17905 46560
" />
<path d="M18280 46391
L18298 46373
L18336 46354
L18430 46354
L18467 46373
L18486 46391
L18505 46429
L18505 46466
L18486 46523
L18261 46748
L18505 46748
" />
<path d="M26890 35964
L26759 35777
" />
<path d="M26665 35964
L26665 35571
L26815 35571
L26852 35589
L26871 35608
L26890 35646
L26890 35702
L26871 35739
L26852 35758
L26815 35777
L26665 35777
" />
<path d="M27002 35571
L27134 35964
L27265 35571
" />
<path d="M27602 35964
L27377 35964
" />
<path d="M27490 35964
L27490 35571
L27452 35627
L27415 35664
L27377 35683
" />
<path d="M21717 41587
L21774 41606
L21867 41606
L21905 41587
L21924 41568
L21942 41531
L21942 41493
L21924 41456
L21905 41437
L21867 41418
L21792 41400
L21755 41381
L21736 41362
L21717 41325
L21717 41287
L21736 41250
L21755 41231
L21792 41212
L21886 41212
L21942 41231
" />
<path d="M22074 41212
L22167 41606
L22242 41325
L22317 41606
L22411 41212
" />
<path d="M22767 41606
L22542 41606
" />
<path d="M22655 41606
L22655 41212
L22617 41268
L22580 41306
L22542 41325
" />
<path d="M15233 42497
L15289 42515
L15383 42515
L15421 42497
L15439 42478
L15458 42440
L15458 42403
L15439 42365
L15421 42347
L15383 42328
L15308 42309
L15271 42290
L15252 42272
L15233 42234
L15233 42197
L15252 42159
L15271 42140
L15308 42122
L15402 42122
L15458 42140
" />
<path d="M15589 42122
L15683 42515
L15758 42234
L15833 42515
L15927 42122
" />
<path d="M16058 42159
L16077 42140
L16114 42122
L16208 42122
L16246 42140
L16264 42159
L16283 42197
L16283 42234
L16264 42290
L16039 42515
L16283 42515
" />
<path d="M16454 35945
L16510 35964
L16604 35964
L16641 35945
L16660 35927
L16679 35889
L16679 35852
L16660 35814
L16641 35795
L16604 35777
L16529 35758
L16491 35739
L16472 35720
L16454 35683
L16454 35646
L16472 35608
L16491 35589
L16529 35571
L16622 35571
L16679 35589
" />
<path d="M16810 35571
L16904 35964
L16979 35683
L17054 35964
L17147 35571
" />
<path d="M17260 35571
L17504 35571
L17372 35720
L17429 35720
L17466 35739
L17485 35758
L17504 35795
L17504 35889
L17485 35927
L17466 35945
L17429 35964
L17316 35964
L17279 35945
L17260 35927
" />
<path d="M14806 49267
L14806 49586
L14825 49624
L14844 49642
L14881 49661
L14956 49661
L14994 49642
L15012 49624
L15031 49586
L15031 49267
" />
<path d="M15200 49305
L15219 49286
L15256 49267
L15350 49267
L15387 49286
L15406 49305
L15425 49342
L15425 49380
L15406 49436
L15181 49661
L15425 49661
" />
<path d="M58630 21347
L58630 21730
L58653 21775
L58675 21797
L58720 21820
L58810 21820
L58855 21797
L58878 21775
L58900 21730
L58900 21347
" />
<path d="M59080 21347
L59373 21347
L59215 21527
L59283 21527
L59328 21550
L59350 21572
L59373 21617
L59373 21730
L59350 21775
L59328 21797
L59283 21820
L59148 21820
L59103 21797
L59080 21775
" />
</g> 
</svg>
