<?xml version="1.0" standalone="no"?>
 <!DOCTYPE svg PUBLIC "-//W3C//DTD SVG 1.1//EN" 
 "http://www.w3.org/Graphics/SVG/1.1/DTD/svg11.dtd"> 
<svg xmlns="http://www.w3.org/2000/svg" version="1.1" 
    width="29.7002cm" height="21.0007cm" viewBox="0 0 116930 82680 ">
<title>SVG Picture created as tower of power-F.SilkS.svg date 2018/03/09 14:17:47 </title>
  <desc>Picture generated by PCBNEW </desc>
<g style="fill:#000000; fill-opacity:1;stroke:#000000; stroke-opacity:1;
stroke-linecap:round; stroke-linejoin:round; "
 transform="translate(0 0) scale(1 1)">
</g>
<g style="fill:#000000; fill-opacity:0.0; 
stroke:#000000; stroke-width:-0.000393701; stroke-opacity:1; 
stroke-linecap:round; stroke-linejoin:round;">
</g>
<g style="fill:#000000; fill-opacity:0.0; 
stroke:#000000; stroke-width:39.3701; stroke-opacity:1; 
stroke-linecap:round; stroke-linejoin:round;">
<circle cx="39921.3" cy="32834.6" r="6692.91" /> 
<circle cx="39921.3" cy="32834.6" r="5118.11" /> 
</g>
<g style="fill:#000000; fill-opacity:0.0; 
stroke:#000000; stroke-width:78.7402; stroke-opacity:1; 
stroke-linecap:round; stroke-linejoin:round;">
<circle cx="38307.1" cy="34862.2" r="196.85" /> 
<circle cx="41535.4" cy="34862.2" r="196.85" /> 
<circle cx="41535.4" cy="30846.5" r="196.85" /> 
<circle cx="38307.1" cy="30846.5" r="196.85" /> 
<path d="M37480 35118
L37480 30551
" />
<path d="M42362 30551
L42362 35118
" />
<path d="M37795 30236
L42047 30236
" />
<path d="M37795 35433
L42047 35433
" />
<path d="M37795.3 30236.2 A314.961 314.961 0.0 0 0 37480.3 30551.2 " />
<path d="M37480.3 35118.1 A314.961 314.961 0.0 0 0 37795.3 35433.1 " />
<path d="M42047.2 35433.1 A314.961 314.961 0.0 0 0 42362.2 35118.1 " />
<path d="M42362.2 30551.2 A314.961 314.961 0.0 0 0 42047.2 30236.2 " />
<path d="M38897 32244
L40944 32244
" />
<circle cx="39921.3" cy="32834.6" r="1181.1" /> 
</g>
<g style="fill:#000000; fill-opacity:0.0; 
stroke:#000000; stroke-width:39.3701; stroke-opacity:1; 
stroke-linecap:round; stroke-linejoin:round;">
<path d="M27421 13405
L27421 33090
" />
<path d="M27421.3 13405.5 A1181.1 1181.1 0.0 0 0 26240.2 12224.4 " />
<path d="M10098 12224
L26240 12224
" />
<path d="M10098.4 12224.4 A1181.1 1181.1 0.0 0 0 8917.32 13405.5 " />
<path d="M8917 33484
L8917 13405
" />
<path d="M8917.32 33484.3 A1181.1 1181.1 0.0 0 0 10098.4 34665.4 " />
<path d="M14035 34665
L10098 34665
" />
<path d="M26240.2 34665.4 A1181.1 1181.1 0.0 0 0 27421.3 33484.3 " />
<path d="M26240 34665
L14035 34665
" />
<path d="M14035 34665
L14429 34665
" />
<path d="M27421 33484
L27421 31515
" />
<circle cx="8917.32" cy="11633.9" r="393.701" /> 
<circle cx="8917.32" cy="35255.9" r="393.701" /> 
<circle cx="27421.3" cy="35255.9" r="393.701" /> 
<circle cx="27421.3" cy="11633.9" r="393.701" /> 
<path d="M18169 38208
L25452 38208
" />
<path d="M25452 38208
L25452 36043
" />
<path d="M25452 36043
L28208 36043
" />
<path d="M28208 36043
L28208 10846
" />
<path d="M28208 10846
L8129 10846
" />
<path d="M8129 10846
L8129 36043
" />
<path d="M8129 36043
L10885 36043
" />
<path d="M18169 38208
L10885 38208
" />
<path d="M10885 38208
L10885 36043
" />
</g>
<g style="fill:#000000; fill-opacity:0.0; 
stroke:#000000; stroke-width:47.2441; stroke-opacity:1; 
stroke-linecap:round; stroke-linejoin:round;">
<path d="M29173 40137
L34015 40137
" />
<path d="M34015 41940
L34015 43177
" />
<path d="M34015 44980
L29173 44980
" />
<path d="M29173 41208
L29173 40137
" />
<circle cx="31633.9" cy="42574.8" r="1802.78" /> 
<path d="M29173 44980
L29173 43909
" />
<path d="M29173 43177
L29173 41940
" />
<path d="M34015 43909
L34015 44980
" />
<path d="M34015 40137
L34015 41208
" />
<path d="M32326 24562
L63933 24562
" />
<path d="M63933 24562
L63933 10279
" />
<path d="M63933 10279
L32641 10279
" />
<path d="M32326 10279
L32326 24562
" />
<path d="M32330 10279
L32641 10279
" />
<path d="M34940 10137
L36122 10137
" />
<path d="M35610 14468
L60610 14468
" />
<path d="M35413 20176
L35413 14665
" />
<path d="M60610 20374
L35610 20374
" />
<path d="M60807 14665
L60807 20177
" />
<path d="M60807.1 14665.4 A196.85 196.85 0.0 0 0 60610.2 14468.5 " />
<path d="M60610.5 20373.9 A197 197 0.0 0 0 60807.5 20176.9 " />
<path d="M35413.5 20176.9 A197 197 0.0 0 0 35610.5 20373.9 " />
<path d="M35610.5 14467.9 A197 197 0.0 0 0 35413.5 14664.9 " />
<path d="M33562 12500
L62303 12500
" />
<path d="M62303 12500
L62303 22342
" />
<path d="M62303 22342
L33562 22342
" />
<path d="M33562 22342
L33562 12500
" />
<path d="M45629 40137
L50472 40137
" />
<path d="M50472 41940
L50472 43177
" />
<path d="M50472 44980
L45629 44980
" />
<path d="M45629 41208
L45629 40137
" />
<circle cx="48090.6" cy="42574.8" r="1802.78" /> 
<path d="M45629 44980
L45629 43909
" />
<path d="M45629 43177
L45629 41940
" />
<path d="M50472 43909
L50472 44980
" />
<path d="M50472 40137
L50472 41208
" />
</g>
<g style="fill:#000000; fill-opacity:0.0; 
stroke:#000000; stroke-width:78.7402; stroke-opacity:1; 
stroke-linecap:round; stroke-linejoin:round;">
<path d="M39396 29411
L39452 29430
L39546 29430
L39583 29411
L39602 29392
L39621 29355
L39621 29317
L39602 29280
L39583 29261
L39546 29242
L39471 29223
L39433 29205
L39415 29186
L39396 29148
L39396 29111
L39415 29073
L39433 29055
L39471 29036
L39565 29036
L39621 29055
" />
<path d="M39752 29036
L39846 29430
L39921 29148
L39996 29430
L40089 29036
" />
<path d="M40408 29167
L40408 29430
" />
<path d="M40314 29017
L40221 29298
L40464 29298
" />
</g>
<g style="fill:#000000; fill-opacity:0.0; 
stroke:#000000; stroke-width:59.0551; stroke-opacity:1; 
stroke-linecap:round; stroke-linejoin:round;">
<path d="M20325 12694
L20325 13076
L20347 13121
L20370 13143
L20415 13166
L20505 13166
L20550 13143
L20572 13121
L20595 13076
L20595 12694
" />
<path d="M20775 12694
L21067 12694
L20910 12874
L20977 12874
L21022 12896
L21044 12919
L21067 12964
L21067 13076
L21044 13121
L21022 13143
L20977 13166
L20842 13166
L20797 13143
L20775 13121
" />
<path d="M30224 39805
L30412 39805
" />
<path d="M30187 39918
L30318 39524
L30449 39918
" />
<path d="M30749 39918
L30749 39524
" />
<path d="M30749 39899
L30712 39918
L30637 39918
L30599 39899
L30580 39880
L30562 39843
L30562 39730
L30580 39693
L30599 39674
L30637 39655
L30712 39655
L30749 39674
" />
<path d="M30899 39655
L30993 39918
L31086 39655
" />
<path d="M31405 39918
L31405 39712
L31386 39674
L31349 39655
L31274 39655
L31236 39674
" />
<path d="M31405 39899
L31368 39918
L31274 39918
L31236 39899
L31218 39862
L31218 39824
L31236 39787
L31274 39768
L31368 39768
L31405 39749
" />
<path d="M31593 39655
L31593 39918
" />
<path d="M31593 39693
L31611 39674
L31649 39655
L31705 39655
L31743 39674
L31761 39712
L31761 39918
" />
<path d="M32118 39899
L32080 39918
L32005 39918
L31968 39899
L31949 39880
L31930 39843
L31930 39730
L31949 39693
L31968 39674
L32005 39655
L32080 39655
L32118 39674
" />
<path d="M32436 39899
L32399 39918
L32324 39918
L32286 39899
L32268 39862
L32268 39712
L32286 39674
L32324 39655
L32399 39655
L32436 39674
L32455 39712
L32455 39749
L32268 39787
" />
<path d="M32830 39918
L32605 39918
" />
<path d="M32718 39918
L32718 39524
L32680 39580
L32643 39618
L32605 39637
" />
<path d="M32780 9997
L32593 9997
L32593 9603
" />
<path d="M33137 9959
L33118 9978
L33062 9997
L33024 9997
L32968 9978
L32930 9940
L32912 9903
L32893 9828
L32893 9772
L32912 9697
L32930 9659
L32968 9622
L33024 9603
L33062 9603
L33118 9622
L33137 9640
" />
<path d="M33305 9997
L33305 9603
L33399 9603
L33455 9622
L33493 9659
L33511 9697
L33530 9772
L33530 9828
L33511 9903
L33493 9940
L33455 9978
L33399 9997
L33305 9997
" />
<path d="M33905 9997
L33680 9997
" />
<path d="M33793 9997
L33793 9603
L33755 9659
L33718 9697
L33680 9715
" />
<path d="M47159 39918
L47028 39730
" />
<path d="M46934 39918
L46934 39524
L47084 39524
L47121 39543
L47140 39562
L47159 39599
L47159 39655
L47140 39693
L47121 39712
L47084 39730
L46934 39730
" />
<path d="M47478 39899
L47440 39918
L47365 39918
L47328 39899
L47309 39862
L47309 39712
L47328 39674
L47365 39655
L47440 39655
L47478 39674
L47496 39712
L47496 39749
L47309 39787
" />
<path d="M47609 39655
L47759 39655
" />
<path d="M47665 39524
L47665 39862
L47684 39899
L47721 39918
L47759 39918
" />
<path d="M48059 39655
L48059 39918
" />
<path d="M47890 39655
L47890 39862
L47909 39899
L47946 39918
L48003 39918
L48040 39899
L48059 39880
" />
<path d="M48246 39918
L48246 39655
" />
<path d="M48246 39730
L48265 39693
L48284 39674
L48321 39655
L48359 39655
" />
<path d="M48490 39655
L48490 39918
" />
<path d="M48490 39693
L48509 39674
L48546 39655
L48602 39655
L48640 39674
L48659 39712
L48659 39918
" />
<path d="M49052 39918
L48827 39918
" />
<path d="M48940 39918
L48940 39524
L48902 39580
L48865 39618
L48827 39637
" />
</g> 
</svg>
