G04 #@! TF.FileFunction,Legend,Top*
%FSLAX46Y46*%
G04 Gerber Fmt 4.6, Leading zero omitted, Abs format (unit mm)*
G04 Created by KiCad (PCBNEW 4.0.7) date 03/05/18 15:50:36*
%MOMM*%
%LPD*%
G01*
G04 APERTURE LIST*
%ADD10C,0.100000*%
%ADD11C,0.120000*%
%ADD12C,0.050000*%
%ADD13C,0.150000*%
G04 APERTURE END LIST*
D10*
D11*
X125603000Y-137922000D02*
X123063000Y-137922000D01*
X123063000Y-137922000D02*
X123063000Y-140592000D01*
X125603000Y-140592000D02*
X163833000Y-140592000D01*
X120393000Y-140592000D02*
X123063000Y-140592000D01*
X123063000Y-125222000D02*
X123063000Y-122552000D01*
X123063000Y-125222000D02*
X161163000Y-125222000D01*
X161163000Y-125222000D02*
X161163000Y-122552000D01*
X125603000Y-137922000D02*
X125603000Y-140592000D01*
X125603000Y-137922000D02*
X161163000Y-137922000D01*
X161163000Y-137922000D02*
X161163000Y-140592000D01*
X163833000Y-140592000D02*
X163833000Y-122552000D01*
X163833000Y-122552000D02*
X120393000Y-122552000D01*
X120393000Y-122552000D02*
X120393000Y-140592000D01*
X35167000Y-86091000D02*
X115447000Y-86091000D01*
X115447000Y-86091000D02*
X115447000Y-49811000D01*
X115447000Y-49811000D02*
X35967000Y-49811000D01*
X35167000Y-49811000D02*
X35167000Y-86091000D01*
X35177000Y-49811000D02*
X35967000Y-49811000D01*
X41807000Y-49451000D02*
X44807000Y-49451000D01*
X43507000Y-60451000D02*
X107007000Y-60451000D01*
X43007280Y-74950320D02*
X43007280Y-60951000D01*
X107007660Y-75451000D02*
X43507000Y-75451000D01*
X107507000Y-60951000D02*
X107507000Y-74951000D01*
X107507000Y-60951000D02*
G75*
G03X107007000Y-60451000I-500000J0D01*
G01*
X107007660Y-75450700D02*
G75*
G03X107508040Y-74950320I0J500380D01*
G01*
X43007280Y-74950320D02*
G75*
G03X43507660Y-75450700I500380J0D01*
G01*
X43507660Y-60449460D02*
G75*
G03X43007280Y-60949840I0J-500380D01*
G01*
X38307000Y-55451000D02*
X111307000Y-55451000D01*
X111307000Y-55451000D02*
X111307000Y-80451000D01*
X111307000Y-80451000D02*
X38307000Y-80451000D01*
X38307000Y-80451000D02*
X38307000Y-55451000D01*
X53249143Y-102178000D02*
X55909143Y-102178000D01*
X53249143Y-94498000D02*
X53249143Y-102178000D01*
X55909143Y-94498000D02*
X55909143Y-102178000D01*
X53249143Y-94498000D02*
X55909143Y-94498000D01*
X53249143Y-93228000D02*
X53249143Y-91898000D01*
X53249143Y-91898000D02*
X54579143Y-91898000D01*
X59930572Y-102178000D02*
X62590572Y-102178000D01*
X59930572Y-94498000D02*
X59930572Y-102178000D01*
X62590572Y-94498000D02*
X62590572Y-102178000D01*
X59930572Y-94498000D02*
X62590572Y-94498000D01*
X59930572Y-93228000D02*
X59930572Y-91898000D01*
X59930572Y-91898000D02*
X61260572Y-91898000D01*
X36907001Y-119288000D02*
X40627001Y-119288000D01*
X36907001Y-121008000D02*
X40627001Y-121008000D01*
X44357001Y-119288000D02*
X48077001Y-119288000D01*
X44357001Y-121008000D02*
X48077001Y-121008000D01*
X65337001Y-92088000D02*
X68346001Y-92088000D01*
X69568001Y-92088000D02*
X72457001Y-92088000D01*
X65337001Y-98808000D02*
X68346001Y-98808000D01*
X69568001Y-98808000D02*
X72457001Y-98808000D01*
X65337001Y-92088000D02*
X65337001Y-98808000D01*
X72457001Y-92088000D02*
X72457001Y-98808000D01*
X54247001Y-112728000D02*
X58747001Y-112728000D01*
X52997001Y-108728000D02*
X52997001Y-110228000D01*
X58747001Y-106228000D02*
X54247001Y-106228000D01*
X59997001Y-110228000D02*
X59997001Y-108728000D01*
X37777001Y-115038000D02*
X42277001Y-115038000D01*
X36527001Y-111038000D02*
X36527001Y-112538000D01*
X42277001Y-108538000D02*
X37777001Y-108538000D01*
X43527001Y-112538000D02*
X43527001Y-111038000D01*
X37147001Y-91908000D02*
X49447001Y-91908000D01*
X49447001Y-96488000D02*
X49447001Y-99628000D01*
X49447001Y-104208000D02*
X37147001Y-104208000D01*
X37147001Y-94628000D02*
X37147001Y-91908000D01*
X47976051Y-98098000D02*
G75*
G03X47976051Y-98098000I-4579050J0D01*
G01*
X37147001Y-104208000D02*
X37147001Y-101488000D01*
X37147001Y-99628000D02*
X37147001Y-96488000D01*
X49447001Y-101488000D02*
X49447001Y-104208000D01*
X49447001Y-91908000D02*
X49447001Y-94628000D01*
X37041048Y-134428000D02*
X39701048Y-134428000D01*
X37041048Y-129288000D02*
X37041048Y-134428000D01*
X39701048Y-129288000D02*
X39701048Y-134428000D01*
X37041048Y-129288000D02*
X39701048Y-129288000D01*
X37041048Y-128018000D02*
X37041048Y-126688000D01*
X37041048Y-126688000D02*
X38371048Y-126688000D01*
D12*
X119227001Y-51628001D02*
G75*
G03X119227001Y-51628001I-1000000J0D01*
G01*
X119227001Y-111628001D02*
G75*
G03X119227001Y-111628001I-1000000J0D01*
G01*
X166227001Y-111628001D02*
G75*
G03X166227001Y-111628001I-1000000J0D01*
G01*
X166227001Y-51628001D02*
G75*
G03X166227001Y-51628001I-1000000J0D01*
G01*
X141727001Y-119128001D02*
X160227001Y-119128001D01*
X160227001Y-119128001D02*
X160227001Y-113628001D01*
X160227001Y-113628001D02*
X167227001Y-113628001D01*
X167227001Y-113628001D02*
X167227001Y-49628001D01*
X167227001Y-49628001D02*
X116227001Y-49628001D01*
X116227001Y-49628001D02*
X116227001Y-113628001D01*
X116227001Y-113628001D02*
X123227001Y-113628001D01*
X141727001Y-119128001D02*
X123227001Y-119128001D01*
X123227001Y-119128001D02*
X123227001Y-113628001D01*
D13*
X119419667Y-132286286D02*
X119419667Y-131810095D01*
X119705381Y-132381524D02*
X118705381Y-132048191D01*
X119705381Y-131714857D01*
X119705381Y-130857714D02*
X119705381Y-131429143D01*
X119705381Y-131143429D02*
X118705381Y-131143429D01*
X118848238Y-131238667D01*
X118943476Y-131333905D01*
X118991095Y-131429143D01*
X36272714Y-49093381D02*
X36272714Y-48093381D01*
X36510809Y-48093381D01*
X36653667Y-48141000D01*
X36748905Y-48236238D01*
X36796524Y-48331476D01*
X36844143Y-48521952D01*
X36844143Y-48664810D01*
X36796524Y-48855286D01*
X36748905Y-48950524D01*
X36653667Y-49045762D01*
X36510809Y-49093381D01*
X36272714Y-49093381D01*
X37225095Y-49045762D02*
X37367952Y-49093381D01*
X37606048Y-49093381D01*
X37701286Y-49045762D01*
X37748905Y-48998143D01*
X37796524Y-48902905D01*
X37796524Y-48807667D01*
X37748905Y-48712429D01*
X37701286Y-48664810D01*
X37606048Y-48617190D01*
X37415571Y-48569571D01*
X37320333Y-48521952D01*
X37272714Y-48474333D01*
X37225095Y-48379095D01*
X37225095Y-48283857D01*
X37272714Y-48188619D01*
X37320333Y-48141000D01*
X37415571Y-48093381D01*
X37653667Y-48093381D01*
X37796524Y-48141000D01*
X38748905Y-49093381D02*
X38177476Y-49093381D01*
X38463190Y-49093381D02*
X38463190Y-48093381D01*
X38367952Y-48236238D01*
X38272714Y-48331476D01*
X38177476Y-48379095D01*
X54245810Y-90350381D02*
X54245810Y-91064667D01*
X54198190Y-91207524D01*
X54102952Y-91302762D01*
X53960095Y-91350381D01*
X53864857Y-91350381D01*
X55245810Y-91350381D02*
X54674381Y-91350381D01*
X54960095Y-91350381D02*
X54960095Y-90350381D01*
X54864857Y-90493238D01*
X54769619Y-90588476D01*
X54674381Y-90636095D01*
X60927239Y-90350381D02*
X60927239Y-91064667D01*
X60879619Y-91207524D01*
X60784381Y-91302762D01*
X60641524Y-91350381D01*
X60546286Y-91350381D01*
X61355810Y-90445619D02*
X61403429Y-90398000D01*
X61498667Y-90350381D01*
X61736763Y-90350381D01*
X61832001Y-90398000D01*
X61879620Y-90445619D01*
X61927239Y-90540857D01*
X61927239Y-90636095D01*
X61879620Y-90778952D01*
X61308191Y-91350381D01*
X61927239Y-91350381D01*
X38600335Y-118740381D02*
X38267001Y-118264190D01*
X38028906Y-118740381D02*
X38028906Y-117740381D01*
X38409859Y-117740381D01*
X38505097Y-117788000D01*
X38552716Y-117835619D01*
X38600335Y-117930857D01*
X38600335Y-118073714D01*
X38552716Y-118168952D01*
X38505097Y-118216571D01*
X38409859Y-118264190D01*
X38028906Y-118264190D01*
X39552716Y-118740381D02*
X38981287Y-118740381D01*
X39267001Y-118740381D02*
X39267001Y-117740381D01*
X39171763Y-117883238D01*
X39076525Y-117978476D01*
X38981287Y-118026095D01*
X46050335Y-118740381D02*
X45717001Y-118264190D01*
X45478906Y-118740381D02*
X45478906Y-117740381D01*
X45859859Y-117740381D01*
X45955097Y-117788000D01*
X46002716Y-117835619D01*
X46050335Y-117930857D01*
X46050335Y-118073714D01*
X46002716Y-118168952D01*
X45955097Y-118216571D01*
X45859859Y-118264190D01*
X45478906Y-118264190D01*
X46431287Y-117835619D02*
X46478906Y-117788000D01*
X46574144Y-117740381D01*
X46812240Y-117740381D01*
X46907478Y-117788000D01*
X46955097Y-117835619D01*
X47002716Y-117930857D01*
X47002716Y-118026095D01*
X46955097Y-118168952D01*
X46383668Y-118740381D01*
X47002716Y-118740381D01*
X68301763Y-91350381D02*
X67968429Y-90874190D01*
X67730334Y-91350381D02*
X67730334Y-90350381D01*
X68111287Y-90350381D01*
X68206525Y-90398000D01*
X68254144Y-90445619D01*
X68301763Y-90540857D01*
X68301763Y-90683714D01*
X68254144Y-90778952D01*
X68206525Y-90826571D01*
X68111287Y-90874190D01*
X67730334Y-90874190D01*
X68587477Y-90350381D02*
X68920810Y-91350381D01*
X69254144Y-90350381D01*
X70111287Y-91350381D02*
X69539858Y-91350381D01*
X69825572Y-91350381D02*
X69825572Y-90350381D01*
X69730334Y-90493238D01*
X69635096Y-90588476D01*
X69539858Y-90636095D01*
X55163668Y-105632762D02*
X55306525Y-105680381D01*
X55544621Y-105680381D01*
X55639859Y-105632762D01*
X55687478Y-105585143D01*
X55735097Y-105489905D01*
X55735097Y-105394667D01*
X55687478Y-105299429D01*
X55639859Y-105251810D01*
X55544621Y-105204190D01*
X55354144Y-105156571D01*
X55258906Y-105108952D01*
X55211287Y-105061333D01*
X55163668Y-104966095D01*
X55163668Y-104870857D01*
X55211287Y-104775619D01*
X55258906Y-104728000D01*
X55354144Y-104680381D01*
X55592240Y-104680381D01*
X55735097Y-104728000D01*
X56068430Y-104680381D02*
X56306525Y-105680381D01*
X56497002Y-104966095D01*
X56687478Y-105680381D01*
X56925573Y-104680381D01*
X57830335Y-105680381D02*
X57258906Y-105680381D01*
X57544620Y-105680381D02*
X57544620Y-104680381D01*
X57449382Y-104823238D01*
X57354144Y-104918476D01*
X57258906Y-104966095D01*
X38693668Y-107942762D02*
X38836525Y-107990381D01*
X39074621Y-107990381D01*
X39169859Y-107942762D01*
X39217478Y-107895143D01*
X39265097Y-107799905D01*
X39265097Y-107704667D01*
X39217478Y-107609429D01*
X39169859Y-107561810D01*
X39074621Y-107514190D01*
X38884144Y-107466571D01*
X38788906Y-107418952D01*
X38741287Y-107371333D01*
X38693668Y-107276095D01*
X38693668Y-107180857D01*
X38741287Y-107085619D01*
X38788906Y-107038000D01*
X38884144Y-106990381D01*
X39122240Y-106990381D01*
X39265097Y-107038000D01*
X39598430Y-106990381D02*
X39836525Y-107990381D01*
X40027002Y-107276095D01*
X40217478Y-107990381D01*
X40455573Y-106990381D01*
X40788906Y-107085619D02*
X40836525Y-107038000D01*
X40931763Y-106990381D01*
X41169859Y-106990381D01*
X41265097Y-107038000D01*
X41312716Y-107085619D01*
X41360335Y-107180857D01*
X41360335Y-107276095D01*
X41312716Y-107418952D01*
X40741287Y-107990381D01*
X41360335Y-107990381D01*
X41793668Y-91302762D02*
X41936525Y-91350381D01*
X42174621Y-91350381D01*
X42269859Y-91302762D01*
X42317478Y-91255143D01*
X42365097Y-91159905D01*
X42365097Y-91064667D01*
X42317478Y-90969429D01*
X42269859Y-90921810D01*
X42174621Y-90874190D01*
X41984144Y-90826571D01*
X41888906Y-90778952D01*
X41841287Y-90731333D01*
X41793668Y-90636095D01*
X41793668Y-90540857D01*
X41841287Y-90445619D01*
X41888906Y-90398000D01*
X41984144Y-90350381D01*
X42222240Y-90350381D01*
X42365097Y-90398000D01*
X42698430Y-90350381D02*
X42936525Y-91350381D01*
X43127002Y-90636095D01*
X43317478Y-91350381D01*
X43555573Y-90350381D01*
X43841287Y-90350381D02*
X44460335Y-90350381D01*
X44127001Y-90731333D01*
X44269859Y-90731333D01*
X44365097Y-90778952D01*
X44412716Y-90826571D01*
X44460335Y-90921810D01*
X44460335Y-91159905D01*
X44412716Y-91255143D01*
X44365097Y-91302762D01*
X44269859Y-91350381D01*
X43984144Y-91350381D01*
X43888906Y-91302762D01*
X43841287Y-91255143D01*
X37609143Y-125140381D02*
X37609143Y-125949905D01*
X37656762Y-126045143D01*
X37704381Y-126092762D01*
X37799619Y-126140381D01*
X37990096Y-126140381D01*
X38085334Y-126092762D01*
X38132953Y-126045143D01*
X38180572Y-125949905D01*
X38180572Y-125140381D01*
X38609143Y-125235619D02*
X38656762Y-125188000D01*
X38752000Y-125140381D01*
X38990096Y-125140381D01*
X39085334Y-125188000D01*
X39132953Y-125235619D01*
X39180572Y-125330857D01*
X39180572Y-125426095D01*
X39132953Y-125568952D01*
X38561524Y-126140381D01*
X39180572Y-126140381D01*
X149702715Y-122820858D02*
X149702715Y-123792287D01*
X149759858Y-123906572D01*
X149817001Y-123963715D01*
X149931287Y-124020858D01*
X150159858Y-124020858D01*
X150274144Y-123963715D01*
X150331287Y-123906572D01*
X150388430Y-123792287D01*
X150388430Y-122820858D01*
X150845573Y-122820858D02*
X151588430Y-122820858D01*
X151188430Y-123278001D01*
X151359858Y-123278001D01*
X151474144Y-123335144D01*
X151531287Y-123392287D01*
X151588430Y-123506572D01*
X151588430Y-123792287D01*
X151531287Y-123906572D01*
X151474144Y-123963715D01*
X151359858Y-124020858D01*
X151017001Y-124020858D01*
X150902715Y-123963715D01*
X150845573Y-123906572D01*
M02*
