G04 #@! TF.FileFunction,Legend,Top*
%FSLAX46Y46*%
G04 Gerber Fmt 4.6, Leading zero omitted, Abs format (unit mm)*
G04 Created by KiCad (PCBNEW 4.0.7) date 02/01/18 03:58:40*
%MOMM*%
%LPD*%
G01*
G04 APERTURE LIST*
%ADD10C,0.100000*%
%ADD11C,0.120000*%
%ADD12C,0.150000*%
G04 APERTURE END LIST*
D10*
D11*
X152511000Y-93666000D02*
G75*
G02X150511000Y-93666000I-1000000J0D01*
G01*
X150511000Y-93666000D02*
X148861000Y-93666000D01*
X148861000Y-93666000D02*
X148861000Y-103946000D01*
X148861000Y-103946000D02*
X154161000Y-103946000D01*
X154161000Y-103946000D02*
X154161000Y-93666000D01*
X154161000Y-93666000D02*
X152511000Y-93666000D01*
X134112000Y-96139000D02*
X134112000Y-101219000D01*
X138552000Y-96139000D02*
X138552000Y-101219000D01*
X132212000Y-101219000D02*
X132212000Y-96139000D01*
X132212000Y-101219000D02*
X138552000Y-101219000D01*
X132212000Y-96139000D02*
X138552000Y-96139000D01*
X149421000Y-90043462D02*
G75*
G03X143871000Y-88498170I-2990000J462D01*
G01*
X149421000Y-90042538D02*
G75*
G02X143871000Y-91587830I-2990000J-462D01*
G01*
X148931000Y-90043000D02*
G75*
G03X148931000Y-90043000I-2500000J0D01*
G01*
X143871000Y-88498000D02*
X143871000Y-91588000D01*
X153601000Y-89915538D02*
G75*
G03X159151000Y-91460830I2990000J-462D01*
G01*
X153601000Y-89916462D02*
G75*
G02X159151000Y-88371170I2990000J462D01*
G01*
X159091000Y-89916000D02*
G75*
G03X159091000Y-89916000I-2500000J0D01*
G01*
X159151000Y-91461000D02*
X159151000Y-88371000D01*
X153601000Y-107695538D02*
G75*
G03X159151000Y-109240830I2990000J-462D01*
G01*
X153601000Y-107696462D02*
G75*
G02X159151000Y-106151170I2990000J462D01*
G01*
X159091000Y-107696000D02*
G75*
G03X159091000Y-107696000I-2500000J0D01*
G01*
X159151000Y-109241000D02*
X159151000Y-106151000D01*
X149421000Y-107696462D02*
G75*
G03X143871000Y-106151170I-2990000J462D01*
G01*
X149421000Y-107695538D02*
G75*
G02X143871000Y-109240830I-2990000J-462D01*
G01*
X148931000Y-107696000D02*
G75*
G03X148931000Y-107696000I-2500000J0D01*
G01*
X143871000Y-106151000D02*
X143871000Y-109241000D01*
X169940000Y-98552000D02*
G75*
G03X169940000Y-98552000I-6100000J0D01*
G01*
X134966000Y-92365000D02*
X134966000Y-92035000D01*
X134966000Y-92035000D02*
X141386000Y-92035000D01*
X141386000Y-92035000D02*
X141386000Y-92365000D01*
X134966000Y-94325000D02*
X134966000Y-94655000D01*
X134966000Y-94655000D02*
X141386000Y-94655000D01*
X141386000Y-94655000D02*
X141386000Y-94325000D01*
X158150000Y-85943000D02*
X158150000Y-86273000D01*
X158150000Y-86273000D02*
X151730000Y-86273000D01*
X151730000Y-86273000D02*
X151730000Y-85943000D01*
X158150000Y-83983000D02*
X158150000Y-83653000D01*
X158150000Y-83653000D02*
X151730000Y-83653000D01*
X151730000Y-83653000D02*
X151730000Y-83983000D01*
X158150000Y-113629000D02*
X158150000Y-113959000D01*
X158150000Y-113959000D02*
X151730000Y-113959000D01*
X151730000Y-113959000D02*
X151730000Y-113629000D01*
X158150000Y-111669000D02*
X158150000Y-111339000D01*
X158150000Y-111339000D02*
X151730000Y-111339000D01*
X151730000Y-111339000D02*
X151730000Y-111669000D01*
X134966000Y-103541000D02*
X134966000Y-103211000D01*
X134966000Y-103211000D02*
X141386000Y-103211000D01*
X141386000Y-103211000D02*
X141386000Y-103541000D01*
X134966000Y-105501000D02*
X134966000Y-105831000D01*
X134966000Y-105831000D02*
X141386000Y-105831000D01*
X141386000Y-105831000D02*
X141386000Y-105501000D01*
X166894000Y-84416000D02*
X162394000Y-84416000D01*
X168144000Y-88416000D02*
X168144000Y-86916000D01*
X162394000Y-90916000D02*
X166894000Y-90916000D01*
X161144000Y-86916000D02*
X161144000Y-88416000D01*
X162417000Y-113196000D02*
X166917000Y-113196000D01*
X161167000Y-109196000D02*
X161167000Y-110696000D01*
X166917000Y-106696000D02*
X162417000Y-106696000D01*
X168167000Y-110696000D02*
X168167000Y-109196000D01*
X136128000Y-113196000D02*
X140628000Y-113196000D01*
X134878000Y-109196000D02*
X134878000Y-110696000D01*
X140628000Y-106696000D02*
X136128000Y-106696000D01*
X141878000Y-110696000D02*
X141878000Y-109196000D01*
X140605000Y-84543000D02*
X136105000Y-84543000D01*
X141855000Y-88543000D02*
X141855000Y-87043000D01*
X136105000Y-91043000D02*
X140605000Y-91043000D01*
X134855000Y-87043000D02*
X134855000Y-88543000D01*
X147829000Y-93980000D02*
X147829000Y-104140000D01*
X141989000Y-104140000D02*
X141989000Y-93980000D01*
X141989000Y-93980000D02*
X147829000Y-93980000D01*
X141989000Y-104140000D02*
X147829000Y-104140000D01*
D12*
X150749095Y-98258381D02*
X150749095Y-99067905D01*
X150796714Y-99163143D01*
X150844333Y-99210762D01*
X150939571Y-99258381D01*
X151130048Y-99258381D01*
X151225286Y-99210762D01*
X151272905Y-99163143D01*
X151320524Y-99067905D01*
X151320524Y-98258381D01*
X152320524Y-99258381D02*
X151749095Y-99258381D01*
X152034809Y-99258381D02*
X152034809Y-98258381D01*
X151939571Y-98401238D01*
X151844333Y-98496476D01*
X151749095Y-98544095D01*
X137723571Y-99417095D02*
X137771190Y-99274238D01*
X137818810Y-99226619D01*
X137914048Y-99179000D01*
X138056905Y-99179000D01*
X138152143Y-99226619D01*
X138199762Y-99274238D01*
X138247381Y-99369476D01*
X138247381Y-99750429D01*
X137247381Y-99750429D01*
X137247381Y-99417095D01*
X137295000Y-99321857D01*
X137342619Y-99274238D01*
X137437857Y-99226619D01*
X137533095Y-99226619D01*
X137628333Y-99274238D01*
X137675952Y-99321857D01*
X137723571Y-99417095D01*
X137723571Y-99750429D01*
X137961667Y-98798048D02*
X137961667Y-98321857D01*
X138247381Y-98893286D02*
X137247381Y-98559953D01*
X138247381Y-98226619D01*
X137247381Y-98036143D02*
X137247381Y-97464714D01*
X138247381Y-97750429D02*
X137247381Y-97750429D01*
X145819905Y-92146381D02*
X145819905Y-91146381D01*
X146058000Y-91146381D01*
X146200858Y-91194000D01*
X146296096Y-91289238D01*
X146343715Y-91384476D01*
X146391334Y-91574952D01*
X146391334Y-91717810D01*
X146343715Y-91908286D01*
X146296096Y-92003524D01*
X146200858Y-92098762D01*
X146058000Y-92146381D01*
X145819905Y-92146381D01*
X147343715Y-92146381D02*
X146772286Y-92146381D01*
X147058000Y-92146381D02*
X147058000Y-91146381D01*
X146962762Y-91289238D01*
X146867524Y-91384476D01*
X146772286Y-91432095D01*
X155725905Y-92019381D02*
X155725905Y-91019381D01*
X155964000Y-91019381D01*
X156106858Y-91067000D01*
X156202096Y-91162238D01*
X156249715Y-91257476D01*
X156297334Y-91447952D01*
X156297334Y-91590810D01*
X156249715Y-91781286D01*
X156202096Y-91876524D01*
X156106858Y-91971762D01*
X155964000Y-92019381D01*
X155725905Y-92019381D01*
X156678286Y-91114619D02*
X156725905Y-91067000D01*
X156821143Y-91019381D01*
X157059239Y-91019381D01*
X157154477Y-91067000D01*
X157202096Y-91114619D01*
X157249715Y-91209857D01*
X157249715Y-91305095D01*
X157202096Y-91447952D01*
X156630667Y-92019381D01*
X157249715Y-92019381D01*
X155725905Y-109926381D02*
X155725905Y-108926381D01*
X155964000Y-108926381D01*
X156106858Y-108974000D01*
X156202096Y-109069238D01*
X156249715Y-109164476D01*
X156297334Y-109354952D01*
X156297334Y-109497810D01*
X156249715Y-109688286D01*
X156202096Y-109783524D01*
X156106858Y-109878762D01*
X155964000Y-109926381D01*
X155725905Y-109926381D01*
X156630667Y-108926381D02*
X157249715Y-108926381D01*
X156916381Y-109307333D01*
X157059239Y-109307333D01*
X157154477Y-109354952D01*
X157202096Y-109402571D01*
X157249715Y-109497810D01*
X157249715Y-109735905D01*
X157202096Y-109831143D01*
X157154477Y-109878762D01*
X157059239Y-109926381D01*
X156773524Y-109926381D01*
X156678286Y-109878762D01*
X156630667Y-109831143D01*
X145692905Y-109926381D02*
X145692905Y-108926381D01*
X145931000Y-108926381D01*
X146073858Y-108974000D01*
X146169096Y-109069238D01*
X146216715Y-109164476D01*
X146264334Y-109354952D01*
X146264334Y-109497810D01*
X146216715Y-109688286D01*
X146169096Y-109783524D01*
X146073858Y-109878762D01*
X145931000Y-109926381D01*
X145692905Y-109926381D01*
X147121477Y-109259714D02*
X147121477Y-109926381D01*
X146883381Y-108878762D02*
X146645286Y-109593048D01*
X147264334Y-109593048D01*
X160583952Y-96924762D02*
X160726809Y-96972381D01*
X160964905Y-96972381D01*
X161060143Y-96924762D01*
X161107762Y-96877143D01*
X161155381Y-96781905D01*
X161155381Y-96686667D01*
X161107762Y-96591429D01*
X161060143Y-96543810D01*
X160964905Y-96496190D01*
X160774428Y-96448571D01*
X160679190Y-96400952D01*
X160631571Y-96353333D01*
X160583952Y-96258095D01*
X160583952Y-96162857D01*
X160631571Y-96067619D01*
X160679190Y-96020000D01*
X160774428Y-95972381D01*
X161012524Y-95972381D01*
X161155381Y-96020000D01*
X161583952Y-96972381D02*
X161583952Y-95972381D01*
X161964905Y-95972381D01*
X162060143Y-96020000D01*
X162107762Y-96067619D01*
X162155381Y-96162857D01*
X162155381Y-96305714D01*
X162107762Y-96400952D01*
X162060143Y-96448571D01*
X161964905Y-96496190D01*
X161583952Y-96496190D01*
X162583952Y-96448571D02*
X162917286Y-96448571D01*
X163060143Y-96972381D02*
X162583952Y-96972381D01*
X162583952Y-95972381D01*
X163060143Y-95972381D01*
X163441095Y-96686667D02*
X163917286Y-96686667D01*
X163345857Y-96972381D02*
X163679190Y-95972381D01*
X164012524Y-96972381D01*
X164345857Y-96972381D02*
X164345857Y-95972381D01*
X164917286Y-96972381D02*
X164488714Y-96400952D01*
X164917286Y-95972381D02*
X164345857Y-96543810D01*
X165345857Y-96448571D02*
X165679191Y-96448571D01*
X165822048Y-96972381D02*
X165345857Y-96972381D01*
X165345857Y-95972381D01*
X165822048Y-95972381D01*
X166822048Y-96972381D02*
X166488714Y-96496190D01*
X166250619Y-96972381D02*
X166250619Y-95972381D01*
X166631572Y-95972381D01*
X166726810Y-96020000D01*
X166774429Y-96067619D01*
X166822048Y-96162857D01*
X166822048Y-96305714D01*
X166774429Y-96400952D01*
X166726810Y-96448571D01*
X166631572Y-96496190D01*
X166250619Y-96496190D01*
X167259048Y-100423429D02*
X168020953Y-100423429D01*
X167640001Y-100804381D02*
X167640001Y-100042476D01*
X138263334Y-93797381D02*
X137930000Y-93321190D01*
X137691905Y-93797381D02*
X137691905Y-92797381D01*
X138072858Y-92797381D01*
X138168096Y-92845000D01*
X138215715Y-92892619D01*
X138263334Y-92987857D01*
X138263334Y-93130714D01*
X138215715Y-93225952D01*
X138168096Y-93273571D01*
X138072858Y-93321190D01*
X137691905Y-93321190D01*
X139215715Y-93797381D02*
X138644286Y-93797381D01*
X138930000Y-93797381D02*
X138930000Y-92797381D01*
X138834762Y-92940238D01*
X138739524Y-93035476D01*
X138644286Y-93083095D01*
X154773334Y-85415381D02*
X154440000Y-84939190D01*
X154201905Y-85415381D02*
X154201905Y-84415381D01*
X154582858Y-84415381D01*
X154678096Y-84463000D01*
X154725715Y-84510619D01*
X154773334Y-84605857D01*
X154773334Y-84748714D01*
X154725715Y-84843952D01*
X154678096Y-84891571D01*
X154582858Y-84939190D01*
X154201905Y-84939190D01*
X155154286Y-84510619D02*
X155201905Y-84463000D01*
X155297143Y-84415381D01*
X155535239Y-84415381D01*
X155630477Y-84463000D01*
X155678096Y-84510619D01*
X155725715Y-84605857D01*
X155725715Y-84701095D01*
X155678096Y-84843952D01*
X155106667Y-85415381D01*
X155725715Y-85415381D01*
X154646334Y-113101381D02*
X154313000Y-112625190D01*
X154074905Y-113101381D02*
X154074905Y-112101381D01*
X154455858Y-112101381D01*
X154551096Y-112149000D01*
X154598715Y-112196619D01*
X154646334Y-112291857D01*
X154646334Y-112434714D01*
X154598715Y-112529952D01*
X154551096Y-112577571D01*
X154455858Y-112625190D01*
X154074905Y-112625190D01*
X154979667Y-112101381D02*
X155598715Y-112101381D01*
X155265381Y-112482333D01*
X155408239Y-112482333D01*
X155503477Y-112529952D01*
X155551096Y-112577571D01*
X155598715Y-112672810D01*
X155598715Y-112910905D01*
X155551096Y-113006143D01*
X155503477Y-113053762D01*
X155408239Y-113101381D01*
X155122524Y-113101381D01*
X155027286Y-113053762D01*
X154979667Y-113006143D01*
X138136334Y-104973381D02*
X137803000Y-104497190D01*
X137564905Y-104973381D02*
X137564905Y-103973381D01*
X137945858Y-103973381D01*
X138041096Y-104021000D01*
X138088715Y-104068619D01*
X138136334Y-104163857D01*
X138136334Y-104306714D01*
X138088715Y-104401952D01*
X138041096Y-104449571D01*
X137945858Y-104497190D01*
X137564905Y-104497190D01*
X138993477Y-104306714D02*
X138993477Y-104973381D01*
X138755381Y-103925762D02*
X138517286Y-104640048D01*
X139136334Y-104640048D01*
X163385667Y-88034762D02*
X163528524Y-88082381D01*
X163766620Y-88082381D01*
X163861858Y-88034762D01*
X163909477Y-87987143D01*
X163957096Y-87891905D01*
X163957096Y-87796667D01*
X163909477Y-87701429D01*
X163861858Y-87653810D01*
X163766620Y-87606190D01*
X163576143Y-87558571D01*
X163480905Y-87510952D01*
X163433286Y-87463333D01*
X163385667Y-87368095D01*
X163385667Y-87272857D01*
X163433286Y-87177619D01*
X163480905Y-87130000D01*
X163576143Y-87082381D01*
X163814239Y-87082381D01*
X163957096Y-87130000D01*
X164290429Y-87082381D02*
X164528524Y-88082381D01*
X164719001Y-87368095D01*
X164909477Y-88082381D01*
X165147572Y-87082381D01*
X165480905Y-87177619D02*
X165528524Y-87130000D01*
X165623762Y-87082381D01*
X165861858Y-87082381D01*
X165957096Y-87130000D01*
X166004715Y-87177619D01*
X166052334Y-87272857D01*
X166052334Y-87368095D01*
X166004715Y-87510952D01*
X165433286Y-88082381D01*
X166052334Y-88082381D01*
X163385667Y-110386762D02*
X163528524Y-110434381D01*
X163766620Y-110434381D01*
X163861858Y-110386762D01*
X163909477Y-110339143D01*
X163957096Y-110243905D01*
X163957096Y-110148667D01*
X163909477Y-110053429D01*
X163861858Y-110005810D01*
X163766620Y-109958190D01*
X163576143Y-109910571D01*
X163480905Y-109862952D01*
X163433286Y-109815333D01*
X163385667Y-109720095D01*
X163385667Y-109624857D01*
X163433286Y-109529619D01*
X163480905Y-109482000D01*
X163576143Y-109434381D01*
X163814239Y-109434381D01*
X163957096Y-109482000D01*
X164290429Y-109434381D02*
X164528524Y-110434381D01*
X164719001Y-109720095D01*
X164909477Y-110434381D01*
X165147572Y-109434381D01*
X165433286Y-109434381D02*
X166052334Y-109434381D01*
X165719000Y-109815333D01*
X165861858Y-109815333D01*
X165957096Y-109862952D01*
X166004715Y-109910571D01*
X166052334Y-110005810D01*
X166052334Y-110243905D01*
X166004715Y-110339143D01*
X165957096Y-110386762D01*
X165861858Y-110434381D01*
X165576143Y-110434381D01*
X165480905Y-110386762D01*
X165433286Y-110339143D01*
X137096667Y-110386762D02*
X137239524Y-110434381D01*
X137477620Y-110434381D01*
X137572858Y-110386762D01*
X137620477Y-110339143D01*
X137668096Y-110243905D01*
X137668096Y-110148667D01*
X137620477Y-110053429D01*
X137572858Y-110005810D01*
X137477620Y-109958190D01*
X137287143Y-109910571D01*
X137191905Y-109862952D01*
X137144286Y-109815333D01*
X137096667Y-109720095D01*
X137096667Y-109624857D01*
X137144286Y-109529619D01*
X137191905Y-109482000D01*
X137287143Y-109434381D01*
X137525239Y-109434381D01*
X137668096Y-109482000D01*
X138001429Y-109434381D02*
X138239524Y-110434381D01*
X138430001Y-109720095D01*
X138620477Y-110434381D01*
X138858572Y-109434381D01*
X139668096Y-109767714D02*
X139668096Y-110434381D01*
X139430000Y-109386762D02*
X139191905Y-110101048D01*
X139810953Y-110101048D01*
X136969667Y-88161762D02*
X137112524Y-88209381D01*
X137350620Y-88209381D01*
X137445858Y-88161762D01*
X137493477Y-88114143D01*
X137541096Y-88018905D01*
X137541096Y-87923667D01*
X137493477Y-87828429D01*
X137445858Y-87780810D01*
X137350620Y-87733190D01*
X137160143Y-87685571D01*
X137064905Y-87637952D01*
X137017286Y-87590333D01*
X136969667Y-87495095D01*
X136969667Y-87399857D01*
X137017286Y-87304619D01*
X137064905Y-87257000D01*
X137160143Y-87209381D01*
X137398239Y-87209381D01*
X137541096Y-87257000D01*
X137874429Y-87209381D02*
X138112524Y-88209381D01*
X138303001Y-87495095D01*
X138493477Y-88209381D01*
X138731572Y-87209381D01*
X139636334Y-88209381D02*
X139064905Y-88209381D01*
X139350619Y-88209381D02*
X139350619Y-87209381D01*
X139255381Y-87352238D01*
X139160143Y-87447476D01*
X139064905Y-87495095D01*
X143025762Y-100266333D02*
X143073381Y-100123476D01*
X143073381Y-99885380D01*
X143025762Y-99790142D01*
X142978143Y-99742523D01*
X142882905Y-99694904D01*
X142787667Y-99694904D01*
X142692429Y-99742523D01*
X142644810Y-99790142D01*
X142597190Y-99885380D01*
X142549571Y-100075857D01*
X142501952Y-100171095D01*
X142454333Y-100218714D01*
X142359095Y-100266333D01*
X142263857Y-100266333D01*
X142168619Y-100218714D01*
X142121000Y-100171095D01*
X142073381Y-100075857D01*
X142073381Y-99837761D01*
X142121000Y-99694904D01*
X142073381Y-99361571D02*
X143073381Y-99123476D01*
X142359095Y-98932999D01*
X143073381Y-98742523D01*
X142073381Y-98504428D01*
X142073381Y-97647285D02*
X142073381Y-98123476D01*
X142549571Y-98171095D01*
X142501952Y-98123476D01*
X142454333Y-98028238D01*
X142454333Y-97790142D01*
X142501952Y-97694904D01*
X142549571Y-97647285D01*
X142644810Y-97599666D01*
X142882905Y-97599666D01*
X142978143Y-97647285D01*
X143025762Y-97694904D01*
X143073381Y-97790142D01*
X143073381Y-98028238D01*
X143025762Y-98123476D01*
X142978143Y-98171095D01*
M02*
