G04 #@! TF.FileFunction,Copper,L2,Bot,Signal*
%FSLAX46Y46*%
G04 Gerber Fmt 4.6, Leading zero omitted, Abs format (unit mm)*
G04 Created by KiCad (PCBNEW 4.0.7) date 01/30/18 23:23:01*
%MOMM*%
%LPD*%
G01*
G04 APERTURE LIST*
%ADD10C,0.100000*%
%ADD11R,1.600000X1.600000*%
%ADD12O,1.600000X1.600000*%
%ADD13O,1.510000X3.010000*%
%ADD14C,1.520000*%
%ADD15R,1.520000X1.520000*%
%ADD16C,1.600000*%
%ADD17C,2.200000*%
%ADD18R,2.000000X2.000000*%
%ADD19C,2.000000*%
%ADD20C,0.250000*%
%ADD21C,0.254000*%
G04 APERTURE END LIST*
D10*
D11*
X70612000Y-27432000D03*
D12*
X85852000Y-60452000D03*
X70612000Y-29972000D03*
X85852000Y-57912000D03*
X70612000Y-32512000D03*
X85852000Y-55372000D03*
X70612000Y-35052000D03*
X85852000Y-52832000D03*
X70612000Y-37592000D03*
X85852000Y-50292000D03*
X70612000Y-40132000D03*
X85852000Y-47752000D03*
X70612000Y-42672000D03*
X85852000Y-45212000D03*
X70612000Y-45212000D03*
X85852000Y-42672000D03*
X70612000Y-47752000D03*
X85852000Y-40132000D03*
X70612000Y-50292000D03*
X85852000Y-37592000D03*
X70612000Y-52832000D03*
X85852000Y-35052000D03*
X70612000Y-55372000D03*
X85852000Y-32512000D03*
X70612000Y-57912000D03*
X85852000Y-29972000D03*
X70612000Y-60452000D03*
X85852000Y-27432000D03*
X70612000Y-62992000D03*
X85852000Y-62992000D03*
D13*
X72644000Y-75184000D03*
X70104000Y-75184000D03*
D14*
X38862000Y-75819000D03*
X38862000Y-73279000D03*
D15*
X38862000Y-78359000D03*
D14*
X33782000Y-75819000D03*
X33782000Y-73279000D03*
D15*
X33782000Y-78359000D03*
D14*
X28702000Y-75819000D03*
X28702000Y-73279000D03*
D15*
X28702000Y-78359000D03*
D16*
X53086000Y-78359000D03*
D12*
X53086000Y-70739000D03*
D16*
X49530000Y-78359000D03*
D12*
X49530000Y-70739000D03*
D16*
X45974000Y-78359000D03*
D12*
X45974000Y-70739000D03*
D17*
X22860000Y-24892000D03*
X43180000Y-24892000D03*
X63500000Y-24892000D03*
X22860000Y-45212000D03*
X43180000Y-45212000D03*
X63500000Y-45212000D03*
X22860000Y-65532000D03*
X43180000Y-65532000D03*
X63500000Y-65532000D03*
X38862000Y-69723000D03*
X33782000Y-69723000D03*
X28702000Y-69723000D03*
D18*
X78740000Y-74676000D03*
D19*
X81280000Y-74676000D03*
X83780000Y-74676000D03*
X65532000Y-72716000D03*
X65532000Y-77216000D03*
X59032000Y-72716000D03*
X59032000Y-77216000D03*
D20*
X53086000Y-78359000D02*
X53086000Y-77927200D01*
X53086000Y-77927200D02*
X50977800Y-75819000D01*
X50977800Y-75819000D02*
X38862000Y-75819000D01*
D21*
G36*
X87682000Y-79554000D02*
X53920082Y-79554000D01*
X54301824Y-79172923D01*
X54520750Y-78645691D01*
X54520991Y-78368532D01*
X58059073Y-78368532D01*
X58157736Y-78635387D01*
X58767461Y-78861908D01*
X59417460Y-78837856D01*
X59906264Y-78635387D01*
X60004927Y-78368532D01*
X64559073Y-78368532D01*
X64657736Y-78635387D01*
X65267461Y-78861908D01*
X65917460Y-78837856D01*
X66406264Y-78635387D01*
X66504927Y-78368532D01*
X65532000Y-77395605D01*
X64559073Y-78368532D01*
X60004927Y-78368532D01*
X59032000Y-77395605D01*
X58059073Y-78368532D01*
X54520991Y-78368532D01*
X54521248Y-78074813D01*
X54303243Y-77547200D01*
X53899923Y-77143176D01*
X53438223Y-76951461D01*
X57386092Y-76951461D01*
X57410144Y-77601460D01*
X57612613Y-78090264D01*
X57879468Y-78188927D01*
X58852395Y-77216000D01*
X59211605Y-77216000D01*
X60184532Y-78188927D01*
X60451387Y-78090264D01*
X60677908Y-77480539D01*
X60658331Y-76951461D01*
X63886092Y-76951461D01*
X63910144Y-77601460D01*
X64112613Y-78090264D01*
X64379468Y-78188927D01*
X65352395Y-77216000D01*
X65711605Y-77216000D01*
X66684532Y-78188927D01*
X66951387Y-78090264D01*
X67177908Y-77480539D01*
X67153856Y-76830540D01*
X66951387Y-76341736D01*
X66684532Y-76243073D01*
X65711605Y-77216000D01*
X65352395Y-77216000D01*
X64379468Y-76243073D01*
X64112613Y-76341736D01*
X63886092Y-76951461D01*
X60658331Y-76951461D01*
X60653856Y-76830540D01*
X60451387Y-76341736D01*
X60184532Y-76243073D01*
X59211605Y-77216000D01*
X58852395Y-77216000D01*
X57879468Y-76243073D01*
X57612613Y-76341736D01*
X57386092Y-76951461D01*
X53438223Y-76951461D01*
X53372691Y-76924250D01*
X53157664Y-76924062D01*
X52297070Y-76063468D01*
X58059073Y-76063468D01*
X59032000Y-77036395D01*
X60004927Y-76063468D01*
X64559073Y-76063468D01*
X65532000Y-77036395D01*
X66504927Y-76063468D01*
X66406264Y-75796613D01*
X65796539Y-75570092D01*
X65146540Y-75594144D01*
X64657736Y-75796613D01*
X64559073Y-76063468D01*
X60004927Y-76063468D01*
X59906264Y-75796613D01*
X59296539Y-75570092D01*
X58646540Y-75594144D01*
X58157736Y-75796613D01*
X58059073Y-76063468D01*
X52297070Y-76063468D01*
X51544602Y-75311000D01*
X68714000Y-75311000D01*
X68714000Y-76061000D01*
X68868408Y-76583263D01*
X69210924Y-77006681D01*
X69689403Y-77266793D01*
X69762029Y-77281277D01*
X69977000Y-77158683D01*
X69977000Y-75311000D01*
X68714000Y-75311000D01*
X51544602Y-75311000D01*
X51515201Y-75281599D01*
X51268639Y-75116852D01*
X50977800Y-75059000D01*
X40057367Y-75059000D01*
X40045313Y-75029828D01*
X39653236Y-74637066D01*
X39441262Y-74549046D01*
X39651172Y-74462313D01*
X40043934Y-74070236D01*
X40256758Y-73557700D01*
X40257209Y-73039795D01*
X57396716Y-73039795D01*
X57645106Y-73640943D01*
X58104637Y-74101278D01*
X58705352Y-74350716D01*
X59355795Y-74351284D01*
X59956943Y-74102894D01*
X60417278Y-73643363D01*
X60666716Y-73042648D01*
X60666718Y-73039795D01*
X63896716Y-73039795D01*
X64145106Y-73640943D01*
X64604637Y-74101278D01*
X65205352Y-74350716D01*
X65855795Y-74351284D01*
X65962970Y-74307000D01*
X68714000Y-74307000D01*
X68714000Y-75057000D01*
X69977000Y-75057000D01*
X69977000Y-73209317D01*
X70231000Y-73209317D01*
X70231000Y-75057000D01*
X70251000Y-75057000D01*
X70251000Y-75311000D01*
X70231000Y-75311000D01*
X70231000Y-77158683D01*
X70445971Y-77281277D01*
X70518597Y-77266793D01*
X70997076Y-77006681D01*
X71339592Y-76583263D01*
X71361249Y-76510013D01*
X71661122Y-76958803D01*
X72112070Y-77260118D01*
X72644000Y-77365925D01*
X73175930Y-77260118D01*
X73626878Y-76958803D01*
X73928193Y-76507855D01*
X74034000Y-75975925D01*
X74034000Y-74392075D01*
X73928193Y-73860145D01*
X73805151Y-73676000D01*
X77092560Y-73676000D01*
X77092560Y-75676000D01*
X77136838Y-75911317D01*
X77275910Y-76127441D01*
X77488110Y-76272431D01*
X77740000Y-76323440D01*
X79740000Y-76323440D01*
X79975317Y-76279162D01*
X80191441Y-76140090D01*
X80288910Y-75997439D01*
X80352637Y-76061278D01*
X80953352Y-76310716D01*
X81603795Y-76311284D01*
X82204943Y-76062894D01*
X82530164Y-75738241D01*
X82852637Y-76061278D01*
X83453352Y-76310716D01*
X84103795Y-76311284D01*
X84704943Y-76062894D01*
X85165278Y-75603363D01*
X85414716Y-75002648D01*
X85415284Y-74352205D01*
X85166894Y-73751057D01*
X84707363Y-73290722D01*
X84106648Y-73041284D01*
X83456205Y-73040716D01*
X82855057Y-73289106D01*
X82529836Y-73613759D01*
X82207363Y-73290722D01*
X81606648Y-73041284D01*
X80956205Y-73040716D01*
X80355057Y-73289106D01*
X80288426Y-73355621D01*
X80204090Y-73224559D01*
X79991890Y-73079569D01*
X79740000Y-73028560D01*
X77740000Y-73028560D01*
X77504683Y-73072838D01*
X77288559Y-73211910D01*
X77143569Y-73424110D01*
X77092560Y-73676000D01*
X73805151Y-73676000D01*
X73626878Y-73409197D01*
X73175930Y-73107882D01*
X72644000Y-73002075D01*
X72112070Y-73107882D01*
X71661122Y-73409197D01*
X71361249Y-73857987D01*
X71339592Y-73784737D01*
X70997076Y-73361319D01*
X70518597Y-73101207D01*
X70445971Y-73086723D01*
X70231000Y-73209317D01*
X69977000Y-73209317D01*
X69762029Y-73086723D01*
X69689403Y-73101207D01*
X69210924Y-73361319D01*
X68868408Y-73784737D01*
X68714000Y-74307000D01*
X65962970Y-74307000D01*
X66456943Y-74102894D01*
X66917278Y-73643363D01*
X67166716Y-73042648D01*
X67167284Y-72392205D01*
X66918894Y-71791057D01*
X66459363Y-71330722D01*
X65858648Y-71081284D01*
X65208205Y-71080716D01*
X64607057Y-71329106D01*
X64146722Y-71788637D01*
X63897284Y-72389352D01*
X63896716Y-73039795D01*
X60666718Y-73039795D01*
X60667284Y-72392205D01*
X60418894Y-71791057D01*
X59959363Y-71330722D01*
X59358648Y-71081284D01*
X58708205Y-71080716D01*
X58107057Y-71329106D01*
X57646722Y-71788637D01*
X57397284Y-72389352D01*
X57396716Y-73039795D01*
X40257209Y-73039795D01*
X40257242Y-73002735D01*
X40045313Y-72489828D01*
X39653236Y-72097066D01*
X39140700Y-71884242D01*
X38585735Y-71883758D01*
X38072828Y-72095687D01*
X37680066Y-72487764D01*
X37467242Y-73000300D01*
X37466758Y-73555265D01*
X37678687Y-74068172D01*
X38070764Y-74460934D01*
X38282738Y-74548954D01*
X38072828Y-74635687D01*
X37680066Y-75027764D01*
X37467242Y-75540300D01*
X37466758Y-76095265D01*
X37678687Y-76608172D01*
X38033894Y-76964000D01*
X37975691Y-76964000D01*
X37742302Y-77060673D01*
X37563673Y-77239301D01*
X37467000Y-77472690D01*
X37467000Y-78073250D01*
X37625750Y-78232000D01*
X38735000Y-78232000D01*
X38735000Y-78212000D01*
X38989000Y-78212000D01*
X38989000Y-78232000D01*
X40098250Y-78232000D01*
X40257000Y-78073250D01*
X40257000Y-77472690D01*
X40160327Y-77239301D01*
X39981698Y-77060673D01*
X39748309Y-76964000D01*
X39689552Y-76964000D01*
X40043934Y-76610236D01*
X40056904Y-76579000D01*
X50662998Y-76579000D01*
X51799436Y-77715438D01*
X51651250Y-78072309D01*
X51650752Y-78643187D01*
X51868757Y-79170800D01*
X52251289Y-79554000D01*
X50364082Y-79554000D01*
X50745824Y-79172923D01*
X50964750Y-78645691D01*
X50965248Y-78074813D01*
X50747243Y-77547200D01*
X50343923Y-77143176D01*
X49816691Y-76924250D01*
X49245813Y-76923752D01*
X48718200Y-77141757D01*
X48314176Y-77545077D01*
X48095250Y-78072309D01*
X48094752Y-78643187D01*
X48312757Y-79170800D01*
X48695289Y-79554000D01*
X46808082Y-79554000D01*
X47189824Y-79172923D01*
X47408750Y-78645691D01*
X47409248Y-78074813D01*
X47191243Y-77547200D01*
X46787923Y-77143176D01*
X46260691Y-76924250D01*
X45689813Y-76923752D01*
X45162200Y-77141757D01*
X44758176Y-77545077D01*
X44539250Y-78072309D01*
X44538752Y-78643187D01*
X44756757Y-79170800D01*
X45139289Y-79554000D01*
X40085026Y-79554000D01*
X40160327Y-79478699D01*
X40257000Y-79245310D01*
X40257000Y-78644750D01*
X40098250Y-78486000D01*
X38989000Y-78486000D01*
X38989000Y-78506000D01*
X38735000Y-78506000D01*
X38735000Y-78486000D01*
X37625750Y-78486000D01*
X37467000Y-78644750D01*
X37467000Y-79245310D01*
X37563673Y-79478699D01*
X37638974Y-79554000D01*
X35005026Y-79554000D01*
X35080327Y-79478699D01*
X35177000Y-79245310D01*
X35177000Y-78644750D01*
X35018250Y-78486000D01*
X33909000Y-78486000D01*
X33909000Y-78506000D01*
X33655000Y-78506000D01*
X33655000Y-78486000D01*
X32545750Y-78486000D01*
X32387000Y-78644750D01*
X32387000Y-79245310D01*
X32483673Y-79478699D01*
X32558974Y-79554000D01*
X29925026Y-79554000D01*
X30000327Y-79478699D01*
X30097000Y-79245310D01*
X30097000Y-78644750D01*
X29938250Y-78486000D01*
X28829000Y-78486000D01*
X28829000Y-78506000D01*
X28575000Y-78506000D01*
X28575000Y-78486000D01*
X27465750Y-78486000D01*
X27307000Y-78644750D01*
X27307000Y-79245310D01*
X27403673Y-79478699D01*
X27478974Y-79554000D01*
X21030000Y-79554000D01*
X21030000Y-73555265D01*
X27306758Y-73555265D01*
X27518687Y-74068172D01*
X27910764Y-74460934D01*
X28122738Y-74548954D01*
X27912828Y-74635687D01*
X27520066Y-75027764D01*
X27307242Y-75540300D01*
X27306758Y-76095265D01*
X27518687Y-76608172D01*
X27873894Y-76964000D01*
X27815691Y-76964000D01*
X27582302Y-77060673D01*
X27403673Y-77239301D01*
X27307000Y-77472690D01*
X27307000Y-78073250D01*
X27465750Y-78232000D01*
X28575000Y-78232000D01*
X28575000Y-78212000D01*
X28829000Y-78212000D01*
X28829000Y-78232000D01*
X29938250Y-78232000D01*
X30097000Y-78073250D01*
X30097000Y-77472690D01*
X30000327Y-77239301D01*
X29821698Y-77060673D01*
X29588309Y-76964000D01*
X29529552Y-76964000D01*
X29883934Y-76610236D01*
X30096758Y-76097700D01*
X30097242Y-75542735D01*
X29885313Y-75029828D01*
X29493236Y-74637066D01*
X29281262Y-74549046D01*
X29491172Y-74462313D01*
X29883934Y-74070236D01*
X30096758Y-73557700D01*
X30096760Y-73555265D01*
X32386758Y-73555265D01*
X32598687Y-74068172D01*
X32990764Y-74460934D01*
X33202738Y-74548954D01*
X32992828Y-74635687D01*
X32600066Y-75027764D01*
X32387242Y-75540300D01*
X32386758Y-76095265D01*
X32598687Y-76608172D01*
X32953894Y-76964000D01*
X32895691Y-76964000D01*
X32662302Y-77060673D01*
X32483673Y-77239301D01*
X32387000Y-77472690D01*
X32387000Y-78073250D01*
X32545750Y-78232000D01*
X33655000Y-78232000D01*
X33655000Y-78212000D01*
X33909000Y-78212000D01*
X33909000Y-78232000D01*
X35018250Y-78232000D01*
X35177000Y-78073250D01*
X35177000Y-77472690D01*
X35080327Y-77239301D01*
X34901698Y-77060673D01*
X34668309Y-76964000D01*
X34609552Y-76964000D01*
X34963934Y-76610236D01*
X35176758Y-76097700D01*
X35177242Y-75542735D01*
X34965313Y-75029828D01*
X34573236Y-74637066D01*
X34361262Y-74549046D01*
X34571172Y-74462313D01*
X34963934Y-74070236D01*
X35176758Y-73557700D01*
X35177242Y-73002735D01*
X34965313Y-72489828D01*
X34573236Y-72097066D01*
X34060700Y-71884242D01*
X33505735Y-71883758D01*
X32992828Y-72095687D01*
X32600066Y-72487764D01*
X32387242Y-73000300D01*
X32386758Y-73555265D01*
X30096760Y-73555265D01*
X30097242Y-73002735D01*
X29885313Y-72489828D01*
X29493236Y-72097066D01*
X28980700Y-71884242D01*
X28425735Y-71883758D01*
X27912828Y-72095687D01*
X27520066Y-72487764D01*
X27307242Y-73000300D01*
X27306758Y-73555265D01*
X21030000Y-73555265D01*
X21030000Y-70066599D01*
X26966699Y-70066599D01*
X27230281Y-70704515D01*
X27717918Y-71193004D01*
X28355373Y-71457699D01*
X29045599Y-71458301D01*
X29683515Y-71194719D01*
X30172004Y-70707082D01*
X30436699Y-70069627D01*
X30436701Y-70066599D01*
X32046699Y-70066599D01*
X32310281Y-70704515D01*
X32797918Y-71193004D01*
X33435373Y-71457699D01*
X34125599Y-71458301D01*
X34763515Y-71194719D01*
X35252004Y-70707082D01*
X35516699Y-70069627D01*
X35516701Y-70066599D01*
X37126699Y-70066599D01*
X37390281Y-70704515D01*
X37877918Y-71193004D01*
X38515373Y-71457699D01*
X39205599Y-71458301D01*
X39843515Y-71194719D01*
X40328192Y-70710887D01*
X44539000Y-70710887D01*
X44539000Y-70767113D01*
X44648233Y-71316264D01*
X44959302Y-71781811D01*
X45424849Y-72092880D01*
X45974000Y-72202113D01*
X46523151Y-72092880D01*
X46988698Y-71781811D01*
X47299767Y-71316264D01*
X47409000Y-70767113D01*
X47409000Y-70710887D01*
X48095000Y-70710887D01*
X48095000Y-70767113D01*
X48204233Y-71316264D01*
X48515302Y-71781811D01*
X48980849Y-72092880D01*
X49530000Y-72202113D01*
X50079151Y-72092880D01*
X50544698Y-71781811D01*
X50855767Y-71316264D01*
X50965000Y-70767113D01*
X50965000Y-70710887D01*
X51651000Y-70710887D01*
X51651000Y-70767113D01*
X51760233Y-71316264D01*
X52071302Y-71781811D01*
X52536849Y-72092880D01*
X53086000Y-72202113D01*
X53635151Y-72092880D01*
X54100698Y-71781811D01*
X54411767Y-71316264D01*
X54521000Y-70767113D01*
X54521000Y-70710887D01*
X54411767Y-70161736D01*
X54100698Y-69696189D01*
X53635151Y-69385120D01*
X53086000Y-69275887D01*
X52536849Y-69385120D01*
X52071302Y-69696189D01*
X51760233Y-70161736D01*
X51651000Y-70710887D01*
X50965000Y-70710887D01*
X50855767Y-70161736D01*
X50544698Y-69696189D01*
X50079151Y-69385120D01*
X49530000Y-69275887D01*
X48980849Y-69385120D01*
X48515302Y-69696189D01*
X48204233Y-70161736D01*
X48095000Y-70710887D01*
X47409000Y-70710887D01*
X47299767Y-70161736D01*
X46988698Y-69696189D01*
X46523151Y-69385120D01*
X45974000Y-69275887D01*
X45424849Y-69385120D01*
X44959302Y-69696189D01*
X44648233Y-70161736D01*
X44539000Y-70710887D01*
X40328192Y-70710887D01*
X40332004Y-70707082D01*
X40596699Y-70069627D01*
X40597301Y-69379401D01*
X40333719Y-68741485D01*
X39846082Y-68252996D01*
X39208627Y-67988301D01*
X38518401Y-67987699D01*
X37880485Y-68251281D01*
X37391996Y-68738918D01*
X37127301Y-69376373D01*
X37126699Y-70066599D01*
X35516701Y-70066599D01*
X35517301Y-69379401D01*
X35253719Y-68741485D01*
X34766082Y-68252996D01*
X34128627Y-67988301D01*
X33438401Y-67987699D01*
X32800485Y-68251281D01*
X32311996Y-68738918D01*
X32047301Y-69376373D01*
X32046699Y-70066599D01*
X30436701Y-70066599D01*
X30437301Y-69379401D01*
X30173719Y-68741485D01*
X29686082Y-68252996D01*
X29048627Y-67988301D01*
X28358401Y-67987699D01*
X27720485Y-68251281D01*
X27231996Y-68738918D01*
X26967301Y-69376373D01*
X26966699Y-70066599D01*
X21030000Y-70066599D01*
X21030000Y-65875599D01*
X21124699Y-65875599D01*
X21388281Y-66513515D01*
X21875918Y-67002004D01*
X22513373Y-67266699D01*
X23203599Y-67267301D01*
X23841515Y-67003719D01*
X24330004Y-66516082D01*
X24594699Y-65878627D01*
X24594701Y-65875599D01*
X41444699Y-65875599D01*
X41708281Y-66513515D01*
X42195918Y-67002004D01*
X42833373Y-67266699D01*
X43523599Y-67267301D01*
X44161515Y-67003719D01*
X44650004Y-66516082D01*
X44914699Y-65878627D01*
X44914701Y-65875599D01*
X61764699Y-65875599D01*
X62028281Y-66513515D01*
X62515918Y-67002004D01*
X63153373Y-67266699D01*
X63843599Y-67267301D01*
X64481515Y-67003719D01*
X64970004Y-66516082D01*
X65234699Y-65878627D01*
X65235301Y-65188401D01*
X64971719Y-64550485D01*
X64484082Y-64061996D01*
X63846627Y-63797301D01*
X63156401Y-63796699D01*
X62518485Y-64060281D01*
X62029996Y-64547918D01*
X61765301Y-65185373D01*
X61764699Y-65875599D01*
X44914701Y-65875599D01*
X44915301Y-65188401D01*
X44651719Y-64550485D01*
X44164082Y-64061996D01*
X43526627Y-63797301D01*
X42836401Y-63796699D01*
X42198485Y-64060281D01*
X41709996Y-64547918D01*
X41445301Y-65185373D01*
X41444699Y-65875599D01*
X24594701Y-65875599D01*
X24595301Y-65188401D01*
X24331719Y-64550485D01*
X23844082Y-64061996D01*
X23206627Y-63797301D01*
X22516401Y-63796699D01*
X21878485Y-64060281D01*
X21389996Y-64547918D01*
X21125301Y-65185373D01*
X21124699Y-65875599D01*
X21030000Y-65875599D01*
X21030000Y-45555599D01*
X21124699Y-45555599D01*
X21388281Y-46193515D01*
X21875918Y-46682004D01*
X22513373Y-46946699D01*
X23203599Y-46947301D01*
X23841515Y-46683719D01*
X24330004Y-46196082D01*
X24594699Y-45558627D01*
X24594701Y-45555599D01*
X41444699Y-45555599D01*
X41708281Y-46193515D01*
X42195918Y-46682004D01*
X42833373Y-46946699D01*
X43523599Y-46947301D01*
X44161515Y-46683719D01*
X44650004Y-46196082D01*
X44914699Y-45558627D01*
X44914701Y-45555599D01*
X61764699Y-45555599D01*
X62028281Y-46193515D01*
X62515918Y-46682004D01*
X63153373Y-46946699D01*
X63843599Y-46947301D01*
X64481515Y-46683719D01*
X64970004Y-46196082D01*
X65234699Y-45558627D01*
X65235301Y-44868401D01*
X64971719Y-44230485D01*
X64484082Y-43741996D01*
X63846627Y-43477301D01*
X63156401Y-43476699D01*
X62518485Y-43740281D01*
X62029996Y-44227918D01*
X61765301Y-44865373D01*
X61764699Y-45555599D01*
X44914701Y-45555599D01*
X44915301Y-44868401D01*
X44651719Y-44230485D01*
X44164082Y-43741996D01*
X43526627Y-43477301D01*
X42836401Y-43476699D01*
X42198485Y-43740281D01*
X41709996Y-44227918D01*
X41445301Y-44865373D01*
X41444699Y-45555599D01*
X24594701Y-45555599D01*
X24595301Y-44868401D01*
X24331719Y-44230485D01*
X23844082Y-43741996D01*
X23206627Y-43477301D01*
X22516401Y-43476699D01*
X21878485Y-43740281D01*
X21389996Y-44227918D01*
X21125301Y-44865373D01*
X21124699Y-45555599D01*
X21030000Y-45555599D01*
X21030000Y-37592000D01*
X69148887Y-37592000D01*
X69258120Y-38141151D01*
X69569189Y-38606698D01*
X69951275Y-38862000D01*
X69569189Y-39117302D01*
X69258120Y-39582849D01*
X69148887Y-40132000D01*
X69258120Y-40681151D01*
X69569189Y-41146698D01*
X69951275Y-41402000D01*
X69569189Y-41657302D01*
X69258120Y-42122849D01*
X69148887Y-42672000D01*
X69258120Y-43221151D01*
X69569189Y-43686698D01*
X69951275Y-43942000D01*
X69569189Y-44197302D01*
X69258120Y-44662849D01*
X69148887Y-45212000D01*
X69258120Y-45761151D01*
X69569189Y-46226698D01*
X69951275Y-46482000D01*
X69569189Y-46737302D01*
X69258120Y-47202849D01*
X69148887Y-47752000D01*
X69258120Y-48301151D01*
X69569189Y-48766698D01*
X69951275Y-49022000D01*
X69569189Y-49277302D01*
X69258120Y-49742849D01*
X69148887Y-50292000D01*
X69258120Y-50841151D01*
X69569189Y-51306698D01*
X69951275Y-51562000D01*
X69569189Y-51817302D01*
X69258120Y-52282849D01*
X69148887Y-52832000D01*
X69258120Y-53381151D01*
X69569189Y-53846698D01*
X69951275Y-54102000D01*
X69569189Y-54357302D01*
X69258120Y-54822849D01*
X69148887Y-55372000D01*
X69258120Y-55921151D01*
X69569189Y-56386698D01*
X69951275Y-56642000D01*
X69569189Y-56897302D01*
X69258120Y-57362849D01*
X69148887Y-57912000D01*
X69258120Y-58461151D01*
X69569189Y-58926698D01*
X69951275Y-59182000D01*
X69569189Y-59437302D01*
X69258120Y-59902849D01*
X69148887Y-60452000D01*
X69258120Y-61001151D01*
X69569189Y-61466698D01*
X69951275Y-61722000D01*
X69569189Y-61977302D01*
X69258120Y-62442849D01*
X69148887Y-62992000D01*
X69258120Y-63541151D01*
X69569189Y-64006698D01*
X70034736Y-64317767D01*
X70583887Y-64427000D01*
X70640113Y-64427000D01*
X71189264Y-64317767D01*
X71654811Y-64006698D01*
X71965880Y-63541151D01*
X72075113Y-62992000D01*
X71965880Y-62442849D01*
X71654811Y-61977302D01*
X71272725Y-61722000D01*
X71654811Y-61466698D01*
X71965880Y-61001151D01*
X72075113Y-60452000D01*
X71965880Y-59902849D01*
X71654811Y-59437302D01*
X71272725Y-59182000D01*
X71654811Y-58926698D01*
X71965880Y-58461151D01*
X72075113Y-57912000D01*
X71965880Y-57362849D01*
X71654811Y-56897302D01*
X71272725Y-56642000D01*
X71654811Y-56386698D01*
X71965880Y-55921151D01*
X72075113Y-55372000D01*
X71965880Y-54822849D01*
X71654811Y-54357302D01*
X71272725Y-54102000D01*
X71654811Y-53846698D01*
X71965880Y-53381151D01*
X72075113Y-52832000D01*
X71965880Y-52282849D01*
X71654811Y-51817302D01*
X71272725Y-51562000D01*
X71654811Y-51306698D01*
X71965880Y-50841151D01*
X72075113Y-50292000D01*
X71965880Y-49742849D01*
X71654811Y-49277302D01*
X71272725Y-49022000D01*
X71654811Y-48766698D01*
X71965880Y-48301151D01*
X72075113Y-47752000D01*
X71965880Y-47202849D01*
X71654811Y-46737302D01*
X71272725Y-46482000D01*
X71654811Y-46226698D01*
X71965880Y-45761151D01*
X72075113Y-45212000D01*
X71965880Y-44662849D01*
X71654811Y-44197302D01*
X71272725Y-43942000D01*
X71654811Y-43686698D01*
X71965880Y-43221151D01*
X72075113Y-42672000D01*
X71965880Y-42122849D01*
X71654811Y-41657302D01*
X71272725Y-41402000D01*
X71654811Y-41146698D01*
X71965880Y-40681151D01*
X72075113Y-40132000D01*
X71965880Y-39582849D01*
X71654811Y-39117302D01*
X71272725Y-38862000D01*
X71654811Y-38606698D01*
X71965880Y-38141151D01*
X72075113Y-37592000D01*
X71965880Y-37042849D01*
X71654811Y-36577302D01*
X71250297Y-36307014D01*
X71467134Y-36204389D01*
X71843041Y-35789423D01*
X72003904Y-35401039D01*
X71881915Y-35179000D01*
X70739000Y-35179000D01*
X70739000Y-35199000D01*
X70485000Y-35199000D01*
X70485000Y-35179000D01*
X69342085Y-35179000D01*
X69220096Y-35401039D01*
X69380959Y-35789423D01*
X69756866Y-36204389D01*
X69973703Y-36307014D01*
X69569189Y-36577302D01*
X69258120Y-37042849D01*
X69148887Y-37592000D01*
X21030000Y-37592000D01*
X21030000Y-29972000D01*
X69148887Y-29972000D01*
X69258120Y-30521151D01*
X69569189Y-30986698D01*
X69951275Y-31242000D01*
X69569189Y-31497302D01*
X69258120Y-31962849D01*
X69148887Y-32512000D01*
X69258120Y-33061151D01*
X69569189Y-33526698D01*
X69973703Y-33796986D01*
X69756866Y-33899611D01*
X69380959Y-34314577D01*
X69220096Y-34702961D01*
X69342085Y-34925000D01*
X70485000Y-34925000D01*
X70485000Y-34905000D01*
X70739000Y-34905000D01*
X70739000Y-34925000D01*
X71881915Y-34925000D01*
X72003904Y-34702961D01*
X71843041Y-34314577D01*
X71467134Y-33899611D01*
X71250297Y-33796986D01*
X71654811Y-33526698D01*
X71965880Y-33061151D01*
X72075113Y-32512000D01*
X84388887Y-32512000D01*
X84498120Y-33061151D01*
X84809189Y-33526698D01*
X85191275Y-33782000D01*
X84809189Y-34037302D01*
X84498120Y-34502849D01*
X84388887Y-35052000D01*
X84498120Y-35601151D01*
X84809189Y-36066698D01*
X85191275Y-36322000D01*
X84809189Y-36577302D01*
X84498120Y-37042849D01*
X84388887Y-37592000D01*
X84498120Y-38141151D01*
X84809189Y-38606698D01*
X85191275Y-38862000D01*
X84809189Y-39117302D01*
X84498120Y-39582849D01*
X84388887Y-40132000D01*
X84498120Y-40681151D01*
X84809189Y-41146698D01*
X85191275Y-41402000D01*
X84809189Y-41657302D01*
X84498120Y-42122849D01*
X84388887Y-42672000D01*
X84498120Y-43221151D01*
X84809189Y-43686698D01*
X85191275Y-43942000D01*
X84809189Y-44197302D01*
X84498120Y-44662849D01*
X84388887Y-45212000D01*
X84498120Y-45761151D01*
X84809189Y-46226698D01*
X85191275Y-46482000D01*
X84809189Y-46737302D01*
X84498120Y-47202849D01*
X84388887Y-47752000D01*
X84498120Y-48301151D01*
X84809189Y-48766698D01*
X85191275Y-49022000D01*
X84809189Y-49277302D01*
X84498120Y-49742849D01*
X84388887Y-50292000D01*
X84498120Y-50841151D01*
X84809189Y-51306698D01*
X85191275Y-51562000D01*
X84809189Y-51817302D01*
X84498120Y-52282849D01*
X84388887Y-52832000D01*
X84498120Y-53381151D01*
X84809189Y-53846698D01*
X85191275Y-54102000D01*
X84809189Y-54357302D01*
X84498120Y-54822849D01*
X84388887Y-55372000D01*
X84498120Y-55921151D01*
X84809189Y-56386698D01*
X85191275Y-56642000D01*
X84809189Y-56897302D01*
X84498120Y-57362849D01*
X84388887Y-57912000D01*
X84498120Y-58461151D01*
X84809189Y-58926698D01*
X85191275Y-59182000D01*
X84809189Y-59437302D01*
X84498120Y-59902849D01*
X84388887Y-60452000D01*
X84498120Y-61001151D01*
X84809189Y-61466698D01*
X85191275Y-61722000D01*
X84809189Y-61977302D01*
X84498120Y-62442849D01*
X84388887Y-62992000D01*
X84498120Y-63541151D01*
X84809189Y-64006698D01*
X85274736Y-64317767D01*
X85823887Y-64427000D01*
X85880113Y-64427000D01*
X86429264Y-64317767D01*
X86894811Y-64006698D01*
X87205880Y-63541151D01*
X87315113Y-62992000D01*
X87205880Y-62442849D01*
X86894811Y-61977302D01*
X86512725Y-61722000D01*
X86894811Y-61466698D01*
X87205880Y-61001151D01*
X87315113Y-60452000D01*
X87205880Y-59902849D01*
X86894811Y-59437302D01*
X86512725Y-59182000D01*
X86894811Y-58926698D01*
X87205880Y-58461151D01*
X87315113Y-57912000D01*
X87205880Y-57362849D01*
X86894811Y-56897302D01*
X86512725Y-56642000D01*
X86894811Y-56386698D01*
X87205880Y-55921151D01*
X87315113Y-55372000D01*
X87205880Y-54822849D01*
X86894811Y-54357302D01*
X86512725Y-54102000D01*
X86894811Y-53846698D01*
X87205880Y-53381151D01*
X87315113Y-52832000D01*
X87205880Y-52282849D01*
X86894811Y-51817302D01*
X86512725Y-51562000D01*
X86894811Y-51306698D01*
X87205880Y-50841151D01*
X87315113Y-50292000D01*
X87205880Y-49742849D01*
X86894811Y-49277302D01*
X86512725Y-49022000D01*
X86894811Y-48766698D01*
X87205880Y-48301151D01*
X87315113Y-47752000D01*
X87205880Y-47202849D01*
X86894811Y-46737302D01*
X86512725Y-46482000D01*
X86894811Y-46226698D01*
X87205880Y-45761151D01*
X87315113Y-45212000D01*
X87205880Y-44662849D01*
X86894811Y-44197302D01*
X86512725Y-43942000D01*
X86894811Y-43686698D01*
X87205880Y-43221151D01*
X87315113Y-42672000D01*
X87205880Y-42122849D01*
X86894811Y-41657302D01*
X86512725Y-41402000D01*
X86894811Y-41146698D01*
X87205880Y-40681151D01*
X87315113Y-40132000D01*
X87205880Y-39582849D01*
X86894811Y-39117302D01*
X86512725Y-38862000D01*
X86894811Y-38606698D01*
X87205880Y-38141151D01*
X87315113Y-37592000D01*
X87205880Y-37042849D01*
X86894811Y-36577302D01*
X86512725Y-36322000D01*
X86894811Y-36066698D01*
X87205880Y-35601151D01*
X87315113Y-35052000D01*
X87205880Y-34502849D01*
X86894811Y-34037302D01*
X86512725Y-33782000D01*
X86894811Y-33526698D01*
X87205880Y-33061151D01*
X87315113Y-32512000D01*
X87205880Y-31962849D01*
X86894811Y-31497302D01*
X86490297Y-31227014D01*
X86707134Y-31124389D01*
X87083041Y-30709423D01*
X87243904Y-30321039D01*
X87121915Y-30099000D01*
X85979000Y-30099000D01*
X85979000Y-30119000D01*
X85725000Y-30119000D01*
X85725000Y-30099000D01*
X84582085Y-30099000D01*
X84460096Y-30321039D01*
X84620959Y-30709423D01*
X84996866Y-31124389D01*
X85213703Y-31227014D01*
X84809189Y-31497302D01*
X84498120Y-31962849D01*
X84388887Y-32512000D01*
X72075113Y-32512000D01*
X71965880Y-31962849D01*
X71654811Y-31497302D01*
X71272725Y-31242000D01*
X71654811Y-30986698D01*
X71965880Y-30521151D01*
X72075113Y-29972000D01*
X71965880Y-29422849D01*
X71654811Y-28957302D01*
X71510535Y-28860899D01*
X71647317Y-28835162D01*
X71863441Y-28696090D01*
X72008431Y-28483890D01*
X72059440Y-28232000D01*
X72059440Y-27432000D01*
X84388887Y-27432000D01*
X84498120Y-27981151D01*
X84809189Y-28446698D01*
X85213703Y-28716986D01*
X84996866Y-28819611D01*
X84620959Y-29234577D01*
X84460096Y-29622961D01*
X84582085Y-29845000D01*
X85725000Y-29845000D01*
X85725000Y-29825000D01*
X85979000Y-29825000D01*
X85979000Y-29845000D01*
X87121915Y-29845000D01*
X87243904Y-29622961D01*
X87083041Y-29234577D01*
X86707134Y-28819611D01*
X86490297Y-28716986D01*
X86894811Y-28446698D01*
X87205880Y-27981151D01*
X87315113Y-27432000D01*
X87205880Y-26882849D01*
X86894811Y-26417302D01*
X86429264Y-26106233D01*
X85880113Y-25997000D01*
X85823887Y-25997000D01*
X85274736Y-26106233D01*
X84809189Y-26417302D01*
X84498120Y-26882849D01*
X84388887Y-27432000D01*
X72059440Y-27432000D01*
X72059440Y-26632000D01*
X72015162Y-26396683D01*
X71876090Y-26180559D01*
X71663890Y-26035569D01*
X71412000Y-25984560D01*
X69812000Y-25984560D01*
X69576683Y-26028838D01*
X69360559Y-26167910D01*
X69215569Y-26380110D01*
X69164560Y-26632000D01*
X69164560Y-28232000D01*
X69208838Y-28467317D01*
X69347910Y-28683441D01*
X69560110Y-28828431D01*
X69715089Y-28859815D01*
X69569189Y-28957302D01*
X69258120Y-29422849D01*
X69148887Y-29972000D01*
X21030000Y-29972000D01*
X21030000Y-25235599D01*
X21124699Y-25235599D01*
X21388281Y-25873515D01*
X21875918Y-26362004D01*
X22513373Y-26626699D01*
X23203599Y-26627301D01*
X23841515Y-26363719D01*
X24330004Y-25876082D01*
X24594699Y-25238627D01*
X24594701Y-25235599D01*
X41444699Y-25235599D01*
X41708281Y-25873515D01*
X42195918Y-26362004D01*
X42833373Y-26626699D01*
X43523599Y-26627301D01*
X44161515Y-26363719D01*
X44650004Y-25876082D01*
X44914699Y-25238627D01*
X44914701Y-25235599D01*
X61764699Y-25235599D01*
X62028281Y-25873515D01*
X62515918Y-26362004D01*
X63153373Y-26626699D01*
X63843599Y-26627301D01*
X64481515Y-26363719D01*
X64970004Y-25876082D01*
X65234699Y-25238627D01*
X65235301Y-24548401D01*
X64971719Y-23910485D01*
X64484082Y-23421996D01*
X63846627Y-23157301D01*
X63156401Y-23156699D01*
X62518485Y-23420281D01*
X62029996Y-23907918D01*
X61765301Y-24545373D01*
X61764699Y-25235599D01*
X44914701Y-25235599D01*
X44915301Y-24548401D01*
X44651719Y-23910485D01*
X44164082Y-23421996D01*
X43526627Y-23157301D01*
X42836401Y-23156699D01*
X42198485Y-23420281D01*
X41709996Y-23907918D01*
X41445301Y-24545373D01*
X41444699Y-25235599D01*
X24594701Y-25235599D01*
X24595301Y-24548401D01*
X24331719Y-23910485D01*
X23844082Y-23421996D01*
X23206627Y-23157301D01*
X22516401Y-23156699D01*
X21878485Y-23420281D01*
X21389996Y-23907918D01*
X21125301Y-24545373D01*
X21124699Y-25235599D01*
X21030000Y-25235599D01*
X21030000Y-23062000D01*
X87682000Y-23062000D01*
X87682000Y-79554000D01*
X87682000Y-79554000D01*
G37*
X87682000Y-79554000D02*
X53920082Y-79554000D01*
X54301824Y-79172923D01*
X54520750Y-78645691D01*
X54520991Y-78368532D01*
X58059073Y-78368532D01*
X58157736Y-78635387D01*
X58767461Y-78861908D01*
X59417460Y-78837856D01*
X59906264Y-78635387D01*
X60004927Y-78368532D01*
X64559073Y-78368532D01*
X64657736Y-78635387D01*
X65267461Y-78861908D01*
X65917460Y-78837856D01*
X66406264Y-78635387D01*
X66504927Y-78368532D01*
X65532000Y-77395605D01*
X64559073Y-78368532D01*
X60004927Y-78368532D01*
X59032000Y-77395605D01*
X58059073Y-78368532D01*
X54520991Y-78368532D01*
X54521248Y-78074813D01*
X54303243Y-77547200D01*
X53899923Y-77143176D01*
X53438223Y-76951461D01*
X57386092Y-76951461D01*
X57410144Y-77601460D01*
X57612613Y-78090264D01*
X57879468Y-78188927D01*
X58852395Y-77216000D01*
X59211605Y-77216000D01*
X60184532Y-78188927D01*
X60451387Y-78090264D01*
X60677908Y-77480539D01*
X60658331Y-76951461D01*
X63886092Y-76951461D01*
X63910144Y-77601460D01*
X64112613Y-78090264D01*
X64379468Y-78188927D01*
X65352395Y-77216000D01*
X65711605Y-77216000D01*
X66684532Y-78188927D01*
X66951387Y-78090264D01*
X67177908Y-77480539D01*
X67153856Y-76830540D01*
X66951387Y-76341736D01*
X66684532Y-76243073D01*
X65711605Y-77216000D01*
X65352395Y-77216000D01*
X64379468Y-76243073D01*
X64112613Y-76341736D01*
X63886092Y-76951461D01*
X60658331Y-76951461D01*
X60653856Y-76830540D01*
X60451387Y-76341736D01*
X60184532Y-76243073D01*
X59211605Y-77216000D01*
X58852395Y-77216000D01*
X57879468Y-76243073D01*
X57612613Y-76341736D01*
X57386092Y-76951461D01*
X53438223Y-76951461D01*
X53372691Y-76924250D01*
X53157664Y-76924062D01*
X52297070Y-76063468D01*
X58059073Y-76063468D01*
X59032000Y-77036395D01*
X60004927Y-76063468D01*
X64559073Y-76063468D01*
X65532000Y-77036395D01*
X66504927Y-76063468D01*
X66406264Y-75796613D01*
X65796539Y-75570092D01*
X65146540Y-75594144D01*
X64657736Y-75796613D01*
X64559073Y-76063468D01*
X60004927Y-76063468D01*
X59906264Y-75796613D01*
X59296539Y-75570092D01*
X58646540Y-75594144D01*
X58157736Y-75796613D01*
X58059073Y-76063468D01*
X52297070Y-76063468D01*
X51544602Y-75311000D01*
X68714000Y-75311000D01*
X68714000Y-76061000D01*
X68868408Y-76583263D01*
X69210924Y-77006681D01*
X69689403Y-77266793D01*
X69762029Y-77281277D01*
X69977000Y-77158683D01*
X69977000Y-75311000D01*
X68714000Y-75311000D01*
X51544602Y-75311000D01*
X51515201Y-75281599D01*
X51268639Y-75116852D01*
X50977800Y-75059000D01*
X40057367Y-75059000D01*
X40045313Y-75029828D01*
X39653236Y-74637066D01*
X39441262Y-74549046D01*
X39651172Y-74462313D01*
X40043934Y-74070236D01*
X40256758Y-73557700D01*
X40257209Y-73039795D01*
X57396716Y-73039795D01*
X57645106Y-73640943D01*
X58104637Y-74101278D01*
X58705352Y-74350716D01*
X59355795Y-74351284D01*
X59956943Y-74102894D01*
X60417278Y-73643363D01*
X60666716Y-73042648D01*
X60666718Y-73039795D01*
X63896716Y-73039795D01*
X64145106Y-73640943D01*
X64604637Y-74101278D01*
X65205352Y-74350716D01*
X65855795Y-74351284D01*
X65962970Y-74307000D01*
X68714000Y-74307000D01*
X68714000Y-75057000D01*
X69977000Y-75057000D01*
X69977000Y-73209317D01*
X70231000Y-73209317D01*
X70231000Y-75057000D01*
X70251000Y-75057000D01*
X70251000Y-75311000D01*
X70231000Y-75311000D01*
X70231000Y-77158683D01*
X70445971Y-77281277D01*
X70518597Y-77266793D01*
X70997076Y-77006681D01*
X71339592Y-76583263D01*
X71361249Y-76510013D01*
X71661122Y-76958803D01*
X72112070Y-77260118D01*
X72644000Y-77365925D01*
X73175930Y-77260118D01*
X73626878Y-76958803D01*
X73928193Y-76507855D01*
X74034000Y-75975925D01*
X74034000Y-74392075D01*
X73928193Y-73860145D01*
X73805151Y-73676000D01*
X77092560Y-73676000D01*
X77092560Y-75676000D01*
X77136838Y-75911317D01*
X77275910Y-76127441D01*
X77488110Y-76272431D01*
X77740000Y-76323440D01*
X79740000Y-76323440D01*
X79975317Y-76279162D01*
X80191441Y-76140090D01*
X80288910Y-75997439D01*
X80352637Y-76061278D01*
X80953352Y-76310716D01*
X81603795Y-76311284D01*
X82204943Y-76062894D01*
X82530164Y-75738241D01*
X82852637Y-76061278D01*
X83453352Y-76310716D01*
X84103795Y-76311284D01*
X84704943Y-76062894D01*
X85165278Y-75603363D01*
X85414716Y-75002648D01*
X85415284Y-74352205D01*
X85166894Y-73751057D01*
X84707363Y-73290722D01*
X84106648Y-73041284D01*
X83456205Y-73040716D01*
X82855057Y-73289106D01*
X82529836Y-73613759D01*
X82207363Y-73290722D01*
X81606648Y-73041284D01*
X80956205Y-73040716D01*
X80355057Y-73289106D01*
X80288426Y-73355621D01*
X80204090Y-73224559D01*
X79991890Y-73079569D01*
X79740000Y-73028560D01*
X77740000Y-73028560D01*
X77504683Y-73072838D01*
X77288559Y-73211910D01*
X77143569Y-73424110D01*
X77092560Y-73676000D01*
X73805151Y-73676000D01*
X73626878Y-73409197D01*
X73175930Y-73107882D01*
X72644000Y-73002075D01*
X72112070Y-73107882D01*
X71661122Y-73409197D01*
X71361249Y-73857987D01*
X71339592Y-73784737D01*
X70997076Y-73361319D01*
X70518597Y-73101207D01*
X70445971Y-73086723D01*
X70231000Y-73209317D01*
X69977000Y-73209317D01*
X69762029Y-73086723D01*
X69689403Y-73101207D01*
X69210924Y-73361319D01*
X68868408Y-73784737D01*
X68714000Y-74307000D01*
X65962970Y-74307000D01*
X66456943Y-74102894D01*
X66917278Y-73643363D01*
X67166716Y-73042648D01*
X67167284Y-72392205D01*
X66918894Y-71791057D01*
X66459363Y-71330722D01*
X65858648Y-71081284D01*
X65208205Y-71080716D01*
X64607057Y-71329106D01*
X64146722Y-71788637D01*
X63897284Y-72389352D01*
X63896716Y-73039795D01*
X60666718Y-73039795D01*
X60667284Y-72392205D01*
X60418894Y-71791057D01*
X59959363Y-71330722D01*
X59358648Y-71081284D01*
X58708205Y-71080716D01*
X58107057Y-71329106D01*
X57646722Y-71788637D01*
X57397284Y-72389352D01*
X57396716Y-73039795D01*
X40257209Y-73039795D01*
X40257242Y-73002735D01*
X40045313Y-72489828D01*
X39653236Y-72097066D01*
X39140700Y-71884242D01*
X38585735Y-71883758D01*
X38072828Y-72095687D01*
X37680066Y-72487764D01*
X37467242Y-73000300D01*
X37466758Y-73555265D01*
X37678687Y-74068172D01*
X38070764Y-74460934D01*
X38282738Y-74548954D01*
X38072828Y-74635687D01*
X37680066Y-75027764D01*
X37467242Y-75540300D01*
X37466758Y-76095265D01*
X37678687Y-76608172D01*
X38033894Y-76964000D01*
X37975691Y-76964000D01*
X37742302Y-77060673D01*
X37563673Y-77239301D01*
X37467000Y-77472690D01*
X37467000Y-78073250D01*
X37625750Y-78232000D01*
X38735000Y-78232000D01*
X38735000Y-78212000D01*
X38989000Y-78212000D01*
X38989000Y-78232000D01*
X40098250Y-78232000D01*
X40257000Y-78073250D01*
X40257000Y-77472690D01*
X40160327Y-77239301D01*
X39981698Y-77060673D01*
X39748309Y-76964000D01*
X39689552Y-76964000D01*
X40043934Y-76610236D01*
X40056904Y-76579000D01*
X50662998Y-76579000D01*
X51799436Y-77715438D01*
X51651250Y-78072309D01*
X51650752Y-78643187D01*
X51868757Y-79170800D01*
X52251289Y-79554000D01*
X50364082Y-79554000D01*
X50745824Y-79172923D01*
X50964750Y-78645691D01*
X50965248Y-78074813D01*
X50747243Y-77547200D01*
X50343923Y-77143176D01*
X49816691Y-76924250D01*
X49245813Y-76923752D01*
X48718200Y-77141757D01*
X48314176Y-77545077D01*
X48095250Y-78072309D01*
X48094752Y-78643187D01*
X48312757Y-79170800D01*
X48695289Y-79554000D01*
X46808082Y-79554000D01*
X47189824Y-79172923D01*
X47408750Y-78645691D01*
X47409248Y-78074813D01*
X47191243Y-77547200D01*
X46787923Y-77143176D01*
X46260691Y-76924250D01*
X45689813Y-76923752D01*
X45162200Y-77141757D01*
X44758176Y-77545077D01*
X44539250Y-78072309D01*
X44538752Y-78643187D01*
X44756757Y-79170800D01*
X45139289Y-79554000D01*
X40085026Y-79554000D01*
X40160327Y-79478699D01*
X40257000Y-79245310D01*
X40257000Y-78644750D01*
X40098250Y-78486000D01*
X38989000Y-78486000D01*
X38989000Y-78506000D01*
X38735000Y-78506000D01*
X38735000Y-78486000D01*
X37625750Y-78486000D01*
X37467000Y-78644750D01*
X37467000Y-79245310D01*
X37563673Y-79478699D01*
X37638974Y-79554000D01*
X35005026Y-79554000D01*
X35080327Y-79478699D01*
X35177000Y-79245310D01*
X35177000Y-78644750D01*
X35018250Y-78486000D01*
X33909000Y-78486000D01*
X33909000Y-78506000D01*
X33655000Y-78506000D01*
X33655000Y-78486000D01*
X32545750Y-78486000D01*
X32387000Y-78644750D01*
X32387000Y-79245310D01*
X32483673Y-79478699D01*
X32558974Y-79554000D01*
X29925026Y-79554000D01*
X30000327Y-79478699D01*
X30097000Y-79245310D01*
X30097000Y-78644750D01*
X29938250Y-78486000D01*
X28829000Y-78486000D01*
X28829000Y-78506000D01*
X28575000Y-78506000D01*
X28575000Y-78486000D01*
X27465750Y-78486000D01*
X27307000Y-78644750D01*
X27307000Y-79245310D01*
X27403673Y-79478699D01*
X27478974Y-79554000D01*
X21030000Y-79554000D01*
X21030000Y-73555265D01*
X27306758Y-73555265D01*
X27518687Y-74068172D01*
X27910764Y-74460934D01*
X28122738Y-74548954D01*
X27912828Y-74635687D01*
X27520066Y-75027764D01*
X27307242Y-75540300D01*
X27306758Y-76095265D01*
X27518687Y-76608172D01*
X27873894Y-76964000D01*
X27815691Y-76964000D01*
X27582302Y-77060673D01*
X27403673Y-77239301D01*
X27307000Y-77472690D01*
X27307000Y-78073250D01*
X27465750Y-78232000D01*
X28575000Y-78232000D01*
X28575000Y-78212000D01*
X28829000Y-78212000D01*
X28829000Y-78232000D01*
X29938250Y-78232000D01*
X30097000Y-78073250D01*
X30097000Y-77472690D01*
X30000327Y-77239301D01*
X29821698Y-77060673D01*
X29588309Y-76964000D01*
X29529552Y-76964000D01*
X29883934Y-76610236D01*
X30096758Y-76097700D01*
X30097242Y-75542735D01*
X29885313Y-75029828D01*
X29493236Y-74637066D01*
X29281262Y-74549046D01*
X29491172Y-74462313D01*
X29883934Y-74070236D01*
X30096758Y-73557700D01*
X30096760Y-73555265D01*
X32386758Y-73555265D01*
X32598687Y-74068172D01*
X32990764Y-74460934D01*
X33202738Y-74548954D01*
X32992828Y-74635687D01*
X32600066Y-75027764D01*
X32387242Y-75540300D01*
X32386758Y-76095265D01*
X32598687Y-76608172D01*
X32953894Y-76964000D01*
X32895691Y-76964000D01*
X32662302Y-77060673D01*
X32483673Y-77239301D01*
X32387000Y-77472690D01*
X32387000Y-78073250D01*
X32545750Y-78232000D01*
X33655000Y-78232000D01*
X33655000Y-78212000D01*
X33909000Y-78212000D01*
X33909000Y-78232000D01*
X35018250Y-78232000D01*
X35177000Y-78073250D01*
X35177000Y-77472690D01*
X35080327Y-77239301D01*
X34901698Y-77060673D01*
X34668309Y-76964000D01*
X34609552Y-76964000D01*
X34963934Y-76610236D01*
X35176758Y-76097700D01*
X35177242Y-75542735D01*
X34965313Y-75029828D01*
X34573236Y-74637066D01*
X34361262Y-74549046D01*
X34571172Y-74462313D01*
X34963934Y-74070236D01*
X35176758Y-73557700D01*
X35177242Y-73002735D01*
X34965313Y-72489828D01*
X34573236Y-72097066D01*
X34060700Y-71884242D01*
X33505735Y-71883758D01*
X32992828Y-72095687D01*
X32600066Y-72487764D01*
X32387242Y-73000300D01*
X32386758Y-73555265D01*
X30096760Y-73555265D01*
X30097242Y-73002735D01*
X29885313Y-72489828D01*
X29493236Y-72097066D01*
X28980700Y-71884242D01*
X28425735Y-71883758D01*
X27912828Y-72095687D01*
X27520066Y-72487764D01*
X27307242Y-73000300D01*
X27306758Y-73555265D01*
X21030000Y-73555265D01*
X21030000Y-70066599D01*
X26966699Y-70066599D01*
X27230281Y-70704515D01*
X27717918Y-71193004D01*
X28355373Y-71457699D01*
X29045599Y-71458301D01*
X29683515Y-71194719D01*
X30172004Y-70707082D01*
X30436699Y-70069627D01*
X30436701Y-70066599D01*
X32046699Y-70066599D01*
X32310281Y-70704515D01*
X32797918Y-71193004D01*
X33435373Y-71457699D01*
X34125599Y-71458301D01*
X34763515Y-71194719D01*
X35252004Y-70707082D01*
X35516699Y-70069627D01*
X35516701Y-70066599D01*
X37126699Y-70066599D01*
X37390281Y-70704515D01*
X37877918Y-71193004D01*
X38515373Y-71457699D01*
X39205599Y-71458301D01*
X39843515Y-71194719D01*
X40328192Y-70710887D01*
X44539000Y-70710887D01*
X44539000Y-70767113D01*
X44648233Y-71316264D01*
X44959302Y-71781811D01*
X45424849Y-72092880D01*
X45974000Y-72202113D01*
X46523151Y-72092880D01*
X46988698Y-71781811D01*
X47299767Y-71316264D01*
X47409000Y-70767113D01*
X47409000Y-70710887D01*
X48095000Y-70710887D01*
X48095000Y-70767113D01*
X48204233Y-71316264D01*
X48515302Y-71781811D01*
X48980849Y-72092880D01*
X49530000Y-72202113D01*
X50079151Y-72092880D01*
X50544698Y-71781811D01*
X50855767Y-71316264D01*
X50965000Y-70767113D01*
X50965000Y-70710887D01*
X51651000Y-70710887D01*
X51651000Y-70767113D01*
X51760233Y-71316264D01*
X52071302Y-71781811D01*
X52536849Y-72092880D01*
X53086000Y-72202113D01*
X53635151Y-72092880D01*
X54100698Y-71781811D01*
X54411767Y-71316264D01*
X54521000Y-70767113D01*
X54521000Y-70710887D01*
X54411767Y-70161736D01*
X54100698Y-69696189D01*
X53635151Y-69385120D01*
X53086000Y-69275887D01*
X52536849Y-69385120D01*
X52071302Y-69696189D01*
X51760233Y-70161736D01*
X51651000Y-70710887D01*
X50965000Y-70710887D01*
X50855767Y-70161736D01*
X50544698Y-69696189D01*
X50079151Y-69385120D01*
X49530000Y-69275887D01*
X48980849Y-69385120D01*
X48515302Y-69696189D01*
X48204233Y-70161736D01*
X48095000Y-70710887D01*
X47409000Y-70710887D01*
X47299767Y-70161736D01*
X46988698Y-69696189D01*
X46523151Y-69385120D01*
X45974000Y-69275887D01*
X45424849Y-69385120D01*
X44959302Y-69696189D01*
X44648233Y-70161736D01*
X44539000Y-70710887D01*
X40328192Y-70710887D01*
X40332004Y-70707082D01*
X40596699Y-70069627D01*
X40597301Y-69379401D01*
X40333719Y-68741485D01*
X39846082Y-68252996D01*
X39208627Y-67988301D01*
X38518401Y-67987699D01*
X37880485Y-68251281D01*
X37391996Y-68738918D01*
X37127301Y-69376373D01*
X37126699Y-70066599D01*
X35516701Y-70066599D01*
X35517301Y-69379401D01*
X35253719Y-68741485D01*
X34766082Y-68252996D01*
X34128627Y-67988301D01*
X33438401Y-67987699D01*
X32800485Y-68251281D01*
X32311996Y-68738918D01*
X32047301Y-69376373D01*
X32046699Y-70066599D01*
X30436701Y-70066599D01*
X30437301Y-69379401D01*
X30173719Y-68741485D01*
X29686082Y-68252996D01*
X29048627Y-67988301D01*
X28358401Y-67987699D01*
X27720485Y-68251281D01*
X27231996Y-68738918D01*
X26967301Y-69376373D01*
X26966699Y-70066599D01*
X21030000Y-70066599D01*
X21030000Y-65875599D01*
X21124699Y-65875599D01*
X21388281Y-66513515D01*
X21875918Y-67002004D01*
X22513373Y-67266699D01*
X23203599Y-67267301D01*
X23841515Y-67003719D01*
X24330004Y-66516082D01*
X24594699Y-65878627D01*
X24594701Y-65875599D01*
X41444699Y-65875599D01*
X41708281Y-66513515D01*
X42195918Y-67002004D01*
X42833373Y-67266699D01*
X43523599Y-67267301D01*
X44161515Y-67003719D01*
X44650004Y-66516082D01*
X44914699Y-65878627D01*
X44914701Y-65875599D01*
X61764699Y-65875599D01*
X62028281Y-66513515D01*
X62515918Y-67002004D01*
X63153373Y-67266699D01*
X63843599Y-67267301D01*
X64481515Y-67003719D01*
X64970004Y-66516082D01*
X65234699Y-65878627D01*
X65235301Y-65188401D01*
X64971719Y-64550485D01*
X64484082Y-64061996D01*
X63846627Y-63797301D01*
X63156401Y-63796699D01*
X62518485Y-64060281D01*
X62029996Y-64547918D01*
X61765301Y-65185373D01*
X61764699Y-65875599D01*
X44914701Y-65875599D01*
X44915301Y-65188401D01*
X44651719Y-64550485D01*
X44164082Y-64061996D01*
X43526627Y-63797301D01*
X42836401Y-63796699D01*
X42198485Y-64060281D01*
X41709996Y-64547918D01*
X41445301Y-65185373D01*
X41444699Y-65875599D01*
X24594701Y-65875599D01*
X24595301Y-65188401D01*
X24331719Y-64550485D01*
X23844082Y-64061996D01*
X23206627Y-63797301D01*
X22516401Y-63796699D01*
X21878485Y-64060281D01*
X21389996Y-64547918D01*
X21125301Y-65185373D01*
X21124699Y-65875599D01*
X21030000Y-65875599D01*
X21030000Y-45555599D01*
X21124699Y-45555599D01*
X21388281Y-46193515D01*
X21875918Y-46682004D01*
X22513373Y-46946699D01*
X23203599Y-46947301D01*
X23841515Y-46683719D01*
X24330004Y-46196082D01*
X24594699Y-45558627D01*
X24594701Y-45555599D01*
X41444699Y-45555599D01*
X41708281Y-46193515D01*
X42195918Y-46682004D01*
X42833373Y-46946699D01*
X43523599Y-46947301D01*
X44161515Y-46683719D01*
X44650004Y-46196082D01*
X44914699Y-45558627D01*
X44914701Y-45555599D01*
X61764699Y-45555599D01*
X62028281Y-46193515D01*
X62515918Y-46682004D01*
X63153373Y-46946699D01*
X63843599Y-46947301D01*
X64481515Y-46683719D01*
X64970004Y-46196082D01*
X65234699Y-45558627D01*
X65235301Y-44868401D01*
X64971719Y-44230485D01*
X64484082Y-43741996D01*
X63846627Y-43477301D01*
X63156401Y-43476699D01*
X62518485Y-43740281D01*
X62029996Y-44227918D01*
X61765301Y-44865373D01*
X61764699Y-45555599D01*
X44914701Y-45555599D01*
X44915301Y-44868401D01*
X44651719Y-44230485D01*
X44164082Y-43741996D01*
X43526627Y-43477301D01*
X42836401Y-43476699D01*
X42198485Y-43740281D01*
X41709996Y-44227918D01*
X41445301Y-44865373D01*
X41444699Y-45555599D01*
X24594701Y-45555599D01*
X24595301Y-44868401D01*
X24331719Y-44230485D01*
X23844082Y-43741996D01*
X23206627Y-43477301D01*
X22516401Y-43476699D01*
X21878485Y-43740281D01*
X21389996Y-44227918D01*
X21125301Y-44865373D01*
X21124699Y-45555599D01*
X21030000Y-45555599D01*
X21030000Y-37592000D01*
X69148887Y-37592000D01*
X69258120Y-38141151D01*
X69569189Y-38606698D01*
X69951275Y-38862000D01*
X69569189Y-39117302D01*
X69258120Y-39582849D01*
X69148887Y-40132000D01*
X69258120Y-40681151D01*
X69569189Y-41146698D01*
X69951275Y-41402000D01*
X69569189Y-41657302D01*
X69258120Y-42122849D01*
X69148887Y-42672000D01*
X69258120Y-43221151D01*
X69569189Y-43686698D01*
X69951275Y-43942000D01*
X69569189Y-44197302D01*
X69258120Y-44662849D01*
X69148887Y-45212000D01*
X69258120Y-45761151D01*
X69569189Y-46226698D01*
X69951275Y-46482000D01*
X69569189Y-46737302D01*
X69258120Y-47202849D01*
X69148887Y-47752000D01*
X69258120Y-48301151D01*
X69569189Y-48766698D01*
X69951275Y-49022000D01*
X69569189Y-49277302D01*
X69258120Y-49742849D01*
X69148887Y-50292000D01*
X69258120Y-50841151D01*
X69569189Y-51306698D01*
X69951275Y-51562000D01*
X69569189Y-51817302D01*
X69258120Y-52282849D01*
X69148887Y-52832000D01*
X69258120Y-53381151D01*
X69569189Y-53846698D01*
X69951275Y-54102000D01*
X69569189Y-54357302D01*
X69258120Y-54822849D01*
X69148887Y-55372000D01*
X69258120Y-55921151D01*
X69569189Y-56386698D01*
X69951275Y-56642000D01*
X69569189Y-56897302D01*
X69258120Y-57362849D01*
X69148887Y-57912000D01*
X69258120Y-58461151D01*
X69569189Y-58926698D01*
X69951275Y-59182000D01*
X69569189Y-59437302D01*
X69258120Y-59902849D01*
X69148887Y-60452000D01*
X69258120Y-61001151D01*
X69569189Y-61466698D01*
X69951275Y-61722000D01*
X69569189Y-61977302D01*
X69258120Y-62442849D01*
X69148887Y-62992000D01*
X69258120Y-63541151D01*
X69569189Y-64006698D01*
X70034736Y-64317767D01*
X70583887Y-64427000D01*
X70640113Y-64427000D01*
X71189264Y-64317767D01*
X71654811Y-64006698D01*
X71965880Y-63541151D01*
X72075113Y-62992000D01*
X71965880Y-62442849D01*
X71654811Y-61977302D01*
X71272725Y-61722000D01*
X71654811Y-61466698D01*
X71965880Y-61001151D01*
X72075113Y-60452000D01*
X71965880Y-59902849D01*
X71654811Y-59437302D01*
X71272725Y-59182000D01*
X71654811Y-58926698D01*
X71965880Y-58461151D01*
X72075113Y-57912000D01*
X71965880Y-57362849D01*
X71654811Y-56897302D01*
X71272725Y-56642000D01*
X71654811Y-56386698D01*
X71965880Y-55921151D01*
X72075113Y-55372000D01*
X71965880Y-54822849D01*
X71654811Y-54357302D01*
X71272725Y-54102000D01*
X71654811Y-53846698D01*
X71965880Y-53381151D01*
X72075113Y-52832000D01*
X71965880Y-52282849D01*
X71654811Y-51817302D01*
X71272725Y-51562000D01*
X71654811Y-51306698D01*
X71965880Y-50841151D01*
X72075113Y-50292000D01*
X71965880Y-49742849D01*
X71654811Y-49277302D01*
X71272725Y-49022000D01*
X71654811Y-48766698D01*
X71965880Y-48301151D01*
X72075113Y-47752000D01*
X71965880Y-47202849D01*
X71654811Y-46737302D01*
X71272725Y-46482000D01*
X71654811Y-46226698D01*
X71965880Y-45761151D01*
X72075113Y-45212000D01*
X71965880Y-44662849D01*
X71654811Y-44197302D01*
X71272725Y-43942000D01*
X71654811Y-43686698D01*
X71965880Y-43221151D01*
X72075113Y-42672000D01*
X71965880Y-42122849D01*
X71654811Y-41657302D01*
X71272725Y-41402000D01*
X71654811Y-41146698D01*
X71965880Y-40681151D01*
X72075113Y-40132000D01*
X71965880Y-39582849D01*
X71654811Y-39117302D01*
X71272725Y-38862000D01*
X71654811Y-38606698D01*
X71965880Y-38141151D01*
X72075113Y-37592000D01*
X71965880Y-37042849D01*
X71654811Y-36577302D01*
X71250297Y-36307014D01*
X71467134Y-36204389D01*
X71843041Y-35789423D01*
X72003904Y-35401039D01*
X71881915Y-35179000D01*
X70739000Y-35179000D01*
X70739000Y-35199000D01*
X70485000Y-35199000D01*
X70485000Y-35179000D01*
X69342085Y-35179000D01*
X69220096Y-35401039D01*
X69380959Y-35789423D01*
X69756866Y-36204389D01*
X69973703Y-36307014D01*
X69569189Y-36577302D01*
X69258120Y-37042849D01*
X69148887Y-37592000D01*
X21030000Y-37592000D01*
X21030000Y-29972000D01*
X69148887Y-29972000D01*
X69258120Y-30521151D01*
X69569189Y-30986698D01*
X69951275Y-31242000D01*
X69569189Y-31497302D01*
X69258120Y-31962849D01*
X69148887Y-32512000D01*
X69258120Y-33061151D01*
X69569189Y-33526698D01*
X69973703Y-33796986D01*
X69756866Y-33899611D01*
X69380959Y-34314577D01*
X69220096Y-34702961D01*
X69342085Y-34925000D01*
X70485000Y-34925000D01*
X70485000Y-34905000D01*
X70739000Y-34905000D01*
X70739000Y-34925000D01*
X71881915Y-34925000D01*
X72003904Y-34702961D01*
X71843041Y-34314577D01*
X71467134Y-33899611D01*
X71250297Y-33796986D01*
X71654811Y-33526698D01*
X71965880Y-33061151D01*
X72075113Y-32512000D01*
X84388887Y-32512000D01*
X84498120Y-33061151D01*
X84809189Y-33526698D01*
X85191275Y-33782000D01*
X84809189Y-34037302D01*
X84498120Y-34502849D01*
X84388887Y-35052000D01*
X84498120Y-35601151D01*
X84809189Y-36066698D01*
X85191275Y-36322000D01*
X84809189Y-36577302D01*
X84498120Y-37042849D01*
X84388887Y-37592000D01*
X84498120Y-38141151D01*
X84809189Y-38606698D01*
X85191275Y-38862000D01*
X84809189Y-39117302D01*
X84498120Y-39582849D01*
X84388887Y-40132000D01*
X84498120Y-40681151D01*
X84809189Y-41146698D01*
X85191275Y-41402000D01*
X84809189Y-41657302D01*
X84498120Y-42122849D01*
X84388887Y-42672000D01*
X84498120Y-43221151D01*
X84809189Y-43686698D01*
X85191275Y-43942000D01*
X84809189Y-44197302D01*
X84498120Y-44662849D01*
X84388887Y-45212000D01*
X84498120Y-45761151D01*
X84809189Y-46226698D01*
X85191275Y-46482000D01*
X84809189Y-46737302D01*
X84498120Y-47202849D01*
X84388887Y-47752000D01*
X84498120Y-48301151D01*
X84809189Y-48766698D01*
X85191275Y-49022000D01*
X84809189Y-49277302D01*
X84498120Y-49742849D01*
X84388887Y-50292000D01*
X84498120Y-50841151D01*
X84809189Y-51306698D01*
X85191275Y-51562000D01*
X84809189Y-51817302D01*
X84498120Y-52282849D01*
X84388887Y-52832000D01*
X84498120Y-53381151D01*
X84809189Y-53846698D01*
X85191275Y-54102000D01*
X84809189Y-54357302D01*
X84498120Y-54822849D01*
X84388887Y-55372000D01*
X84498120Y-55921151D01*
X84809189Y-56386698D01*
X85191275Y-56642000D01*
X84809189Y-56897302D01*
X84498120Y-57362849D01*
X84388887Y-57912000D01*
X84498120Y-58461151D01*
X84809189Y-58926698D01*
X85191275Y-59182000D01*
X84809189Y-59437302D01*
X84498120Y-59902849D01*
X84388887Y-60452000D01*
X84498120Y-61001151D01*
X84809189Y-61466698D01*
X85191275Y-61722000D01*
X84809189Y-61977302D01*
X84498120Y-62442849D01*
X84388887Y-62992000D01*
X84498120Y-63541151D01*
X84809189Y-64006698D01*
X85274736Y-64317767D01*
X85823887Y-64427000D01*
X85880113Y-64427000D01*
X86429264Y-64317767D01*
X86894811Y-64006698D01*
X87205880Y-63541151D01*
X87315113Y-62992000D01*
X87205880Y-62442849D01*
X86894811Y-61977302D01*
X86512725Y-61722000D01*
X86894811Y-61466698D01*
X87205880Y-61001151D01*
X87315113Y-60452000D01*
X87205880Y-59902849D01*
X86894811Y-59437302D01*
X86512725Y-59182000D01*
X86894811Y-58926698D01*
X87205880Y-58461151D01*
X87315113Y-57912000D01*
X87205880Y-57362849D01*
X86894811Y-56897302D01*
X86512725Y-56642000D01*
X86894811Y-56386698D01*
X87205880Y-55921151D01*
X87315113Y-55372000D01*
X87205880Y-54822849D01*
X86894811Y-54357302D01*
X86512725Y-54102000D01*
X86894811Y-53846698D01*
X87205880Y-53381151D01*
X87315113Y-52832000D01*
X87205880Y-52282849D01*
X86894811Y-51817302D01*
X86512725Y-51562000D01*
X86894811Y-51306698D01*
X87205880Y-50841151D01*
X87315113Y-50292000D01*
X87205880Y-49742849D01*
X86894811Y-49277302D01*
X86512725Y-49022000D01*
X86894811Y-48766698D01*
X87205880Y-48301151D01*
X87315113Y-47752000D01*
X87205880Y-47202849D01*
X86894811Y-46737302D01*
X86512725Y-46482000D01*
X86894811Y-46226698D01*
X87205880Y-45761151D01*
X87315113Y-45212000D01*
X87205880Y-44662849D01*
X86894811Y-44197302D01*
X86512725Y-43942000D01*
X86894811Y-43686698D01*
X87205880Y-43221151D01*
X87315113Y-42672000D01*
X87205880Y-42122849D01*
X86894811Y-41657302D01*
X86512725Y-41402000D01*
X86894811Y-41146698D01*
X87205880Y-40681151D01*
X87315113Y-40132000D01*
X87205880Y-39582849D01*
X86894811Y-39117302D01*
X86512725Y-38862000D01*
X86894811Y-38606698D01*
X87205880Y-38141151D01*
X87315113Y-37592000D01*
X87205880Y-37042849D01*
X86894811Y-36577302D01*
X86512725Y-36322000D01*
X86894811Y-36066698D01*
X87205880Y-35601151D01*
X87315113Y-35052000D01*
X87205880Y-34502849D01*
X86894811Y-34037302D01*
X86512725Y-33782000D01*
X86894811Y-33526698D01*
X87205880Y-33061151D01*
X87315113Y-32512000D01*
X87205880Y-31962849D01*
X86894811Y-31497302D01*
X86490297Y-31227014D01*
X86707134Y-31124389D01*
X87083041Y-30709423D01*
X87243904Y-30321039D01*
X87121915Y-30099000D01*
X85979000Y-30099000D01*
X85979000Y-30119000D01*
X85725000Y-30119000D01*
X85725000Y-30099000D01*
X84582085Y-30099000D01*
X84460096Y-30321039D01*
X84620959Y-30709423D01*
X84996866Y-31124389D01*
X85213703Y-31227014D01*
X84809189Y-31497302D01*
X84498120Y-31962849D01*
X84388887Y-32512000D01*
X72075113Y-32512000D01*
X71965880Y-31962849D01*
X71654811Y-31497302D01*
X71272725Y-31242000D01*
X71654811Y-30986698D01*
X71965880Y-30521151D01*
X72075113Y-29972000D01*
X71965880Y-29422849D01*
X71654811Y-28957302D01*
X71510535Y-28860899D01*
X71647317Y-28835162D01*
X71863441Y-28696090D01*
X72008431Y-28483890D01*
X72059440Y-28232000D01*
X72059440Y-27432000D01*
X84388887Y-27432000D01*
X84498120Y-27981151D01*
X84809189Y-28446698D01*
X85213703Y-28716986D01*
X84996866Y-28819611D01*
X84620959Y-29234577D01*
X84460096Y-29622961D01*
X84582085Y-29845000D01*
X85725000Y-29845000D01*
X85725000Y-29825000D01*
X85979000Y-29825000D01*
X85979000Y-29845000D01*
X87121915Y-29845000D01*
X87243904Y-29622961D01*
X87083041Y-29234577D01*
X86707134Y-28819611D01*
X86490297Y-28716986D01*
X86894811Y-28446698D01*
X87205880Y-27981151D01*
X87315113Y-27432000D01*
X87205880Y-26882849D01*
X86894811Y-26417302D01*
X86429264Y-26106233D01*
X85880113Y-25997000D01*
X85823887Y-25997000D01*
X85274736Y-26106233D01*
X84809189Y-26417302D01*
X84498120Y-26882849D01*
X84388887Y-27432000D01*
X72059440Y-27432000D01*
X72059440Y-26632000D01*
X72015162Y-26396683D01*
X71876090Y-26180559D01*
X71663890Y-26035569D01*
X71412000Y-25984560D01*
X69812000Y-25984560D01*
X69576683Y-26028838D01*
X69360559Y-26167910D01*
X69215569Y-26380110D01*
X69164560Y-26632000D01*
X69164560Y-28232000D01*
X69208838Y-28467317D01*
X69347910Y-28683441D01*
X69560110Y-28828431D01*
X69715089Y-28859815D01*
X69569189Y-28957302D01*
X69258120Y-29422849D01*
X69148887Y-29972000D01*
X21030000Y-29972000D01*
X21030000Y-25235599D01*
X21124699Y-25235599D01*
X21388281Y-25873515D01*
X21875918Y-26362004D01*
X22513373Y-26626699D01*
X23203599Y-26627301D01*
X23841515Y-26363719D01*
X24330004Y-25876082D01*
X24594699Y-25238627D01*
X24594701Y-25235599D01*
X41444699Y-25235599D01*
X41708281Y-25873515D01*
X42195918Y-26362004D01*
X42833373Y-26626699D01*
X43523599Y-26627301D01*
X44161515Y-26363719D01*
X44650004Y-25876082D01*
X44914699Y-25238627D01*
X44914701Y-25235599D01*
X61764699Y-25235599D01*
X62028281Y-25873515D01*
X62515918Y-26362004D01*
X63153373Y-26626699D01*
X63843599Y-26627301D01*
X64481515Y-26363719D01*
X64970004Y-25876082D01*
X65234699Y-25238627D01*
X65235301Y-24548401D01*
X64971719Y-23910485D01*
X64484082Y-23421996D01*
X63846627Y-23157301D01*
X63156401Y-23156699D01*
X62518485Y-23420281D01*
X62029996Y-23907918D01*
X61765301Y-24545373D01*
X61764699Y-25235599D01*
X44914701Y-25235599D01*
X44915301Y-24548401D01*
X44651719Y-23910485D01*
X44164082Y-23421996D01*
X43526627Y-23157301D01*
X42836401Y-23156699D01*
X42198485Y-23420281D01*
X41709996Y-23907918D01*
X41445301Y-24545373D01*
X41444699Y-25235599D01*
X24594701Y-25235599D01*
X24595301Y-24548401D01*
X24331719Y-23910485D01*
X23844082Y-23421996D01*
X23206627Y-23157301D01*
X22516401Y-23156699D01*
X21878485Y-23420281D01*
X21389996Y-23907918D01*
X21125301Y-24545373D01*
X21124699Y-25235599D01*
X21030000Y-25235599D01*
X21030000Y-23062000D01*
X87682000Y-23062000D01*
X87682000Y-79554000D01*
M02*
