G04 #@! TF.FileFunction,Soldermask,Top*
%FSLAX46Y46*%
G04 Gerber Fmt 4.6, Leading zero omitted, Abs format (unit mm)*
G04 Created by KiCad (PCBNEW 4.0.7) date 01/30/18 23:23:01*
%MOMM*%
%LPD*%
G01*
G04 APERTURE LIST*
%ADD10C,0.100000*%
%ADD11R,2.000000X2.000000*%
%ADD12O,2.000000X2.000000*%
%ADD13O,1.910000X3.410000*%
%ADD14C,1.920000*%
%ADD15R,1.920000X1.920000*%
%ADD16C,2.000000*%
%ADD17C,2.600000*%
%ADD18R,2.400000X2.400000*%
%ADD19C,2.400000*%
G04 APERTURE END LIST*
D10*
D11*
X70612000Y-27432000D03*
D12*
X85852000Y-60452000D03*
X70612000Y-29972000D03*
X85852000Y-57912000D03*
X70612000Y-32512000D03*
X85852000Y-55372000D03*
X70612000Y-35052000D03*
X85852000Y-52832000D03*
X70612000Y-37592000D03*
X85852000Y-50292000D03*
X70612000Y-40132000D03*
X85852000Y-47752000D03*
X70612000Y-42672000D03*
X85852000Y-45212000D03*
X70612000Y-45212000D03*
X85852000Y-42672000D03*
X70612000Y-47752000D03*
X85852000Y-40132000D03*
X70612000Y-50292000D03*
X85852000Y-37592000D03*
X70612000Y-52832000D03*
X85852000Y-35052000D03*
X70612000Y-55372000D03*
X85852000Y-32512000D03*
X70612000Y-57912000D03*
X85852000Y-29972000D03*
X70612000Y-60452000D03*
X85852000Y-27432000D03*
X70612000Y-62992000D03*
X85852000Y-62992000D03*
D13*
X72644000Y-75184000D03*
X70104000Y-75184000D03*
D14*
X38862000Y-75819000D03*
X38862000Y-73279000D03*
D15*
X38862000Y-78359000D03*
D14*
X33782000Y-75819000D03*
X33782000Y-73279000D03*
D15*
X33782000Y-78359000D03*
D14*
X28702000Y-75819000D03*
X28702000Y-73279000D03*
D15*
X28702000Y-78359000D03*
D16*
X53086000Y-78359000D03*
D12*
X53086000Y-70739000D03*
D16*
X49530000Y-78359000D03*
D12*
X49530000Y-70739000D03*
D16*
X45974000Y-78359000D03*
D12*
X45974000Y-70739000D03*
D17*
X22860000Y-24892000D03*
X43180000Y-24892000D03*
X63500000Y-24892000D03*
X22860000Y-45212000D03*
X43180000Y-45212000D03*
X63500000Y-45212000D03*
X22860000Y-65532000D03*
X43180000Y-65532000D03*
X63500000Y-65532000D03*
X38862000Y-69723000D03*
X33782000Y-69723000D03*
X28702000Y-69723000D03*
D18*
X78740000Y-74676000D03*
D19*
X81280000Y-74676000D03*
X83780000Y-74676000D03*
X65532000Y-72716000D03*
X65532000Y-77216000D03*
X59032000Y-72716000D03*
X59032000Y-77216000D03*
M02*
