M48
INCH,TZ
T1C0.031
T2C0.035
T3C0.039
%
G90
G05
T1
X58500Y-46000
X61500Y-46000
X62500Y-43500
X62500Y-44500
X62500Y-45500
X62500Y-46500
X65500Y-43500
X65500Y-44500
X65500Y-45500
X65500Y-46500
X66500Y-46500
X67000Y-43500
X67000Y-44500
X67484Y-46500
X70000Y-43500
X70000Y-44500
X70000Y-46000
X70000Y-46787
T2
X59510Y-43450
X59510Y-44450
T3
X59900Y-41990
X60900Y-41990
X62710Y-41940
X63710Y-41940
X64710Y-41940
T0
M30
