M48
;DRILL file {KiCad 4.0.7-e2-6376~58~ubuntu16.04.1} date Mon Jan 22 09:03:00 2018
;FORMAT={-:-/ absolute / inch / decimal}
FMAT,2
INCH,TZ
T1C0.031
T2C0.035
T3C0.051
T4C0.060
T5C0.071
%
G90
G05
M72
T1
X4.09Y-2.905
X4.09Y-3.105
X4.19Y-3.005
X4.385Y-2.88
X4.385Y-3.18
X4.459Y-3.357
X4.459Y-3.4554
X4.551Y-2.88
X4.551Y-2.98
X4.551Y-3.08
X4.551Y-3.18
X4.851Y-2.88
X4.851Y-2.98
X4.851Y-3.08
X4.851Y-3.18
X4.974Y-3.368
X4.974Y-3.4664
X4.993Y-3.082
X5.293Y-3.082
T2
X4.269Y-3.0935
X4.269Y-3.4935
X4.989Y-3.246
X4.994Y-2.911
X5.389Y-3.246
X5.394Y-2.911
T3
X5.749Y-2.9213
X5.749Y-3.1181
X5.749Y-3.315
T4
X4.065Y-3.285
X4.065Y-3.485
T5
X5.1614Y-3.423
X5.3165Y-3.423
T0
M30
