G04 #@! TF.FileFunction,Legend,Top*
%FSLAX46Y46*%
G04 Gerber Fmt 4.6, Leading zero omitted, Abs format (unit mm)*
G04 Created by KiCad (PCBNEW 4.0.7-e2-6376~58~ubuntu16.04.1) date Mon Jan 22 09:02:58 2018*
%MOMM*%
%LPD*%
G01*
G04 APERTURE LIST*
%ADD10C,0.100000*%
%ADD11C,0.120000*%
%ADD12C,0.150000*%
G04 APERTURE END LIST*
D10*
D11*
X127699600Y-84837200D02*
X127699600Y-88757200D01*
X124979600Y-84837200D02*
X124979600Y-88757200D01*
X127699600Y-84837200D02*
X127089600Y-84837200D01*
X125589600Y-84837200D02*
X124979600Y-84837200D01*
X127699600Y-88757200D02*
X127089600Y-88757200D01*
X125589600Y-88757200D02*
X124979600Y-88757200D01*
X114438323Y-88823522D02*
G75*
G03X114438600Y-84212220I-1179723J2305722D01*
G01*
X112078877Y-88823522D02*
G75*
G02X112078600Y-84212220I1179723J2305722D01*
G01*
X112078877Y-88823522D02*
G75*
G03X114438600Y-88823380I1179723J2305722D01*
G01*
X115808600Y-86517800D02*
X110708600Y-86517800D01*
X115808600Y-86557800D02*
X110708600Y-86557800D01*
X115807600Y-86597800D02*
X110709600Y-86597800D01*
X115806600Y-86637800D02*
X110710600Y-86637800D01*
X115804600Y-86677800D02*
X110712600Y-86677800D01*
X115801600Y-86717800D02*
X110715600Y-86717800D01*
X115797600Y-86757800D02*
X110719600Y-86757800D01*
X115793600Y-86797800D02*
X114238600Y-86797800D01*
X112278600Y-86797800D02*
X110723600Y-86797800D01*
X115789600Y-86837800D02*
X114238600Y-86837800D01*
X112278600Y-86837800D02*
X110727600Y-86837800D01*
X115783600Y-86877800D02*
X114238600Y-86877800D01*
X112278600Y-86877800D02*
X110733600Y-86877800D01*
X115777600Y-86917800D02*
X114238600Y-86917800D01*
X112278600Y-86917800D02*
X110739600Y-86917800D01*
X115771600Y-86957800D02*
X114238600Y-86957800D01*
X112278600Y-86957800D02*
X110745600Y-86957800D01*
X115764600Y-86997800D02*
X114238600Y-86997800D01*
X112278600Y-86997800D02*
X110752600Y-86997800D01*
X115756600Y-87037800D02*
X114238600Y-87037800D01*
X112278600Y-87037800D02*
X110760600Y-87037800D01*
X115747600Y-87077800D02*
X114238600Y-87077800D01*
X112278600Y-87077800D02*
X110769600Y-87077800D01*
X115738600Y-87117800D02*
X114238600Y-87117800D01*
X112278600Y-87117800D02*
X110778600Y-87117800D01*
X115728600Y-87157800D02*
X114238600Y-87157800D01*
X112278600Y-87157800D02*
X110788600Y-87157800D01*
X115718600Y-87197800D02*
X114238600Y-87197800D01*
X112278600Y-87197800D02*
X110798600Y-87197800D01*
X115706600Y-87238800D02*
X114238600Y-87238800D01*
X112278600Y-87238800D02*
X110810600Y-87238800D01*
X115694600Y-87278800D02*
X114238600Y-87278800D01*
X112278600Y-87278800D02*
X110822600Y-87278800D01*
X115682600Y-87318800D02*
X114238600Y-87318800D01*
X112278600Y-87318800D02*
X110834600Y-87318800D01*
X115668600Y-87358800D02*
X114238600Y-87358800D01*
X112278600Y-87358800D02*
X110848600Y-87358800D01*
X115654600Y-87398800D02*
X114238600Y-87398800D01*
X112278600Y-87398800D02*
X110862600Y-87398800D01*
X115640600Y-87438800D02*
X114238600Y-87438800D01*
X112278600Y-87438800D02*
X110876600Y-87438800D01*
X115624600Y-87478800D02*
X114238600Y-87478800D01*
X112278600Y-87478800D02*
X110892600Y-87478800D01*
X115608600Y-87518800D02*
X114238600Y-87518800D01*
X112278600Y-87518800D02*
X110908600Y-87518800D01*
X115591600Y-87558800D02*
X114238600Y-87558800D01*
X112278600Y-87558800D02*
X110925600Y-87558800D01*
X115573600Y-87598800D02*
X114238600Y-87598800D01*
X112278600Y-87598800D02*
X110943600Y-87598800D01*
X115554600Y-87638800D02*
X114238600Y-87638800D01*
X112278600Y-87638800D02*
X110962600Y-87638800D01*
X115534600Y-87678800D02*
X114238600Y-87678800D01*
X112278600Y-87678800D02*
X110982600Y-87678800D01*
X115514600Y-87718800D02*
X114238600Y-87718800D01*
X112278600Y-87718800D02*
X111002600Y-87718800D01*
X115492600Y-87758800D02*
X114238600Y-87758800D01*
X112278600Y-87758800D02*
X111024600Y-87758800D01*
X115470600Y-87798800D02*
X114238600Y-87798800D01*
X112278600Y-87798800D02*
X111046600Y-87798800D01*
X115447600Y-87838800D02*
X114238600Y-87838800D01*
X112278600Y-87838800D02*
X111069600Y-87838800D01*
X115423600Y-87878800D02*
X114238600Y-87878800D01*
X112278600Y-87878800D02*
X111093600Y-87878800D01*
X115398600Y-87918800D02*
X114238600Y-87918800D01*
X112278600Y-87918800D02*
X111118600Y-87918800D01*
X115371600Y-87958800D02*
X114238600Y-87958800D01*
X112278600Y-87958800D02*
X111145600Y-87958800D01*
X115344600Y-87998800D02*
X114238600Y-87998800D01*
X112278600Y-87998800D02*
X111172600Y-87998800D01*
X115316600Y-88038800D02*
X114238600Y-88038800D01*
X112278600Y-88038800D02*
X111200600Y-88038800D01*
X115286600Y-88078800D02*
X114238600Y-88078800D01*
X112278600Y-88078800D02*
X111230600Y-88078800D01*
X115255600Y-88118800D02*
X114238600Y-88118800D01*
X112278600Y-88118800D02*
X111261600Y-88118800D01*
X115223600Y-88158800D02*
X114238600Y-88158800D01*
X112278600Y-88158800D02*
X111293600Y-88158800D01*
X115190600Y-88198800D02*
X114238600Y-88198800D01*
X112278600Y-88198800D02*
X111326600Y-88198800D01*
X115155600Y-88238800D02*
X114238600Y-88238800D01*
X112278600Y-88238800D02*
X111361600Y-88238800D01*
X115119600Y-88278800D02*
X114238600Y-88278800D01*
X112278600Y-88278800D02*
X111397600Y-88278800D01*
X115081600Y-88318800D02*
X114238600Y-88318800D01*
X112278600Y-88318800D02*
X111435600Y-88318800D01*
X115041600Y-88358800D02*
X114238600Y-88358800D01*
X112278600Y-88358800D02*
X111475600Y-88358800D01*
X115000600Y-88398800D02*
X114238600Y-88398800D01*
X112278600Y-88398800D02*
X111516600Y-88398800D01*
X114957600Y-88438800D02*
X114238600Y-88438800D01*
X112278600Y-88438800D02*
X111559600Y-88438800D01*
X114912600Y-88478800D02*
X114238600Y-88478800D01*
X112278600Y-88478800D02*
X111604600Y-88478800D01*
X114864600Y-88518800D02*
X114238600Y-88518800D01*
X112278600Y-88518800D02*
X111652600Y-88518800D01*
X114814600Y-88558800D02*
X114238600Y-88558800D01*
X112278600Y-88558800D02*
X111702600Y-88558800D01*
X114762600Y-88598800D02*
X114238600Y-88598800D01*
X112278600Y-88598800D02*
X111754600Y-88598800D01*
X114706600Y-88638800D02*
X114238600Y-88638800D01*
X112278600Y-88638800D02*
X111810600Y-88638800D01*
X114648600Y-88678800D02*
X114238600Y-88678800D01*
X112278600Y-88678800D02*
X111868600Y-88678800D01*
X114585600Y-88718800D02*
X114238600Y-88718800D01*
X112278600Y-88718800D02*
X111931600Y-88718800D01*
X114519600Y-88758800D02*
X111997600Y-88758800D01*
X114447600Y-88798800D02*
X112069600Y-88798800D01*
X114370600Y-88838800D02*
X112146600Y-88838800D01*
X114286600Y-88878800D02*
X112230600Y-88878800D01*
X114192600Y-88918800D02*
X112324600Y-88918800D01*
X114087600Y-88958800D02*
X112429600Y-88958800D01*
X113965600Y-88998800D02*
X112551600Y-88998800D01*
X113817600Y-89038800D02*
X112699600Y-89038800D01*
X113612600Y-89078800D02*
X112904600Y-89078800D01*
X113258600Y-83067800D02*
X113258600Y-84267800D01*
X113908600Y-83667800D02*
X112608600Y-83667800D01*
X105791000Y-80899000D02*
X105791000Y-91059000D01*
X107061000Y-80899000D02*
X99441000Y-80899000D01*
X99441000Y-80899000D02*
X99441000Y-91059000D01*
X99441000Y-91059000D02*
X107061000Y-91059000D01*
X107061000Y-91059000D02*
X107061000Y-80899000D01*
X102036000Y-74527000D02*
X102036000Y-78127000D01*
X102763205Y-74002816D02*
G75*
G03X102036000Y-74527000I1122795J-2324184D01*
G01*
X104984807Y-73970600D02*
G75*
G02X106486000Y-76327000I-1098807J-2356400D01*
G01*
X104984807Y-78683400D02*
G75*
G03X106486000Y-76327000I-1098807J2356400D01*
G01*
X102763205Y-78651184D02*
G75*
G02X102036000Y-78127000I1122795J2324184D01*
G01*
X110399000Y-80172000D02*
X110069000Y-80172000D01*
X110069000Y-80172000D02*
X110069000Y-73752000D01*
X110069000Y-73752000D02*
X110399000Y-73752000D01*
X112359000Y-80172000D02*
X112689000Y-80172000D01*
X112689000Y-80172000D02*
X112689000Y-73752000D01*
X112689000Y-73752000D02*
X112359000Y-73752000D01*
X133842200Y-79262800D02*
X133842200Y-79592800D01*
X133842200Y-79592800D02*
X127422200Y-79592800D01*
X127422200Y-79592800D02*
X127422200Y-79262800D01*
X133842200Y-77302800D02*
X133842200Y-76972800D01*
X133842200Y-76972800D02*
X127422200Y-76972800D01*
X127422200Y-76972800D02*
X127422200Y-77302800D01*
X139264600Y-70191000D02*
X149884600Y-70191000D01*
X139264600Y-88212000D02*
X149884600Y-88212000D01*
X139264600Y-70191000D02*
X139264600Y-88212000D01*
X149884600Y-70191000D02*
X149884600Y-88212000D01*
X149884600Y-75641000D02*
X154884600Y-75641000D01*
X149884600Y-82761000D02*
X154884600Y-82761000D01*
X149884600Y-75641000D02*
X149884600Y-82761000D01*
X154884600Y-75641000D02*
X154884600Y-82761000D01*
X154884600Y-76141000D02*
X164884600Y-76141000D01*
X154884600Y-82261000D02*
X164884600Y-82261000D01*
X154884600Y-76141000D02*
X154884600Y-82261000D01*
X164884600Y-76141000D02*
X164884600Y-82261000D01*
X120405400Y-71822000D02*
G75*
G02X118405400Y-71822000I-1000000J0D01*
G01*
X118405400Y-71822000D02*
X116755400Y-71822000D01*
X116755400Y-71822000D02*
X116755400Y-82102000D01*
X116755400Y-82102000D02*
X122055400Y-82102000D01*
X122055400Y-82102000D02*
X122055400Y-71822000D01*
X122055400Y-71822000D02*
X120405400Y-71822000D01*
X114265400Y-71762000D02*
X114265400Y-82162000D01*
X114265400Y-82162000D02*
X124545400Y-82162000D01*
X124545400Y-82162000D02*
X124545400Y-71762000D01*
X124545400Y-71762000D02*
X114265400Y-71762000D01*
X137539100Y-84394200D02*
X128539100Y-84394200D01*
X137639100Y-93414200D02*
X128509100Y-93414200D01*
X137639100Y-93414200D02*
X137639100Y-81744200D01*
X128509100Y-81744200D02*
X128509100Y-93414200D01*
X128509100Y-81744200D02*
X137639100Y-81744200D01*
X134587600Y-75349400D02*
X134587600Y-72529400D01*
X134587600Y-72529400D02*
X129267600Y-72529400D01*
X129267600Y-72529400D02*
X129267600Y-75349400D01*
X129267600Y-75349400D02*
X134587600Y-75349400D01*
X135927600Y-73939400D02*
X134587600Y-73939400D01*
X127927600Y-73939400D02*
X129267600Y-73939400D01*
X133747600Y-75349400D02*
X133747600Y-72529400D01*
X129140600Y-81038400D02*
X129140600Y-83858400D01*
X129140600Y-83858400D02*
X134460600Y-83858400D01*
X134460600Y-83858400D02*
X134460600Y-81038400D01*
X134460600Y-81038400D02*
X129140600Y-81038400D01*
X127800600Y-82448400D02*
X129140600Y-82448400D01*
X135800600Y-82448400D02*
X134460600Y-82448400D01*
X129980600Y-81038400D02*
X129980600Y-83858400D01*
X107022600Y-86314900D02*
X109842600Y-86314900D01*
X109842600Y-86314900D02*
X109842600Y-80994900D01*
X109842600Y-80994900D02*
X107022600Y-80994900D01*
X107022600Y-80994900D02*
X107022600Y-86314900D01*
X108432600Y-87654900D02*
X108432600Y-86314900D01*
X108432600Y-79654900D02*
X108432600Y-80994900D01*
X107022600Y-85474900D02*
X109842600Y-85474900D01*
D12*
X129306743Y-86963866D02*
X129354362Y-87011485D01*
X129401981Y-87154342D01*
X129401981Y-87249580D01*
X129354362Y-87392438D01*
X129259124Y-87487676D01*
X129163886Y-87535295D01*
X128973410Y-87582914D01*
X128830552Y-87582914D01*
X128640076Y-87535295D01*
X128544838Y-87487676D01*
X128449600Y-87392438D01*
X128401981Y-87249580D01*
X128401981Y-87154342D01*
X128449600Y-87011485D01*
X128497219Y-86963866D01*
X129401981Y-86011485D02*
X129401981Y-86582914D01*
X129401981Y-86297200D02*
X128401981Y-86297200D01*
X128544838Y-86392438D01*
X128640076Y-86487676D01*
X128687695Y-86582914D01*
X117425743Y-86684466D02*
X117473362Y-86732085D01*
X117520981Y-86874942D01*
X117520981Y-86970180D01*
X117473362Y-87113038D01*
X117378124Y-87208276D01*
X117282886Y-87255895D01*
X117092410Y-87303514D01*
X116949552Y-87303514D01*
X116759076Y-87255895D01*
X116663838Y-87208276D01*
X116568600Y-87113038D01*
X116520981Y-86970180D01*
X116520981Y-86874942D01*
X116568600Y-86732085D01*
X116616219Y-86684466D01*
X116616219Y-86303514D02*
X116568600Y-86255895D01*
X116520981Y-86160657D01*
X116520981Y-85922561D01*
X116568600Y-85827323D01*
X116616219Y-85779704D01*
X116711457Y-85732085D01*
X116806695Y-85732085D01*
X116949552Y-85779704D01*
X117520981Y-86351133D01*
X117520981Y-85732085D01*
X98623381Y-86788524D02*
X97623381Y-86788524D01*
X98337667Y-86455190D01*
X97623381Y-86121857D01*
X98623381Y-86121857D01*
X98623381Y-85121857D02*
X98623381Y-85693286D01*
X98623381Y-85407572D02*
X97623381Y-85407572D01*
X97766238Y-85502810D01*
X97861476Y-85598048D01*
X97909095Y-85693286D01*
X108623619Y-76422238D02*
X108576000Y-76517476D01*
X108480762Y-76612714D01*
X108337905Y-76755571D01*
X108290286Y-76850810D01*
X108290286Y-76946048D01*
X108528381Y-76898429D02*
X108480762Y-76993667D01*
X108385524Y-77088905D01*
X108195048Y-77136524D01*
X107861714Y-77136524D01*
X107671238Y-77088905D01*
X107576000Y-76993667D01*
X107528381Y-76898429D01*
X107528381Y-76707952D01*
X107576000Y-76612714D01*
X107671238Y-76517476D01*
X107861714Y-76469857D01*
X108195048Y-76469857D01*
X108385524Y-76517476D01*
X108480762Y-76612714D01*
X108528381Y-76707952D01*
X108528381Y-76898429D01*
X108528381Y-75517476D02*
X108528381Y-76088905D01*
X108528381Y-75803191D02*
X107528381Y-75803191D01*
X107671238Y-75898429D01*
X107766476Y-75993667D01*
X107814095Y-76088905D01*
X109521381Y-77128666D02*
X109045190Y-77462000D01*
X109521381Y-77700095D02*
X108521381Y-77700095D01*
X108521381Y-77319142D01*
X108569000Y-77223904D01*
X108616619Y-77176285D01*
X108711857Y-77128666D01*
X108854714Y-77128666D01*
X108949952Y-77176285D01*
X108997571Y-77223904D01*
X109045190Y-77319142D01*
X109045190Y-77700095D01*
X109521381Y-76176285D02*
X109521381Y-76747714D01*
X109521381Y-76462000D02*
X108521381Y-76462000D01*
X108664238Y-76557238D01*
X108759476Y-76652476D01*
X108807095Y-76747714D01*
X130465534Y-81045181D02*
X130132200Y-80568990D01*
X129894105Y-81045181D02*
X129894105Y-80045181D01*
X130275058Y-80045181D01*
X130370296Y-80092800D01*
X130417915Y-80140419D01*
X130465534Y-80235657D01*
X130465534Y-80378514D01*
X130417915Y-80473752D01*
X130370296Y-80521371D01*
X130275058Y-80568990D01*
X129894105Y-80568990D01*
X130846486Y-80140419D02*
X130894105Y-80092800D01*
X130989343Y-80045181D01*
X131227439Y-80045181D01*
X131322677Y-80092800D01*
X131370296Y-80140419D01*
X131417915Y-80235657D01*
X131417915Y-80330895D01*
X131370296Y-80473752D01*
X130798867Y-81045181D01*
X131417915Y-81045181D01*
X145429362Y-69453381D02*
X145096028Y-68977190D01*
X144857933Y-69453381D02*
X144857933Y-68453381D01*
X145238886Y-68453381D01*
X145334124Y-68501000D01*
X145381743Y-68548619D01*
X145429362Y-68643857D01*
X145429362Y-68786714D01*
X145381743Y-68881952D01*
X145334124Y-68929571D01*
X145238886Y-68977190D01*
X144857933Y-68977190D01*
X145715076Y-68453381D02*
X146048409Y-69453381D01*
X146381743Y-68453381D01*
X147238886Y-69453381D02*
X146667457Y-69453381D01*
X146953171Y-69453381D02*
X146953171Y-68453381D01*
X146857933Y-68596238D01*
X146762695Y-68691476D01*
X146667457Y-68739095D01*
X118643495Y-70274381D02*
X118643495Y-71083905D01*
X118691114Y-71179143D01*
X118738733Y-71226762D01*
X118833971Y-71274381D01*
X119024448Y-71274381D01*
X119119686Y-71226762D01*
X119167305Y-71179143D01*
X119214924Y-71083905D01*
X119214924Y-70274381D01*
X120214924Y-71274381D02*
X119643495Y-71274381D01*
X119929209Y-71274381D02*
X119929209Y-70274381D01*
X119833971Y-70417238D01*
X119738733Y-70512476D01*
X119643495Y-70560095D01*
X138517671Y-87779914D02*
X138565290Y-87637057D01*
X138612910Y-87589438D01*
X138708148Y-87541819D01*
X138851005Y-87541819D01*
X138946243Y-87589438D01*
X138993862Y-87637057D01*
X139041481Y-87732295D01*
X139041481Y-88113248D01*
X138041481Y-88113248D01*
X138041481Y-87779914D01*
X138089100Y-87684676D01*
X138136719Y-87637057D01*
X138231957Y-87589438D01*
X138327195Y-87589438D01*
X138422433Y-87637057D01*
X138470052Y-87684676D01*
X138517671Y-87779914D01*
X138517671Y-88113248D01*
X138041481Y-87256105D02*
X138041481Y-86684676D01*
X139041481Y-86970391D02*
X138041481Y-86970391D01*
X139041481Y-85827533D02*
X139041481Y-86398962D01*
X139041481Y-86113248D02*
X138041481Y-86113248D01*
X138184338Y-86208486D01*
X138279576Y-86303724D01*
X138327195Y-86398962D01*
X131189505Y-76801781D02*
X131189505Y-75801781D01*
X131427600Y-75801781D01*
X131570458Y-75849400D01*
X131665696Y-75944638D01*
X131713315Y-76039876D01*
X131760934Y-76230352D01*
X131760934Y-76373210D01*
X131713315Y-76563686D01*
X131665696Y-76658924D01*
X131570458Y-76754162D01*
X131427600Y-76801781D01*
X131189505Y-76801781D01*
X132713315Y-76801781D02*
X132141886Y-76801781D01*
X132427600Y-76801781D02*
X132427600Y-75801781D01*
X132332362Y-75944638D01*
X132237124Y-76039876D01*
X132141886Y-76087495D01*
X131062505Y-80490781D02*
X131062505Y-79490781D01*
X131300600Y-79490781D01*
X131443458Y-79538400D01*
X131538696Y-79633638D01*
X131586315Y-79728876D01*
X131633934Y-79919352D01*
X131633934Y-80062210D01*
X131586315Y-80252686D01*
X131538696Y-80347924D01*
X131443458Y-80443162D01*
X131300600Y-80490781D01*
X131062505Y-80490781D01*
X132014886Y-79586019D02*
X132062505Y-79538400D01*
X132157743Y-79490781D01*
X132395839Y-79490781D01*
X132491077Y-79538400D01*
X132538696Y-79586019D01*
X132586315Y-79681257D01*
X132586315Y-79776495D01*
X132538696Y-79919352D01*
X131967267Y-80490781D01*
X132586315Y-80490781D01*
X106474981Y-84392995D02*
X105474981Y-84392995D01*
X105474981Y-84154900D01*
X105522600Y-84012042D01*
X105617838Y-83916804D01*
X105713076Y-83869185D01*
X105903552Y-83821566D01*
X106046410Y-83821566D01*
X106236886Y-83869185D01*
X106332124Y-83916804D01*
X106427362Y-84012042D01*
X106474981Y-84154900D01*
X106474981Y-84392995D01*
X105474981Y-83488233D02*
X105474981Y-82869185D01*
X105855933Y-83202519D01*
X105855933Y-83059661D01*
X105903552Y-82964423D01*
X105951171Y-82916804D01*
X106046410Y-82869185D01*
X106284505Y-82869185D01*
X106379743Y-82916804D01*
X106427362Y-82964423D01*
X106474981Y-83059661D01*
X106474981Y-83345376D01*
X106427362Y-83440614D01*
X106379743Y-83488233D01*
M02*
