G04 #@! TF.FileFunction,Profile,NP*
%FSLAX46Y46*%
G04 Gerber Fmt 4.6, Leading zero omitted, Abs format (unit mm)*
G04 Created by KiCad (PCBNEW 4.0.7) date 12/08/18 06:13:13*
%MOMM*%
%LPD*%
G01*
G04 APERTURE LIST*
%ADD10C,0.100000*%
%ADD11C,0.150000*%
G04 APERTURE END LIST*
D10*
D11*
X220675200Y-99009200D02*
X205638400Y-99009200D01*
X222808800Y-76606400D02*
X222808800Y-84632800D01*
X220675200Y-84632800D02*
X220675200Y-99009200D01*
X222808800Y-84632800D02*
X220675200Y-84632800D01*
X168503600Y-99822000D02*
X202234800Y-99822000D01*
X168503600Y-75438000D02*
X194462400Y-75438000D01*
X168503600Y-75438000D02*
X168503600Y-99822000D01*
X166878000Y-73863200D02*
X194462400Y-73863200D01*
X166878000Y-43688000D02*
X205282800Y-43688000D01*
X166878000Y-73863200D02*
X166878000Y-43688000D01*
X205282800Y-44704000D02*
X205282800Y-43688000D01*
X205282800Y-71221600D02*
X205282800Y-44704000D01*
X209499200Y-71221600D02*
X205282800Y-71221600D01*
X209499200Y-54914800D02*
X209499200Y-71221600D01*
X217119200Y-54914800D02*
X209499200Y-54914800D01*
X217119200Y-74117200D02*
X217119200Y-54914800D01*
X210464400Y-74117200D02*
X217119200Y-74117200D01*
X210464400Y-76606400D02*
X210464400Y-74117200D01*
X222808800Y-76606400D02*
X210464400Y-76606400D01*
X205638400Y-77419200D02*
X205638400Y-99009200D01*
X202234800Y-77419200D02*
X205638400Y-77419200D01*
X202234800Y-99822000D02*
X202234800Y-77419200D01*
X194462400Y-73863200D02*
X194462400Y-75438000D01*
M02*
