G04 #@! TF.FileFunction,Other,Fab,Bot*
%FSLAX46Y46*%
G04 Gerber Fmt 4.6, Leading zero omitted, Abs format (unit mm)*
G04 Created by KiCad (PCBNEW 4.0.7) date 12/08/18 06:13:13*
%MOMM*%
%LPD*%
G01*
G04 APERTURE LIST*
%ADD10C,0.100000*%
%ADD11C,0.150000*%
%ADD12C,0.075000*%
G04 APERTURE END LIST*
D10*
X211420200Y-78450200D02*
X211420200Y-79690200D01*
X213420200Y-78450200D02*
X211420200Y-78450200D01*
X213420200Y-79690200D02*
X213420200Y-78450200D01*
X211420200Y-79690200D02*
X213420200Y-79690200D01*
X211420200Y-80939400D02*
X211420200Y-82179400D01*
X213420200Y-80939400D02*
X211420200Y-80939400D01*
X213420200Y-82179400D02*
X213420200Y-80939400D01*
X211420200Y-82179400D02*
X213420200Y-82179400D01*
X211420200Y-83530200D02*
X211420200Y-84770200D01*
X213420200Y-83530200D02*
X211420200Y-83530200D01*
X213420200Y-84770200D02*
X213420200Y-83530200D01*
X211420200Y-84770200D02*
X213420200Y-84770200D01*
X211420200Y-86171800D02*
X211420200Y-87411800D01*
X213420200Y-86171800D02*
X211420200Y-86171800D01*
X213420200Y-87411800D02*
X213420200Y-86171800D01*
X211420200Y-87411800D02*
X213420200Y-87411800D01*
X211420200Y-88813400D02*
X211420200Y-90053400D01*
X213420200Y-88813400D02*
X211420200Y-88813400D01*
X213420200Y-90053400D02*
X213420200Y-88813400D01*
X211420200Y-90053400D02*
X213420200Y-90053400D01*
X211420200Y-91150200D02*
X211420200Y-92390200D01*
X213420200Y-91150200D02*
X211420200Y-91150200D01*
X213420200Y-92390200D02*
X213420200Y-91150200D01*
X211420200Y-92390200D02*
X213420200Y-92390200D01*
X211420200Y-93639400D02*
X211420200Y-94879400D01*
X213420200Y-93639400D02*
X211420200Y-93639400D01*
X213420200Y-94879400D02*
X213420200Y-93639400D01*
X211420200Y-94879400D02*
X213420200Y-94879400D01*
X211420200Y-96281000D02*
X211420200Y-97521000D01*
X213420200Y-96281000D02*
X211420200Y-96281000D01*
X213420200Y-97521000D02*
X213420200Y-96281000D01*
X211420200Y-97521000D02*
X213420200Y-97521000D01*
D11*
X212110676Y-77772581D02*
X212444010Y-77296390D01*
X212682105Y-77772581D02*
X212682105Y-76772581D01*
X212301152Y-76772581D01*
X212205914Y-76820200D01*
X212158295Y-76867819D01*
X212110676Y-76963057D01*
X212110676Y-77105914D01*
X212158295Y-77201152D01*
X212205914Y-77248771D01*
X212301152Y-77296390D01*
X212682105Y-77296390D01*
D12*
X212503533Y-79296390D02*
X212670200Y-79058295D01*
X212789247Y-79296390D02*
X212789247Y-78796390D01*
X212598771Y-78796390D01*
X212551152Y-78820200D01*
X212527343Y-78844010D01*
X212503533Y-78891629D01*
X212503533Y-78963057D01*
X212527343Y-79010676D01*
X212551152Y-79034486D01*
X212598771Y-79058295D01*
X212789247Y-79058295D01*
X212051152Y-78796390D02*
X212289247Y-78796390D01*
X212313057Y-79034486D01*
X212289247Y-79010676D01*
X212241628Y-78986867D01*
X212122581Y-78986867D01*
X212074962Y-79010676D01*
X212051152Y-79034486D01*
X212027343Y-79082105D01*
X212027343Y-79201152D01*
X212051152Y-79248771D01*
X212074962Y-79272581D01*
X212122581Y-79296390D01*
X212241628Y-79296390D01*
X212289247Y-79272581D01*
X212313057Y-79248771D01*
D11*
X212110676Y-80261781D02*
X212444010Y-79785590D01*
X212682105Y-80261781D02*
X212682105Y-79261781D01*
X212301152Y-79261781D01*
X212205914Y-79309400D01*
X212158295Y-79357019D01*
X212110676Y-79452257D01*
X212110676Y-79595114D01*
X212158295Y-79690352D01*
X212205914Y-79737971D01*
X212301152Y-79785590D01*
X212682105Y-79785590D01*
D12*
X212503533Y-81785590D02*
X212670200Y-81547495D01*
X212789247Y-81785590D02*
X212789247Y-81285590D01*
X212598771Y-81285590D01*
X212551152Y-81309400D01*
X212527343Y-81333210D01*
X212503533Y-81380829D01*
X212503533Y-81452257D01*
X212527343Y-81499876D01*
X212551152Y-81523686D01*
X212598771Y-81547495D01*
X212789247Y-81547495D01*
X212074962Y-81285590D02*
X212170200Y-81285590D01*
X212217819Y-81309400D01*
X212241628Y-81333210D01*
X212289247Y-81404638D01*
X212313057Y-81499876D01*
X212313057Y-81690352D01*
X212289247Y-81737971D01*
X212265438Y-81761781D01*
X212217819Y-81785590D01*
X212122581Y-81785590D01*
X212074962Y-81761781D01*
X212051152Y-81737971D01*
X212027343Y-81690352D01*
X212027343Y-81571305D01*
X212051152Y-81523686D01*
X212074962Y-81499876D01*
X212122581Y-81476067D01*
X212217819Y-81476067D01*
X212265438Y-81499876D01*
X212289247Y-81523686D01*
X212313057Y-81571305D01*
D11*
X212110676Y-82852581D02*
X212444010Y-82376390D01*
X212682105Y-82852581D02*
X212682105Y-81852581D01*
X212301152Y-81852581D01*
X212205914Y-81900200D01*
X212158295Y-81947819D01*
X212110676Y-82043057D01*
X212110676Y-82185914D01*
X212158295Y-82281152D01*
X212205914Y-82328771D01*
X212301152Y-82376390D01*
X212682105Y-82376390D01*
D12*
X212503533Y-84376390D02*
X212670200Y-84138295D01*
X212789247Y-84376390D02*
X212789247Y-83876390D01*
X212598771Y-83876390D01*
X212551152Y-83900200D01*
X212527343Y-83924010D01*
X212503533Y-83971629D01*
X212503533Y-84043057D01*
X212527343Y-84090676D01*
X212551152Y-84114486D01*
X212598771Y-84138295D01*
X212789247Y-84138295D01*
X212336866Y-83876390D02*
X212003533Y-83876390D01*
X212217819Y-84376390D01*
D11*
X212110676Y-85494181D02*
X212444010Y-85017990D01*
X212682105Y-85494181D02*
X212682105Y-84494181D01*
X212301152Y-84494181D01*
X212205914Y-84541800D01*
X212158295Y-84589419D01*
X212110676Y-84684657D01*
X212110676Y-84827514D01*
X212158295Y-84922752D01*
X212205914Y-84970371D01*
X212301152Y-85017990D01*
X212682105Y-85017990D01*
D12*
X212503533Y-87017990D02*
X212670200Y-86779895D01*
X212789247Y-87017990D02*
X212789247Y-86517990D01*
X212598771Y-86517990D01*
X212551152Y-86541800D01*
X212527343Y-86565610D01*
X212503533Y-86613229D01*
X212503533Y-86684657D01*
X212527343Y-86732276D01*
X212551152Y-86756086D01*
X212598771Y-86779895D01*
X212789247Y-86779895D01*
X212217819Y-86732276D02*
X212265438Y-86708467D01*
X212289247Y-86684657D01*
X212313057Y-86637038D01*
X212313057Y-86613229D01*
X212289247Y-86565610D01*
X212265438Y-86541800D01*
X212217819Y-86517990D01*
X212122581Y-86517990D01*
X212074962Y-86541800D01*
X212051152Y-86565610D01*
X212027343Y-86613229D01*
X212027343Y-86637038D01*
X212051152Y-86684657D01*
X212074962Y-86708467D01*
X212122581Y-86732276D01*
X212217819Y-86732276D01*
X212265438Y-86756086D01*
X212289247Y-86779895D01*
X212313057Y-86827514D01*
X212313057Y-86922752D01*
X212289247Y-86970371D01*
X212265438Y-86994181D01*
X212217819Y-87017990D01*
X212122581Y-87017990D01*
X212074962Y-86994181D01*
X212051152Y-86970371D01*
X212027343Y-86922752D01*
X212027343Y-86827514D01*
X212051152Y-86779895D01*
X212074962Y-86756086D01*
X212122581Y-86732276D01*
D11*
X212110676Y-88135781D02*
X212444010Y-87659590D01*
X212682105Y-88135781D02*
X212682105Y-87135781D01*
X212301152Y-87135781D01*
X212205914Y-87183400D01*
X212158295Y-87231019D01*
X212110676Y-87326257D01*
X212110676Y-87469114D01*
X212158295Y-87564352D01*
X212205914Y-87611971D01*
X212301152Y-87659590D01*
X212682105Y-87659590D01*
D12*
X212503533Y-89659590D02*
X212670200Y-89421495D01*
X212789247Y-89659590D02*
X212789247Y-89159590D01*
X212598771Y-89159590D01*
X212551152Y-89183400D01*
X212527343Y-89207210D01*
X212503533Y-89254829D01*
X212503533Y-89326257D01*
X212527343Y-89373876D01*
X212551152Y-89397686D01*
X212598771Y-89421495D01*
X212789247Y-89421495D01*
X212265438Y-89659590D02*
X212170200Y-89659590D01*
X212122581Y-89635781D01*
X212098771Y-89611971D01*
X212051152Y-89540543D01*
X212027343Y-89445305D01*
X212027343Y-89254829D01*
X212051152Y-89207210D01*
X212074962Y-89183400D01*
X212122581Y-89159590D01*
X212217819Y-89159590D01*
X212265438Y-89183400D01*
X212289247Y-89207210D01*
X212313057Y-89254829D01*
X212313057Y-89373876D01*
X212289247Y-89421495D01*
X212265438Y-89445305D01*
X212217819Y-89469114D01*
X212122581Y-89469114D01*
X212074962Y-89445305D01*
X212051152Y-89421495D01*
X212027343Y-89373876D01*
D11*
X212110676Y-90472581D02*
X212444010Y-89996390D01*
X212682105Y-90472581D02*
X212682105Y-89472581D01*
X212301152Y-89472581D01*
X212205914Y-89520200D01*
X212158295Y-89567819D01*
X212110676Y-89663057D01*
X212110676Y-89805914D01*
X212158295Y-89901152D01*
X212205914Y-89948771D01*
X212301152Y-89996390D01*
X212682105Y-89996390D01*
D12*
X212741628Y-91996390D02*
X212908295Y-91758295D01*
X213027342Y-91996390D02*
X213027342Y-91496390D01*
X212836866Y-91496390D01*
X212789247Y-91520200D01*
X212765438Y-91544010D01*
X212741628Y-91591629D01*
X212741628Y-91663057D01*
X212765438Y-91710676D01*
X212789247Y-91734486D01*
X212836866Y-91758295D01*
X213027342Y-91758295D01*
X212265438Y-91996390D02*
X212551152Y-91996390D01*
X212408295Y-91996390D02*
X212408295Y-91496390D01*
X212455914Y-91567819D01*
X212503533Y-91615438D01*
X212551152Y-91639248D01*
X211955914Y-91496390D02*
X211908295Y-91496390D01*
X211860676Y-91520200D01*
X211836867Y-91544010D01*
X211813057Y-91591629D01*
X211789248Y-91686867D01*
X211789248Y-91805914D01*
X211813057Y-91901152D01*
X211836867Y-91948771D01*
X211860676Y-91972581D01*
X211908295Y-91996390D01*
X211955914Y-91996390D01*
X212003533Y-91972581D01*
X212027343Y-91948771D01*
X212051152Y-91901152D01*
X212074962Y-91805914D01*
X212074962Y-91686867D01*
X212051152Y-91591629D01*
X212027343Y-91544010D01*
X212003533Y-91520200D01*
X211955914Y-91496390D01*
D11*
X212110676Y-92961781D02*
X212444010Y-92485590D01*
X212682105Y-92961781D02*
X212682105Y-91961781D01*
X212301152Y-91961781D01*
X212205914Y-92009400D01*
X212158295Y-92057019D01*
X212110676Y-92152257D01*
X212110676Y-92295114D01*
X212158295Y-92390352D01*
X212205914Y-92437971D01*
X212301152Y-92485590D01*
X212682105Y-92485590D01*
D12*
X212741628Y-94485590D02*
X212908295Y-94247495D01*
X213027342Y-94485590D02*
X213027342Y-93985590D01*
X212836866Y-93985590D01*
X212789247Y-94009400D01*
X212765438Y-94033210D01*
X212741628Y-94080829D01*
X212741628Y-94152257D01*
X212765438Y-94199876D01*
X212789247Y-94223686D01*
X212836866Y-94247495D01*
X213027342Y-94247495D01*
X212265438Y-94485590D02*
X212551152Y-94485590D01*
X212408295Y-94485590D02*
X212408295Y-93985590D01*
X212455914Y-94057019D01*
X212503533Y-94104638D01*
X212551152Y-94128448D01*
X211789248Y-94485590D02*
X212074962Y-94485590D01*
X211932105Y-94485590D02*
X211932105Y-93985590D01*
X211979724Y-94057019D01*
X212027343Y-94104638D01*
X212074962Y-94128448D01*
D11*
X212110676Y-95603381D02*
X212444010Y-95127190D01*
X212682105Y-95603381D02*
X212682105Y-94603381D01*
X212301152Y-94603381D01*
X212205914Y-94651000D01*
X212158295Y-94698619D01*
X212110676Y-94793857D01*
X212110676Y-94936714D01*
X212158295Y-95031952D01*
X212205914Y-95079571D01*
X212301152Y-95127190D01*
X212682105Y-95127190D01*
D12*
X212741628Y-97127190D02*
X212908295Y-96889095D01*
X213027342Y-97127190D02*
X213027342Y-96627190D01*
X212836866Y-96627190D01*
X212789247Y-96651000D01*
X212765438Y-96674810D01*
X212741628Y-96722429D01*
X212741628Y-96793857D01*
X212765438Y-96841476D01*
X212789247Y-96865286D01*
X212836866Y-96889095D01*
X213027342Y-96889095D01*
X212265438Y-97127190D02*
X212551152Y-97127190D01*
X212408295Y-97127190D02*
X212408295Y-96627190D01*
X212455914Y-96698619D01*
X212503533Y-96746238D01*
X212551152Y-96770048D01*
X212074962Y-96674810D02*
X212051152Y-96651000D01*
X212003533Y-96627190D01*
X211884486Y-96627190D01*
X211836867Y-96651000D01*
X211813057Y-96674810D01*
X211789248Y-96722429D01*
X211789248Y-96770048D01*
X211813057Y-96841476D01*
X212098771Y-97127190D01*
X211789248Y-97127190D01*
M02*
