G04 #@! TF.FileFunction,Legend,Top*
%FSLAX46Y46*%
G04 Gerber Fmt 4.6, Leading zero omitted, Abs format (unit mm)*
G04 Created by KiCad (PCBNEW 4.0.7) date 12/08/18 06:13:13*
%MOMM*%
%LPD*%
G01*
G04 APERTURE LIST*
%ADD10C,0.100000*%
%ADD11C,0.300000*%
%ADD12C,0.200000*%
%ADD13C,0.150000*%
%ADD14C,0.120000*%
G04 APERTURE END LIST*
D10*
D11*
X186398057Y-50137143D02*
X186612343Y-50208571D01*
X186969486Y-50208571D01*
X187112343Y-50137143D01*
X187183772Y-50065714D01*
X187255200Y-49922857D01*
X187255200Y-49780000D01*
X187183772Y-49637143D01*
X187112343Y-49565714D01*
X186969486Y-49494286D01*
X186683772Y-49422857D01*
X186540914Y-49351429D01*
X186469486Y-49280000D01*
X186398057Y-49137143D01*
X186398057Y-48994286D01*
X186469486Y-48851429D01*
X186540914Y-48780000D01*
X186683772Y-48708571D01*
X187040914Y-48708571D01*
X187255200Y-48780000D01*
X187683771Y-49208571D02*
X188255200Y-49208571D01*
X187898057Y-48708571D02*
X187898057Y-49994286D01*
X187969485Y-50137143D01*
X188112343Y-50208571D01*
X188255200Y-50208571D01*
X188755200Y-50208571D02*
X188755200Y-49208571D01*
X188755200Y-49494286D02*
X188826628Y-49351429D01*
X188898057Y-49280000D01*
X189040914Y-49208571D01*
X189183771Y-49208571D01*
X189683771Y-50208571D02*
X189683771Y-49208571D01*
X189683771Y-48708571D02*
X189612342Y-48780000D01*
X189683771Y-48851429D01*
X189755199Y-48780000D01*
X189683771Y-48708571D01*
X189683771Y-48851429D01*
X190398057Y-49208571D02*
X190398057Y-50708571D01*
X190398057Y-49280000D02*
X190540914Y-49208571D01*
X190826628Y-49208571D01*
X190969485Y-49280000D01*
X191040914Y-49351429D01*
X191112343Y-49494286D01*
X191112343Y-49922857D01*
X191040914Y-50065714D01*
X190969485Y-50137143D01*
X190826628Y-50208571D01*
X190540914Y-50208571D01*
X190398057Y-50137143D01*
X193755200Y-50065714D02*
X193683771Y-50137143D01*
X193469485Y-50208571D01*
X193326628Y-50208571D01*
X193112343Y-50137143D01*
X192969485Y-49994286D01*
X192898057Y-49851429D01*
X192826628Y-49565714D01*
X192826628Y-49351429D01*
X192898057Y-49065714D01*
X192969485Y-48922857D01*
X193112343Y-48780000D01*
X193326628Y-48708571D01*
X193469485Y-48708571D01*
X193683771Y-48780000D01*
X193755200Y-48851429D01*
X194612343Y-50208571D02*
X194469485Y-50137143D01*
X194398057Y-50065714D01*
X194326628Y-49922857D01*
X194326628Y-49494286D01*
X194398057Y-49351429D01*
X194469485Y-49280000D01*
X194612343Y-49208571D01*
X194826628Y-49208571D01*
X194969485Y-49280000D01*
X195040914Y-49351429D01*
X195112343Y-49494286D01*
X195112343Y-49922857D01*
X195040914Y-50065714D01*
X194969485Y-50137143D01*
X194826628Y-50208571D01*
X194612343Y-50208571D01*
X195755200Y-49208571D02*
X195755200Y-50208571D01*
X195755200Y-49351429D02*
X195826628Y-49280000D01*
X195969486Y-49208571D01*
X196183771Y-49208571D01*
X196326628Y-49280000D01*
X196398057Y-49422857D01*
X196398057Y-50208571D01*
X196898057Y-49208571D02*
X197469486Y-49208571D01*
X197112343Y-48708571D02*
X197112343Y-49994286D01*
X197183771Y-50137143D01*
X197326629Y-50208571D01*
X197469486Y-50208571D01*
X197969486Y-50208571D02*
X197969486Y-49208571D01*
X197969486Y-49494286D02*
X198040914Y-49351429D01*
X198112343Y-49280000D01*
X198255200Y-49208571D01*
X198398057Y-49208571D01*
X199112343Y-50208571D02*
X198969485Y-50137143D01*
X198898057Y-50065714D01*
X198826628Y-49922857D01*
X198826628Y-49494286D01*
X198898057Y-49351429D01*
X198969485Y-49280000D01*
X199112343Y-49208571D01*
X199326628Y-49208571D01*
X199469485Y-49280000D01*
X199540914Y-49351429D01*
X199612343Y-49494286D01*
X199612343Y-49922857D01*
X199540914Y-50065714D01*
X199469485Y-50137143D01*
X199326628Y-50208571D01*
X199112343Y-50208571D01*
X200469486Y-50208571D02*
X200326628Y-50137143D01*
X200255200Y-49994286D01*
X200255200Y-48708571D01*
X200969485Y-50137143D02*
X201112342Y-50208571D01*
X201398057Y-50208571D01*
X201540914Y-50137143D01*
X201612342Y-49994286D01*
X201612342Y-49922857D01*
X201540914Y-49780000D01*
X201398057Y-49708571D01*
X201183771Y-49708571D01*
X201040914Y-49637143D01*
X200969485Y-49494286D01*
X200969485Y-49422857D01*
X201040914Y-49280000D01*
X201183771Y-49208571D01*
X201398057Y-49208571D01*
X201540914Y-49280000D01*
D12*
X210921600Y-55575200D02*
X152349200Y-55575200D01*
D11*
X185672743Y-72293943D02*
X186815600Y-72293943D01*
X186244171Y-72865371D02*
X186244171Y-71722514D01*
X189815600Y-72293943D02*
X190958457Y-72293943D01*
X167814515Y-62959371D02*
X167814515Y-61459371D01*
X168171658Y-61459371D01*
X168385943Y-61530800D01*
X168528801Y-61673657D01*
X168600229Y-61816514D01*
X168671658Y-62102229D01*
X168671658Y-62316514D01*
X168600229Y-62602229D01*
X168528801Y-62745086D01*
X168385943Y-62887943D01*
X168171658Y-62959371D01*
X167814515Y-62959371D01*
X169314515Y-62959371D02*
X169314515Y-61459371D01*
X170814515Y-61530800D02*
X170671658Y-61459371D01*
X170457372Y-61459371D01*
X170243087Y-61530800D01*
X170100229Y-61673657D01*
X170028801Y-61816514D01*
X169957372Y-62102229D01*
X169957372Y-62316514D01*
X170028801Y-62602229D01*
X170100229Y-62745086D01*
X170243087Y-62887943D01*
X170457372Y-62959371D01*
X170600229Y-62959371D01*
X170814515Y-62887943D01*
X170885944Y-62816514D01*
X170885944Y-62316514D01*
X170600229Y-62316514D01*
X171528801Y-62959371D02*
X171528801Y-61459371D01*
X172171658Y-62887943D02*
X172385944Y-62959371D01*
X172743087Y-62959371D01*
X172885944Y-62887943D01*
X172957373Y-62816514D01*
X173028801Y-62673657D01*
X173028801Y-62530800D01*
X172957373Y-62387943D01*
X172885944Y-62316514D01*
X172743087Y-62245086D01*
X172457373Y-62173657D01*
X172314515Y-62102229D01*
X172243087Y-62030800D01*
X172171658Y-61887943D01*
X172171658Y-61745086D01*
X172243087Y-61602229D01*
X172314515Y-61530800D01*
X172457373Y-61459371D01*
X172814515Y-61459371D01*
X173028801Y-61530800D01*
X173671658Y-62959371D02*
X173671658Y-61459371D01*
X174243086Y-61459371D01*
X174385944Y-61530800D01*
X174457372Y-61602229D01*
X174528801Y-61745086D01*
X174528801Y-61959371D01*
X174457372Y-62102229D01*
X174385944Y-62173657D01*
X174243086Y-62245086D01*
X173671658Y-62245086D01*
X175100229Y-62530800D02*
X175814515Y-62530800D01*
X174957372Y-62959371D02*
X175457372Y-61459371D01*
X175957372Y-62959371D01*
X177314515Y-62959371D02*
X176814515Y-62245086D01*
X176457372Y-62959371D02*
X176457372Y-61459371D01*
X177028800Y-61459371D01*
X177171658Y-61530800D01*
X177243086Y-61602229D01*
X177314515Y-61745086D01*
X177314515Y-61959371D01*
X177243086Y-62102229D01*
X177171658Y-62173657D01*
X177028800Y-62245086D01*
X176457372Y-62245086D01*
X177957372Y-62959371D02*
X177957372Y-61459371D01*
X178814515Y-62959371D02*
X178171658Y-62102229D01*
X178814515Y-61459371D02*
X177957372Y-62316514D01*
D13*
X164070800Y-54457600D02*
X183070800Y-54457600D01*
X183070800Y-54457600D02*
X183070800Y-71957600D01*
X183070800Y-71957600D02*
X164070800Y-71957600D01*
X164070800Y-71957600D02*
X164070800Y-54457600D01*
D14*
X196276400Y-54656400D02*
X203897400Y-54656400D01*
X196276400Y-70776400D02*
X203897400Y-70776400D01*
X196276400Y-54656400D02*
X196276400Y-70776400D01*
X203897400Y-54656400D02*
X203897400Y-70776400D01*
X203897400Y-59156400D02*
X208896400Y-59156400D01*
X203897400Y-66276400D02*
X208896400Y-66276400D01*
X203897400Y-59156400D02*
X203897400Y-66276400D01*
X208896400Y-59156400D02*
X208896400Y-66276400D01*
X208896400Y-60656400D02*
X218897400Y-60656400D01*
X208896400Y-64776400D02*
X218897400Y-64776400D01*
X208896400Y-60656400D02*
X208896400Y-64776400D01*
X218897400Y-60656400D02*
X218897400Y-64776400D01*
X220377200Y-83965600D02*
X222497200Y-83965600D01*
X220377200Y-83905600D02*
X220377200Y-83965600D01*
X222497200Y-83905600D02*
X222497200Y-83965600D01*
X220377200Y-83905600D02*
X222497200Y-83905600D01*
X220377200Y-82905600D02*
X220377200Y-81845600D01*
X220377200Y-81845600D02*
X221437200Y-81845600D01*
X188060400Y-96508400D02*
X184140400Y-96508400D01*
X188060400Y-93788400D02*
X184140400Y-93788400D01*
X188060400Y-96508400D02*
X188060400Y-95898400D01*
X188060400Y-94398400D02*
X188060400Y-93788400D01*
X184140400Y-96508400D02*
X184140400Y-95898400D01*
X184140400Y-94398400D02*
X184140400Y-93788400D01*
X194063200Y-80771538D02*
G75*
G03X199613200Y-82316830I2990000J-462D01*
G01*
X194063200Y-80772462D02*
G75*
G02X199613200Y-79227170I2990000J462D01*
G01*
X199553200Y-80772000D02*
G75*
G03X199553200Y-80772000I-2500000J0D01*
G01*
X199613200Y-82317000D02*
X199613200Y-79227000D01*
X170390400Y-80771538D02*
G75*
G03X175940400Y-82316830I2990000J-462D01*
G01*
X170390400Y-80772462D02*
G75*
G02X175940400Y-79227170I2990000J462D01*
G01*
X175880400Y-80772000D02*
G75*
G03X175880400Y-80772000I-2500000J0D01*
G01*
X175940400Y-82317000D02*
X175940400Y-79227000D01*
X212410800Y-78396400D02*
X215610800Y-78396400D01*
X215610800Y-79896400D02*
X212410800Y-79896400D01*
X215610800Y-79896400D02*
X215610800Y-78396400D01*
X212410800Y-80936400D02*
X215610800Y-80936400D01*
X215610800Y-82436400D02*
X212410800Y-82436400D01*
X215610800Y-82436400D02*
X215610800Y-80936400D01*
X212410800Y-83476400D02*
X215610800Y-83476400D01*
X215610800Y-84976400D02*
X212410800Y-84976400D01*
X215610800Y-84976400D02*
X215610800Y-83476400D01*
X212410800Y-86016400D02*
X215610800Y-86016400D01*
X215610800Y-87516400D02*
X212410800Y-87516400D01*
X215610800Y-87516400D02*
X215610800Y-86016400D01*
X212410800Y-88556400D02*
X215610800Y-88556400D01*
X215610800Y-90056400D02*
X212410800Y-90056400D01*
X215610800Y-90056400D02*
X215610800Y-88556400D01*
X212410800Y-91096400D02*
X215610800Y-91096400D01*
X215610800Y-92596400D02*
X212410800Y-92596400D01*
X215610800Y-92596400D02*
X215610800Y-91096400D01*
X212410800Y-93636400D02*
X215610800Y-93636400D01*
X215610800Y-95136400D02*
X212410800Y-95136400D01*
X215610800Y-95136400D02*
X215610800Y-93636400D01*
X212410800Y-96176400D02*
X215610800Y-96176400D01*
X215610800Y-97676400D02*
X212410800Y-97676400D01*
X215610800Y-97676400D02*
X215610800Y-96176400D01*
X173075600Y-95411600D02*
X175675600Y-95411600D01*
X175675600Y-95411600D02*
X175675600Y-92751600D01*
X175675600Y-92751600D02*
X173075600Y-92751600D01*
X173075600Y-92751600D02*
X173075600Y-95411600D01*
X171805600Y-95411600D02*
X170475600Y-95411600D01*
X170475600Y-95411600D02*
X170475600Y-94081600D01*
X188214000Y-71230800D02*
X190814000Y-71230800D01*
X190814000Y-71230800D02*
X190814000Y-68570800D01*
X190814000Y-68570800D02*
X188214000Y-68570800D01*
X188214000Y-68570800D02*
X188214000Y-71230800D01*
X186944000Y-71230800D02*
X185614000Y-71230800D01*
X185614000Y-71230800D02*
X185614000Y-69900800D01*
X212979000Y-72831000D02*
X215579000Y-72831000D01*
X215579000Y-72831000D02*
X215579000Y-70171000D01*
X215579000Y-70171000D02*
X212979000Y-70171000D01*
X212979000Y-70171000D02*
X212979000Y-72831000D01*
X211709000Y-72831000D02*
X210379000Y-72831000D01*
X210379000Y-72831000D02*
X210379000Y-71501000D01*
X207407200Y-80365600D02*
X207407200Y-98205600D01*
X207407200Y-98205600D02*
X210067200Y-98205600D01*
X210067200Y-98205600D02*
X210067200Y-80365600D01*
X210067200Y-80365600D02*
X207407200Y-80365600D01*
X207407200Y-79095600D02*
X207407200Y-77765600D01*
X207407200Y-77765600D02*
X208737200Y-77765600D01*
X213029800Y-58251400D02*
X215629800Y-58251400D01*
X215629800Y-58251400D02*
X215629800Y-55591400D01*
X215629800Y-55591400D02*
X213029800Y-55591400D01*
X213029800Y-55591400D02*
X213029800Y-58251400D01*
X211759800Y-58251400D02*
X210429800Y-58251400D01*
X210429800Y-58251400D02*
X210429800Y-56921400D01*
X217567200Y-80365600D02*
X217567200Y-98205600D01*
X217567200Y-98205600D02*
X220227200Y-98205600D01*
X220227200Y-98205600D02*
X220227200Y-80365600D01*
X220227200Y-80365600D02*
X217567200Y-80365600D01*
X217567200Y-79095600D02*
X217567200Y-77765600D01*
X217567200Y-77765600D02*
X218897200Y-77765600D01*
X186769600Y-64943600D02*
X190369600Y-64943600D01*
X186245416Y-64216395D02*
G75*
G03X186769600Y-64943600I2324184J1122795D01*
G01*
X186213200Y-61994793D02*
G75*
G02X188569600Y-60493600I2356400J-1098807D01*
G01*
X190926000Y-61994793D02*
G75*
G03X188569600Y-60493600I-2356400J-1098807D01*
G01*
X190893784Y-64216395D02*
G75*
G02X190369600Y-64943600I-2324184J1122795D01*
G01*
X192440000Y-57571200D02*
X192440000Y-57901200D01*
X192440000Y-57901200D02*
X186020000Y-57901200D01*
X186020000Y-57901200D02*
X186020000Y-57571200D01*
X192440000Y-55611200D02*
X192440000Y-55281200D01*
X192440000Y-55281200D02*
X186020000Y-55281200D01*
X186020000Y-55281200D02*
X186020000Y-55611200D01*
X183022800Y-76744000D02*
X183022800Y-76414000D01*
X183022800Y-76414000D02*
X189442800Y-76414000D01*
X189442800Y-76414000D02*
X189442800Y-76744000D01*
X183022800Y-78704000D02*
X183022800Y-79034000D01*
X183022800Y-79034000D02*
X189442800Y-79034000D01*
X189442800Y-79034000D02*
X189442800Y-78704000D01*
X200415600Y-87187600D02*
X200415600Y-87517600D01*
X200415600Y-87517600D02*
X193995600Y-87517600D01*
X193995600Y-87517600D02*
X193995600Y-87187600D01*
X200415600Y-85227600D02*
X200415600Y-84897600D01*
X200415600Y-84897600D02*
X193995600Y-84897600D01*
X193995600Y-84897600D02*
X193995600Y-85227600D01*
X176844400Y-87187600D02*
X176844400Y-87517600D01*
X176844400Y-87517600D02*
X170424400Y-87517600D01*
X170424400Y-87517600D02*
X170424400Y-87187600D01*
X176844400Y-85227600D02*
X176844400Y-84897600D01*
X176844400Y-84897600D02*
X170424400Y-84897600D01*
X170424400Y-84897600D02*
X170424400Y-85227600D01*
X171344800Y-49366800D02*
G75*
G03X171344800Y-49366800I-900000J0D01*
G01*
X168817800Y-46156800D02*
X173654800Y-46156800D01*
X168817800Y-52576800D02*
X173654800Y-52576800D01*
X167234800Y-47624800D02*
X167234800Y-51109800D01*
X173654800Y-46156800D02*
X173654800Y-48609800D01*
X173654800Y-50124800D02*
X173654800Y-52576800D01*
X177580800Y-52540800D02*
X182080800Y-52540800D01*
X176330800Y-48540800D02*
X176330800Y-50040800D01*
X182080800Y-46040800D02*
X177580800Y-46040800D01*
X183330800Y-50040800D02*
X183330800Y-48540800D01*
D10*
X212267800Y-62407800D02*
X211505800Y-64439800D01*
X212881010Y-62153800D02*
G75*
G03X212881010Y-62153800I-359210J0D01*
G01*
X212881010Y-64693800D02*
G75*
G03X212881010Y-64693800I-359210J0D01*
G01*
D14*
X190490800Y-53146000D02*
X193150800Y-53146000D01*
X190490800Y-48006000D02*
X190490800Y-53146000D01*
X193150800Y-48006000D02*
X193150800Y-53146000D01*
X190490800Y-48006000D02*
X193150800Y-48006000D01*
X190490800Y-46736000D02*
X190490800Y-45406000D01*
X190490800Y-45406000D02*
X191820800Y-45406000D01*
X187131200Y-81575600D02*
G75*
G02X185131200Y-81575600I-1000000J0D01*
G01*
X185131200Y-81575600D02*
X183881200Y-81575600D01*
X183881200Y-81575600D02*
X183881200Y-91855600D01*
X183881200Y-91855600D02*
X188381200Y-91855600D01*
X188381200Y-91855600D02*
X188381200Y-81575600D01*
X188381200Y-81575600D02*
X187131200Y-81575600D01*
X180881200Y-81515600D02*
X180881200Y-91915600D01*
X180881200Y-91915600D02*
X191381200Y-91915600D01*
X191381200Y-91915600D02*
X191381200Y-81515600D01*
X191381200Y-81515600D02*
X180881200Y-81515600D01*
X200893200Y-94214000D02*
G75*
G03X200893200Y-94214000I-3840000J0D01*
G01*
X200853200Y-94214000D02*
X193253200Y-94214000D01*
X200853200Y-94254000D02*
X193253200Y-94254000D01*
X200853200Y-94294000D02*
X193253200Y-94294000D01*
X200852200Y-94334000D02*
X193254200Y-94334000D01*
X200850200Y-94374000D02*
X193256200Y-94374000D01*
X200848200Y-94414000D02*
X193258200Y-94414000D01*
X200846200Y-94454000D02*
X193260200Y-94454000D01*
X200843200Y-94494000D02*
X198033200Y-94494000D01*
X196073200Y-94494000D02*
X193263200Y-94494000D01*
X200840200Y-94534000D02*
X198033200Y-94534000D01*
X196073200Y-94534000D02*
X193266200Y-94534000D01*
X200837200Y-94574000D02*
X198033200Y-94574000D01*
X196073200Y-94574000D02*
X193269200Y-94574000D01*
X200833200Y-94614000D02*
X198033200Y-94614000D01*
X196073200Y-94614000D02*
X193273200Y-94614000D01*
X200828200Y-94654000D02*
X198033200Y-94654000D01*
X196073200Y-94654000D02*
X193278200Y-94654000D01*
X200823200Y-94694000D02*
X198033200Y-94694000D01*
X196073200Y-94694000D02*
X193283200Y-94694000D01*
X200818200Y-94734000D02*
X198033200Y-94734000D01*
X196073200Y-94734000D02*
X193288200Y-94734000D01*
X200812200Y-94774000D02*
X198033200Y-94774000D01*
X196073200Y-94774000D02*
X193294200Y-94774000D01*
X200806200Y-94814000D02*
X198033200Y-94814000D01*
X196073200Y-94814000D02*
X193300200Y-94814000D01*
X200800200Y-94854000D02*
X198033200Y-94854000D01*
X196073200Y-94854000D02*
X193306200Y-94854000D01*
X200793200Y-94894000D02*
X198033200Y-94894000D01*
X196073200Y-94894000D02*
X193313200Y-94894000D01*
X200785200Y-94935000D02*
X198033200Y-94935000D01*
X196073200Y-94935000D02*
X193321200Y-94935000D01*
X200778200Y-94975000D02*
X198033200Y-94975000D01*
X196073200Y-94975000D02*
X193328200Y-94975000D01*
X200769200Y-95015000D02*
X198033200Y-95015000D01*
X196073200Y-95015000D02*
X193337200Y-95015000D01*
X200760200Y-95055000D02*
X198033200Y-95055000D01*
X196073200Y-95055000D02*
X193346200Y-95055000D01*
X200751200Y-95095000D02*
X198033200Y-95095000D01*
X196073200Y-95095000D02*
X193355200Y-95095000D01*
X200742200Y-95135000D02*
X198033200Y-95135000D01*
X196073200Y-95135000D02*
X193364200Y-95135000D01*
X200732200Y-95175000D02*
X198033200Y-95175000D01*
X196073200Y-95175000D02*
X193374200Y-95175000D01*
X200721200Y-95215000D02*
X198033200Y-95215000D01*
X196073200Y-95215000D02*
X193385200Y-95215000D01*
X200710200Y-95255000D02*
X198033200Y-95255000D01*
X196073200Y-95255000D02*
X193396200Y-95255000D01*
X200698200Y-95295000D02*
X198033200Y-95295000D01*
X196073200Y-95295000D02*
X193408200Y-95295000D01*
X200687200Y-95335000D02*
X198033200Y-95335000D01*
X196073200Y-95335000D02*
X193419200Y-95335000D01*
X200674200Y-95375000D02*
X198033200Y-95375000D01*
X196073200Y-95375000D02*
X193432200Y-95375000D01*
X200661200Y-95415000D02*
X198033200Y-95415000D01*
X196073200Y-95415000D02*
X193445200Y-95415000D01*
X200648200Y-95455000D02*
X198033200Y-95455000D01*
X196073200Y-95455000D02*
X193458200Y-95455000D01*
X200634200Y-95495000D02*
X198033200Y-95495000D01*
X196073200Y-95495000D02*
X193472200Y-95495000D01*
X200619200Y-95535000D02*
X198033200Y-95535000D01*
X196073200Y-95535000D02*
X193487200Y-95535000D01*
X200605200Y-95575000D02*
X198033200Y-95575000D01*
X196073200Y-95575000D02*
X193501200Y-95575000D01*
X200589200Y-95615000D02*
X198033200Y-95615000D01*
X196073200Y-95615000D02*
X193517200Y-95615000D01*
X200573200Y-95655000D02*
X198033200Y-95655000D01*
X196073200Y-95655000D02*
X193533200Y-95655000D01*
X200557200Y-95695000D02*
X198033200Y-95695000D01*
X196073200Y-95695000D02*
X193549200Y-95695000D01*
X200540200Y-95735000D02*
X198033200Y-95735000D01*
X196073200Y-95735000D02*
X193566200Y-95735000D01*
X200522200Y-95775000D02*
X198033200Y-95775000D01*
X196073200Y-95775000D02*
X193584200Y-95775000D01*
X200504200Y-95815000D02*
X198033200Y-95815000D01*
X196073200Y-95815000D02*
X193602200Y-95815000D01*
X200486200Y-95855000D02*
X198033200Y-95855000D01*
X196073200Y-95855000D02*
X193620200Y-95855000D01*
X200466200Y-95895000D02*
X198033200Y-95895000D01*
X196073200Y-95895000D02*
X193640200Y-95895000D01*
X200447200Y-95935000D02*
X198033200Y-95935000D01*
X196073200Y-95935000D02*
X193659200Y-95935000D01*
X200426200Y-95975000D02*
X198033200Y-95975000D01*
X196073200Y-95975000D02*
X193680200Y-95975000D01*
X200405200Y-96015000D02*
X198033200Y-96015000D01*
X196073200Y-96015000D02*
X193701200Y-96015000D01*
X200384200Y-96055000D02*
X198033200Y-96055000D01*
X196073200Y-96055000D02*
X193722200Y-96055000D01*
X200362200Y-96095000D02*
X198033200Y-96095000D01*
X196073200Y-96095000D02*
X193744200Y-96095000D01*
X200339200Y-96135000D02*
X198033200Y-96135000D01*
X196073200Y-96135000D02*
X193767200Y-96135000D01*
X200316200Y-96175000D02*
X198033200Y-96175000D01*
X196073200Y-96175000D02*
X193790200Y-96175000D01*
X200292200Y-96215000D02*
X198033200Y-96215000D01*
X196073200Y-96215000D02*
X193814200Y-96215000D01*
X200267200Y-96255000D02*
X198033200Y-96255000D01*
X196073200Y-96255000D02*
X193839200Y-96255000D01*
X200241200Y-96295000D02*
X198033200Y-96295000D01*
X196073200Y-96295000D02*
X193865200Y-96295000D01*
X200215200Y-96335000D02*
X198033200Y-96335000D01*
X196073200Y-96335000D02*
X193891200Y-96335000D01*
X200188200Y-96375000D02*
X198033200Y-96375000D01*
X196073200Y-96375000D02*
X193918200Y-96375000D01*
X200161200Y-96415000D02*
X198033200Y-96415000D01*
X196073200Y-96415000D02*
X193945200Y-96415000D01*
X200132200Y-96455000D02*
X193974200Y-96455000D01*
X200103200Y-96495000D02*
X194003200Y-96495000D01*
X200073200Y-96535000D02*
X194033200Y-96535000D01*
X200043200Y-96575000D02*
X194063200Y-96575000D01*
X200011200Y-96615000D02*
X194095200Y-96615000D01*
X199979200Y-96655000D02*
X194127200Y-96655000D01*
X199945200Y-96695000D02*
X194161200Y-96695000D01*
X199911200Y-96735000D02*
X194195200Y-96735000D01*
X199876200Y-96775000D02*
X194230200Y-96775000D01*
X199839200Y-96815000D02*
X194267200Y-96815000D01*
X199802200Y-96855000D02*
X194304200Y-96855000D01*
X199764200Y-96895000D02*
X194342200Y-96895000D01*
X199724200Y-96935000D02*
X194382200Y-96935000D01*
X199683200Y-96975000D02*
X194423200Y-96975000D01*
X199641200Y-97015000D02*
X194465200Y-97015000D01*
X199598200Y-97055000D02*
X194508200Y-97055000D01*
X199553200Y-97095000D02*
X194553200Y-97095000D01*
X199507200Y-97135000D02*
X194599200Y-97135000D01*
X199460200Y-97175000D02*
X194646200Y-97175000D01*
X199410200Y-97215000D02*
X194696200Y-97215000D01*
X199360200Y-97255000D02*
X194746200Y-97255000D01*
X199307200Y-97295000D02*
X194799200Y-97295000D01*
X199252200Y-97335000D02*
X194854200Y-97335000D01*
X199195200Y-97375000D02*
X194911200Y-97375000D01*
X199136200Y-97415000D02*
X194970200Y-97415000D01*
X199075200Y-97455000D02*
X195031200Y-97455000D01*
X199010200Y-97495000D02*
X195096200Y-97495000D01*
X198943200Y-97535000D02*
X195163200Y-97535000D01*
X198873200Y-97575000D02*
X195233200Y-97575000D01*
X198798200Y-97615000D02*
X195308200Y-97615000D01*
X198720200Y-97655000D02*
X195386200Y-97655000D01*
X198637200Y-97695000D02*
X195469200Y-97695000D01*
X198548200Y-97735000D02*
X195558200Y-97735000D01*
X198453200Y-97775000D02*
X195653200Y-97775000D01*
X198350200Y-97815000D02*
X195756200Y-97815000D01*
X198237200Y-97855000D02*
X195869200Y-97855000D01*
X198110200Y-97895000D02*
X195996200Y-97895000D01*
X197966200Y-97935000D02*
X196140200Y-97935000D01*
X197793200Y-97975000D02*
X196313200Y-97975000D01*
X197566200Y-98015000D02*
X196540200Y-98015000D01*
X197053200Y-90764000D02*
X197053200Y-91964000D01*
X197703200Y-91364000D02*
X196403200Y-91364000D01*
X220326400Y-80155600D02*
X222446400Y-80155600D01*
X220326400Y-80095600D02*
X220326400Y-80155600D01*
X222446400Y-80095600D02*
X222446400Y-80155600D01*
X220326400Y-80095600D02*
X222446400Y-80095600D01*
X220326400Y-79095600D02*
X220326400Y-78035600D01*
X220326400Y-78035600D02*
X221386400Y-78035600D01*
D13*
X198274133Y-53385981D02*
X198274133Y-52385981D01*
X198655086Y-52385981D01*
X198750324Y-52433600D01*
X198797943Y-52481219D01*
X198845562Y-52576457D01*
X198845562Y-52719314D01*
X198797943Y-52814552D01*
X198750324Y-52862171D01*
X198655086Y-52909790D01*
X198274133Y-52909790D01*
X199464609Y-52385981D02*
X199655086Y-52385981D01*
X199750324Y-52433600D01*
X199845562Y-52528838D01*
X199893181Y-52719314D01*
X199893181Y-53052648D01*
X199845562Y-53243124D01*
X199750324Y-53338362D01*
X199655086Y-53385981D01*
X199464609Y-53385981D01*
X199369371Y-53338362D01*
X199274133Y-53243124D01*
X199226514Y-53052648D01*
X199226514Y-52719314D01*
X199274133Y-52528838D01*
X199369371Y-52433600D01*
X199464609Y-52385981D01*
X200178895Y-52385981D02*
X200750324Y-52385981D01*
X200464609Y-53385981D02*
X200464609Y-52385981D01*
X220103867Y-81297981D02*
X219770533Y-80821790D01*
X219532438Y-81297981D02*
X219532438Y-80297981D01*
X219913391Y-80297981D01*
X220008629Y-80345600D01*
X220056248Y-80393219D01*
X220103867Y-80488457D01*
X220103867Y-80631314D01*
X220056248Y-80726552D01*
X220008629Y-80774171D01*
X219913391Y-80821790D01*
X219532438Y-80821790D01*
X220532438Y-80774171D02*
X220865772Y-80774171D01*
X221008629Y-81297981D02*
X220532438Y-81297981D01*
X220532438Y-80297981D01*
X221008629Y-80297981D01*
X221770534Y-80774171D02*
X221437200Y-80774171D01*
X221437200Y-81297981D02*
X221437200Y-80297981D01*
X221913391Y-80297981D01*
X222437200Y-80297981D02*
X222437200Y-80536076D01*
X222199105Y-80440838D02*
X222437200Y-80536076D01*
X222675296Y-80440838D01*
X222294343Y-80726552D02*
X222437200Y-80536076D01*
X222580058Y-80726552D01*
X223199105Y-80297981D02*
X223199105Y-80536076D01*
X222961010Y-80440838D02*
X223199105Y-80536076D01*
X223437201Y-80440838D01*
X223056248Y-80726552D02*
X223199105Y-80536076D01*
X223341963Y-80726552D01*
X186409924Y-98115543D02*
X186362305Y-98163162D01*
X186219448Y-98210781D01*
X186124210Y-98210781D01*
X185981352Y-98163162D01*
X185886114Y-98067924D01*
X185838495Y-97972686D01*
X185790876Y-97782210D01*
X185790876Y-97639352D01*
X185838495Y-97448876D01*
X185886114Y-97353638D01*
X185981352Y-97258400D01*
X186124210Y-97210781D01*
X186219448Y-97210781D01*
X186362305Y-97258400D01*
X186409924Y-97306019D01*
X196511943Y-77312781D02*
X196035752Y-77312781D01*
X196035752Y-76312781D01*
X196845276Y-76788971D02*
X197178610Y-76788971D01*
X197321467Y-77312781D02*
X196845276Y-77312781D01*
X196845276Y-76312781D01*
X197321467Y-76312781D01*
X197750038Y-77312781D02*
X197750038Y-76312781D01*
X197988133Y-76312781D01*
X198130991Y-76360400D01*
X198226229Y-76455638D01*
X198273848Y-76550876D01*
X198321467Y-76741352D01*
X198321467Y-76884210D01*
X198273848Y-77074686D01*
X198226229Y-77169924D01*
X198130991Y-77265162D01*
X197988133Y-77312781D01*
X197750038Y-77312781D01*
X172839143Y-77109581D02*
X172362952Y-77109581D01*
X172362952Y-76109581D01*
X173172476Y-76585771D02*
X173505810Y-76585771D01*
X173648667Y-77109581D02*
X173172476Y-77109581D01*
X173172476Y-76109581D01*
X173648667Y-76109581D01*
X174077238Y-77109581D02*
X174077238Y-76109581D01*
X174315333Y-76109581D01*
X174458191Y-76157200D01*
X174553429Y-76252438D01*
X174601048Y-76347676D01*
X174648667Y-76538152D01*
X174648667Y-76681010D01*
X174601048Y-76871486D01*
X174553429Y-76966724D01*
X174458191Y-77061962D01*
X174315333Y-77109581D01*
X174077238Y-77109581D01*
X212672705Y-81298781D02*
X212672705Y-80298781D01*
X212910800Y-80298781D01*
X213053658Y-80346400D01*
X213148896Y-80441638D01*
X213196515Y-80536876D01*
X213244134Y-80727352D01*
X213244134Y-80870210D01*
X213196515Y-81060686D01*
X213148896Y-81155924D01*
X213053658Y-81251162D01*
X212910800Y-81298781D01*
X212672705Y-81298781D01*
X213577467Y-80298781D02*
X214196515Y-80298781D01*
X213863181Y-80679733D01*
X214006039Y-80679733D01*
X214101277Y-80727352D01*
X214148896Y-80774971D01*
X214196515Y-80870210D01*
X214196515Y-81108305D01*
X214148896Y-81203543D01*
X214101277Y-81251162D01*
X214006039Y-81298781D01*
X213720324Y-81298781D01*
X213625086Y-81251162D01*
X213577467Y-81203543D01*
X212672705Y-83838781D02*
X212672705Y-82838781D01*
X212910800Y-82838781D01*
X213053658Y-82886400D01*
X213148896Y-82981638D01*
X213196515Y-83076876D01*
X213244134Y-83267352D01*
X213244134Y-83410210D01*
X213196515Y-83600686D01*
X213148896Y-83695924D01*
X213053658Y-83791162D01*
X212910800Y-83838781D01*
X212672705Y-83838781D01*
X214101277Y-83172114D02*
X214101277Y-83838781D01*
X213863181Y-82791162D02*
X213625086Y-83505448D01*
X214244134Y-83505448D01*
X212672705Y-86378781D02*
X212672705Y-85378781D01*
X212910800Y-85378781D01*
X213053658Y-85426400D01*
X213148896Y-85521638D01*
X213196515Y-85616876D01*
X213244134Y-85807352D01*
X213244134Y-85950210D01*
X213196515Y-86140686D01*
X213148896Y-86235924D01*
X213053658Y-86331162D01*
X212910800Y-86378781D01*
X212672705Y-86378781D01*
X214148896Y-85378781D02*
X213672705Y-85378781D01*
X213625086Y-85854971D01*
X213672705Y-85807352D01*
X213767943Y-85759733D01*
X214006039Y-85759733D01*
X214101277Y-85807352D01*
X214148896Y-85854971D01*
X214196515Y-85950210D01*
X214196515Y-86188305D01*
X214148896Y-86283543D01*
X214101277Y-86331162D01*
X214006039Y-86378781D01*
X213767943Y-86378781D01*
X213672705Y-86331162D01*
X213625086Y-86283543D01*
X212672705Y-88918781D02*
X212672705Y-87918781D01*
X212910800Y-87918781D01*
X213053658Y-87966400D01*
X213148896Y-88061638D01*
X213196515Y-88156876D01*
X213244134Y-88347352D01*
X213244134Y-88490210D01*
X213196515Y-88680686D01*
X213148896Y-88775924D01*
X213053658Y-88871162D01*
X212910800Y-88918781D01*
X212672705Y-88918781D01*
X214101277Y-87918781D02*
X213910800Y-87918781D01*
X213815562Y-87966400D01*
X213767943Y-88014019D01*
X213672705Y-88156876D01*
X213625086Y-88347352D01*
X213625086Y-88728305D01*
X213672705Y-88823543D01*
X213720324Y-88871162D01*
X213815562Y-88918781D01*
X214006039Y-88918781D01*
X214101277Y-88871162D01*
X214148896Y-88823543D01*
X214196515Y-88728305D01*
X214196515Y-88490210D01*
X214148896Y-88394971D01*
X214101277Y-88347352D01*
X214006039Y-88299733D01*
X213815562Y-88299733D01*
X213720324Y-88347352D01*
X213672705Y-88394971D01*
X213625086Y-88490210D01*
X212672705Y-91458781D02*
X212672705Y-90458781D01*
X212910800Y-90458781D01*
X213053658Y-90506400D01*
X213148896Y-90601638D01*
X213196515Y-90696876D01*
X213244134Y-90887352D01*
X213244134Y-91030210D01*
X213196515Y-91220686D01*
X213148896Y-91315924D01*
X213053658Y-91411162D01*
X212910800Y-91458781D01*
X212672705Y-91458781D01*
X213577467Y-90458781D02*
X214244134Y-90458781D01*
X213815562Y-91458781D01*
X212672705Y-93998781D02*
X212672705Y-92998781D01*
X212910800Y-92998781D01*
X213053658Y-93046400D01*
X213148896Y-93141638D01*
X213196515Y-93236876D01*
X213244134Y-93427352D01*
X213244134Y-93570210D01*
X213196515Y-93760686D01*
X213148896Y-93855924D01*
X213053658Y-93951162D01*
X212910800Y-93998781D01*
X212672705Y-93998781D01*
X213815562Y-93427352D02*
X213720324Y-93379733D01*
X213672705Y-93332114D01*
X213625086Y-93236876D01*
X213625086Y-93189257D01*
X213672705Y-93094019D01*
X213720324Y-93046400D01*
X213815562Y-92998781D01*
X214006039Y-92998781D01*
X214101277Y-93046400D01*
X214148896Y-93094019D01*
X214196515Y-93189257D01*
X214196515Y-93236876D01*
X214148896Y-93332114D01*
X214101277Y-93379733D01*
X214006039Y-93427352D01*
X213815562Y-93427352D01*
X213720324Y-93474971D01*
X213672705Y-93522590D01*
X213625086Y-93617829D01*
X213625086Y-93808305D01*
X213672705Y-93903543D01*
X213720324Y-93951162D01*
X213815562Y-93998781D01*
X214006039Y-93998781D01*
X214101277Y-93951162D01*
X214148896Y-93903543D01*
X214196515Y-93808305D01*
X214196515Y-93617829D01*
X214148896Y-93522590D01*
X214101277Y-93474971D01*
X214006039Y-93427352D01*
X212672705Y-96538781D02*
X212672705Y-95538781D01*
X212910800Y-95538781D01*
X213053658Y-95586400D01*
X213148896Y-95681638D01*
X213196515Y-95776876D01*
X213244134Y-95967352D01*
X213244134Y-96110210D01*
X213196515Y-96300686D01*
X213148896Y-96395924D01*
X213053658Y-96491162D01*
X212910800Y-96538781D01*
X212672705Y-96538781D01*
X213720324Y-96538781D02*
X213910800Y-96538781D01*
X214006039Y-96491162D01*
X214053658Y-96443543D01*
X214148896Y-96300686D01*
X214196515Y-96110210D01*
X214196515Y-95729257D01*
X214148896Y-95634019D01*
X214101277Y-95586400D01*
X214006039Y-95538781D01*
X213815562Y-95538781D01*
X213720324Y-95586400D01*
X213672705Y-95634019D01*
X213625086Y-95729257D01*
X213625086Y-95967352D01*
X213672705Y-96062590D01*
X213720324Y-96110210D01*
X213815562Y-96157829D01*
X214006039Y-96157829D01*
X214101277Y-96110210D01*
X214148896Y-96062590D01*
X214196515Y-95967352D01*
X212196514Y-99078781D02*
X212196514Y-98078781D01*
X212434609Y-98078781D01*
X212577467Y-98126400D01*
X212672705Y-98221638D01*
X212720324Y-98316876D01*
X212767943Y-98507352D01*
X212767943Y-98650210D01*
X212720324Y-98840686D01*
X212672705Y-98935924D01*
X212577467Y-99031162D01*
X212434609Y-99078781D01*
X212196514Y-99078781D01*
X213720324Y-99078781D02*
X213148895Y-99078781D01*
X213434609Y-99078781D02*
X213434609Y-98078781D01*
X213339371Y-98221638D01*
X213244133Y-98316876D01*
X213148895Y-98364495D01*
X214339371Y-98078781D02*
X214434610Y-98078781D01*
X214529848Y-98126400D01*
X214577467Y-98174019D01*
X214625086Y-98269257D01*
X214672705Y-98459733D01*
X214672705Y-98697829D01*
X214625086Y-98888305D01*
X214577467Y-98983543D01*
X214529848Y-99031162D01*
X214434610Y-99078781D01*
X214339371Y-99078781D01*
X214244133Y-99031162D01*
X214196514Y-98983543D01*
X214148895Y-98888305D01*
X214101276Y-98697829D01*
X214101276Y-98459733D01*
X214148895Y-98269257D01*
X214196514Y-98174019D01*
X214244133Y-98126400D01*
X214339371Y-98078781D01*
X171161295Y-91917829D02*
X171923200Y-91917829D01*
X173923200Y-91917829D02*
X174685105Y-91917829D01*
X174304153Y-92298781D02*
X174304153Y-91536876D01*
X185850495Y-67813181D02*
X185850495Y-66813181D01*
X186183829Y-67527467D01*
X186517162Y-66813181D01*
X186517162Y-67813181D01*
X187183828Y-66813181D02*
X187374305Y-66813181D01*
X187469543Y-66860800D01*
X187564781Y-66956038D01*
X187612400Y-67146514D01*
X187612400Y-67479848D01*
X187564781Y-67670324D01*
X187469543Y-67765562D01*
X187374305Y-67813181D01*
X187183828Y-67813181D01*
X187088590Y-67765562D01*
X186993352Y-67670324D01*
X186945733Y-67479848D01*
X186945733Y-67146514D01*
X186993352Y-66956038D01*
X187088590Y-66860800D01*
X187183828Y-66813181D01*
X187898114Y-66813181D02*
X188469543Y-66813181D01*
X188183828Y-67813181D02*
X188183828Y-66813181D01*
X188993352Y-66813181D02*
X189183829Y-66813181D01*
X189279067Y-66860800D01*
X189374305Y-66956038D01*
X189421924Y-67146514D01*
X189421924Y-67479848D01*
X189374305Y-67670324D01*
X189279067Y-67765562D01*
X189183829Y-67813181D01*
X188993352Y-67813181D01*
X188898114Y-67765562D01*
X188802876Y-67670324D01*
X188755257Y-67479848D01*
X188755257Y-67146514D01*
X188802876Y-66956038D01*
X188898114Y-66860800D01*
X188993352Y-66813181D01*
X190421924Y-67813181D02*
X190088590Y-67336990D01*
X189850495Y-67813181D02*
X189850495Y-66813181D01*
X190231448Y-66813181D01*
X190326686Y-66860800D01*
X190374305Y-66908419D01*
X190421924Y-67003657D01*
X190421924Y-67146514D01*
X190374305Y-67241752D01*
X190326686Y-67289371D01*
X190231448Y-67336990D01*
X189850495Y-67336990D01*
X208831381Y-71834333D02*
X209545667Y-71834333D01*
X209688524Y-71881953D01*
X209783762Y-71977191D01*
X209831381Y-72120048D01*
X209831381Y-72215286D01*
X208831381Y-71453381D02*
X208831381Y-70834333D01*
X209212333Y-71167667D01*
X209212333Y-71024809D01*
X209259952Y-70929571D01*
X209307571Y-70881952D01*
X209402810Y-70834333D01*
X209640905Y-70834333D01*
X209736143Y-70881952D01*
X209783762Y-70929571D01*
X209831381Y-71024809D01*
X209831381Y-71310524D01*
X209783762Y-71405762D01*
X209736143Y-71453381D01*
X208403867Y-76217981D02*
X208403867Y-76932267D01*
X208356247Y-77075124D01*
X208261009Y-77170362D01*
X208118152Y-77217981D01*
X208022914Y-77217981D01*
X209308629Y-76551314D02*
X209308629Y-77217981D01*
X209070533Y-76170362D02*
X208832438Y-76884648D01*
X209451486Y-76884648D01*
X208882181Y-57254733D02*
X209596467Y-57254733D01*
X209739324Y-57302353D01*
X209834562Y-57397591D01*
X209882181Y-57540448D01*
X209882181Y-57635686D01*
X208882181Y-56302352D02*
X208882181Y-56778543D01*
X209358371Y-56826162D01*
X209310752Y-56778543D01*
X209263133Y-56683305D01*
X209263133Y-56445209D01*
X209310752Y-56349971D01*
X209358371Y-56302352D01*
X209453610Y-56254733D01*
X209691705Y-56254733D01*
X209786943Y-56302352D01*
X209834562Y-56349971D01*
X209882181Y-56445209D01*
X209882181Y-56683305D01*
X209834562Y-56778543D01*
X209786943Y-56826162D01*
X218563867Y-76217981D02*
X218563867Y-76932267D01*
X218516247Y-77075124D01*
X218421009Y-77170362D01*
X218278152Y-77217981D01*
X218182914Y-77217981D01*
X219468629Y-76217981D02*
X219278152Y-76217981D01*
X219182914Y-76265600D01*
X219135295Y-76313219D01*
X219040057Y-76456076D01*
X218992438Y-76646552D01*
X218992438Y-77027505D01*
X219040057Y-77122743D01*
X219087676Y-77170362D01*
X219182914Y-77217981D01*
X219373391Y-77217981D01*
X219468629Y-77170362D01*
X219516248Y-77122743D01*
X219563867Y-77027505D01*
X219563867Y-76789410D01*
X219516248Y-76694171D01*
X219468629Y-76646552D01*
X219373391Y-76598933D01*
X219182914Y-76598933D01*
X219087676Y-76646552D01*
X219040057Y-76694171D01*
X218992438Y-76789410D01*
X183551581Y-65139581D02*
X183551581Y-64568152D01*
X184551581Y-64853867D02*
X183551581Y-64853867D01*
X184551581Y-63663390D02*
X184075390Y-63996724D01*
X184551581Y-64234819D02*
X183551581Y-64234819D01*
X183551581Y-63853866D01*
X183599200Y-63758628D01*
X183646819Y-63711009D01*
X183742057Y-63663390D01*
X183884914Y-63663390D01*
X183980152Y-63711009D01*
X184027771Y-63758628D01*
X184075390Y-63853866D01*
X184075390Y-64234819D01*
X184265867Y-63282438D02*
X184265867Y-62806247D01*
X184551581Y-63377676D02*
X183551581Y-63044343D01*
X184551581Y-62711009D01*
X184551581Y-62377676D02*
X183551581Y-62377676D01*
X184551581Y-61806247D01*
X183551581Y-61806247D01*
X184503962Y-61377676D02*
X184551581Y-61234819D01*
X184551581Y-60996723D01*
X184503962Y-60901485D01*
X184456343Y-60853866D01*
X184361105Y-60806247D01*
X184265867Y-60806247D01*
X184170629Y-60853866D01*
X184123010Y-60901485D01*
X184075390Y-60996723D01*
X184027771Y-61187200D01*
X183980152Y-61282438D01*
X183932533Y-61330057D01*
X183837295Y-61377676D01*
X183742057Y-61377676D01*
X183646819Y-61330057D01*
X183599200Y-61282438D01*
X183551581Y-61187200D01*
X183551581Y-60949104D01*
X183599200Y-60806247D01*
X184456343Y-60377676D02*
X184503962Y-60330057D01*
X184551581Y-60377676D01*
X184503962Y-60425295D01*
X184456343Y-60377676D01*
X184551581Y-60377676D01*
X189110953Y-57094381D02*
X188539524Y-57094381D01*
X188825238Y-57094381D02*
X188825238Y-56094381D01*
X188730000Y-56237238D01*
X188634762Y-56332476D01*
X188539524Y-56380095D01*
X189539524Y-57094381D02*
X189539524Y-56094381D01*
X189634762Y-56713429D02*
X189920477Y-57094381D01*
X189920477Y-56427714D02*
X189539524Y-56808667D01*
X185212172Y-78074781D02*
X184640743Y-78074781D01*
X184926457Y-78074781D02*
X184926457Y-77074781D01*
X184831219Y-77217638D01*
X184735981Y-77312876D01*
X184640743Y-77360495D01*
X185831219Y-77074781D02*
X185926458Y-77074781D01*
X186021696Y-77122400D01*
X186069315Y-77170019D01*
X186116934Y-77265257D01*
X186164553Y-77455733D01*
X186164553Y-77693829D01*
X186116934Y-77884305D01*
X186069315Y-77979543D01*
X186021696Y-78027162D01*
X185926458Y-78074781D01*
X185831219Y-78074781D01*
X185735981Y-78027162D01*
X185688362Y-77979543D01*
X185640743Y-77884305D01*
X185593124Y-77693829D01*
X185593124Y-77455733D01*
X185640743Y-77265257D01*
X185688362Y-77170019D01*
X185735981Y-77122400D01*
X185831219Y-77074781D01*
X186783600Y-77074781D02*
X186878839Y-77074781D01*
X186974077Y-77122400D01*
X187021696Y-77170019D01*
X187069315Y-77265257D01*
X187116934Y-77455733D01*
X187116934Y-77693829D01*
X187069315Y-77884305D01*
X187021696Y-77979543D01*
X186974077Y-78027162D01*
X186878839Y-78074781D01*
X186783600Y-78074781D01*
X186688362Y-78027162D01*
X186640743Y-77979543D01*
X186593124Y-77884305D01*
X186545505Y-77693829D01*
X186545505Y-77455733D01*
X186593124Y-77265257D01*
X186640743Y-77170019D01*
X186688362Y-77122400D01*
X186783600Y-77074781D01*
X187545505Y-78074781D02*
X187545505Y-77074781D01*
X187640743Y-77693829D02*
X187926458Y-78074781D01*
X187926458Y-77408114D02*
X187545505Y-77789067D01*
X195929429Y-86761581D02*
X195596095Y-86285390D01*
X195358000Y-86761581D02*
X195358000Y-85761581D01*
X195738953Y-85761581D01*
X195834191Y-85809200D01*
X195881810Y-85856819D01*
X195929429Y-85952057D01*
X195929429Y-86094914D01*
X195881810Y-86190152D01*
X195834191Y-86237771D01*
X195738953Y-86285390D01*
X195358000Y-86285390D01*
X197596096Y-86761581D02*
X197119905Y-86761581D01*
X197119905Y-85761581D01*
X197929429Y-86237771D02*
X198262763Y-86237771D01*
X198405620Y-86761581D02*
X197929429Y-86761581D01*
X197929429Y-85761581D01*
X198405620Y-85761581D01*
X198834191Y-86761581D02*
X198834191Y-85761581D01*
X199072286Y-85761581D01*
X199215144Y-85809200D01*
X199310382Y-85904438D01*
X199358001Y-85999676D01*
X199405620Y-86190152D01*
X199405620Y-86333010D01*
X199358001Y-86523486D01*
X199310382Y-86618724D01*
X199215144Y-86713962D01*
X199072286Y-86761581D01*
X198834191Y-86761581D01*
X172307429Y-86710781D02*
X171974095Y-86234590D01*
X171736000Y-86710781D02*
X171736000Y-85710781D01*
X172116953Y-85710781D01*
X172212191Y-85758400D01*
X172259810Y-85806019D01*
X172307429Y-85901257D01*
X172307429Y-86044114D01*
X172259810Y-86139352D01*
X172212191Y-86186971D01*
X172116953Y-86234590D01*
X171736000Y-86234590D01*
X173974096Y-86710781D02*
X173497905Y-86710781D01*
X173497905Y-85710781D01*
X174307429Y-86186971D02*
X174640763Y-86186971D01*
X174783620Y-86710781D02*
X174307429Y-86710781D01*
X174307429Y-85710781D01*
X174783620Y-85710781D01*
X175212191Y-86710781D02*
X175212191Y-85710781D01*
X175450286Y-85710781D01*
X175593144Y-85758400D01*
X175688382Y-85853638D01*
X175736001Y-85948876D01*
X175783620Y-86139352D01*
X175783620Y-86282210D01*
X175736001Y-86472686D01*
X175688382Y-86567924D01*
X175593144Y-86663162D01*
X175450286Y-86710781D01*
X175212191Y-86710781D01*
X178397067Y-49731562D02*
X178539924Y-49779181D01*
X178778020Y-49779181D01*
X178873258Y-49731562D01*
X178920877Y-49683943D01*
X178968496Y-49588705D01*
X178968496Y-49493467D01*
X178920877Y-49398229D01*
X178873258Y-49350610D01*
X178778020Y-49302990D01*
X178587543Y-49255371D01*
X178492305Y-49207752D01*
X178444686Y-49160133D01*
X178397067Y-49064895D01*
X178397067Y-48969657D01*
X178444686Y-48874419D01*
X178492305Y-48826800D01*
X178587543Y-48779181D01*
X178825639Y-48779181D01*
X178968496Y-48826800D01*
X179301829Y-48779181D02*
X179539924Y-49779181D01*
X179730401Y-49064895D01*
X179920877Y-49779181D01*
X180158972Y-48779181D01*
X181063734Y-49779181D02*
X180492305Y-49779181D01*
X180778019Y-49779181D02*
X180778019Y-48779181D01*
X180682781Y-48922038D01*
X180587543Y-49017276D01*
X180492305Y-49064895D01*
X190249371Y-44810762D02*
X190392228Y-44858381D01*
X190630324Y-44858381D01*
X190725562Y-44810762D01*
X190773181Y-44763143D01*
X190820800Y-44667905D01*
X190820800Y-44572667D01*
X190773181Y-44477429D01*
X190725562Y-44429810D01*
X190630324Y-44382190D01*
X190439847Y-44334571D01*
X190344609Y-44286952D01*
X190296990Y-44239333D01*
X190249371Y-44144095D01*
X190249371Y-44048857D01*
X190296990Y-43953619D01*
X190344609Y-43906000D01*
X190439847Y-43858381D01*
X190677943Y-43858381D01*
X190820800Y-43906000D01*
X191106514Y-44191714D02*
X191487466Y-44191714D01*
X191249371Y-43858381D02*
X191249371Y-44715524D01*
X191296990Y-44810762D01*
X191392228Y-44858381D01*
X191487466Y-44858381D01*
X191820800Y-44858381D02*
X191820800Y-44191714D01*
X191820800Y-44382190D02*
X191868419Y-44286952D01*
X191916038Y-44239333D01*
X192011276Y-44191714D01*
X192106515Y-44191714D01*
X192439848Y-44858381D02*
X192439848Y-44191714D01*
X192439848Y-43858381D02*
X192392229Y-43906000D01*
X192439848Y-43953619D01*
X192487467Y-43906000D01*
X192439848Y-43858381D01*
X192439848Y-43953619D01*
X192916038Y-44191714D02*
X192916038Y-45191714D01*
X192916038Y-44239333D02*
X193011276Y-44191714D01*
X193201753Y-44191714D01*
X193296991Y-44239333D01*
X193344610Y-44286952D01*
X193392229Y-44382190D01*
X193392229Y-44667905D01*
X193344610Y-44763143D01*
X193296991Y-44810762D01*
X193201753Y-44858381D01*
X193011276Y-44858381D01*
X192916038Y-44810762D01*
X185685181Y-87277485D02*
X185685181Y-87753676D01*
X186161371Y-87801295D01*
X186113752Y-87753676D01*
X186066133Y-87658438D01*
X186066133Y-87420342D01*
X186113752Y-87325104D01*
X186161371Y-87277485D01*
X186256610Y-87229866D01*
X186494705Y-87229866D01*
X186589943Y-87277485D01*
X186637562Y-87325104D01*
X186685181Y-87420342D01*
X186685181Y-87658438D01*
X186637562Y-87753676D01*
X186589943Y-87801295D01*
X185685181Y-86325104D02*
X185685181Y-86801295D01*
X186161371Y-86848914D01*
X186113752Y-86801295D01*
X186066133Y-86706057D01*
X186066133Y-86467961D01*
X186113752Y-86372723D01*
X186161371Y-86325104D01*
X186256610Y-86277485D01*
X186494705Y-86277485D01*
X186589943Y-86325104D01*
X186637562Y-86372723D01*
X186685181Y-86467961D01*
X186685181Y-86706057D01*
X186637562Y-86801295D01*
X186589943Y-86848914D01*
X185685181Y-85372723D02*
X185685181Y-85848914D01*
X186161371Y-85896533D01*
X186113752Y-85848914D01*
X186066133Y-85753676D01*
X186066133Y-85515580D01*
X186113752Y-85420342D01*
X186161371Y-85372723D01*
X186256610Y-85325104D01*
X186494705Y-85325104D01*
X186589943Y-85372723D01*
X186637562Y-85420342D01*
X186685181Y-85515580D01*
X186685181Y-85753676D01*
X186637562Y-85848914D01*
X186589943Y-85896533D01*
X195981772Y-89403181D02*
X195410343Y-89403181D01*
X195696057Y-89403181D02*
X195696057Y-88403181D01*
X195600819Y-88546038D01*
X195505581Y-88641276D01*
X195410343Y-88688895D01*
X196600819Y-88403181D02*
X196696058Y-88403181D01*
X196791296Y-88450800D01*
X196838915Y-88498419D01*
X196886534Y-88593657D01*
X196934153Y-88784133D01*
X196934153Y-89022229D01*
X196886534Y-89212705D01*
X196838915Y-89307943D01*
X196791296Y-89355562D01*
X196696058Y-89403181D01*
X196600819Y-89403181D01*
X196505581Y-89355562D01*
X196457962Y-89307943D01*
X196410343Y-89212705D01*
X196362724Y-89022229D01*
X196362724Y-88784133D01*
X196410343Y-88593657D01*
X196457962Y-88498419D01*
X196505581Y-88450800D01*
X196600819Y-88403181D01*
X197791296Y-88736514D02*
X197791296Y-89403181D01*
X197362724Y-88736514D02*
X197362724Y-89260324D01*
X197410343Y-89355562D01*
X197505581Y-89403181D01*
X197648439Y-89403181D01*
X197743677Y-89355562D01*
X197791296Y-89307943D01*
X198600820Y-88879371D02*
X198267486Y-88879371D01*
X198267486Y-89403181D02*
X198267486Y-88403181D01*
X198743677Y-88403181D01*
X220053067Y-77487981D02*
X219719733Y-77011790D01*
X219481638Y-77487981D02*
X219481638Y-76487981D01*
X219862591Y-76487981D01*
X219957829Y-76535600D01*
X220005448Y-76583219D01*
X220053067Y-76678457D01*
X220053067Y-76821314D01*
X220005448Y-76916552D01*
X219957829Y-76964171D01*
X219862591Y-77011790D01*
X219481638Y-77011790D01*
X220481638Y-76964171D02*
X220814972Y-76964171D01*
X220957829Y-77487981D02*
X220481638Y-77487981D01*
X220481638Y-76487981D01*
X220957829Y-76487981D01*
X221719734Y-76964171D02*
X221386400Y-76964171D01*
X221386400Y-77487981D02*
X221386400Y-76487981D01*
X221862591Y-76487981D01*
X222386400Y-76487981D02*
X222386400Y-76726076D01*
X222148305Y-76630838D02*
X222386400Y-76726076D01*
X222624496Y-76630838D01*
X222243543Y-76916552D02*
X222386400Y-76726076D01*
X222529258Y-76916552D01*
X223148305Y-76487981D02*
X223148305Y-76726076D01*
X222910210Y-76630838D02*
X223148305Y-76726076D01*
X223386401Y-76630838D01*
X223005448Y-76916552D02*
X223148305Y-76726076D01*
X223291163Y-76916552D01*
M02*
