M48
INCH,TZ
T1C0.016
T2C0.030
T3C0.031
T4C0.035
T5C0.039
T6C0.040
T7C0.043
T8C0.051
%
G90
G05
T1
X68400Y-20480
X70280Y-22960
X73320Y-34220
X83800Y-31700
X83800Y-35720
X83800Y-36700
X83820Y-30660
X83820Y-33700
X83820Y-34700
X83840Y-32700
X83840Y-37700
T2
X66611Y-27849
X67611Y-27849
X68611Y-27849
X71611Y-21849
X71611Y-22849
X71611Y-23849
X71611Y-24849
X71611Y-25849
X71611Y-26849
T3
X66860Y-33940
X69860Y-33940
X71780Y-32640
X71780Y-33640
X71780Y-34640
X71780Y-35640
X71820Y-30600
X72776Y-37460
X73000Y-22280
X73240Y-24840
X73760Y-37460
X74240Y-23840
X74780Y-32640
X74780Y-33640
X74780Y-34640
X74780Y-35640
X74820Y-30600
X75240Y-24840
X76000Y-22280
X76140Y-33940
X77580Y-36600
X77580Y-37584
X79140Y-33940
X87160Y-31140
X87180Y-32640
T4
X66120Y-18451
X66120Y-20420
X67760Y-31800
X68089Y-19436
X68760Y-31800
X77080Y-31800
X78080Y-31800
T5
X67640Y-37040
X68640Y-37040
X73600Y-27520
X74600Y-27520
X75520Y-18400
X75520Y-19400
X75520Y-20400
X82180Y-31140
X82180Y-32140
X82180Y-33140
X82180Y-34140
X82180Y-35140
X82180Y-36140
X82180Y-37140
X82180Y-38140
X83350Y-28150
X83370Y-22410
X84350Y-28150
X84370Y-22410
X86180Y-31140
X86180Y-32140
X86180Y-33140
X86180Y-34140
X86180Y-35140
X86180Y-36140
X86180Y-37140
X86180Y-38140
T6
X84370Y-24470
X84370Y-25470
X84370Y-26470
T7
X69520Y-18520
X69520Y-20292
X72079Y-18520
X72079Y-20292
T8
X79660Y-22723
X79660Y-24691
X79660Y-26660
T0
M30
