G04 #@! TF.FileFunction,Legend,Bot*
%FSLAX46Y46*%
G04 Gerber Fmt 4.6, Leading zero omitted, Abs format (unit mm)*
G04 Created by KiCad (PCBNEW 4.0.7) date 12/08/18 06:13:13*
%MOMM*%
%LPD*%
G01*
G04 APERTURE LIST*
%ADD10C,0.100000*%
%ADD11C,0.120000*%
%ADD12C,0.150000*%
G04 APERTURE END LIST*
D10*
D11*
X213020200Y-78190200D02*
X211820200Y-78190200D01*
X211820200Y-79950200D02*
X213020200Y-79950200D01*
X213020200Y-80679400D02*
X211820200Y-80679400D01*
X211820200Y-82439400D02*
X213020200Y-82439400D01*
X213020200Y-83270200D02*
X211820200Y-83270200D01*
X211820200Y-85030200D02*
X213020200Y-85030200D01*
X213020200Y-85911800D02*
X211820200Y-85911800D01*
X211820200Y-87671800D02*
X213020200Y-87671800D01*
X213020200Y-88553400D02*
X211820200Y-88553400D01*
X211820200Y-90313400D02*
X213020200Y-90313400D01*
X213020200Y-90890200D02*
X211820200Y-90890200D01*
X211820200Y-92650200D02*
X213020200Y-92650200D01*
X213020200Y-93379400D02*
X211820200Y-93379400D01*
X211820200Y-95139400D02*
X213020200Y-95139400D01*
X213020200Y-96021000D02*
X211820200Y-96021000D01*
X211820200Y-97781000D02*
X213020200Y-97781000D01*
D12*
X212586866Y-81222581D02*
X212920200Y-80746390D01*
X213158295Y-81222581D02*
X213158295Y-80222581D01*
X212777342Y-80222581D01*
X212682104Y-80270200D01*
X212634485Y-80317819D01*
X212586866Y-80413057D01*
X212586866Y-80555914D01*
X212634485Y-80651152D01*
X212682104Y-80698771D01*
X212777342Y-80746390D01*
X213158295Y-80746390D01*
X211682104Y-80222581D02*
X212158295Y-80222581D01*
X212205914Y-80698771D01*
X212158295Y-80651152D01*
X212063057Y-80603533D01*
X211824961Y-80603533D01*
X211729723Y-80651152D01*
X211682104Y-80698771D01*
X211634485Y-80794010D01*
X211634485Y-81032105D01*
X211682104Y-81127343D01*
X211729723Y-81174962D01*
X211824961Y-81222581D01*
X212063057Y-81222581D01*
X212158295Y-81174962D01*
X212205914Y-81127343D01*
X212586866Y-83711781D02*
X212920200Y-83235590D01*
X213158295Y-83711781D02*
X213158295Y-82711781D01*
X212777342Y-82711781D01*
X212682104Y-82759400D01*
X212634485Y-82807019D01*
X212586866Y-82902257D01*
X212586866Y-83045114D01*
X212634485Y-83140352D01*
X212682104Y-83187971D01*
X212777342Y-83235590D01*
X213158295Y-83235590D01*
X211729723Y-82711781D02*
X211920200Y-82711781D01*
X212015438Y-82759400D01*
X212063057Y-82807019D01*
X212158295Y-82949876D01*
X212205914Y-83140352D01*
X212205914Y-83521305D01*
X212158295Y-83616543D01*
X212110676Y-83664162D01*
X212015438Y-83711781D01*
X211824961Y-83711781D01*
X211729723Y-83664162D01*
X211682104Y-83616543D01*
X211634485Y-83521305D01*
X211634485Y-83283210D01*
X211682104Y-83187971D01*
X211729723Y-83140352D01*
X211824961Y-83092733D01*
X212015438Y-83092733D01*
X212110676Y-83140352D01*
X212158295Y-83187971D01*
X212205914Y-83283210D01*
X212586866Y-86302581D02*
X212920200Y-85826390D01*
X213158295Y-86302581D02*
X213158295Y-85302581D01*
X212777342Y-85302581D01*
X212682104Y-85350200D01*
X212634485Y-85397819D01*
X212586866Y-85493057D01*
X212586866Y-85635914D01*
X212634485Y-85731152D01*
X212682104Y-85778771D01*
X212777342Y-85826390D01*
X213158295Y-85826390D01*
X212253533Y-85302581D02*
X211586866Y-85302581D01*
X212015438Y-86302581D01*
X212586866Y-88944181D02*
X212920200Y-88467990D01*
X213158295Y-88944181D02*
X213158295Y-87944181D01*
X212777342Y-87944181D01*
X212682104Y-87991800D01*
X212634485Y-88039419D01*
X212586866Y-88134657D01*
X212586866Y-88277514D01*
X212634485Y-88372752D01*
X212682104Y-88420371D01*
X212777342Y-88467990D01*
X213158295Y-88467990D01*
X212015438Y-88372752D02*
X212110676Y-88325133D01*
X212158295Y-88277514D01*
X212205914Y-88182276D01*
X212205914Y-88134657D01*
X212158295Y-88039419D01*
X212110676Y-87991800D01*
X212015438Y-87944181D01*
X211824961Y-87944181D01*
X211729723Y-87991800D01*
X211682104Y-88039419D01*
X211634485Y-88134657D01*
X211634485Y-88182276D01*
X211682104Y-88277514D01*
X211729723Y-88325133D01*
X211824961Y-88372752D01*
X212015438Y-88372752D01*
X212110676Y-88420371D01*
X212158295Y-88467990D01*
X212205914Y-88563229D01*
X212205914Y-88753705D01*
X212158295Y-88848943D01*
X212110676Y-88896562D01*
X212015438Y-88944181D01*
X211824961Y-88944181D01*
X211729723Y-88896562D01*
X211682104Y-88848943D01*
X211634485Y-88753705D01*
X211634485Y-88563229D01*
X211682104Y-88467990D01*
X211729723Y-88420371D01*
X211824961Y-88372752D01*
X212586866Y-91585781D02*
X212920200Y-91109590D01*
X213158295Y-91585781D02*
X213158295Y-90585781D01*
X212777342Y-90585781D01*
X212682104Y-90633400D01*
X212634485Y-90681019D01*
X212586866Y-90776257D01*
X212586866Y-90919114D01*
X212634485Y-91014352D01*
X212682104Y-91061971D01*
X212777342Y-91109590D01*
X213158295Y-91109590D01*
X212110676Y-91585781D02*
X211920200Y-91585781D01*
X211824961Y-91538162D01*
X211777342Y-91490543D01*
X211682104Y-91347686D01*
X211634485Y-91157210D01*
X211634485Y-90776257D01*
X211682104Y-90681019D01*
X211729723Y-90633400D01*
X211824961Y-90585781D01*
X212015438Y-90585781D01*
X212110676Y-90633400D01*
X212158295Y-90681019D01*
X212205914Y-90776257D01*
X212205914Y-91014352D01*
X212158295Y-91109590D01*
X212110676Y-91157210D01*
X212015438Y-91204829D01*
X211824961Y-91204829D01*
X211729723Y-91157210D01*
X211682104Y-91109590D01*
X211634485Y-91014352D01*
X213063057Y-93922581D02*
X213396391Y-93446390D01*
X213634486Y-93922581D02*
X213634486Y-92922581D01*
X213253533Y-92922581D01*
X213158295Y-92970200D01*
X213110676Y-93017819D01*
X213063057Y-93113057D01*
X213063057Y-93255914D01*
X213110676Y-93351152D01*
X213158295Y-93398771D01*
X213253533Y-93446390D01*
X213634486Y-93446390D01*
X212110676Y-93922581D02*
X212682105Y-93922581D01*
X212396391Y-93922581D02*
X212396391Y-92922581D01*
X212491629Y-93065438D01*
X212586867Y-93160676D01*
X212682105Y-93208295D01*
X211491629Y-92922581D02*
X211396390Y-92922581D01*
X211301152Y-92970200D01*
X211253533Y-93017819D01*
X211205914Y-93113057D01*
X211158295Y-93303533D01*
X211158295Y-93541629D01*
X211205914Y-93732105D01*
X211253533Y-93827343D01*
X211301152Y-93874962D01*
X211396390Y-93922581D01*
X211491629Y-93922581D01*
X211586867Y-93874962D01*
X211634486Y-93827343D01*
X211682105Y-93732105D01*
X211729724Y-93541629D01*
X211729724Y-93303533D01*
X211682105Y-93113057D01*
X211634486Y-93017819D01*
X211586867Y-92970200D01*
X211491629Y-92922581D01*
X211330456Y-94162381D02*
X211663790Y-93686190D01*
X211901885Y-94162381D02*
X211901885Y-93162381D01*
X211520932Y-93162381D01*
X211425694Y-93210000D01*
X211378075Y-93257619D01*
X211330456Y-93352857D01*
X211330456Y-93495714D01*
X211378075Y-93590952D01*
X211425694Y-93638571D01*
X211520932Y-93686190D01*
X211901885Y-93686190D01*
X210378075Y-94162381D02*
X210949504Y-94162381D01*
X210663790Y-94162381D02*
X210663790Y-93162381D01*
X210759028Y-93305238D01*
X210854266Y-93400476D01*
X210949504Y-93448095D01*
X209425694Y-94162381D02*
X209997123Y-94162381D01*
X209711409Y-94162381D02*
X209711409Y-93162381D01*
X209806647Y-93305238D01*
X209901885Y-93400476D01*
X209997123Y-93448095D01*
X213063057Y-99053381D02*
X213396391Y-98577190D01*
X213634486Y-99053381D02*
X213634486Y-98053381D01*
X213253533Y-98053381D01*
X213158295Y-98101000D01*
X213110676Y-98148619D01*
X213063057Y-98243857D01*
X213063057Y-98386714D01*
X213110676Y-98481952D01*
X213158295Y-98529571D01*
X213253533Y-98577190D01*
X213634486Y-98577190D01*
X212110676Y-99053381D02*
X212682105Y-99053381D01*
X212396391Y-99053381D02*
X212396391Y-98053381D01*
X212491629Y-98196238D01*
X212586867Y-98291476D01*
X212682105Y-98339095D01*
X211729724Y-98148619D02*
X211682105Y-98101000D01*
X211586867Y-98053381D01*
X211348771Y-98053381D01*
X211253533Y-98101000D01*
X211205914Y-98148619D01*
X211158295Y-98243857D01*
X211158295Y-98339095D01*
X211205914Y-98481952D01*
X211777343Y-99053381D01*
X211158295Y-99053381D01*
M02*
