G04 #@! TF.FileFunction,Soldermask,Bot*
%FSLAX46Y46*%
G04 Gerber Fmt 4.6, Leading zero omitted, Abs format (unit mm)*
G04 Created by KiCad (PCBNEW 4.0.7) date 12/08/18 06:13:13*
%MOMM*%
%LPD*%
G01*
G04 APERTURE LIST*
%ADD10C,0.100000*%
%ADD11C,1.924000*%
%ADD12C,2.740000*%
%ADD13R,1.750000X1.750000*%
%ADD14C,2.000000*%
%ADD15R,2.200000X2.200000*%
%ADD16C,2.200000*%
%ADD17R,2.100000X2.100000*%
%ADD18O,2.100000X2.100000*%
%ADD19C,1.920000*%
%ADD20R,1.920000X1.920000*%
%ADD21O,2.000000X2.000000*%
%ADD22R,1.900000X1.700000*%
%ADD23C,2.020000*%
%ADD24C,2.400000*%
%ADD25O,2.838400X2.305000*%
%ADD26R,2.800000X2.000000*%
%ADD27O,2.800000X2.000000*%
%ADD28R,2.000000X2.000000*%
G04 APERTURE END LIST*
D10*
D11*
X181890800Y-55497600D03*
X181890800Y-58037600D03*
X181890800Y-60577600D03*
X181890800Y-63117600D03*
X181890800Y-65657600D03*
X181890800Y-68197600D03*
X174270800Y-70737600D03*
X171730800Y-70737600D03*
X169190800Y-70737600D03*
D12*
X202336400Y-57716400D03*
X202336400Y-62716400D03*
X202336400Y-67716400D03*
D13*
X221437200Y-82905600D03*
D14*
X187350400Y-95148400D03*
X184850400Y-95148400D03*
D15*
X198323200Y-80772000D03*
D16*
X195783200Y-80772000D03*
D15*
X174650400Y-80772000D03*
D16*
X172110400Y-80772000D03*
D17*
X171805600Y-94081600D03*
D18*
X174345600Y-94081600D03*
D17*
X186944000Y-69900800D03*
D18*
X189484000Y-69900800D03*
D17*
X211709000Y-71501000D03*
D18*
X214249000Y-71501000D03*
D17*
X208737200Y-79095600D03*
D18*
X208737200Y-81635600D03*
X208737200Y-84175600D03*
X208737200Y-86715600D03*
X208737200Y-89255600D03*
X208737200Y-91795600D03*
X208737200Y-94335600D03*
X208737200Y-96875600D03*
D17*
X211759800Y-56921400D03*
D18*
X214299800Y-56921400D03*
D17*
X218897200Y-79095600D03*
D18*
X218897200Y-81635600D03*
X218897200Y-84175600D03*
X218897200Y-86715600D03*
X218897200Y-89255600D03*
X218897200Y-91795600D03*
X218897200Y-94335600D03*
X218897200Y-96875600D03*
D19*
X188569600Y-60553600D03*
X191109600Y-63093600D03*
D20*
X186029600Y-63093600D03*
D14*
X193040000Y-56591200D03*
D21*
X185420000Y-56591200D03*
D14*
X182422800Y-77724000D03*
D21*
X190042800Y-77724000D03*
D14*
X201015600Y-86207600D03*
D21*
X193395600Y-86207600D03*
D14*
X177444400Y-86207600D03*
D21*
X169824400Y-86207600D03*
D22*
X211070200Y-79070200D03*
X213770200Y-79070200D03*
X211070200Y-81559400D03*
X213770200Y-81559400D03*
X211070200Y-84150200D03*
X213770200Y-84150200D03*
X211070200Y-86791800D03*
X213770200Y-86791800D03*
X211070200Y-89433400D03*
X213770200Y-89433400D03*
X211070200Y-91770200D03*
X213770200Y-91770200D03*
X211070200Y-94259400D03*
X213770200Y-94259400D03*
X211070200Y-96901000D03*
X213770200Y-96901000D03*
D23*
X167944800Y-46866800D03*
X172944800Y-49366800D03*
X167944800Y-51866800D03*
D24*
X176580800Y-51540800D03*
X176580800Y-47040800D03*
X183080800Y-51540800D03*
X183080800Y-47040800D03*
D25*
X214299800Y-62153800D03*
X214299800Y-64693800D03*
X214299800Y-67233800D03*
D17*
X191820800Y-46736000D03*
D18*
X191820800Y-49276000D03*
X191820800Y-51816000D03*
D26*
X182321200Y-82905600D03*
D27*
X189941200Y-90525600D03*
X182321200Y-85445600D03*
X189941200Y-87985600D03*
X182321200Y-87985600D03*
X189941200Y-85445600D03*
X182321200Y-90525600D03*
X189941200Y-82905600D03*
D28*
X197053200Y-92964000D03*
D14*
X197053200Y-95464000D03*
D13*
X221386400Y-79095600D03*
M02*
