G04 #@! TF.FileFunction,Copper,L2,Bot,Signal*
%FSLAX46Y46*%
G04 Gerber Fmt 4.6, Leading zero omitted, Abs format (unit mm)*
G04 Created by KiCad (PCBNEW 4.0.7) date 12/08/18 06:13:13*
%MOMM*%
%LPD*%
G01*
G04 APERTURE LIST*
%ADD10C,0.100000*%
%ADD11C,1.524000*%
%ADD12C,2.340000*%
%ADD13R,1.350000X1.350000*%
%ADD14C,1.600000*%
%ADD15R,1.800000X1.800000*%
%ADD16C,1.800000*%
%ADD17R,1.700000X1.700000*%
%ADD18O,1.700000X1.700000*%
%ADD19C,1.520000*%
%ADD20R,1.520000X1.520000*%
%ADD21O,1.600000X1.600000*%
%ADD22R,1.500000X1.300000*%
%ADD23C,1.620000*%
%ADD24C,2.000000*%
%ADD25O,2.438400X1.905000*%
%ADD26R,2.400000X1.600000*%
%ADD27O,2.400000X1.600000*%
%ADD28R,1.600000X1.600000*%
%ADD29C,0.600000*%
%ADD30C,0.250000*%
%ADD31C,0.508000*%
G04 APERTURE END LIST*
D10*
D11*
X181890800Y-55497600D03*
X181890800Y-58037600D03*
X181890800Y-60577600D03*
X181890800Y-63117600D03*
X181890800Y-65657600D03*
X181890800Y-68197600D03*
X174270800Y-70737600D03*
X171730800Y-70737600D03*
X169190800Y-70737600D03*
D12*
X202336400Y-57716400D03*
X202336400Y-62716400D03*
X202336400Y-67716400D03*
D13*
X221437200Y-82905600D03*
D14*
X187350400Y-95148400D03*
X184850400Y-95148400D03*
D15*
X198323200Y-80772000D03*
D16*
X195783200Y-80772000D03*
D15*
X174650400Y-80772000D03*
D16*
X172110400Y-80772000D03*
D17*
X171805600Y-94081600D03*
D18*
X174345600Y-94081600D03*
D17*
X186944000Y-69900800D03*
D18*
X189484000Y-69900800D03*
D17*
X211709000Y-71501000D03*
D18*
X214249000Y-71501000D03*
D17*
X208737200Y-79095600D03*
D18*
X208737200Y-81635600D03*
X208737200Y-84175600D03*
X208737200Y-86715600D03*
X208737200Y-89255600D03*
X208737200Y-91795600D03*
X208737200Y-94335600D03*
X208737200Y-96875600D03*
D17*
X211759800Y-56921400D03*
D18*
X214299800Y-56921400D03*
D17*
X218897200Y-79095600D03*
D18*
X218897200Y-81635600D03*
X218897200Y-84175600D03*
X218897200Y-86715600D03*
X218897200Y-89255600D03*
X218897200Y-91795600D03*
X218897200Y-94335600D03*
X218897200Y-96875600D03*
D19*
X188569600Y-60553600D03*
X191109600Y-63093600D03*
D20*
X186029600Y-63093600D03*
D14*
X193040000Y-56591200D03*
D21*
X185420000Y-56591200D03*
D14*
X182422800Y-77724000D03*
D21*
X190042800Y-77724000D03*
D14*
X201015600Y-86207600D03*
D21*
X193395600Y-86207600D03*
D14*
X177444400Y-86207600D03*
D21*
X169824400Y-86207600D03*
D22*
X211070200Y-79070200D03*
X213770200Y-79070200D03*
X211070200Y-81559400D03*
X213770200Y-81559400D03*
X211070200Y-84150200D03*
X213770200Y-84150200D03*
X211070200Y-86791800D03*
X213770200Y-86791800D03*
X211070200Y-89433400D03*
X213770200Y-89433400D03*
X211070200Y-91770200D03*
X213770200Y-91770200D03*
X211070200Y-94259400D03*
X213770200Y-94259400D03*
X211070200Y-96901000D03*
X213770200Y-96901000D03*
D23*
X167944800Y-46866800D03*
X172944800Y-49366800D03*
X167944800Y-51866800D03*
D24*
X176580800Y-51540800D03*
X176580800Y-47040800D03*
X183080800Y-51540800D03*
X183080800Y-47040800D03*
D25*
X214299800Y-62153800D03*
X214299800Y-64693800D03*
X214299800Y-67233800D03*
D17*
X191820800Y-46736000D03*
D18*
X191820800Y-49276000D03*
X191820800Y-51816000D03*
D26*
X182321200Y-82905600D03*
D27*
X189941200Y-90525600D03*
X182321200Y-85445600D03*
X189941200Y-87985600D03*
X182321200Y-87985600D03*
X189941200Y-85445600D03*
X182321200Y-90525600D03*
X189941200Y-82905600D03*
D28*
X197053200Y-92964000D03*
D14*
X197053200Y-95464000D03*
D13*
X221386400Y-79095600D03*
D29*
X186232800Y-86918800D03*
X212902800Y-77876400D03*
X212852000Y-80518000D03*
X212953600Y-83058000D03*
X212902800Y-85598000D03*
X212902800Y-88138000D03*
X212852000Y-90728800D03*
X212852000Y-93218000D03*
X212953600Y-95758000D03*
X173736000Y-52019200D03*
X178511200Y-58318400D03*
D30*
X190042800Y-77724000D02*
X182321200Y-85445600D01*
X189941200Y-87985600D02*
X186080400Y-87985600D01*
X183540400Y-85445600D02*
X182321200Y-85445600D01*
X186080400Y-87985600D02*
X183540400Y-85445600D01*
X197053200Y-92964000D02*
X194919600Y-92964000D01*
X194919600Y-92964000D02*
X189941200Y-87985600D01*
X186232800Y-86918800D02*
X189941200Y-83210400D01*
X189941200Y-83210400D02*
X189941200Y-82905600D01*
X212902800Y-77876400D02*
X213770200Y-78743800D01*
X213770200Y-78743800D02*
X213770200Y-79070200D01*
X213770200Y-81559400D02*
X213770200Y-81436200D01*
X213770200Y-81436200D02*
X212852000Y-80518000D01*
X212953600Y-83058000D02*
X213770200Y-83874600D01*
X213770200Y-83874600D02*
X213770200Y-84150200D01*
X213770200Y-86791800D02*
X213770200Y-86465400D01*
X213770200Y-86465400D02*
X212902800Y-85598000D01*
X212902800Y-88138000D02*
X213770200Y-89005400D01*
X213770200Y-89005400D02*
X213770200Y-89433400D01*
X213770200Y-91770200D02*
X213770200Y-91647000D01*
X213770200Y-91647000D02*
X212852000Y-90728800D01*
X212852000Y-93218000D02*
X213770200Y-94136200D01*
X213770200Y-94136200D02*
X213770200Y-94259400D01*
X213770200Y-96901000D02*
X213770200Y-96574600D01*
X213770200Y-96574600D02*
X212953600Y-95758000D01*
D31*
X202336400Y-67716400D02*
X187401200Y-67716400D01*
X186944000Y-68173600D02*
X186944000Y-69900800D01*
X187401200Y-67716400D02*
X186944000Y-68173600D01*
D30*
X211070200Y-79070200D02*
X208762600Y-79070200D01*
X208762600Y-79070200D02*
X208737200Y-79095600D01*
X211070200Y-81559400D02*
X208813400Y-81559400D01*
X208813400Y-81559400D02*
X208737200Y-81635600D01*
X211070200Y-84150200D02*
X208762600Y-84150200D01*
X208762600Y-84150200D02*
X208737200Y-84175600D01*
X211070200Y-86791800D02*
X208813400Y-86791800D01*
X208813400Y-86791800D02*
X208737200Y-86715600D01*
X211070200Y-89433400D02*
X208915000Y-89433400D01*
X208915000Y-89433400D02*
X208737200Y-89255600D01*
X211070200Y-91770200D02*
X208762600Y-91770200D01*
X208762600Y-91770200D02*
X208737200Y-91795600D01*
X211070200Y-94259400D02*
X208813400Y-94259400D01*
X208813400Y-94259400D02*
X208737200Y-94335600D01*
X211070200Y-96901000D02*
X208762600Y-96901000D01*
X208762600Y-96901000D02*
X208737200Y-96875600D01*
X188569600Y-60553600D02*
X189026800Y-60553600D01*
X189026800Y-60553600D02*
X192989200Y-56591200D01*
D31*
X191820800Y-51816000D02*
X196436000Y-51816000D01*
X196436000Y-51816000D02*
X202336400Y-57716400D01*
X167944800Y-51866800D02*
X168503600Y-51866800D01*
X168503600Y-51866800D02*
X172379200Y-55742400D01*
X171730800Y-70737600D02*
X171730800Y-56390800D01*
X171730800Y-56390800D02*
X172379200Y-55742400D01*
X172379200Y-55742400D02*
X176580800Y-51540800D01*
X183080800Y-51540800D02*
X176580800Y-51540800D01*
X191820800Y-51816000D02*
X183356000Y-51816000D01*
X183356000Y-51816000D02*
X183080800Y-51540800D01*
X171730800Y-70737600D02*
X171527600Y-70737600D01*
X186029600Y-63093600D02*
X186029600Y-65278000D01*
X173484800Y-72491600D02*
X171730800Y-70737600D01*
X182626000Y-72491600D02*
X173484800Y-72491600D01*
X184048400Y-71069200D02*
X182626000Y-72491600D01*
X184048400Y-67259200D02*
X184048400Y-71069200D01*
X186029600Y-65278000D02*
X184048400Y-67259200D01*
D30*
X181890800Y-65657600D02*
X182144800Y-65657600D01*
X182144800Y-65657600D02*
X183946800Y-63855600D01*
X183946800Y-63855600D02*
X183946800Y-58013600D01*
X183946800Y-58013600D02*
X185369200Y-56591200D01*
X172944800Y-49366800D02*
X172944800Y-51228000D01*
X172944800Y-51228000D02*
X173736000Y-52019200D01*
X178460400Y-64767200D02*
X181890800Y-68197600D01*
X178460400Y-58369200D02*
X178460400Y-64767200D01*
X178511200Y-58318400D02*
X178460400Y-58369200D01*
M02*
