G04 #@! TF.FileFunction,Copper,L2,Bot,Signal*
%FSLAX46Y46*%
G04 Gerber Fmt 4.6, Leading zero omitted, Abs format (unit mm)*
G04 Created by KiCad (PCBNEW 4.0.7) date 12/06/18 03:02:26*
%MOMM*%
%LPD*%
G01*
G04 APERTURE LIST*
%ADD10C,0.100000*%
%ADD11C,1.270000*%
%ADD12C,3.000000*%
%ADD13R,1.700000X1.700000*%
%ADD14O,1.700000X1.700000*%
%ADD15O,3.000000X2.000000*%
%ADD16C,1.400000*%
%ADD17O,1.400000X1.400000*%
%ADD18C,1.600000*%
%ADD19O,2.000000X1.500000*%
%ADD20R,1.600000X1.600000*%
%ADD21O,1.600000X1.600000*%
%ADD22O,2.000000X2.500000*%
%ADD23O,1.300000X1.700000*%
%ADD24C,0.200000*%
%ADD25C,0.254000*%
G04 APERTURE END LIST*
D10*
D11*
X60274600Y-79830000D03*
X65354600Y-79830000D03*
X67894600Y-79830000D03*
X70434600Y-79830000D03*
X70434600Y-74750000D03*
X67894600Y-74750000D03*
X65354600Y-74750000D03*
X60274600Y-74750000D03*
X60274600Y-70830000D03*
X65354600Y-70830000D03*
X67894600Y-70830000D03*
X70434600Y-70830000D03*
X70434600Y-65750000D03*
X67894600Y-65750000D03*
X65354600Y-65750000D03*
X60274600Y-65750000D03*
D12*
X78892400Y-33528000D03*
X56392400Y-33528000D03*
D13*
X36830000Y-32512000D03*
D14*
X39370000Y-32512000D03*
X36830000Y-35052000D03*
X39370000Y-35052000D03*
X36830000Y-37592000D03*
X39370000Y-37592000D03*
X36830000Y-40132000D03*
X39370000Y-40132000D03*
X36830000Y-42672000D03*
X39370000Y-42672000D03*
X36830000Y-45212000D03*
X39370000Y-45212000D03*
X36830000Y-47752000D03*
X39370000Y-47752000D03*
X36830000Y-50292000D03*
X39370000Y-50292000D03*
X36830000Y-52832000D03*
X39370000Y-52832000D03*
X36830000Y-55372000D03*
X39370000Y-55372000D03*
X36830000Y-57912000D03*
X39370000Y-57912000D03*
X36830000Y-60452000D03*
X39370000Y-60452000D03*
X36830000Y-62992000D03*
X39370000Y-62992000D03*
X36830000Y-65532000D03*
X39370000Y-65532000D03*
X36830000Y-68072000D03*
X39370000Y-68072000D03*
X36830000Y-70612000D03*
X39370000Y-70612000D03*
X36830000Y-73152000D03*
X39370000Y-73152000D03*
X36830000Y-75692000D03*
X39370000Y-75692000D03*
X36830000Y-78232000D03*
X39370000Y-78232000D03*
X36830000Y-80772000D03*
X39370000Y-80772000D03*
D15*
X79756000Y-79208000D03*
X79756000Y-74208000D03*
X79756000Y-51776000D03*
X79756000Y-46776000D03*
X79756000Y-69048000D03*
X79756000Y-64048000D03*
D16*
X51003200Y-37439600D03*
D17*
X51003200Y-29819600D03*
D18*
X79756000Y-58420000D03*
X74756000Y-56520000D03*
D19*
X43797600Y-37033200D03*
X43797600Y-34493200D03*
X43797600Y-31953200D03*
X43797600Y-29413200D03*
D20*
X44094400Y-63855600D03*
D21*
X51714400Y-81635600D03*
X44094400Y-66395600D03*
X51714400Y-79095600D03*
X44094400Y-68935600D03*
X51714400Y-76555600D03*
X44094400Y-71475600D03*
X51714400Y-74015600D03*
X44094400Y-74015600D03*
X51714400Y-71475600D03*
X44094400Y-76555600D03*
X51714400Y-68935600D03*
X44094400Y-79095600D03*
X51714400Y-66395600D03*
X44094400Y-81635600D03*
X51714400Y-63855600D03*
D22*
X70116000Y-49784000D03*
D23*
X44116000Y-46034000D03*
X44116000Y-53534000D03*
D24*
X39370000Y-32512000D02*
X40182800Y-32512000D01*
X40182800Y-32512000D02*
X42011600Y-30683200D01*
X42011600Y-30683200D02*
X50139600Y-30683200D01*
X50139600Y-30683200D02*
X51003200Y-29819600D01*
X51003200Y-37439600D02*
X48666400Y-37439600D01*
X45720000Y-34493200D02*
X43434000Y-34493200D01*
X48666400Y-37439600D02*
X45720000Y-34493200D01*
X43434000Y-34493200D02*
X41452800Y-36474400D01*
X41452800Y-36474400D02*
X41452800Y-47904400D01*
X41452800Y-47904400D02*
X40335200Y-49022000D01*
X40335200Y-49022000D02*
X38100000Y-49022000D01*
X38100000Y-49022000D02*
X36830000Y-50292000D01*
X39370000Y-78232000D02*
X39573200Y-78232000D01*
X39573200Y-78232000D02*
X42113200Y-75692000D01*
X42113200Y-75692000D02*
X42113200Y-73456800D01*
X42113200Y-73456800D02*
X44094400Y-71475600D01*
X44094400Y-71475600D02*
X44094400Y-68935600D01*
X39370000Y-80772000D02*
X42570400Y-80772000D01*
X45567600Y-67868800D02*
X44094400Y-66395600D01*
X45567600Y-79705200D02*
X45567600Y-67868800D01*
X44907200Y-80365600D02*
X45567600Y-79705200D01*
X42976800Y-80365600D02*
X44907200Y-80365600D01*
X42570400Y-80772000D02*
X42976800Y-80365600D01*
X44094400Y-66395600D02*
X44094400Y-63855600D01*
D25*
G36*
X42536225Y-28433857D02*
X42235995Y-28883183D01*
X42130568Y-29413200D01*
X42235995Y-29943217D01*
X42536225Y-30392543D01*
X42971224Y-30683200D01*
X42536225Y-30973857D01*
X42235995Y-31423183D01*
X42130568Y-31953200D01*
X42235995Y-32483217D01*
X42536225Y-32932543D01*
X42971224Y-33223200D01*
X42536225Y-33513857D01*
X42235995Y-33963183D01*
X42130568Y-34493200D01*
X42174366Y-34713387D01*
X40933077Y-35954677D01*
X40773749Y-36193128D01*
X40717800Y-36474400D01*
X40717800Y-36944015D01*
X40449147Y-36541946D01*
X40108447Y-36314298D01*
X40251358Y-36247183D01*
X40641645Y-35818924D01*
X40811476Y-35408890D01*
X40690155Y-35179000D01*
X39497000Y-35179000D01*
X39497000Y-35199000D01*
X39243000Y-35199000D01*
X39243000Y-35179000D01*
X39223000Y-35179000D01*
X39223000Y-34925000D01*
X39243000Y-34925000D01*
X39243000Y-32639000D01*
X39497000Y-32639000D01*
X39497000Y-34925000D01*
X40690155Y-34925000D01*
X40811476Y-34695110D01*
X40641645Y-34285076D01*
X40251358Y-33856817D01*
X40092046Y-33782000D01*
X40251358Y-33707183D01*
X40641645Y-33278924D01*
X40811476Y-32868890D01*
X40690155Y-32639000D01*
X39497000Y-32639000D01*
X39243000Y-32639000D01*
X39223000Y-32639000D01*
X39223000Y-32385000D01*
X39243000Y-32385000D01*
X39243000Y-31191181D01*
X39497000Y-31191181D01*
X39497000Y-32385000D01*
X40690155Y-32385000D01*
X40811476Y-32155110D01*
X40641645Y-31745076D01*
X40251358Y-31316817D01*
X39726892Y-31070514D01*
X39497000Y-31191181D01*
X39243000Y-31191181D01*
X39013108Y-31070514D01*
X38488642Y-31316817D01*
X38301192Y-31522504D01*
X38283162Y-31426683D01*
X38144090Y-31210559D01*
X37931890Y-31065569D01*
X37680000Y-31014560D01*
X35980000Y-31014560D01*
X35744683Y-31058838D01*
X35528559Y-31197910D01*
X35383569Y-31410110D01*
X35332560Y-31662000D01*
X35332560Y-33362000D01*
X35376838Y-33597317D01*
X35515910Y-33813441D01*
X35728110Y-33958431D01*
X35795541Y-33972086D01*
X35750853Y-34001946D01*
X35428946Y-34483715D01*
X35315907Y-35052000D01*
X35428946Y-35620285D01*
X35750853Y-36102054D01*
X36080026Y-36322000D01*
X35750853Y-36541946D01*
X35428946Y-37023715D01*
X35315907Y-37592000D01*
X35428946Y-38160285D01*
X35750853Y-38642054D01*
X36080026Y-38862000D01*
X35750853Y-39081946D01*
X35428946Y-39563715D01*
X35315907Y-40132000D01*
X35428946Y-40700285D01*
X35750853Y-41182054D01*
X36080026Y-41402000D01*
X35750853Y-41621946D01*
X35428946Y-42103715D01*
X35315907Y-42672000D01*
X35428946Y-43240285D01*
X35750853Y-43722054D01*
X36080026Y-43942000D01*
X35750853Y-44161946D01*
X35428946Y-44643715D01*
X35315907Y-45212000D01*
X35428946Y-45780285D01*
X35750853Y-46262054D01*
X36080026Y-46482000D01*
X35750853Y-46701946D01*
X35428946Y-47183715D01*
X35315907Y-47752000D01*
X35428946Y-48320285D01*
X35750853Y-48802054D01*
X36080026Y-49022000D01*
X35750853Y-49241946D01*
X35428946Y-49723715D01*
X35315907Y-50292000D01*
X35428946Y-50860285D01*
X35750853Y-51342054D01*
X36080026Y-51562000D01*
X35750853Y-51781946D01*
X35428946Y-52263715D01*
X35315907Y-52832000D01*
X35428946Y-53400285D01*
X35750853Y-53882054D01*
X36080026Y-54102000D01*
X35750853Y-54321946D01*
X35428946Y-54803715D01*
X35315907Y-55372000D01*
X35428946Y-55940285D01*
X35750853Y-56422054D01*
X36080026Y-56642000D01*
X35750853Y-56861946D01*
X35428946Y-57343715D01*
X35315907Y-57912000D01*
X35428946Y-58480285D01*
X35750853Y-58962054D01*
X36080026Y-59182000D01*
X35750853Y-59401946D01*
X35428946Y-59883715D01*
X35315907Y-60452000D01*
X35428946Y-61020285D01*
X35750853Y-61502054D01*
X36080026Y-61722000D01*
X35750853Y-61941946D01*
X35428946Y-62423715D01*
X35315907Y-62992000D01*
X35428946Y-63560285D01*
X35750853Y-64042054D01*
X36080026Y-64262000D01*
X35750853Y-64481946D01*
X35428946Y-64963715D01*
X35315907Y-65532000D01*
X35428946Y-66100285D01*
X35750853Y-66582054D01*
X36080026Y-66802000D01*
X35750853Y-67021946D01*
X35428946Y-67503715D01*
X35315907Y-68072000D01*
X35428946Y-68640285D01*
X35750853Y-69122054D01*
X36080026Y-69342000D01*
X35750853Y-69561946D01*
X35428946Y-70043715D01*
X35315907Y-70612000D01*
X35428946Y-71180285D01*
X35750853Y-71662054D01*
X36080026Y-71882000D01*
X35750853Y-72101946D01*
X35428946Y-72583715D01*
X35315907Y-73152000D01*
X35428946Y-73720285D01*
X35750853Y-74202054D01*
X36080026Y-74422000D01*
X35750853Y-74641946D01*
X35428946Y-75123715D01*
X35315907Y-75692000D01*
X35428946Y-76260285D01*
X35750853Y-76742054D01*
X36080026Y-76962000D01*
X35750853Y-77181946D01*
X35428946Y-77663715D01*
X35315907Y-78232000D01*
X35428946Y-78800285D01*
X35750853Y-79282054D01*
X36080026Y-79502000D01*
X35750853Y-79721946D01*
X35428946Y-80203715D01*
X35315907Y-80772000D01*
X35428946Y-81340285D01*
X35750853Y-81822054D01*
X36232622Y-82143961D01*
X36800907Y-82257000D01*
X36859093Y-82257000D01*
X37427378Y-82143961D01*
X37909147Y-81822054D01*
X38100000Y-81536422D01*
X38290853Y-81822054D01*
X38772622Y-82143961D01*
X39340907Y-82257000D01*
X39399093Y-82257000D01*
X39967378Y-82143961D01*
X40449147Y-81822054D01*
X40659659Y-81507000D01*
X42570400Y-81507000D01*
X42660429Y-81489092D01*
X42631287Y-81635600D01*
X42740520Y-82184751D01*
X43051589Y-82650298D01*
X43517136Y-82961367D01*
X44066287Y-83070600D01*
X44122513Y-83070600D01*
X44671664Y-82961367D01*
X45137211Y-82650298D01*
X45448280Y-82184751D01*
X45488084Y-81984639D01*
X50322496Y-81984639D01*
X50483359Y-82373023D01*
X50859266Y-82787989D01*
X51365359Y-83027514D01*
X51587400Y-82906229D01*
X51587400Y-81762600D01*
X51841400Y-81762600D01*
X51841400Y-82906229D01*
X52063441Y-83027514D01*
X52569534Y-82787989D01*
X52945441Y-82373023D01*
X53106304Y-81984639D01*
X52984315Y-81762600D01*
X51841400Y-81762600D01*
X51587400Y-81762600D01*
X50444485Y-81762600D01*
X50322496Y-81984639D01*
X45488084Y-81984639D01*
X45557513Y-81635600D01*
X45448280Y-81086449D01*
X45348780Y-80937537D01*
X45426923Y-80885323D01*
X46087324Y-80224923D01*
X46246651Y-79986472D01*
X46302600Y-79705200D01*
X46302600Y-67868800D01*
X46246651Y-67587528D01*
X46246651Y-67587527D01*
X46087323Y-67349076D01*
X45487222Y-66748976D01*
X45557513Y-66395600D01*
X45448280Y-65846449D01*
X45137211Y-65380902D01*
X44992935Y-65284499D01*
X45129717Y-65258762D01*
X45345841Y-65119690D01*
X45490831Y-64907490D01*
X45541840Y-64655600D01*
X45541840Y-63855600D01*
X50251287Y-63855600D01*
X50360520Y-64404751D01*
X50671589Y-64870298D01*
X51053675Y-65125600D01*
X50671589Y-65380902D01*
X50360520Y-65846449D01*
X50251287Y-66395600D01*
X50360520Y-66944751D01*
X50671589Y-67410298D01*
X51053675Y-67665600D01*
X50671589Y-67920902D01*
X50360520Y-68386449D01*
X50251287Y-68935600D01*
X50360520Y-69484751D01*
X50671589Y-69950298D01*
X51053675Y-70205600D01*
X50671589Y-70460902D01*
X50360520Y-70926449D01*
X50251287Y-71475600D01*
X50360520Y-72024751D01*
X50671589Y-72490298D01*
X51053675Y-72745600D01*
X50671589Y-73000902D01*
X50360520Y-73466449D01*
X50251287Y-74015600D01*
X50360520Y-74564751D01*
X50671589Y-75030298D01*
X51053675Y-75285600D01*
X50671589Y-75540902D01*
X50360520Y-76006449D01*
X50251287Y-76555600D01*
X50360520Y-77104751D01*
X50671589Y-77570298D01*
X51053675Y-77825600D01*
X50671589Y-78080902D01*
X50360520Y-78546449D01*
X50251287Y-79095600D01*
X50360520Y-79644751D01*
X50671589Y-80110298D01*
X51076103Y-80380586D01*
X50859266Y-80483211D01*
X50483359Y-80898177D01*
X50322496Y-81286561D01*
X50444485Y-81508600D01*
X51587400Y-81508600D01*
X51587400Y-81488600D01*
X51841400Y-81488600D01*
X51841400Y-81508600D01*
X52984315Y-81508600D01*
X53106304Y-81286561D01*
X52945441Y-80898177D01*
X52569534Y-80483211D01*
X52352697Y-80380586D01*
X52757211Y-80110298D01*
X53068280Y-79644751D01*
X53177513Y-79095600D01*
X53068280Y-78546449D01*
X52757211Y-78080902D01*
X52375125Y-77825600D01*
X52757211Y-77570298D01*
X53068280Y-77104751D01*
X53177513Y-76555600D01*
X53068280Y-76006449D01*
X52757211Y-75540902D01*
X52375125Y-75285600D01*
X52757211Y-75030298D01*
X53068280Y-74564751D01*
X53177513Y-74015600D01*
X53068280Y-73466449D01*
X52757211Y-73000902D01*
X52375125Y-72745600D01*
X52757211Y-72490298D01*
X53068280Y-72024751D01*
X53177513Y-71475600D01*
X53068280Y-70926449D01*
X52757211Y-70460902D01*
X52375125Y-70205600D01*
X52757211Y-69950298D01*
X53068280Y-69484751D01*
X53177513Y-68935600D01*
X53068280Y-68386449D01*
X52757211Y-67920902D01*
X52375125Y-67665600D01*
X52757211Y-67410298D01*
X53068280Y-66944751D01*
X53177513Y-66395600D01*
X53068280Y-65846449D01*
X52757211Y-65380902D01*
X52375125Y-65125600D01*
X52757211Y-64870298D01*
X53068280Y-64404751D01*
X53177513Y-63855600D01*
X53068280Y-63306449D01*
X52757211Y-62840902D01*
X52291664Y-62529833D01*
X51742513Y-62420600D01*
X51686287Y-62420600D01*
X51137136Y-62529833D01*
X50671589Y-62840902D01*
X50360520Y-63306449D01*
X50251287Y-63855600D01*
X45541840Y-63855600D01*
X45541840Y-63055600D01*
X45497562Y-62820283D01*
X45358490Y-62604159D01*
X45146290Y-62459169D01*
X44894400Y-62408160D01*
X43294400Y-62408160D01*
X43059083Y-62452438D01*
X42842959Y-62591510D01*
X42697969Y-62803710D01*
X42646960Y-63055600D01*
X42646960Y-64655600D01*
X42691238Y-64890917D01*
X42830310Y-65107041D01*
X43042510Y-65252031D01*
X43197489Y-65283415D01*
X43051589Y-65380902D01*
X42740520Y-65846449D01*
X42631287Y-66395600D01*
X42740520Y-66944751D01*
X43051589Y-67410298D01*
X43433675Y-67665600D01*
X43051589Y-67920902D01*
X42740520Y-68386449D01*
X42631287Y-68935600D01*
X42740520Y-69484751D01*
X43051589Y-69950298D01*
X43359400Y-70155971D01*
X43359400Y-70255229D01*
X43051589Y-70460902D01*
X42740520Y-70926449D01*
X42631287Y-71475600D01*
X42701578Y-71828976D01*
X41593477Y-72937077D01*
X41434149Y-73175528D01*
X41378200Y-73456800D01*
X41378200Y-75387553D01*
X40837000Y-75928754D01*
X40884093Y-75692000D01*
X40771054Y-75123715D01*
X40449147Y-74641946D01*
X40119974Y-74422000D01*
X40449147Y-74202054D01*
X40771054Y-73720285D01*
X40884093Y-73152000D01*
X40771054Y-72583715D01*
X40449147Y-72101946D01*
X40119974Y-71882000D01*
X40449147Y-71662054D01*
X40771054Y-71180285D01*
X40884093Y-70612000D01*
X40771054Y-70043715D01*
X40449147Y-69561946D01*
X40119974Y-69342000D01*
X40449147Y-69122054D01*
X40771054Y-68640285D01*
X40884093Y-68072000D01*
X40771054Y-67503715D01*
X40449147Y-67021946D01*
X40119974Y-66802000D01*
X40449147Y-66582054D01*
X40771054Y-66100285D01*
X40884093Y-65532000D01*
X40771054Y-64963715D01*
X40449147Y-64481946D01*
X40119974Y-64262000D01*
X40449147Y-64042054D01*
X40771054Y-63560285D01*
X40884093Y-62992000D01*
X40771054Y-62423715D01*
X40449147Y-61941946D01*
X40119974Y-61722000D01*
X40449147Y-61502054D01*
X40771054Y-61020285D01*
X40884093Y-60452000D01*
X40771054Y-59883715D01*
X40449147Y-59401946D01*
X40119974Y-59182000D01*
X40449147Y-58962054D01*
X40771054Y-58480285D01*
X40884093Y-57912000D01*
X40771054Y-57343715D01*
X40449147Y-56861946D01*
X40119974Y-56642000D01*
X40449147Y-56422054D01*
X40771054Y-55940285D01*
X40884093Y-55372000D01*
X40771054Y-54803715D01*
X40449147Y-54321946D01*
X40119974Y-54102000D01*
X40449147Y-53882054D01*
X40771054Y-53400285D01*
X40790025Y-53304907D01*
X42831000Y-53304907D01*
X42831000Y-53763093D01*
X42928815Y-54254841D01*
X43207368Y-54671725D01*
X43624252Y-54950278D01*
X44116000Y-55048093D01*
X44607748Y-54950278D01*
X45024632Y-54671725D01*
X45303185Y-54254841D01*
X45401000Y-53763093D01*
X45401000Y-53304907D01*
X45303185Y-52813159D01*
X45024632Y-52396275D01*
X44607748Y-52117722D01*
X44116000Y-52019907D01*
X43624252Y-52117722D01*
X43207368Y-52396275D01*
X42928815Y-52813159D01*
X42831000Y-53304907D01*
X40790025Y-53304907D01*
X40884093Y-52832000D01*
X40771054Y-52263715D01*
X40449147Y-51781946D01*
X40119974Y-51562000D01*
X40449147Y-51342054D01*
X40771054Y-50860285D01*
X40884093Y-50292000D01*
X40771054Y-49723715D01*
X40712872Y-49636639D01*
X40854923Y-49541723D01*
X41972523Y-48424124D01*
X42131851Y-48185672D01*
X42157485Y-48056800D01*
X42187800Y-47904400D01*
X42187800Y-46363480D01*
X42831849Y-46363480D01*
X42979149Y-46845047D01*
X43299524Y-47233588D01*
X43744200Y-47469951D01*
X43790529Y-47477099D01*
X43989000Y-47353067D01*
X43989000Y-46161000D01*
X44243000Y-46161000D01*
X44243000Y-47353067D01*
X44441471Y-47477099D01*
X44487800Y-47469951D01*
X44932476Y-47233588D01*
X45252851Y-46845047D01*
X45400151Y-46363480D01*
X45245846Y-46161000D01*
X44243000Y-46161000D01*
X43989000Y-46161000D01*
X42986154Y-46161000D01*
X42831849Y-46363480D01*
X42187800Y-46363480D01*
X42187800Y-45704520D01*
X42831849Y-45704520D01*
X42986154Y-45907000D01*
X43989000Y-45907000D01*
X43989000Y-44714933D01*
X44243000Y-44714933D01*
X44243000Y-45907000D01*
X45245846Y-45907000D01*
X45400151Y-45704520D01*
X45252851Y-45222953D01*
X44932476Y-44834412D01*
X44487800Y-44598049D01*
X44441471Y-44590901D01*
X44243000Y-44714933D01*
X43989000Y-44714933D01*
X43790529Y-44590901D01*
X43744200Y-44598049D01*
X43299524Y-44834412D01*
X42979149Y-45222953D01*
X42831849Y-45704520D01*
X42187800Y-45704520D01*
X42187800Y-37160202D01*
X42327943Y-37160202D01*
X42205282Y-37374385D01*
X42224119Y-37477435D01*
X42494864Y-37950094D01*
X42925879Y-38283164D01*
X43451545Y-38425939D01*
X43670600Y-38265068D01*
X43670600Y-37160200D01*
X43924600Y-37160200D01*
X43924600Y-38265068D01*
X44143655Y-38425939D01*
X44669321Y-38283164D01*
X45100336Y-37950094D01*
X45371081Y-37477435D01*
X45389918Y-37374385D01*
X45267256Y-37160200D01*
X43924600Y-37160200D01*
X43670600Y-37160200D01*
X43650600Y-37160200D01*
X43650600Y-36906200D01*
X43670600Y-36906200D01*
X43670600Y-36886200D01*
X43924600Y-36886200D01*
X43924600Y-36906200D01*
X45267256Y-36906200D01*
X45389918Y-36692015D01*
X45371081Y-36588965D01*
X45100336Y-36116306D01*
X44669321Y-35783236D01*
X44615761Y-35768689D01*
X45058975Y-35472543D01*
X45222240Y-35228200D01*
X45415554Y-35228200D01*
X48146677Y-37959324D01*
X48385128Y-38118651D01*
X48666400Y-38174600D01*
X49862424Y-38174600D01*
X49870782Y-38194829D01*
X50245996Y-38570698D01*
X50736487Y-38774368D01*
X51181000Y-38774756D01*
X51181000Y-58928000D01*
X51191006Y-58977410D01*
X51219447Y-59019035D01*
X51261841Y-59046315D01*
X51308000Y-59055000D01*
X54737000Y-59055000D01*
X54737000Y-84075200D01*
X35152400Y-84075200D01*
X35152400Y-28192800D01*
X42896992Y-28192800D01*
X42536225Y-28433857D01*
X42536225Y-28433857D01*
G37*
X42536225Y-28433857D02*
X42235995Y-28883183D01*
X42130568Y-29413200D01*
X42235995Y-29943217D01*
X42536225Y-30392543D01*
X42971224Y-30683200D01*
X42536225Y-30973857D01*
X42235995Y-31423183D01*
X42130568Y-31953200D01*
X42235995Y-32483217D01*
X42536225Y-32932543D01*
X42971224Y-33223200D01*
X42536225Y-33513857D01*
X42235995Y-33963183D01*
X42130568Y-34493200D01*
X42174366Y-34713387D01*
X40933077Y-35954677D01*
X40773749Y-36193128D01*
X40717800Y-36474400D01*
X40717800Y-36944015D01*
X40449147Y-36541946D01*
X40108447Y-36314298D01*
X40251358Y-36247183D01*
X40641645Y-35818924D01*
X40811476Y-35408890D01*
X40690155Y-35179000D01*
X39497000Y-35179000D01*
X39497000Y-35199000D01*
X39243000Y-35199000D01*
X39243000Y-35179000D01*
X39223000Y-35179000D01*
X39223000Y-34925000D01*
X39243000Y-34925000D01*
X39243000Y-32639000D01*
X39497000Y-32639000D01*
X39497000Y-34925000D01*
X40690155Y-34925000D01*
X40811476Y-34695110D01*
X40641645Y-34285076D01*
X40251358Y-33856817D01*
X40092046Y-33782000D01*
X40251358Y-33707183D01*
X40641645Y-33278924D01*
X40811476Y-32868890D01*
X40690155Y-32639000D01*
X39497000Y-32639000D01*
X39243000Y-32639000D01*
X39223000Y-32639000D01*
X39223000Y-32385000D01*
X39243000Y-32385000D01*
X39243000Y-31191181D01*
X39497000Y-31191181D01*
X39497000Y-32385000D01*
X40690155Y-32385000D01*
X40811476Y-32155110D01*
X40641645Y-31745076D01*
X40251358Y-31316817D01*
X39726892Y-31070514D01*
X39497000Y-31191181D01*
X39243000Y-31191181D01*
X39013108Y-31070514D01*
X38488642Y-31316817D01*
X38301192Y-31522504D01*
X38283162Y-31426683D01*
X38144090Y-31210559D01*
X37931890Y-31065569D01*
X37680000Y-31014560D01*
X35980000Y-31014560D01*
X35744683Y-31058838D01*
X35528559Y-31197910D01*
X35383569Y-31410110D01*
X35332560Y-31662000D01*
X35332560Y-33362000D01*
X35376838Y-33597317D01*
X35515910Y-33813441D01*
X35728110Y-33958431D01*
X35795541Y-33972086D01*
X35750853Y-34001946D01*
X35428946Y-34483715D01*
X35315907Y-35052000D01*
X35428946Y-35620285D01*
X35750853Y-36102054D01*
X36080026Y-36322000D01*
X35750853Y-36541946D01*
X35428946Y-37023715D01*
X35315907Y-37592000D01*
X35428946Y-38160285D01*
X35750853Y-38642054D01*
X36080026Y-38862000D01*
X35750853Y-39081946D01*
X35428946Y-39563715D01*
X35315907Y-40132000D01*
X35428946Y-40700285D01*
X35750853Y-41182054D01*
X36080026Y-41402000D01*
X35750853Y-41621946D01*
X35428946Y-42103715D01*
X35315907Y-42672000D01*
X35428946Y-43240285D01*
X35750853Y-43722054D01*
X36080026Y-43942000D01*
X35750853Y-44161946D01*
X35428946Y-44643715D01*
X35315907Y-45212000D01*
X35428946Y-45780285D01*
X35750853Y-46262054D01*
X36080026Y-46482000D01*
X35750853Y-46701946D01*
X35428946Y-47183715D01*
X35315907Y-47752000D01*
X35428946Y-48320285D01*
X35750853Y-48802054D01*
X36080026Y-49022000D01*
X35750853Y-49241946D01*
X35428946Y-49723715D01*
X35315907Y-50292000D01*
X35428946Y-50860285D01*
X35750853Y-51342054D01*
X36080026Y-51562000D01*
X35750853Y-51781946D01*
X35428946Y-52263715D01*
X35315907Y-52832000D01*
X35428946Y-53400285D01*
X35750853Y-53882054D01*
X36080026Y-54102000D01*
X35750853Y-54321946D01*
X35428946Y-54803715D01*
X35315907Y-55372000D01*
X35428946Y-55940285D01*
X35750853Y-56422054D01*
X36080026Y-56642000D01*
X35750853Y-56861946D01*
X35428946Y-57343715D01*
X35315907Y-57912000D01*
X35428946Y-58480285D01*
X35750853Y-58962054D01*
X36080026Y-59182000D01*
X35750853Y-59401946D01*
X35428946Y-59883715D01*
X35315907Y-60452000D01*
X35428946Y-61020285D01*
X35750853Y-61502054D01*
X36080026Y-61722000D01*
X35750853Y-61941946D01*
X35428946Y-62423715D01*
X35315907Y-62992000D01*
X35428946Y-63560285D01*
X35750853Y-64042054D01*
X36080026Y-64262000D01*
X35750853Y-64481946D01*
X35428946Y-64963715D01*
X35315907Y-65532000D01*
X35428946Y-66100285D01*
X35750853Y-66582054D01*
X36080026Y-66802000D01*
X35750853Y-67021946D01*
X35428946Y-67503715D01*
X35315907Y-68072000D01*
X35428946Y-68640285D01*
X35750853Y-69122054D01*
X36080026Y-69342000D01*
X35750853Y-69561946D01*
X35428946Y-70043715D01*
X35315907Y-70612000D01*
X35428946Y-71180285D01*
X35750853Y-71662054D01*
X36080026Y-71882000D01*
X35750853Y-72101946D01*
X35428946Y-72583715D01*
X35315907Y-73152000D01*
X35428946Y-73720285D01*
X35750853Y-74202054D01*
X36080026Y-74422000D01*
X35750853Y-74641946D01*
X35428946Y-75123715D01*
X35315907Y-75692000D01*
X35428946Y-76260285D01*
X35750853Y-76742054D01*
X36080026Y-76962000D01*
X35750853Y-77181946D01*
X35428946Y-77663715D01*
X35315907Y-78232000D01*
X35428946Y-78800285D01*
X35750853Y-79282054D01*
X36080026Y-79502000D01*
X35750853Y-79721946D01*
X35428946Y-80203715D01*
X35315907Y-80772000D01*
X35428946Y-81340285D01*
X35750853Y-81822054D01*
X36232622Y-82143961D01*
X36800907Y-82257000D01*
X36859093Y-82257000D01*
X37427378Y-82143961D01*
X37909147Y-81822054D01*
X38100000Y-81536422D01*
X38290853Y-81822054D01*
X38772622Y-82143961D01*
X39340907Y-82257000D01*
X39399093Y-82257000D01*
X39967378Y-82143961D01*
X40449147Y-81822054D01*
X40659659Y-81507000D01*
X42570400Y-81507000D01*
X42660429Y-81489092D01*
X42631287Y-81635600D01*
X42740520Y-82184751D01*
X43051589Y-82650298D01*
X43517136Y-82961367D01*
X44066287Y-83070600D01*
X44122513Y-83070600D01*
X44671664Y-82961367D01*
X45137211Y-82650298D01*
X45448280Y-82184751D01*
X45488084Y-81984639D01*
X50322496Y-81984639D01*
X50483359Y-82373023D01*
X50859266Y-82787989D01*
X51365359Y-83027514D01*
X51587400Y-82906229D01*
X51587400Y-81762600D01*
X51841400Y-81762600D01*
X51841400Y-82906229D01*
X52063441Y-83027514D01*
X52569534Y-82787989D01*
X52945441Y-82373023D01*
X53106304Y-81984639D01*
X52984315Y-81762600D01*
X51841400Y-81762600D01*
X51587400Y-81762600D01*
X50444485Y-81762600D01*
X50322496Y-81984639D01*
X45488084Y-81984639D01*
X45557513Y-81635600D01*
X45448280Y-81086449D01*
X45348780Y-80937537D01*
X45426923Y-80885323D01*
X46087324Y-80224923D01*
X46246651Y-79986472D01*
X46302600Y-79705200D01*
X46302600Y-67868800D01*
X46246651Y-67587528D01*
X46246651Y-67587527D01*
X46087323Y-67349076D01*
X45487222Y-66748976D01*
X45557513Y-66395600D01*
X45448280Y-65846449D01*
X45137211Y-65380902D01*
X44992935Y-65284499D01*
X45129717Y-65258762D01*
X45345841Y-65119690D01*
X45490831Y-64907490D01*
X45541840Y-64655600D01*
X45541840Y-63855600D01*
X50251287Y-63855600D01*
X50360520Y-64404751D01*
X50671589Y-64870298D01*
X51053675Y-65125600D01*
X50671589Y-65380902D01*
X50360520Y-65846449D01*
X50251287Y-66395600D01*
X50360520Y-66944751D01*
X50671589Y-67410298D01*
X51053675Y-67665600D01*
X50671589Y-67920902D01*
X50360520Y-68386449D01*
X50251287Y-68935600D01*
X50360520Y-69484751D01*
X50671589Y-69950298D01*
X51053675Y-70205600D01*
X50671589Y-70460902D01*
X50360520Y-70926449D01*
X50251287Y-71475600D01*
X50360520Y-72024751D01*
X50671589Y-72490298D01*
X51053675Y-72745600D01*
X50671589Y-73000902D01*
X50360520Y-73466449D01*
X50251287Y-74015600D01*
X50360520Y-74564751D01*
X50671589Y-75030298D01*
X51053675Y-75285600D01*
X50671589Y-75540902D01*
X50360520Y-76006449D01*
X50251287Y-76555600D01*
X50360520Y-77104751D01*
X50671589Y-77570298D01*
X51053675Y-77825600D01*
X50671589Y-78080902D01*
X50360520Y-78546449D01*
X50251287Y-79095600D01*
X50360520Y-79644751D01*
X50671589Y-80110298D01*
X51076103Y-80380586D01*
X50859266Y-80483211D01*
X50483359Y-80898177D01*
X50322496Y-81286561D01*
X50444485Y-81508600D01*
X51587400Y-81508600D01*
X51587400Y-81488600D01*
X51841400Y-81488600D01*
X51841400Y-81508600D01*
X52984315Y-81508600D01*
X53106304Y-81286561D01*
X52945441Y-80898177D01*
X52569534Y-80483211D01*
X52352697Y-80380586D01*
X52757211Y-80110298D01*
X53068280Y-79644751D01*
X53177513Y-79095600D01*
X53068280Y-78546449D01*
X52757211Y-78080902D01*
X52375125Y-77825600D01*
X52757211Y-77570298D01*
X53068280Y-77104751D01*
X53177513Y-76555600D01*
X53068280Y-76006449D01*
X52757211Y-75540902D01*
X52375125Y-75285600D01*
X52757211Y-75030298D01*
X53068280Y-74564751D01*
X53177513Y-74015600D01*
X53068280Y-73466449D01*
X52757211Y-73000902D01*
X52375125Y-72745600D01*
X52757211Y-72490298D01*
X53068280Y-72024751D01*
X53177513Y-71475600D01*
X53068280Y-70926449D01*
X52757211Y-70460902D01*
X52375125Y-70205600D01*
X52757211Y-69950298D01*
X53068280Y-69484751D01*
X53177513Y-68935600D01*
X53068280Y-68386449D01*
X52757211Y-67920902D01*
X52375125Y-67665600D01*
X52757211Y-67410298D01*
X53068280Y-66944751D01*
X53177513Y-66395600D01*
X53068280Y-65846449D01*
X52757211Y-65380902D01*
X52375125Y-65125600D01*
X52757211Y-64870298D01*
X53068280Y-64404751D01*
X53177513Y-63855600D01*
X53068280Y-63306449D01*
X52757211Y-62840902D01*
X52291664Y-62529833D01*
X51742513Y-62420600D01*
X51686287Y-62420600D01*
X51137136Y-62529833D01*
X50671589Y-62840902D01*
X50360520Y-63306449D01*
X50251287Y-63855600D01*
X45541840Y-63855600D01*
X45541840Y-63055600D01*
X45497562Y-62820283D01*
X45358490Y-62604159D01*
X45146290Y-62459169D01*
X44894400Y-62408160D01*
X43294400Y-62408160D01*
X43059083Y-62452438D01*
X42842959Y-62591510D01*
X42697969Y-62803710D01*
X42646960Y-63055600D01*
X42646960Y-64655600D01*
X42691238Y-64890917D01*
X42830310Y-65107041D01*
X43042510Y-65252031D01*
X43197489Y-65283415D01*
X43051589Y-65380902D01*
X42740520Y-65846449D01*
X42631287Y-66395600D01*
X42740520Y-66944751D01*
X43051589Y-67410298D01*
X43433675Y-67665600D01*
X43051589Y-67920902D01*
X42740520Y-68386449D01*
X42631287Y-68935600D01*
X42740520Y-69484751D01*
X43051589Y-69950298D01*
X43359400Y-70155971D01*
X43359400Y-70255229D01*
X43051589Y-70460902D01*
X42740520Y-70926449D01*
X42631287Y-71475600D01*
X42701578Y-71828976D01*
X41593477Y-72937077D01*
X41434149Y-73175528D01*
X41378200Y-73456800D01*
X41378200Y-75387553D01*
X40837000Y-75928754D01*
X40884093Y-75692000D01*
X40771054Y-75123715D01*
X40449147Y-74641946D01*
X40119974Y-74422000D01*
X40449147Y-74202054D01*
X40771054Y-73720285D01*
X40884093Y-73152000D01*
X40771054Y-72583715D01*
X40449147Y-72101946D01*
X40119974Y-71882000D01*
X40449147Y-71662054D01*
X40771054Y-71180285D01*
X40884093Y-70612000D01*
X40771054Y-70043715D01*
X40449147Y-69561946D01*
X40119974Y-69342000D01*
X40449147Y-69122054D01*
X40771054Y-68640285D01*
X40884093Y-68072000D01*
X40771054Y-67503715D01*
X40449147Y-67021946D01*
X40119974Y-66802000D01*
X40449147Y-66582054D01*
X40771054Y-66100285D01*
X40884093Y-65532000D01*
X40771054Y-64963715D01*
X40449147Y-64481946D01*
X40119974Y-64262000D01*
X40449147Y-64042054D01*
X40771054Y-63560285D01*
X40884093Y-62992000D01*
X40771054Y-62423715D01*
X40449147Y-61941946D01*
X40119974Y-61722000D01*
X40449147Y-61502054D01*
X40771054Y-61020285D01*
X40884093Y-60452000D01*
X40771054Y-59883715D01*
X40449147Y-59401946D01*
X40119974Y-59182000D01*
X40449147Y-58962054D01*
X40771054Y-58480285D01*
X40884093Y-57912000D01*
X40771054Y-57343715D01*
X40449147Y-56861946D01*
X40119974Y-56642000D01*
X40449147Y-56422054D01*
X40771054Y-55940285D01*
X40884093Y-55372000D01*
X40771054Y-54803715D01*
X40449147Y-54321946D01*
X40119974Y-54102000D01*
X40449147Y-53882054D01*
X40771054Y-53400285D01*
X40790025Y-53304907D01*
X42831000Y-53304907D01*
X42831000Y-53763093D01*
X42928815Y-54254841D01*
X43207368Y-54671725D01*
X43624252Y-54950278D01*
X44116000Y-55048093D01*
X44607748Y-54950278D01*
X45024632Y-54671725D01*
X45303185Y-54254841D01*
X45401000Y-53763093D01*
X45401000Y-53304907D01*
X45303185Y-52813159D01*
X45024632Y-52396275D01*
X44607748Y-52117722D01*
X44116000Y-52019907D01*
X43624252Y-52117722D01*
X43207368Y-52396275D01*
X42928815Y-52813159D01*
X42831000Y-53304907D01*
X40790025Y-53304907D01*
X40884093Y-52832000D01*
X40771054Y-52263715D01*
X40449147Y-51781946D01*
X40119974Y-51562000D01*
X40449147Y-51342054D01*
X40771054Y-50860285D01*
X40884093Y-50292000D01*
X40771054Y-49723715D01*
X40712872Y-49636639D01*
X40854923Y-49541723D01*
X41972523Y-48424124D01*
X42131851Y-48185672D01*
X42157485Y-48056800D01*
X42187800Y-47904400D01*
X42187800Y-46363480D01*
X42831849Y-46363480D01*
X42979149Y-46845047D01*
X43299524Y-47233588D01*
X43744200Y-47469951D01*
X43790529Y-47477099D01*
X43989000Y-47353067D01*
X43989000Y-46161000D01*
X44243000Y-46161000D01*
X44243000Y-47353067D01*
X44441471Y-47477099D01*
X44487800Y-47469951D01*
X44932476Y-47233588D01*
X45252851Y-46845047D01*
X45400151Y-46363480D01*
X45245846Y-46161000D01*
X44243000Y-46161000D01*
X43989000Y-46161000D01*
X42986154Y-46161000D01*
X42831849Y-46363480D01*
X42187800Y-46363480D01*
X42187800Y-45704520D01*
X42831849Y-45704520D01*
X42986154Y-45907000D01*
X43989000Y-45907000D01*
X43989000Y-44714933D01*
X44243000Y-44714933D01*
X44243000Y-45907000D01*
X45245846Y-45907000D01*
X45400151Y-45704520D01*
X45252851Y-45222953D01*
X44932476Y-44834412D01*
X44487800Y-44598049D01*
X44441471Y-44590901D01*
X44243000Y-44714933D01*
X43989000Y-44714933D01*
X43790529Y-44590901D01*
X43744200Y-44598049D01*
X43299524Y-44834412D01*
X42979149Y-45222953D01*
X42831849Y-45704520D01*
X42187800Y-45704520D01*
X42187800Y-37160202D01*
X42327943Y-37160202D01*
X42205282Y-37374385D01*
X42224119Y-37477435D01*
X42494864Y-37950094D01*
X42925879Y-38283164D01*
X43451545Y-38425939D01*
X43670600Y-38265068D01*
X43670600Y-37160200D01*
X43924600Y-37160200D01*
X43924600Y-38265068D01*
X44143655Y-38425939D01*
X44669321Y-38283164D01*
X45100336Y-37950094D01*
X45371081Y-37477435D01*
X45389918Y-37374385D01*
X45267256Y-37160200D01*
X43924600Y-37160200D01*
X43670600Y-37160200D01*
X43650600Y-37160200D01*
X43650600Y-36906200D01*
X43670600Y-36906200D01*
X43670600Y-36886200D01*
X43924600Y-36886200D01*
X43924600Y-36906200D01*
X45267256Y-36906200D01*
X45389918Y-36692015D01*
X45371081Y-36588965D01*
X45100336Y-36116306D01*
X44669321Y-35783236D01*
X44615761Y-35768689D01*
X45058975Y-35472543D01*
X45222240Y-35228200D01*
X45415554Y-35228200D01*
X48146677Y-37959324D01*
X48385128Y-38118651D01*
X48666400Y-38174600D01*
X49862424Y-38174600D01*
X49870782Y-38194829D01*
X50245996Y-38570698D01*
X50736487Y-38774368D01*
X51181000Y-38774756D01*
X51181000Y-58928000D01*
X51191006Y-58977410D01*
X51219447Y-59019035D01*
X51261841Y-59046315D01*
X51308000Y-59055000D01*
X54737000Y-59055000D01*
X54737000Y-84075200D01*
X35152400Y-84075200D01*
X35152400Y-28192800D01*
X42896992Y-28192800D01*
X42536225Y-28433857D01*
G36*
X51181000Y-28619858D02*
X51130200Y-28650226D01*
X51130200Y-29692600D01*
X51150200Y-29692600D01*
X51150200Y-29946600D01*
X51130200Y-29946600D01*
X51130200Y-30988974D01*
X51181000Y-31019342D01*
X51181000Y-36104754D01*
X50738817Y-36104369D01*
X50247971Y-36307182D01*
X49872102Y-36682396D01*
X49862882Y-36704600D01*
X48970847Y-36704600D01*
X46239723Y-33973477D01*
X46001272Y-33814149D01*
X45997713Y-33813441D01*
X45720000Y-33758200D01*
X45222240Y-33758200D01*
X45058975Y-33513857D01*
X44623976Y-33223200D01*
X45058975Y-32932543D01*
X45359205Y-32483217D01*
X45464632Y-31953200D01*
X45359205Y-31423183D01*
X45058975Y-30973857D01*
X44623976Y-30683200D01*
X45058975Y-30392543D01*
X45219078Y-30152931D01*
X49710473Y-30152931D01*
X49936436Y-30622263D01*
X50324804Y-30969397D01*
X50669871Y-31112316D01*
X50876200Y-30988974D01*
X50876200Y-29946600D01*
X49832994Y-29946600D01*
X49710473Y-30152931D01*
X45219078Y-30152931D01*
X45359205Y-29943217D01*
X45450097Y-29486269D01*
X49710473Y-29486269D01*
X49832994Y-29692600D01*
X50876200Y-29692600D01*
X50876200Y-28650226D01*
X50669871Y-28526884D01*
X50324804Y-28669803D01*
X49936436Y-29016937D01*
X49710473Y-29486269D01*
X45450097Y-29486269D01*
X45464632Y-29413200D01*
X45359205Y-28883183D01*
X45058975Y-28433857D01*
X44698208Y-28192800D01*
X51181000Y-28192800D01*
X51181000Y-28619858D01*
X51181000Y-28619858D01*
G37*
X51181000Y-28619858D02*
X51130200Y-28650226D01*
X51130200Y-29692600D01*
X51150200Y-29692600D01*
X51150200Y-29946600D01*
X51130200Y-29946600D01*
X51130200Y-30988974D01*
X51181000Y-31019342D01*
X51181000Y-36104754D01*
X50738817Y-36104369D01*
X50247971Y-36307182D01*
X49872102Y-36682396D01*
X49862882Y-36704600D01*
X48970847Y-36704600D01*
X46239723Y-33973477D01*
X46001272Y-33814149D01*
X45997713Y-33813441D01*
X45720000Y-33758200D01*
X45222240Y-33758200D01*
X45058975Y-33513857D01*
X44623976Y-33223200D01*
X45058975Y-32932543D01*
X45359205Y-32483217D01*
X45464632Y-31953200D01*
X45359205Y-31423183D01*
X45058975Y-30973857D01*
X44623976Y-30683200D01*
X45058975Y-30392543D01*
X45219078Y-30152931D01*
X49710473Y-30152931D01*
X49936436Y-30622263D01*
X50324804Y-30969397D01*
X50669871Y-31112316D01*
X50876200Y-30988974D01*
X50876200Y-29946600D01*
X49832994Y-29946600D01*
X49710473Y-30152931D01*
X45219078Y-30152931D01*
X45359205Y-29943217D01*
X45450097Y-29486269D01*
X49710473Y-29486269D01*
X49832994Y-29692600D01*
X50876200Y-29692600D01*
X50876200Y-28650226D01*
X50669871Y-28526884D01*
X50324804Y-28669803D01*
X49936436Y-29016937D01*
X49710473Y-29486269D01*
X45450097Y-29486269D01*
X45464632Y-29413200D01*
X45359205Y-28883183D01*
X45058975Y-28433857D01*
X44698208Y-28192800D01*
X51181000Y-28192800D01*
X51181000Y-28619858D01*
M02*
