G04 #@! TF.FileFunction,Profile,NP*
%FSLAX46Y46*%
G04 Gerber Fmt 4.6, Leading zero omitted, Abs format (unit mm)*
G04 Created by KiCad (PCBNEW 4.0.7) date 12/06/18 03:02:26*
%MOMM*%
%LPD*%
G01*
G04 APERTURE LIST*
%ADD10C,0.100000*%
%ADD11C,0.150000*%
G04 APERTURE END LIST*
D10*
D11*
X82194400Y-56794400D02*
X82194400Y-65278000D01*
X78232000Y-56794400D02*
X82194400Y-56794400D01*
X78232000Y-61569600D02*
X78232000Y-56794400D01*
X78232000Y-54356000D02*
X82194400Y-54356000D01*
X82194400Y-50393600D02*
X82194400Y-54356000D01*
X75946000Y-54356000D02*
X78232000Y-54356000D01*
X75946000Y-61569600D02*
X75946000Y-54356000D01*
X78232000Y-61569600D02*
X75946000Y-61569600D01*
X82194400Y-67818000D02*
X82194400Y-84785200D01*
X77673200Y-67818000D02*
X82194400Y-67818000D01*
X77673200Y-65278000D02*
X77673200Y-67818000D01*
X82194400Y-65278000D02*
X77673200Y-65278000D01*
X82194400Y-27482800D02*
X82194400Y-48056800D01*
X76657200Y-50393600D02*
X82194400Y-50393600D01*
X76657200Y-48056800D02*
X76657200Y-50393600D01*
X82194400Y-48056800D02*
X76657200Y-48056800D01*
X76301600Y-48310800D02*
X76301600Y-48260000D01*
X34442400Y-27482800D02*
X34442400Y-30022800D01*
X82194400Y-27482800D02*
X34442400Y-27482800D01*
X34442400Y-84785200D02*
X82194400Y-84785200D01*
X34442400Y-30022800D02*
X34442400Y-84785200D01*
M02*
