M48
INCH,TZ
T1C0.031
T2C0.035
T3C0.047
T4C0.051
T5C0.060
T6C0.071
%
G90
G05
T1
X40900Y-28960
X40900Y-29960
X40900Y-30960
X43850Y-28800
X43850Y-31800
X44590Y-33570
X44590Y-34554
X45510Y-28800
X45510Y-29800
X45510Y-30800
X45510Y-31800
X46730Y-33340
X46730Y-34324
X48510Y-28800
X48510Y-29800
X48510Y-30800
X48510Y-31800
X49930Y-30820
X52930Y-30820
T2
X42410Y-31260
X42410Y-35260
X49940Y-29080
X49940Y-32430
X53940Y-29080
X53940Y-32430
T3
X48216Y-34610
X49200Y-34610
X50200Y-34610
T4
X56960Y-29573
X56960Y-31541
X56960Y-33510
T5
X40650Y-32850
X40650Y-34850
T6
X52000Y-34680
X53551Y-34680
T0
M30
