G04 #@! TF.FileFunction,Copper,L2,Bot,Signal*
%FSLAX46Y46*%
G04 Gerber Fmt 4.6, Leading zero omitted, Abs format (unit mm)*
G04 Created by KiCad (PCBNEW 4.0.7-e2-6376~58~ubuntu16.04.1) date Mon Jan 22 09:02:58 2018*
%MOMM*%
%LPD*%
G01*
G04 APERTURE LIST*
%ADD10C,0.100000*%
%ADD11C,1.600000*%
%ADD12R,1.600000X1.600000*%
%ADD13R,3.000000X3.000000*%
%ADD14C,3.000000*%
%ADD15C,1.520000*%
%ADD16R,1.520000X1.520000*%
%ADD17O,1.600000X1.600000*%
%ADD18C,2.340000*%
%ADD19R,2.500000X2.500000*%
%ADD20R,1.800000X1.800000*%
%ADD21O,1.800000X1.800000*%
%ADD22C,0.250000*%
%ADD23C,0.254000*%
G04 APERTURE END LIST*
D10*
D11*
X126339600Y-85547200D03*
X126339600Y-88047200D03*
D12*
X113258600Y-85267800D03*
D11*
X113258600Y-87767800D03*
D13*
X103251000Y-88519000D03*
D14*
X103251000Y-83439000D03*
D15*
X106426000Y-76327000D03*
X103886000Y-78867000D03*
D16*
X103886000Y-73787000D03*
D11*
X111379000Y-80772000D03*
D17*
X111379000Y-73152000D03*
D11*
X134442200Y-78282800D03*
D17*
X126822200Y-78282800D03*
D18*
X146024600Y-74201000D03*
X146024600Y-79201000D03*
X146024600Y-84201000D03*
D12*
X115595400Y-73152000D03*
D17*
X123215400Y-80772000D03*
X115595400Y-75692000D03*
X123215400Y-78232000D03*
X115595400Y-78232000D03*
X123215400Y-75692000D03*
X115595400Y-80772000D03*
X123215400Y-73152000D03*
D19*
X131099100Y-86944200D03*
X135039100Y-86944200D03*
D20*
X137007600Y-73939400D03*
D21*
X126847600Y-73939400D03*
D20*
X126720600Y-82448400D03*
D21*
X136880600Y-82448400D03*
D20*
X108432600Y-88734900D03*
D21*
X108432600Y-78574900D03*
D22*
X123215400Y-80772000D02*
X123215400Y-82423000D01*
X123215400Y-82423000D02*
X126339600Y-85547200D01*
X123215400Y-78232000D02*
X122885200Y-78232000D01*
X122885200Y-78232000D02*
X115849400Y-85267800D01*
X115849400Y-85267800D02*
X113258600Y-85267800D01*
X123215400Y-78232000D02*
X118135400Y-78232000D01*
X118135400Y-78232000D02*
X115595400Y-75692000D01*
X137007600Y-73939400D02*
X145763000Y-73939400D01*
X145763000Y-73939400D02*
X146024600Y-74201000D01*
X134442200Y-78282800D02*
X130886200Y-78282800D01*
X130886200Y-78282800D02*
X126720600Y-82448400D01*
X126847600Y-73939400D02*
X130098800Y-73939400D01*
X130098800Y-73939400D02*
X134442200Y-78282800D01*
X123215400Y-75692000D02*
X125095000Y-75692000D01*
X125095000Y-75692000D02*
X126847600Y-73939400D01*
X146024600Y-84201000D02*
X138633200Y-84201000D01*
X138633200Y-84201000D02*
X136880600Y-82448400D01*
X115595400Y-78232000D02*
X114427000Y-78232000D01*
X111379000Y-75184000D02*
X111379000Y-73152000D01*
X114427000Y-78232000D02*
X111379000Y-75184000D01*
X106426000Y-76327000D02*
X106426000Y-79375000D01*
X107823000Y-80772000D02*
X111379000Y-80772000D01*
X106426000Y-79375000D02*
X107823000Y-80772000D01*
D23*
G36*
X110364302Y-72109189D02*
X110053233Y-72574736D01*
X109944000Y-73123887D01*
X109944000Y-73180113D01*
X110053233Y-73729264D01*
X110364302Y-74194811D01*
X110619000Y-74364995D01*
X110619000Y-75184000D01*
X110676852Y-75474839D01*
X110841599Y-75721401D01*
X113889599Y-78769401D01*
X114136161Y-78934148D01*
X114375569Y-78981770D01*
X114552589Y-79246698D01*
X114934675Y-79502000D01*
X114552589Y-79757302D01*
X114241520Y-80222849D01*
X114132287Y-80772000D01*
X114241520Y-81321151D01*
X114552589Y-81786698D01*
X115018136Y-82097767D01*
X115567287Y-82207000D01*
X115623513Y-82207000D01*
X116172664Y-82097767D01*
X116638211Y-81786698D01*
X116949280Y-81321151D01*
X117058513Y-80772000D01*
X116949280Y-80222849D01*
X116638211Y-79757302D01*
X116256125Y-79502000D01*
X116638211Y-79246698D01*
X116949280Y-78781151D01*
X117058513Y-78232000D01*
X117057995Y-78229397D01*
X117597999Y-78769401D01*
X117844560Y-78934148D01*
X117892814Y-78943746D01*
X118135400Y-78992000D01*
X121050398Y-78992000D01*
X115534598Y-84507800D01*
X114706040Y-84507800D01*
X114706040Y-84467800D01*
X114661762Y-84232483D01*
X114522690Y-84016359D01*
X114310490Y-83871369D01*
X114058600Y-83820360D01*
X112458600Y-83820360D01*
X112223283Y-83864638D01*
X112007159Y-84003710D01*
X111862169Y-84215910D01*
X111811160Y-84467800D01*
X111811160Y-86067800D01*
X111855438Y-86303117D01*
X111994510Y-86519241D01*
X112206710Y-86664231D01*
X112444801Y-86712446D01*
X112430461Y-86760055D01*
X113258600Y-87588195D01*
X114086739Y-86760055D01*
X114072455Y-86712633D01*
X114293917Y-86670962D01*
X114510041Y-86531890D01*
X114655031Y-86319690D01*
X114706040Y-86067800D01*
X114706040Y-86027800D01*
X115849400Y-86027800D01*
X116140239Y-85969948D01*
X116386801Y-85805201D01*
X121834794Y-80357208D01*
X121752287Y-80772000D01*
X121861520Y-81321151D01*
X122172589Y-81786698D01*
X122455400Y-81975667D01*
X122455400Y-82423000D01*
X122513252Y-82713839D01*
X122677999Y-82960401D01*
X124926344Y-85208746D01*
X124904850Y-85260509D01*
X124904352Y-85831387D01*
X125122357Y-86359000D01*
X125525677Y-86763024D01*
X125592144Y-86790623D01*
X125585595Y-86793336D01*
X125511461Y-87039455D01*
X126339600Y-87867595D01*
X127167739Y-87039455D01*
X127093605Y-86793336D01*
X127087117Y-86791004D01*
X127151400Y-86764443D01*
X127555424Y-86361123D01*
X127774350Y-85833891D01*
X127774582Y-85567890D01*
X129214100Y-85567890D01*
X129214100Y-86658450D01*
X129372850Y-86817200D01*
X130972100Y-86817200D01*
X130972100Y-85217950D01*
X131226100Y-85217950D01*
X131226100Y-86817200D01*
X132825350Y-86817200D01*
X132984100Y-86658450D01*
X132984100Y-85694200D01*
X133141660Y-85694200D01*
X133141660Y-88194200D01*
X133185938Y-88429517D01*
X133325010Y-88645641D01*
X133537210Y-88790631D01*
X133789100Y-88841640D01*
X136289100Y-88841640D01*
X136524417Y-88797362D01*
X136740541Y-88658290D01*
X136885531Y-88446090D01*
X136936540Y-88194200D01*
X136936540Y-85694200D01*
X136892262Y-85458883D01*
X136753190Y-85242759D01*
X136540990Y-85097769D01*
X136289100Y-85046760D01*
X133789100Y-85046760D01*
X133553783Y-85091038D01*
X133337659Y-85230110D01*
X133192669Y-85442310D01*
X133141660Y-85694200D01*
X132984100Y-85694200D01*
X132984100Y-85567890D01*
X132887427Y-85334501D01*
X132708798Y-85155873D01*
X132475409Y-85059200D01*
X131384850Y-85059200D01*
X131226100Y-85217950D01*
X130972100Y-85217950D01*
X130813350Y-85059200D01*
X129722791Y-85059200D01*
X129489402Y-85155873D01*
X129310773Y-85334501D01*
X129214100Y-85567890D01*
X127774582Y-85567890D01*
X127774848Y-85263013D01*
X127556843Y-84735400D01*
X127153523Y-84331376D01*
X126626291Y-84112450D01*
X126055413Y-84111952D01*
X126001451Y-84134249D01*
X125863042Y-83995840D01*
X127620600Y-83995840D01*
X127855917Y-83951562D01*
X128072041Y-83812490D01*
X128217031Y-83600290D01*
X128268040Y-83348400D01*
X128268040Y-82448400D01*
X135315528Y-82448400D01*
X135432373Y-83035819D01*
X135765119Y-83533809D01*
X136263109Y-83866555D01*
X136850528Y-83983400D01*
X136910672Y-83983400D01*
X137269435Y-83912037D01*
X138095799Y-84738401D01*
X138342361Y-84903148D01*
X138633200Y-84961000D01*
X144385612Y-84961000D01*
X144493503Y-85222115D01*
X145000815Y-85730312D01*
X145663988Y-86005686D01*
X146382062Y-86006313D01*
X147045715Y-85732097D01*
X147553912Y-85224785D01*
X147829286Y-84561612D01*
X147829913Y-83843538D01*
X147555697Y-83179885D01*
X147048385Y-82671688D01*
X146385212Y-82396314D01*
X145667138Y-82395687D01*
X145003485Y-82669903D01*
X144495288Y-83177215D01*
X144385755Y-83441000D01*
X138948002Y-83441000D01*
X138364331Y-82857329D01*
X138445672Y-82448400D01*
X138328827Y-81860981D01*
X137996081Y-81362991D01*
X137498091Y-81030245D01*
X136910672Y-80913400D01*
X136850528Y-80913400D01*
X136263109Y-81030245D01*
X135765119Y-81362991D01*
X135432373Y-81860981D01*
X135315528Y-82448400D01*
X128268040Y-82448400D01*
X128268040Y-81975762D01*
X131201002Y-79042800D01*
X133203554Y-79042800D01*
X133224957Y-79094600D01*
X133628277Y-79498624D01*
X134155509Y-79717550D01*
X134726387Y-79718048D01*
X135112615Y-79558462D01*
X144219287Y-79558462D01*
X144493503Y-80222115D01*
X145000815Y-80730312D01*
X145663988Y-81005686D01*
X146382062Y-81006313D01*
X147045715Y-80732097D01*
X147553912Y-80224785D01*
X147829286Y-79561612D01*
X147829913Y-78843538D01*
X147555697Y-78179885D01*
X147048385Y-77671688D01*
X146385212Y-77396314D01*
X145667138Y-77395687D01*
X145003485Y-77669903D01*
X144495288Y-78177215D01*
X144219914Y-78840388D01*
X144219287Y-79558462D01*
X135112615Y-79558462D01*
X135254000Y-79500043D01*
X135658024Y-79096723D01*
X135876950Y-78569491D01*
X135877448Y-77998613D01*
X135659443Y-77471000D01*
X135256123Y-77066976D01*
X134728891Y-76848050D01*
X134158013Y-76847552D01*
X134104051Y-76869849D01*
X130636201Y-73401999D01*
X130389639Y-73237252D01*
X130098800Y-73179400D01*
X128180512Y-73179400D01*
X128086968Y-73039400D01*
X135460160Y-73039400D01*
X135460160Y-74839400D01*
X135504438Y-75074717D01*
X135643510Y-75290841D01*
X135855710Y-75435831D01*
X136107600Y-75486840D01*
X137907600Y-75486840D01*
X138142917Y-75442562D01*
X138359041Y-75303490D01*
X138504031Y-75091290D01*
X138555040Y-74839400D01*
X138555040Y-74699400D01*
X144277521Y-74699400D01*
X144493503Y-75222115D01*
X145000815Y-75730312D01*
X145663988Y-76005686D01*
X146382062Y-76006313D01*
X147045715Y-75732097D01*
X147553912Y-75224785D01*
X147829286Y-74561612D01*
X147829913Y-73843538D01*
X147555697Y-73179885D01*
X147048385Y-72671688D01*
X146385212Y-72396314D01*
X145667138Y-72395687D01*
X145003485Y-72669903D01*
X144495288Y-73177215D01*
X144494381Y-73179400D01*
X138555040Y-73179400D01*
X138555040Y-73039400D01*
X138510762Y-72804083D01*
X138371690Y-72587959D01*
X138159490Y-72442969D01*
X137907600Y-72391960D01*
X136107600Y-72391960D01*
X135872283Y-72436238D01*
X135656159Y-72575310D01*
X135511169Y-72787510D01*
X135460160Y-73039400D01*
X128086968Y-73039400D01*
X127963081Y-72853991D01*
X127465091Y-72521245D01*
X126877672Y-72404400D01*
X126817528Y-72404400D01*
X126230109Y-72521245D01*
X125732119Y-72853991D01*
X125399373Y-73351981D01*
X125282528Y-73939400D01*
X125363869Y-74348329D01*
X124780198Y-74932000D01*
X124428395Y-74932000D01*
X124258211Y-74677302D01*
X123876125Y-74422000D01*
X124258211Y-74166698D01*
X124569280Y-73701151D01*
X124678513Y-73152000D01*
X124569280Y-72602849D01*
X124258211Y-72137302D01*
X124102412Y-72033200D01*
X148565800Y-72033200D01*
X148565800Y-90056900D01*
X109812800Y-90056900D01*
X109929031Y-89886790D01*
X109980040Y-89634900D01*
X109980040Y-88775545D01*
X112430461Y-88775545D01*
X112504595Y-89021664D01*
X113041823Y-89214765D01*
X113612054Y-89187578D01*
X113932257Y-89054945D01*
X125511461Y-89054945D01*
X125585595Y-89301064D01*
X126122823Y-89494165D01*
X126693054Y-89466978D01*
X127093605Y-89301064D01*
X127167739Y-89054945D01*
X126339600Y-88226805D01*
X125511461Y-89054945D01*
X113932257Y-89054945D01*
X114012605Y-89021664D01*
X114086739Y-88775545D01*
X113258600Y-87947405D01*
X112430461Y-88775545D01*
X109980040Y-88775545D01*
X109980040Y-87834900D01*
X109935762Y-87599583D01*
X109904515Y-87551023D01*
X111811635Y-87551023D01*
X111838822Y-88121254D01*
X112004736Y-88521805D01*
X112250855Y-88595939D01*
X113078995Y-87767800D01*
X113438205Y-87767800D01*
X114266345Y-88595939D01*
X114512464Y-88521805D01*
X114705565Y-87984577D01*
X114698216Y-87830423D01*
X124892635Y-87830423D01*
X124919822Y-88400654D01*
X125085736Y-88801205D01*
X125331855Y-88875339D01*
X126159995Y-88047200D01*
X126519205Y-88047200D01*
X127347345Y-88875339D01*
X127593464Y-88801205D01*
X127786565Y-88263977D01*
X127759378Y-87693746D01*
X127593464Y-87293195D01*
X127383496Y-87229950D01*
X129214100Y-87229950D01*
X129214100Y-88320510D01*
X129310773Y-88553899D01*
X129489402Y-88732527D01*
X129722791Y-88829200D01*
X130813350Y-88829200D01*
X130972100Y-88670450D01*
X130972100Y-87071200D01*
X131226100Y-87071200D01*
X131226100Y-88670450D01*
X131384850Y-88829200D01*
X132475409Y-88829200D01*
X132708798Y-88732527D01*
X132887427Y-88553899D01*
X132984100Y-88320510D01*
X132984100Y-87229950D01*
X132825350Y-87071200D01*
X131226100Y-87071200D01*
X130972100Y-87071200D01*
X129372850Y-87071200D01*
X129214100Y-87229950D01*
X127383496Y-87229950D01*
X127347345Y-87219061D01*
X126519205Y-88047200D01*
X126159995Y-88047200D01*
X125331855Y-87219061D01*
X125085736Y-87293195D01*
X124892635Y-87830423D01*
X114698216Y-87830423D01*
X114678378Y-87414346D01*
X114512464Y-87013795D01*
X114266345Y-86939661D01*
X113438205Y-87767800D01*
X113078995Y-87767800D01*
X112250855Y-86939661D01*
X112004736Y-87013795D01*
X111811635Y-87551023D01*
X109904515Y-87551023D01*
X109796690Y-87383459D01*
X109584490Y-87238469D01*
X109332600Y-87187460D01*
X107532600Y-87187460D01*
X107297283Y-87231738D01*
X107081159Y-87370810D01*
X106936169Y-87583010D01*
X106885160Y-87834900D01*
X106885160Y-89634900D01*
X106929438Y-89870217D01*
X107049565Y-90056900D01*
X105390765Y-90056900D01*
X105398440Y-90019000D01*
X105398440Y-87019000D01*
X105354162Y-86783683D01*
X105215090Y-86567559D01*
X105002890Y-86422569D01*
X104751000Y-86371560D01*
X101751000Y-86371560D01*
X101515683Y-86415838D01*
X101299559Y-86554910D01*
X101167000Y-86748917D01*
X101167000Y-83986140D01*
X101439980Y-84646800D01*
X102040041Y-85247909D01*
X102824459Y-85573628D01*
X103673815Y-85574370D01*
X104458800Y-85250020D01*
X105059909Y-84649959D01*
X105385628Y-83865541D01*
X105386370Y-83016185D01*
X105062020Y-82231200D01*
X104461959Y-81630091D01*
X103677541Y-81304372D01*
X102828185Y-81303630D01*
X102043200Y-81627980D01*
X101442091Y-82228041D01*
X101167000Y-82890533D01*
X101167000Y-79143265D01*
X102490758Y-79143265D01*
X102702687Y-79656172D01*
X103094764Y-80048934D01*
X103607300Y-80261758D01*
X104162265Y-80262242D01*
X104675172Y-80050313D01*
X105067934Y-79658236D01*
X105280758Y-79145700D01*
X105281242Y-78590735D01*
X105069313Y-78077828D01*
X104677236Y-77685066D01*
X104164700Y-77472242D01*
X103609735Y-77471758D01*
X103096828Y-77683687D01*
X102704066Y-78075764D01*
X102491242Y-78588300D01*
X102490758Y-79143265D01*
X101167000Y-79143265D01*
X101167000Y-76603265D01*
X105030758Y-76603265D01*
X105242687Y-77116172D01*
X105634764Y-77508934D01*
X105666000Y-77521904D01*
X105666000Y-79375000D01*
X105723852Y-79665839D01*
X105888599Y-79912401D01*
X107285599Y-81309401D01*
X107532160Y-81474148D01*
X107823000Y-81532000D01*
X110140354Y-81532000D01*
X110161757Y-81583800D01*
X110565077Y-81987824D01*
X111092309Y-82206750D01*
X111663187Y-82207248D01*
X112190800Y-81989243D01*
X112594824Y-81585923D01*
X112813750Y-81058691D01*
X112814248Y-80487813D01*
X112596243Y-79960200D01*
X112192923Y-79556176D01*
X111665691Y-79337250D01*
X111094813Y-79336752D01*
X110567200Y-79554757D01*
X110163176Y-79958077D01*
X110140785Y-80012000D01*
X109036672Y-80012000D01*
X109518009Y-79690381D01*
X109850755Y-79192391D01*
X109967600Y-78604972D01*
X109967600Y-78544828D01*
X109850755Y-77957409D01*
X109518009Y-77459419D01*
X109020019Y-77126673D01*
X108432600Y-77009828D01*
X107845181Y-77126673D01*
X107347191Y-77459419D01*
X107186000Y-77700659D01*
X107186000Y-77522367D01*
X107215172Y-77510313D01*
X107607934Y-77118236D01*
X107820758Y-76605700D01*
X107821242Y-76050735D01*
X107609313Y-75537828D01*
X107217236Y-75145066D01*
X106704700Y-74932242D01*
X106149735Y-74931758D01*
X105636828Y-75143687D01*
X105244066Y-75535764D01*
X105031242Y-76048300D01*
X105030758Y-76603265D01*
X101167000Y-76603265D01*
X101167000Y-74072750D01*
X102491000Y-74072750D01*
X102491000Y-74673310D01*
X102587673Y-74906699D01*
X102766302Y-75085327D01*
X102999691Y-75182000D01*
X103600250Y-75182000D01*
X103759000Y-75023250D01*
X103759000Y-73914000D01*
X104013000Y-73914000D01*
X104013000Y-75023250D01*
X104171750Y-75182000D01*
X104772309Y-75182000D01*
X105005698Y-75085327D01*
X105184327Y-74906699D01*
X105281000Y-74673310D01*
X105281000Y-74072750D01*
X105122250Y-73914000D01*
X104013000Y-73914000D01*
X103759000Y-73914000D01*
X102649750Y-73914000D01*
X102491000Y-74072750D01*
X101167000Y-74072750D01*
X101167000Y-72900690D01*
X102491000Y-72900690D01*
X102491000Y-73501250D01*
X102649750Y-73660000D01*
X103759000Y-73660000D01*
X103759000Y-72550750D01*
X104013000Y-72550750D01*
X104013000Y-73660000D01*
X105122250Y-73660000D01*
X105281000Y-73501250D01*
X105281000Y-72900690D01*
X105184327Y-72667301D01*
X105005698Y-72488673D01*
X104772309Y-72392000D01*
X104171750Y-72392000D01*
X104013000Y-72550750D01*
X103759000Y-72550750D01*
X103600250Y-72392000D01*
X102999691Y-72392000D01*
X102766302Y-72488673D01*
X102587673Y-72667301D01*
X102491000Y-72900690D01*
X101167000Y-72900690D01*
X101167000Y-72033200D01*
X110478027Y-72033200D01*
X110364302Y-72109189D01*
X110364302Y-72109189D01*
G37*
X110364302Y-72109189D02*
X110053233Y-72574736D01*
X109944000Y-73123887D01*
X109944000Y-73180113D01*
X110053233Y-73729264D01*
X110364302Y-74194811D01*
X110619000Y-74364995D01*
X110619000Y-75184000D01*
X110676852Y-75474839D01*
X110841599Y-75721401D01*
X113889599Y-78769401D01*
X114136161Y-78934148D01*
X114375569Y-78981770D01*
X114552589Y-79246698D01*
X114934675Y-79502000D01*
X114552589Y-79757302D01*
X114241520Y-80222849D01*
X114132287Y-80772000D01*
X114241520Y-81321151D01*
X114552589Y-81786698D01*
X115018136Y-82097767D01*
X115567287Y-82207000D01*
X115623513Y-82207000D01*
X116172664Y-82097767D01*
X116638211Y-81786698D01*
X116949280Y-81321151D01*
X117058513Y-80772000D01*
X116949280Y-80222849D01*
X116638211Y-79757302D01*
X116256125Y-79502000D01*
X116638211Y-79246698D01*
X116949280Y-78781151D01*
X117058513Y-78232000D01*
X117057995Y-78229397D01*
X117597999Y-78769401D01*
X117844560Y-78934148D01*
X117892814Y-78943746D01*
X118135400Y-78992000D01*
X121050398Y-78992000D01*
X115534598Y-84507800D01*
X114706040Y-84507800D01*
X114706040Y-84467800D01*
X114661762Y-84232483D01*
X114522690Y-84016359D01*
X114310490Y-83871369D01*
X114058600Y-83820360D01*
X112458600Y-83820360D01*
X112223283Y-83864638D01*
X112007159Y-84003710D01*
X111862169Y-84215910D01*
X111811160Y-84467800D01*
X111811160Y-86067800D01*
X111855438Y-86303117D01*
X111994510Y-86519241D01*
X112206710Y-86664231D01*
X112444801Y-86712446D01*
X112430461Y-86760055D01*
X113258600Y-87588195D01*
X114086739Y-86760055D01*
X114072455Y-86712633D01*
X114293917Y-86670962D01*
X114510041Y-86531890D01*
X114655031Y-86319690D01*
X114706040Y-86067800D01*
X114706040Y-86027800D01*
X115849400Y-86027800D01*
X116140239Y-85969948D01*
X116386801Y-85805201D01*
X121834794Y-80357208D01*
X121752287Y-80772000D01*
X121861520Y-81321151D01*
X122172589Y-81786698D01*
X122455400Y-81975667D01*
X122455400Y-82423000D01*
X122513252Y-82713839D01*
X122677999Y-82960401D01*
X124926344Y-85208746D01*
X124904850Y-85260509D01*
X124904352Y-85831387D01*
X125122357Y-86359000D01*
X125525677Y-86763024D01*
X125592144Y-86790623D01*
X125585595Y-86793336D01*
X125511461Y-87039455D01*
X126339600Y-87867595D01*
X127167739Y-87039455D01*
X127093605Y-86793336D01*
X127087117Y-86791004D01*
X127151400Y-86764443D01*
X127555424Y-86361123D01*
X127774350Y-85833891D01*
X127774582Y-85567890D01*
X129214100Y-85567890D01*
X129214100Y-86658450D01*
X129372850Y-86817200D01*
X130972100Y-86817200D01*
X130972100Y-85217950D01*
X131226100Y-85217950D01*
X131226100Y-86817200D01*
X132825350Y-86817200D01*
X132984100Y-86658450D01*
X132984100Y-85694200D01*
X133141660Y-85694200D01*
X133141660Y-88194200D01*
X133185938Y-88429517D01*
X133325010Y-88645641D01*
X133537210Y-88790631D01*
X133789100Y-88841640D01*
X136289100Y-88841640D01*
X136524417Y-88797362D01*
X136740541Y-88658290D01*
X136885531Y-88446090D01*
X136936540Y-88194200D01*
X136936540Y-85694200D01*
X136892262Y-85458883D01*
X136753190Y-85242759D01*
X136540990Y-85097769D01*
X136289100Y-85046760D01*
X133789100Y-85046760D01*
X133553783Y-85091038D01*
X133337659Y-85230110D01*
X133192669Y-85442310D01*
X133141660Y-85694200D01*
X132984100Y-85694200D01*
X132984100Y-85567890D01*
X132887427Y-85334501D01*
X132708798Y-85155873D01*
X132475409Y-85059200D01*
X131384850Y-85059200D01*
X131226100Y-85217950D01*
X130972100Y-85217950D01*
X130813350Y-85059200D01*
X129722791Y-85059200D01*
X129489402Y-85155873D01*
X129310773Y-85334501D01*
X129214100Y-85567890D01*
X127774582Y-85567890D01*
X127774848Y-85263013D01*
X127556843Y-84735400D01*
X127153523Y-84331376D01*
X126626291Y-84112450D01*
X126055413Y-84111952D01*
X126001451Y-84134249D01*
X125863042Y-83995840D01*
X127620600Y-83995840D01*
X127855917Y-83951562D01*
X128072041Y-83812490D01*
X128217031Y-83600290D01*
X128268040Y-83348400D01*
X128268040Y-82448400D01*
X135315528Y-82448400D01*
X135432373Y-83035819D01*
X135765119Y-83533809D01*
X136263109Y-83866555D01*
X136850528Y-83983400D01*
X136910672Y-83983400D01*
X137269435Y-83912037D01*
X138095799Y-84738401D01*
X138342361Y-84903148D01*
X138633200Y-84961000D01*
X144385612Y-84961000D01*
X144493503Y-85222115D01*
X145000815Y-85730312D01*
X145663988Y-86005686D01*
X146382062Y-86006313D01*
X147045715Y-85732097D01*
X147553912Y-85224785D01*
X147829286Y-84561612D01*
X147829913Y-83843538D01*
X147555697Y-83179885D01*
X147048385Y-82671688D01*
X146385212Y-82396314D01*
X145667138Y-82395687D01*
X145003485Y-82669903D01*
X144495288Y-83177215D01*
X144385755Y-83441000D01*
X138948002Y-83441000D01*
X138364331Y-82857329D01*
X138445672Y-82448400D01*
X138328827Y-81860981D01*
X137996081Y-81362991D01*
X137498091Y-81030245D01*
X136910672Y-80913400D01*
X136850528Y-80913400D01*
X136263109Y-81030245D01*
X135765119Y-81362991D01*
X135432373Y-81860981D01*
X135315528Y-82448400D01*
X128268040Y-82448400D01*
X128268040Y-81975762D01*
X131201002Y-79042800D01*
X133203554Y-79042800D01*
X133224957Y-79094600D01*
X133628277Y-79498624D01*
X134155509Y-79717550D01*
X134726387Y-79718048D01*
X135112615Y-79558462D01*
X144219287Y-79558462D01*
X144493503Y-80222115D01*
X145000815Y-80730312D01*
X145663988Y-81005686D01*
X146382062Y-81006313D01*
X147045715Y-80732097D01*
X147553912Y-80224785D01*
X147829286Y-79561612D01*
X147829913Y-78843538D01*
X147555697Y-78179885D01*
X147048385Y-77671688D01*
X146385212Y-77396314D01*
X145667138Y-77395687D01*
X145003485Y-77669903D01*
X144495288Y-78177215D01*
X144219914Y-78840388D01*
X144219287Y-79558462D01*
X135112615Y-79558462D01*
X135254000Y-79500043D01*
X135658024Y-79096723D01*
X135876950Y-78569491D01*
X135877448Y-77998613D01*
X135659443Y-77471000D01*
X135256123Y-77066976D01*
X134728891Y-76848050D01*
X134158013Y-76847552D01*
X134104051Y-76869849D01*
X130636201Y-73401999D01*
X130389639Y-73237252D01*
X130098800Y-73179400D01*
X128180512Y-73179400D01*
X128086968Y-73039400D01*
X135460160Y-73039400D01*
X135460160Y-74839400D01*
X135504438Y-75074717D01*
X135643510Y-75290841D01*
X135855710Y-75435831D01*
X136107600Y-75486840D01*
X137907600Y-75486840D01*
X138142917Y-75442562D01*
X138359041Y-75303490D01*
X138504031Y-75091290D01*
X138555040Y-74839400D01*
X138555040Y-74699400D01*
X144277521Y-74699400D01*
X144493503Y-75222115D01*
X145000815Y-75730312D01*
X145663988Y-76005686D01*
X146382062Y-76006313D01*
X147045715Y-75732097D01*
X147553912Y-75224785D01*
X147829286Y-74561612D01*
X147829913Y-73843538D01*
X147555697Y-73179885D01*
X147048385Y-72671688D01*
X146385212Y-72396314D01*
X145667138Y-72395687D01*
X145003485Y-72669903D01*
X144495288Y-73177215D01*
X144494381Y-73179400D01*
X138555040Y-73179400D01*
X138555040Y-73039400D01*
X138510762Y-72804083D01*
X138371690Y-72587959D01*
X138159490Y-72442969D01*
X137907600Y-72391960D01*
X136107600Y-72391960D01*
X135872283Y-72436238D01*
X135656159Y-72575310D01*
X135511169Y-72787510D01*
X135460160Y-73039400D01*
X128086968Y-73039400D01*
X127963081Y-72853991D01*
X127465091Y-72521245D01*
X126877672Y-72404400D01*
X126817528Y-72404400D01*
X126230109Y-72521245D01*
X125732119Y-72853991D01*
X125399373Y-73351981D01*
X125282528Y-73939400D01*
X125363869Y-74348329D01*
X124780198Y-74932000D01*
X124428395Y-74932000D01*
X124258211Y-74677302D01*
X123876125Y-74422000D01*
X124258211Y-74166698D01*
X124569280Y-73701151D01*
X124678513Y-73152000D01*
X124569280Y-72602849D01*
X124258211Y-72137302D01*
X124102412Y-72033200D01*
X148565800Y-72033200D01*
X148565800Y-90056900D01*
X109812800Y-90056900D01*
X109929031Y-89886790D01*
X109980040Y-89634900D01*
X109980040Y-88775545D01*
X112430461Y-88775545D01*
X112504595Y-89021664D01*
X113041823Y-89214765D01*
X113612054Y-89187578D01*
X113932257Y-89054945D01*
X125511461Y-89054945D01*
X125585595Y-89301064D01*
X126122823Y-89494165D01*
X126693054Y-89466978D01*
X127093605Y-89301064D01*
X127167739Y-89054945D01*
X126339600Y-88226805D01*
X125511461Y-89054945D01*
X113932257Y-89054945D01*
X114012605Y-89021664D01*
X114086739Y-88775545D01*
X113258600Y-87947405D01*
X112430461Y-88775545D01*
X109980040Y-88775545D01*
X109980040Y-87834900D01*
X109935762Y-87599583D01*
X109904515Y-87551023D01*
X111811635Y-87551023D01*
X111838822Y-88121254D01*
X112004736Y-88521805D01*
X112250855Y-88595939D01*
X113078995Y-87767800D01*
X113438205Y-87767800D01*
X114266345Y-88595939D01*
X114512464Y-88521805D01*
X114705565Y-87984577D01*
X114698216Y-87830423D01*
X124892635Y-87830423D01*
X124919822Y-88400654D01*
X125085736Y-88801205D01*
X125331855Y-88875339D01*
X126159995Y-88047200D01*
X126519205Y-88047200D01*
X127347345Y-88875339D01*
X127593464Y-88801205D01*
X127786565Y-88263977D01*
X127759378Y-87693746D01*
X127593464Y-87293195D01*
X127383496Y-87229950D01*
X129214100Y-87229950D01*
X129214100Y-88320510D01*
X129310773Y-88553899D01*
X129489402Y-88732527D01*
X129722791Y-88829200D01*
X130813350Y-88829200D01*
X130972100Y-88670450D01*
X130972100Y-87071200D01*
X131226100Y-87071200D01*
X131226100Y-88670450D01*
X131384850Y-88829200D01*
X132475409Y-88829200D01*
X132708798Y-88732527D01*
X132887427Y-88553899D01*
X132984100Y-88320510D01*
X132984100Y-87229950D01*
X132825350Y-87071200D01*
X131226100Y-87071200D01*
X130972100Y-87071200D01*
X129372850Y-87071200D01*
X129214100Y-87229950D01*
X127383496Y-87229950D01*
X127347345Y-87219061D01*
X126519205Y-88047200D01*
X126159995Y-88047200D01*
X125331855Y-87219061D01*
X125085736Y-87293195D01*
X124892635Y-87830423D01*
X114698216Y-87830423D01*
X114678378Y-87414346D01*
X114512464Y-87013795D01*
X114266345Y-86939661D01*
X113438205Y-87767800D01*
X113078995Y-87767800D01*
X112250855Y-86939661D01*
X112004736Y-87013795D01*
X111811635Y-87551023D01*
X109904515Y-87551023D01*
X109796690Y-87383459D01*
X109584490Y-87238469D01*
X109332600Y-87187460D01*
X107532600Y-87187460D01*
X107297283Y-87231738D01*
X107081159Y-87370810D01*
X106936169Y-87583010D01*
X106885160Y-87834900D01*
X106885160Y-89634900D01*
X106929438Y-89870217D01*
X107049565Y-90056900D01*
X105390765Y-90056900D01*
X105398440Y-90019000D01*
X105398440Y-87019000D01*
X105354162Y-86783683D01*
X105215090Y-86567559D01*
X105002890Y-86422569D01*
X104751000Y-86371560D01*
X101751000Y-86371560D01*
X101515683Y-86415838D01*
X101299559Y-86554910D01*
X101167000Y-86748917D01*
X101167000Y-83986140D01*
X101439980Y-84646800D01*
X102040041Y-85247909D01*
X102824459Y-85573628D01*
X103673815Y-85574370D01*
X104458800Y-85250020D01*
X105059909Y-84649959D01*
X105385628Y-83865541D01*
X105386370Y-83016185D01*
X105062020Y-82231200D01*
X104461959Y-81630091D01*
X103677541Y-81304372D01*
X102828185Y-81303630D01*
X102043200Y-81627980D01*
X101442091Y-82228041D01*
X101167000Y-82890533D01*
X101167000Y-79143265D01*
X102490758Y-79143265D01*
X102702687Y-79656172D01*
X103094764Y-80048934D01*
X103607300Y-80261758D01*
X104162265Y-80262242D01*
X104675172Y-80050313D01*
X105067934Y-79658236D01*
X105280758Y-79145700D01*
X105281242Y-78590735D01*
X105069313Y-78077828D01*
X104677236Y-77685066D01*
X104164700Y-77472242D01*
X103609735Y-77471758D01*
X103096828Y-77683687D01*
X102704066Y-78075764D01*
X102491242Y-78588300D01*
X102490758Y-79143265D01*
X101167000Y-79143265D01*
X101167000Y-76603265D01*
X105030758Y-76603265D01*
X105242687Y-77116172D01*
X105634764Y-77508934D01*
X105666000Y-77521904D01*
X105666000Y-79375000D01*
X105723852Y-79665839D01*
X105888599Y-79912401D01*
X107285599Y-81309401D01*
X107532160Y-81474148D01*
X107823000Y-81532000D01*
X110140354Y-81532000D01*
X110161757Y-81583800D01*
X110565077Y-81987824D01*
X111092309Y-82206750D01*
X111663187Y-82207248D01*
X112190800Y-81989243D01*
X112594824Y-81585923D01*
X112813750Y-81058691D01*
X112814248Y-80487813D01*
X112596243Y-79960200D01*
X112192923Y-79556176D01*
X111665691Y-79337250D01*
X111094813Y-79336752D01*
X110567200Y-79554757D01*
X110163176Y-79958077D01*
X110140785Y-80012000D01*
X109036672Y-80012000D01*
X109518009Y-79690381D01*
X109850755Y-79192391D01*
X109967600Y-78604972D01*
X109967600Y-78544828D01*
X109850755Y-77957409D01*
X109518009Y-77459419D01*
X109020019Y-77126673D01*
X108432600Y-77009828D01*
X107845181Y-77126673D01*
X107347191Y-77459419D01*
X107186000Y-77700659D01*
X107186000Y-77522367D01*
X107215172Y-77510313D01*
X107607934Y-77118236D01*
X107820758Y-76605700D01*
X107821242Y-76050735D01*
X107609313Y-75537828D01*
X107217236Y-75145066D01*
X106704700Y-74932242D01*
X106149735Y-74931758D01*
X105636828Y-75143687D01*
X105244066Y-75535764D01*
X105031242Y-76048300D01*
X105030758Y-76603265D01*
X101167000Y-76603265D01*
X101167000Y-74072750D01*
X102491000Y-74072750D01*
X102491000Y-74673310D01*
X102587673Y-74906699D01*
X102766302Y-75085327D01*
X102999691Y-75182000D01*
X103600250Y-75182000D01*
X103759000Y-75023250D01*
X103759000Y-73914000D01*
X104013000Y-73914000D01*
X104013000Y-75023250D01*
X104171750Y-75182000D01*
X104772309Y-75182000D01*
X105005698Y-75085327D01*
X105184327Y-74906699D01*
X105281000Y-74673310D01*
X105281000Y-74072750D01*
X105122250Y-73914000D01*
X104013000Y-73914000D01*
X103759000Y-73914000D01*
X102649750Y-73914000D01*
X102491000Y-74072750D01*
X101167000Y-74072750D01*
X101167000Y-72900690D01*
X102491000Y-72900690D01*
X102491000Y-73501250D01*
X102649750Y-73660000D01*
X103759000Y-73660000D01*
X103759000Y-72550750D01*
X104013000Y-72550750D01*
X104013000Y-73660000D01*
X105122250Y-73660000D01*
X105281000Y-73501250D01*
X105281000Y-72900690D01*
X105184327Y-72667301D01*
X105005698Y-72488673D01*
X104772309Y-72392000D01*
X104171750Y-72392000D01*
X104013000Y-72550750D01*
X103759000Y-72550750D01*
X103600250Y-72392000D01*
X102999691Y-72392000D01*
X102766302Y-72488673D01*
X102587673Y-72667301D01*
X102491000Y-72900690D01*
X101167000Y-72900690D01*
X101167000Y-72033200D01*
X110478027Y-72033200D01*
X110364302Y-72109189D01*
G36*
X114160400Y-72225690D02*
X114160400Y-72866250D01*
X114319150Y-73025000D01*
X115468400Y-73025000D01*
X115468400Y-73005000D01*
X115722400Y-73005000D01*
X115722400Y-73025000D01*
X116871650Y-73025000D01*
X117030400Y-72866250D01*
X117030400Y-72225690D01*
X116950668Y-72033200D01*
X122328388Y-72033200D01*
X122172589Y-72137302D01*
X121861520Y-72602849D01*
X121752287Y-73152000D01*
X121861520Y-73701151D01*
X122172589Y-74166698D01*
X122554675Y-74422000D01*
X122172589Y-74677302D01*
X121861520Y-75142849D01*
X121752287Y-75692000D01*
X121861520Y-76241151D01*
X122172589Y-76706698D01*
X122554675Y-76962000D01*
X122172589Y-77217302D01*
X122002405Y-77472000D01*
X118450202Y-77472000D01*
X116994088Y-76015886D01*
X117058513Y-75692000D01*
X116949280Y-75142849D01*
X116638211Y-74677302D01*
X116503065Y-74587000D01*
X116521709Y-74587000D01*
X116755098Y-74490327D01*
X116933727Y-74311699D01*
X117030400Y-74078310D01*
X117030400Y-73437750D01*
X116871650Y-73279000D01*
X115722400Y-73279000D01*
X115722400Y-73299000D01*
X115468400Y-73299000D01*
X115468400Y-73279000D01*
X114319150Y-73279000D01*
X114160400Y-73437750D01*
X114160400Y-74078310D01*
X114257073Y-74311699D01*
X114435702Y-74490327D01*
X114669091Y-74587000D01*
X114687735Y-74587000D01*
X114552589Y-74677302D01*
X114241520Y-75142849D01*
X114132287Y-75692000D01*
X114241520Y-76241151D01*
X114552589Y-76706698D01*
X114934675Y-76962000D01*
X114552589Y-77217302D01*
X114526359Y-77256557D01*
X112139000Y-74869198D01*
X112139000Y-74364995D01*
X112393698Y-74194811D01*
X112704767Y-73729264D01*
X112814000Y-73180113D01*
X112814000Y-73123887D01*
X112704767Y-72574736D01*
X112393698Y-72109189D01*
X112279973Y-72033200D01*
X114240132Y-72033200D01*
X114160400Y-72225690D01*
X114160400Y-72225690D01*
G37*
X114160400Y-72225690D02*
X114160400Y-72866250D01*
X114319150Y-73025000D01*
X115468400Y-73025000D01*
X115468400Y-73005000D01*
X115722400Y-73005000D01*
X115722400Y-73025000D01*
X116871650Y-73025000D01*
X117030400Y-72866250D01*
X117030400Y-72225690D01*
X116950668Y-72033200D01*
X122328388Y-72033200D01*
X122172589Y-72137302D01*
X121861520Y-72602849D01*
X121752287Y-73152000D01*
X121861520Y-73701151D01*
X122172589Y-74166698D01*
X122554675Y-74422000D01*
X122172589Y-74677302D01*
X121861520Y-75142849D01*
X121752287Y-75692000D01*
X121861520Y-76241151D01*
X122172589Y-76706698D01*
X122554675Y-76962000D01*
X122172589Y-77217302D01*
X122002405Y-77472000D01*
X118450202Y-77472000D01*
X116994088Y-76015886D01*
X117058513Y-75692000D01*
X116949280Y-75142849D01*
X116638211Y-74677302D01*
X116503065Y-74587000D01*
X116521709Y-74587000D01*
X116755098Y-74490327D01*
X116933727Y-74311699D01*
X117030400Y-74078310D01*
X117030400Y-73437750D01*
X116871650Y-73279000D01*
X115722400Y-73279000D01*
X115722400Y-73299000D01*
X115468400Y-73299000D01*
X115468400Y-73279000D01*
X114319150Y-73279000D01*
X114160400Y-73437750D01*
X114160400Y-74078310D01*
X114257073Y-74311699D01*
X114435702Y-74490327D01*
X114669091Y-74587000D01*
X114687735Y-74587000D01*
X114552589Y-74677302D01*
X114241520Y-75142849D01*
X114132287Y-75692000D01*
X114241520Y-76241151D01*
X114552589Y-76706698D01*
X114934675Y-76962000D01*
X114552589Y-77217302D01*
X114526359Y-77256557D01*
X112139000Y-74869198D01*
X112139000Y-74364995D01*
X112393698Y-74194811D01*
X112704767Y-73729264D01*
X112814000Y-73180113D01*
X112814000Y-73123887D01*
X112704767Y-72574736D01*
X112393698Y-72109189D01*
X112279973Y-72033200D01*
X114240132Y-72033200D01*
X114160400Y-72225690D01*
M02*
