G04 #@! TF.FileFunction,Copper,L1,Top,Signal*
%FSLAX46Y46*%
G04 Gerber Fmt 4.6, Leading zero omitted, Abs format (unit mm)*
G04 Created by KiCad (PCBNEW 4.0.7-e2-6376~58~ubuntu16.04.1) date Mon Jan 22 09:02:58 2018*
%MOMM*%
%LPD*%
G01*
G04 APERTURE LIST*
%ADD10C,0.100000*%
%ADD11C,1.600000*%
%ADD12R,1.600000X1.600000*%
%ADD13R,3.000000X3.000000*%
%ADD14C,3.000000*%
%ADD15C,1.520000*%
%ADD16R,1.520000X1.520000*%
%ADD17O,1.600000X1.600000*%
%ADD18C,2.340000*%
%ADD19R,2.500000X2.500000*%
%ADD20R,1.800000X1.800000*%
%ADD21O,1.800000X1.800000*%
%ADD22C,0.250000*%
%ADD23C,0.254000*%
G04 APERTURE END LIST*
D10*
D11*
X126339600Y-85547200D03*
X126339600Y-88047200D03*
D12*
X113258600Y-85267800D03*
D11*
X113258600Y-87767800D03*
D13*
X103251000Y-88519000D03*
D14*
X103251000Y-83439000D03*
D15*
X106426000Y-76327000D03*
X103886000Y-78867000D03*
D16*
X103886000Y-73787000D03*
D11*
X111379000Y-80772000D03*
D17*
X111379000Y-73152000D03*
D11*
X134442200Y-78282800D03*
D17*
X126822200Y-78282800D03*
D18*
X146024600Y-74201000D03*
X146024600Y-79201000D03*
X146024600Y-84201000D03*
D12*
X115595400Y-73152000D03*
D17*
X123215400Y-80772000D03*
X115595400Y-75692000D03*
X123215400Y-78232000D03*
X115595400Y-78232000D03*
X123215400Y-75692000D03*
X115595400Y-80772000D03*
X123215400Y-73152000D03*
D19*
X131099100Y-86944200D03*
X135039100Y-86944200D03*
D20*
X137007600Y-73939400D03*
D21*
X126847600Y-73939400D03*
D20*
X126720600Y-82448400D03*
D21*
X136880600Y-82448400D03*
D20*
X108432600Y-88734900D03*
D21*
X108432600Y-78574900D03*
D22*
X146024600Y-79201000D02*
X136254500Y-79201000D01*
X124993400Y-80010000D02*
X123215400Y-78232000D01*
X135445500Y-80010000D02*
X124993400Y-80010000D01*
X136254500Y-79201000D02*
X135445500Y-80010000D01*
X135001000Y-77724000D02*
X134442200Y-78282800D01*
X108432600Y-78574900D02*
X104178100Y-78574900D01*
X104178100Y-78574900D02*
X103251000Y-79502000D01*
X103251000Y-79502000D02*
X103251000Y-83439000D01*
D23*
G36*
X110364302Y-72109189D02*
X110053233Y-72574736D01*
X109944000Y-73123887D01*
X109944000Y-73180113D01*
X110053233Y-73729264D01*
X110364302Y-74194811D01*
X110829849Y-74505880D01*
X111379000Y-74615113D01*
X111928151Y-74505880D01*
X112393698Y-74194811D01*
X112704767Y-73729264D01*
X112814000Y-73180113D01*
X112814000Y-73123887D01*
X112704767Y-72574736D01*
X112393698Y-72109189D01*
X112279973Y-72033200D01*
X114244687Y-72033200D01*
X114198969Y-72100110D01*
X114147960Y-72352000D01*
X114147960Y-73952000D01*
X114192238Y-74187317D01*
X114331310Y-74403441D01*
X114543510Y-74548431D01*
X114698489Y-74579815D01*
X114552589Y-74677302D01*
X114241520Y-75142849D01*
X114132287Y-75692000D01*
X114241520Y-76241151D01*
X114552589Y-76706698D01*
X114934675Y-76962000D01*
X114552589Y-77217302D01*
X114241520Y-77682849D01*
X114132287Y-78232000D01*
X114241520Y-78781151D01*
X114552589Y-79246698D01*
X114957103Y-79516986D01*
X114740266Y-79619611D01*
X114364359Y-80034577D01*
X114203496Y-80422961D01*
X114325485Y-80645000D01*
X115468400Y-80645000D01*
X115468400Y-80625000D01*
X115722400Y-80625000D01*
X115722400Y-80645000D01*
X116865315Y-80645000D01*
X116987304Y-80422961D01*
X116826441Y-80034577D01*
X116450534Y-79619611D01*
X116233697Y-79516986D01*
X116638211Y-79246698D01*
X116949280Y-78781151D01*
X117058513Y-78232000D01*
X116949280Y-77682849D01*
X116638211Y-77217302D01*
X116256125Y-76962000D01*
X116638211Y-76706698D01*
X116949280Y-76241151D01*
X117058513Y-75692000D01*
X121752287Y-75692000D01*
X121861520Y-76241151D01*
X122172589Y-76706698D01*
X122554675Y-76962000D01*
X122172589Y-77217302D01*
X121861520Y-77682849D01*
X121752287Y-78232000D01*
X121861520Y-78781151D01*
X122172589Y-79246698D01*
X122554675Y-79502000D01*
X122172589Y-79757302D01*
X121861520Y-80222849D01*
X121752287Y-80772000D01*
X121861520Y-81321151D01*
X122172589Y-81786698D01*
X122638136Y-82097767D01*
X123187287Y-82207000D01*
X123243513Y-82207000D01*
X123792664Y-82097767D01*
X124258211Y-81786698D01*
X124417436Y-81548400D01*
X125173160Y-81548400D01*
X125173160Y-83348400D01*
X125217438Y-83583717D01*
X125356510Y-83799841D01*
X125568710Y-83944831D01*
X125820600Y-83995840D01*
X127620600Y-83995840D01*
X127855917Y-83951562D01*
X128072041Y-83812490D01*
X128217031Y-83600290D01*
X128268040Y-83348400D01*
X128268040Y-82448400D01*
X135315528Y-82448400D01*
X135432373Y-83035819D01*
X135765119Y-83533809D01*
X136263109Y-83866555D01*
X136850528Y-83983400D01*
X136910672Y-83983400D01*
X137498091Y-83866555D01*
X137996081Y-83533809D01*
X138328827Y-83035819D01*
X138445672Y-82448400D01*
X138328827Y-81860981D01*
X137996081Y-81362991D01*
X137498091Y-81030245D01*
X136910672Y-80913400D01*
X136850528Y-80913400D01*
X136263109Y-81030245D01*
X135765119Y-81362991D01*
X135432373Y-81860981D01*
X135315528Y-82448400D01*
X128268040Y-82448400D01*
X128268040Y-81548400D01*
X128223762Y-81313083D01*
X128084690Y-81096959D01*
X127872490Y-80951969D01*
X127620600Y-80900960D01*
X125820600Y-80900960D01*
X125585283Y-80945238D01*
X125369159Y-81084310D01*
X125224169Y-81296510D01*
X125173160Y-81548400D01*
X124417436Y-81548400D01*
X124569280Y-81321151D01*
X124678513Y-80772000D01*
X124661097Y-80684443D01*
X124702561Y-80712148D01*
X124993400Y-80770000D01*
X135445500Y-80770000D01*
X135736339Y-80712148D01*
X135982901Y-80547401D01*
X136569302Y-79961000D01*
X144385612Y-79961000D01*
X144493503Y-80222115D01*
X145000815Y-80730312D01*
X145663988Y-81005686D01*
X146382062Y-81006313D01*
X147045715Y-80732097D01*
X147553912Y-80224785D01*
X147829286Y-79561612D01*
X147829913Y-78843538D01*
X147555697Y-78179885D01*
X147048385Y-77671688D01*
X146385212Y-77396314D01*
X145667138Y-77395687D01*
X145003485Y-77669903D01*
X144495288Y-78177215D01*
X144385755Y-78441000D01*
X136254500Y-78441000D01*
X135963661Y-78498852D01*
X135876961Y-78556783D01*
X135877448Y-77998613D01*
X135758233Y-77710091D01*
X135703148Y-77433160D01*
X135538401Y-77186599D01*
X135291840Y-77021852D01*
X135014685Y-76966722D01*
X134728891Y-76848050D01*
X134158013Y-76847552D01*
X133630400Y-77065557D01*
X133226376Y-77468877D01*
X133007450Y-77996109D01*
X133006952Y-78566987D01*
X133224957Y-79094600D01*
X133380086Y-79250000D01*
X127845092Y-79250000D01*
X128053241Y-79020223D01*
X128214104Y-78631839D01*
X128092115Y-78409800D01*
X126949200Y-78409800D01*
X126949200Y-78429800D01*
X126695200Y-78429800D01*
X126695200Y-78409800D01*
X125552285Y-78409800D01*
X125430296Y-78631839D01*
X125591159Y-79020223D01*
X125799308Y-79250000D01*
X125308202Y-79250000D01*
X124614088Y-78555886D01*
X124678513Y-78232000D01*
X124619190Y-77933761D01*
X125430296Y-77933761D01*
X125552285Y-78155800D01*
X126695200Y-78155800D01*
X126695200Y-77012171D01*
X126949200Y-77012171D01*
X126949200Y-78155800D01*
X128092115Y-78155800D01*
X128214104Y-77933761D01*
X128053241Y-77545377D01*
X127677334Y-77130411D01*
X127171241Y-76890886D01*
X126949200Y-77012171D01*
X126695200Y-77012171D01*
X126473159Y-76890886D01*
X125967066Y-77130411D01*
X125591159Y-77545377D01*
X125430296Y-77933761D01*
X124619190Y-77933761D01*
X124569280Y-77682849D01*
X124258211Y-77217302D01*
X123876125Y-76962000D01*
X124258211Y-76706698D01*
X124569280Y-76241151D01*
X124678513Y-75692000D01*
X124569280Y-75142849D01*
X124258211Y-74677302D01*
X123853697Y-74407014D01*
X124070534Y-74304389D01*
X124401168Y-73939400D01*
X125282528Y-73939400D01*
X125399373Y-74526819D01*
X125732119Y-75024809D01*
X126230109Y-75357555D01*
X126817528Y-75474400D01*
X126877672Y-75474400D01*
X127465091Y-75357555D01*
X127963081Y-75024809D01*
X128295827Y-74526819D01*
X128412672Y-73939400D01*
X128295827Y-73351981D01*
X128086968Y-73039400D01*
X135460160Y-73039400D01*
X135460160Y-74839400D01*
X135504438Y-75074717D01*
X135643510Y-75290841D01*
X135855710Y-75435831D01*
X136107600Y-75486840D01*
X137907600Y-75486840D01*
X138142917Y-75442562D01*
X138359041Y-75303490D01*
X138504031Y-75091290D01*
X138555040Y-74839400D01*
X138555040Y-74558462D01*
X144219287Y-74558462D01*
X144493503Y-75222115D01*
X145000815Y-75730312D01*
X145663988Y-76005686D01*
X146382062Y-76006313D01*
X147045715Y-75732097D01*
X147553912Y-75224785D01*
X147829286Y-74561612D01*
X147829913Y-73843538D01*
X147555697Y-73179885D01*
X147048385Y-72671688D01*
X146385212Y-72396314D01*
X145667138Y-72395687D01*
X145003485Y-72669903D01*
X144495288Y-73177215D01*
X144219914Y-73840388D01*
X144219287Y-74558462D01*
X138555040Y-74558462D01*
X138555040Y-73039400D01*
X138510762Y-72804083D01*
X138371690Y-72587959D01*
X138159490Y-72442969D01*
X137907600Y-72391960D01*
X136107600Y-72391960D01*
X135872283Y-72436238D01*
X135656159Y-72575310D01*
X135511169Y-72787510D01*
X135460160Y-73039400D01*
X128086968Y-73039400D01*
X127963081Y-72853991D01*
X127465091Y-72521245D01*
X126877672Y-72404400D01*
X126817528Y-72404400D01*
X126230109Y-72521245D01*
X125732119Y-72853991D01*
X125399373Y-73351981D01*
X125282528Y-73939400D01*
X124401168Y-73939400D01*
X124446441Y-73889423D01*
X124607304Y-73501039D01*
X124485315Y-73279000D01*
X123342400Y-73279000D01*
X123342400Y-73299000D01*
X123088400Y-73299000D01*
X123088400Y-73279000D01*
X121945485Y-73279000D01*
X121823496Y-73501039D01*
X121984359Y-73889423D01*
X122360266Y-74304389D01*
X122577103Y-74407014D01*
X122172589Y-74677302D01*
X121861520Y-75142849D01*
X121752287Y-75692000D01*
X117058513Y-75692000D01*
X116949280Y-75142849D01*
X116638211Y-74677302D01*
X116493935Y-74580899D01*
X116630717Y-74555162D01*
X116846841Y-74416090D01*
X116991831Y-74203890D01*
X117042840Y-73952000D01*
X117042840Y-72352000D01*
X116998562Y-72116683D01*
X116944842Y-72033200D01*
X122329839Y-72033200D01*
X121984359Y-72414577D01*
X121823496Y-72802961D01*
X121945485Y-73025000D01*
X123088400Y-73025000D01*
X123088400Y-73005000D01*
X123342400Y-73005000D01*
X123342400Y-73025000D01*
X124485315Y-73025000D01*
X124607304Y-72802961D01*
X124446441Y-72414577D01*
X124100961Y-72033200D01*
X148565800Y-72033200D01*
X148565800Y-90056900D01*
X109808625Y-90056900D01*
X109870927Y-89994598D01*
X109967600Y-89761209D01*
X109967600Y-89020650D01*
X109808850Y-88861900D01*
X108559600Y-88861900D01*
X108559600Y-88881900D01*
X108305600Y-88881900D01*
X108305600Y-88861900D01*
X107056350Y-88861900D01*
X106897600Y-89020650D01*
X106897600Y-89761209D01*
X106994273Y-89994598D01*
X107056575Y-90056900D01*
X105386000Y-90056900D01*
X105386000Y-88804750D01*
X105227250Y-88646000D01*
X103378000Y-88646000D01*
X103378000Y-88666000D01*
X103124000Y-88666000D01*
X103124000Y-88646000D01*
X103104000Y-88646000D01*
X103104000Y-88392000D01*
X103124000Y-88392000D01*
X103124000Y-86542750D01*
X103378000Y-86542750D01*
X103378000Y-88392000D01*
X105227250Y-88392000D01*
X105386000Y-88233250D01*
X105386000Y-87708591D01*
X106897600Y-87708591D01*
X106897600Y-88449150D01*
X107056350Y-88607900D01*
X108305600Y-88607900D01*
X108305600Y-87358650D01*
X108559600Y-87358650D01*
X108559600Y-88607900D01*
X109808850Y-88607900D01*
X109967600Y-88449150D01*
X109967600Y-87708591D01*
X109870927Y-87475202D01*
X109692299Y-87296573D01*
X109458910Y-87199900D01*
X108718350Y-87199900D01*
X108559600Y-87358650D01*
X108305600Y-87358650D01*
X108146850Y-87199900D01*
X107406290Y-87199900D01*
X107172901Y-87296573D01*
X106994273Y-87475202D01*
X106897600Y-87708591D01*
X105386000Y-87708591D01*
X105386000Y-86892691D01*
X105289327Y-86659302D01*
X105110699Y-86480673D01*
X104877310Y-86384000D01*
X103536750Y-86384000D01*
X103378000Y-86542750D01*
X103124000Y-86542750D01*
X102965250Y-86384000D01*
X101624690Y-86384000D01*
X101391301Y-86480673D01*
X101212673Y-86659302D01*
X101167000Y-86769566D01*
X101167000Y-83986140D01*
X101439980Y-84646800D01*
X102040041Y-85247909D01*
X102824459Y-85573628D01*
X103673815Y-85574370D01*
X104458800Y-85250020D01*
X105059909Y-84649959D01*
X105135548Y-84467800D01*
X111811160Y-84467800D01*
X111811160Y-86067800D01*
X111855438Y-86303117D01*
X111994510Y-86519241D01*
X112206710Y-86664231D01*
X112311641Y-86685480D01*
X112042776Y-86953877D01*
X111823850Y-87481109D01*
X111823352Y-88051987D01*
X112041357Y-88579600D01*
X112444677Y-88983624D01*
X112971909Y-89202550D01*
X113542787Y-89203048D01*
X114070400Y-88985043D01*
X114474424Y-88581723D01*
X114693350Y-88054491D01*
X114693848Y-87483613D01*
X114475843Y-86956000D01*
X114207528Y-86687217D01*
X114293917Y-86670962D01*
X114510041Y-86531890D01*
X114655031Y-86319690D01*
X114706040Y-86067800D01*
X114706040Y-85831387D01*
X124904352Y-85831387D01*
X125122357Y-86359000D01*
X125525677Y-86763024D01*
X125607531Y-86797013D01*
X125527800Y-86829957D01*
X125123776Y-87233277D01*
X124904850Y-87760509D01*
X124904352Y-88331387D01*
X125122357Y-88859000D01*
X125525677Y-89263024D01*
X126052909Y-89481950D01*
X126623787Y-89482448D01*
X127151400Y-89264443D01*
X127555424Y-88861123D01*
X127774350Y-88333891D01*
X127774848Y-87763013D01*
X127556843Y-87235400D01*
X127153523Y-86831376D01*
X127071669Y-86797387D01*
X127151400Y-86764443D01*
X127555424Y-86361123D01*
X127774350Y-85833891D01*
X127774471Y-85694200D01*
X129201660Y-85694200D01*
X129201660Y-88194200D01*
X129245938Y-88429517D01*
X129385010Y-88645641D01*
X129597210Y-88790631D01*
X129849100Y-88841640D01*
X132349100Y-88841640D01*
X132584417Y-88797362D01*
X132800541Y-88658290D01*
X132945531Y-88446090D01*
X132996540Y-88194200D01*
X132996540Y-87229950D01*
X133154100Y-87229950D01*
X133154100Y-88320510D01*
X133250773Y-88553899D01*
X133429402Y-88732527D01*
X133662791Y-88829200D01*
X134753350Y-88829200D01*
X134912100Y-88670450D01*
X134912100Y-87071200D01*
X135166100Y-87071200D01*
X135166100Y-88670450D01*
X135324850Y-88829200D01*
X136415409Y-88829200D01*
X136648798Y-88732527D01*
X136827427Y-88553899D01*
X136924100Y-88320510D01*
X136924100Y-87229950D01*
X136765350Y-87071200D01*
X135166100Y-87071200D01*
X134912100Y-87071200D01*
X133312850Y-87071200D01*
X133154100Y-87229950D01*
X132996540Y-87229950D01*
X132996540Y-85694200D01*
X132972774Y-85567890D01*
X133154100Y-85567890D01*
X133154100Y-86658450D01*
X133312850Y-86817200D01*
X134912100Y-86817200D01*
X134912100Y-85217950D01*
X135166100Y-85217950D01*
X135166100Y-86817200D01*
X136765350Y-86817200D01*
X136924100Y-86658450D01*
X136924100Y-85567890D01*
X136827427Y-85334501D01*
X136648798Y-85155873D01*
X136415409Y-85059200D01*
X135324850Y-85059200D01*
X135166100Y-85217950D01*
X134912100Y-85217950D01*
X134753350Y-85059200D01*
X133662791Y-85059200D01*
X133429402Y-85155873D01*
X133250773Y-85334501D01*
X133154100Y-85567890D01*
X132972774Y-85567890D01*
X132952262Y-85458883D01*
X132813190Y-85242759D01*
X132600990Y-85097769D01*
X132349100Y-85046760D01*
X129849100Y-85046760D01*
X129613783Y-85091038D01*
X129397659Y-85230110D01*
X129252669Y-85442310D01*
X129201660Y-85694200D01*
X127774471Y-85694200D01*
X127774848Y-85263013D01*
X127556843Y-84735400D01*
X127380214Y-84558462D01*
X144219287Y-84558462D01*
X144493503Y-85222115D01*
X145000815Y-85730312D01*
X145663988Y-86005686D01*
X146382062Y-86006313D01*
X147045715Y-85732097D01*
X147553912Y-85224785D01*
X147829286Y-84561612D01*
X147829913Y-83843538D01*
X147555697Y-83179885D01*
X147048385Y-82671688D01*
X146385212Y-82396314D01*
X145667138Y-82395687D01*
X145003485Y-82669903D01*
X144495288Y-83177215D01*
X144219914Y-83840388D01*
X144219287Y-84558462D01*
X127380214Y-84558462D01*
X127153523Y-84331376D01*
X126626291Y-84112450D01*
X126055413Y-84111952D01*
X125527800Y-84329957D01*
X125123776Y-84733277D01*
X124904850Y-85260509D01*
X124904352Y-85831387D01*
X114706040Y-85831387D01*
X114706040Y-84467800D01*
X114661762Y-84232483D01*
X114522690Y-84016359D01*
X114310490Y-83871369D01*
X114058600Y-83820360D01*
X112458600Y-83820360D01*
X112223283Y-83864638D01*
X112007159Y-84003710D01*
X111862169Y-84215910D01*
X111811160Y-84467800D01*
X105135548Y-84467800D01*
X105385628Y-83865541D01*
X105386370Y-83016185D01*
X105062020Y-82231200D01*
X104461959Y-81630091D01*
X104011000Y-81442836D01*
X104011000Y-81056187D01*
X109943752Y-81056187D01*
X110161757Y-81583800D01*
X110565077Y-81987824D01*
X111092309Y-82206750D01*
X111663187Y-82207248D01*
X112190800Y-81989243D01*
X112594824Y-81585923D01*
X112787860Y-81121039D01*
X114203496Y-81121039D01*
X114364359Y-81509423D01*
X114740266Y-81924389D01*
X115246359Y-82163914D01*
X115468400Y-82042629D01*
X115468400Y-80899000D01*
X115722400Y-80899000D01*
X115722400Y-82042629D01*
X115944441Y-82163914D01*
X116450534Y-81924389D01*
X116826441Y-81509423D01*
X116987304Y-81121039D01*
X116865315Y-80899000D01*
X115722400Y-80899000D01*
X115468400Y-80899000D01*
X114325485Y-80899000D01*
X114203496Y-81121039D01*
X112787860Y-81121039D01*
X112813750Y-81058691D01*
X112814248Y-80487813D01*
X112596243Y-79960200D01*
X112192923Y-79556176D01*
X111665691Y-79337250D01*
X111094813Y-79336752D01*
X110567200Y-79554757D01*
X110163176Y-79958077D01*
X109944250Y-80485309D01*
X109943752Y-81056187D01*
X104011000Y-81056187D01*
X104011000Y-80262110D01*
X104162265Y-80262242D01*
X104675172Y-80050313D01*
X105067934Y-79658236D01*
X105202195Y-79334900D01*
X107109666Y-79334900D01*
X107347191Y-79690381D01*
X107845181Y-80023127D01*
X108432600Y-80139972D01*
X109020019Y-80023127D01*
X109518009Y-79690381D01*
X109850755Y-79192391D01*
X109967600Y-78604972D01*
X109967600Y-78544828D01*
X109850755Y-77957409D01*
X109518009Y-77459419D01*
X109020019Y-77126673D01*
X108432600Y-77009828D01*
X107845181Y-77126673D01*
X107347191Y-77459419D01*
X107109666Y-77814900D01*
X104806844Y-77814900D01*
X104677236Y-77685066D01*
X104164700Y-77472242D01*
X103609735Y-77471758D01*
X103096828Y-77683687D01*
X102704066Y-78075764D01*
X102491242Y-78588300D01*
X102490758Y-79143265D01*
X102539090Y-79260237D01*
X102491000Y-79502000D01*
X102491000Y-81442952D01*
X102043200Y-81627980D01*
X101442091Y-82228041D01*
X101167000Y-82890533D01*
X101167000Y-76603265D01*
X105030758Y-76603265D01*
X105242687Y-77116172D01*
X105634764Y-77508934D01*
X106147300Y-77721758D01*
X106702265Y-77722242D01*
X107215172Y-77510313D01*
X107607934Y-77118236D01*
X107820758Y-76605700D01*
X107821242Y-76050735D01*
X107609313Y-75537828D01*
X107217236Y-75145066D01*
X106704700Y-74932242D01*
X106149735Y-74931758D01*
X105636828Y-75143687D01*
X105244066Y-75535764D01*
X105031242Y-76048300D01*
X105030758Y-76603265D01*
X101167000Y-76603265D01*
X101167000Y-73027000D01*
X102478560Y-73027000D01*
X102478560Y-74547000D01*
X102522838Y-74782317D01*
X102661910Y-74998441D01*
X102874110Y-75143431D01*
X103126000Y-75194440D01*
X104646000Y-75194440D01*
X104881317Y-75150162D01*
X105097441Y-75011090D01*
X105242431Y-74798890D01*
X105293440Y-74547000D01*
X105293440Y-73027000D01*
X105249162Y-72791683D01*
X105110090Y-72575559D01*
X104897890Y-72430569D01*
X104646000Y-72379560D01*
X103126000Y-72379560D01*
X102890683Y-72423838D01*
X102674559Y-72562910D01*
X102529569Y-72775110D01*
X102478560Y-73027000D01*
X101167000Y-73027000D01*
X101167000Y-72033200D01*
X110478027Y-72033200D01*
X110364302Y-72109189D01*
X110364302Y-72109189D01*
G37*
X110364302Y-72109189D02*
X110053233Y-72574736D01*
X109944000Y-73123887D01*
X109944000Y-73180113D01*
X110053233Y-73729264D01*
X110364302Y-74194811D01*
X110829849Y-74505880D01*
X111379000Y-74615113D01*
X111928151Y-74505880D01*
X112393698Y-74194811D01*
X112704767Y-73729264D01*
X112814000Y-73180113D01*
X112814000Y-73123887D01*
X112704767Y-72574736D01*
X112393698Y-72109189D01*
X112279973Y-72033200D01*
X114244687Y-72033200D01*
X114198969Y-72100110D01*
X114147960Y-72352000D01*
X114147960Y-73952000D01*
X114192238Y-74187317D01*
X114331310Y-74403441D01*
X114543510Y-74548431D01*
X114698489Y-74579815D01*
X114552589Y-74677302D01*
X114241520Y-75142849D01*
X114132287Y-75692000D01*
X114241520Y-76241151D01*
X114552589Y-76706698D01*
X114934675Y-76962000D01*
X114552589Y-77217302D01*
X114241520Y-77682849D01*
X114132287Y-78232000D01*
X114241520Y-78781151D01*
X114552589Y-79246698D01*
X114957103Y-79516986D01*
X114740266Y-79619611D01*
X114364359Y-80034577D01*
X114203496Y-80422961D01*
X114325485Y-80645000D01*
X115468400Y-80645000D01*
X115468400Y-80625000D01*
X115722400Y-80625000D01*
X115722400Y-80645000D01*
X116865315Y-80645000D01*
X116987304Y-80422961D01*
X116826441Y-80034577D01*
X116450534Y-79619611D01*
X116233697Y-79516986D01*
X116638211Y-79246698D01*
X116949280Y-78781151D01*
X117058513Y-78232000D01*
X116949280Y-77682849D01*
X116638211Y-77217302D01*
X116256125Y-76962000D01*
X116638211Y-76706698D01*
X116949280Y-76241151D01*
X117058513Y-75692000D01*
X121752287Y-75692000D01*
X121861520Y-76241151D01*
X122172589Y-76706698D01*
X122554675Y-76962000D01*
X122172589Y-77217302D01*
X121861520Y-77682849D01*
X121752287Y-78232000D01*
X121861520Y-78781151D01*
X122172589Y-79246698D01*
X122554675Y-79502000D01*
X122172589Y-79757302D01*
X121861520Y-80222849D01*
X121752287Y-80772000D01*
X121861520Y-81321151D01*
X122172589Y-81786698D01*
X122638136Y-82097767D01*
X123187287Y-82207000D01*
X123243513Y-82207000D01*
X123792664Y-82097767D01*
X124258211Y-81786698D01*
X124417436Y-81548400D01*
X125173160Y-81548400D01*
X125173160Y-83348400D01*
X125217438Y-83583717D01*
X125356510Y-83799841D01*
X125568710Y-83944831D01*
X125820600Y-83995840D01*
X127620600Y-83995840D01*
X127855917Y-83951562D01*
X128072041Y-83812490D01*
X128217031Y-83600290D01*
X128268040Y-83348400D01*
X128268040Y-82448400D01*
X135315528Y-82448400D01*
X135432373Y-83035819D01*
X135765119Y-83533809D01*
X136263109Y-83866555D01*
X136850528Y-83983400D01*
X136910672Y-83983400D01*
X137498091Y-83866555D01*
X137996081Y-83533809D01*
X138328827Y-83035819D01*
X138445672Y-82448400D01*
X138328827Y-81860981D01*
X137996081Y-81362991D01*
X137498091Y-81030245D01*
X136910672Y-80913400D01*
X136850528Y-80913400D01*
X136263109Y-81030245D01*
X135765119Y-81362991D01*
X135432373Y-81860981D01*
X135315528Y-82448400D01*
X128268040Y-82448400D01*
X128268040Y-81548400D01*
X128223762Y-81313083D01*
X128084690Y-81096959D01*
X127872490Y-80951969D01*
X127620600Y-80900960D01*
X125820600Y-80900960D01*
X125585283Y-80945238D01*
X125369159Y-81084310D01*
X125224169Y-81296510D01*
X125173160Y-81548400D01*
X124417436Y-81548400D01*
X124569280Y-81321151D01*
X124678513Y-80772000D01*
X124661097Y-80684443D01*
X124702561Y-80712148D01*
X124993400Y-80770000D01*
X135445500Y-80770000D01*
X135736339Y-80712148D01*
X135982901Y-80547401D01*
X136569302Y-79961000D01*
X144385612Y-79961000D01*
X144493503Y-80222115D01*
X145000815Y-80730312D01*
X145663988Y-81005686D01*
X146382062Y-81006313D01*
X147045715Y-80732097D01*
X147553912Y-80224785D01*
X147829286Y-79561612D01*
X147829913Y-78843538D01*
X147555697Y-78179885D01*
X147048385Y-77671688D01*
X146385212Y-77396314D01*
X145667138Y-77395687D01*
X145003485Y-77669903D01*
X144495288Y-78177215D01*
X144385755Y-78441000D01*
X136254500Y-78441000D01*
X135963661Y-78498852D01*
X135876961Y-78556783D01*
X135877448Y-77998613D01*
X135758233Y-77710091D01*
X135703148Y-77433160D01*
X135538401Y-77186599D01*
X135291840Y-77021852D01*
X135014685Y-76966722D01*
X134728891Y-76848050D01*
X134158013Y-76847552D01*
X133630400Y-77065557D01*
X133226376Y-77468877D01*
X133007450Y-77996109D01*
X133006952Y-78566987D01*
X133224957Y-79094600D01*
X133380086Y-79250000D01*
X127845092Y-79250000D01*
X128053241Y-79020223D01*
X128214104Y-78631839D01*
X128092115Y-78409800D01*
X126949200Y-78409800D01*
X126949200Y-78429800D01*
X126695200Y-78429800D01*
X126695200Y-78409800D01*
X125552285Y-78409800D01*
X125430296Y-78631839D01*
X125591159Y-79020223D01*
X125799308Y-79250000D01*
X125308202Y-79250000D01*
X124614088Y-78555886D01*
X124678513Y-78232000D01*
X124619190Y-77933761D01*
X125430296Y-77933761D01*
X125552285Y-78155800D01*
X126695200Y-78155800D01*
X126695200Y-77012171D01*
X126949200Y-77012171D01*
X126949200Y-78155800D01*
X128092115Y-78155800D01*
X128214104Y-77933761D01*
X128053241Y-77545377D01*
X127677334Y-77130411D01*
X127171241Y-76890886D01*
X126949200Y-77012171D01*
X126695200Y-77012171D01*
X126473159Y-76890886D01*
X125967066Y-77130411D01*
X125591159Y-77545377D01*
X125430296Y-77933761D01*
X124619190Y-77933761D01*
X124569280Y-77682849D01*
X124258211Y-77217302D01*
X123876125Y-76962000D01*
X124258211Y-76706698D01*
X124569280Y-76241151D01*
X124678513Y-75692000D01*
X124569280Y-75142849D01*
X124258211Y-74677302D01*
X123853697Y-74407014D01*
X124070534Y-74304389D01*
X124401168Y-73939400D01*
X125282528Y-73939400D01*
X125399373Y-74526819D01*
X125732119Y-75024809D01*
X126230109Y-75357555D01*
X126817528Y-75474400D01*
X126877672Y-75474400D01*
X127465091Y-75357555D01*
X127963081Y-75024809D01*
X128295827Y-74526819D01*
X128412672Y-73939400D01*
X128295827Y-73351981D01*
X128086968Y-73039400D01*
X135460160Y-73039400D01*
X135460160Y-74839400D01*
X135504438Y-75074717D01*
X135643510Y-75290841D01*
X135855710Y-75435831D01*
X136107600Y-75486840D01*
X137907600Y-75486840D01*
X138142917Y-75442562D01*
X138359041Y-75303490D01*
X138504031Y-75091290D01*
X138555040Y-74839400D01*
X138555040Y-74558462D01*
X144219287Y-74558462D01*
X144493503Y-75222115D01*
X145000815Y-75730312D01*
X145663988Y-76005686D01*
X146382062Y-76006313D01*
X147045715Y-75732097D01*
X147553912Y-75224785D01*
X147829286Y-74561612D01*
X147829913Y-73843538D01*
X147555697Y-73179885D01*
X147048385Y-72671688D01*
X146385212Y-72396314D01*
X145667138Y-72395687D01*
X145003485Y-72669903D01*
X144495288Y-73177215D01*
X144219914Y-73840388D01*
X144219287Y-74558462D01*
X138555040Y-74558462D01*
X138555040Y-73039400D01*
X138510762Y-72804083D01*
X138371690Y-72587959D01*
X138159490Y-72442969D01*
X137907600Y-72391960D01*
X136107600Y-72391960D01*
X135872283Y-72436238D01*
X135656159Y-72575310D01*
X135511169Y-72787510D01*
X135460160Y-73039400D01*
X128086968Y-73039400D01*
X127963081Y-72853991D01*
X127465091Y-72521245D01*
X126877672Y-72404400D01*
X126817528Y-72404400D01*
X126230109Y-72521245D01*
X125732119Y-72853991D01*
X125399373Y-73351981D01*
X125282528Y-73939400D01*
X124401168Y-73939400D01*
X124446441Y-73889423D01*
X124607304Y-73501039D01*
X124485315Y-73279000D01*
X123342400Y-73279000D01*
X123342400Y-73299000D01*
X123088400Y-73299000D01*
X123088400Y-73279000D01*
X121945485Y-73279000D01*
X121823496Y-73501039D01*
X121984359Y-73889423D01*
X122360266Y-74304389D01*
X122577103Y-74407014D01*
X122172589Y-74677302D01*
X121861520Y-75142849D01*
X121752287Y-75692000D01*
X117058513Y-75692000D01*
X116949280Y-75142849D01*
X116638211Y-74677302D01*
X116493935Y-74580899D01*
X116630717Y-74555162D01*
X116846841Y-74416090D01*
X116991831Y-74203890D01*
X117042840Y-73952000D01*
X117042840Y-72352000D01*
X116998562Y-72116683D01*
X116944842Y-72033200D01*
X122329839Y-72033200D01*
X121984359Y-72414577D01*
X121823496Y-72802961D01*
X121945485Y-73025000D01*
X123088400Y-73025000D01*
X123088400Y-73005000D01*
X123342400Y-73005000D01*
X123342400Y-73025000D01*
X124485315Y-73025000D01*
X124607304Y-72802961D01*
X124446441Y-72414577D01*
X124100961Y-72033200D01*
X148565800Y-72033200D01*
X148565800Y-90056900D01*
X109808625Y-90056900D01*
X109870927Y-89994598D01*
X109967600Y-89761209D01*
X109967600Y-89020650D01*
X109808850Y-88861900D01*
X108559600Y-88861900D01*
X108559600Y-88881900D01*
X108305600Y-88881900D01*
X108305600Y-88861900D01*
X107056350Y-88861900D01*
X106897600Y-89020650D01*
X106897600Y-89761209D01*
X106994273Y-89994598D01*
X107056575Y-90056900D01*
X105386000Y-90056900D01*
X105386000Y-88804750D01*
X105227250Y-88646000D01*
X103378000Y-88646000D01*
X103378000Y-88666000D01*
X103124000Y-88666000D01*
X103124000Y-88646000D01*
X103104000Y-88646000D01*
X103104000Y-88392000D01*
X103124000Y-88392000D01*
X103124000Y-86542750D01*
X103378000Y-86542750D01*
X103378000Y-88392000D01*
X105227250Y-88392000D01*
X105386000Y-88233250D01*
X105386000Y-87708591D01*
X106897600Y-87708591D01*
X106897600Y-88449150D01*
X107056350Y-88607900D01*
X108305600Y-88607900D01*
X108305600Y-87358650D01*
X108559600Y-87358650D01*
X108559600Y-88607900D01*
X109808850Y-88607900D01*
X109967600Y-88449150D01*
X109967600Y-87708591D01*
X109870927Y-87475202D01*
X109692299Y-87296573D01*
X109458910Y-87199900D01*
X108718350Y-87199900D01*
X108559600Y-87358650D01*
X108305600Y-87358650D01*
X108146850Y-87199900D01*
X107406290Y-87199900D01*
X107172901Y-87296573D01*
X106994273Y-87475202D01*
X106897600Y-87708591D01*
X105386000Y-87708591D01*
X105386000Y-86892691D01*
X105289327Y-86659302D01*
X105110699Y-86480673D01*
X104877310Y-86384000D01*
X103536750Y-86384000D01*
X103378000Y-86542750D01*
X103124000Y-86542750D01*
X102965250Y-86384000D01*
X101624690Y-86384000D01*
X101391301Y-86480673D01*
X101212673Y-86659302D01*
X101167000Y-86769566D01*
X101167000Y-83986140D01*
X101439980Y-84646800D01*
X102040041Y-85247909D01*
X102824459Y-85573628D01*
X103673815Y-85574370D01*
X104458800Y-85250020D01*
X105059909Y-84649959D01*
X105135548Y-84467800D01*
X111811160Y-84467800D01*
X111811160Y-86067800D01*
X111855438Y-86303117D01*
X111994510Y-86519241D01*
X112206710Y-86664231D01*
X112311641Y-86685480D01*
X112042776Y-86953877D01*
X111823850Y-87481109D01*
X111823352Y-88051987D01*
X112041357Y-88579600D01*
X112444677Y-88983624D01*
X112971909Y-89202550D01*
X113542787Y-89203048D01*
X114070400Y-88985043D01*
X114474424Y-88581723D01*
X114693350Y-88054491D01*
X114693848Y-87483613D01*
X114475843Y-86956000D01*
X114207528Y-86687217D01*
X114293917Y-86670962D01*
X114510041Y-86531890D01*
X114655031Y-86319690D01*
X114706040Y-86067800D01*
X114706040Y-85831387D01*
X124904352Y-85831387D01*
X125122357Y-86359000D01*
X125525677Y-86763024D01*
X125607531Y-86797013D01*
X125527800Y-86829957D01*
X125123776Y-87233277D01*
X124904850Y-87760509D01*
X124904352Y-88331387D01*
X125122357Y-88859000D01*
X125525677Y-89263024D01*
X126052909Y-89481950D01*
X126623787Y-89482448D01*
X127151400Y-89264443D01*
X127555424Y-88861123D01*
X127774350Y-88333891D01*
X127774848Y-87763013D01*
X127556843Y-87235400D01*
X127153523Y-86831376D01*
X127071669Y-86797387D01*
X127151400Y-86764443D01*
X127555424Y-86361123D01*
X127774350Y-85833891D01*
X127774471Y-85694200D01*
X129201660Y-85694200D01*
X129201660Y-88194200D01*
X129245938Y-88429517D01*
X129385010Y-88645641D01*
X129597210Y-88790631D01*
X129849100Y-88841640D01*
X132349100Y-88841640D01*
X132584417Y-88797362D01*
X132800541Y-88658290D01*
X132945531Y-88446090D01*
X132996540Y-88194200D01*
X132996540Y-87229950D01*
X133154100Y-87229950D01*
X133154100Y-88320510D01*
X133250773Y-88553899D01*
X133429402Y-88732527D01*
X133662791Y-88829200D01*
X134753350Y-88829200D01*
X134912100Y-88670450D01*
X134912100Y-87071200D01*
X135166100Y-87071200D01*
X135166100Y-88670450D01*
X135324850Y-88829200D01*
X136415409Y-88829200D01*
X136648798Y-88732527D01*
X136827427Y-88553899D01*
X136924100Y-88320510D01*
X136924100Y-87229950D01*
X136765350Y-87071200D01*
X135166100Y-87071200D01*
X134912100Y-87071200D01*
X133312850Y-87071200D01*
X133154100Y-87229950D01*
X132996540Y-87229950D01*
X132996540Y-85694200D01*
X132972774Y-85567890D01*
X133154100Y-85567890D01*
X133154100Y-86658450D01*
X133312850Y-86817200D01*
X134912100Y-86817200D01*
X134912100Y-85217950D01*
X135166100Y-85217950D01*
X135166100Y-86817200D01*
X136765350Y-86817200D01*
X136924100Y-86658450D01*
X136924100Y-85567890D01*
X136827427Y-85334501D01*
X136648798Y-85155873D01*
X136415409Y-85059200D01*
X135324850Y-85059200D01*
X135166100Y-85217950D01*
X134912100Y-85217950D01*
X134753350Y-85059200D01*
X133662791Y-85059200D01*
X133429402Y-85155873D01*
X133250773Y-85334501D01*
X133154100Y-85567890D01*
X132972774Y-85567890D01*
X132952262Y-85458883D01*
X132813190Y-85242759D01*
X132600990Y-85097769D01*
X132349100Y-85046760D01*
X129849100Y-85046760D01*
X129613783Y-85091038D01*
X129397659Y-85230110D01*
X129252669Y-85442310D01*
X129201660Y-85694200D01*
X127774471Y-85694200D01*
X127774848Y-85263013D01*
X127556843Y-84735400D01*
X127380214Y-84558462D01*
X144219287Y-84558462D01*
X144493503Y-85222115D01*
X145000815Y-85730312D01*
X145663988Y-86005686D01*
X146382062Y-86006313D01*
X147045715Y-85732097D01*
X147553912Y-85224785D01*
X147829286Y-84561612D01*
X147829913Y-83843538D01*
X147555697Y-83179885D01*
X147048385Y-82671688D01*
X146385212Y-82396314D01*
X145667138Y-82395687D01*
X145003485Y-82669903D01*
X144495288Y-83177215D01*
X144219914Y-83840388D01*
X144219287Y-84558462D01*
X127380214Y-84558462D01*
X127153523Y-84331376D01*
X126626291Y-84112450D01*
X126055413Y-84111952D01*
X125527800Y-84329957D01*
X125123776Y-84733277D01*
X124904850Y-85260509D01*
X124904352Y-85831387D01*
X114706040Y-85831387D01*
X114706040Y-84467800D01*
X114661762Y-84232483D01*
X114522690Y-84016359D01*
X114310490Y-83871369D01*
X114058600Y-83820360D01*
X112458600Y-83820360D01*
X112223283Y-83864638D01*
X112007159Y-84003710D01*
X111862169Y-84215910D01*
X111811160Y-84467800D01*
X105135548Y-84467800D01*
X105385628Y-83865541D01*
X105386370Y-83016185D01*
X105062020Y-82231200D01*
X104461959Y-81630091D01*
X104011000Y-81442836D01*
X104011000Y-81056187D01*
X109943752Y-81056187D01*
X110161757Y-81583800D01*
X110565077Y-81987824D01*
X111092309Y-82206750D01*
X111663187Y-82207248D01*
X112190800Y-81989243D01*
X112594824Y-81585923D01*
X112787860Y-81121039D01*
X114203496Y-81121039D01*
X114364359Y-81509423D01*
X114740266Y-81924389D01*
X115246359Y-82163914D01*
X115468400Y-82042629D01*
X115468400Y-80899000D01*
X115722400Y-80899000D01*
X115722400Y-82042629D01*
X115944441Y-82163914D01*
X116450534Y-81924389D01*
X116826441Y-81509423D01*
X116987304Y-81121039D01*
X116865315Y-80899000D01*
X115722400Y-80899000D01*
X115468400Y-80899000D01*
X114325485Y-80899000D01*
X114203496Y-81121039D01*
X112787860Y-81121039D01*
X112813750Y-81058691D01*
X112814248Y-80487813D01*
X112596243Y-79960200D01*
X112192923Y-79556176D01*
X111665691Y-79337250D01*
X111094813Y-79336752D01*
X110567200Y-79554757D01*
X110163176Y-79958077D01*
X109944250Y-80485309D01*
X109943752Y-81056187D01*
X104011000Y-81056187D01*
X104011000Y-80262110D01*
X104162265Y-80262242D01*
X104675172Y-80050313D01*
X105067934Y-79658236D01*
X105202195Y-79334900D01*
X107109666Y-79334900D01*
X107347191Y-79690381D01*
X107845181Y-80023127D01*
X108432600Y-80139972D01*
X109020019Y-80023127D01*
X109518009Y-79690381D01*
X109850755Y-79192391D01*
X109967600Y-78604972D01*
X109967600Y-78544828D01*
X109850755Y-77957409D01*
X109518009Y-77459419D01*
X109020019Y-77126673D01*
X108432600Y-77009828D01*
X107845181Y-77126673D01*
X107347191Y-77459419D01*
X107109666Y-77814900D01*
X104806844Y-77814900D01*
X104677236Y-77685066D01*
X104164700Y-77472242D01*
X103609735Y-77471758D01*
X103096828Y-77683687D01*
X102704066Y-78075764D01*
X102491242Y-78588300D01*
X102490758Y-79143265D01*
X102539090Y-79260237D01*
X102491000Y-79502000D01*
X102491000Y-81442952D01*
X102043200Y-81627980D01*
X101442091Y-82228041D01*
X101167000Y-82890533D01*
X101167000Y-76603265D01*
X105030758Y-76603265D01*
X105242687Y-77116172D01*
X105634764Y-77508934D01*
X106147300Y-77721758D01*
X106702265Y-77722242D01*
X107215172Y-77510313D01*
X107607934Y-77118236D01*
X107820758Y-76605700D01*
X107821242Y-76050735D01*
X107609313Y-75537828D01*
X107217236Y-75145066D01*
X106704700Y-74932242D01*
X106149735Y-74931758D01*
X105636828Y-75143687D01*
X105244066Y-75535764D01*
X105031242Y-76048300D01*
X105030758Y-76603265D01*
X101167000Y-76603265D01*
X101167000Y-73027000D01*
X102478560Y-73027000D01*
X102478560Y-74547000D01*
X102522838Y-74782317D01*
X102661910Y-74998441D01*
X102874110Y-75143431D01*
X103126000Y-75194440D01*
X104646000Y-75194440D01*
X104881317Y-75150162D01*
X105097441Y-75011090D01*
X105242431Y-74798890D01*
X105293440Y-74547000D01*
X105293440Y-73027000D01*
X105249162Y-72791683D01*
X105110090Y-72575559D01*
X104897890Y-72430569D01*
X104646000Y-72379560D01*
X103126000Y-72379560D01*
X102890683Y-72423838D01*
X102674559Y-72562910D01*
X102529569Y-72775110D01*
X102478560Y-73027000D01*
X101167000Y-73027000D01*
X101167000Y-72033200D01*
X110478027Y-72033200D01*
X110364302Y-72109189D01*
M02*
