G04 #@! TF.FileFunction,Copper,L1,Top,Signal*
%FSLAX46Y46*%
G04 Gerber Fmt 4.6, Leading zero omitted, Abs format (unit mm)*
G04 Created by KiCad (PCBNEW 4.0.7) date 01/30/18 23:23:01*
%MOMM*%
%LPD*%
G01*
G04 APERTURE LIST*
%ADD10C,0.100000*%
%ADD11R,1.600000X1.600000*%
%ADD12O,1.600000X1.600000*%
%ADD13O,1.510000X3.010000*%
%ADD14C,1.520000*%
%ADD15R,1.520000X1.520000*%
%ADD16C,1.600000*%
%ADD17C,2.200000*%
%ADD18R,2.000000X2.000000*%
%ADD19C,2.000000*%
%ADD20C,0.250000*%
G04 APERTURE END LIST*
D10*
D11*
X70612000Y-27432000D03*
D12*
X85852000Y-60452000D03*
X70612000Y-29972000D03*
X85852000Y-57912000D03*
X70612000Y-32512000D03*
X85852000Y-55372000D03*
X70612000Y-35052000D03*
X85852000Y-52832000D03*
X70612000Y-37592000D03*
X85852000Y-50292000D03*
X70612000Y-40132000D03*
X85852000Y-47752000D03*
X70612000Y-42672000D03*
X85852000Y-45212000D03*
X70612000Y-45212000D03*
X85852000Y-42672000D03*
X70612000Y-47752000D03*
X85852000Y-40132000D03*
X70612000Y-50292000D03*
X85852000Y-37592000D03*
X70612000Y-52832000D03*
X85852000Y-35052000D03*
X70612000Y-55372000D03*
X85852000Y-32512000D03*
X70612000Y-57912000D03*
X85852000Y-29972000D03*
X70612000Y-60452000D03*
X85852000Y-27432000D03*
X70612000Y-62992000D03*
X85852000Y-62992000D03*
D13*
X72644000Y-75184000D03*
X70104000Y-75184000D03*
D14*
X38862000Y-75819000D03*
X38862000Y-73279000D03*
D15*
X38862000Y-78359000D03*
D14*
X33782000Y-75819000D03*
X33782000Y-73279000D03*
D15*
X33782000Y-78359000D03*
D14*
X28702000Y-75819000D03*
X28702000Y-73279000D03*
D15*
X28702000Y-78359000D03*
D16*
X53086000Y-78359000D03*
D12*
X53086000Y-70739000D03*
D16*
X49530000Y-78359000D03*
D12*
X49530000Y-70739000D03*
D16*
X45974000Y-78359000D03*
D12*
X45974000Y-70739000D03*
D17*
X22860000Y-24892000D03*
X43180000Y-24892000D03*
X63500000Y-24892000D03*
X22860000Y-45212000D03*
X43180000Y-45212000D03*
X63500000Y-45212000D03*
X22860000Y-65532000D03*
X43180000Y-65532000D03*
X63500000Y-65532000D03*
X38862000Y-69723000D03*
X33782000Y-69723000D03*
X28702000Y-69723000D03*
D18*
X78740000Y-74676000D03*
D19*
X81280000Y-74676000D03*
X83780000Y-74676000D03*
X65532000Y-72716000D03*
X65532000Y-77216000D03*
X59032000Y-72716000D03*
X59032000Y-77216000D03*
D20*
X70612000Y-27432000D02*
X45720000Y-27432000D01*
X45720000Y-27432000D02*
X43180000Y-24892000D01*
X26924000Y-24892000D02*
X22860000Y-24892000D01*
X32004000Y-29972000D02*
X26924000Y-24892000D01*
X70612000Y-29972000D02*
X32004000Y-29972000D01*
X85852000Y-55372000D02*
X76200000Y-55372000D01*
X71501000Y-70739000D02*
X53086000Y-70739000D01*
X74676000Y-67564000D02*
X71501000Y-70739000D01*
X74676000Y-56896000D02*
X74676000Y-67564000D01*
X76200000Y-55372000D02*
X74676000Y-56896000D01*
X85852000Y-52832000D02*
X74676000Y-52832000D01*
X51181000Y-69088000D02*
X49530000Y-70739000D01*
X71120000Y-69088000D02*
X51181000Y-69088000D01*
X73660000Y-66548000D02*
X71120000Y-69088000D01*
X73660000Y-53848000D02*
X73660000Y-66548000D01*
X74676000Y-52832000D02*
X73660000Y-53848000D01*
X70612000Y-37592000D02*
X71120000Y-37592000D01*
X71120000Y-37592000D02*
X72644000Y-36068000D01*
X72644000Y-36068000D02*
X72644000Y-25908000D01*
X72644000Y-25908000D02*
X71628000Y-24892000D01*
X71628000Y-24892000D02*
X63500000Y-24892000D01*
X85852000Y-50292000D02*
X75184000Y-50292000D01*
X49149000Y-67564000D02*
X45974000Y-70739000D01*
X70104000Y-67564000D02*
X49149000Y-67564000D01*
X72136000Y-65532000D02*
X70104000Y-67564000D01*
X72136000Y-53340000D02*
X72136000Y-65532000D01*
X75184000Y-50292000D02*
X72136000Y-53340000D01*
X70612000Y-40132000D02*
X27940000Y-40132000D01*
X27940000Y-40132000D02*
X22860000Y-45212000D01*
X70612000Y-42672000D02*
X45720000Y-42672000D01*
X45720000Y-42672000D02*
X43180000Y-45212000D01*
X70612000Y-45212000D02*
X63500000Y-45212000D01*
X70612000Y-47752000D02*
X40640000Y-47752000D01*
X40640000Y-47752000D02*
X22860000Y-65532000D01*
X70612000Y-50292000D02*
X58420000Y-50292000D01*
X58420000Y-50292000D02*
X43180000Y-65532000D01*
X70612000Y-52832000D02*
X67056000Y-52832000D01*
X63500000Y-56388000D02*
X63500000Y-65532000D01*
X67056000Y-52832000D02*
X63500000Y-56388000D01*
X81280000Y-74676000D02*
X81280000Y-74168000D01*
X81280000Y-74168000D02*
X87376000Y-68072000D01*
X87376000Y-68072000D02*
X87376000Y-28956000D01*
X87376000Y-28956000D02*
X85852000Y-27432000D01*
X85852000Y-62992000D02*
X81280000Y-62992000D01*
X71628000Y-72644000D02*
X59104000Y-72644000D01*
X72136000Y-72136000D02*
X71628000Y-72644000D01*
X81280000Y-62992000D02*
X72136000Y-72136000D01*
X59104000Y-72644000D02*
X59032000Y-72716000D01*
X72644000Y-75184000D02*
X78232000Y-75184000D01*
X78232000Y-75184000D02*
X78740000Y-74676000D01*
X38862000Y-69723000D02*
X38862000Y-73279000D01*
X33782000Y-69723000D02*
X33782000Y-73279000D01*
X28702000Y-73279000D02*
X28702000Y-69723000D01*
X33782000Y-75819000D02*
X36626800Y-75819000D01*
X45720000Y-74549000D02*
X49530000Y-78359000D01*
X37896800Y-74549000D02*
X45720000Y-74549000D01*
X36626800Y-75819000D02*
X37896800Y-74549000D01*
X45974000Y-78359000D02*
X41579800Y-78359000D01*
X29972000Y-77089000D02*
X28702000Y-75819000D01*
X40309800Y-77089000D02*
X29972000Y-77089000D01*
X41579800Y-78359000D02*
X40309800Y-77089000D01*
M02*
