M48
INCH,TZ
T1C0.031
T2C0.039
T3C0.043
T4C0.047
%
G90
G05
T1
X11300Y-28850
X11300Y-29850
X11300Y-30850
X13300Y-28850
X13300Y-29850
X13300Y-30850
X15300Y-28850
X15300Y-29850
X15300Y-30850
X18100Y-27850
X18100Y-30850
X19500Y-27850
X19500Y-30850
X20900Y-27850
X20900Y-30850
X27800Y-10800
X27800Y-11800
X27800Y-12800
X27800Y-13800
X27800Y-14800
X27800Y-15800
X27800Y-16800
X27800Y-17800
X27800Y-18800
X27800Y-19800
X27800Y-20800
X27800Y-21800
X27800Y-22800
X27800Y-23800
X27800Y-24800
X33800Y-10800
X33800Y-11800
X33800Y-12800
X33800Y-13800
X33800Y-14800
X33800Y-15800
X33800Y-16800
X33800Y-17800
X33800Y-18800
X33800Y-19800
X33800Y-20800
X33800Y-21800
X33800Y-22800
X33800Y-23800
X33800Y-24800
T2
X27600Y-29600
X28600Y-29600
T3
X9000Y-9800
X9000Y-17800
X9000Y-25800
X11300Y-27450
X13300Y-27450
X15300Y-27450
X17000Y-9800
X17000Y-17800
X17000Y-25800
X23241Y-28628
X23241Y-30400
X25000Y-9800
X25000Y-17800
X25000Y-25800
X25800Y-28628
X25800Y-30400
T4
X31000Y-29400
X32000Y-29400
X32984Y-29400
T0
M30
