G04 #@! TF.FileFunction,Legend,Top*
%FSLAX46Y46*%
G04 Gerber Fmt 4.6, Leading zero omitted, Abs format (unit mm)*
G04 Created by KiCad (PCBNEW 4.0.7) date 06/28/18 12:54:00*
%MOMM*%
%LPD*%
G01*
G04 APERTURE LIST*
%ADD10C,0.100000*%
%ADD11C,0.152400*%
%ADD12C,0.120000*%
%ADD13C,0.150000*%
G04 APERTURE END LIST*
D10*
D11*
X74270000Y-81163500D02*
X74270000Y-73416500D01*
X74270000Y-73416500D02*
X59004600Y-73416500D01*
X59004600Y-73416500D02*
X59004600Y-81163500D01*
X59004600Y-81163500D02*
X74270000Y-81163500D01*
X60350800Y-81836600D02*
G75*
G03X60350800Y-81836600I-76200J0D01*
G01*
X74270000Y-72163500D02*
X74270000Y-64416500D01*
X74270000Y-64416500D02*
X59004600Y-64416500D01*
X59004600Y-64416500D02*
X59004600Y-72163500D01*
X59004600Y-72163500D02*
X74270000Y-72163500D01*
X60350800Y-72836600D02*
G75*
G03X60350800Y-72836600I-76200J0D01*
G01*
D12*
X56392400Y-28728000D02*
X56392400Y-31528000D01*
X56392400Y-35528000D02*
X56392400Y-38328000D01*
X78892400Y-35528000D02*
X78892400Y-38328000D01*
X78892400Y-38328000D02*
X56392400Y-38328000D01*
X78892400Y-28728000D02*
X56392400Y-28728000D01*
X78892400Y-28728000D02*
X78892400Y-31528000D01*
X35500000Y-82102000D02*
X40700000Y-82102000D01*
X35500000Y-33782000D02*
X35500000Y-82102000D01*
X40700000Y-31182000D02*
X40700000Y-82102000D01*
X35500000Y-33782000D02*
X38100000Y-33782000D01*
X38100000Y-33782000D02*
X38100000Y-31182000D01*
X38100000Y-31182000D02*
X40700000Y-31182000D01*
X35500000Y-32512000D02*
X35500000Y-31182000D01*
X35500000Y-31182000D02*
X36830000Y-31182000D01*
D13*
X77756000Y-80708000D02*
X77756000Y-72708000D01*
X77756000Y-72708000D02*
X81756000Y-72708000D01*
X81756000Y-72708000D02*
X81756000Y-80708000D01*
X81756000Y-80708000D02*
X77756000Y-80708000D01*
X77756000Y-76708000D02*
X81756000Y-76708000D01*
X77756000Y-53276000D02*
X77756000Y-45276000D01*
X77756000Y-45276000D02*
X81756000Y-45276000D01*
X81756000Y-45276000D02*
X81756000Y-53276000D01*
X81756000Y-53276000D02*
X77756000Y-53276000D01*
X77756000Y-49276000D02*
X81756000Y-49276000D01*
X77756000Y-70548000D02*
X77756000Y-62548000D01*
X77756000Y-62548000D02*
X81756000Y-62548000D01*
X81756000Y-62548000D02*
X81756000Y-70548000D01*
X81756000Y-70548000D02*
X77756000Y-70548000D01*
X77756000Y-66548000D02*
X81756000Y-66548000D01*
D12*
X50143200Y-35489600D02*
X51863200Y-35489600D01*
X51863200Y-35489600D02*
X51863200Y-31769600D01*
X51863200Y-31769600D02*
X50143200Y-31769600D01*
X50143200Y-31769600D02*
X50143200Y-35489600D01*
X51003200Y-36559600D02*
X51003200Y-35489600D01*
X51003200Y-30699600D02*
X51003200Y-31769600D01*
D13*
X80756000Y-55520000D02*
X73756000Y-55520000D01*
X80756000Y-59420000D02*
X73756000Y-59420000D01*
X73756000Y-59420000D02*
X73756000Y-55520000D01*
X80756000Y-59420000D02*
X80756000Y-55520000D01*
D10*
X41797600Y-40723200D02*
X49297600Y-40723200D01*
X49297600Y-40723200D02*
X49297600Y-25723200D01*
X49297600Y-25723200D02*
X41797600Y-25723200D01*
X41797600Y-25723200D02*
X41797600Y-40723200D01*
D12*
X48904400Y-62525600D02*
G75*
G02X46904400Y-62525600I-1000000J0D01*
G01*
X46904400Y-62525600D02*
X45254400Y-62525600D01*
X45254400Y-62525600D02*
X45254400Y-82965600D01*
X45254400Y-82965600D02*
X50554400Y-82965600D01*
X50554400Y-82965600D02*
X50554400Y-62525600D01*
X50554400Y-62525600D02*
X48904400Y-62525600D01*
X42764400Y-62465600D02*
X42764400Y-83025600D01*
X42764400Y-83025600D02*
X53044400Y-83025600D01*
X53044400Y-83025600D02*
X53044400Y-62465600D01*
X53044400Y-62465600D02*
X42764400Y-62465600D01*
D10*
X42316000Y-43584000D02*
X42316000Y-55984000D01*
X42316000Y-55984000D02*
X70916000Y-55984000D01*
X70916000Y-55984000D02*
X70916000Y-43584000D01*
X70916000Y-43584000D02*
X42316000Y-43584000D01*
D13*
X64308381Y-78028095D02*
X63308381Y-78028095D01*
X64308381Y-77456666D02*
X63736952Y-77885238D01*
X63308381Y-77456666D02*
X63879810Y-78028095D01*
X64308381Y-76504285D02*
X64308381Y-77075714D01*
X64308381Y-76790000D02*
X63308381Y-76790000D01*
X63451238Y-76885238D01*
X63546476Y-76980476D01*
X63594095Y-77075714D01*
X67089681Y-78813809D02*
X66089681Y-78813809D01*
X67089681Y-78337619D02*
X66089681Y-78337619D01*
X66803967Y-78004285D01*
X66089681Y-77670952D01*
X67089681Y-77670952D01*
X67089681Y-76670952D02*
X67089681Y-77242381D01*
X67089681Y-76956667D02*
X66089681Y-76956667D01*
X66232538Y-77051905D01*
X66327776Y-77147143D01*
X66375395Y-77242381D01*
X66089681Y-76337619D02*
X66089681Y-75670952D01*
X67089681Y-76099524D01*
X64435381Y-68901095D02*
X63435381Y-68901095D01*
X64435381Y-68329666D02*
X63863952Y-68758238D01*
X63435381Y-68329666D02*
X64006810Y-68901095D01*
X63530619Y-67948714D02*
X63483000Y-67901095D01*
X63435381Y-67805857D01*
X63435381Y-67567761D01*
X63483000Y-67472523D01*
X63530619Y-67424904D01*
X63625857Y-67377285D01*
X63721095Y-67377285D01*
X63863952Y-67424904D01*
X64435381Y-67996333D01*
X64435381Y-67377285D01*
X67089681Y-69813809D02*
X66089681Y-69813809D01*
X67089681Y-69337619D02*
X66089681Y-69337619D01*
X66803967Y-69004285D01*
X66089681Y-68670952D01*
X67089681Y-68670952D01*
X67089681Y-67670952D02*
X67089681Y-68242381D01*
X67089681Y-67956667D02*
X66089681Y-67956667D01*
X66232538Y-68051905D01*
X66327776Y-68147143D01*
X66375395Y-68242381D01*
X66089681Y-67337619D02*
X66089681Y-66670952D01*
X67089681Y-67099524D01*
X67309067Y-39456571D02*
X66975733Y-39456571D01*
X66975733Y-39980381D02*
X66975733Y-38980381D01*
X67451924Y-38980381D01*
X68356686Y-39980381D02*
X67785257Y-39980381D01*
X68070971Y-39980381D02*
X68070971Y-38980381D01*
X67975733Y-39123238D01*
X67880495Y-39218476D01*
X67785257Y-39266095D01*
X37766667Y-29634381D02*
X37766667Y-30348667D01*
X37719047Y-30491524D01*
X37623809Y-30586762D01*
X37480952Y-30634381D01*
X37385714Y-30634381D01*
X38766667Y-30634381D02*
X38195238Y-30634381D01*
X38480952Y-30634381D02*
X38480952Y-29634381D01*
X38385714Y-29777238D01*
X38290476Y-29872476D01*
X38195238Y-29920095D01*
X82298857Y-77108000D02*
X83156000Y-77108000D01*
X83327429Y-77165142D01*
X83441714Y-77279428D01*
X83498857Y-77450857D01*
X83498857Y-77565142D01*
X82413143Y-76593714D02*
X82356000Y-76536571D01*
X82298857Y-76422285D01*
X82298857Y-76136571D01*
X82356000Y-76022285D01*
X82413143Y-75965142D01*
X82527429Y-75907999D01*
X82641714Y-75907999D01*
X82813143Y-75965142D01*
X83498857Y-76650856D01*
X83498857Y-75907999D01*
X82298857Y-49676000D02*
X83156000Y-49676000D01*
X83327429Y-49733142D01*
X83441714Y-49847428D01*
X83498857Y-50018857D01*
X83498857Y-50133142D01*
X82298857Y-49218856D02*
X82298857Y-48475999D01*
X82756000Y-48875999D01*
X82756000Y-48704571D01*
X82813143Y-48590285D01*
X82870286Y-48533142D01*
X82984571Y-48475999D01*
X83270286Y-48475999D01*
X83384571Y-48533142D01*
X83441714Y-48590285D01*
X83498857Y-48704571D01*
X83498857Y-49047428D01*
X83441714Y-49161714D01*
X83384571Y-49218856D01*
X82298857Y-66948000D02*
X83156000Y-66948000D01*
X83327429Y-67005142D01*
X83441714Y-67119428D01*
X83498857Y-67290857D01*
X83498857Y-67405142D01*
X82698857Y-65862285D02*
X83498857Y-65862285D01*
X82241714Y-66147999D02*
X83098857Y-66433714D01*
X83098857Y-65690856D01*
X49595581Y-33796266D02*
X49119390Y-34129600D01*
X49595581Y-34367695D02*
X48595581Y-34367695D01*
X48595581Y-33986742D01*
X48643200Y-33891504D01*
X48690819Y-33843885D01*
X48786057Y-33796266D01*
X48928914Y-33796266D01*
X49024152Y-33843885D01*
X49071771Y-33891504D01*
X49119390Y-33986742D01*
X49119390Y-34367695D01*
X49595581Y-32843885D02*
X49595581Y-33415314D01*
X49595581Y-33129600D02*
X48595581Y-33129600D01*
X48738438Y-33224838D01*
X48833676Y-33320076D01*
X48881295Y-33415314D01*
X76660762Y-54972381D02*
X76327428Y-54496190D01*
X76089333Y-54972381D02*
X76089333Y-53972381D01*
X76470286Y-53972381D01*
X76565524Y-54020000D01*
X76613143Y-54067619D01*
X76660762Y-54162857D01*
X76660762Y-54305714D01*
X76613143Y-54400952D01*
X76565524Y-54448571D01*
X76470286Y-54496190D01*
X76089333Y-54496190D01*
X76946476Y-53972381D02*
X77279809Y-54972381D01*
X77613143Y-53972381D01*
X78470286Y-54972381D02*
X77898857Y-54972381D01*
X78184571Y-54972381D02*
X78184571Y-53972381D01*
X78089333Y-54115238D01*
X77994095Y-54210476D01*
X77898857Y-54258095D01*
X47640457Y-34137486D02*
X48611886Y-34137486D01*
X48726171Y-34080343D01*
X48783314Y-34023200D01*
X48840457Y-33908914D01*
X48840457Y-33680343D01*
X48783314Y-33566057D01*
X48726171Y-33508914D01*
X48611886Y-33451771D01*
X47640457Y-33451771D01*
X47754743Y-32937486D02*
X47697600Y-32880343D01*
X47640457Y-32766057D01*
X47640457Y-32480343D01*
X47697600Y-32366057D01*
X47754743Y-32308914D01*
X47869029Y-32251771D01*
X47983314Y-32251771D01*
X48154743Y-32308914D01*
X48840457Y-32994628D01*
X48840457Y-32251771D01*
X47142495Y-60977981D02*
X47142495Y-61787505D01*
X47190114Y-61882743D01*
X47237733Y-61930362D01*
X47332971Y-61977981D01*
X47523448Y-61977981D01*
X47618686Y-61930362D01*
X47666305Y-61882743D01*
X47713924Y-61787505D01*
X47713924Y-60977981D01*
X48713924Y-61977981D02*
X48142495Y-61977981D01*
X48428209Y-61977981D02*
X48428209Y-60977981D01*
X48332971Y-61120838D01*
X48237733Y-61216076D01*
X48142495Y-61263695D01*
X56927905Y-53036381D02*
X56927905Y-52036381D01*
X57499334Y-53036381D02*
X57070762Y-52464952D01*
X57499334Y-52036381D02*
X56927905Y-52607810D01*
X57832667Y-52036381D02*
X58451715Y-52036381D01*
X58118381Y-52417333D01*
X58261239Y-52417333D01*
X58356477Y-52464952D01*
X58404096Y-52512571D01*
X58451715Y-52607810D01*
X58451715Y-52845905D01*
X58404096Y-52941143D01*
X58356477Y-52988762D01*
X58261239Y-53036381D01*
X57975524Y-53036381D01*
X57880286Y-52988762D01*
X57832667Y-52941143D01*
M02*
