G04 #@! TF.FileFunction,Soldermask,Bot*
%FSLAX46Y46*%
G04 Gerber Fmt 4.6, Leading zero omitted, Abs format (unit mm)*
G04 Created by KiCad (PCBNEW 4.0.7) date 06/28/18 12:54:00*
%MOMM*%
%LPD*%
G01*
G04 APERTURE LIST*
%ADD10C,0.100000*%
%ADD11C,1.670000*%
%ADD12C,3.400000*%
%ADD13C,3.100000*%
%ADD14R,2.100000X2.100000*%
%ADD15O,2.100000X2.100000*%
%ADD16O,3.400000X2.400000*%
%ADD17C,1.800000*%
%ADD18O,1.800000X1.800000*%
%ADD19C,2.000000*%
%ADD20O,2.400000X1.900000*%
%ADD21R,2.000000X2.000000*%
%ADD22O,2.000000X2.000000*%
%ADD23O,2.400000X2.900000*%
%ADD24O,1.700000X2.100000*%
G04 APERTURE END LIST*
D10*
D11*
X60274600Y-79830000D03*
X65354600Y-79830000D03*
X67894600Y-79830000D03*
X70434600Y-79830000D03*
X70434600Y-74750000D03*
X67894600Y-74750000D03*
X65354600Y-74750000D03*
X60274600Y-74750000D03*
X60274600Y-70830000D03*
X65354600Y-70830000D03*
X67894600Y-70830000D03*
X70434600Y-70830000D03*
X70434600Y-65750000D03*
X67894600Y-65750000D03*
X65354600Y-65750000D03*
X60274600Y-65750000D03*
D12*
X78892400Y-33528000D03*
X56392400Y-33528000D03*
D13*
X67642400Y-33528000D03*
D14*
X36830000Y-32512000D03*
D15*
X39370000Y-32512000D03*
X36830000Y-35052000D03*
X39370000Y-35052000D03*
X36830000Y-37592000D03*
X39370000Y-37592000D03*
X36830000Y-40132000D03*
X39370000Y-40132000D03*
X36830000Y-42672000D03*
X39370000Y-42672000D03*
X36830000Y-45212000D03*
X39370000Y-45212000D03*
X36830000Y-47752000D03*
X39370000Y-47752000D03*
X36830000Y-50292000D03*
X39370000Y-50292000D03*
X36830000Y-52832000D03*
X39370000Y-52832000D03*
X36830000Y-55372000D03*
X39370000Y-55372000D03*
X36830000Y-57912000D03*
X39370000Y-57912000D03*
X36830000Y-60452000D03*
X39370000Y-60452000D03*
X36830000Y-62992000D03*
X39370000Y-62992000D03*
X36830000Y-65532000D03*
X39370000Y-65532000D03*
X36830000Y-68072000D03*
X39370000Y-68072000D03*
X36830000Y-70612000D03*
X39370000Y-70612000D03*
X36830000Y-73152000D03*
X39370000Y-73152000D03*
X36830000Y-75692000D03*
X39370000Y-75692000D03*
X36830000Y-78232000D03*
X39370000Y-78232000D03*
X36830000Y-80772000D03*
X39370000Y-80772000D03*
D16*
X79756000Y-79208000D03*
X79756000Y-74208000D03*
X79756000Y-51776000D03*
X79756000Y-46776000D03*
X79756000Y-69048000D03*
X79756000Y-64048000D03*
D17*
X51003200Y-37439600D03*
D18*
X51003200Y-29819600D03*
D19*
X79756000Y-58420000D03*
X74756000Y-56520000D03*
D20*
X43797600Y-37033200D03*
X43797600Y-34493200D03*
X43797600Y-31953200D03*
X43797600Y-29413200D03*
D21*
X44094400Y-63855600D03*
D22*
X51714400Y-81635600D03*
X44094400Y-66395600D03*
X51714400Y-79095600D03*
X44094400Y-68935600D03*
X51714400Y-76555600D03*
X44094400Y-71475600D03*
X51714400Y-74015600D03*
X44094400Y-74015600D03*
X51714400Y-71475600D03*
X44094400Y-76555600D03*
X51714400Y-68935600D03*
X44094400Y-79095600D03*
X51714400Y-66395600D03*
X44094400Y-81635600D03*
X51714400Y-63855600D03*
D23*
X70116000Y-49784000D03*
D24*
X44116000Y-46034000D03*
X44116000Y-53534000D03*
M02*
