M48
INCH,TZ
T1C0.024
T2C0.028
T3C0.030
T4C0.031
T5C0.035
T6C0.039
T7C0.043
T8C0.051
%
G90
G05
T1
X29431Y-22252
X31400Y-23000
T2
X20080Y-11740
X20080Y-14740
T3
X23730Y-25886
X23730Y-27886
X23730Y-29429
X23730Y-31429
X25730Y-25886
X25730Y-27886
X25730Y-29429
X25730Y-31429
X26730Y-25886
X26730Y-27886
X26730Y-29429
X26730Y-31429
X27730Y-25886
X27730Y-27886
X27730Y-29429
X27730Y-31429
T4
X17243Y-11580
X17243Y-12580
X17243Y-13580
X17243Y-14580
X17360Y-25140
X17360Y-26140
X17360Y-27140
X17360Y-28140
X17360Y-29140
X17360Y-30140
X17360Y-31140
X17360Y-32140
X20360Y-25140
X20360Y-26140
X20360Y-27140
X20360Y-28140
X20360Y-29140
X20360Y-30140
X20360Y-31140
X20360Y-32140
T6
X14500Y-12800
X14500Y-13800
X14500Y-14800
X14500Y-15800
X14500Y-16800
X14500Y-17800
X14500Y-18800
X14500Y-19800
X14500Y-20800
X14500Y-21800
X14500Y-22800
X14500Y-23800
X14500Y-24800
X14500Y-25800
X14500Y-26800
X14500Y-27800
X14500Y-28800
X14500Y-29800
X14500Y-30800
X14500Y-31800
X15500Y-12800
X15500Y-13800
X15500Y-14800
X15500Y-15800
X15500Y-16800
X15500Y-17800
X15500Y-18800
X15500Y-19800
X15500Y-20800
X15500Y-21800
X15500Y-22800
X15500Y-23800
X15500Y-24800
X15500Y-25800
X15500Y-26800
X15500Y-27800
X15500Y-28800
X15500Y-29800
X15500Y-30800
X15500Y-31800
T7
X31400Y-18416
X31400Y-20384
X31400Y-25216
X31400Y-27184
X31400Y-29216
X31400Y-31184
T8
X22202Y-13200
X31060Y-13200
T4
X17369Y-18104G85X17369Y-18143
G05
X17369Y-21057G85X17369Y-21096
G05
T5
X27605Y-19462G85X27605Y-19738
G05
T0
M30
