G04 #@! TF.FileFunction,Copper,L1,Top,Signal*
%FSLAX46Y46*%
G04 Gerber Fmt 4.6, Leading zero omitted, Abs format (unit mm)*
G04 Created by KiCad (PCBNEW 4.0.7) date 06/28/18 12:54:00*
%MOMM*%
%LPD*%
G01*
G04 APERTURE LIST*
%ADD10C,0.100000*%
%ADD11C,1.270000*%
%ADD12C,3.000000*%
%ADD13R,1.700000X1.700000*%
%ADD14O,1.700000X1.700000*%
%ADD15O,3.000000X2.000000*%
%ADD16C,1.400000*%
%ADD17O,1.400000X1.400000*%
%ADD18C,1.600000*%
%ADD19O,2.000000X1.500000*%
%ADD20R,1.600000X1.600000*%
%ADD21O,1.600000X1.600000*%
%ADD22O,2.000000X2.500000*%
%ADD23O,1.300000X1.700000*%
%ADD24C,0.400000*%
%ADD25C,0.200000*%
%ADD26C,0.254000*%
G04 APERTURE END LIST*
D10*
D11*
X60274600Y-79830000D03*
X65354600Y-79830000D03*
X67894600Y-79830000D03*
X70434600Y-79830000D03*
X70434600Y-74750000D03*
X67894600Y-74750000D03*
X65354600Y-74750000D03*
X60274600Y-74750000D03*
X60274600Y-70830000D03*
X65354600Y-70830000D03*
X67894600Y-70830000D03*
X70434600Y-70830000D03*
X70434600Y-65750000D03*
X67894600Y-65750000D03*
X65354600Y-65750000D03*
X60274600Y-65750000D03*
D12*
X78892400Y-33528000D03*
X56392400Y-33528000D03*
D13*
X36830000Y-32512000D03*
D14*
X39370000Y-32512000D03*
X36830000Y-35052000D03*
X39370000Y-35052000D03*
X36830000Y-37592000D03*
X39370000Y-37592000D03*
X36830000Y-40132000D03*
X39370000Y-40132000D03*
X36830000Y-42672000D03*
X39370000Y-42672000D03*
X36830000Y-45212000D03*
X39370000Y-45212000D03*
X36830000Y-47752000D03*
X39370000Y-47752000D03*
X36830000Y-50292000D03*
X39370000Y-50292000D03*
X36830000Y-52832000D03*
X39370000Y-52832000D03*
X36830000Y-55372000D03*
X39370000Y-55372000D03*
X36830000Y-57912000D03*
X39370000Y-57912000D03*
X36830000Y-60452000D03*
X39370000Y-60452000D03*
X36830000Y-62992000D03*
X39370000Y-62992000D03*
X36830000Y-65532000D03*
X39370000Y-65532000D03*
X36830000Y-68072000D03*
X39370000Y-68072000D03*
X36830000Y-70612000D03*
X39370000Y-70612000D03*
X36830000Y-73152000D03*
X39370000Y-73152000D03*
X36830000Y-75692000D03*
X39370000Y-75692000D03*
X36830000Y-78232000D03*
X39370000Y-78232000D03*
X36830000Y-80772000D03*
X39370000Y-80772000D03*
D15*
X79756000Y-79208000D03*
X79756000Y-74208000D03*
X79756000Y-51776000D03*
X79756000Y-46776000D03*
X79756000Y-69048000D03*
X79756000Y-64048000D03*
D16*
X51003200Y-37439600D03*
D17*
X51003200Y-29819600D03*
D18*
X79756000Y-58420000D03*
X74756000Y-56520000D03*
D19*
X43797600Y-37033200D03*
X43797600Y-34493200D03*
X43797600Y-31953200D03*
X43797600Y-29413200D03*
D20*
X44094400Y-63855600D03*
D21*
X51714400Y-81635600D03*
X44094400Y-66395600D03*
X51714400Y-79095600D03*
X44094400Y-68935600D03*
X51714400Y-76555600D03*
X44094400Y-71475600D03*
X51714400Y-74015600D03*
X44094400Y-74015600D03*
X51714400Y-71475600D03*
X44094400Y-76555600D03*
X51714400Y-68935600D03*
X44094400Y-79095600D03*
X51714400Y-66395600D03*
X44094400Y-81635600D03*
X51714400Y-63855600D03*
D22*
X70116000Y-49784000D03*
D23*
X44116000Y-46034000D03*
X44116000Y-53534000D03*
D24*
X39370000Y-35052000D02*
X39928800Y-35052000D01*
X39928800Y-35052000D02*
X41960800Y-37084000D01*
X41960800Y-37084000D02*
X41960800Y-43878800D01*
X41960800Y-43878800D02*
X55435200Y-57353200D01*
X55435200Y-57353200D02*
X58928000Y-57353200D01*
X58928000Y-57353200D02*
X62534800Y-60960000D01*
X62534800Y-60960000D02*
X62534800Y-68569800D01*
X62534800Y-68569800D02*
X60274600Y-70830000D01*
X60274600Y-70830000D02*
X60670000Y-70830000D01*
X60670000Y-70830000D02*
X61874400Y-72034400D01*
X61874400Y-72034400D02*
X61874400Y-78230200D01*
X61874400Y-78230200D02*
X60274600Y-79830000D01*
X51714400Y-81635600D02*
X58469000Y-81635600D01*
X58469000Y-81635600D02*
X60274600Y-79830000D01*
X67894600Y-79830000D02*
X67688800Y-79830000D01*
X67688800Y-79830000D02*
X66243200Y-78384400D01*
X66243200Y-78384400D02*
X64973200Y-78384400D01*
X64973200Y-78384400D02*
X63449200Y-76860400D01*
X63449200Y-76860400D02*
X63449200Y-72735400D01*
X63449200Y-72735400D02*
X65354600Y-70830000D01*
X67894600Y-74750000D02*
X67894600Y-74355400D01*
X67894600Y-74355400D02*
X70434600Y-71815400D01*
X70434600Y-71815400D02*
X70434600Y-70830000D01*
X51714400Y-63855600D02*
X51714400Y-66395600D01*
X51714400Y-66395600D02*
X51818800Y-66500000D01*
X51818800Y-66500000D02*
X54500000Y-66500000D01*
X54500000Y-66500000D02*
X56750000Y-68750000D01*
X56750000Y-68750000D02*
X56750000Y-71225400D01*
X56750000Y-71225400D02*
X60274600Y-74750000D01*
X51714400Y-71475600D02*
X51714400Y-68935600D01*
X51714400Y-68935600D02*
X49750000Y-66971200D01*
X49750000Y-66971200D02*
X49750000Y-62750000D01*
X49750000Y-62750000D02*
X51500000Y-61000000D01*
X51500000Y-61000000D02*
X55524600Y-61000000D01*
X55524600Y-61000000D02*
X60274600Y-65750000D01*
X78892400Y-33528000D02*
X78892400Y-45912400D01*
X78892400Y-45912400D02*
X79756000Y-46776000D01*
X74756000Y-56520000D02*
X69520000Y-56520000D01*
X56392400Y-43392400D02*
X56392400Y-33528000D01*
X69520000Y-56520000D02*
X56392400Y-43392400D01*
X67894600Y-70830000D02*
X67894600Y-70105400D01*
X74756000Y-66494000D02*
X74756000Y-56520000D01*
X73000000Y-68250000D02*
X74756000Y-66494000D01*
X69750000Y-68250000D02*
X73000000Y-68250000D01*
X67894600Y-70105400D02*
X69750000Y-68250000D01*
D25*
X44094400Y-79095600D02*
X44094400Y-76555600D01*
X36830000Y-75692000D02*
X37084000Y-75692000D01*
X37084000Y-75692000D02*
X38354000Y-74422000D01*
X38354000Y-74422000D02*
X43688000Y-74422000D01*
X43688000Y-74422000D02*
X44094400Y-74828400D01*
X44094400Y-74828400D02*
X44094400Y-79095600D01*
D24*
X70434600Y-79830000D02*
X79134000Y-79830000D01*
X79134000Y-79830000D02*
X79756000Y-79208000D01*
X79756000Y-74208000D02*
X76792000Y-74208000D01*
X67854600Y-77250000D02*
X65354600Y-74750000D01*
X73750000Y-77250000D02*
X67854600Y-77250000D01*
X76792000Y-74208000D02*
X73750000Y-77250000D01*
X79756000Y-64048000D02*
X79756000Y-51776000D01*
X70434600Y-74750000D02*
X71750000Y-74750000D01*
X77452000Y-69048000D02*
X79756000Y-69048000D01*
X71750000Y-74750000D02*
X77452000Y-69048000D01*
X51714400Y-79095600D02*
X51714400Y-74015600D01*
X51714400Y-74015600D02*
X48448800Y-70750000D01*
X48448800Y-70750000D02*
X48448800Y-57866800D01*
X48448800Y-57866800D02*
X44116000Y-53534000D01*
D26*
G36*
X42494864Y-28496306D02*
X42224119Y-28968965D01*
X42205282Y-29072015D01*
X42327944Y-29286200D01*
X43670600Y-29286200D01*
X43670600Y-29266200D01*
X43924600Y-29266200D01*
X43924600Y-29286200D01*
X45267256Y-29286200D01*
X45389918Y-29072015D01*
X45371081Y-28968965D01*
X45100336Y-28496306D01*
X44707579Y-28192800D01*
X51181000Y-28192800D01*
X51181000Y-28493813D01*
X51003200Y-28458446D01*
X50492318Y-28560067D01*
X50059212Y-28849458D01*
X49769821Y-29282564D01*
X49668200Y-29793446D01*
X49668200Y-29845754D01*
X49769821Y-30356636D01*
X50059212Y-30789742D01*
X50492318Y-31079133D01*
X51003200Y-31180754D01*
X51181000Y-31145387D01*
X51181000Y-36104754D01*
X50738817Y-36104369D01*
X50247971Y-36307182D01*
X49872102Y-36682396D01*
X49668432Y-37172887D01*
X49667969Y-37703983D01*
X49870782Y-38194829D01*
X50245996Y-38570698D01*
X50736487Y-38774368D01*
X51181000Y-38774756D01*
X51181000Y-51918132D01*
X45351000Y-46088132D01*
X45351000Y-45754907D01*
X45256991Y-45282293D01*
X44989277Y-44881630D01*
X44588614Y-44613916D01*
X44116000Y-44519907D01*
X43838061Y-44575193D01*
X42795800Y-43532932D01*
X42795800Y-38185985D01*
X42985551Y-38312773D01*
X43515568Y-38418200D01*
X44079632Y-38418200D01*
X44609649Y-38312773D01*
X45058975Y-38012543D01*
X45359205Y-37563217D01*
X45464632Y-37033200D01*
X45359205Y-36503183D01*
X45058975Y-36053857D01*
X44623976Y-35763200D01*
X45058975Y-35472543D01*
X45359205Y-35023217D01*
X45464632Y-34493200D01*
X45359205Y-33963183D01*
X45058975Y-33513857D01*
X44623976Y-33223200D01*
X45058975Y-32932543D01*
X45359205Y-32483217D01*
X45464632Y-31953200D01*
X45359205Y-31423183D01*
X45058975Y-30973857D01*
X44615761Y-30677711D01*
X44669321Y-30663164D01*
X45100336Y-30330094D01*
X45371081Y-29857435D01*
X45389918Y-29754385D01*
X45267256Y-29540200D01*
X43924600Y-29540200D01*
X43924600Y-29560200D01*
X43670600Y-29560200D01*
X43670600Y-29540200D01*
X42327944Y-29540200D01*
X42205282Y-29754385D01*
X42224119Y-29857435D01*
X42494864Y-30330094D01*
X42925879Y-30663164D01*
X42979439Y-30677711D01*
X42536225Y-30973857D01*
X42235995Y-31423183D01*
X42130568Y-31953200D01*
X42235995Y-32483217D01*
X42536225Y-32932543D01*
X42971224Y-33223200D01*
X42536225Y-33513857D01*
X42235995Y-33963183D01*
X42130568Y-34493200D01*
X42235995Y-35023217D01*
X42536225Y-35472543D01*
X42971224Y-35763200D01*
X42536225Y-36053857D01*
X42366114Y-36308446D01*
X40828082Y-34770414D01*
X40771054Y-34483715D01*
X40449147Y-34001946D01*
X40119974Y-33782000D01*
X40449147Y-33562054D01*
X40771054Y-33080285D01*
X40884093Y-32512000D01*
X40771054Y-31943715D01*
X40449147Y-31461946D01*
X39967378Y-31140039D01*
X39399093Y-31027000D01*
X39340907Y-31027000D01*
X38772622Y-31140039D01*
X38290853Y-31461946D01*
X38290029Y-31463179D01*
X38283162Y-31426683D01*
X38144090Y-31210559D01*
X37931890Y-31065569D01*
X37680000Y-31014560D01*
X35980000Y-31014560D01*
X35744683Y-31058838D01*
X35528559Y-31197910D01*
X35383569Y-31410110D01*
X35332560Y-31662000D01*
X35332560Y-33362000D01*
X35376838Y-33597317D01*
X35515910Y-33813441D01*
X35728110Y-33958431D01*
X35795541Y-33972086D01*
X35750853Y-34001946D01*
X35428946Y-34483715D01*
X35315907Y-35052000D01*
X35428946Y-35620285D01*
X35750853Y-36102054D01*
X36080026Y-36322000D01*
X35750853Y-36541946D01*
X35428946Y-37023715D01*
X35315907Y-37592000D01*
X35428946Y-38160285D01*
X35750853Y-38642054D01*
X36080026Y-38862000D01*
X35750853Y-39081946D01*
X35428946Y-39563715D01*
X35315907Y-40132000D01*
X35428946Y-40700285D01*
X35750853Y-41182054D01*
X36091553Y-41409702D01*
X35948642Y-41476817D01*
X35558355Y-41905076D01*
X35388524Y-42315110D01*
X35509845Y-42545000D01*
X36703000Y-42545000D01*
X36703000Y-42525000D01*
X36957000Y-42525000D01*
X36957000Y-42545000D01*
X36977000Y-42545000D01*
X36977000Y-42799000D01*
X36957000Y-42799000D01*
X36957000Y-42819000D01*
X36703000Y-42819000D01*
X36703000Y-42799000D01*
X35509845Y-42799000D01*
X35388524Y-43028890D01*
X35558355Y-43438924D01*
X35948642Y-43867183D01*
X36091553Y-43934298D01*
X35750853Y-44161946D01*
X35428946Y-44643715D01*
X35315907Y-45212000D01*
X35428946Y-45780285D01*
X35750853Y-46262054D01*
X36080026Y-46482000D01*
X35750853Y-46701946D01*
X35428946Y-47183715D01*
X35315907Y-47752000D01*
X35428946Y-48320285D01*
X35750853Y-48802054D01*
X36080026Y-49022000D01*
X35750853Y-49241946D01*
X35428946Y-49723715D01*
X35315907Y-50292000D01*
X35428946Y-50860285D01*
X35750853Y-51342054D01*
X36080026Y-51562000D01*
X35750853Y-51781946D01*
X35428946Y-52263715D01*
X35315907Y-52832000D01*
X35428946Y-53400285D01*
X35750853Y-53882054D01*
X36080026Y-54102000D01*
X35750853Y-54321946D01*
X35428946Y-54803715D01*
X35315907Y-55372000D01*
X35428946Y-55940285D01*
X35750853Y-56422054D01*
X36080026Y-56642000D01*
X35750853Y-56861946D01*
X35428946Y-57343715D01*
X35315907Y-57912000D01*
X35428946Y-58480285D01*
X35750853Y-58962054D01*
X36080026Y-59182000D01*
X35750853Y-59401946D01*
X35428946Y-59883715D01*
X35315907Y-60452000D01*
X35428946Y-61020285D01*
X35750853Y-61502054D01*
X36091553Y-61729702D01*
X35948642Y-61796817D01*
X35558355Y-62225076D01*
X35388524Y-62635110D01*
X35509845Y-62865000D01*
X36703000Y-62865000D01*
X36703000Y-62845000D01*
X36957000Y-62845000D01*
X36957000Y-62865000D01*
X36977000Y-62865000D01*
X36977000Y-63119000D01*
X36957000Y-63119000D01*
X36957000Y-63139000D01*
X36703000Y-63139000D01*
X36703000Y-63119000D01*
X35509845Y-63119000D01*
X35388524Y-63348890D01*
X35558355Y-63758924D01*
X35948642Y-64187183D01*
X36091553Y-64254298D01*
X35750853Y-64481946D01*
X35428946Y-64963715D01*
X35315907Y-65532000D01*
X35428946Y-66100285D01*
X35750853Y-66582054D01*
X36080026Y-66802000D01*
X35750853Y-67021946D01*
X35428946Y-67503715D01*
X35315907Y-68072000D01*
X35428946Y-68640285D01*
X35750853Y-69122054D01*
X36080026Y-69342000D01*
X35750853Y-69561946D01*
X35428946Y-70043715D01*
X35315907Y-70612000D01*
X35428946Y-71180285D01*
X35750853Y-71662054D01*
X36080026Y-71882000D01*
X35750853Y-72101946D01*
X35428946Y-72583715D01*
X35315907Y-73152000D01*
X35428946Y-73720285D01*
X35750853Y-74202054D01*
X36080026Y-74422000D01*
X35750853Y-74641946D01*
X35428946Y-75123715D01*
X35315907Y-75692000D01*
X35428946Y-76260285D01*
X35750853Y-76742054D01*
X36080026Y-76962000D01*
X35750853Y-77181946D01*
X35428946Y-77663715D01*
X35315907Y-78232000D01*
X35428946Y-78800285D01*
X35750853Y-79282054D01*
X36091553Y-79509702D01*
X35948642Y-79576817D01*
X35558355Y-80005076D01*
X35388524Y-80415110D01*
X35509845Y-80645000D01*
X36703000Y-80645000D01*
X36703000Y-80625000D01*
X36957000Y-80625000D01*
X36957000Y-80645000D01*
X36977000Y-80645000D01*
X36977000Y-80899000D01*
X36957000Y-80899000D01*
X36957000Y-82092819D01*
X37186892Y-82213486D01*
X37711358Y-81967183D01*
X38101645Y-81538924D01*
X38101655Y-81538899D01*
X38290853Y-81822054D01*
X38772622Y-82143961D01*
X39340907Y-82257000D01*
X39399093Y-82257000D01*
X39967378Y-82143961D01*
X40205820Y-81984639D01*
X42702496Y-81984639D01*
X42863359Y-82373023D01*
X43239266Y-82787989D01*
X43745359Y-83027514D01*
X43967400Y-82906229D01*
X43967400Y-81762600D01*
X44221400Y-81762600D01*
X44221400Y-82906229D01*
X44443441Y-83027514D01*
X44949534Y-82787989D01*
X45325441Y-82373023D01*
X45486304Y-81984639D01*
X45364315Y-81762600D01*
X44221400Y-81762600D01*
X43967400Y-81762600D01*
X42824485Y-81762600D01*
X42702496Y-81984639D01*
X40205820Y-81984639D01*
X40449147Y-81822054D01*
X40771054Y-81340285D01*
X40884093Y-80772000D01*
X40771054Y-80203715D01*
X40449147Y-79721946D01*
X40119974Y-79502000D01*
X40449147Y-79282054D01*
X40771054Y-78800285D01*
X40884093Y-78232000D01*
X40771054Y-77663715D01*
X40449147Y-77181946D01*
X40119974Y-76962000D01*
X40449147Y-76742054D01*
X40771054Y-76260285D01*
X40884093Y-75692000D01*
X40777675Y-75157000D01*
X43241212Y-75157000D01*
X43359400Y-75235971D01*
X43359400Y-75335229D01*
X43051589Y-75540902D01*
X42740520Y-76006449D01*
X42631287Y-76555600D01*
X42740520Y-77104751D01*
X43051589Y-77570298D01*
X43359400Y-77775971D01*
X43359400Y-77875229D01*
X43051589Y-78080902D01*
X42740520Y-78546449D01*
X42631287Y-79095600D01*
X42740520Y-79644751D01*
X43051589Y-80110298D01*
X43456103Y-80380586D01*
X43239266Y-80483211D01*
X42863359Y-80898177D01*
X42702496Y-81286561D01*
X42824485Y-81508600D01*
X43967400Y-81508600D01*
X43967400Y-81488600D01*
X44221400Y-81488600D01*
X44221400Y-81508600D01*
X45364315Y-81508600D01*
X45486304Y-81286561D01*
X45325441Y-80898177D01*
X44949534Y-80483211D01*
X44732697Y-80380586D01*
X45137211Y-80110298D01*
X45448280Y-79644751D01*
X45557513Y-79095600D01*
X45448280Y-78546449D01*
X45137211Y-78080902D01*
X44829400Y-77875229D01*
X44829400Y-77775971D01*
X45137211Y-77570298D01*
X45448280Y-77104751D01*
X45557513Y-76555600D01*
X45448280Y-76006449D01*
X45137211Y-75540902D01*
X44829400Y-75335229D01*
X44829400Y-75235971D01*
X45137211Y-75030298D01*
X45448280Y-74564751D01*
X45557513Y-74015600D01*
X45448280Y-73466449D01*
X45137211Y-73000902D01*
X44755125Y-72745600D01*
X45137211Y-72490298D01*
X45448280Y-72024751D01*
X45557513Y-71475600D01*
X45448280Y-70926449D01*
X45137211Y-70460902D01*
X44755125Y-70205600D01*
X45137211Y-69950298D01*
X45448280Y-69484751D01*
X45557513Y-68935600D01*
X45448280Y-68386449D01*
X45137211Y-67920902D01*
X44755125Y-67665600D01*
X45137211Y-67410298D01*
X45448280Y-66944751D01*
X45557513Y-66395600D01*
X45448280Y-65846449D01*
X45137211Y-65380902D01*
X44992935Y-65284499D01*
X45129717Y-65258762D01*
X45345841Y-65119690D01*
X45490831Y-64907490D01*
X45541840Y-64655600D01*
X45541840Y-63055600D01*
X45497562Y-62820283D01*
X45358490Y-62604159D01*
X45146290Y-62459169D01*
X44894400Y-62408160D01*
X43294400Y-62408160D01*
X43059083Y-62452438D01*
X42842959Y-62591510D01*
X42697969Y-62803710D01*
X42646960Y-63055600D01*
X42646960Y-64655600D01*
X42691238Y-64890917D01*
X42830310Y-65107041D01*
X43042510Y-65252031D01*
X43197489Y-65283415D01*
X43051589Y-65380902D01*
X42740520Y-65846449D01*
X42631287Y-66395600D01*
X42740520Y-66944751D01*
X43051589Y-67410298D01*
X43433675Y-67665600D01*
X43051589Y-67920902D01*
X42740520Y-68386449D01*
X42631287Y-68935600D01*
X42740520Y-69484751D01*
X43051589Y-69950298D01*
X43433675Y-70205600D01*
X43051589Y-70460902D01*
X42740520Y-70926449D01*
X42631287Y-71475600D01*
X42740520Y-72024751D01*
X43051589Y-72490298D01*
X43433675Y-72745600D01*
X43051589Y-73000902D01*
X42740520Y-73466449D01*
X42696650Y-73687000D01*
X40737705Y-73687000D01*
X40811476Y-73508890D01*
X40690155Y-73279000D01*
X39497000Y-73279000D01*
X39497000Y-73299000D01*
X39243000Y-73299000D01*
X39243000Y-73279000D01*
X39223000Y-73279000D01*
X39223000Y-73025000D01*
X39243000Y-73025000D01*
X39243000Y-73005000D01*
X39497000Y-73005000D01*
X39497000Y-73025000D01*
X40690155Y-73025000D01*
X40811476Y-72795110D01*
X40641645Y-72385076D01*
X40251358Y-71956817D01*
X40108447Y-71889702D01*
X40449147Y-71662054D01*
X40771054Y-71180285D01*
X40884093Y-70612000D01*
X40771054Y-70043715D01*
X40449147Y-69561946D01*
X40108447Y-69334298D01*
X40251358Y-69267183D01*
X40641645Y-68838924D01*
X40811476Y-68428890D01*
X40690155Y-68199000D01*
X39497000Y-68199000D01*
X39497000Y-68219000D01*
X39243000Y-68219000D01*
X39243000Y-68199000D01*
X39223000Y-68199000D01*
X39223000Y-67945000D01*
X39243000Y-67945000D01*
X39243000Y-67925000D01*
X39497000Y-67925000D01*
X39497000Y-67945000D01*
X40690155Y-67945000D01*
X40811476Y-67715110D01*
X40641645Y-67305076D01*
X40251358Y-66876817D01*
X40108447Y-66809702D01*
X40449147Y-66582054D01*
X40771054Y-66100285D01*
X40884093Y-65532000D01*
X40771054Y-64963715D01*
X40449147Y-64481946D01*
X40119974Y-64262000D01*
X40449147Y-64042054D01*
X40771054Y-63560285D01*
X40884093Y-62992000D01*
X40771054Y-62423715D01*
X40449147Y-61941946D01*
X40119974Y-61722000D01*
X40449147Y-61502054D01*
X40771054Y-61020285D01*
X40884093Y-60452000D01*
X40771054Y-59883715D01*
X40449147Y-59401946D01*
X40119974Y-59182000D01*
X40449147Y-58962054D01*
X40771054Y-58480285D01*
X40884093Y-57912000D01*
X40771054Y-57343715D01*
X40449147Y-56861946D01*
X40108447Y-56634298D01*
X40251358Y-56567183D01*
X40641645Y-56138924D01*
X40811476Y-55728890D01*
X40690155Y-55499000D01*
X39497000Y-55499000D01*
X39497000Y-55519000D01*
X39243000Y-55519000D01*
X39243000Y-55499000D01*
X39223000Y-55499000D01*
X39223000Y-55245000D01*
X39243000Y-55245000D01*
X39243000Y-55225000D01*
X39497000Y-55225000D01*
X39497000Y-55245000D01*
X40690155Y-55245000D01*
X40811476Y-55015110D01*
X40641645Y-54605076D01*
X40251358Y-54176817D01*
X40108447Y-54109702D01*
X40449147Y-53882054D01*
X40771054Y-53400285D01*
X40884093Y-52832000D01*
X40771054Y-52263715D01*
X40449147Y-51781946D01*
X40119974Y-51562000D01*
X40449147Y-51342054D01*
X40771054Y-50860285D01*
X40884093Y-50292000D01*
X40771054Y-49723715D01*
X40449147Y-49241946D01*
X40108447Y-49014298D01*
X40251358Y-48947183D01*
X40641645Y-48518924D01*
X40811476Y-48108890D01*
X40690155Y-47879000D01*
X39497000Y-47879000D01*
X39497000Y-47899000D01*
X39243000Y-47899000D01*
X39243000Y-47879000D01*
X39223000Y-47879000D01*
X39223000Y-47625000D01*
X39243000Y-47625000D01*
X39243000Y-47605000D01*
X39497000Y-47605000D01*
X39497000Y-47625000D01*
X40690155Y-47625000D01*
X40811476Y-47395110D01*
X40641645Y-46985076D01*
X40251358Y-46556817D01*
X40108447Y-46489702D01*
X40449147Y-46262054D01*
X40771054Y-45780285D01*
X40884093Y-45212000D01*
X40771054Y-44643715D01*
X40449147Y-44161946D01*
X40119974Y-43942000D01*
X40449147Y-43722054D01*
X40771054Y-43240285D01*
X40884093Y-42672000D01*
X40771054Y-42103715D01*
X40449147Y-41621946D01*
X40119974Y-41402000D01*
X40449147Y-41182054D01*
X40771054Y-40700285D01*
X40884093Y-40132000D01*
X40771054Y-39563715D01*
X40449147Y-39081946D01*
X40108447Y-38854298D01*
X40251358Y-38787183D01*
X40641645Y-38358924D01*
X40811476Y-37948890D01*
X40690155Y-37719000D01*
X39497000Y-37719000D01*
X39497000Y-37739000D01*
X39243000Y-37739000D01*
X39243000Y-37719000D01*
X39223000Y-37719000D01*
X39223000Y-37465000D01*
X39243000Y-37465000D01*
X39243000Y-37445000D01*
X39497000Y-37445000D01*
X39497000Y-37465000D01*
X40690155Y-37465000D01*
X40811476Y-37235110D01*
X40726939Y-37031007D01*
X41125800Y-37429868D01*
X41125800Y-43878800D01*
X41189361Y-44198341D01*
X41370366Y-44469234D01*
X42881000Y-45979868D01*
X42881000Y-46313093D01*
X42975009Y-46785707D01*
X43242723Y-47186370D01*
X43643386Y-47454084D01*
X44116000Y-47548093D01*
X44393939Y-47492807D01*
X51181000Y-54279868D01*
X51181000Y-58928000D01*
X51191006Y-58977410D01*
X51219447Y-59019035D01*
X51261841Y-59046315D01*
X51308000Y-59055000D01*
X54737000Y-59055000D01*
X54737000Y-60165000D01*
X51500000Y-60165000D01*
X51180460Y-60228560D01*
X50909566Y-60409566D01*
X49283800Y-62035332D01*
X49283800Y-57866800D01*
X49220240Y-57547260D01*
X49039234Y-57276366D01*
X45351000Y-53588132D01*
X45351000Y-53254907D01*
X45256991Y-52782293D01*
X44989277Y-52381630D01*
X44588614Y-52113916D01*
X44116000Y-52019907D01*
X43643386Y-52113916D01*
X43242723Y-52381630D01*
X42975009Y-52782293D01*
X42881000Y-53254907D01*
X42881000Y-53813093D01*
X42975009Y-54285707D01*
X43242723Y-54686370D01*
X43643386Y-54954084D01*
X44116000Y-55048093D01*
X44393939Y-54992807D01*
X47613800Y-58212668D01*
X47613800Y-70750000D01*
X47677361Y-71069541D01*
X47751358Y-71180285D01*
X47858366Y-71340434D01*
X50298114Y-73780182D01*
X50251287Y-74015600D01*
X50360520Y-74564751D01*
X50671589Y-75030298D01*
X50879400Y-75169153D01*
X50879400Y-75402047D01*
X50671589Y-75540902D01*
X50360520Y-76006449D01*
X50251287Y-76555600D01*
X50360520Y-77104751D01*
X50671589Y-77570298D01*
X50879400Y-77709153D01*
X50879400Y-77942047D01*
X50671589Y-78080902D01*
X50360520Y-78546449D01*
X50251287Y-79095600D01*
X50360520Y-79644751D01*
X50671589Y-80110298D01*
X51053675Y-80365600D01*
X50671589Y-80620902D01*
X50360520Y-81086449D01*
X50251287Y-81635600D01*
X50360520Y-82184751D01*
X50671589Y-82650298D01*
X51137136Y-82961367D01*
X51686287Y-83070600D01*
X51742513Y-83070600D01*
X52291664Y-82961367D01*
X52757211Y-82650298D01*
X52877282Y-82470600D01*
X54737000Y-82470600D01*
X54737000Y-84075200D01*
X35152400Y-84075200D01*
X35152400Y-81128890D01*
X35388524Y-81128890D01*
X35558355Y-81538924D01*
X35948642Y-81967183D01*
X36473108Y-82213486D01*
X36703000Y-82092819D01*
X36703000Y-80899000D01*
X35509845Y-80899000D01*
X35388524Y-81128890D01*
X35152400Y-81128890D01*
X35152400Y-28192800D01*
X42887621Y-28192800D01*
X42494864Y-28496306D01*
X42494864Y-28496306D01*
G37*
X42494864Y-28496306D02*
X42224119Y-28968965D01*
X42205282Y-29072015D01*
X42327944Y-29286200D01*
X43670600Y-29286200D01*
X43670600Y-29266200D01*
X43924600Y-29266200D01*
X43924600Y-29286200D01*
X45267256Y-29286200D01*
X45389918Y-29072015D01*
X45371081Y-28968965D01*
X45100336Y-28496306D01*
X44707579Y-28192800D01*
X51181000Y-28192800D01*
X51181000Y-28493813D01*
X51003200Y-28458446D01*
X50492318Y-28560067D01*
X50059212Y-28849458D01*
X49769821Y-29282564D01*
X49668200Y-29793446D01*
X49668200Y-29845754D01*
X49769821Y-30356636D01*
X50059212Y-30789742D01*
X50492318Y-31079133D01*
X51003200Y-31180754D01*
X51181000Y-31145387D01*
X51181000Y-36104754D01*
X50738817Y-36104369D01*
X50247971Y-36307182D01*
X49872102Y-36682396D01*
X49668432Y-37172887D01*
X49667969Y-37703983D01*
X49870782Y-38194829D01*
X50245996Y-38570698D01*
X50736487Y-38774368D01*
X51181000Y-38774756D01*
X51181000Y-51918132D01*
X45351000Y-46088132D01*
X45351000Y-45754907D01*
X45256991Y-45282293D01*
X44989277Y-44881630D01*
X44588614Y-44613916D01*
X44116000Y-44519907D01*
X43838061Y-44575193D01*
X42795800Y-43532932D01*
X42795800Y-38185985D01*
X42985551Y-38312773D01*
X43515568Y-38418200D01*
X44079632Y-38418200D01*
X44609649Y-38312773D01*
X45058975Y-38012543D01*
X45359205Y-37563217D01*
X45464632Y-37033200D01*
X45359205Y-36503183D01*
X45058975Y-36053857D01*
X44623976Y-35763200D01*
X45058975Y-35472543D01*
X45359205Y-35023217D01*
X45464632Y-34493200D01*
X45359205Y-33963183D01*
X45058975Y-33513857D01*
X44623976Y-33223200D01*
X45058975Y-32932543D01*
X45359205Y-32483217D01*
X45464632Y-31953200D01*
X45359205Y-31423183D01*
X45058975Y-30973857D01*
X44615761Y-30677711D01*
X44669321Y-30663164D01*
X45100336Y-30330094D01*
X45371081Y-29857435D01*
X45389918Y-29754385D01*
X45267256Y-29540200D01*
X43924600Y-29540200D01*
X43924600Y-29560200D01*
X43670600Y-29560200D01*
X43670600Y-29540200D01*
X42327944Y-29540200D01*
X42205282Y-29754385D01*
X42224119Y-29857435D01*
X42494864Y-30330094D01*
X42925879Y-30663164D01*
X42979439Y-30677711D01*
X42536225Y-30973857D01*
X42235995Y-31423183D01*
X42130568Y-31953200D01*
X42235995Y-32483217D01*
X42536225Y-32932543D01*
X42971224Y-33223200D01*
X42536225Y-33513857D01*
X42235995Y-33963183D01*
X42130568Y-34493200D01*
X42235995Y-35023217D01*
X42536225Y-35472543D01*
X42971224Y-35763200D01*
X42536225Y-36053857D01*
X42366114Y-36308446D01*
X40828082Y-34770414D01*
X40771054Y-34483715D01*
X40449147Y-34001946D01*
X40119974Y-33782000D01*
X40449147Y-33562054D01*
X40771054Y-33080285D01*
X40884093Y-32512000D01*
X40771054Y-31943715D01*
X40449147Y-31461946D01*
X39967378Y-31140039D01*
X39399093Y-31027000D01*
X39340907Y-31027000D01*
X38772622Y-31140039D01*
X38290853Y-31461946D01*
X38290029Y-31463179D01*
X38283162Y-31426683D01*
X38144090Y-31210559D01*
X37931890Y-31065569D01*
X37680000Y-31014560D01*
X35980000Y-31014560D01*
X35744683Y-31058838D01*
X35528559Y-31197910D01*
X35383569Y-31410110D01*
X35332560Y-31662000D01*
X35332560Y-33362000D01*
X35376838Y-33597317D01*
X35515910Y-33813441D01*
X35728110Y-33958431D01*
X35795541Y-33972086D01*
X35750853Y-34001946D01*
X35428946Y-34483715D01*
X35315907Y-35052000D01*
X35428946Y-35620285D01*
X35750853Y-36102054D01*
X36080026Y-36322000D01*
X35750853Y-36541946D01*
X35428946Y-37023715D01*
X35315907Y-37592000D01*
X35428946Y-38160285D01*
X35750853Y-38642054D01*
X36080026Y-38862000D01*
X35750853Y-39081946D01*
X35428946Y-39563715D01*
X35315907Y-40132000D01*
X35428946Y-40700285D01*
X35750853Y-41182054D01*
X36091553Y-41409702D01*
X35948642Y-41476817D01*
X35558355Y-41905076D01*
X35388524Y-42315110D01*
X35509845Y-42545000D01*
X36703000Y-42545000D01*
X36703000Y-42525000D01*
X36957000Y-42525000D01*
X36957000Y-42545000D01*
X36977000Y-42545000D01*
X36977000Y-42799000D01*
X36957000Y-42799000D01*
X36957000Y-42819000D01*
X36703000Y-42819000D01*
X36703000Y-42799000D01*
X35509845Y-42799000D01*
X35388524Y-43028890D01*
X35558355Y-43438924D01*
X35948642Y-43867183D01*
X36091553Y-43934298D01*
X35750853Y-44161946D01*
X35428946Y-44643715D01*
X35315907Y-45212000D01*
X35428946Y-45780285D01*
X35750853Y-46262054D01*
X36080026Y-46482000D01*
X35750853Y-46701946D01*
X35428946Y-47183715D01*
X35315907Y-47752000D01*
X35428946Y-48320285D01*
X35750853Y-48802054D01*
X36080026Y-49022000D01*
X35750853Y-49241946D01*
X35428946Y-49723715D01*
X35315907Y-50292000D01*
X35428946Y-50860285D01*
X35750853Y-51342054D01*
X36080026Y-51562000D01*
X35750853Y-51781946D01*
X35428946Y-52263715D01*
X35315907Y-52832000D01*
X35428946Y-53400285D01*
X35750853Y-53882054D01*
X36080026Y-54102000D01*
X35750853Y-54321946D01*
X35428946Y-54803715D01*
X35315907Y-55372000D01*
X35428946Y-55940285D01*
X35750853Y-56422054D01*
X36080026Y-56642000D01*
X35750853Y-56861946D01*
X35428946Y-57343715D01*
X35315907Y-57912000D01*
X35428946Y-58480285D01*
X35750853Y-58962054D01*
X36080026Y-59182000D01*
X35750853Y-59401946D01*
X35428946Y-59883715D01*
X35315907Y-60452000D01*
X35428946Y-61020285D01*
X35750853Y-61502054D01*
X36091553Y-61729702D01*
X35948642Y-61796817D01*
X35558355Y-62225076D01*
X35388524Y-62635110D01*
X35509845Y-62865000D01*
X36703000Y-62865000D01*
X36703000Y-62845000D01*
X36957000Y-62845000D01*
X36957000Y-62865000D01*
X36977000Y-62865000D01*
X36977000Y-63119000D01*
X36957000Y-63119000D01*
X36957000Y-63139000D01*
X36703000Y-63139000D01*
X36703000Y-63119000D01*
X35509845Y-63119000D01*
X35388524Y-63348890D01*
X35558355Y-63758924D01*
X35948642Y-64187183D01*
X36091553Y-64254298D01*
X35750853Y-64481946D01*
X35428946Y-64963715D01*
X35315907Y-65532000D01*
X35428946Y-66100285D01*
X35750853Y-66582054D01*
X36080026Y-66802000D01*
X35750853Y-67021946D01*
X35428946Y-67503715D01*
X35315907Y-68072000D01*
X35428946Y-68640285D01*
X35750853Y-69122054D01*
X36080026Y-69342000D01*
X35750853Y-69561946D01*
X35428946Y-70043715D01*
X35315907Y-70612000D01*
X35428946Y-71180285D01*
X35750853Y-71662054D01*
X36080026Y-71882000D01*
X35750853Y-72101946D01*
X35428946Y-72583715D01*
X35315907Y-73152000D01*
X35428946Y-73720285D01*
X35750853Y-74202054D01*
X36080026Y-74422000D01*
X35750853Y-74641946D01*
X35428946Y-75123715D01*
X35315907Y-75692000D01*
X35428946Y-76260285D01*
X35750853Y-76742054D01*
X36080026Y-76962000D01*
X35750853Y-77181946D01*
X35428946Y-77663715D01*
X35315907Y-78232000D01*
X35428946Y-78800285D01*
X35750853Y-79282054D01*
X36091553Y-79509702D01*
X35948642Y-79576817D01*
X35558355Y-80005076D01*
X35388524Y-80415110D01*
X35509845Y-80645000D01*
X36703000Y-80645000D01*
X36703000Y-80625000D01*
X36957000Y-80625000D01*
X36957000Y-80645000D01*
X36977000Y-80645000D01*
X36977000Y-80899000D01*
X36957000Y-80899000D01*
X36957000Y-82092819D01*
X37186892Y-82213486D01*
X37711358Y-81967183D01*
X38101645Y-81538924D01*
X38101655Y-81538899D01*
X38290853Y-81822054D01*
X38772622Y-82143961D01*
X39340907Y-82257000D01*
X39399093Y-82257000D01*
X39967378Y-82143961D01*
X40205820Y-81984639D01*
X42702496Y-81984639D01*
X42863359Y-82373023D01*
X43239266Y-82787989D01*
X43745359Y-83027514D01*
X43967400Y-82906229D01*
X43967400Y-81762600D01*
X44221400Y-81762600D01*
X44221400Y-82906229D01*
X44443441Y-83027514D01*
X44949534Y-82787989D01*
X45325441Y-82373023D01*
X45486304Y-81984639D01*
X45364315Y-81762600D01*
X44221400Y-81762600D01*
X43967400Y-81762600D01*
X42824485Y-81762600D01*
X42702496Y-81984639D01*
X40205820Y-81984639D01*
X40449147Y-81822054D01*
X40771054Y-81340285D01*
X40884093Y-80772000D01*
X40771054Y-80203715D01*
X40449147Y-79721946D01*
X40119974Y-79502000D01*
X40449147Y-79282054D01*
X40771054Y-78800285D01*
X40884093Y-78232000D01*
X40771054Y-77663715D01*
X40449147Y-77181946D01*
X40119974Y-76962000D01*
X40449147Y-76742054D01*
X40771054Y-76260285D01*
X40884093Y-75692000D01*
X40777675Y-75157000D01*
X43241212Y-75157000D01*
X43359400Y-75235971D01*
X43359400Y-75335229D01*
X43051589Y-75540902D01*
X42740520Y-76006449D01*
X42631287Y-76555600D01*
X42740520Y-77104751D01*
X43051589Y-77570298D01*
X43359400Y-77775971D01*
X43359400Y-77875229D01*
X43051589Y-78080902D01*
X42740520Y-78546449D01*
X42631287Y-79095600D01*
X42740520Y-79644751D01*
X43051589Y-80110298D01*
X43456103Y-80380586D01*
X43239266Y-80483211D01*
X42863359Y-80898177D01*
X42702496Y-81286561D01*
X42824485Y-81508600D01*
X43967400Y-81508600D01*
X43967400Y-81488600D01*
X44221400Y-81488600D01*
X44221400Y-81508600D01*
X45364315Y-81508600D01*
X45486304Y-81286561D01*
X45325441Y-80898177D01*
X44949534Y-80483211D01*
X44732697Y-80380586D01*
X45137211Y-80110298D01*
X45448280Y-79644751D01*
X45557513Y-79095600D01*
X45448280Y-78546449D01*
X45137211Y-78080902D01*
X44829400Y-77875229D01*
X44829400Y-77775971D01*
X45137211Y-77570298D01*
X45448280Y-77104751D01*
X45557513Y-76555600D01*
X45448280Y-76006449D01*
X45137211Y-75540902D01*
X44829400Y-75335229D01*
X44829400Y-75235971D01*
X45137211Y-75030298D01*
X45448280Y-74564751D01*
X45557513Y-74015600D01*
X45448280Y-73466449D01*
X45137211Y-73000902D01*
X44755125Y-72745600D01*
X45137211Y-72490298D01*
X45448280Y-72024751D01*
X45557513Y-71475600D01*
X45448280Y-70926449D01*
X45137211Y-70460902D01*
X44755125Y-70205600D01*
X45137211Y-69950298D01*
X45448280Y-69484751D01*
X45557513Y-68935600D01*
X45448280Y-68386449D01*
X45137211Y-67920902D01*
X44755125Y-67665600D01*
X45137211Y-67410298D01*
X45448280Y-66944751D01*
X45557513Y-66395600D01*
X45448280Y-65846449D01*
X45137211Y-65380902D01*
X44992935Y-65284499D01*
X45129717Y-65258762D01*
X45345841Y-65119690D01*
X45490831Y-64907490D01*
X45541840Y-64655600D01*
X45541840Y-63055600D01*
X45497562Y-62820283D01*
X45358490Y-62604159D01*
X45146290Y-62459169D01*
X44894400Y-62408160D01*
X43294400Y-62408160D01*
X43059083Y-62452438D01*
X42842959Y-62591510D01*
X42697969Y-62803710D01*
X42646960Y-63055600D01*
X42646960Y-64655600D01*
X42691238Y-64890917D01*
X42830310Y-65107041D01*
X43042510Y-65252031D01*
X43197489Y-65283415D01*
X43051589Y-65380902D01*
X42740520Y-65846449D01*
X42631287Y-66395600D01*
X42740520Y-66944751D01*
X43051589Y-67410298D01*
X43433675Y-67665600D01*
X43051589Y-67920902D01*
X42740520Y-68386449D01*
X42631287Y-68935600D01*
X42740520Y-69484751D01*
X43051589Y-69950298D01*
X43433675Y-70205600D01*
X43051589Y-70460902D01*
X42740520Y-70926449D01*
X42631287Y-71475600D01*
X42740520Y-72024751D01*
X43051589Y-72490298D01*
X43433675Y-72745600D01*
X43051589Y-73000902D01*
X42740520Y-73466449D01*
X42696650Y-73687000D01*
X40737705Y-73687000D01*
X40811476Y-73508890D01*
X40690155Y-73279000D01*
X39497000Y-73279000D01*
X39497000Y-73299000D01*
X39243000Y-73299000D01*
X39243000Y-73279000D01*
X39223000Y-73279000D01*
X39223000Y-73025000D01*
X39243000Y-73025000D01*
X39243000Y-73005000D01*
X39497000Y-73005000D01*
X39497000Y-73025000D01*
X40690155Y-73025000D01*
X40811476Y-72795110D01*
X40641645Y-72385076D01*
X40251358Y-71956817D01*
X40108447Y-71889702D01*
X40449147Y-71662054D01*
X40771054Y-71180285D01*
X40884093Y-70612000D01*
X40771054Y-70043715D01*
X40449147Y-69561946D01*
X40108447Y-69334298D01*
X40251358Y-69267183D01*
X40641645Y-68838924D01*
X40811476Y-68428890D01*
X40690155Y-68199000D01*
X39497000Y-68199000D01*
X39497000Y-68219000D01*
X39243000Y-68219000D01*
X39243000Y-68199000D01*
X39223000Y-68199000D01*
X39223000Y-67945000D01*
X39243000Y-67945000D01*
X39243000Y-67925000D01*
X39497000Y-67925000D01*
X39497000Y-67945000D01*
X40690155Y-67945000D01*
X40811476Y-67715110D01*
X40641645Y-67305076D01*
X40251358Y-66876817D01*
X40108447Y-66809702D01*
X40449147Y-66582054D01*
X40771054Y-66100285D01*
X40884093Y-65532000D01*
X40771054Y-64963715D01*
X40449147Y-64481946D01*
X40119974Y-64262000D01*
X40449147Y-64042054D01*
X40771054Y-63560285D01*
X40884093Y-62992000D01*
X40771054Y-62423715D01*
X40449147Y-61941946D01*
X40119974Y-61722000D01*
X40449147Y-61502054D01*
X40771054Y-61020285D01*
X40884093Y-60452000D01*
X40771054Y-59883715D01*
X40449147Y-59401946D01*
X40119974Y-59182000D01*
X40449147Y-58962054D01*
X40771054Y-58480285D01*
X40884093Y-57912000D01*
X40771054Y-57343715D01*
X40449147Y-56861946D01*
X40108447Y-56634298D01*
X40251358Y-56567183D01*
X40641645Y-56138924D01*
X40811476Y-55728890D01*
X40690155Y-55499000D01*
X39497000Y-55499000D01*
X39497000Y-55519000D01*
X39243000Y-55519000D01*
X39243000Y-55499000D01*
X39223000Y-55499000D01*
X39223000Y-55245000D01*
X39243000Y-55245000D01*
X39243000Y-55225000D01*
X39497000Y-55225000D01*
X39497000Y-55245000D01*
X40690155Y-55245000D01*
X40811476Y-55015110D01*
X40641645Y-54605076D01*
X40251358Y-54176817D01*
X40108447Y-54109702D01*
X40449147Y-53882054D01*
X40771054Y-53400285D01*
X40884093Y-52832000D01*
X40771054Y-52263715D01*
X40449147Y-51781946D01*
X40119974Y-51562000D01*
X40449147Y-51342054D01*
X40771054Y-50860285D01*
X40884093Y-50292000D01*
X40771054Y-49723715D01*
X40449147Y-49241946D01*
X40108447Y-49014298D01*
X40251358Y-48947183D01*
X40641645Y-48518924D01*
X40811476Y-48108890D01*
X40690155Y-47879000D01*
X39497000Y-47879000D01*
X39497000Y-47899000D01*
X39243000Y-47899000D01*
X39243000Y-47879000D01*
X39223000Y-47879000D01*
X39223000Y-47625000D01*
X39243000Y-47625000D01*
X39243000Y-47605000D01*
X39497000Y-47605000D01*
X39497000Y-47625000D01*
X40690155Y-47625000D01*
X40811476Y-47395110D01*
X40641645Y-46985076D01*
X40251358Y-46556817D01*
X40108447Y-46489702D01*
X40449147Y-46262054D01*
X40771054Y-45780285D01*
X40884093Y-45212000D01*
X40771054Y-44643715D01*
X40449147Y-44161946D01*
X40119974Y-43942000D01*
X40449147Y-43722054D01*
X40771054Y-43240285D01*
X40884093Y-42672000D01*
X40771054Y-42103715D01*
X40449147Y-41621946D01*
X40119974Y-41402000D01*
X40449147Y-41182054D01*
X40771054Y-40700285D01*
X40884093Y-40132000D01*
X40771054Y-39563715D01*
X40449147Y-39081946D01*
X40108447Y-38854298D01*
X40251358Y-38787183D01*
X40641645Y-38358924D01*
X40811476Y-37948890D01*
X40690155Y-37719000D01*
X39497000Y-37719000D01*
X39497000Y-37739000D01*
X39243000Y-37739000D01*
X39243000Y-37719000D01*
X39223000Y-37719000D01*
X39223000Y-37465000D01*
X39243000Y-37465000D01*
X39243000Y-37445000D01*
X39497000Y-37445000D01*
X39497000Y-37465000D01*
X40690155Y-37465000D01*
X40811476Y-37235110D01*
X40726939Y-37031007D01*
X41125800Y-37429868D01*
X41125800Y-43878800D01*
X41189361Y-44198341D01*
X41370366Y-44469234D01*
X42881000Y-45979868D01*
X42881000Y-46313093D01*
X42975009Y-46785707D01*
X43242723Y-47186370D01*
X43643386Y-47454084D01*
X44116000Y-47548093D01*
X44393939Y-47492807D01*
X51181000Y-54279868D01*
X51181000Y-58928000D01*
X51191006Y-58977410D01*
X51219447Y-59019035D01*
X51261841Y-59046315D01*
X51308000Y-59055000D01*
X54737000Y-59055000D01*
X54737000Y-60165000D01*
X51500000Y-60165000D01*
X51180460Y-60228560D01*
X50909566Y-60409566D01*
X49283800Y-62035332D01*
X49283800Y-57866800D01*
X49220240Y-57547260D01*
X49039234Y-57276366D01*
X45351000Y-53588132D01*
X45351000Y-53254907D01*
X45256991Y-52782293D01*
X44989277Y-52381630D01*
X44588614Y-52113916D01*
X44116000Y-52019907D01*
X43643386Y-52113916D01*
X43242723Y-52381630D01*
X42975009Y-52782293D01*
X42881000Y-53254907D01*
X42881000Y-53813093D01*
X42975009Y-54285707D01*
X43242723Y-54686370D01*
X43643386Y-54954084D01*
X44116000Y-55048093D01*
X44393939Y-54992807D01*
X47613800Y-58212668D01*
X47613800Y-70750000D01*
X47677361Y-71069541D01*
X47751358Y-71180285D01*
X47858366Y-71340434D01*
X50298114Y-73780182D01*
X50251287Y-74015600D01*
X50360520Y-74564751D01*
X50671589Y-75030298D01*
X50879400Y-75169153D01*
X50879400Y-75402047D01*
X50671589Y-75540902D01*
X50360520Y-76006449D01*
X50251287Y-76555600D01*
X50360520Y-77104751D01*
X50671589Y-77570298D01*
X50879400Y-77709153D01*
X50879400Y-77942047D01*
X50671589Y-78080902D01*
X50360520Y-78546449D01*
X50251287Y-79095600D01*
X50360520Y-79644751D01*
X50671589Y-80110298D01*
X51053675Y-80365600D01*
X50671589Y-80620902D01*
X50360520Y-81086449D01*
X50251287Y-81635600D01*
X50360520Y-82184751D01*
X50671589Y-82650298D01*
X51137136Y-82961367D01*
X51686287Y-83070600D01*
X51742513Y-83070600D01*
X52291664Y-82961367D01*
X52757211Y-82650298D01*
X52877282Y-82470600D01*
X54737000Y-82470600D01*
X54737000Y-84075200D01*
X35152400Y-84075200D01*
X35152400Y-81128890D01*
X35388524Y-81128890D01*
X35558355Y-81538924D01*
X35948642Y-81967183D01*
X36473108Y-82213486D01*
X36703000Y-82092819D01*
X36703000Y-80899000D01*
X35509845Y-80899000D01*
X35388524Y-81128890D01*
X35152400Y-81128890D01*
X35152400Y-28192800D01*
X42887621Y-28192800D01*
X42494864Y-28496306D01*
M02*
