G04 #@! TF.FileFunction,Other,User*
%FSLAX46Y46*%
G04 Gerber Fmt 4.6, Leading zero omitted, Abs format (unit mm)*
G04 Created by KiCad (PCBNEW 4.0.7) date 12/06/18 02:32:36*
%MOMM*%
%LPD*%
G01*
G04 APERTURE LIST*
%ADD10C,0.100000*%
%ADD11C,0.050000*%
G04 APERTURE END LIST*
D10*
D11*
X34820000Y-86510000D02*
X53100000Y-86510000D01*
X34820000Y-86510000D02*
X34820000Y-40290000D01*
X53100000Y-40290000D02*
X53100000Y-86510000D01*
X53100000Y-40290000D02*
X34820000Y-40290000D01*
X124600000Y-30800000D02*
X126900000Y-30800000D01*
X126900000Y-30800000D02*
X126900000Y-37800000D01*
X126900000Y-37800000D02*
X124600000Y-37800000D01*
X124600000Y-37800000D02*
X124600000Y-30800000D01*
X45950000Y-100400000D02*
X46200000Y-100400000D01*
X46200000Y-100400000D02*
X46200000Y-100650000D01*
X45950000Y-107900000D02*
X46200000Y-107900000D01*
X46200000Y-107900000D02*
X46200000Y-107650000D01*
X36700000Y-107650000D02*
X36700000Y-107900000D01*
X36700000Y-107900000D02*
X36950000Y-107900000D01*
X36700000Y-100650000D02*
X36700000Y-100400000D01*
X36700000Y-100400000D02*
X36950000Y-100400000D01*
X36950000Y-107900000D02*
X45950000Y-107900000D01*
X36700000Y-100650000D02*
X36700000Y-107650000D01*
X45950000Y-100400000D02*
X36950000Y-100400000D01*
X46200000Y-107650000D02*
X46200000Y-100650000D01*
X53600000Y-50250000D02*
X56900000Y-50250000D01*
X56900000Y-50250000D02*
X56900000Y-76500000D01*
X56900000Y-76500000D02*
X53600000Y-76500000D01*
X53600000Y-76500000D02*
X53600000Y-50250000D01*
X122850000Y-44350000D02*
X115700000Y-44350000D01*
X115700000Y-44350000D02*
X115700000Y-36800000D01*
X115700000Y-36800000D02*
X122850000Y-36800000D01*
X122850000Y-36800000D02*
X122850000Y-44350000D01*
X72800000Y-56000000D02*
X81450000Y-56000000D01*
X81450000Y-56000000D02*
X81450000Y-59600000D01*
X81450000Y-59600000D02*
X72800000Y-59600000D01*
X72800000Y-59600000D02*
X72800000Y-56000000D01*
X105600000Y-99250000D02*
X102400000Y-99250000D01*
X102400000Y-99250000D02*
X102400000Y-92150000D01*
X102400000Y-92150000D02*
X105600000Y-92150000D01*
X105600000Y-92150000D02*
X105600000Y-99250000D01*
X100400000Y-99250000D02*
X97200000Y-99250000D01*
X97200000Y-99250000D02*
X97200000Y-92150000D01*
X97200000Y-92150000D02*
X100400000Y-92150000D01*
X100400000Y-92150000D02*
X100400000Y-99250000D01*
X49173750Y-113110750D02*
X49173750Y-109710750D01*
X49173750Y-109710750D02*
X59123750Y-109710750D01*
X59123750Y-109710750D02*
X59123750Y-113110750D01*
X59123750Y-113110750D02*
X49173750Y-113110750D01*
X51508250Y-114627250D02*
X57658250Y-114627250D01*
X57658250Y-114627250D02*
X57658250Y-118227250D01*
X57658250Y-118227250D02*
X51508250Y-118227250D01*
X51508250Y-118227250D02*
X51508250Y-114627250D01*
X59106000Y-68736500D02*
X62306000Y-68736500D01*
X62306000Y-68736500D02*
X62306000Y-78486500D01*
X62306000Y-78486500D02*
X59106000Y-78486500D01*
X59106000Y-78486500D02*
X59106000Y-68736500D01*
X65494250Y-113760750D02*
X58394250Y-113760750D01*
X65494250Y-113760750D02*
X65494250Y-118500750D01*
X58394250Y-118500750D02*
X58394250Y-113760750D01*
X58394250Y-118500750D02*
X65494250Y-118500750D01*
X32807500Y-113135000D02*
X44007500Y-113135000D01*
X44007500Y-113135000D02*
X44007500Y-116735000D01*
X44007500Y-116735000D02*
X32807500Y-116735000D01*
X32807500Y-116735000D02*
X32807500Y-113135000D01*
X97577500Y-114087500D02*
X103727500Y-114087500D01*
X103727500Y-114087500D02*
X103727500Y-117687500D01*
X103727500Y-117687500D02*
X97577500Y-117687500D01*
X97577500Y-117687500D02*
X97577500Y-114087500D01*
M02*
