G04 #@! TF.FileFunction,Legend,Top*
%FSLAX46Y46*%
G04 Gerber Fmt 4.6, Leading zero omitted, Abs format (unit mm)*
G04 Created by KiCad (PCBNEW 4.0.7) date 01/31/18 00:14:42*
%MOMM*%
%LPD*%
G01*
G04 APERTURE LIST*
%ADD10C,0.100000*%
%ADD11C,0.120000*%
%ADD12C,0.150000*%
G04 APERTURE END LIST*
D10*
D11*
X150816000Y-105324600D02*
X150816000Y-107984600D01*
X153416000Y-105324600D02*
X150816000Y-105324600D01*
X153416000Y-107984600D02*
X150816000Y-107984600D01*
X153416000Y-105324600D02*
X153416000Y-107984600D01*
X154686000Y-105324600D02*
X156016000Y-105324600D01*
X156016000Y-105324600D02*
X156016000Y-106654600D01*
X169573000Y-117249000D02*
X170747000Y-117249000D01*
X169573000Y-118971000D02*
X170747000Y-118971000D01*
X178979723Y-120145722D02*
G75*
G03X178980000Y-115534420I-1179723J2305722D01*
G01*
X176620277Y-120145722D02*
G75*
G02X176620000Y-115534420I1179723J2305722D01*
G01*
X176620277Y-120145722D02*
G75*
G03X178980000Y-120145580I1179723J2305722D01*
G01*
X180350000Y-117840000D02*
X175250000Y-117840000D01*
X180350000Y-117880000D02*
X178780000Y-117880000D01*
X176820000Y-117880000D02*
X175250000Y-117880000D01*
X180349000Y-117920000D02*
X178780000Y-117920000D01*
X176820000Y-117920000D02*
X175251000Y-117920000D01*
X180348000Y-117960000D02*
X178780000Y-117960000D01*
X176820000Y-117960000D02*
X175252000Y-117960000D01*
X180346000Y-118000000D02*
X178780000Y-118000000D01*
X176820000Y-118000000D02*
X175254000Y-118000000D01*
X180343000Y-118040000D02*
X178780000Y-118040000D01*
X176820000Y-118040000D02*
X175257000Y-118040000D01*
X180339000Y-118080000D02*
X178780000Y-118080000D01*
X176820000Y-118080000D02*
X175261000Y-118080000D01*
X180335000Y-118120000D02*
X178780000Y-118120000D01*
X176820000Y-118120000D02*
X175265000Y-118120000D01*
X180331000Y-118160000D02*
X178780000Y-118160000D01*
X176820000Y-118160000D02*
X175269000Y-118160000D01*
X180325000Y-118200000D02*
X178780000Y-118200000D01*
X176820000Y-118200000D02*
X175275000Y-118200000D01*
X180319000Y-118240000D02*
X178780000Y-118240000D01*
X176820000Y-118240000D02*
X175281000Y-118240000D01*
X180313000Y-118280000D02*
X178780000Y-118280000D01*
X176820000Y-118280000D02*
X175287000Y-118280000D01*
X180306000Y-118320000D02*
X178780000Y-118320000D01*
X176820000Y-118320000D02*
X175294000Y-118320000D01*
X180298000Y-118360000D02*
X178780000Y-118360000D01*
X176820000Y-118360000D02*
X175302000Y-118360000D01*
X180289000Y-118400000D02*
X178780000Y-118400000D01*
X176820000Y-118400000D02*
X175311000Y-118400000D01*
X180280000Y-118440000D02*
X178780000Y-118440000D01*
X176820000Y-118440000D02*
X175320000Y-118440000D01*
X180270000Y-118480000D02*
X178780000Y-118480000D01*
X176820000Y-118480000D02*
X175330000Y-118480000D01*
X180260000Y-118520000D02*
X178780000Y-118520000D01*
X176820000Y-118520000D02*
X175340000Y-118520000D01*
X180248000Y-118561000D02*
X178780000Y-118561000D01*
X176820000Y-118561000D02*
X175352000Y-118561000D01*
X180236000Y-118601000D02*
X178780000Y-118601000D01*
X176820000Y-118601000D02*
X175364000Y-118601000D01*
X180224000Y-118641000D02*
X178780000Y-118641000D01*
X176820000Y-118641000D02*
X175376000Y-118641000D01*
X180210000Y-118681000D02*
X178780000Y-118681000D01*
X176820000Y-118681000D02*
X175390000Y-118681000D01*
X180196000Y-118721000D02*
X178780000Y-118721000D01*
X176820000Y-118721000D02*
X175404000Y-118721000D01*
X180182000Y-118761000D02*
X178780000Y-118761000D01*
X176820000Y-118761000D02*
X175418000Y-118761000D01*
X180166000Y-118801000D02*
X178780000Y-118801000D01*
X176820000Y-118801000D02*
X175434000Y-118801000D01*
X180150000Y-118841000D02*
X178780000Y-118841000D01*
X176820000Y-118841000D02*
X175450000Y-118841000D01*
X180133000Y-118881000D02*
X178780000Y-118881000D01*
X176820000Y-118881000D02*
X175467000Y-118881000D01*
X180115000Y-118921000D02*
X178780000Y-118921000D01*
X176820000Y-118921000D02*
X175485000Y-118921000D01*
X180096000Y-118961000D02*
X178780000Y-118961000D01*
X176820000Y-118961000D02*
X175504000Y-118961000D01*
X180076000Y-119001000D02*
X178780000Y-119001000D01*
X176820000Y-119001000D02*
X175524000Y-119001000D01*
X180056000Y-119041000D02*
X178780000Y-119041000D01*
X176820000Y-119041000D02*
X175544000Y-119041000D01*
X180034000Y-119081000D02*
X178780000Y-119081000D01*
X176820000Y-119081000D02*
X175566000Y-119081000D01*
X180012000Y-119121000D02*
X178780000Y-119121000D01*
X176820000Y-119121000D02*
X175588000Y-119121000D01*
X179989000Y-119161000D02*
X178780000Y-119161000D01*
X176820000Y-119161000D02*
X175611000Y-119161000D01*
X179965000Y-119201000D02*
X178780000Y-119201000D01*
X176820000Y-119201000D02*
X175635000Y-119201000D01*
X179940000Y-119241000D02*
X178780000Y-119241000D01*
X176820000Y-119241000D02*
X175660000Y-119241000D01*
X179913000Y-119281000D02*
X178780000Y-119281000D01*
X176820000Y-119281000D02*
X175687000Y-119281000D01*
X179886000Y-119321000D02*
X178780000Y-119321000D01*
X176820000Y-119321000D02*
X175714000Y-119321000D01*
X179858000Y-119361000D02*
X178780000Y-119361000D01*
X176820000Y-119361000D02*
X175742000Y-119361000D01*
X179828000Y-119401000D02*
X178780000Y-119401000D01*
X176820000Y-119401000D02*
X175772000Y-119401000D01*
X179797000Y-119441000D02*
X178780000Y-119441000D01*
X176820000Y-119441000D02*
X175803000Y-119441000D01*
X179765000Y-119481000D02*
X178780000Y-119481000D01*
X176820000Y-119481000D02*
X175835000Y-119481000D01*
X179732000Y-119521000D02*
X178780000Y-119521000D01*
X176820000Y-119521000D02*
X175868000Y-119521000D01*
X179697000Y-119561000D02*
X178780000Y-119561000D01*
X176820000Y-119561000D02*
X175903000Y-119561000D01*
X179661000Y-119601000D02*
X178780000Y-119601000D01*
X176820000Y-119601000D02*
X175939000Y-119601000D01*
X179623000Y-119641000D02*
X178780000Y-119641000D01*
X176820000Y-119641000D02*
X175977000Y-119641000D01*
X179583000Y-119681000D02*
X178780000Y-119681000D01*
X176820000Y-119681000D02*
X176017000Y-119681000D01*
X179542000Y-119721000D02*
X178780000Y-119721000D01*
X176820000Y-119721000D02*
X176058000Y-119721000D01*
X179499000Y-119761000D02*
X178780000Y-119761000D01*
X176820000Y-119761000D02*
X176101000Y-119761000D01*
X179454000Y-119801000D02*
X178780000Y-119801000D01*
X176820000Y-119801000D02*
X176146000Y-119801000D01*
X179406000Y-119841000D02*
X176194000Y-119841000D01*
X179356000Y-119881000D02*
X176244000Y-119881000D01*
X179304000Y-119921000D02*
X176296000Y-119921000D01*
X179248000Y-119961000D02*
X176352000Y-119961000D01*
X179190000Y-120001000D02*
X176410000Y-120001000D01*
X179127000Y-120041000D02*
X176473000Y-120041000D01*
X179061000Y-120081000D02*
X176539000Y-120081000D01*
X178989000Y-120121000D02*
X176611000Y-120121000D01*
X178912000Y-120161000D02*
X176688000Y-120161000D01*
X178828000Y-120201000D02*
X176772000Y-120201000D01*
X178734000Y-120241000D02*
X176866000Y-120241000D01*
X178629000Y-120281000D02*
X176971000Y-120281000D01*
X178507000Y-120321000D02*
X177093000Y-120321000D01*
X178359000Y-120361000D02*
X177241000Y-120361000D01*
X178154000Y-120401000D02*
X177446000Y-120401000D01*
X177800000Y-114640000D02*
X177800000Y-115840000D01*
X178450000Y-115240000D02*
X177150000Y-115240000D01*
X151153442Y-114672999D02*
G75*
G03X152794912Y-109073000I1958J3039999D01*
G01*
X151157358Y-114672999D02*
G75*
G02X149515888Y-109073000I-1958J3039999D01*
G01*
X153655400Y-111633000D02*
G75*
G03X153655400Y-111633000I-2500000J0D01*
G01*
X152795400Y-109073000D02*
X149515400Y-109073000D01*
X155610000Y-117820000D02*
X155610000Y-118150000D01*
X155610000Y-118150000D02*
X149190000Y-118150000D01*
X149190000Y-118150000D02*
X149190000Y-117820000D01*
X155610000Y-115860000D02*
X155610000Y-115530000D01*
X155610000Y-115530000D02*
X149190000Y-115530000D01*
X149190000Y-115530000D02*
X149190000Y-115860000D01*
X170780000Y-109510000D02*
X170780000Y-109180000D01*
X170780000Y-109180000D02*
X177200000Y-109180000D01*
X177200000Y-109180000D02*
X177200000Y-109510000D01*
X170780000Y-111470000D02*
X170780000Y-111800000D01*
X170780000Y-111800000D02*
X177200000Y-111800000D01*
X177200000Y-111800000D02*
X177200000Y-111470000D01*
X170780000Y-112050000D02*
X170780000Y-111720000D01*
X170780000Y-111720000D02*
X177200000Y-111720000D01*
X177200000Y-111720000D02*
X177200000Y-112050000D01*
X170780000Y-114010000D02*
X170780000Y-114340000D01*
X170780000Y-114340000D02*
X177200000Y-114340000D01*
X177200000Y-114340000D02*
X177200000Y-114010000D01*
X163560000Y-109160000D02*
G75*
G02X161560000Y-109160000I-1000000J0D01*
G01*
X161560000Y-109160000D02*
X159910000Y-109160000D01*
X159910000Y-109160000D02*
X159910000Y-119440000D01*
X159910000Y-119440000D02*
X165210000Y-119440000D01*
X165210000Y-119440000D02*
X165210000Y-109160000D01*
X165210000Y-109160000D02*
X163560000Y-109160000D01*
X157420000Y-109100000D02*
X157420000Y-119500000D01*
X157420000Y-119500000D02*
X167700000Y-119500000D01*
X167700000Y-119500000D02*
X167700000Y-109100000D01*
X167700000Y-109100000D02*
X157420000Y-109100000D01*
X157953400Y-105197600D02*
X157953400Y-107857600D01*
X163093400Y-105197600D02*
X157953400Y-105197600D01*
X163093400Y-107857600D02*
X157953400Y-107857600D01*
X163093400Y-105197600D02*
X163093400Y-107857600D01*
X164363400Y-105197600D02*
X165693400Y-105197600D01*
X165693400Y-105197600D02*
X165693400Y-106527600D01*
D12*
X152677905Y-104957571D02*
X152820762Y-105005190D01*
X152868381Y-105052810D01*
X152916000Y-105148048D01*
X152916000Y-105290905D01*
X152868381Y-105386143D01*
X152820762Y-105433762D01*
X152725524Y-105481381D01*
X152344571Y-105481381D01*
X152344571Y-104481381D01*
X152677905Y-104481381D01*
X152773143Y-104529000D01*
X152820762Y-104576619D01*
X152868381Y-104671857D01*
X152868381Y-104767095D01*
X152820762Y-104862333D01*
X152773143Y-104909952D01*
X152677905Y-104957571D01*
X152344571Y-104957571D01*
X153296952Y-105195667D02*
X153773143Y-105195667D01*
X153201714Y-105481381D02*
X153535047Y-104481381D01*
X153868381Y-105481381D01*
X154058857Y-104481381D02*
X154630286Y-104481381D01*
X154344571Y-105481381D02*
X154344571Y-104481381D01*
X169993334Y-116357143D02*
X169945715Y-116404762D01*
X169802858Y-116452381D01*
X169707620Y-116452381D01*
X169564762Y-116404762D01*
X169469524Y-116309524D01*
X169421905Y-116214286D01*
X169374286Y-116023810D01*
X169374286Y-115880952D01*
X169421905Y-115690476D01*
X169469524Y-115595238D01*
X169564762Y-115500000D01*
X169707620Y-115452381D01*
X169802858Y-115452381D01*
X169945715Y-115500000D01*
X169993334Y-115547619D01*
X170945715Y-116452381D02*
X170374286Y-116452381D01*
X170660000Y-116452381D02*
X170660000Y-115452381D01*
X170564762Y-115595238D01*
X170469524Y-115690476D01*
X170374286Y-115738095D01*
X181967143Y-118006666D02*
X182014762Y-118054285D01*
X182062381Y-118197142D01*
X182062381Y-118292380D01*
X182014762Y-118435238D01*
X181919524Y-118530476D01*
X181824286Y-118578095D01*
X181633810Y-118625714D01*
X181490952Y-118625714D01*
X181300476Y-118578095D01*
X181205238Y-118530476D01*
X181110000Y-118435238D01*
X181062381Y-118292380D01*
X181062381Y-118197142D01*
X181110000Y-118054285D01*
X181157619Y-118006666D01*
X181157619Y-117625714D02*
X181110000Y-117578095D01*
X181062381Y-117482857D01*
X181062381Y-117244761D01*
X181110000Y-117149523D01*
X181157619Y-117101904D01*
X181252857Y-117054285D01*
X181348095Y-117054285D01*
X181490952Y-117101904D01*
X182062381Y-117673333D01*
X182062381Y-117054285D01*
X153233381Y-112498095D02*
X152233381Y-112498095D01*
X152233381Y-112260000D01*
X152281000Y-112117142D01*
X152376238Y-112021904D01*
X152471476Y-111974285D01*
X152661952Y-111926666D01*
X152804810Y-111926666D01*
X152995286Y-111974285D01*
X153090524Y-112021904D01*
X153185762Y-112117142D01*
X153233381Y-112260000D01*
X153233381Y-112498095D01*
X153233381Y-110974285D02*
X153233381Y-111545714D01*
X153233381Y-111260000D02*
X152233381Y-111260000D01*
X152376238Y-111355238D01*
X152471476Y-111450476D01*
X152519095Y-111545714D01*
X152233334Y-117419381D02*
X151900000Y-116943190D01*
X151661905Y-117419381D02*
X151661905Y-116419381D01*
X152042858Y-116419381D01*
X152138096Y-116467000D01*
X152185715Y-116514619D01*
X152233334Y-116609857D01*
X152233334Y-116752714D01*
X152185715Y-116847952D01*
X152138096Y-116895571D01*
X152042858Y-116943190D01*
X151661905Y-116943190D01*
X153185715Y-117419381D02*
X152614286Y-117419381D01*
X152900000Y-117419381D02*
X152900000Y-116419381D01*
X152804762Y-116562238D01*
X152709524Y-116657476D01*
X152614286Y-116705095D01*
X173950334Y-110942381D02*
X173617000Y-110466190D01*
X173378905Y-110942381D02*
X173378905Y-109942381D01*
X173759858Y-109942381D01*
X173855096Y-109990000D01*
X173902715Y-110037619D01*
X173950334Y-110132857D01*
X173950334Y-110275714D01*
X173902715Y-110370952D01*
X173855096Y-110418571D01*
X173759858Y-110466190D01*
X173378905Y-110466190D01*
X174331286Y-110037619D02*
X174378905Y-109990000D01*
X174474143Y-109942381D01*
X174712239Y-109942381D01*
X174807477Y-109990000D01*
X174855096Y-110037619D01*
X174902715Y-110132857D01*
X174902715Y-110228095D01*
X174855096Y-110370952D01*
X174283667Y-110942381D01*
X174902715Y-110942381D01*
X173950334Y-113482381D02*
X173617000Y-113006190D01*
X173378905Y-113482381D02*
X173378905Y-112482381D01*
X173759858Y-112482381D01*
X173855096Y-112530000D01*
X173902715Y-112577619D01*
X173950334Y-112672857D01*
X173950334Y-112815714D01*
X173902715Y-112910952D01*
X173855096Y-112958571D01*
X173759858Y-113006190D01*
X173378905Y-113006190D01*
X174283667Y-112482381D02*
X174902715Y-112482381D01*
X174569381Y-112863333D01*
X174712239Y-112863333D01*
X174807477Y-112910952D01*
X174855096Y-112958571D01*
X174902715Y-113053810D01*
X174902715Y-113291905D01*
X174855096Y-113387143D01*
X174807477Y-113434762D01*
X174712239Y-113482381D01*
X174426524Y-113482381D01*
X174331286Y-113434762D01*
X174283667Y-113387143D01*
X161798095Y-111339381D02*
X161798095Y-112148905D01*
X161845714Y-112244143D01*
X161893333Y-112291762D01*
X161988571Y-112339381D01*
X162179048Y-112339381D01*
X162274286Y-112291762D01*
X162321905Y-112244143D01*
X162369524Y-112148905D01*
X162369524Y-111339381D01*
X163369524Y-112339381D02*
X162798095Y-112339381D01*
X163083809Y-112339381D02*
X163083809Y-111339381D01*
X162988571Y-111482238D01*
X162893333Y-111577476D01*
X162798095Y-111625095D01*
X160337667Y-108862762D02*
X160480524Y-108910381D01*
X160718620Y-108910381D01*
X160813858Y-108862762D01*
X160861477Y-108815143D01*
X160909096Y-108719905D01*
X160909096Y-108624667D01*
X160861477Y-108529429D01*
X160813858Y-108481810D01*
X160718620Y-108434190D01*
X160528143Y-108386571D01*
X160432905Y-108338952D01*
X160385286Y-108291333D01*
X160337667Y-108196095D01*
X160337667Y-108100857D01*
X160385286Y-108005619D01*
X160432905Y-107958000D01*
X160528143Y-107910381D01*
X160766239Y-107910381D01*
X160909096Y-107958000D01*
X161242429Y-107910381D02*
X161480524Y-108910381D01*
X161671001Y-108196095D01*
X161861477Y-108910381D01*
X162099572Y-107910381D01*
X163004334Y-108910381D02*
X162432905Y-108910381D01*
X162718619Y-108910381D02*
X162718619Y-107910381D01*
X162623381Y-108053238D01*
X162528143Y-108148476D01*
X162432905Y-108196095D01*
M02*
