G04 #@! TF.FileFunction,Copper,L1,Top,Signal*
%FSLAX46Y46*%
G04 Gerber Fmt 4.6, Leading zero omitted, Abs format (unit mm)*
G04 Created by KiCad (PCBNEW 4.0.7) date 06/07/18 21:32:42*
%MOMM*%
%LPD*%
G01*
G04 APERTURE LIST*
%ADD10C,0.100000*%
%ADD11R,2.400000X1.600000*%
%ADD12O,2.400000X1.600000*%
%ADD13R,1.700000X1.700000*%
%ADD14O,1.700000X1.700000*%
%ADD15R,1.800000X1.800000*%
%ADD16C,1.800000*%
%ADD17C,1.400000*%
%ADD18O,1.400000X1.400000*%
%ADD19R,1.070000X1.800000*%
%ADD20O,1.070000X1.800000*%
%ADD21C,0.250000*%
%ADD22C,0.254000*%
G04 APERTURE END LIST*
D10*
D11*
X152527000Y-130302000D03*
D12*
X160147000Y-137922000D03*
X152527000Y-132842000D03*
X160147000Y-135382000D03*
X152527000Y-135382000D03*
X160147000Y-132842000D03*
X152527000Y-137922000D03*
X160147000Y-130302000D03*
D13*
X146050000Y-138303000D03*
D14*
X146050000Y-135763000D03*
X146050000Y-133223000D03*
X146050000Y-130683000D03*
D15*
X162560000Y-146939000D03*
D16*
X160020000Y-146939000D03*
D15*
X148717000Y-146685000D03*
D16*
X151257000Y-146685000D03*
D13*
X166497000Y-137922000D03*
D14*
X166497000Y-135382000D03*
X166497000Y-132842000D03*
X166497000Y-130302000D03*
D17*
X163449000Y-143256000D03*
D18*
X163449000Y-138176000D03*
D17*
X149352000Y-138430000D03*
D18*
X149352000Y-143510000D03*
D19*
X153924000Y-125857000D03*
D20*
X155194000Y-125857000D03*
X156464000Y-125857000D03*
X157734000Y-125857000D03*
D19*
X153797000Y-146177000D03*
D20*
X155067000Y-146177000D03*
X156337000Y-146177000D03*
X157607000Y-146177000D03*
D21*
X160020000Y-146939000D02*
X160020000Y-140970000D01*
X161798000Y-137033000D02*
X160147000Y-135382000D01*
X161798000Y-139192000D02*
X161798000Y-137033000D01*
X160020000Y-140970000D02*
X161798000Y-139192000D01*
X149479000Y-138430000D02*
X149479000Y-135001000D01*
X149479000Y-135001000D02*
X151638000Y-132842000D01*
X151638000Y-132842000D02*
X152527000Y-132842000D01*
X152527000Y-135382000D02*
X153035000Y-135382000D01*
X153035000Y-135382000D02*
X154686000Y-133731000D01*
X153924000Y-127508000D02*
X153924000Y-125857000D01*
X154686000Y-128270000D02*
X153924000Y-127508000D01*
X154686000Y-133731000D02*
X154686000Y-128270000D01*
X152527000Y-135382000D02*
X153416000Y-135382000D01*
X157734000Y-125857000D02*
X157734000Y-126619000D01*
X157734000Y-126619000D02*
X156337000Y-128016000D01*
X156337000Y-128016000D02*
X156337000Y-141986000D01*
X156337000Y-141986000D02*
X153797000Y-144526000D01*
X153797000Y-144526000D02*
X153797000Y-146177000D01*
D22*
G36*
X168200000Y-149150000D02*
X144220000Y-149150000D01*
X144220000Y-145785000D01*
X147169560Y-145785000D01*
X147169560Y-147585000D01*
X147213838Y-147820317D01*
X147352910Y-148036441D01*
X147565110Y-148181431D01*
X147817000Y-148232440D01*
X149617000Y-148232440D01*
X149852317Y-148188162D01*
X150068441Y-148049090D01*
X150213431Y-147836890D01*
X150217567Y-147816466D01*
X150386357Y-147985551D01*
X150950330Y-148219733D01*
X151560991Y-148220265D01*
X152125371Y-147987068D01*
X152557551Y-147555643D01*
X152658760Y-147311904D01*
X152658838Y-147312317D01*
X152797910Y-147528441D01*
X153010110Y-147673431D01*
X153262000Y-147724440D01*
X154332000Y-147724440D01*
X154567317Y-147680162D01*
X154658830Y-147621275D01*
X154759617Y-147670900D01*
X154940000Y-147545244D01*
X154940000Y-147271761D01*
X154979440Y-147077000D01*
X154979440Y-145781928D01*
X155167000Y-145781928D01*
X155167000Y-146572072D01*
X155194000Y-146707810D01*
X155194000Y-147545244D01*
X155374383Y-147670900D01*
X155686234Y-147517354D01*
X155889260Y-147653011D01*
X156337000Y-147742072D01*
X156784740Y-147653011D01*
X156972000Y-147527888D01*
X157159260Y-147653011D01*
X157607000Y-147742072D01*
X158054740Y-147653011D01*
X158434315Y-147399387D01*
X158505399Y-147293002D01*
X158717932Y-147807371D01*
X159149357Y-148239551D01*
X159713330Y-148473733D01*
X160323991Y-148474265D01*
X160888371Y-148241068D01*
X161056613Y-148073120D01*
X161056838Y-148074317D01*
X161195910Y-148290441D01*
X161408110Y-148435431D01*
X161660000Y-148486440D01*
X163460000Y-148486440D01*
X163695317Y-148442162D01*
X163911441Y-148303090D01*
X164056431Y-148090890D01*
X164107440Y-147839000D01*
X164107440Y-146039000D01*
X164063162Y-145803683D01*
X163924090Y-145587559D01*
X163711890Y-145442569D01*
X163460000Y-145391560D01*
X161660000Y-145391560D01*
X161424683Y-145435838D01*
X161208559Y-145574910D01*
X161063569Y-145787110D01*
X161059433Y-145807534D01*
X160890643Y-145638449D01*
X160780000Y-145592506D01*
X160780000Y-143520383D01*
X162113769Y-143520383D01*
X162316582Y-144011229D01*
X162691796Y-144387098D01*
X163182287Y-144590768D01*
X163713383Y-144591231D01*
X164204229Y-144388418D01*
X164580098Y-144013204D01*
X164783768Y-143522713D01*
X164784231Y-142991617D01*
X164581418Y-142500771D01*
X164206204Y-142124902D01*
X163715713Y-141921232D01*
X163184617Y-141920769D01*
X162693771Y-142123582D01*
X162317902Y-142498796D01*
X162114232Y-142989287D01*
X162113769Y-143520383D01*
X160780000Y-143520383D01*
X160780000Y-141284802D01*
X162335401Y-139729401D01*
X162500148Y-139482839D01*
X162558000Y-139192000D01*
X162558000Y-139135766D01*
X162770604Y-139325797D01*
X163115671Y-139468716D01*
X163322000Y-139345374D01*
X163322000Y-138303000D01*
X163576000Y-138303000D01*
X163576000Y-139345374D01*
X163782329Y-139468716D01*
X164127396Y-139325797D01*
X164515764Y-138978663D01*
X164741727Y-138509331D01*
X164619206Y-138303000D01*
X163576000Y-138303000D01*
X163322000Y-138303000D01*
X163302000Y-138303000D01*
X163302000Y-138049000D01*
X163322000Y-138049000D01*
X163322000Y-137006626D01*
X163576000Y-137006626D01*
X163576000Y-138049000D01*
X164619206Y-138049000D01*
X164741727Y-137842669D01*
X164515764Y-137373337D01*
X164127396Y-137026203D01*
X163782329Y-136883284D01*
X163576000Y-137006626D01*
X163322000Y-137006626D01*
X163115671Y-136883284D01*
X162770604Y-137026203D01*
X162558000Y-137216234D01*
X162558000Y-137033000D01*
X162500148Y-136742161D01*
X162335401Y-136495599D01*
X161853536Y-136013734D01*
X161908717Y-135931151D01*
X162017950Y-135382000D01*
X161908717Y-134832849D01*
X161597648Y-134367302D01*
X161215562Y-134112000D01*
X161597648Y-133856698D01*
X161908717Y-133391151D01*
X162017950Y-132842000D01*
X164982907Y-132842000D01*
X165095946Y-133410285D01*
X165417853Y-133892054D01*
X165747026Y-134112000D01*
X165417853Y-134331946D01*
X165095946Y-134813715D01*
X164982907Y-135382000D01*
X165095946Y-135950285D01*
X165417853Y-136432054D01*
X165459452Y-136459850D01*
X165411683Y-136468838D01*
X165195559Y-136607910D01*
X165050569Y-136820110D01*
X164999560Y-137072000D01*
X164999560Y-138772000D01*
X165043838Y-139007317D01*
X165182910Y-139223441D01*
X165395110Y-139368431D01*
X165647000Y-139419440D01*
X167347000Y-139419440D01*
X167582317Y-139375162D01*
X167798441Y-139236090D01*
X167943431Y-139023890D01*
X167994440Y-138772000D01*
X167994440Y-137072000D01*
X167950162Y-136836683D01*
X167811090Y-136620559D01*
X167598890Y-136475569D01*
X167531459Y-136461914D01*
X167576147Y-136432054D01*
X167898054Y-135950285D01*
X168011093Y-135382000D01*
X167898054Y-134813715D01*
X167576147Y-134331946D01*
X167246974Y-134112000D01*
X167576147Y-133892054D01*
X167898054Y-133410285D01*
X168011093Y-132842000D01*
X167898054Y-132273715D01*
X167576147Y-131791946D01*
X167235447Y-131564298D01*
X167378358Y-131497183D01*
X167768645Y-131068924D01*
X167938476Y-130658890D01*
X167817155Y-130429000D01*
X166624000Y-130429000D01*
X166624000Y-130449000D01*
X166370000Y-130449000D01*
X166370000Y-130429000D01*
X165176845Y-130429000D01*
X165055524Y-130658890D01*
X165225355Y-131068924D01*
X165615642Y-131497183D01*
X165758553Y-131564298D01*
X165417853Y-131791946D01*
X165095946Y-132273715D01*
X164982907Y-132842000D01*
X162017950Y-132842000D01*
X161908717Y-132292849D01*
X161597648Y-131827302D01*
X161215562Y-131572000D01*
X161597648Y-131316698D01*
X161908717Y-130851151D01*
X162017950Y-130302000D01*
X161946961Y-129945110D01*
X165055524Y-129945110D01*
X165176845Y-130175000D01*
X166370000Y-130175000D01*
X166370000Y-128981181D01*
X166624000Y-128981181D01*
X166624000Y-130175000D01*
X167817155Y-130175000D01*
X167938476Y-129945110D01*
X167768645Y-129535076D01*
X167378358Y-129106817D01*
X166853892Y-128860514D01*
X166624000Y-128981181D01*
X166370000Y-128981181D01*
X166140108Y-128860514D01*
X165615642Y-129106817D01*
X165225355Y-129535076D01*
X165055524Y-129945110D01*
X161946961Y-129945110D01*
X161908717Y-129752849D01*
X161597648Y-129287302D01*
X161132101Y-128976233D01*
X160582950Y-128867000D01*
X159711050Y-128867000D01*
X159161899Y-128976233D01*
X158696352Y-129287302D01*
X158385283Y-129752849D01*
X158276050Y-130302000D01*
X158385283Y-130851151D01*
X158696352Y-131316698D01*
X159078438Y-131572000D01*
X158696352Y-131827302D01*
X158385283Y-132292849D01*
X158276050Y-132842000D01*
X158385283Y-133391151D01*
X158696352Y-133856698D01*
X159078438Y-134112000D01*
X158696352Y-134367302D01*
X158385283Y-134832849D01*
X158276050Y-135382000D01*
X158385283Y-135931151D01*
X158696352Y-136396698D01*
X159078438Y-136652000D01*
X158696352Y-136907302D01*
X158385283Y-137372849D01*
X158276050Y-137922000D01*
X158385283Y-138471151D01*
X158696352Y-138936698D01*
X159161899Y-139247767D01*
X159711050Y-139357000D01*
X160558198Y-139357000D01*
X159482599Y-140432599D01*
X159317852Y-140679161D01*
X159260000Y-140970000D01*
X159260000Y-145592154D01*
X159151629Y-145636932D01*
X158777000Y-146010907D01*
X158777000Y-145781928D01*
X158687939Y-145334188D01*
X158434315Y-144954613D01*
X158054740Y-144700989D01*
X157607000Y-144611928D01*
X157159260Y-144700989D01*
X156972000Y-144826112D01*
X156784740Y-144700989D01*
X156337000Y-144611928D01*
X155889260Y-144700989D01*
X155686234Y-144836646D01*
X155374383Y-144683100D01*
X155194000Y-144808756D01*
X155194000Y-145646190D01*
X155167000Y-145781928D01*
X154979440Y-145781928D01*
X154979440Y-145277000D01*
X154940000Y-145067395D01*
X154940000Y-144808756D01*
X154759617Y-144683100D01*
X154671137Y-144726665D01*
X156874401Y-142523401D01*
X157039148Y-142276840D01*
X157069633Y-142123582D01*
X157097000Y-141986000D01*
X157097000Y-128330802D01*
X158073201Y-127354601D01*
X158181740Y-127333011D01*
X158561315Y-127079387D01*
X158814939Y-126699812D01*
X158904000Y-126252072D01*
X158904000Y-125461928D01*
X158814939Y-125014188D01*
X158561315Y-124634613D01*
X158181740Y-124380989D01*
X157734000Y-124291928D01*
X157286260Y-124380989D01*
X157099000Y-124506112D01*
X156911740Y-124380989D01*
X156464000Y-124291928D01*
X156016260Y-124380989D01*
X155813234Y-124516646D01*
X155501383Y-124363100D01*
X155321000Y-124488756D01*
X155321000Y-125326190D01*
X155294000Y-125461928D01*
X155294000Y-126252072D01*
X155321000Y-126387810D01*
X155321000Y-127225244D01*
X155501383Y-127350900D01*
X155813234Y-127197354D01*
X155973655Y-127304543D01*
X155799599Y-127478599D01*
X155634852Y-127725161D01*
X155577000Y-128016000D01*
X155577000Y-141671198D01*
X153259599Y-143988599D01*
X153094852Y-144235161D01*
X153037000Y-144526000D01*
X153037000Y-144671897D01*
X153026683Y-144673838D01*
X152810559Y-144812910D01*
X152665569Y-145025110D01*
X152614560Y-145277000D01*
X152614560Y-145950930D01*
X152559068Y-145816629D01*
X152127643Y-145384449D01*
X151563670Y-145150267D01*
X150953009Y-145149735D01*
X150388629Y-145382932D01*
X150220387Y-145550880D01*
X150220162Y-145549683D01*
X150081090Y-145333559D01*
X149868890Y-145188569D01*
X149617000Y-145137560D01*
X147817000Y-145137560D01*
X147581683Y-145181838D01*
X147365559Y-145320910D01*
X147220569Y-145533110D01*
X147169560Y-145785000D01*
X144220000Y-145785000D01*
X144220000Y-143843331D01*
X148059273Y-143843331D01*
X148285236Y-144312663D01*
X148673604Y-144659797D01*
X149018671Y-144802716D01*
X149225000Y-144679374D01*
X149225000Y-143637000D01*
X149479000Y-143637000D01*
X149479000Y-144679374D01*
X149685329Y-144802716D01*
X150030396Y-144659797D01*
X150418764Y-144312663D01*
X150644727Y-143843331D01*
X150522206Y-143637000D01*
X149479000Y-143637000D01*
X149225000Y-143637000D01*
X148181794Y-143637000D01*
X148059273Y-143843331D01*
X144220000Y-143843331D01*
X144220000Y-143176669D01*
X148059273Y-143176669D01*
X148181794Y-143383000D01*
X149225000Y-143383000D01*
X149225000Y-142340626D01*
X149479000Y-142340626D01*
X149479000Y-143383000D01*
X150522206Y-143383000D01*
X150644727Y-143176669D01*
X150418764Y-142707337D01*
X150030396Y-142360203D01*
X149685329Y-142217284D01*
X149479000Y-142340626D01*
X149225000Y-142340626D01*
X149018671Y-142217284D01*
X148673604Y-142360203D01*
X148285236Y-142707337D01*
X148059273Y-143176669D01*
X144220000Y-143176669D01*
X144220000Y-133223000D01*
X144535907Y-133223000D01*
X144648946Y-133791285D01*
X144970853Y-134273054D01*
X145300026Y-134493000D01*
X144970853Y-134712946D01*
X144648946Y-135194715D01*
X144535907Y-135763000D01*
X144648946Y-136331285D01*
X144970853Y-136813054D01*
X145012452Y-136840850D01*
X144964683Y-136849838D01*
X144748559Y-136988910D01*
X144603569Y-137201110D01*
X144552560Y-137453000D01*
X144552560Y-139153000D01*
X144596838Y-139388317D01*
X144735910Y-139604441D01*
X144948110Y-139749431D01*
X145200000Y-139800440D01*
X146900000Y-139800440D01*
X147135317Y-139756162D01*
X147351441Y-139617090D01*
X147496431Y-139404890D01*
X147547440Y-139153000D01*
X147547440Y-138694383D01*
X148016769Y-138694383D01*
X148219582Y-139185229D01*
X148594796Y-139561098D01*
X149085287Y-139764768D01*
X149616383Y-139765231D01*
X150107229Y-139562418D01*
X150483098Y-139187204D01*
X150686768Y-138696713D01*
X150687139Y-138271039D01*
X150735096Y-138271039D01*
X150752633Y-138353819D01*
X151022500Y-138846896D01*
X151460517Y-139199166D01*
X152000000Y-139357000D01*
X152400000Y-139357000D01*
X152400000Y-138049000D01*
X152654000Y-138049000D01*
X152654000Y-139357000D01*
X153054000Y-139357000D01*
X153593483Y-139199166D01*
X154031500Y-138846896D01*
X154301367Y-138353819D01*
X154318904Y-138271039D01*
X154196915Y-138049000D01*
X152654000Y-138049000D01*
X152400000Y-138049000D01*
X150857085Y-138049000D01*
X150735096Y-138271039D01*
X150687139Y-138271039D01*
X150687231Y-138165617D01*
X150484418Y-137674771D01*
X150239000Y-137428925D01*
X150239000Y-135315802D01*
X150852536Y-134702266D01*
X150765283Y-134832849D01*
X150656050Y-135382000D01*
X150765283Y-135931151D01*
X151076352Y-136396698D01*
X151454707Y-136649507D01*
X151022500Y-136997104D01*
X150752633Y-137490181D01*
X150735096Y-137572961D01*
X150857085Y-137795000D01*
X152400000Y-137795000D01*
X152400000Y-137775000D01*
X152654000Y-137775000D01*
X152654000Y-137795000D01*
X154196915Y-137795000D01*
X154318904Y-137572961D01*
X154301367Y-137490181D01*
X154031500Y-136997104D01*
X153599293Y-136649507D01*
X153977648Y-136396698D01*
X154288717Y-135931151D01*
X154397950Y-135382000D01*
X154350143Y-135141659D01*
X155223401Y-134268401D01*
X155388148Y-134021839D01*
X155446000Y-133731000D01*
X155446000Y-128270000D01*
X155388148Y-127979161D01*
X155223401Y-127732599D01*
X154798137Y-127307335D01*
X154886617Y-127350900D01*
X155067000Y-127225244D01*
X155067000Y-126951761D01*
X155106440Y-126757000D01*
X155106440Y-124957000D01*
X155067000Y-124747395D01*
X155067000Y-124488756D01*
X154886617Y-124363100D01*
X154786639Y-124412326D01*
X154710890Y-124360569D01*
X154459000Y-124309560D01*
X153389000Y-124309560D01*
X153153683Y-124353838D01*
X152937559Y-124492910D01*
X152792569Y-124705110D01*
X152741560Y-124957000D01*
X152741560Y-126757000D01*
X152785838Y-126992317D01*
X152924910Y-127208441D01*
X153137110Y-127353431D01*
X153164000Y-127358876D01*
X153164000Y-127508000D01*
X153221852Y-127798839D01*
X153386599Y-128045401D01*
X153926000Y-128584802D01*
X153926000Y-128894859D01*
X153727000Y-128854560D01*
X151327000Y-128854560D01*
X151091683Y-128898838D01*
X150875559Y-129037910D01*
X150730569Y-129250110D01*
X150679560Y-129502000D01*
X150679560Y-131102000D01*
X150723838Y-131337317D01*
X150862910Y-131553441D01*
X151075110Y-131698431D01*
X151224074Y-131728597D01*
X151076352Y-131827302D01*
X150765283Y-132292849D01*
X150679105Y-132726093D01*
X148941599Y-134463599D01*
X148776852Y-134710161D01*
X148719000Y-135001000D01*
X148719000Y-137247078D01*
X148596771Y-137297582D01*
X148220902Y-137672796D01*
X148017232Y-138163287D01*
X148016769Y-138694383D01*
X147547440Y-138694383D01*
X147547440Y-137453000D01*
X147503162Y-137217683D01*
X147364090Y-137001559D01*
X147151890Y-136856569D01*
X147084459Y-136842914D01*
X147129147Y-136813054D01*
X147451054Y-136331285D01*
X147564093Y-135763000D01*
X147451054Y-135194715D01*
X147129147Y-134712946D01*
X146799974Y-134493000D01*
X147129147Y-134273054D01*
X147451054Y-133791285D01*
X147564093Y-133223000D01*
X147451054Y-132654715D01*
X147129147Y-132172946D01*
X146788447Y-131945298D01*
X146931358Y-131878183D01*
X147321645Y-131449924D01*
X147491476Y-131039890D01*
X147370155Y-130810000D01*
X146177000Y-130810000D01*
X146177000Y-130830000D01*
X145923000Y-130830000D01*
X145923000Y-130810000D01*
X144729845Y-130810000D01*
X144608524Y-131039890D01*
X144778355Y-131449924D01*
X145168642Y-131878183D01*
X145311553Y-131945298D01*
X144970853Y-132172946D01*
X144648946Y-132654715D01*
X144535907Y-133223000D01*
X144220000Y-133223000D01*
X144220000Y-130326110D01*
X144608524Y-130326110D01*
X144729845Y-130556000D01*
X145923000Y-130556000D01*
X145923000Y-129362181D01*
X146177000Y-129362181D01*
X146177000Y-130556000D01*
X147370155Y-130556000D01*
X147491476Y-130326110D01*
X147321645Y-129916076D01*
X146931358Y-129487817D01*
X146406892Y-129241514D01*
X146177000Y-129362181D01*
X145923000Y-129362181D01*
X145693108Y-129241514D01*
X145168642Y-129487817D01*
X144778355Y-129916076D01*
X144608524Y-130326110D01*
X144220000Y-130326110D01*
X144220000Y-122630000D01*
X168200000Y-122630000D01*
X168200000Y-149150000D01*
X168200000Y-149150000D01*
G37*
X168200000Y-149150000D02*
X144220000Y-149150000D01*
X144220000Y-145785000D01*
X147169560Y-145785000D01*
X147169560Y-147585000D01*
X147213838Y-147820317D01*
X147352910Y-148036441D01*
X147565110Y-148181431D01*
X147817000Y-148232440D01*
X149617000Y-148232440D01*
X149852317Y-148188162D01*
X150068441Y-148049090D01*
X150213431Y-147836890D01*
X150217567Y-147816466D01*
X150386357Y-147985551D01*
X150950330Y-148219733D01*
X151560991Y-148220265D01*
X152125371Y-147987068D01*
X152557551Y-147555643D01*
X152658760Y-147311904D01*
X152658838Y-147312317D01*
X152797910Y-147528441D01*
X153010110Y-147673431D01*
X153262000Y-147724440D01*
X154332000Y-147724440D01*
X154567317Y-147680162D01*
X154658830Y-147621275D01*
X154759617Y-147670900D01*
X154940000Y-147545244D01*
X154940000Y-147271761D01*
X154979440Y-147077000D01*
X154979440Y-145781928D01*
X155167000Y-145781928D01*
X155167000Y-146572072D01*
X155194000Y-146707810D01*
X155194000Y-147545244D01*
X155374383Y-147670900D01*
X155686234Y-147517354D01*
X155889260Y-147653011D01*
X156337000Y-147742072D01*
X156784740Y-147653011D01*
X156972000Y-147527888D01*
X157159260Y-147653011D01*
X157607000Y-147742072D01*
X158054740Y-147653011D01*
X158434315Y-147399387D01*
X158505399Y-147293002D01*
X158717932Y-147807371D01*
X159149357Y-148239551D01*
X159713330Y-148473733D01*
X160323991Y-148474265D01*
X160888371Y-148241068D01*
X161056613Y-148073120D01*
X161056838Y-148074317D01*
X161195910Y-148290441D01*
X161408110Y-148435431D01*
X161660000Y-148486440D01*
X163460000Y-148486440D01*
X163695317Y-148442162D01*
X163911441Y-148303090D01*
X164056431Y-148090890D01*
X164107440Y-147839000D01*
X164107440Y-146039000D01*
X164063162Y-145803683D01*
X163924090Y-145587559D01*
X163711890Y-145442569D01*
X163460000Y-145391560D01*
X161660000Y-145391560D01*
X161424683Y-145435838D01*
X161208559Y-145574910D01*
X161063569Y-145787110D01*
X161059433Y-145807534D01*
X160890643Y-145638449D01*
X160780000Y-145592506D01*
X160780000Y-143520383D01*
X162113769Y-143520383D01*
X162316582Y-144011229D01*
X162691796Y-144387098D01*
X163182287Y-144590768D01*
X163713383Y-144591231D01*
X164204229Y-144388418D01*
X164580098Y-144013204D01*
X164783768Y-143522713D01*
X164784231Y-142991617D01*
X164581418Y-142500771D01*
X164206204Y-142124902D01*
X163715713Y-141921232D01*
X163184617Y-141920769D01*
X162693771Y-142123582D01*
X162317902Y-142498796D01*
X162114232Y-142989287D01*
X162113769Y-143520383D01*
X160780000Y-143520383D01*
X160780000Y-141284802D01*
X162335401Y-139729401D01*
X162500148Y-139482839D01*
X162558000Y-139192000D01*
X162558000Y-139135766D01*
X162770604Y-139325797D01*
X163115671Y-139468716D01*
X163322000Y-139345374D01*
X163322000Y-138303000D01*
X163576000Y-138303000D01*
X163576000Y-139345374D01*
X163782329Y-139468716D01*
X164127396Y-139325797D01*
X164515764Y-138978663D01*
X164741727Y-138509331D01*
X164619206Y-138303000D01*
X163576000Y-138303000D01*
X163322000Y-138303000D01*
X163302000Y-138303000D01*
X163302000Y-138049000D01*
X163322000Y-138049000D01*
X163322000Y-137006626D01*
X163576000Y-137006626D01*
X163576000Y-138049000D01*
X164619206Y-138049000D01*
X164741727Y-137842669D01*
X164515764Y-137373337D01*
X164127396Y-137026203D01*
X163782329Y-136883284D01*
X163576000Y-137006626D01*
X163322000Y-137006626D01*
X163115671Y-136883284D01*
X162770604Y-137026203D01*
X162558000Y-137216234D01*
X162558000Y-137033000D01*
X162500148Y-136742161D01*
X162335401Y-136495599D01*
X161853536Y-136013734D01*
X161908717Y-135931151D01*
X162017950Y-135382000D01*
X161908717Y-134832849D01*
X161597648Y-134367302D01*
X161215562Y-134112000D01*
X161597648Y-133856698D01*
X161908717Y-133391151D01*
X162017950Y-132842000D01*
X164982907Y-132842000D01*
X165095946Y-133410285D01*
X165417853Y-133892054D01*
X165747026Y-134112000D01*
X165417853Y-134331946D01*
X165095946Y-134813715D01*
X164982907Y-135382000D01*
X165095946Y-135950285D01*
X165417853Y-136432054D01*
X165459452Y-136459850D01*
X165411683Y-136468838D01*
X165195559Y-136607910D01*
X165050569Y-136820110D01*
X164999560Y-137072000D01*
X164999560Y-138772000D01*
X165043838Y-139007317D01*
X165182910Y-139223441D01*
X165395110Y-139368431D01*
X165647000Y-139419440D01*
X167347000Y-139419440D01*
X167582317Y-139375162D01*
X167798441Y-139236090D01*
X167943431Y-139023890D01*
X167994440Y-138772000D01*
X167994440Y-137072000D01*
X167950162Y-136836683D01*
X167811090Y-136620559D01*
X167598890Y-136475569D01*
X167531459Y-136461914D01*
X167576147Y-136432054D01*
X167898054Y-135950285D01*
X168011093Y-135382000D01*
X167898054Y-134813715D01*
X167576147Y-134331946D01*
X167246974Y-134112000D01*
X167576147Y-133892054D01*
X167898054Y-133410285D01*
X168011093Y-132842000D01*
X167898054Y-132273715D01*
X167576147Y-131791946D01*
X167235447Y-131564298D01*
X167378358Y-131497183D01*
X167768645Y-131068924D01*
X167938476Y-130658890D01*
X167817155Y-130429000D01*
X166624000Y-130429000D01*
X166624000Y-130449000D01*
X166370000Y-130449000D01*
X166370000Y-130429000D01*
X165176845Y-130429000D01*
X165055524Y-130658890D01*
X165225355Y-131068924D01*
X165615642Y-131497183D01*
X165758553Y-131564298D01*
X165417853Y-131791946D01*
X165095946Y-132273715D01*
X164982907Y-132842000D01*
X162017950Y-132842000D01*
X161908717Y-132292849D01*
X161597648Y-131827302D01*
X161215562Y-131572000D01*
X161597648Y-131316698D01*
X161908717Y-130851151D01*
X162017950Y-130302000D01*
X161946961Y-129945110D01*
X165055524Y-129945110D01*
X165176845Y-130175000D01*
X166370000Y-130175000D01*
X166370000Y-128981181D01*
X166624000Y-128981181D01*
X166624000Y-130175000D01*
X167817155Y-130175000D01*
X167938476Y-129945110D01*
X167768645Y-129535076D01*
X167378358Y-129106817D01*
X166853892Y-128860514D01*
X166624000Y-128981181D01*
X166370000Y-128981181D01*
X166140108Y-128860514D01*
X165615642Y-129106817D01*
X165225355Y-129535076D01*
X165055524Y-129945110D01*
X161946961Y-129945110D01*
X161908717Y-129752849D01*
X161597648Y-129287302D01*
X161132101Y-128976233D01*
X160582950Y-128867000D01*
X159711050Y-128867000D01*
X159161899Y-128976233D01*
X158696352Y-129287302D01*
X158385283Y-129752849D01*
X158276050Y-130302000D01*
X158385283Y-130851151D01*
X158696352Y-131316698D01*
X159078438Y-131572000D01*
X158696352Y-131827302D01*
X158385283Y-132292849D01*
X158276050Y-132842000D01*
X158385283Y-133391151D01*
X158696352Y-133856698D01*
X159078438Y-134112000D01*
X158696352Y-134367302D01*
X158385283Y-134832849D01*
X158276050Y-135382000D01*
X158385283Y-135931151D01*
X158696352Y-136396698D01*
X159078438Y-136652000D01*
X158696352Y-136907302D01*
X158385283Y-137372849D01*
X158276050Y-137922000D01*
X158385283Y-138471151D01*
X158696352Y-138936698D01*
X159161899Y-139247767D01*
X159711050Y-139357000D01*
X160558198Y-139357000D01*
X159482599Y-140432599D01*
X159317852Y-140679161D01*
X159260000Y-140970000D01*
X159260000Y-145592154D01*
X159151629Y-145636932D01*
X158777000Y-146010907D01*
X158777000Y-145781928D01*
X158687939Y-145334188D01*
X158434315Y-144954613D01*
X158054740Y-144700989D01*
X157607000Y-144611928D01*
X157159260Y-144700989D01*
X156972000Y-144826112D01*
X156784740Y-144700989D01*
X156337000Y-144611928D01*
X155889260Y-144700989D01*
X155686234Y-144836646D01*
X155374383Y-144683100D01*
X155194000Y-144808756D01*
X155194000Y-145646190D01*
X155167000Y-145781928D01*
X154979440Y-145781928D01*
X154979440Y-145277000D01*
X154940000Y-145067395D01*
X154940000Y-144808756D01*
X154759617Y-144683100D01*
X154671137Y-144726665D01*
X156874401Y-142523401D01*
X157039148Y-142276840D01*
X157069633Y-142123582D01*
X157097000Y-141986000D01*
X157097000Y-128330802D01*
X158073201Y-127354601D01*
X158181740Y-127333011D01*
X158561315Y-127079387D01*
X158814939Y-126699812D01*
X158904000Y-126252072D01*
X158904000Y-125461928D01*
X158814939Y-125014188D01*
X158561315Y-124634613D01*
X158181740Y-124380989D01*
X157734000Y-124291928D01*
X157286260Y-124380989D01*
X157099000Y-124506112D01*
X156911740Y-124380989D01*
X156464000Y-124291928D01*
X156016260Y-124380989D01*
X155813234Y-124516646D01*
X155501383Y-124363100D01*
X155321000Y-124488756D01*
X155321000Y-125326190D01*
X155294000Y-125461928D01*
X155294000Y-126252072D01*
X155321000Y-126387810D01*
X155321000Y-127225244D01*
X155501383Y-127350900D01*
X155813234Y-127197354D01*
X155973655Y-127304543D01*
X155799599Y-127478599D01*
X155634852Y-127725161D01*
X155577000Y-128016000D01*
X155577000Y-141671198D01*
X153259599Y-143988599D01*
X153094852Y-144235161D01*
X153037000Y-144526000D01*
X153037000Y-144671897D01*
X153026683Y-144673838D01*
X152810559Y-144812910D01*
X152665569Y-145025110D01*
X152614560Y-145277000D01*
X152614560Y-145950930D01*
X152559068Y-145816629D01*
X152127643Y-145384449D01*
X151563670Y-145150267D01*
X150953009Y-145149735D01*
X150388629Y-145382932D01*
X150220387Y-145550880D01*
X150220162Y-145549683D01*
X150081090Y-145333559D01*
X149868890Y-145188569D01*
X149617000Y-145137560D01*
X147817000Y-145137560D01*
X147581683Y-145181838D01*
X147365559Y-145320910D01*
X147220569Y-145533110D01*
X147169560Y-145785000D01*
X144220000Y-145785000D01*
X144220000Y-143843331D01*
X148059273Y-143843331D01*
X148285236Y-144312663D01*
X148673604Y-144659797D01*
X149018671Y-144802716D01*
X149225000Y-144679374D01*
X149225000Y-143637000D01*
X149479000Y-143637000D01*
X149479000Y-144679374D01*
X149685329Y-144802716D01*
X150030396Y-144659797D01*
X150418764Y-144312663D01*
X150644727Y-143843331D01*
X150522206Y-143637000D01*
X149479000Y-143637000D01*
X149225000Y-143637000D01*
X148181794Y-143637000D01*
X148059273Y-143843331D01*
X144220000Y-143843331D01*
X144220000Y-143176669D01*
X148059273Y-143176669D01*
X148181794Y-143383000D01*
X149225000Y-143383000D01*
X149225000Y-142340626D01*
X149479000Y-142340626D01*
X149479000Y-143383000D01*
X150522206Y-143383000D01*
X150644727Y-143176669D01*
X150418764Y-142707337D01*
X150030396Y-142360203D01*
X149685329Y-142217284D01*
X149479000Y-142340626D01*
X149225000Y-142340626D01*
X149018671Y-142217284D01*
X148673604Y-142360203D01*
X148285236Y-142707337D01*
X148059273Y-143176669D01*
X144220000Y-143176669D01*
X144220000Y-133223000D01*
X144535907Y-133223000D01*
X144648946Y-133791285D01*
X144970853Y-134273054D01*
X145300026Y-134493000D01*
X144970853Y-134712946D01*
X144648946Y-135194715D01*
X144535907Y-135763000D01*
X144648946Y-136331285D01*
X144970853Y-136813054D01*
X145012452Y-136840850D01*
X144964683Y-136849838D01*
X144748559Y-136988910D01*
X144603569Y-137201110D01*
X144552560Y-137453000D01*
X144552560Y-139153000D01*
X144596838Y-139388317D01*
X144735910Y-139604441D01*
X144948110Y-139749431D01*
X145200000Y-139800440D01*
X146900000Y-139800440D01*
X147135317Y-139756162D01*
X147351441Y-139617090D01*
X147496431Y-139404890D01*
X147547440Y-139153000D01*
X147547440Y-138694383D01*
X148016769Y-138694383D01*
X148219582Y-139185229D01*
X148594796Y-139561098D01*
X149085287Y-139764768D01*
X149616383Y-139765231D01*
X150107229Y-139562418D01*
X150483098Y-139187204D01*
X150686768Y-138696713D01*
X150687139Y-138271039D01*
X150735096Y-138271039D01*
X150752633Y-138353819D01*
X151022500Y-138846896D01*
X151460517Y-139199166D01*
X152000000Y-139357000D01*
X152400000Y-139357000D01*
X152400000Y-138049000D01*
X152654000Y-138049000D01*
X152654000Y-139357000D01*
X153054000Y-139357000D01*
X153593483Y-139199166D01*
X154031500Y-138846896D01*
X154301367Y-138353819D01*
X154318904Y-138271039D01*
X154196915Y-138049000D01*
X152654000Y-138049000D01*
X152400000Y-138049000D01*
X150857085Y-138049000D01*
X150735096Y-138271039D01*
X150687139Y-138271039D01*
X150687231Y-138165617D01*
X150484418Y-137674771D01*
X150239000Y-137428925D01*
X150239000Y-135315802D01*
X150852536Y-134702266D01*
X150765283Y-134832849D01*
X150656050Y-135382000D01*
X150765283Y-135931151D01*
X151076352Y-136396698D01*
X151454707Y-136649507D01*
X151022500Y-136997104D01*
X150752633Y-137490181D01*
X150735096Y-137572961D01*
X150857085Y-137795000D01*
X152400000Y-137795000D01*
X152400000Y-137775000D01*
X152654000Y-137775000D01*
X152654000Y-137795000D01*
X154196915Y-137795000D01*
X154318904Y-137572961D01*
X154301367Y-137490181D01*
X154031500Y-136997104D01*
X153599293Y-136649507D01*
X153977648Y-136396698D01*
X154288717Y-135931151D01*
X154397950Y-135382000D01*
X154350143Y-135141659D01*
X155223401Y-134268401D01*
X155388148Y-134021839D01*
X155446000Y-133731000D01*
X155446000Y-128270000D01*
X155388148Y-127979161D01*
X155223401Y-127732599D01*
X154798137Y-127307335D01*
X154886617Y-127350900D01*
X155067000Y-127225244D01*
X155067000Y-126951761D01*
X155106440Y-126757000D01*
X155106440Y-124957000D01*
X155067000Y-124747395D01*
X155067000Y-124488756D01*
X154886617Y-124363100D01*
X154786639Y-124412326D01*
X154710890Y-124360569D01*
X154459000Y-124309560D01*
X153389000Y-124309560D01*
X153153683Y-124353838D01*
X152937559Y-124492910D01*
X152792569Y-124705110D01*
X152741560Y-124957000D01*
X152741560Y-126757000D01*
X152785838Y-126992317D01*
X152924910Y-127208441D01*
X153137110Y-127353431D01*
X153164000Y-127358876D01*
X153164000Y-127508000D01*
X153221852Y-127798839D01*
X153386599Y-128045401D01*
X153926000Y-128584802D01*
X153926000Y-128894859D01*
X153727000Y-128854560D01*
X151327000Y-128854560D01*
X151091683Y-128898838D01*
X150875559Y-129037910D01*
X150730569Y-129250110D01*
X150679560Y-129502000D01*
X150679560Y-131102000D01*
X150723838Y-131337317D01*
X150862910Y-131553441D01*
X151075110Y-131698431D01*
X151224074Y-131728597D01*
X151076352Y-131827302D01*
X150765283Y-132292849D01*
X150679105Y-132726093D01*
X148941599Y-134463599D01*
X148776852Y-134710161D01*
X148719000Y-135001000D01*
X148719000Y-137247078D01*
X148596771Y-137297582D01*
X148220902Y-137672796D01*
X148017232Y-138163287D01*
X148016769Y-138694383D01*
X147547440Y-138694383D01*
X147547440Y-137453000D01*
X147503162Y-137217683D01*
X147364090Y-137001559D01*
X147151890Y-136856569D01*
X147084459Y-136842914D01*
X147129147Y-136813054D01*
X147451054Y-136331285D01*
X147564093Y-135763000D01*
X147451054Y-135194715D01*
X147129147Y-134712946D01*
X146799974Y-134493000D01*
X147129147Y-134273054D01*
X147451054Y-133791285D01*
X147564093Y-133223000D01*
X147451054Y-132654715D01*
X147129147Y-132172946D01*
X146788447Y-131945298D01*
X146931358Y-131878183D01*
X147321645Y-131449924D01*
X147491476Y-131039890D01*
X147370155Y-130810000D01*
X146177000Y-130810000D01*
X146177000Y-130830000D01*
X145923000Y-130830000D01*
X145923000Y-130810000D01*
X144729845Y-130810000D01*
X144608524Y-131039890D01*
X144778355Y-131449924D01*
X145168642Y-131878183D01*
X145311553Y-131945298D01*
X144970853Y-132172946D01*
X144648946Y-132654715D01*
X144535907Y-133223000D01*
X144220000Y-133223000D01*
X144220000Y-130326110D01*
X144608524Y-130326110D01*
X144729845Y-130556000D01*
X145923000Y-130556000D01*
X145923000Y-129362181D01*
X146177000Y-129362181D01*
X146177000Y-130556000D01*
X147370155Y-130556000D01*
X147491476Y-130326110D01*
X147321645Y-129916076D01*
X146931358Y-129487817D01*
X146406892Y-129241514D01*
X146177000Y-129362181D01*
X145923000Y-129362181D01*
X145693108Y-129241514D01*
X145168642Y-129487817D01*
X144778355Y-129916076D01*
X144608524Y-130326110D01*
X144220000Y-130326110D01*
X144220000Y-122630000D01*
X168200000Y-122630000D01*
X168200000Y-149150000D01*
M02*
