M48
INCH,TZ
T1C0.028
T2C0.031
T3C0.035
T4C0.039
%
G90
G05
T1
X58800Y-54500
X58800Y-56500
X64350Y-54400
X64350Y-56400
T2
X60050Y-51300
X60050Y-52300
X60050Y-53300
X60050Y-54300
X63050Y-51300
X63050Y-52300
X63050Y-53300
X63050Y-54300
T3
X58550Y-57750
X59550Y-57750
X60550Y-57550
X60600Y-49550
X61050Y-57550
X61100Y-49550
X61550Y-57550
X61600Y-49550
X62050Y-57550
X62100Y-49550
X63000Y-57850
X64000Y-57850
T4
X57500Y-51450
X57500Y-52450
X57500Y-53450
X57500Y-54450
X65550Y-51300
X65550Y-52300
X65550Y-53300
X65550Y-54300
T0
M30
