G04 #@! TF.FileFunction,Legend,Top*
%FSLAX46Y46*%
G04 Gerber Fmt 4.6, Leading zero omitted, Abs format (unit mm)*
G04 Created by KiCad (PCBNEW 4.0.7) date 06/07/18 21:32:42*
%MOMM*%
%LPD*%
G01*
G04 APERTURE LIST*
%ADD10C,0.100000*%
%ADD11C,0.120000*%
%ADD12C,0.150000*%
G04 APERTURE END LIST*
D10*
D11*
X157337000Y-128972000D02*
G75*
G02X155337000Y-128972000I-1000000J0D01*
G01*
X155337000Y-128972000D02*
X154087000Y-128972000D01*
X154087000Y-128972000D02*
X154087000Y-139252000D01*
X154087000Y-139252000D02*
X158587000Y-139252000D01*
X158587000Y-139252000D02*
X158587000Y-128972000D01*
X158587000Y-128972000D02*
X157337000Y-128972000D01*
X151087000Y-128912000D02*
X151087000Y-139312000D01*
X151087000Y-139312000D02*
X161587000Y-139312000D01*
X161587000Y-139312000D02*
X161587000Y-128912000D01*
X161587000Y-128912000D02*
X151087000Y-128912000D01*
X147380000Y-137033000D02*
X147380000Y-129353000D01*
X147380000Y-129353000D02*
X144720000Y-129353000D01*
X144720000Y-129353000D02*
X144720000Y-137033000D01*
X144720000Y-137033000D02*
X147380000Y-137033000D01*
X147380000Y-138303000D02*
X147380000Y-139633000D01*
X147380000Y-139633000D02*
X146050000Y-139633000D01*
X159617665Y-148017608D02*
G75*
G03X162850000Y-148174516I1672335J1078608D01*
G01*
X159617665Y-145860392D02*
G75*
G02X162850000Y-145703484I1672335J-1078608D01*
G01*
X160248870Y-148018837D02*
G75*
G03X162330961Y-148019000I1041130J1079837D01*
G01*
X160248870Y-145859163D02*
G75*
G02X162330961Y-145859000I1041130J-1079837D01*
G01*
X162850000Y-148175000D02*
X162850000Y-148019000D01*
X162850000Y-145859000D02*
X162850000Y-145703000D01*
X151659335Y-145606392D02*
G75*
G03X148427000Y-145449484I-1672335J-1078608D01*
G01*
X151659335Y-147763608D02*
G75*
G02X148427000Y-147920516I-1672335J1078608D01*
G01*
X151028130Y-145605163D02*
G75*
G03X148946039Y-145605000I-1041130J-1079837D01*
G01*
X151028130Y-147764837D02*
G75*
G02X148946039Y-147765000I-1041130J1079837D01*
G01*
X148427000Y-145449000D02*
X148427000Y-145605000D01*
X148427000Y-147765000D02*
X148427000Y-147921000D01*
X167827000Y-136652000D02*
X167827000Y-128972000D01*
X167827000Y-128972000D02*
X165167000Y-128972000D01*
X165167000Y-128972000D02*
X165167000Y-136652000D01*
X165167000Y-136652000D02*
X167827000Y-136652000D01*
X167827000Y-137922000D02*
X167827000Y-139252000D01*
X167827000Y-139252000D02*
X166497000Y-139252000D01*
X162589000Y-142576000D02*
X162589000Y-138856000D01*
X164309000Y-142576000D02*
X164309000Y-138856000D01*
X150212000Y-139110000D02*
X150212000Y-142830000D01*
X148492000Y-139110000D02*
X148492000Y-142830000D01*
D12*
X155575095Y-127424381D02*
X155575095Y-128233905D01*
X155622714Y-128329143D01*
X155670333Y-128376762D01*
X155765571Y-128424381D01*
X155956048Y-128424381D01*
X156051286Y-128376762D01*
X156098905Y-128329143D01*
X156146524Y-128233905D01*
X156146524Y-127424381D01*
X157146524Y-128424381D02*
X156575095Y-128424381D01*
X156860809Y-128424381D02*
X156860809Y-127424381D01*
X156765571Y-127567238D01*
X156670333Y-127662476D01*
X156575095Y-127710095D01*
X145716667Y-140085381D02*
X145716667Y-140799667D01*
X145669047Y-140942524D01*
X145573809Y-141037762D01*
X145430952Y-141085381D01*
X145335714Y-141085381D01*
X146716667Y-141085381D02*
X146145238Y-141085381D01*
X146430952Y-141085381D02*
X146430952Y-140085381D01*
X146335714Y-140228238D01*
X146240476Y-140323476D01*
X146145238Y-140371095D01*
X160551905Y-150351381D02*
X160551905Y-149351381D01*
X160790000Y-149351381D01*
X160932858Y-149399000D01*
X161028096Y-149494238D01*
X161075715Y-149589476D01*
X161123334Y-149779952D01*
X161123334Y-149922810D01*
X161075715Y-150113286D01*
X161028096Y-150208524D01*
X160932858Y-150303762D01*
X160790000Y-150351381D01*
X160551905Y-150351381D01*
X162075715Y-150351381D02*
X161504286Y-150351381D01*
X161790000Y-150351381D02*
X161790000Y-149351381D01*
X161694762Y-149494238D01*
X161599524Y-149589476D01*
X161504286Y-149637095D01*
X149248905Y-144177381D02*
X149248905Y-143177381D01*
X149487000Y-143177381D01*
X149629858Y-143225000D01*
X149725096Y-143320238D01*
X149772715Y-143415476D01*
X149820334Y-143605952D01*
X149820334Y-143748810D01*
X149772715Y-143939286D01*
X149725096Y-144034524D01*
X149629858Y-144129762D01*
X149487000Y-144177381D01*
X149248905Y-144177381D01*
X150201286Y-143272619D02*
X150248905Y-143225000D01*
X150344143Y-143177381D01*
X150582239Y-143177381D01*
X150677477Y-143225000D01*
X150725096Y-143272619D01*
X150772715Y-143367857D01*
X150772715Y-143463095D01*
X150725096Y-143605952D01*
X150153667Y-144177381D01*
X150772715Y-144177381D01*
X166163667Y-139704381D02*
X166163667Y-140418667D01*
X166116047Y-140561524D01*
X166020809Y-140656762D01*
X165877952Y-140704381D01*
X165782714Y-140704381D01*
X166592238Y-139799619D02*
X166639857Y-139752000D01*
X166735095Y-139704381D01*
X166973191Y-139704381D01*
X167068429Y-139752000D01*
X167116048Y-139799619D01*
X167163667Y-139894857D01*
X167163667Y-139990095D01*
X167116048Y-140132952D01*
X166544619Y-140704381D01*
X167163667Y-140704381D01*
X162041381Y-140882666D02*
X161565190Y-141216000D01*
X162041381Y-141454095D02*
X161041381Y-141454095D01*
X161041381Y-141073142D01*
X161089000Y-140977904D01*
X161136619Y-140930285D01*
X161231857Y-140882666D01*
X161374714Y-140882666D01*
X161469952Y-140930285D01*
X161517571Y-140977904D01*
X161565190Y-141073142D01*
X161565190Y-141454095D01*
X162041381Y-139930285D02*
X162041381Y-140501714D01*
X162041381Y-140216000D02*
X161041381Y-140216000D01*
X161184238Y-140311238D01*
X161279476Y-140406476D01*
X161327095Y-140501714D01*
X151664381Y-141136666D02*
X151188190Y-141470000D01*
X151664381Y-141708095D02*
X150664381Y-141708095D01*
X150664381Y-141327142D01*
X150712000Y-141231904D01*
X150759619Y-141184285D01*
X150854857Y-141136666D01*
X150997714Y-141136666D01*
X151092952Y-141184285D01*
X151140571Y-141231904D01*
X151188190Y-141327142D01*
X151188190Y-141708095D01*
X150759619Y-140755714D02*
X150712000Y-140708095D01*
X150664381Y-140612857D01*
X150664381Y-140374761D01*
X150712000Y-140279523D01*
X150759619Y-140231904D01*
X150854857Y-140184285D01*
X150950095Y-140184285D01*
X151092952Y-140231904D01*
X151664381Y-140803333D01*
X151664381Y-140184285D01*
M02*
