G04 #@! TF.FileFunction,Copper,L2,Bot,Signal*
%FSLAX46Y46*%
G04 Gerber Fmt 4.6, Leading zero omitted, Abs format (unit mm)*
G04 Created by KiCad (PCBNEW 4.0.7) date 06/07/18 21:32:42*
%MOMM*%
%LPD*%
G01*
G04 APERTURE LIST*
%ADD10C,0.100000*%
%ADD11R,2.400000X1.600000*%
%ADD12O,2.400000X1.600000*%
%ADD13R,1.700000X1.700000*%
%ADD14O,1.700000X1.700000*%
%ADD15R,1.800000X1.800000*%
%ADD16C,1.800000*%
%ADD17C,1.400000*%
%ADD18O,1.400000X1.400000*%
%ADD19R,1.070000X1.800000*%
%ADD20O,1.070000X1.800000*%
%ADD21C,0.250000*%
%ADD22C,0.254000*%
G04 APERTURE END LIST*
D10*
D11*
X152527000Y-130302000D03*
D12*
X160147000Y-137922000D03*
X152527000Y-132842000D03*
X160147000Y-135382000D03*
X152527000Y-135382000D03*
X160147000Y-132842000D03*
X152527000Y-137922000D03*
X160147000Y-130302000D03*
D13*
X146050000Y-138303000D03*
D14*
X146050000Y-135763000D03*
X146050000Y-133223000D03*
X146050000Y-130683000D03*
D15*
X162560000Y-146939000D03*
D16*
X160020000Y-146939000D03*
D15*
X148717000Y-146685000D03*
D16*
X151257000Y-146685000D03*
D13*
X166497000Y-137922000D03*
D14*
X166497000Y-135382000D03*
X166497000Y-132842000D03*
X166497000Y-130302000D03*
D17*
X163449000Y-143256000D03*
D18*
X163449000Y-138176000D03*
D17*
X149352000Y-138430000D03*
D18*
X149352000Y-143510000D03*
D19*
X153924000Y-125857000D03*
D20*
X155194000Y-125857000D03*
X156464000Y-125857000D03*
X157734000Y-125857000D03*
D19*
X153797000Y-146177000D03*
D20*
X155067000Y-146177000D03*
X156337000Y-146177000D03*
X157607000Y-146177000D03*
D21*
X162560000Y-146939000D02*
X162560000Y-143637000D01*
X162560000Y-143637000D02*
X162941000Y-143256000D01*
X149479000Y-138430000D02*
X149606000Y-138430000D01*
X149606000Y-138430000D02*
X151257000Y-140081000D01*
X151257000Y-140081000D02*
X151257000Y-146685000D01*
X166497000Y-135382000D02*
X162687000Y-135382000D01*
X162687000Y-135382000D02*
X160147000Y-137922000D01*
X160147000Y-137922000D02*
X155321000Y-137922000D01*
X147447000Y-136652000D02*
X146558000Y-135763000D01*
X154051000Y-136652000D02*
X147447000Y-136652000D01*
X155321000Y-137922000D02*
X154051000Y-136652000D01*
X166497000Y-132842000D02*
X160147000Y-132842000D01*
X160147000Y-132842000D02*
X159004000Y-133985000D01*
X159004000Y-133985000D02*
X147320000Y-133985000D01*
X147320000Y-133985000D02*
X146558000Y-133223000D01*
D22*
G36*
X168200000Y-149150000D02*
X144220000Y-149150000D01*
X144220000Y-146970750D01*
X147182000Y-146970750D01*
X147182000Y-147711310D01*
X147278673Y-147944699D01*
X147457302Y-148123327D01*
X147690691Y-148220000D01*
X148431250Y-148220000D01*
X148590000Y-148061250D01*
X148590000Y-146812000D01*
X147340750Y-146812000D01*
X147182000Y-146970750D01*
X144220000Y-146970750D01*
X144220000Y-145658690D01*
X147182000Y-145658690D01*
X147182000Y-146399250D01*
X147340750Y-146558000D01*
X148590000Y-146558000D01*
X148590000Y-145308750D01*
X148431250Y-145150000D01*
X147690691Y-145150000D01*
X147457302Y-145246673D01*
X147278673Y-145425301D01*
X147182000Y-145658690D01*
X144220000Y-145658690D01*
X144220000Y-138588750D01*
X144565000Y-138588750D01*
X144565000Y-139279310D01*
X144661673Y-139512699D01*
X144840302Y-139691327D01*
X145073691Y-139788000D01*
X145764250Y-139788000D01*
X145923000Y-139629250D01*
X145923000Y-138430000D01*
X146177000Y-138430000D01*
X146177000Y-139629250D01*
X146335750Y-139788000D01*
X147026309Y-139788000D01*
X147259698Y-139691327D01*
X147438327Y-139512699D01*
X147535000Y-139279310D01*
X147535000Y-138588750D01*
X147376250Y-138430000D01*
X146177000Y-138430000D01*
X145923000Y-138430000D01*
X144723750Y-138430000D01*
X144565000Y-138588750D01*
X144220000Y-138588750D01*
X144220000Y-130683000D01*
X144535907Y-130683000D01*
X144648946Y-131251285D01*
X144970853Y-131733054D01*
X145300026Y-131953000D01*
X144970853Y-132172946D01*
X144648946Y-132654715D01*
X144535907Y-133223000D01*
X144648946Y-133791285D01*
X144970853Y-134273054D01*
X145300026Y-134493000D01*
X144970853Y-134712946D01*
X144648946Y-135194715D01*
X144535907Y-135763000D01*
X144648946Y-136331285D01*
X144970853Y-136813054D01*
X145014777Y-136842403D01*
X144840302Y-136914673D01*
X144661673Y-137093301D01*
X144565000Y-137326690D01*
X144565000Y-138017250D01*
X144723750Y-138176000D01*
X145923000Y-138176000D01*
X145923000Y-138156000D01*
X146177000Y-138156000D01*
X146177000Y-138176000D01*
X147376250Y-138176000D01*
X147535000Y-138017250D01*
X147535000Y-137412000D01*
X148482153Y-137412000D01*
X148220902Y-137672796D01*
X148017232Y-138163287D01*
X148016769Y-138694383D01*
X148219582Y-139185229D01*
X148594796Y-139561098D01*
X149085287Y-139764768D01*
X149616383Y-139765231D01*
X149793320Y-139692122D01*
X150497000Y-140395802D01*
X150497000Y-142840695D01*
X150295988Y-142539858D01*
X149862882Y-142250467D01*
X149352000Y-142148846D01*
X148841118Y-142250467D01*
X148408012Y-142539858D01*
X148118621Y-142972964D01*
X148017000Y-143483846D01*
X148017000Y-143536154D01*
X148118621Y-144047036D01*
X148408012Y-144480142D01*
X148841118Y-144769533D01*
X149352000Y-144871154D01*
X149862882Y-144769533D01*
X150295988Y-144480142D01*
X150497000Y-144179305D01*
X150497000Y-145338154D01*
X150388629Y-145382932D01*
X150211159Y-145560092D01*
X150155327Y-145425301D01*
X149976698Y-145246673D01*
X149743309Y-145150000D01*
X149002750Y-145150000D01*
X148844000Y-145308750D01*
X148844000Y-146558000D01*
X148864000Y-146558000D01*
X148864000Y-146812000D01*
X148844000Y-146812000D01*
X148844000Y-148061250D01*
X149002750Y-148220000D01*
X149743309Y-148220000D01*
X149976698Y-148123327D01*
X150155327Y-147944699D01*
X150211119Y-147810006D01*
X150386357Y-147985551D01*
X150950330Y-148219733D01*
X151560991Y-148220265D01*
X152125371Y-147987068D01*
X152557551Y-147555643D01*
X152658760Y-147311904D01*
X152658838Y-147312317D01*
X152797910Y-147528441D01*
X153010110Y-147673431D01*
X153262000Y-147724440D01*
X154332000Y-147724440D01*
X154567317Y-147680162D01*
X154614477Y-147649815D01*
X154619260Y-147653011D01*
X155067000Y-147742072D01*
X155514740Y-147653011D01*
X155717766Y-147517354D01*
X156029617Y-147670900D01*
X156210000Y-147545244D01*
X156210000Y-146707810D01*
X156237000Y-146572072D01*
X156237000Y-145781928D01*
X156437000Y-145781928D01*
X156437000Y-146572072D01*
X156464000Y-146707810D01*
X156464000Y-147545244D01*
X156644383Y-147670900D01*
X156956234Y-147517354D01*
X157159260Y-147653011D01*
X157607000Y-147742072D01*
X158054740Y-147653011D01*
X158434315Y-147399387D01*
X158505399Y-147293002D01*
X158717932Y-147807371D01*
X159149357Y-148239551D01*
X159713330Y-148473733D01*
X160323991Y-148474265D01*
X160888371Y-148241068D01*
X161056613Y-148073120D01*
X161056838Y-148074317D01*
X161195910Y-148290441D01*
X161408110Y-148435431D01*
X161660000Y-148486440D01*
X163460000Y-148486440D01*
X163695317Y-148442162D01*
X163911441Y-148303090D01*
X164056431Y-148090890D01*
X164107440Y-147839000D01*
X164107440Y-146039000D01*
X164063162Y-145803683D01*
X163924090Y-145587559D01*
X163711890Y-145442569D01*
X163460000Y-145391560D01*
X163320000Y-145391560D01*
X163320000Y-144590888D01*
X163713383Y-144591231D01*
X164204229Y-144388418D01*
X164580098Y-144013204D01*
X164783768Y-143522713D01*
X164784231Y-142991617D01*
X164581418Y-142500771D01*
X164206204Y-142124902D01*
X163715713Y-141921232D01*
X163184617Y-141920769D01*
X162693771Y-142123582D01*
X162317902Y-142498796D01*
X162114232Y-142989287D01*
X162114216Y-143007982D01*
X162022599Y-143099599D01*
X161857852Y-143346161D01*
X161800000Y-143637000D01*
X161800000Y-145391560D01*
X161660000Y-145391560D01*
X161424683Y-145435838D01*
X161208559Y-145574910D01*
X161063569Y-145787110D01*
X161059433Y-145807534D01*
X160890643Y-145638449D01*
X160326670Y-145404267D01*
X159716009Y-145403735D01*
X159151629Y-145636932D01*
X158777000Y-146010907D01*
X158777000Y-145781928D01*
X158687939Y-145334188D01*
X158434315Y-144954613D01*
X158054740Y-144700989D01*
X157607000Y-144611928D01*
X157159260Y-144700989D01*
X156956234Y-144836646D01*
X156644383Y-144683100D01*
X156464000Y-144808756D01*
X156464000Y-145646190D01*
X156437000Y-145781928D01*
X156237000Y-145781928D01*
X156210000Y-145646190D01*
X156210000Y-144808756D01*
X156029617Y-144683100D01*
X155717766Y-144836646D01*
X155514740Y-144700989D01*
X155067000Y-144611928D01*
X154619260Y-144700989D01*
X154616487Y-144702842D01*
X154583890Y-144680569D01*
X154332000Y-144629560D01*
X153262000Y-144629560D01*
X153026683Y-144673838D01*
X152810559Y-144812910D01*
X152665569Y-145025110D01*
X152614560Y-145277000D01*
X152614560Y-145950930D01*
X152559068Y-145816629D01*
X152127643Y-145384449D01*
X152017000Y-145338506D01*
X152017000Y-140081000D01*
X151959148Y-139790161D01*
X151794401Y-139543599D01*
X151411316Y-139160514D01*
X151541899Y-139247767D01*
X152091050Y-139357000D01*
X152962950Y-139357000D01*
X153512101Y-139247767D01*
X153977648Y-138936698D01*
X154288717Y-138471151D01*
X154372773Y-138048575D01*
X154783599Y-138459401D01*
X155030160Y-138624148D01*
X155321000Y-138682000D01*
X158526168Y-138682000D01*
X158696352Y-138936698D01*
X159161899Y-139247767D01*
X159711050Y-139357000D01*
X160582950Y-139357000D01*
X161132101Y-139247767D01*
X161597648Y-138936698D01*
X161908717Y-138471151D01*
X161972628Y-138149846D01*
X162114000Y-138149846D01*
X162114000Y-138202154D01*
X162215621Y-138713036D01*
X162505012Y-139146142D01*
X162938118Y-139435533D01*
X163449000Y-139537154D01*
X163959882Y-139435533D01*
X164392988Y-139146142D01*
X164682379Y-138713036D01*
X164782886Y-138207750D01*
X165012000Y-138207750D01*
X165012000Y-138898310D01*
X165108673Y-139131699D01*
X165287302Y-139310327D01*
X165520691Y-139407000D01*
X166211250Y-139407000D01*
X166370000Y-139248250D01*
X166370000Y-138049000D01*
X166624000Y-138049000D01*
X166624000Y-139248250D01*
X166782750Y-139407000D01*
X167473309Y-139407000D01*
X167706698Y-139310327D01*
X167885327Y-139131699D01*
X167982000Y-138898310D01*
X167982000Y-138207750D01*
X167823250Y-138049000D01*
X166624000Y-138049000D01*
X166370000Y-138049000D01*
X165170750Y-138049000D01*
X165012000Y-138207750D01*
X164782886Y-138207750D01*
X164784000Y-138202154D01*
X164784000Y-138149846D01*
X164682379Y-137638964D01*
X164392988Y-137205858D01*
X163959882Y-136916467D01*
X163449000Y-136814846D01*
X162938118Y-136916467D01*
X162505012Y-137205858D01*
X162215621Y-137638964D01*
X162114000Y-138149846D01*
X161972628Y-138149846D01*
X162017950Y-137922000D01*
X161908717Y-137372849D01*
X161853536Y-137290266D01*
X163001802Y-136142000D01*
X165224046Y-136142000D01*
X165417853Y-136432054D01*
X165461777Y-136461403D01*
X165287302Y-136533673D01*
X165108673Y-136712301D01*
X165012000Y-136945690D01*
X165012000Y-137636250D01*
X165170750Y-137795000D01*
X166370000Y-137795000D01*
X166370000Y-137775000D01*
X166624000Y-137775000D01*
X166624000Y-137795000D01*
X167823250Y-137795000D01*
X167982000Y-137636250D01*
X167982000Y-136945690D01*
X167885327Y-136712301D01*
X167706698Y-136533673D01*
X167532223Y-136461403D01*
X167576147Y-136432054D01*
X167898054Y-135950285D01*
X168011093Y-135382000D01*
X167898054Y-134813715D01*
X167576147Y-134331946D01*
X167246974Y-134112000D01*
X167576147Y-133892054D01*
X167898054Y-133410285D01*
X168011093Y-132842000D01*
X167898054Y-132273715D01*
X167576147Y-131791946D01*
X167246974Y-131572000D01*
X167576147Y-131352054D01*
X167898054Y-130870285D01*
X168011093Y-130302000D01*
X167898054Y-129733715D01*
X167576147Y-129251946D01*
X167094378Y-128930039D01*
X166526093Y-128817000D01*
X166467907Y-128817000D01*
X165899622Y-128930039D01*
X165417853Y-129251946D01*
X165095946Y-129733715D01*
X164982907Y-130302000D01*
X165095946Y-130870285D01*
X165417853Y-131352054D01*
X165747026Y-131572000D01*
X165417853Y-131791946D01*
X165224046Y-132082000D01*
X161767832Y-132082000D01*
X161597648Y-131827302D01*
X161219293Y-131574493D01*
X161651500Y-131226896D01*
X161921367Y-130733819D01*
X161938904Y-130651039D01*
X161816915Y-130429000D01*
X160274000Y-130429000D01*
X160274000Y-130449000D01*
X160020000Y-130449000D01*
X160020000Y-130429000D01*
X158477085Y-130429000D01*
X158355096Y-130651039D01*
X158372633Y-130733819D01*
X158642500Y-131226896D01*
X159074707Y-131574493D01*
X158696352Y-131827302D01*
X158385283Y-132292849D01*
X158276050Y-132842000D01*
X158352233Y-133225000D01*
X154321767Y-133225000D01*
X154397950Y-132842000D01*
X154288717Y-132292849D01*
X153977648Y-131827302D01*
X153831650Y-131729749D01*
X153962317Y-131705162D01*
X154178441Y-131566090D01*
X154323431Y-131353890D01*
X154374440Y-131102000D01*
X154374440Y-129952961D01*
X158355096Y-129952961D01*
X158477085Y-130175000D01*
X160020000Y-130175000D01*
X160020000Y-128867000D01*
X160274000Y-128867000D01*
X160274000Y-130175000D01*
X161816915Y-130175000D01*
X161938904Y-129952961D01*
X161921367Y-129870181D01*
X161651500Y-129377104D01*
X161213483Y-129024834D01*
X160674000Y-128867000D01*
X160274000Y-128867000D01*
X160020000Y-128867000D01*
X159620000Y-128867000D01*
X159080517Y-129024834D01*
X158642500Y-129377104D01*
X158372633Y-129870181D01*
X158355096Y-129952961D01*
X154374440Y-129952961D01*
X154374440Y-129502000D01*
X154330162Y-129266683D01*
X154191090Y-129050559D01*
X153978890Y-128905569D01*
X153727000Y-128854560D01*
X151327000Y-128854560D01*
X151091683Y-128898838D01*
X150875559Y-129037910D01*
X150730569Y-129250110D01*
X150679560Y-129502000D01*
X150679560Y-131102000D01*
X150723838Y-131337317D01*
X150862910Y-131553441D01*
X151075110Y-131698431D01*
X151224074Y-131728597D01*
X151076352Y-131827302D01*
X150765283Y-132292849D01*
X150656050Y-132842000D01*
X150732233Y-133225000D01*
X147634802Y-133225000D01*
X147547032Y-133137230D01*
X147451054Y-132654715D01*
X147129147Y-132172946D01*
X146799974Y-131953000D01*
X147129147Y-131733054D01*
X147451054Y-131251285D01*
X147564093Y-130683000D01*
X147451054Y-130114715D01*
X147129147Y-129632946D01*
X146647378Y-129311039D01*
X146079093Y-129198000D01*
X146020907Y-129198000D01*
X145452622Y-129311039D01*
X144970853Y-129632946D01*
X144648946Y-130114715D01*
X144535907Y-130683000D01*
X144220000Y-130683000D01*
X144220000Y-124957000D01*
X152741560Y-124957000D01*
X152741560Y-126757000D01*
X152785838Y-126992317D01*
X152924910Y-127208441D01*
X153137110Y-127353431D01*
X153389000Y-127404440D01*
X154459000Y-127404440D01*
X154694317Y-127360162D01*
X154741477Y-127329815D01*
X154746260Y-127333011D01*
X155194000Y-127422072D01*
X155641740Y-127333011D01*
X155844766Y-127197354D01*
X156156617Y-127350900D01*
X156337000Y-127225244D01*
X156337000Y-126387810D01*
X156364000Y-126252072D01*
X156364000Y-125461928D01*
X156564000Y-125461928D01*
X156564000Y-126252072D01*
X156591000Y-126387810D01*
X156591000Y-127225244D01*
X156771383Y-127350900D01*
X157083234Y-127197354D01*
X157286260Y-127333011D01*
X157734000Y-127422072D01*
X158181740Y-127333011D01*
X158561315Y-127079387D01*
X158814939Y-126699812D01*
X158904000Y-126252072D01*
X158904000Y-125461928D01*
X158814939Y-125014188D01*
X158561315Y-124634613D01*
X158181740Y-124380989D01*
X157734000Y-124291928D01*
X157286260Y-124380989D01*
X157083234Y-124516646D01*
X156771383Y-124363100D01*
X156591000Y-124488756D01*
X156591000Y-125326190D01*
X156564000Y-125461928D01*
X156364000Y-125461928D01*
X156337000Y-125326190D01*
X156337000Y-124488756D01*
X156156617Y-124363100D01*
X155844766Y-124516646D01*
X155641740Y-124380989D01*
X155194000Y-124291928D01*
X154746260Y-124380989D01*
X154743487Y-124382842D01*
X154710890Y-124360569D01*
X154459000Y-124309560D01*
X153389000Y-124309560D01*
X153153683Y-124353838D01*
X152937559Y-124492910D01*
X152792569Y-124705110D01*
X152741560Y-124957000D01*
X144220000Y-124957000D01*
X144220000Y-122630000D01*
X168200000Y-122630000D01*
X168200000Y-149150000D01*
X168200000Y-149150000D01*
G37*
X168200000Y-149150000D02*
X144220000Y-149150000D01*
X144220000Y-146970750D01*
X147182000Y-146970750D01*
X147182000Y-147711310D01*
X147278673Y-147944699D01*
X147457302Y-148123327D01*
X147690691Y-148220000D01*
X148431250Y-148220000D01*
X148590000Y-148061250D01*
X148590000Y-146812000D01*
X147340750Y-146812000D01*
X147182000Y-146970750D01*
X144220000Y-146970750D01*
X144220000Y-145658690D01*
X147182000Y-145658690D01*
X147182000Y-146399250D01*
X147340750Y-146558000D01*
X148590000Y-146558000D01*
X148590000Y-145308750D01*
X148431250Y-145150000D01*
X147690691Y-145150000D01*
X147457302Y-145246673D01*
X147278673Y-145425301D01*
X147182000Y-145658690D01*
X144220000Y-145658690D01*
X144220000Y-138588750D01*
X144565000Y-138588750D01*
X144565000Y-139279310D01*
X144661673Y-139512699D01*
X144840302Y-139691327D01*
X145073691Y-139788000D01*
X145764250Y-139788000D01*
X145923000Y-139629250D01*
X145923000Y-138430000D01*
X146177000Y-138430000D01*
X146177000Y-139629250D01*
X146335750Y-139788000D01*
X147026309Y-139788000D01*
X147259698Y-139691327D01*
X147438327Y-139512699D01*
X147535000Y-139279310D01*
X147535000Y-138588750D01*
X147376250Y-138430000D01*
X146177000Y-138430000D01*
X145923000Y-138430000D01*
X144723750Y-138430000D01*
X144565000Y-138588750D01*
X144220000Y-138588750D01*
X144220000Y-130683000D01*
X144535907Y-130683000D01*
X144648946Y-131251285D01*
X144970853Y-131733054D01*
X145300026Y-131953000D01*
X144970853Y-132172946D01*
X144648946Y-132654715D01*
X144535907Y-133223000D01*
X144648946Y-133791285D01*
X144970853Y-134273054D01*
X145300026Y-134493000D01*
X144970853Y-134712946D01*
X144648946Y-135194715D01*
X144535907Y-135763000D01*
X144648946Y-136331285D01*
X144970853Y-136813054D01*
X145014777Y-136842403D01*
X144840302Y-136914673D01*
X144661673Y-137093301D01*
X144565000Y-137326690D01*
X144565000Y-138017250D01*
X144723750Y-138176000D01*
X145923000Y-138176000D01*
X145923000Y-138156000D01*
X146177000Y-138156000D01*
X146177000Y-138176000D01*
X147376250Y-138176000D01*
X147535000Y-138017250D01*
X147535000Y-137412000D01*
X148482153Y-137412000D01*
X148220902Y-137672796D01*
X148017232Y-138163287D01*
X148016769Y-138694383D01*
X148219582Y-139185229D01*
X148594796Y-139561098D01*
X149085287Y-139764768D01*
X149616383Y-139765231D01*
X149793320Y-139692122D01*
X150497000Y-140395802D01*
X150497000Y-142840695D01*
X150295988Y-142539858D01*
X149862882Y-142250467D01*
X149352000Y-142148846D01*
X148841118Y-142250467D01*
X148408012Y-142539858D01*
X148118621Y-142972964D01*
X148017000Y-143483846D01*
X148017000Y-143536154D01*
X148118621Y-144047036D01*
X148408012Y-144480142D01*
X148841118Y-144769533D01*
X149352000Y-144871154D01*
X149862882Y-144769533D01*
X150295988Y-144480142D01*
X150497000Y-144179305D01*
X150497000Y-145338154D01*
X150388629Y-145382932D01*
X150211159Y-145560092D01*
X150155327Y-145425301D01*
X149976698Y-145246673D01*
X149743309Y-145150000D01*
X149002750Y-145150000D01*
X148844000Y-145308750D01*
X148844000Y-146558000D01*
X148864000Y-146558000D01*
X148864000Y-146812000D01*
X148844000Y-146812000D01*
X148844000Y-148061250D01*
X149002750Y-148220000D01*
X149743309Y-148220000D01*
X149976698Y-148123327D01*
X150155327Y-147944699D01*
X150211119Y-147810006D01*
X150386357Y-147985551D01*
X150950330Y-148219733D01*
X151560991Y-148220265D01*
X152125371Y-147987068D01*
X152557551Y-147555643D01*
X152658760Y-147311904D01*
X152658838Y-147312317D01*
X152797910Y-147528441D01*
X153010110Y-147673431D01*
X153262000Y-147724440D01*
X154332000Y-147724440D01*
X154567317Y-147680162D01*
X154614477Y-147649815D01*
X154619260Y-147653011D01*
X155067000Y-147742072D01*
X155514740Y-147653011D01*
X155717766Y-147517354D01*
X156029617Y-147670900D01*
X156210000Y-147545244D01*
X156210000Y-146707810D01*
X156237000Y-146572072D01*
X156237000Y-145781928D01*
X156437000Y-145781928D01*
X156437000Y-146572072D01*
X156464000Y-146707810D01*
X156464000Y-147545244D01*
X156644383Y-147670900D01*
X156956234Y-147517354D01*
X157159260Y-147653011D01*
X157607000Y-147742072D01*
X158054740Y-147653011D01*
X158434315Y-147399387D01*
X158505399Y-147293002D01*
X158717932Y-147807371D01*
X159149357Y-148239551D01*
X159713330Y-148473733D01*
X160323991Y-148474265D01*
X160888371Y-148241068D01*
X161056613Y-148073120D01*
X161056838Y-148074317D01*
X161195910Y-148290441D01*
X161408110Y-148435431D01*
X161660000Y-148486440D01*
X163460000Y-148486440D01*
X163695317Y-148442162D01*
X163911441Y-148303090D01*
X164056431Y-148090890D01*
X164107440Y-147839000D01*
X164107440Y-146039000D01*
X164063162Y-145803683D01*
X163924090Y-145587559D01*
X163711890Y-145442569D01*
X163460000Y-145391560D01*
X163320000Y-145391560D01*
X163320000Y-144590888D01*
X163713383Y-144591231D01*
X164204229Y-144388418D01*
X164580098Y-144013204D01*
X164783768Y-143522713D01*
X164784231Y-142991617D01*
X164581418Y-142500771D01*
X164206204Y-142124902D01*
X163715713Y-141921232D01*
X163184617Y-141920769D01*
X162693771Y-142123582D01*
X162317902Y-142498796D01*
X162114232Y-142989287D01*
X162114216Y-143007982D01*
X162022599Y-143099599D01*
X161857852Y-143346161D01*
X161800000Y-143637000D01*
X161800000Y-145391560D01*
X161660000Y-145391560D01*
X161424683Y-145435838D01*
X161208559Y-145574910D01*
X161063569Y-145787110D01*
X161059433Y-145807534D01*
X160890643Y-145638449D01*
X160326670Y-145404267D01*
X159716009Y-145403735D01*
X159151629Y-145636932D01*
X158777000Y-146010907D01*
X158777000Y-145781928D01*
X158687939Y-145334188D01*
X158434315Y-144954613D01*
X158054740Y-144700989D01*
X157607000Y-144611928D01*
X157159260Y-144700989D01*
X156956234Y-144836646D01*
X156644383Y-144683100D01*
X156464000Y-144808756D01*
X156464000Y-145646190D01*
X156437000Y-145781928D01*
X156237000Y-145781928D01*
X156210000Y-145646190D01*
X156210000Y-144808756D01*
X156029617Y-144683100D01*
X155717766Y-144836646D01*
X155514740Y-144700989D01*
X155067000Y-144611928D01*
X154619260Y-144700989D01*
X154616487Y-144702842D01*
X154583890Y-144680569D01*
X154332000Y-144629560D01*
X153262000Y-144629560D01*
X153026683Y-144673838D01*
X152810559Y-144812910D01*
X152665569Y-145025110D01*
X152614560Y-145277000D01*
X152614560Y-145950930D01*
X152559068Y-145816629D01*
X152127643Y-145384449D01*
X152017000Y-145338506D01*
X152017000Y-140081000D01*
X151959148Y-139790161D01*
X151794401Y-139543599D01*
X151411316Y-139160514D01*
X151541899Y-139247767D01*
X152091050Y-139357000D01*
X152962950Y-139357000D01*
X153512101Y-139247767D01*
X153977648Y-138936698D01*
X154288717Y-138471151D01*
X154372773Y-138048575D01*
X154783599Y-138459401D01*
X155030160Y-138624148D01*
X155321000Y-138682000D01*
X158526168Y-138682000D01*
X158696352Y-138936698D01*
X159161899Y-139247767D01*
X159711050Y-139357000D01*
X160582950Y-139357000D01*
X161132101Y-139247767D01*
X161597648Y-138936698D01*
X161908717Y-138471151D01*
X161972628Y-138149846D01*
X162114000Y-138149846D01*
X162114000Y-138202154D01*
X162215621Y-138713036D01*
X162505012Y-139146142D01*
X162938118Y-139435533D01*
X163449000Y-139537154D01*
X163959882Y-139435533D01*
X164392988Y-139146142D01*
X164682379Y-138713036D01*
X164782886Y-138207750D01*
X165012000Y-138207750D01*
X165012000Y-138898310D01*
X165108673Y-139131699D01*
X165287302Y-139310327D01*
X165520691Y-139407000D01*
X166211250Y-139407000D01*
X166370000Y-139248250D01*
X166370000Y-138049000D01*
X166624000Y-138049000D01*
X166624000Y-139248250D01*
X166782750Y-139407000D01*
X167473309Y-139407000D01*
X167706698Y-139310327D01*
X167885327Y-139131699D01*
X167982000Y-138898310D01*
X167982000Y-138207750D01*
X167823250Y-138049000D01*
X166624000Y-138049000D01*
X166370000Y-138049000D01*
X165170750Y-138049000D01*
X165012000Y-138207750D01*
X164782886Y-138207750D01*
X164784000Y-138202154D01*
X164784000Y-138149846D01*
X164682379Y-137638964D01*
X164392988Y-137205858D01*
X163959882Y-136916467D01*
X163449000Y-136814846D01*
X162938118Y-136916467D01*
X162505012Y-137205858D01*
X162215621Y-137638964D01*
X162114000Y-138149846D01*
X161972628Y-138149846D01*
X162017950Y-137922000D01*
X161908717Y-137372849D01*
X161853536Y-137290266D01*
X163001802Y-136142000D01*
X165224046Y-136142000D01*
X165417853Y-136432054D01*
X165461777Y-136461403D01*
X165287302Y-136533673D01*
X165108673Y-136712301D01*
X165012000Y-136945690D01*
X165012000Y-137636250D01*
X165170750Y-137795000D01*
X166370000Y-137795000D01*
X166370000Y-137775000D01*
X166624000Y-137775000D01*
X166624000Y-137795000D01*
X167823250Y-137795000D01*
X167982000Y-137636250D01*
X167982000Y-136945690D01*
X167885327Y-136712301D01*
X167706698Y-136533673D01*
X167532223Y-136461403D01*
X167576147Y-136432054D01*
X167898054Y-135950285D01*
X168011093Y-135382000D01*
X167898054Y-134813715D01*
X167576147Y-134331946D01*
X167246974Y-134112000D01*
X167576147Y-133892054D01*
X167898054Y-133410285D01*
X168011093Y-132842000D01*
X167898054Y-132273715D01*
X167576147Y-131791946D01*
X167246974Y-131572000D01*
X167576147Y-131352054D01*
X167898054Y-130870285D01*
X168011093Y-130302000D01*
X167898054Y-129733715D01*
X167576147Y-129251946D01*
X167094378Y-128930039D01*
X166526093Y-128817000D01*
X166467907Y-128817000D01*
X165899622Y-128930039D01*
X165417853Y-129251946D01*
X165095946Y-129733715D01*
X164982907Y-130302000D01*
X165095946Y-130870285D01*
X165417853Y-131352054D01*
X165747026Y-131572000D01*
X165417853Y-131791946D01*
X165224046Y-132082000D01*
X161767832Y-132082000D01*
X161597648Y-131827302D01*
X161219293Y-131574493D01*
X161651500Y-131226896D01*
X161921367Y-130733819D01*
X161938904Y-130651039D01*
X161816915Y-130429000D01*
X160274000Y-130429000D01*
X160274000Y-130449000D01*
X160020000Y-130449000D01*
X160020000Y-130429000D01*
X158477085Y-130429000D01*
X158355096Y-130651039D01*
X158372633Y-130733819D01*
X158642500Y-131226896D01*
X159074707Y-131574493D01*
X158696352Y-131827302D01*
X158385283Y-132292849D01*
X158276050Y-132842000D01*
X158352233Y-133225000D01*
X154321767Y-133225000D01*
X154397950Y-132842000D01*
X154288717Y-132292849D01*
X153977648Y-131827302D01*
X153831650Y-131729749D01*
X153962317Y-131705162D01*
X154178441Y-131566090D01*
X154323431Y-131353890D01*
X154374440Y-131102000D01*
X154374440Y-129952961D01*
X158355096Y-129952961D01*
X158477085Y-130175000D01*
X160020000Y-130175000D01*
X160020000Y-128867000D01*
X160274000Y-128867000D01*
X160274000Y-130175000D01*
X161816915Y-130175000D01*
X161938904Y-129952961D01*
X161921367Y-129870181D01*
X161651500Y-129377104D01*
X161213483Y-129024834D01*
X160674000Y-128867000D01*
X160274000Y-128867000D01*
X160020000Y-128867000D01*
X159620000Y-128867000D01*
X159080517Y-129024834D01*
X158642500Y-129377104D01*
X158372633Y-129870181D01*
X158355096Y-129952961D01*
X154374440Y-129952961D01*
X154374440Y-129502000D01*
X154330162Y-129266683D01*
X154191090Y-129050559D01*
X153978890Y-128905569D01*
X153727000Y-128854560D01*
X151327000Y-128854560D01*
X151091683Y-128898838D01*
X150875559Y-129037910D01*
X150730569Y-129250110D01*
X150679560Y-129502000D01*
X150679560Y-131102000D01*
X150723838Y-131337317D01*
X150862910Y-131553441D01*
X151075110Y-131698431D01*
X151224074Y-131728597D01*
X151076352Y-131827302D01*
X150765283Y-132292849D01*
X150656050Y-132842000D01*
X150732233Y-133225000D01*
X147634802Y-133225000D01*
X147547032Y-133137230D01*
X147451054Y-132654715D01*
X147129147Y-132172946D01*
X146799974Y-131953000D01*
X147129147Y-131733054D01*
X147451054Y-131251285D01*
X147564093Y-130683000D01*
X147451054Y-130114715D01*
X147129147Y-129632946D01*
X146647378Y-129311039D01*
X146079093Y-129198000D01*
X146020907Y-129198000D01*
X145452622Y-129311039D01*
X144970853Y-129632946D01*
X144648946Y-130114715D01*
X144535907Y-130683000D01*
X144220000Y-130683000D01*
X144220000Y-124957000D01*
X152741560Y-124957000D01*
X152741560Y-126757000D01*
X152785838Y-126992317D01*
X152924910Y-127208441D01*
X153137110Y-127353431D01*
X153389000Y-127404440D01*
X154459000Y-127404440D01*
X154694317Y-127360162D01*
X154741477Y-127329815D01*
X154746260Y-127333011D01*
X155194000Y-127422072D01*
X155641740Y-127333011D01*
X155844766Y-127197354D01*
X156156617Y-127350900D01*
X156337000Y-127225244D01*
X156337000Y-126387810D01*
X156364000Y-126252072D01*
X156364000Y-125461928D01*
X156564000Y-125461928D01*
X156564000Y-126252072D01*
X156591000Y-126387810D01*
X156591000Y-127225244D01*
X156771383Y-127350900D01*
X157083234Y-127197354D01*
X157286260Y-127333011D01*
X157734000Y-127422072D01*
X158181740Y-127333011D01*
X158561315Y-127079387D01*
X158814939Y-126699812D01*
X158904000Y-126252072D01*
X158904000Y-125461928D01*
X158814939Y-125014188D01*
X158561315Y-124634613D01*
X158181740Y-124380989D01*
X157734000Y-124291928D01*
X157286260Y-124380989D01*
X157083234Y-124516646D01*
X156771383Y-124363100D01*
X156591000Y-124488756D01*
X156591000Y-125326190D01*
X156564000Y-125461928D01*
X156364000Y-125461928D01*
X156337000Y-125326190D01*
X156337000Y-124488756D01*
X156156617Y-124363100D01*
X155844766Y-124516646D01*
X155641740Y-124380989D01*
X155194000Y-124291928D01*
X154746260Y-124380989D01*
X154743487Y-124382842D01*
X154710890Y-124360569D01*
X154459000Y-124309560D01*
X153389000Y-124309560D01*
X153153683Y-124353838D01*
X152937559Y-124492910D01*
X152792569Y-124705110D01*
X152741560Y-124957000D01*
X144220000Y-124957000D01*
X144220000Y-122630000D01*
X168200000Y-122630000D01*
X168200000Y-149150000D01*
M02*
