G04 #@! TF.FileFunction,Copper,L2,Bot,Signal*
%FSLAX46Y46*%
G04 Gerber Fmt 4.6, Leading zero omitted, Abs format (unit mm)*
G04 Created by KiCad (PCBNEW 4.0.7) date 02/01/18 03:58:40*
%MOMM*%
%LPD*%
G01*
G04 APERTURE LIST*
%ADD10C,0.100000*%
%ADD11R,1.600000X1.600000*%
%ADD12O,1.600000X1.600000*%
%ADD13O,3.010000X1.510000*%
%ADD14R,1.800000X1.800000*%
%ADD15C,1.800000*%
%ADD16C,1.600000*%
%ADD17C,2.000000*%
%ADD18R,2.000000X2.000000*%
%ADD19C,0.250000*%
%ADD20C,0.254000*%
G04 APERTURE END LIST*
D10*
D11*
X147701000Y-94996000D03*
D12*
X155321000Y-102616000D03*
X147701000Y-97536000D03*
X155321000Y-100076000D03*
X147701000Y-100076000D03*
X155321000Y-97536000D03*
X147701000Y-102616000D03*
X155321000Y-94996000D03*
D13*
X135382000Y-99949000D03*
X135382000Y-97409000D03*
D14*
X145161000Y-90043000D03*
D15*
X147701000Y-90043000D03*
D14*
X157861000Y-89916000D03*
D15*
X155321000Y-89916000D03*
D14*
X157861000Y-107696000D03*
D15*
X155321000Y-107696000D03*
D14*
X145161000Y-107696000D03*
D15*
X147701000Y-107696000D03*
D11*
X167640000Y-98552000D03*
D16*
X160040000Y-98552000D03*
X134366000Y-93345000D03*
D12*
X141986000Y-93345000D03*
D16*
X158750000Y-84963000D03*
D12*
X151130000Y-84963000D03*
D16*
X158750000Y-112649000D03*
D12*
X151130000Y-112649000D03*
D16*
X134366000Y-104521000D03*
D12*
X141986000Y-104521000D03*
D17*
X167894000Y-85416000D03*
X167894000Y-89916000D03*
X161394000Y-85416000D03*
X161394000Y-89916000D03*
X161417000Y-112196000D03*
X161417000Y-107696000D03*
X167917000Y-112196000D03*
X167917000Y-107696000D03*
X135128000Y-112196000D03*
X135128000Y-107696000D03*
X141628000Y-112196000D03*
X141628000Y-107696000D03*
X141605000Y-85543000D03*
X141605000Y-90043000D03*
X135105000Y-85543000D03*
X135105000Y-90043000D03*
D18*
X144399000Y-101600000D03*
D17*
X144399000Y-99060000D03*
X144399000Y-96560000D03*
D19*
X135382000Y-99949000D02*
X142240000Y-99949000D01*
X142240000Y-99949000D02*
X143891000Y-101600000D01*
X155321000Y-102616000D02*
X154305000Y-102616000D01*
X143383000Y-88265000D02*
X141605000Y-90043000D01*
X148717000Y-88265000D02*
X143383000Y-88265000D01*
X152781000Y-92329000D02*
X148717000Y-88265000D01*
X152781000Y-101092000D02*
X152781000Y-92329000D01*
X154305000Y-102616000D02*
X152781000Y-101092000D01*
X141605000Y-90043000D02*
X145161000Y-90043000D01*
X144780000Y-93345000D02*
X141986000Y-93345000D01*
X147701000Y-90424000D02*
X144780000Y-93345000D01*
X147701000Y-90043000D02*
X147701000Y-90424000D01*
X155321000Y-100076000D02*
X154813000Y-100076000D01*
X154813000Y-100076000D02*
X153670000Y-98933000D01*
X153670000Y-98933000D02*
X153670000Y-94107000D01*
X153670000Y-94107000D02*
X157861000Y-89916000D01*
X157861000Y-89916000D02*
X161394000Y-89916000D01*
X151130000Y-84963000D02*
X151130000Y-85725000D01*
X155321000Y-97536000D02*
X156210000Y-97536000D01*
X157861000Y-99187000D02*
X157861000Y-107696000D01*
X156210000Y-97536000D02*
X157861000Y-99187000D01*
X155321000Y-97536000D02*
X155321000Y-98044000D01*
X157861000Y-107696000D02*
X161417000Y-107696000D01*
X147701000Y-97536000D02*
X147701000Y-97663000D01*
X147701000Y-97663000D02*
X145923000Y-99441000D01*
X145923000Y-99441000D02*
X145923000Y-106934000D01*
X145923000Y-106934000D02*
X145161000Y-107696000D01*
X141986000Y-104521000D02*
X136271000Y-104521000D01*
X146304000Y-109093000D02*
X147701000Y-107696000D01*
X134493000Y-109093000D02*
X146304000Y-109093000D01*
X133731000Y-108331000D02*
X134493000Y-109093000D01*
X133731000Y-107061000D02*
X133731000Y-108331000D01*
X136271000Y-104521000D02*
X133731000Y-107061000D01*
D20*
G36*
X140219722Y-84615637D02*
X139970284Y-85216352D01*
X139969716Y-85866795D01*
X140218106Y-86467943D01*
X140677637Y-86928278D01*
X141278352Y-87177716D01*
X141928795Y-87178284D01*
X142529943Y-86929894D01*
X142990278Y-86470363D01*
X143239716Y-85869648D01*
X143240284Y-85219205D01*
X142991894Y-84618057D01*
X142777213Y-84403000D01*
X149783369Y-84403000D01*
X149776120Y-84413849D01*
X149666887Y-84963000D01*
X149776120Y-85512151D01*
X150087189Y-85977698D01*
X150552736Y-86288767D01*
X150665682Y-86311233D01*
X150839161Y-86427148D01*
X151130000Y-86485000D01*
X151420839Y-86427148D01*
X151594318Y-86311233D01*
X151707264Y-86288767D01*
X152172811Y-85977698D01*
X152177456Y-85970745D01*
X157921861Y-85970745D01*
X157995995Y-86216864D01*
X158533223Y-86409965D01*
X159103454Y-86382778D01*
X159504005Y-86216864D01*
X159578139Y-85970745D01*
X158750000Y-85142605D01*
X157921861Y-85970745D01*
X152177456Y-85970745D01*
X152483880Y-85512151D01*
X152593113Y-84963000D01*
X152483880Y-84413849D01*
X152476631Y-84403000D01*
X157426403Y-84403000D01*
X157303035Y-84746223D01*
X157330222Y-85316454D01*
X157496136Y-85717005D01*
X157742255Y-85791139D01*
X158570395Y-84963000D01*
X158556252Y-84948858D01*
X158735858Y-84769253D01*
X158750000Y-84783395D01*
X158764143Y-84769253D01*
X158943748Y-84948858D01*
X158929605Y-84963000D01*
X159757745Y-85791139D01*
X159777475Y-85785196D01*
X160007106Y-86340943D01*
X160466637Y-86801278D01*
X161067352Y-87050716D01*
X161717795Y-87051284D01*
X162318943Y-86802894D01*
X162779278Y-86343363D01*
X163028716Y-85742648D01*
X163029284Y-85092205D01*
X162780894Y-84491057D01*
X162692991Y-84403000D01*
X166594509Y-84403000D01*
X166508722Y-84488637D01*
X166259284Y-85089352D01*
X166258716Y-85739795D01*
X166507106Y-86340943D01*
X166966637Y-86801278D01*
X167567352Y-87050716D01*
X168217795Y-87051284D01*
X168818943Y-86802894D01*
X168962000Y-86660087D01*
X168962000Y-88671605D01*
X168821363Y-88530722D01*
X168220648Y-88281284D01*
X167570205Y-88280716D01*
X166969057Y-88529106D01*
X166508722Y-88988637D01*
X166259284Y-89589352D01*
X166258716Y-90239795D01*
X166507106Y-90840943D01*
X166966637Y-91301278D01*
X167567352Y-91550716D01*
X168217795Y-91551284D01*
X168818943Y-91302894D01*
X168962000Y-91160087D01*
X168962000Y-97390554D01*
X168904090Y-97300559D01*
X168691890Y-97155569D01*
X168440000Y-97104560D01*
X166840000Y-97104560D01*
X166604683Y-97148838D01*
X166388559Y-97287910D01*
X166243569Y-97500110D01*
X166192560Y-97752000D01*
X166192560Y-99352000D01*
X166236838Y-99587317D01*
X166375910Y-99803441D01*
X166588110Y-99948431D01*
X166840000Y-99999440D01*
X168440000Y-99999440D01*
X168675317Y-99955162D01*
X168891441Y-99816090D01*
X168962000Y-99712823D01*
X168962000Y-106428565D01*
X168844363Y-106310722D01*
X168243648Y-106061284D01*
X167593205Y-106060716D01*
X166992057Y-106309106D01*
X166531722Y-106768637D01*
X166282284Y-107369352D01*
X166281716Y-108019795D01*
X166530106Y-108620943D01*
X166989637Y-109081278D01*
X167590352Y-109330716D01*
X168240795Y-109331284D01*
X168841943Y-109082894D01*
X168962000Y-108963047D01*
X168962000Y-110928565D01*
X168844363Y-110810722D01*
X168243648Y-110561284D01*
X167593205Y-110560716D01*
X166992057Y-110809106D01*
X166531722Y-111268637D01*
X166282284Y-111869352D01*
X166281716Y-112519795D01*
X166530106Y-113120943D01*
X166618009Y-113209000D01*
X162716491Y-113209000D01*
X162802278Y-113123363D01*
X163051716Y-112522648D01*
X163052284Y-111872205D01*
X162803894Y-111271057D01*
X162344363Y-110810722D01*
X161743648Y-110561284D01*
X161093205Y-110560716D01*
X160492057Y-110809106D01*
X160031722Y-111268637D01*
X159797453Y-111832821D01*
X159757745Y-111820861D01*
X158929605Y-112649000D01*
X158943748Y-112663142D01*
X158764143Y-112842748D01*
X158750000Y-112828605D01*
X158735858Y-112842748D01*
X158556252Y-112663142D01*
X158570395Y-112649000D01*
X157742255Y-111820861D01*
X157496136Y-111894995D01*
X157303035Y-112432223D01*
X157330222Y-113002454D01*
X157415776Y-113209000D01*
X152476631Y-113209000D01*
X152483880Y-113198151D01*
X152593113Y-112649000D01*
X152483880Y-112099849D01*
X152177457Y-111641255D01*
X157921861Y-111641255D01*
X158750000Y-112469395D01*
X159578139Y-111641255D01*
X159504005Y-111395136D01*
X158966777Y-111202035D01*
X158396546Y-111229222D01*
X157995995Y-111395136D01*
X157921861Y-111641255D01*
X152177457Y-111641255D01*
X152172811Y-111634302D01*
X151707264Y-111323233D01*
X151158113Y-111214000D01*
X151101887Y-111214000D01*
X150552736Y-111323233D01*
X150087189Y-111634302D01*
X149776120Y-112099849D01*
X149666887Y-112649000D01*
X149776120Y-113198151D01*
X149783369Y-113209000D01*
X142927491Y-113209000D01*
X143013278Y-113123363D01*
X143262716Y-112522648D01*
X143263284Y-111872205D01*
X143014894Y-111271057D01*
X142555363Y-110810722D01*
X141954648Y-110561284D01*
X141304205Y-110560716D01*
X140703057Y-110809106D01*
X140242722Y-111268637D01*
X139993284Y-111869352D01*
X139992716Y-112519795D01*
X140241106Y-113120943D01*
X140329009Y-113209000D01*
X136427491Y-113209000D01*
X136513278Y-113123363D01*
X136762716Y-112522648D01*
X136763284Y-111872205D01*
X136514894Y-111271057D01*
X136055363Y-110810722D01*
X135454648Y-110561284D01*
X134804205Y-110560716D01*
X134203057Y-110809106D01*
X134060000Y-110951913D01*
X134060000Y-109700159D01*
X134202161Y-109795148D01*
X134493000Y-109853000D01*
X146304000Y-109853000D01*
X146594839Y-109795148D01*
X146841401Y-109630401D01*
X147286036Y-109185766D01*
X147394330Y-109230733D01*
X148004991Y-109231265D01*
X148569371Y-108998068D01*
X149001551Y-108566643D01*
X149235733Y-108002670D01*
X149236265Y-107392009D01*
X149003068Y-106827629D01*
X148571643Y-106395449D01*
X148007670Y-106161267D01*
X147397009Y-106160735D01*
X146832629Y-106393932D01*
X146683000Y-106543300D01*
X146683000Y-103647276D01*
X147123736Y-103941767D01*
X147672887Y-104051000D01*
X147729113Y-104051000D01*
X148278264Y-103941767D01*
X148743811Y-103630698D01*
X149054880Y-103165151D01*
X149164113Y-102616000D01*
X149054880Y-102066849D01*
X148743811Y-101601302D01*
X148361725Y-101346000D01*
X148743811Y-101090698D01*
X149054880Y-100625151D01*
X149164113Y-100076000D01*
X149054880Y-99526849D01*
X148743811Y-99061302D01*
X148361725Y-98806000D01*
X148743811Y-98550698D01*
X149054880Y-98085151D01*
X149164113Y-97536000D01*
X149054880Y-96986849D01*
X148743811Y-96521302D01*
X148599535Y-96424899D01*
X148736317Y-96399162D01*
X148952441Y-96260090D01*
X149097431Y-96047890D01*
X149148440Y-95796000D01*
X149148440Y-94196000D01*
X149104162Y-93960683D01*
X148965090Y-93744559D01*
X148752890Y-93599569D01*
X148501000Y-93548560D01*
X146901000Y-93548560D01*
X146665683Y-93592838D01*
X146449559Y-93731910D01*
X146304569Y-93944110D01*
X146253560Y-94196000D01*
X146253560Y-95796000D01*
X146297838Y-96031317D01*
X146436910Y-96247441D01*
X146649110Y-96392431D01*
X146804089Y-96423815D01*
X146658189Y-96521302D01*
X146347120Y-96986849D01*
X146237887Y-97536000D01*
X146323383Y-97965815D01*
X145901883Y-98387315D01*
X145818387Y-98185736D01*
X145551532Y-98087073D01*
X144578605Y-99060000D01*
X144592748Y-99074143D01*
X144413143Y-99253748D01*
X144399000Y-99239605D01*
X144384858Y-99253748D01*
X144205253Y-99074143D01*
X144219395Y-99060000D01*
X143246468Y-98087073D01*
X142979613Y-98185736D01*
X142753092Y-98795461D01*
X142775853Y-99410565D01*
X142530839Y-99246852D01*
X142240000Y-99189000D01*
X137305726Y-99189000D01*
X137156803Y-98966122D01*
X136727096Y-98679000D01*
X137156803Y-98391878D01*
X137458118Y-97940930D01*
X137563925Y-97409000D01*
X137459456Y-96883795D01*
X142763716Y-96883795D01*
X143012106Y-97484943D01*
X143428187Y-97901752D01*
X143426073Y-97907468D01*
X144399000Y-98880395D01*
X145371927Y-97907468D01*
X145369639Y-97901278D01*
X145784278Y-97487363D01*
X146033716Y-96886648D01*
X146034284Y-96236205D01*
X145785894Y-95635057D01*
X145326363Y-95174722D01*
X144725648Y-94925284D01*
X144075205Y-94924716D01*
X143474057Y-95173106D01*
X143013722Y-95632637D01*
X142764284Y-96233352D01*
X142763716Y-96883795D01*
X137459456Y-96883795D01*
X137458118Y-96877070D01*
X137156803Y-96426122D01*
X136705855Y-96124807D01*
X136173925Y-96019000D01*
X134590075Y-96019000D01*
X134060000Y-96124438D01*
X134060000Y-94759895D01*
X134149223Y-94791965D01*
X134719454Y-94764778D01*
X135120005Y-94598864D01*
X135194139Y-94352745D01*
X134366000Y-93524605D01*
X134351858Y-93538748D01*
X134172253Y-93359143D01*
X134186395Y-93345000D01*
X134545605Y-93345000D01*
X135373745Y-94173139D01*
X135619864Y-94099005D01*
X135812965Y-93561777D01*
X135785778Y-92991546D01*
X135619864Y-92590995D01*
X135373745Y-92516861D01*
X134545605Y-93345000D01*
X134186395Y-93345000D01*
X134172253Y-93330858D01*
X134351858Y-93151253D01*
X134366000Y-93165395D01*
X135194139Y-92337255D01*
X135120005Y-92091136D01*
X134582777Y-91898035D01*
X134060000Y-91922960D01*
X134060000Y-91310435D01*
X134177637Y-91428278D01*
X134778352Y-91677716D01*
X135428795Y-91678284D01*
X136029943Y-91429894D01*
X136490278Y-90970363D01*
X136739716Y-90369648D01*
X136739718Y-90366795D01*
X139969716Y-90366795D01*
X140218106Y-90967943D01*
X140677637Y-91428278D01*
X141278352Y-91677716D01*
X141928795Y-91678284D01*
X142529943Y-91429894D01*
X142990278Y-90970363D01*
X143059773Y-90803000D01*
X143613560Y-90803000D01*
X143613560Y-90943000D01*
X143657838Y-91178317D01*
X143796910Y-91394441D01*
X144009110Y-91539431D01*
X144261000Y-91590440D01*
X145459758Y-91590440D01*
X144465198Y-92585000D01*
X143198995Y-92585000D01*
X143028811Y-92330302D01*
X142563264Y-92019233D01*
X142014113Y-91910000D01*
X141957887Y-91910000D01*
X141408736Y-92019233D01*
X140943189Y-92330302D01*
X140632120Y-92795849D01*
X140522887Y-93345000D01*
X140632120Y-93894151D01*
X140943189Y-94359698D01*
X141408736Y-94670767D01*
X141957887Y-94780000D01*
X142014113Y-94780000D01*
X142563264Y-94670767D01*
X143028811Y-94359698D01*
X143198995Y-94105000D01*
X144780000Y-94105000D01*
X145070839Y-94047148D01*
X145317401Y-93882401D01*
X147621871Y-91577931D01*
X148004991Y-91578265D01*
X148569371Y-91345068D01*
X149001551Y-90913643D01*
X149235733Y-90349670D01*
X149236160Y-89858962D01*
X152021000Y-92643802D01*
X152021000Y-101092000D01*
X152078852Y-101382839D01*
X152243599Y-101629401D01*
X153767599Y-103153401D01*
X154014160Y-103318148D01*
X154062414Y-103327746D01*
X154077809Y-103330808D01*
X154278189Y-103630698D01*
X154743736Y-103941767D01*
X155292887Y-104051000D01*
X155349113Y-104051000D01*
X155898264Y-103941767D01*
X156363811Y-103630698D01*
X156674880Y-103165151D01*
X156784113Y-102616000D01*
X156674880Y-102066849D01*
X156363811Y-101601302D01*
X155981725Y-101346000D01*
X156363811Y-101090698D01*
X156674880Y-100625151D01*
X156784113Y-100076000D01*
X156674880Y-99526849D01*
X156363811Y-99061302D01*
X155981725Y-98806000D01*
X156235578Y-98636380D01*
X157101000Y-99501802D01*
X157101000Y-106148560D01*
X156961000Y-106148560D01*
X156725683Y-106192838D01*
X156509559Y-106331910D01*
X156364569Y-106544110D01*
X156360433Y-106564534D01*
X156191643Y-106395449D01*
X155627670Y-106161267D01*
X155017009Y-106160735D01*
X154452629Y-106393932D01*
X154020449Y-106825357D01*
X153786267Y-107389330D01*
X153785735Y-107999991D01*
X154018932Y-108564371D01*
X154450357Y-108996551D01*
X155014330Y-109230733D01*
X155624991Y-109231265D01*
X156189371Y-108998068D01*
X156357613Y-108830120D01*
X156357838Y-108831317D01*
X156496910Y-109047441D01*
X156709110Y-109192431D01*
X156961000Y-109243440D01*
X158761000Y-109243440D01*
X158996317Y-109199162D01*
X159212441Y-109060090D01*
X159357431Y-108847890D01*
X159408440Y-108596000D01*
X159408440Y-108456000D01*
X159961953Y-108456000D01*
X160030106Y-108620943D01*
X160489637Y-109081278D01*
X161090352Y-109330716D01*
X161740795Y-109331284D01*
X162341943Y-109082894D01*
X162802278Y-108623363D01*
X163051716Y-108022648D01*
X163052284Y-107372205D01*
X162803894Y-106771057D01*
X162344363Y-106310722D01*
X161743648Y-106061284D01*
X161093205Y-106060716D01*
X160492057Y-106309106D01*
X160031722Y-106768637D01*
X159962227Y-106936000D01*
X159408440Y-106936000D01*
X159408440Y-106796000D01*
X159364162Y-106560683D01*
X159225090Y-106344559D01*
X159012890Y-106199569D01*
X158761000Y-106148560D01*
X158621000Y-106148560D01*
X158621000Y-99187000D01*
X158563148Y-98896161D01*
X158523075Y-98836187D01*
X158604752Y-98836187D01*
X158822757Y-99363800D01*
X159226077Y-99767824D01*
X159753309Y-99986750D01*
X160324187Y-99987248D01*
X160851800Y-99769243D01*
X161255824Y-99365923D01*
X161474750Y-98838691D01*
X161475248Y-98267813D01*
X161257243Y-97740200D01*
X160853923Y-97336176D01*
X160326691Y-97117250D01*
X159755813Y-97116752D01*
X159228200Y-97334757D01*
X158824176Y-97738077D01*
X158605250Y-98265309D01*
X158604752Y-98836187D01*
X158523075Y-98836187D01*
X158398401Y-98649599D01*
X156747401Y-96998599D01*
X156630571Y-96920536D01*
X156363811Y-96521302D01*
X155959297Y-96251014D01*
X156176134Y-96148389D01*
X156552041Y-95733423D01*
X156712904Y-95345039D01*
X156590915Y-95123000D01*
X155448000Y-95123000D01*
X155448000Y-95143000D01*
X155194000Y-95143000D01*
X155194000Y-95123000D01*
X155174000Y-95123000D01*
X155174000Y-94869000D01*
X155194000Y-94869000D01*
X155194000Y-93725371D01*
X155448000Y-93725371D01*
X155448000Y-94869000D01*
X156590915Y-94869000D01*
X156712904Y-94646961D01*
X156552041Y-94258577D01*
X156176134Y-93843611D01*
X155670041Y-93604086D01*
X155448000Y-93725371D01*
X155194000Y-93725371D01*
X155150301Y-93701501D01*
X157388362Y-91463440D01*
X158761000Y-91463440D01*
X158996317Y-91419162D01*
X159212441Y-91280090D01*
X159357431Y-91067890D01*
X159408440Y-90816000D01*
X159408440Y-90676000D01*
X159938953Y-90676000D01*
X160007106Y-90840943D01*
X160466637Y-91301278D01*
X161067352Y-91550716D01*
X161717795Y-91551284D01*
X162318943Y-91302894D01*
X162779278Y-90843363D01*
X163028716Y-90242648D01*
X163029284Y-89592205D01*
X162780894Y-88991057D01*
X162321363Y-88530722D01*
X161720648Y-88281284D01*
X161070205Y-88280716D01*
X160469057Y-88529106D01*
X160008722Y-88988637D01*
X159939227Y-89156000D01*
X159408440Y-89156000D01*
X159408440Y-89016000D01*
X159364162Y-88780683D01*
X159225090Y-88564559D01*
X159012890Y-88419569D01*
X158761000Y-88368560D01*
X156961000Y-88368560D01*
X156725683Y-88412838D01*
X156509559Y-88551910D01*
X156364569Y-88764110D01*
X156360433Y-88784534D01*
X156191643Y-88615449D01*
X155627670Y-88381267D01*
X155017009Y-88380735D01*
X154452629Y-88613932D01*
X154020449Y-89045357D01*
X153786267Y-89609330D01*
X153785735Y-90219991D01*
X154018932Y-90784371D01*
X154450357Y-91216551D01*
X155014330Y-91450733D01*
X155251259Y-91450939D01*
X153541000Y-93161198D01*
X153541000Y-92329000D01*
X153483148Y-92038161D01*
X153318401Y-91791599D01*
X149254401Y-87727599D01*
X149007839Y-87562852D01*
X148717000Y-87505000D01*
X143383000Y-87505000D01*
X143092161Y-87562852D01*
X142845599Y-87727599D01*
X142096473Y-88476725D01*
X141931648Y-88408284D01*
X141281205Y-88407716D01*
X140680057Y-88656106D01*
X140219722Y-89115637D01*
X139970284Y-89716352D01*
X139969716Y-90366795D01*
X136739718Y-90366795D01*
X136740284Y-89719205D01*
X136491894Y-89118057D01*
X136032363Y-88657722D01*
X135431648Y-88408284D01*
X134781205Y-88407716D01*
X134180057Y-88656106D01*
X134060000Y-88775953D01*
X134060000Y-86810435D01*
X134177637Y-86928278D01*
X134778352Y-87177716D01*
X135428795Y-87178284D01*
X136029943Y-86929894D01*
X136490278Y-86470363D01*
X136739716Y-85869648D01*
X136740284Y-85219205D01*
X136491894Y-84618057D01*
X136277213Y-84403000D01*
X140432731Y-84403000D01*
X140219722Y-84615637D01*
X140219722Y-84615637D01*
G37*
X140219722Y-84615637D02*
X139970284Y-85216352D01*
X139969716Y-85866795D01*
X140218106Y-86467943D01*
X140677637Y-86928278D01*
X141278352Y-87177716D01*
X141928795Y-87178284D01*
X142529943Y-86929894D01*
X142990278Y-86470363D01*
X143239716Y-85869648D01*
X143240284Y-85219205D01*
X142991894Y-84618057D01*
X142777213Y-84403000D01*
X149783369Y-84403000D01*
X149776120Y-84413849D01*
X149666887Y-84963000D01*
X149776120Y-85512151D01*
X150087189Y-85977698D01*
X150552736Y-86288767D01*
X150665682Y-86311233D01*
X150839161Y-86427148D01*
X151130000Y-86485000D01*
X151420839Y-86427148D01*
X151594318Y-86311233D01*
X151707264Y-86288767D01*
X152172811Y-85977698D01*
X152177456Y-85970745D01*
X157921861Y-85970745D01*
X157995995Y-86216864D01*
X158533223Y-86409965D01*
X159103454Y-86382778D01*
X159504005Y-86216864D01*
X159578139Y-85970745D01*
X158750000Y-85142605D01*
X157921861Y-85970745D01*
X152177456Y-85970745D01*
X152483880Y-85512151D01*
X152593113Y-84963000D01*
X152483880Y-84413849D01*
X152476631Y-84403000D01*
X157426403Y-84403000D01*
X157303035Y-84746223D01*
X157330222Y-85316454D01*
X157496136Y-85717005D01*
X157742255Y-85791139D01*
X158570395Y-84963000D01*
X158556252Y-84948858D01*
X158735858Y-84769253D01*
X158750000Y-84783395D01*
X158764143Y-84769253D01*
X158943748Y-84948858D01*
X158929605Y-84963000D01*
X159757745Y-85791139D01*
X159777475Y-85785196D01*
X160007106Y-86340943D01*
X160466637Y-86801278D01*
X161067352Y-87050716D01*
X161717795Y-87051284D01*
X162318943Y-86802894D01*
X162779278Y-86343363D01*
X163028716Y-85742648D01*
X163029284Y-85092205D01*
X162780894Y-84491057D01*
X162692991Y-84403000D01*
X166594509Y-84403000D01*
X166508722Y-84488637D01*
X166259284Y-85089352D01*
X166258716Y-85739795D01*
X166507106Y-86340943D01*
X166966637Y-86801278D01*
X167567352Y-87050716D01*
X168217795Y-87051284D01*
X168818943Y-86802894D01*
X168962000Y-86660087D01*
X168962000Y-88671605D01*
X168821363Y-88530722D01*
X168220648Y-88281284D01*
X167570205Y-88280716D01*
X166969057Y-88529106D01*
X166508722Y-88988637D01*
X166259284Y-89589352D01*
X166258716Y-90239795D01*
X166507106Y-90840943D01*
X166966637Y-91301278D01*
X167567352Y-91550716D01*
X168217795Y-91551284D01*
X168818943Y-91302894D01*
X168962000Y-91160087D01*
X168962000Y-97390554D01*
X168904090Y-97300559D01*
X168691890Y-97155569D01*
X168440000Y-97104560D01*
X166840000Y-97104560D01*
X166604683Y-97148838D01*
X166388559Y-97287910D01*
X166243569Y-97500110D01*
X166192560Y-97752000D01*
X166192560Y-99352000D01*
X166236838Y-99587317D01*
X166375910Y-99803441D01*
X166588110Y-99948431D01*
X166840000Y-99999440D01*
X168440000Y-99999440D01*
X168675317Y-99955162D01*
X168891441Y-99816090D01*
X168962000Y-99712823D01*
X168962000Y-106428565D01*
X168844363Y-106310722D01*
X168243648Y-106061284D01*
X167593205Y-106060716D01*
X166992057Y-106309106D01*
X166531722Y-106768637D01*
X166282284Y-107369352D01*
X166281716Y-108019795D01*
X166530106Y-108620943D01*
X166989637Y-109081278D01*
X167590352Y-109330716D01*
X168240795Y-109331284D01*
X168841943Y-109082894D01*
X168962000Y-108963047D01*
X168962000Y-110928565D01*
X168844363Y-110810722D01*
X168243648Y-110561284D01*
X167593205Y-110560716D01*
X166992057Y-110809106D01*
X166531722Y-111268637D01*
X166282284Y-111869352D01*
X166281716Y-112519795D01*
X166530106Y-113120943D01*
X166618009Y-113209000D01*
X162716491Y-113209000D01*
X162802278Y-113123363D01*
X163051716Y-112522648D01*
X163052284Y-111872205D01*
X162803894Y-111271057D01*
X162344363Y-110810722D01*
X161743648Y-110561284D01*
X161093205Y-110560716D01*
X160492057Y-110809106D01*
X160031722Y-111268637D01*
X159797453Y-111832821D01*
X159757745Y-111820861D01*
X158929605Y-112649000D01*
X158943748Y-112663142D01*
X158764143Y-112842748D01*
X158750000Y-112828605D01*
X158735858Y-112842748D01*
X158556252Y-112663142D01*
X158570395Y-112649000D01*
X157742255Y-111820861D01*
X157496136Y-111894995D01*
X157303035Y-112432223D01*
X157330222Y-113002454D01*
X157415776Y-113209000D01*
X152476631Y-113209000D01*
X152483880Y-113198151D01*
X152593113Y-112649000D01*
X152483880Y-112099849D01*
X152177457Y-111641255D01*
X157921861Y-111641255D01*
X158750000Y-112469395D01*
X159578139Y-111641255D01*
X159504005Y-111395136D01*
X158966777Y-111202035D01*
X158396546Y-111229222D01*
X157995995Y-111395136D01*
X157921861Y-111641255D01*
X152177457Y-111641255D01*
X152172811Y-111634302D01*
X151707264Y-111323233D01*
X151158113Y-111214000D01*
X151101887Y-111214000D01*
X150552736Y-111323233D01*
X150087189Y-111634302D01*
X149776120Y-112099849D01*
X149666887Y-112649000D01*
X149776120Y-113198151D01*
X149783369Y-113209000D01*
X142927491Y-113209000D01*
X143013278Y-113123363D01*
X143262716Y-112522648D01*
X143263284Y-111872205D01*
X143014894Y-111271057D01*
X142555363Y-110810722D01*
X141954648Y-110561284D01*
X141304205Y-110560716D01*
X140703057Y-110809106D01*
X140242722Y-111268637D01*
X139993284Y-111869352D01*
X139992716Y-112519795D01*
X140241106Y-113120943D01*
X140329009Y-113209000D01*
X136427491Y-113209000D01*
X136513278Y-113123363D01*
X136762716Y-112522648D01*
X136763284Y-111872205D01*
X136514894Y-111271057D01*
X136055363Y-110810722D01*
X135454648Y-110561284D01*
X134804205Y-110560716D01*
X134203057Y-110809106D01*
X134060000Y-110951913D01*
X134060000Y-109700159D01*
X134202161Y-109795148D01*
X134493000Y-109853000D01*
X146304000Y-109853000D01*
X146594839Y-109795148D01*
X146841401Y-109630401D01*
X147286036Y-109185766D01*
X147394330Y-109230733D01*
X148004991Y-109231265D01*
X148569371Y-108998068D01*
X149001551Y-108566643D01*
X149235733Y-108002670D01*
X149236265Y-107392009D01*
X149003068Y-106827629D01*
X148571643Y-106395449D01*
X148007670Y-106161267D01*
X147397009Y-106160735D01*
X146832629Y-106393932D01*
X146683000Y-106543300D01*
X146683000Y-103647276D01*
X147123736Y-103941767D01*
X147672887Y-104051000D01*
X147729113Y-104051000D01*
X148278264Y-103941767D01*
X148743811Y-103630698D01*
X149054880Y-103165151D01*
X149164113Y-102616000D01*
X149054880Y-102066849D01*
X148743811Y-101601302D01*
X148361725Y-101346000D01*
X148743811Y-101090698D01*
X149054880Y-100625151D01*
X149164113Y-100076000D01*
X149054880Y-99526849D01*
X148743811Y-99061302D01*
X148361725Y-98806000D01*
X148743811Y-98550698D01*
X149054880Y-98085151D01*
X149164113Y-97536000D01*
X149054880Y-96986849D01*
X148743811Y-96521302D01*
X148599535Y-96424899D01*
X148736317Y-96399162D01*
X148952441Y-96260090D01*
X149097431Y-96047890D01*
X149148440Y-95796000D01*
X149148440Y-94196000D01*
X149104162Y-93960683D01*
X148965090Y-93744559D01*
X148752890Y-93599569D01*
X148501000Y-93548560D01*
X146901000Y-93548560D01*
X146665683Y-93592838D01*
X146449559Y-93731910D01*
X146304569Y-93944110D01*
X146253560Y-94196000D01*
X146253560Y-95796000D01*
X146297838Y-96031317D01*
X146436910Y-96247441D01*
X146649110Y-96392431D01*
X146804089Y-96423815D01*
X146658189Y-96521302D01*
X146347120Y-96986849D01*
X146237887Y-97536000D01*
X146323383Y-97965815D01*
X145901883Y-98387315D01*
X145818387Y-98185736D01*
X145551532Y-98087073D01*
X144578605Y-99060000D01*
X144592748Y-99074143D01*
X144413143Y-99253748D01*
X144399000Y-99239605D01*
X144384858Y-99253748D01*
X144205253Y-99074143D01*
X144219395Y-99060000D01*
X143246468Y-98087073D01*
X142979613Y-98185736D01*
X142753092Y-98795461D01*
X142775853Y-99410565D01*
X142530839Y-99246852D01*
X142240000Y-99189000D01*
X137305726Y-99189000D01*
X137156803Y-98966122D01*
X136727096Y-98679000D01*
X137156803Y-98391878D01*
X137458118Y-97940930D01*
X137563925Y-97409000D01*
X137459456Y-96883795D01*
X142763716Y-96883795D01*
X143012106Y-97484943D01*
X143428187Y-97901752D01*
X143426073Y-97907468D01*
X144399000Y-98880395D01*
X145371927Y-97907468D01*
X145369639Y-97901278D01*
X145784278Y-97487363D01*
X146033716Y-96886648D01*
X146034284Y-96236205D01*
X145785894Y-95635057D01*
X145326363Y-95174722D01*
X144725648Y-94925284D01*
X144075205Y-94924716D01*
X143474057Y-95173106D01*
X143013722Y-95632637D01*
X142764284Y-96233352D01*
X142763716Y-96883795D01*
X137459456Y-96883795D01*
X137458118Y-96877070D01*
X137156803Y-96426122D01*
X136705855Y-96124807D01*
X136173925Y-96019000D01*
X134590075Y-96019000D01*
X134060000Y-96124438D01*
X134060000Y-94759895D01*
X134149223Y-94791965D01*
X134719454Y-94764778D01*
X135120005Y-94598864D01*
X135194139Y-94352745D01*
X134366000Y-93524605D01*
X134351858Y-93538748D01*
X134172253Y-93359143D01*
X134186395Y-93345000D01*
X134545605Y-93345000D01*
X135373745Y-94173139D01*
X135619864Y-94099005D01*
X135812965Y-93561777D01*
X135785778Y-92991546D01*
X135619864Y-92590995D01*
X135373745Y-92516861D01*
X134545605Y-93345000D01*
X134186395Y-93345000D01*
X134172253Y-93330858D01*
X134351858Y-93151253D01*
X134366000Y-93165395D01*
X135194139Y-92337255D01*
X135120005Y-92091136D01*
X134582777Y-91898035D01*
X134060000Y-91922960D01*
X134060000Y-91310435D01*
X134177637Y-91428278D01*
X134778352Y-91677716D01*
X135428795Y-91678284D01*
X136029943Y-91429894D01*
X136490278Y-90970363D01*
X136739716Y-90369648D01*
X136739718Y-90366795D01*
X139969716Y-90366795D01*
X140218106Y-90967943D01*
X140677637Y-91428278D01*
X141278352Y-91677716D01*
X141928795Y-91678284D01*
X142529943Y-91429894D01*
X142990278Y-90970363D01*
X143059773Y-90803000D01*
X143613560Y-90803000D01*
X143613560Y-90943000D01*
X143657838Y-91178317D01*
X143796910Y-91394441D01*
X144009110Y-91539431D01*
X144261000Y-91590440D01*
X145459758Y-91590440D01*
X144465198Y-92585000D01*
X143198995Y-92585000D01*
X143028811Y-92330302D01*
X142563264Y-92019233D01*
X142014113Y-91910000D01*
X141957887Y-91910000D01*
X141408736Y-92019233D01*
X140943189Y-92330302D01*
X140632120Y-92795849D01*
X140522887Y-93345000D01*
X140632120Y-93894151D01*
X140943189Y-94359698D01*
X141408736Y-94670767D01*
X141957887Y-94780000D01*
X142014113Y-94780000D01*
X142563264Y-94670767D01*
X143028811Y-94359698D01*
X143198995Y-94105000D01*
X144780000Y-94105000D01*
X145070839Y-94047148D01*
X145317401Y-93882401D01*
X147621871Y-91577931D01*
X148004991Y-91578265D01*
X148569371Y-91345068D01*
X149001551Y-90913643D01*
X149235733Y-90349670D01*
X149236160Y-89858962D01*
X152021000Y-92643802D01*
X152021000Y-101092000D01*
X152078852Y-101382839D01*
X152243599Y-101629401D01*
X153767599Y-103153401D01*
X154014160Y-103318148D01*
X154062414Y-103327746D01*
X154077809Y-103330808D01*
X154278189Y-103630698D01*
X154743736Y-103941767D01*
X155292887Y-104051000D01*
X155349113Y-104051000D01*
X155898264Y-103941767D01*
X156363811Y-103630698D01*
X156674880Y-103165151D01*
X156784113Y-102616000D01*
X156674880Y-102066849D01*
X156363811Y-101601302D01*
X155981725Y-101346000D01*
X156363811Y-101090698D01*
X156674880Y-100625151D01*
X156784113Y-100076000D01*
X156674880Y-99526849D01*
X156363811Y-99061302D01*
X155981725Y-98806000D01*
X156235578Y-98636380D01*
X157101000Y-99501802D01*
X157101000Y-106148560D01*
X156961000Y-106148560D01*
X156725683Y-106192838D01*
X156509559Y-106331910D01*
X156364569Y-106544110D01*
X156360433Y-106564534D01*
X156191643Y-106395449D01*
X155627670Y-106161267D01*
X155017009Y-106160735D01*
X154452629Y-106393932D01*
X154020449Y-106825357D01*
X153786267Y-107389330D01*
X153785735Y-107999991D01*
X154018932Y-108564371D01*
X154450357Y-108996551D01*
X155014330Y-109230733D01*
X155624991Y-109231265D01*
X156189371Y-108998068D01*
X156357613Y-108830120D01*
X156357838Y-108831317D01*
X156496910Y-109047441D01*
X156709110Y-109192431D01*
X156961000Y-109243440D01*
X158761000Y-109243440D01*
X158996317Y-109199162D01*
X159212441Y-109060090D01*
X159357431Y-108847890D01*
X159408440Y-108596000D01*
X159408440Y-108456000D01*
X159961953Y-108456000D01*
X160030106Y-108620943D01*
X160489637Y-109081278D01*
X161090352Y-109330716D01*
X161740795Y-109331284D01*
X162341943Y-109082894D01*
X162802278Y-108623363D01*
X163051716Y-108022648D01*
X163052284Y-107372205D01*
X162803894Y-106771057D01*
X162344363Y-106310722D01*
X161743648Y-106061284D01*
X161093205Y-106060716D01*
X160492057Y-106309106D01*
X160031722Y-106768637D01*
X159962227Y-106936000D01*
X159408440Y-106936000D01*
X159408440Y-106796000D01*
X159364162Y-106560683D01*
X159225090Y-106344559D01*
X159012890Y-106199569D01*
X158761000Y-106148560D01*
X158621000Y-106148560D01*
X158621000Y-99187000D01*
X158563148Y-98896161D01*
X158523075Y-98836187D01*
X158604752Y-98836187D01*
X158822757Y-99363800D01*
X159226077Y-99767824D01*
X159753309Y-99986750D01*
X160324187Y-99987248D01*
X160851800Y-99769243D01*
X161255824Y-99365923D01*
X161474750Y-98838691D01*
X161475248Y-98267813D01*
X161257243Y-97740200D01*
X160853923Y-97336176D01*
X160326691Y-97117250D01*
X159755813Y-97116752D01*
X159228200Y-97334757D01*
X158824176Y-97738077D01*
X158605250Y-98265309D01*
X158604752Y-98836187D01*
X158523075Y-98836187D01*
X158398401Y-98649599D01*
X156747401Y-96998599D01*
X156630571Y-96920536D01*
X156363811Y-96521302D01*
X155959297Y-96251014D01*
X156176134Y-96148389D01*
X156552041Y-95733423D01*
X156712904Y-95345039D01*
X156590915Y-95123000D01*
X155448000Y-95123000D01*
X155448000Y-95143000D01*
X155194000Y-95143000D01*
X155194000Y-95123000D01*
X155174000Y-95123000D01*
X155174000Y-94869000D01*
X155194000Y-94869000D01*
X155194000Y-93725371D01*
X155448000Y-93725371D01*
X155448000Y-94869000D01*
X156590915Y-94869000D01*
X156712904Y-94646961D01*
X156552041Y-94258577D01*
X156176134Y-93843611D01*
X155670041Y-93604086D01*
X155448000Y-93725371D01*
X155194000Y-93725371D01*
X155150301Y-93701501D01*
X157388362Y-91463440D01*
X158761000Y-91463440D01*
X158996317Y-91419162D01*
X159212441Y-91280090D01*
X159357431Y-91067890D01*
X159408440Y-90816000D01*
X159408440Y-90676000D01*
X159938953Y-90676000D01*
X160007106Y-90840943D01*
X160466637Y-91301278D01*
X161067352Y-91550716D01*
X161717795Y-91551284D01*
X162318943Y-91302894D01*
X162779278Y-90843363D01*
X163028716Y-90242648D01*
X163029284Y-89592205D01*
X162780894Y-88991057D01*
X162321363Y-88530722D01*
X161720648Y-88281284D01*
X161070205Y-88280716D01*
X160469057Y-88529106D01*
X160008722Y-88988637D01*
X159939227Y-89156000D01*
X159408440Y-89156000D01*
X159408440Y-89016000D01*
X159364162Y-88780683D01*
X159225090Y-88564559D01*
X159012890Y-88419569D01*
X158761000Y-88368560D01*
X156961000Y-88368560D01*
X156725683Y-88412838D01*
X156509559Y-88551910D01*
X156364569Y-88764110D01*
X156360433Y-88784534D01*
X156191643Y-88615449D01*
X155627670Y-88381267D01*
X155017009Y-88380735D01*
X154452629Y-88613932D01*
X154020449Y-89045357D01*
X153786267Y-89609330D01*
X153785735Y-90219991D01*
X154018932Y-90784371D01*
X154450357Y-91216551D01*
X155014330Y-91450733D01*
X155251259Y-91450939D01*
X153541000Y-93161198D01*
X153541000Y-92329000D01*
X153483148Y-92038161D01*
X153318401Y-91791599D01*
X149254401Y-87727599D01*
X149007839Y-87562852D01*
X148717000Y-87505000D01*
X143383000Y-87505000D01*
X143092161Y-87562852D01*
X142845599Y-87727599D01*
X142096473Y-88476725D01*
X141931648Y-88408284D01*
X141281205Y-88407716D01*
X140680057Y-88656106D01*
X140219722Y-89115637D01*
X139970284Y-89716352D01*
X139969716Y-90366795D01*
X136739718Y-90366795D01*
X136740284Y-89719205D01*
X136491894Y-89118057D01*
X136032363Y-88657722D01*
X135431648Y-88408284D01*
X134781205Y-88407716D01*
X134180057Y-88656106D01*
X134060000Y-88775953D01*
X134060000Y-86810435D01*
X134177637Y-86928278D01*
X134778352Y-87177716D01*
X135428795Y-87178284D01*
X136029943Y-86929894D01*
X136490278Y-86470363D01*
X136739716Y-85869648D01*
X136740284Y-85219205D01*
X136491894Y-84618057D01*
X136277213Y-84403000D01*
X140432731Y-84403000D01*
X140219722Y-84615637D01*
G36*
X142751560Y-101535362D02*
X142751560Y-102600000D01*
X142795838Y-102835317D01*
X142934910Y-103051441D01*
X143147110Y-103196431D01*
X143399000Y-103247440D01*
X145163000Y-103247440D01*
X145163000Y-106148560D01*
X144261000Y-106148560D01*
X144025683Y-106192838D01*
X143809559Y-106331910D01*
X143664569Y-106544110D01*
X143613560Y-106796000D01*
X143613560Y-108333000D01*
X143133847Y-108333000D01*
X143262716Y-108022648D01*
X143263284Y-107372205D01*
X143014894Y-106771057D01*
X142555363Y-106310722D01*
X141954648Y-106061284D01*
X141304205Y-106060716D01*
X140703057Y-106309106D01*
X140242722Y-106768637D01*
X139993284Y-107369352D01*
X139992716Y-108019795D01*
X140122130Y-108333000D01*
X136633847Y-108333000D01*
X136762716Y-108022648D01*
X136763284Y-107372205D01*
X136514894Y-106771057D01*
X136055363Y-106310722D01*
X135702571Y-106164231D01*
X136585802Y-105281000D01*
X140773005Y-105281000D01*
X140943189Y-105535698D01*
X141408736Y-105846767D01*
X141957887Y-105956000D01*
X142014113Y-105956000D01*
X142563264Y-105846767D01*
X143028811Y-105535698D01*
X143339880Y-105070151D01*
X143449113Y-104521000D01*
X143339880Y-103971849D01*
X143028811Y-103506302D01*
X142563264Y-103195233D01*
X142014113Y-103086000D01*
X141957887Y-103086000D01*
X141408736Y-103195233D01*
X140943189Y-103506302D01*
X140773005Y-103761000D01*
X136271000Y-103761000D01*
X136028414Y-103809254D01*
X135980160Y-103818852D01*
X135733599Y-103983599D01*
X135716618Y-104000580D01*
X135619864Y-103766995D01*
X135373745Y-103692861D01*
X134545605Y-104521000D01*
X134559748Y-104535142D01*
X134380142Y-104714748D01*
X134366000Y-104700605D01*
X134351858Y-104714748D01*
X134172253Y-104535143D01*
X134186395Y-104521000D01*
X134172253Y-104506858D01*
X134351858Y-104327253D01*
X134366000Y-104341395D01*
X135194139Y-103513255D01*
X135120005Y-103267136D01*
X134582777Y-103074035D01*
X134060000Y-103098960D01*
X134060000Y-101233562D01*
X134590075Y-101339000D01*
X136173925Y-101339000D01*
X136705855Y-101233193D01*
X137156803Y-100931878D01*
X137305726Y-100709000D01*
X141925198Y-100709000D01*
X142751560Y-101535362D01*
X142751560Y-101535362D01*
G37*
X142751560Y-101535362D02*
X142751560Y-102600000D01*
X142795838Y-102835317D01*
X142934910Y-103051441D01*
X143147110Y-103196431D01*
X143399000Y-103247440D01*
X145163000Y-103247440D01*
X145163000Y-106148560D01*
X144261000Y-106148560D01*
X144025683Y-106192838D01*
X143809559Y-106331910D01*
X143664569Y-106544110D01*
X143613560Y-106796000D01*
X143613560Y-108333000D01*
X143133847Y-108333000D01*
X143262716Y-108022648D01*
X143263284Y-107372205D01*
X143014894Y-106771057D01*
X142555363Y-106310722D01*
X141954648Y-106061284D01*
X141304205Y-106060716D01*
X140703057Y-106309106D01*
X140242722Y-106768637D01*
X139993284Y-107369352D01*
X139992716Y-108019795D01*
X140122130Y-108333000D01*
X136633847Y-108333000D01*
X136762716Y-108022648D01*
X136763284Y-107372205D01*
X136514894Y-106771057D01*
X136055363Y-106310722D01*
X135702571Y-106164231D01*
X136585802Y-105281000D01*
X140773005Y-105281000D01*
X140943189Y-105535698D01*
X141408736Y-105846767D01*
X141957887Y-105956000D01*
X142014113Y-105956000D01*
X142563264Y-105846767D01*
X143028811Y-105535698D01*
X143339880Y-105070151D01*
X143449113Y-104521000D01*
X143339880Y-103971849D01*
X143028811Y-103506302D01*
X142563264Y-103195233D01*
X142014113Y-103086000D01*
X141957887Y-103086000D01*
X141408736Y-103195233D01*
X140943189Y-103506302D01*
X140773005Y-103761000D01*
X136271000Y-103761000D01*
X136028414Y-103809254D01*
X135980160Y-103818852D01*
X135733599Y-103983599D01*
X135716618Y-104000580D01*
X135619864Y-103766995D01*
X135373745Y-103692861D01*
X134545605Y-104521000D01*
X134559748Y-104535142D01*
X134380142Y-104714748D01*
X134366000Y-104700605D01*
X134351858Y-104714748D01*
X134172253Y-104535143D01*
X134186395Y-104521000D01*
X134172253Y-104506858D01*
X134351858Y-104327253D01*
X134366000Y-104341395D01*
X135194139Y-103513255D01*
X135120005Y-103267136D01*
X134582777Y-103074035D01*
X134060000Y-103098960D01*
X134060000Y-101233562D01*
X134590075Y-101339000D01*
X136173925Y-101339000D01*
X136705855Y-101233193D01*
X137156803Y-100931878D01*
X137305726Y-100709000D01*
X141925198Y-100709000D01*
X142751560Y-101535362D01*
M02*
