G04 #@! TF.FileFunction,Copper,L1,Top,Signal*
%FSLAX46Y46*%
G04 Gerber Fmt 4.6, Leading zero omitted, Abs format (unit mm)*
G04 Created by KiCad (PCBNEW 4.0.7) date 02/01/18 03:58:40*
%MOMM*%
%LPD*%
G01*
G04 APERTURE LIST*
%ADD10C,0.100000*%
%ADD11R,1.600000X1.600000*%
%ADD12O,1.600000X1.600000*%
%ADD13O,3.010000X1.510000*%
%ADD14R,1.800000X1.800000*%
%ADD15C,1.800000*%
%ADD16C,1.600000*%
%ADD17C,2.000000*%
%ADD18R,2.000000X2.000000*%
%ADD19C,0.250000*%
%ADD20C,0.254000*%
G04 APERTURE END LIST*
D10*
D11*
X147701000Y-94996000D03*
D12*
X155321000Y-102616000D03*
X147701000Y-97536000D03*
X155321000Y-100076000D03*
X147701000Y-100076000D03*
X155321000Y-97536000D03*
X147701000Y-102616000D03*
X155321000Y-94996000D03*
D13*
X135382000Y-99949000D03*
X135382000Y-97409000D03*
D14*
X145161000Y-90043000D03*
D15*
X147701000Y-90043000D03*
D14*
X157861000Y-89916000D03*
D15*
X155321000Y-89916000D03*
D14*
X157861000Y-107696000D03*
D15*
X155321000Y-107696000D03*
D14*
X145161000Y-107696000D03*
D15*
X147701000Y-107696000D03*
D11*
X167640000Y-98552000D03*
D16*
X160040000Y-98552000D03*
X134366000Y-93345000D03*
D12*
X141986000Y-93345000D03*
D16*
X158750000Y-84963000D03*
D12*
X151130000Y-84963000D03*
D16*
X158750000Y-112649000D03*
D12*
X151130000Y-112649000D03*
D16*
X134366000Y-104521000D03*
D12*
X141986000Y-104521000D03*
D17*
X167894000Y-85416000D03*
X167894000Y-89916000D03*
X161394000Y-85416000D03*
X161394000Y-89916000D03*
X161417000Y-112196000D03*
X161417000Y-107696000D03*
X167917000Y-112196000D03*
X167917000Y-107696000D03*
X135128000Y-112196000D03*
X135128000Y-107696000D03*
X141628000Y-112196000D03*
X141628000Y-107696000D03*
X141605000Y-85543000D03*
X141605000Y-90043000D03*
X135105000Y-85543000D03*
X135105000Y-90043000D03*
D18*
X144399000Y-101600000D03*
D17*
X144399000Y-99060000D03*
X144399000Y-96560000D03*
D19*
X141605000Y-90043000D02*
X135105000Y-90043000D01*
X161394000Y-89916000D02*
X167894000Y-89916000D01*
X155321000Y-89916000D02*
X151257000Y-85852000D01*
X151257000Y-85852000D02*
X151257000Y-85090000D01*
X151257000Y-85090000D02*
X151130000Y-84963000D01*
X167917000Y-107696000D02*
X161417000Y-107696000D01*
X155321000Y-107696000D02*
X155321000Y-108458000D01*
X155321000Y-108458000D02*
X151130000Y-112649000D01*
X141628000Y-107696000D02*
X145161000Y-107696000D01*
X141628000Y-107696000D02*
X135128000Y-107696000D01*
X160040000Y-98552000D02*
X156337000Y-98552000D01*
X148971000Y-98806000D02*
X147701000Y-100076000D01*
X156083000Y-98806000D02*
X148971000Y-98806000D01*
X156337000Y-98552000D02*
X156083000Y-98806000D01*
D20*
G36*
X140338186Y-84455794D02*
X140452466Y-84570074D01*
X140185613Y-84668736D01*
X139959092Y-85278461D01*
X139983144Y-85928460D01*
X140185613Y-86417264D01*
X140452468Y-86515927D01*
X141425395Y-85543000D01*
X141411253Y-85528858D01*
X141590858Y-85349253D01*
X141605000Y-85363395D01*
X141619143Y-85349253D01*
X141798748Y-85528858D01*
X141784605Y-85543000D01*
X142757532Y-86515927D01*
X143024387Y-86417264D01*
X143250908Y-85807539D01*
X143226856Y-85157540D01*
X143024387Y-84668736D01*
X142757534Y-84570074D01*
X142871814Y-84455794D01*
X142819020Y-84403000D01*
X149783369Y-84403000D01*
X149776120Y-84413849D01*
X149666887Y-84963000D01*
X149776120Y-85512151D01*
X150087189Y-85977698D01*
X150552736Y-86288767D01*
X150667628Y-86311620D01*
X150719599Y-86389401D01*
X153831234Y-89501036D01*
X153786267Y-89609330D01*
X153785735Y-90219991D01*
X154018932Y-90784371D01*
X154450357Y-91216551D01*
X155014330Y-91450733D01*
X155624991Y-91451265D01*
X156189371Y-91218068D01*
X156357613Y-91050120D01*
X156357838Y-91051317D01*
X156496910Y-91267441D01*
X156709110Y-91412431D01*
X156961000Y-91463440D01*
X158761000Y-91463440D01*
X158996317Y-91419162D01*
X159212441Y-91280090D01*
X159357431Y-91067890D01*
X159408440Y-90816000D01*
X159408440Y-89016000D01*
X159364162Y-88780683D01*
X159225090Y-88564559D01*
X159012890Y-88419569D01*
X158761000Y-88368560D01*
X156961000Y-88368560D01*
X156725683Y-88412838D01*
X156509559Y-88551910D01*
X156364569Y-88764110D01*
X156360433Y-88784534D01*
X156191643Y-88615449D01*
X155627670Y-88381267D01*
X155017009Y-88380735D01*
X154906287Y-88426485D01*
X153048334Y-86568532D01*
X160421073Y-86568532D01*
X160519736Y-86835387D01*
X161129461Y-87061908D01*
X161779460Y-87037856D01*
X162268264Y-86835387D01*
X162366927Y-86568532D01*
X161394000Y-85595605D01*
X160421073Y-86568532D01*
X153048334Y-86568532D01*
X152286842Y-85807040D01*
X152483880Y-85512151D01*
X152593113Y-84963000D01*
X152483880Y-84413849D01*
X152476631Y-84403000D01*
X157428738Y-84403000D01*
X157315250Y-84676309D01*
X157314752Y-85247187D01*
X157532757Y-85774800D01*
X157936077Y-86178824D01*
X158463309Y-86397750D01*
X159034187Y-86398248D01*
X159561800Y-86180243D01*
X159821611Y-85920885D01*
X159974613Y-86290264D01*
X160241468Y-86388927D01*
X161214395Y-85416000D01*
X161200253Y-85401858D01*
X161379858Y-85222253D01*
X161394000Y-85236395D01*
X161408143Y-85222253D01*
X161587748Y-85401858D01*
X161573605Y-85416000D01*
X162546532Y-86388927D01*
X162813387Y-86290264D01*
X163039908Y-85680539D01*
X163015856Y-85030540D01*
X162813387Y-84541736D01*
X162546534Y-84443074D01*
X162586608Y-84403000D01*
X166701392Y-84403000D01*
X166741466Y-84443074D01*
X166474613Y-84541736D01*
X166248092Y-85151461D01*
X166272144Y-85801460D01*
X166474613Y-86290264D01*
X166741468Y-86388927D01*
X167714395Y-85416000D01*
X167700253Y-85401858D01*
X167879858Y-85222253D01*
X167894000Y-85236395D01*
X167908143Y-85222253D01*
X168087748Y-85401858D01*
X168073605Y-85416000D01*
X168087748Y-85430143D01*
X167908143Y-85609748D01*
X167894000Y-85595605D01*
X166921073Y-86568532D01*
X167019736Y-86835387D01*
X167629461Y-87061908D01*
X168279460Y-87037856D01*
X168768264Y-86835387D01*
X168866926Y-86568534D01*
X168962000Y-86663608D01*
X168962000Y-88671605D01*
X168821363Y-88530722D01*
X168220648Y-88281284D01*
X167570205Y-88280716D01*
X166969057Y-88529106D01*
X166508722Y-88988637D01*
X166439227Y-89156000D01*
X162849047Y-89156000D01*
X162780894Y-88991057D01*
X162321363Y-88530722D01*
X161720648Y-88281284D01*
X161070205Y-88280716D01*
X160469057Y-88529106D01*
X160008722Y-88988637D01*
X159759284Y-89589352D01*
X159758716Y-90239795D01*
X160007106Y-90840943D01*
X160466637Y-91301278D01*
X161067352Y-91550716D01*
X161717795Y-91551284D01*
X162318943Y-91302894D01*
X162779278Y-90843363D01*
X162848773Y-90676000D01*
X166438953Y-90676000D01*
X166507106Y-90840943D01*
X166966637Y-91301278D01*
X167567352Y-91550716D01*
X168217795Y-91551284D01*
X168818943Y-91302894D01*
X168962000Y-91160087D01*
X168962000Y-97375974D01*
X168799698Y-97213673D01*
X168566309Y-97117000D01*
X167925750Y-97117000D01*
X167767000Y-97275750D01*
X167767000Y-98425000D01*
X167787000Y-98425000D01*
X167787000Y-98679000D01*
X167767000Y-98679000D01*
X167767000Y-99828250D01*
X167925750Y-99987000D01*
X168566309Y-99987000D01*
X168799698Y-99890327D01*
X168962000Y-99728026D01*
X168962000Y-106428565D01*
X168844363Y-106310722D01*
X168243648Y-106061284D01*
X167593205Y-106060716D01*
X166992057Y-106309106D01*
X166531722Y-106768637D01*
X166462227Y-106936000D01*
X162872047Y-106936000D01*
X162803894Y-106771057D01*
X162344363Y-106310722D01*
X161743648Y-106061284D01*
X161093205Y-106060716D01*
X160492057Y-106309106D01*
X160031722Y-106768637D01*
X159782284Y-107369352D01*
X159781716Y-108019795D01*
X160030106Y-108620943D01*
X160489637Y-109081278D01*
X161090352Y-109330716D01*
X161740795Y-109331284D01*
X162341943Y-109082894D01*
X162802278Y-108623363D01*
X162871773Y-108456000D01*
X166461953Y-108456000D01*
X166530106Y-108620943D01*
X166989637Y-109081278D01*
X167590352Y-109330716D01*
X168240795Y-109331284D01*
X168841943Y-109082894D01*
X168962000Y-108963047D01*
X168962000Y-110971392D01*
X168889926Y-111043466D01*
X168791264Y-110776613D01*
X168181539Y-110550092D01*
X167531540Y-110574144D01*
X167042736Y-110776613D01*
X166944073Y-111043468D01*
X167917000Y-112016395D01*
X167931143Y-112002253D01*
X168110748Y-112181858D01*
X168096605Y-112196000D01*
X168110748Y-112210143D01*
X167931143Y-112389748D01*
X167917000Y-112375605D01*
X167902858Y-112389748D01*
X167723253Y-112210143D01*
X167737395Y-112196000D01*
X166764468Y-111223073D01*
X166497613Y-111321736D01*
X166271092Y-111931461D01*
X166295144Y-112581460D01*
X166497613Y-113070264D01*
X166764466Y-113168926D01*
X166724392Y-113209000D01*
X162609608Y-113209000D01*
X162569534Y-113168926D01*
X162836387Y-113070264D01*
X163062908Y-112460539D01*
X163038856Y-111810540D01*
X162836387Y-111321736D01*
X162569532Y-111223073D01*
X161596605Y-112196000D01*
X161610748Y-112210143D01*
X161431143Y-112389748D01*
X161417000Y-112375605D01*
X161402858Y-112389748D01*
X161223253Y-112210143D01*
X161237395Y-112196000D01*
X160264468Y-111223073D01*
X159997613Y-111321736D01*
X159849814Y-111719566D01*
X159563923Y-111433176D01*
X159036691Y-111214250D01*
X158465813Y-111213752D01*
X157938200Y-111431757D01*
X157534176Y-111835077D01*
X157315250Y-112362309D01*
X157314752Y-112933187D01*
X157428715Y-113209000D01*
X152476631Y-113209000D01*
X152483880Y-113198151D01*
X152593113Y-112649000D01*
X152528688Y-112325114D01*
X153810334Y-111043468D01*
X160444073Y-111043468D01*
X161417000Y-112016395D01*
X162389927Y-111043468D01*
X162291264Y-110776613D01*
X161681539Y-110550092D01*
X161031540Y-110574144D01*
X160542736Y-110776613D01*
X160444073Y-111043468D01*
X153810334Y-111043468D01*
X155622539Y-109231263D01*
X155624991Y-109231265D01*
X156189371Y-108998068D01*
X156357613Y-108830120D01*
X156357838Y-108831317D01*
X156496910Y-109047441D01*
X156709110Y-109192431D01*
X156961000Y-109243440D01*
X158761000Y-109243440D01*
X158996317Y-109199162D01*
X159212441Y-109060090D01*
X159357431Y-108847890D01*
X159408440Y-108596000D01*
X159408440Y-106796000D01*
X159364162Y-106560683D01*
X159225090Y-106344559D01*
X159012890Y-106199569D01*
X158761000Y-106148560D01*
X156961000Y-106148560D01*
X156725683Y-106192838D01*
X156509559Y-106331910D01*
X156364569Y-106544110D01*
X156360433Y-106564534D01*
X156191643Y-106395449D01*
X155627670Y-106161267D01*
X155017009Y-106160735D01*
X154452629Y-106393932D01*
X154020449Y-106825357D01*
X153786267Y-107389330D01*
X153785735Y-107999991D01*
X154018932Y-108564371D01*
X154079327Y-108624871D01*
X151435102Y-111269096D01*
X151158113Y-111214000D01*
X151101887Y-111214000D01*
X150552736Y-111323233D01*
X150087189Y-111634302D01*
X149776120Y-112099849D01*
X149666887Y-112649000D01*
X149776120Y-113198151D01*
X149783369Y-113209000D01*
X142820608Y-113209000D01*
X142780534Y-113168926D01*
X143047387Y-113070264D01*
X143273908Y-112460539D01*
X143249856Y-111810540D01*
X143047387Y-111321736D01*
X142780532Y-111223073D01*
X141807605Y-112196000D01*
X141821748Y-112210143D01*
X141642143Y-112389748D01*
X141628000Y-112375605D01*
X141613858Y-112389748D01*
X141434253Y-112210143D01*
X141448395Y-112196000D01*
X140475468Y-111223073D01*
X140208613Y-111321736D01*
X139982092Y-111931461D01*
X140006144Y-112581460D01*
X140208613Y-113070264D01*
X140475466Y-113168926D01*
X140435392Y-113209000D01*
X136320608Y-113209000D01*
X136280534Y-113168926D01*
X136547387Y-113070264D01*
X136773908Y-112460539D01*
X136749856Y-111810540D01*
X136547387Y-111321736D01*
X136280532Y-111223073D01*
X135307605Y-112196000D01*
X135321748Y-112210143D01*
X135142143Y-112389748D01*
X135128000Y-112375605D01*
X135113858Y-112389748D01*
X134934253Y-112210143D01*
X134948395Y-112196000D01*
X134934253Y-112181858D01*
X135113858Y-112002253D01*
X135128000Y-112016395D01*
X136100927Y-111043468D01*
X140655073Y-111043468D01*
X141628000Y-112016395D01*
X142600927Y-111043468D01*
X142502264Y-110776613D01*
X141892539Y-110550092D01*
X141242540Y-110574144D01*
X140753736Y-110776613D01*
X140655073Y-111043468D01*
X136100927Y-111043468D01*
X136002264Y-110776613D01*
X135392539Y-110550092D01*
X134742540Y-110574144D01*
X134253736Y-110776613D01*
X134155074Y-111043466D01*
X134060000Y-110948392D01*
X134060000Y-108940395D01*
X134200637Y-109081278D01*
X134801352Y-109330716D01*
X135451795Y-109331284D01*
X136052943Y-109082894D01*
X136513278Y-108623363D01*
X136582773Y-108456000D01*
X140172953Y-108456000D01*
X140241106Y-108620943D01*
X140700637Y-109081278D01*
X141301352Y-109330716D01*
X141951795Y-109331284D01*
X142552943Y-109082894D01*
X143013278Y-108623363D01*
X143082773Y-108456000D01*
X143613560Y-108456000D01*
X143613560Y-108596000D01*
X143657838Y-108831317D01*
X143796910Y-109047441D01*
X144009110Y-109192431D01*
X144261000Y-109243440D01*
X146061000Y-109243440D01*
X146296317Y-109199162D01*
X146512441Y-109060090D01*
X146657431Y-108847890D01*
X146661567Y-108827466D01*
X146830357Y-108996551D01*
X147394330Y-109230733D01*
X148004991Y-109231265D01*
X148569371Y-108998068D01*
X149001551Y-108566643D01*
X149235733Y-108002670D01*
X149236265Y-107392009D01*
X149003068Y-106827629D01*
X148571643Y-106395449D01*
X148007670Y-106161267D01*
X147397009Y-106160735D01*
X146832629Y-106393932D01*
X146664387Y-106561880D01*
X146664162Y-106560683D01*
X146525090Y-106344559D01*
X146312890Y-106199569D01*
X146061000Y-106148560D01*
X144261000Y-106148560D01*
X144025683Y-106192838D01*
X143809559Y-106331910D01*
X143664569Y-106544110D01*
X143613560Y-106796000D01*
X143613560Y-106936000D01*
X143083047Y-106936000D01*
X143014894Y-106771057D01*
X142555363Y-106310722D01*
X141954648Y-106061284D01*
X141304205Y-106060716D01*
X140703057Y-106309106D01*
X140242722Y-106768637D01*
X140173227Y-106936000D01*
X136583047Y-106936000D01*
X136514894Y-106771057D01*
X136055363Y-106310722D01*
X135454648Y-106061284D01*
X134804205Y-106060716D01*
X134203057Y-106309106D01*
X134060000Y-106451913D01*
X134060000Y-105947732D01*
X134079309Y-105955750D01*
X134650187Y-105956248D01*
X135177800Y-105738243D01*
X135581824Y-105334923D01*
X135800750Y-104807691D01*
X135801000Y-104521000D01*
X140522887Y-104521000D01*
X140632120Y-105070151D01*
X140943189Y-105535698D01*
X141408736Y-105846767D01*
X141957887Y-105956000D01*
X142014113Y-105956000D01*
X142563264Y-105846767D01*
X143028811Y-105535698D01*
X143339880Y-105070151D01*
X143449113Y-104521000D01*
X143339880Y-103971849D01*
X143028811Y-103506302D01*
X142563264Y-103195233D01*
X142014113Y-103086000D01*
X141957887Y-103086000D01*
X141408736Y-103195233D01*
X140943189Y-103506302D01*
X140632120Y-103971849D01*
X140522887Y-104521000D01*
X135801000Y-104521000D01*
X135801248Y-104236813D01*
X135583243Y-103709200D01*
X135179923Y-103305176D01*
X134652691Y-103086250D01*
X134081813Y-103085752D01*
X134060000Y-103094765D01*
X134060000Y-101233562D01*
X134590075Y-101339000D01*
X136173925Y-101339000D01*
X136705855Y-101233193D01*
X137156803Y-100931878D01*
X137378557Y-100600000D01*
X142751560Y-100600000D01*
X142751560Y-102600000D01*
X142795838Y-102835317D01*
X142934910Y-103051441D01*
X143147110Y-103196431D01*
X143399000Y-103247440D01*
X145399000Y-103247440D01*
X145634317Y-103203162D01*
X145850441Y-103064090D01*
X145918119Y-102965039D01*
X146309096Y-102965039D01*
X146469959Y-103353423D01*
X146845866Y-103768389D01*
X147351959Y-104007914D01*
X147574000Y-103886629D01*
X147574000Y-102743000D01*
X147828000Y-102743000D01*
X147828000Y-103886629D01*
X148050041Y-104007914D01*
X148556134Y-103768389D01*
X148932041Y-103353423D01*
X149092904Y-102965039D01*
X148970915Y-102743000D01*
X147828000Y-102743000D01*
X147574000Y-102743000D01*
X146431085Y-102743000D01*
X146309096Y-102965039D01*
X145918119Y-102965039D01*
X145995431Y-102851890D01*
X146046440Y-102600000D01*
X146046440Y-100600000D01*
X146002162Y-100364683D01*
X145863090Y-100148559D01*
X145720439Y-100051090D01*
X145784278Y-99987363D01*
X146033716Y-99386648D01*
X146034284Y-98736205D01*
X145785894Y-98135057D01*
X145461241Y-97809836D01*
X145735555Y-97536000D01*
X146237887Y-97536000D01*
X146347120Y-98085151D01*
X146658189Y-98550698D01*
X147040275Y-98806000D01*
X146658189Y-99061302D01*
X146347120Y-99526849D01*
X146237887Y-100076000D01*
X146347120Y-100625151D01*
X146658189Y-101090698D01*
X147062703Y-101360986D01*
X146845866Y-101463611D01*
X146469959Y-101878577D01*
X146309096Y-102266961D01*
X146431085Y-102489000D01*
X147574000Y-102489000D01*
X147574000Y-102469000D01*
X147828000Y-102469000D01*
X147828000Y-102489000D01*
X148970915Y-102489000D01*
X149092904Y-102266961D01*
X148932041Y-101878577D01*
X148556134Y-101463611D01*
X148339297Y-101360986D01*
X148743811Y-101090698D01*
X149054880Y-100625151D01*
X149164113Y-100076000D01*
X149099688Y-99752114D01*
X149285802Y-99566000D01*
X153959332Y-99566000D01*
X153857887Y-100076000D01*
X153967120Y-100625151D01*
X154278189Y-101090698D01*
X154660275Y-101346000D01*
X154278189Y-101601302D01*
X153967120Y-102066849D01*
X153857887Y-102616000D01*
X153967120Y-103165151D01*
X154278189Y-103630698D01*
X154743736Y-103941767D01*
X155292887Y-104051000D01*
X155349113Y-104051000D01*
X155898264Y-103941767D01*
X156363811Y-103630698D01*
X156674880Y-103165151D01*
X156784113Y-102616000D01*
X156674880Y-102066849D01*
X156363811Y-101601302D01*
X155981725Y-101346000D01*
X156363811Y-101090698D01*
X156674880Y-100625151D01*
X156784113Y-100076000D01*
X156674880Y-99526849D01*
X156573323Y-99374858D01*
X156620401Y-99343401D01*
X156651802Y-99312000D01*
X158801354Y-99312000D01*
X158822757Y-99363800D01*
X159226077Y-99767824D01*
X159753309Y-99986750D01*
X160324187Y-99987248D01*
X160851800Y-99769243D01*
X161255824Y-99365923D01*
X161474750Y-98838691D01*
X161474750Y-98837750D01*
X166205000Y-98837750D01*
X166205000Y-99478310D01*
X166301673Y-99711699D01*
X166480302Y-99890327D01*
X166713691Y-99987000D01*
X167354250Y-99987000D01*
X167513000Y-99828250D01*
X167513000Y-98679000D01*
X166363750Y-98679000D01*
X166205000Y-98837750D01*
X161474750Y-98837750D01*
X161475248Y-98267813D01*
X161257243Y-97740200D01*
X161142933Y-97625690D01*
X166205000Y-97625690D01*
X166205000Y-98266250D01*
X166363750Y-98425000D01*
X167513000Y-98425000D01*
X167513000Y-97275750D01*
X167354250Y-97117000D01*
X166713691Y-97117000D01*
X166480302Y-97213673D01*
X166301673Y-97392301D01*
X166205000Y-97625690D01*
X161142933Y-97625690D01*
X160853923Y-97336176D01*
X160326691Y-97117250D01*
X159755813Y-97116752D01*
X159228200Y-97334757D01*
X158824176Y-97738077D01*
X158801785Y-97792000D01*
X156733191Y-97792000D01*
X156784113Y-97536000D01*
X156674880Y-96986849D01*
X156363811Y-96521302D01*
X155981725Y-96266000D01*
X156363811Y-96010698D01*
X156674880Y-95545151D01*
X156784113Y-94996000D01*
X156674880Y-94446849D01*
X156363811Y-93981302D01*
X155898264Y-93670233D01*
X155349113Y-93561000D01*
X155292887Y-93561000D01*
X154743736Y-93670233D01*
X154278189Y-93981302D01*
X153967120Y-94446849D01*
X153857887Y-94996000D01*
X153967120Y-95545151D01*
X154278189Y-96010698D01*
X154660275Y-96266000D01*
X154278189Y-96521302D01*
X153967120Y-96986849D01*
X153857887Y-97536000D01*
X153959332Y-98046000D01*
X149062668Y-98046000D01*
X149164113Y-97536000D01*
X149054880Y-96986849D01*
X148743811Y-96521302D01*
X148599535Y-96424899D01*
X148736317Y-96399162D01*
X148952441Y-96260090D01*
X149097431Y-96047890D01*
X149148440Y-95796000D01*
X149148440Y-94196000D01*
X149104162Y-93960683D01*
X148965090Y-93744559D01*
X148752890Y-93599569D01*
X148501000Y-93548560D01*
X146901000Y-93548560D01*
X146665683Y-93592838D01*
X146449559Y-93731910D01*
X146304569Y-93944110D01*
X146253560Y-94196000D01*
X146253560Y-95796000D01*
X146297838Y-96031317D01*
X146436910Y-96247441D01*
X146649110Y-96392431D01*
X146804089Y-96423815D01*
X146658189Y-96521302D01*
X146347120Y-96986849D01*
X146237887Y-97536000D01*
X145735555Y-97536000D01*
X145784278Y-97487363D01*
X146033716Y-96886648D01*
X146034284Y-96236205D01*
X145785894Y-95635057D01*
X145326363Y-95174722D01*
X144725648Y-94925284D01*
X144075205Y-94924716D01*
X143474057Y-95173106D01*
X143013722Y-95632637D01*
X142764284Y-96233352D01*
X142763716Y-96883795D01*
X143012106Y-97484943D01*
X143336759Y-97810164D01*
X143013722Y-98132637D01*
X142764284Y-98733352D01*
X142763716Y-99383795D01*
X143012106Y-99984943D01*
X143078621Y-100051574D01*
X142947559Y-100135910D01*
X142802569Y-100348110D01*
X142751560Y-100600000D01*
X137378557Y-100600000D01*
X137458118Y-100480930D01*
X137563925Y-99949000D01*
X137458118Y-99417070D01*
X137156803Y-98966122D01*
X136708013Y-98666249D01*
X136781263Y-98644592D01*
X137204681Y-98302076D01*
X137464793Y-97823597D01*
X137479277Y-97750971D01*
X137356683Y-97536000D01*
X135509000Y-97536000D01*
X135509000Y-97556000D01*
X135255000Y-97556000D01*
X135255000Y-97536000D01*
X135235000Y-97536000D01*
X135235000Y-97282000D01*
X135255000Y-97282000D01*
X135255000Y-96019000D01*
X135509000Y-96019000D01*
X135509000Y-97282000D01*
X137356683Y-97282000D01*
X137479277Y-97067029D01*
X137464793Y-96994403D01*
X137204681Y-96515924D01*
X136781263Y-96173408D01*
X136259000Y-96019000D01*
X135509000Y-96019000D01*
X135255000Y-96019000D01*
X134505000Y-96019000D01*
X134060000Y-96150565D01*
X134060000Y-94771732D01*
X134079309Y-94779750D01*
X134650187Y-94780248D01*
X135177800Y-94562243D01*
X135581824Y-94158923D01*
X135800750Y-93631691D01*
X135801000Y-93345000D01*
X140522887Y-93345000D01*
X140632120Y-93894151D01*
X140943189Y-94359698D01*
X141408736Y-94670767D01*
X141957887Y-94780000D01*
X142014113Y-94780000D01*
X142563264Y-94670767D01*
X143028811Y-94359698D01*
X143339880Y-93894151D01*
X143449113Y-93345000D01*
X143339880Y-92795849D01*
X143028811Y-92330302D01*
X142563264Y-92019233D01*
X142014113Y-91910000D01*
X141957887Y-91910000D01*
X141408736Y-92019233D01*
X140943189Y-92330302D01*
X140632120Y-92795849D01*
X140522887Y-93345000D01*
X135801000Y-93345000D01*
X135801248Y-93060813D01*
X135583243Y-92533200D01*
X135179923Y-92129176D01*
X134652691Y-91910250D01*
X134081813Y-91909752D01*
X134060000Y-91918765D01*
X134060000Y-91310435D01*
X134177637Y-91428278D01*
X134778352Y-91677716D01*
X135428795Y-91678284D01*
X136029943Y-91429894D01*
X136490278Y-90970363D01*
X136559773Y-90803000D01*
X140149953Y-90803000D01*
X140218106Y-90967943D01*
X140677637Y-91428278D01*
X141278352Y-91677716D01*
X141928795Y-91678284D01*
X142529943Y-91429894D01*
X142990278Y-90970363D01*
X143239716Y-90369648D01*
X143240284Y-89719205D01*
X143002201Y-89143000D01*
X143613560Y-89143000D01*
X143613560Y-90943000D01*
X143657838Y-91178317D01*
X143796910Y-91394441D01*
X144009110Y-91539431D01*
X144261000Y-91590440D01*
X146061000Y-91590440D01*
X146296317Y-91546162D01*
X146512441Y-91407090D01*
X146657431Y-91194890D01*
X146661567Y-91174466D01*
X146830357Y-91343551D01*
X147394330Y-91577733D01*
X148004991Y-91578265D01*
X148569371Y-91345068D01*
X149001551Y-90913643D01*
X149235733Y-90349670D01*
X149236265Y-89739009D01*
X149003068Y-89174629D01*
X148571643Y-88742449D01*
X148007670Y-88508267D01*
X147397009Y-88507735D01*
X146832629Y-88740932D01*
X146664387Y-88908880D01*
X146664162Y-88907683D01*
X146525090Y-88691559D01*
X146312890Y-88546569D01*
X146061000Y-88495560D01*
X144261000Y-88495560D01*
X144025683Y-88539838D01*
X143809559Y-88678910D01*
X143664569Y-88891110D01*
X143613560Y-89143000D01*
X143002201Y-89143000D01*
X142991894Y-89118057D01*
X142532363Y-88657722D01*
X141931648Y-88408284D01*
X141281205Y-88407716D01*
X140680057Y-88656106D01*
X140219722Y-89115637D01*
X140150227Y-89283000D01*
X136560047Y-89283000D01*
X136491894Y-89118057D01*
X136032363Y-88657722D01*
X135431648Y-88408284D01*
X134781205Y-88407716D01*
X134180057Y-88656106D01*
X134060000Y-88775953D01*
X134060000Y-86767608D01*
X134132074Y-86695534D01*
X134230736Y-86962387D01*
X134840461Y-87188908D01*
X135490460Y-87164856D01*
X135979264Y-86962387D01*
X136077927Y-86695532D01*
X140632073Y-86695532D01*
X140730736Y-86962387D01*
X141340461Y-87188908D01*
X141990460Y-87164856D01*
X142479264Y-86962387D01*
X142577927Y-86695532D01*
X141605000Y-85722605D01*
X140632073Y-86695532D01*
X136077927Y-86695532D01*
X135105000Y-85722605D01*
X135090858Y-85736748D01*
X134911253Y-85557143D01*
X134925395Y-85543000D01*
X134911253Y-85528858D01*
X135090858Y-85349253D01*
X135105000Y-85363395D01*
X135119143Y-85349253D01*
X135298748Y-85528858D01*
X135284605Y-85543000D01*
X136257532Y-86515927D01*
X136524387Y-86417264D01*
X136750908Y-85807539D01*
X136726856Y-85157540D01*
X136524387Y-84668736D01*
X136257534Y-84570074D01*
X136371814Y-84455794D01*
X136319020Y-84403000D01*
X140390980Y-84403000D01*
X140338186Y-84455794D01*
X140338186Y-84455794D01*
G37*
X140338186Y-84455794D02*
X140452466Y-84570074D01*
X140185613Y-84668736D01*
X139959092Y-85278461D01*
X139983144Y-85928460D01*
X140185613Y-86417264D01*
X140452468Y-86515927D01*
X141425395Y-85543000D01*
X141411253Y-85528858D01*
X141590858Y-85349253D01*
X141605000Y-85363395D01*
X141619143Y-85349253D01*
X141798748Y-85528858D01*
X141784605Y-85543000D01*
X142757532Y-86515927D01*
X143024387Y-86417264D01*
X143250908Y-85807539D01*
X143226856Y-85157540D01*
X143024387Y-84668736D01*
X142757534Y-84570074D01*
X142871814Y-84455794D01*
X142819020Y-84403000D01*
X149783369Y-84403000D01*
X149776120Y-84413849D01*
X149666887Y-84963000D01*
X149776120Y-85512151D01*
X150087189Y-85977698D01*
X150552736Y-86288767D01*
X150667628Y-86311620D01*
X150719599Y-86389401D01*
X153831234Y-89501036D01*
X153786267Y-89609330D01*
X153785735Y-90219991D01*
X154018932Y-90784371D01*
X154450357Y-91216551D01*
X155014330Y-91450733D01*
X155624991Y-91451265D01*
X156189371Y-91218068D01*
X156357613Y-91050120D01*
X156357838Y-91051317D01*
X156496910Y-91267441D01*
X156709110Y-91412431D01*
X156961000Y-91463440D01*
X158761000Y-91463440D01*
X158996317Y-91419162D01*
X159212441Y-91280090D01*
X159357431Y-91067890D01*
X159408440Y-90816000D01*
X159408440Y-89016000D01*
X159364162Y-88780683D01*
X159225090Y-88564559D01*
X159012890Y-88419569D01*
X158761000Y-88368560D01*
X156961000Y-88368560D01*
X156725683Y-88412838D01*
X156509559Y-88551910D01*
X156364569Y-88764110D01*
X156360433Y-88784534D01*
X156191643Y-88615449D01*
X155627670Y-88381267D01*
X155017009Y-88380735D01*
X154906287Y-88426485D01*
X153048334Y-86568532D01*
X160421073Y-86568532D01*
X160519736Y-86835387D01*
X161129461Y-87061908D01*
X161779460Y-87037856D01*
X162268264Y-86835387D01*
X162366927Y-86568532D01*
X161394000Y-85595605D01*
X160421073Y-86568532D01*
X153048334Y-86568532D01*
X152286842Y-85807040D01*
X152483880Y-85512151D01*
X152593113Y-84963000D01*
X152483880Y-84413849D01*
X152476631Y-84403000D01*
X157428738Y-84403000D01*
X157315250Y-84676309D01*
X157314752Y-85247187D01*
X157532757Y-85774800D01*
X157936077Y-86178824D01*
X158463309Y-86397750D01*
X159034187Y-86398248D01*
X159561800Y-86180243D01*
X159821611Y-85920885D01*
X159974613Y-86290264D01*
X160241468Y-86388927D01*
X161214395Y-85416000D01*
X161200253Y-85401858D01*
X161379858Y-85222253D01*
X161394000Y-85236395D01*
X161408143Y-85222253D01*
X161587748Y-85401858D01*
X161573605Y-85416000D01*
X162546532Y-86388927D01*
X162813387Y-86290264D01*
X163039908Y-85680539D01*
X163015856Y-85030540D01*
X162813387Y-84541736D01*
X162546534Y-84443074D01*
X162586608Y-84403000D01*
X166701392Y-84403000D01*
X166741466Y-84443074D01*
X166474613Y-84541736D01*
X166248092Y-85151461D01*
X166272144Y-85801460D01*
X166474613Y-86290264D01*
X166741468Y-86388927D01*
X167714395Y-85416000D01*
X167700253Y-85401858D01*
X167879858Y-85222253D01*
X167894000Y-85236395D01*
X167908143Y-85222253D01*
X168087748Y-85401858D01*
X168073605Y-85416000D01*
X168087748Y-85430143D01*
X167908143Y-85609748D01*
X167894000Y-85595605D01*
X166921073Y-86568532D01*
X167019736Y-86835387D01*
X167629461Y-87061908D01*
X168279460Y-87037856D01*
X168768264Y-86835387D01*
X168866926Y-86568534D01*
X168962000Y-86663608D01*
X168962000Y-88671605D01*
X168821363Y-88530722D01*
X168220648Y-88281284D01*
X167570205Y-88280716D01*
X166969057Y-88529106D01*
X166508722Y-88988637D01*
X166439227Y-89156000D01*
X162849047Y-89156000D01*
X162780894Y-88991057D01*
X162321363Y-88530722D01*
X161720648Y-88281284D01*
X161070205Y-88280716D01*
X160469057Y-88529106D01*
X160008722Y-88988637D01*
X159759284Y-89589352D01*
X159758716Y-90239795D01*
X160007106Y-90840943D01*
X160466637Y-91301278D01*
X161067352Y-91550716D01*
X161717795Y-91551284D01*
X162318943Y-91302894D01*
X162779278Y-90843363D01*
X162848773Y-90676000D01*
X166438953Y-90676000D01*
X166507106Y-90840943D01*
X166966637Y-91301278D01*
X167567352Y-91550716D01*
X168217795Y-91551284D01*
X168818943Y-91302894D01*
X168962000Y-91160087D01*
X168962000Y-97375974D01*
X168799698Y-97213673D01*
X168566309Y-97117000D01*
X167925750Y-97117000D01*
X167767000Y-97275750D01*
X167767000Y-98425000D01*
X167787000Y-98425000D01*
X167787000Y-98679000D01*
X167767000Y-98679000D01*
X167767000Y-99828250D01*
X167925750Y-99987000D01*
X168566309Y-99987000D01*
X168799698Y-99890327D01*
X168962000Y-99728026D01*
X168962000Y-106428565D01*
X168844363Y-106310722D01*
X168243648Y-106061284D01*
X167593205Y-106060716D01*
X166992057Y-106309106D01*
X166531722Y-106768637D01*
X166462227Y-106936000D01*
X162872047Y-106936000D01*
X162803894Y-106771057D01*
X162344363Y-106310722D01*
X161743648Y-106061284D01*
X161093205Y-106060716D01*
X160492057Y-106309106D01*
X160031722Y-106768637D01*
X159782284Y-107369352D01*
X159781716Y-108019795D01*
X160030106Y-108620943D01*
X160489637Y-109081278D01*
X161090352Y-109330716D01*
X161740795Y-109331284D01*
X162341943Y-109082894D01*
X162802278Y-108623363D01*
X162871773Y-108456000D01*
X166461953Y-108456000D01*
X166530106Y-108620943D01*
X166989637Y-109081278D01*
X167590352Y-109330716D01*
X168240795Y-109331284D01*
X168841943Y-109082894D01*
X168962000Y-108963047D01*
X168962000Y-110971392D01*
X168889926Y-111043466D01*
X168791264Y-110776613D01*
X168181539Y-110550092D01*
X167531540Y-110574144D01*
X167042736Y-110776613D01*
X166944073Y-111043468D01*
X167917000Y-112016395D01*
X167931143Y-112002253D01*
X168110748Y-112181858D01*
X168096605Y-112196000D01*
X168110748Y-112210143D01*
X167931143Y-112389748D01*
X167917000Y-112375605D01*
X167902858Y-112389748D01*
X167723253Y-112210143D01*
X167737395Y-112196000D01*
X166764468Y-111223073D01*
X166497613Y-111321736D01*
X166271092Y-111931461D01*
X166295144Y-112581460D01*
X166497613Y-113070264D01*
X166764466Y-113168926D01*
X166724392Y-113209000D01*
X162609608Y-113209000D01*
X162569534Y-113168926D01*
X162836387Y-113070264D01*
X163062908Y-112460539D01*
X163038856Y-111810540D01*
X162836387Y-111321736D01*
X162569532Y-111223073D01*
X161596605Y-112196000D01*
X161610748Y-112210143D01*
X161431143Y-112389748D01*
X161417000Y-112375605D01*
X161402858Y-112389748D01*
X161223253Y-112210143D01*
X161237395Y-112196000D01*
X160264468Y-111223073D01*
X159997613Y-111321736D01*
X159849814Y-111719566D01*
X159563923Y-111433176D01*
X159036691Y-111214250D01*
X158465813Y-111213752D01*
X157938200Y-111431757D01*
X157534176Y-111835077D01*
X157315250Y-112362309D01*
X157314752Y-112933187D01*
X157428715Y-113209000D01*
X152476631Y-113209000D01*
X152483880Y-113198151D01*
X152593113Y-112649000D01*
X152528688Y-112325114D01*
X153810334Y-111043468D01*
X160444073Y-111043468D01*
X161417000Y-112016395D01*
X162389927Y-111043468D01*
X162291264Y-110776613D01*
X161681539Y-110550092D01*
X161031540Y-110574144D01*
X160542736Y-110776613D01*
X160444073Y-111043468D01*
X153810334Y-111043468D01*
X155622539Y-109231263D01*
X155624991Y-109231265D01*
X156189371Y-108998068D01*
X156357613Y-108830120D01*
X156357838Y-108831317D01*
X156496910Y-109047441D01*
X156709110Y-109192431D01*
X156961000Y-109243440D01*
X158761000Y-109243440D01*
X158996317Y-109199162D01*
X159212441Y-109060090D01*
X159357431Y-108847890D01*
X159408440Y-108596000D01*
X159408440Y-106796000D01*
X159364162Y-106560683D01*
X159225090Y-106344559D01*
X159012890Y-106199569D01*
X158761000Y-106148560D01*
X156961000Y-106148560D01*
X156725683Y-106192838D01*
X156509559Y-106331910D01*
X156364569Y-106544110D01*
X156360433Y-106564534D01*
X156191643Y-106395449D01*
X155627670Y-106161267D01*
X155017009Y-106160735D01*
X154452629Y-106393932D01*
X154020449Y-106825357D01*
X153786267Y-107389330D01*
X153785735Y-107999991D01*
X154018932Y-108564371D01*
X154079327Y-108624871D01*
X151435102Y-111269096D01*
X151158113Y-111214000D01*
X151101887Y-111214000D01*
X150552736Y-111323233D01*
X150087189Y-111634302D01*
X149776120Y-112099849D01*
X149666887Y-112649000D01*
X149776120Y-113198151D01*
X149783369Y-113209000D01*
X142820608Y-113209000D01*
X142780534Y-113168926D01*
X143047387Y-113070264D01*
X143273908Y-112460539D01*
X143249856Y-111810540D01*
X143047387Y-111321736D01*
X142780532Y-111223073D01*
X141807605Y-112196000D01*
X141821748Y-112210143D01*
X141642143Y-112389748D01*
X141628000Y-112375605D01*
X141613858Y-112389748D01*
X141434253Y-112210143D01*
X141448395Y-112196000D01*
X140475468Y-111223073D01*
X140208613Y-111321736D01*
X139982092Y-111931461D01*
X140006144Y-112581460D01*
X140208613Y-113070264D01*
X140475466Y-113168926D01*
X140435392Y-113209000D01*
X136320608Y-113209000D01*
X136280534Y-113168926D01*
X136547387Y-113070264D01*
X136773908Y-112460539D01*
X136749856Y-111810540D01*
X136547387Y-111321736D01*
X136280532Y-111223073D01*
X135307605Y-112196000D01*
X135321748Y-112210143D01*
X135142143Y-112389748D01*
X135128000Y-112375605D01*
X135113858Y-112389748D01*
X134934253Y-112210143D01*
X134948395Y-112196000D01*
X134934253Y-112181858D01*
X135113858Y-112002253D01*
X135128000Y-112016395D01*
X136100927Y-111043468D01*
X140655073Y-111043468D01*
X141628000Y-112016395D01*
X142600927Y-111043468D01*
X142502264Y-110776613D01*
X141892539Y-110550092D01*
X141242540Y-110574144D01*
X140753736Y-110776613D01*
X140655073Y-111043468D01*
X136100927Y-111043468D01*
X136002264Y-110776613D01*
X135392539Y-110550092D01*
X134742540Y-110574144D01*
X134253736Y-110776613D01*
X134155074Y-111043466D01*
X134060000Y-110948392D01*
X134060000Y-108940395D01*
X134200637Y-109081278D01*
X134801352Y-109330716D01*
X135451795Y-109331284D01*
X136052943Y-109082894D01*
X136513278Y-108623363D01*
X136582773Y-108456000D01*
X140172953Y-108456000D01*
X140241106Y-108620943D01*
X140700637Y-109081278D01*
X141301352Y-109330716D01*
X141951795Y-109331284D01*
X142552943Y-109082894D01*
X143013278Y-108623363D01*
X143082773Y-108456000D01*
X143613560Y-108456000D01*
X143613560Y-108596000D01*
X143657838Y-108831317D01*
X143796910Y-109047441D01*
X144009110Y-109192431D01*
X144261000Y-109243440D01*
X146061000Y-109243440D01*
X146296317Y-109199162D01*
X146512441Y-109060090D01*
X146657431Y-108847890D01*
X146661567Y-108827466D01*
X146830357Y-108996551D01*
X147394330Y-109230733D01*
X148004991Y-109231265D01*
X148569371Y-108998068D01*
X149001551Y-108566643D01*
X149235733Y-108002670D01*
X149236265Y-107392009D01*
X149003068Y-106827629D01*
X148571643Y-106395449D01*
X148007670Y-106161267D01*
X147397009Y-106160735D01*
X146832629Y-106393932D01*
X146664387Y-106561880D01*
X146664162Y-106560683D01*
X146525090Y-106344559D01*
X146312890Y-106199569D01*
X146061000Y-106148560D01*
X144261000Y-106148560D01*
X144025683Y-106192838D01*
X143809559Y-106331910D01*
X143664569Y-106544110D01*
X143613560Y-106796000D01*
X143613560Y-106936000D01*
X143083047Y-106936000D01*
X143014894Y-106771057D01*
X142555363Y-106310722D01*
X141954648Y-106061284D01*
X141304205Y-106060716D01*
X140703057Y-106309106D01*
X140242722Y-106768637D01*
X140173227Y-106936000D01*
X136583047Y-106936000D01*
X136514894Y-106771057D01*
X136055363Y-106310722D01*
X135454648Y-106061284D01*
X134804205Y-106060716D01*
X134203057Y-106309106D01*
X134060000Y-106451913D01*
X134060000Y-105947732D01*
X134079309Y-105955750D01*
X134650187Y-105956248D01*
X135177800Y-105738243D01*
X135581824Y-105334923D01*
X135800750Y-104807691D01*
X135801000Y-104521000D01*
X140522887Y-104521000D01*
X140632120Y-105070151D01*
X140943189Y-105535698D01*
X141408736Y-105846767D01*
X141957887Y-105956000D01*
X142014113Y-105956000D01*
X142563264Y-105846767D01*
X143028811Y-105535698D01*
X143339880Y-105070151D01*
X143449113Y-104521000D01*
X143339880Y-103971849D01*
X143028811Y-103506302D01*
X142563264Y-103195233D01*
X142014113Y-103086000D01*
X141957887Y-103086000D01*
X141408736Y-103195233D01*
X140943189Y-103506302D01*
X140632120Y-103971849D01*
X140522887Y-104521000D01*
X135801000Y-104521000D01*
X135801248Y-104236813D01*
X135583243Y-103709200D01*
X135179923Y-103305176D01*
X134652691Y-103086250D01*
X134081813Y-103085752D01*
X134060000Y-103094765D01*
X134060000Y-101233562D01*
X134590075Y-101339000D01*
X136173925Y-101339000D01*
X136705855Y-101233193D01*
X137156803Y-100931878D01*
X137378557Y-100600000D01*
X142751560Y-100600000D01*
X142751560Y-102600000D01*
X142795838Y-102835317D01*
X142934910Y-103051441D01*
X143147110Y-103196431D01*
X143399000Y-103247440D01*
X145399000Y-103247440D01*
X145634317Y-103203162D01*
X145850441Y-103064090D01*
X145918119Y-102965039D01*
X146309096Y-102965039D01*
X146469959Y-103353423D01*
X146845866Y-103768389D01*
X147351959Y-104007914D01*
X147574000Y-103886629D01*
X147574000Y-102743000D01*
X147828000Y-102743000D01*
X147828000Y-103886629D01*
X148050041Y-104007914D01*
X148556134Y-103768389D01*
X148932041Y-103353423D01*
X149092904Y-102965039D01*
X148970915Y-102743000D01*
X147828000Y-102743000D01*
X147574000Y-102743000D01*
X146431085Y-102743000D01*
X146309096Y-102965039D01*
X145918119Y-102965039D01*
X145995431Y-102851890D01*
X146046440Y-102600000D01*
X146046440Y-100600000D01*
X146002162Y-100364683D01*
X145863090Y-100148559D01*
X145720439Y-100051090D01*
X145784278Y-99987363D01*
X146033716Y-99386648D01*
X146034284Y-98736205D01*
X145785894Y-98135057D01*
X145461241Y-97809836D01*
X145735555Y-97536000D01*
X146237887Y-97536000D01*
X146347120Y-98085151D01*
X146658189Y-98550698D01*
X147040275Y-98806000D01*
X146658189Y-99061302D01*
X146347120Y-99526849D01*
X146237887Y-100076000D01*
X146347120Y-100625151D01*
X146658189Y-101090698D01*
X147062703Y-101360986D01*
X146845866Y-101463611D01*
X146469959Y-101878577D01*
X146309096Y-102266961D01*
X146431085Y-102489000D01*
X147574000Y-102489000D01*
X147574000Y-102469000D01*
X147828000Y-102469000D01*
X147828000Y-102489000D01*
X148970915Y-102489000D01*
X149092904Y-102266961D01*
X148932041Y-101878577D01*
X148556134Y-101463611D01*
X148339297Y-101360986D01*
X148743811Y-101090698D01*
X149054880Y-100625151D01*
X149164113Y-100076000D01*
X149099688Y-99752114D01*
X149285802Y-99566000D01*
X153959332Y-99566000D01*
X153857887Y-100076000D01*
X153967120Y-100625151D01*
X154278189Y-101090698D01*
X154660275Y-101346000D01*
X154278189Y-101601302D01*
X153967120Y-102066849D01*
X153857887Y-102616000D01*
X153967120Y-103165151D01*
X154278189Y-103630698D01*
X154743736Y-103941767D01*
X155292887Y-104051000D01*
X155349113Y-104051000D01*
X155898264Y-103941767D01*
X156363811Y-103630698D01*
X156674880Y-103165151D01*
X156784113Y-102616000D01*
X156674880Y-102066849D01*
X156363811Y-101601302D01*
X155981725Y-101346000D01*
X156363811Y-101090698D01*
X156674880Y-100625151D01*
X156784113Y-100076000D01*
X156674880Y-99526849D01*
X156573323Y-99374858D01*
X156620401Y-99343401D01*
X156651802Y-99312000D01*
X158801354Y-99312000D01*
X158822757Y-99363800D01*
X159226077Y-99767824D01*
X159753309Y-99986750D01*
X160324187Y-99987248D01*
X160851800Y-99769243D01*
X161255824Y-99365923D01*
X161474750Y-98838691D01*
X161474750Y-98837750D01*
X166205000Y-98837750D01*
X166205000Y-99478310D01*
X166301673Y-99711699D01*
X166480302Y-99890327D01*
X166713691Y-99987000D01*
X167354250Y-99987000D01*
X167513000Y-99828250D01*
X167513000Y-98679000D01*
X166363750Y-98679000D01*
X166205000Y-98837750D01*
X161474750Y-98837750D01*
X161475248Y-98267813D01*
X161257243Y-97740200D01*
X161142933Y-97625690D01*
X166205000Y-97625690D01*
X166205000Y-98266250D01*
X166363750Y-98425000D01*
X167513000Y-98425000D01*
X167513000Y-97275750D01*
X167354250Y-97117000D01*
X166713691Y-97117000D01*
X166480302Y-97213673D01*
X166301673Y-97392301D01*
X166205000Y-97625690D01*
X161142933Y-97625690D01*
X160853923Y-97336176D01*
X160326691Y-97117250D01*
X159755813Y-97116752D01*
X159228200Y-97334757D01*
X158824176Y-97738077D01*
X158801785Y-97792000D01*
X156733191Y-97792000D01*
X156784113Y-97536000D01*
X156674880Y-96986849D01*
X156363811Y-96521302D01*
X155981725Y-96266000D01*
X156363811Y-96010698D01*
X156674880Y-95545151D01*
X156784113Y-94996000D01*
X156674880Y-94446849D01*
X156363811Y-93981302D01*
X155898264Y-93670233D01*
X155349113Y-93561000D01*
X155292887Y-93561000D01*
X154743736Y-93670233D01*
X154278189Y-93981302D01*
X153967120Y-94446849D01*
X153857887Y-94996000D01*
X153967120Y-95545151D01*
X154278189Y-96010698D01*
X154660275Y-96266000D01*
X154278189Y-96521302D01*
X153967120Y-96986849D01*
X153857887Y-97536000D01*
X153959332Y-98046000D01*
X149062668Y-98046000D01*
X149164113Y-97536000D01*
X149054880Y-96986849D01*
X148743811Y-96521302D01*
X148599535Y-96424899D01*
X148736317Y-96399162D01*
X148952441Y-96260090D01*
X149097431Y-96047890D01*
X149148440Y-95796000D01*
X149148440Y-94196000D01*
X149104162Y-93960683D01*
X148965090Y-93744559D01*
X148752890Y-93599569D01*
X148501000Y-93548560D01*
X146901000Y-93548560D01*
X146665683Y-93592838D01*
X146449559Y-93731910D01*
X146304569Y-93944110D01*
X146253560Y-94196000D01*
X146253560Y-95796000D01*
X146297838Y-96031317D01*
X146436910Y-96247441D01*
X146649110Y-96392431D01*
X146804089Y-96423815D01*
X146658189Y-96521302D01*
X146347120Y-96986849D01*
X146237887Y-97536000D01*
X145735555Y-97536000D01*
X145784278Y-97487363D01*
X146033716Y-96886648D01*
X146034284Y-96236205D01*
X145785894Y-95635057D01*
X145326363Y-95174722D01*
X144725648Y-94925284D01*
X144075205Y-94924716D01*
X143474057Y-95173106D01*
X143013722Y-95632637D01*
X142764284Y-96233352D01*
X142763716Y-96883795D01*
X143012106Y-97484943D01*
X143336759Y-97810164D01*
X143013722Y-98132637D01*
X142764284Y-98733352D01*
X142763716Y-99383795D01*
X143012106Y-99984943D01*
X143078621Y-100051574D01*
X142947559Y-100135910D01*
X142802569Y-100348110D01*
X142751560Y-100600000D01*
X137378557Y-100600000D01*
X137458118Y-100480930D01*
X137563925Y-99949000D01*
X137458118Y-99417070D01*
X137156803Y-98966122D01*
X136708013Y-98666249D01*
X136781263Y-98644592D01*
X137204681Y-98302076D01*
X137464793Y-97823597D01*
X137479277Y-97750971D01*
X137356683Y-97536000D01*
X135509000Y-97536000D01*
X135509000Y-97556000D01*
X135255000Y-97556000D01*
X135255000Y-97536000D01*
X135235000Y-97536000D01*
X135235000Y-97282000D01*
X135255000Y-97282000D01*
X135255000Y-96019000D01*
X135509000Y-96019000D01*
X135509000Y-97282000D01*
X137356683Y-97282000D01*
X137479277Y-97067029D01*
X137464793Y-96994403D01*
X137204681Y-96515924D01*
X136781263Y-96173408D01*
X136259000Y-96019000D01*
X135509000Y-96019000D01*
X135255000Y-96019000D01*
X134505000Y-96019000D01*
X134060000Y-96150565D01*
X134060000Y-94771732D01*
X134079309Y-94779750D01*
X134650187Y-94780248D01*
X135177800Y-94562243D01*
X135581824Y-94158923D01*
X135800750Y-93631691D01*
X135801000Y-93345000D01*
X140522887Y-93345000D01*
X140632120Y-93894151D01*
X140943189Y-94359698D01*
X141408736Y-94670767D01*
X141957887Y-94780000D01*
X142014113Y-94780000D01*
X142563264Y-94670767D01*
X143028811Y-94359698D01*
X143339880Y-93894151D01*
X143449113Y-93345000D01*
X143339880Y-92795849D01*
X143028811Y-92330302D01*
X142563264Y-92019233D01*
X142014113Y-91910000D01*
X141957887Y-91910000D01*
X141408736Y-92019233D01*
X140943189Y-92330302D01*
X140632120Y-92795849D01*
X140522887Y-93345000D01*
X135801000Y-93345000D01*
X135801248Y-93060813D01*
X135583243Y-92533200D01*
X135179923Y-92129176D01*
X134652691Y-91910250D01*
X134081813Y-91909752D01*
X134060000Y-91918765D01*
X134060000Y-91310435D01*
X134177637Y-91428278D01*
X134778352Y-91677716D01*
X135428795Y-91678284D01*
X136029943Y-91429894D01*
X136490278Y-90970363D01*
X136559773Y-90803000D01*
X140149953Y-90803000D01*
X140218106Y-90967943D01*
X140677637Y-91428278D01*
X141278352Y-91677716D01*
X141928795Y-91678284D01*
X142529943Y-91429894D01*
X142990278Y-90970363D01*
X143239716Y-90369648D01*
X143240284Y-89719205D01*
X143002201Y-89143000D01*
X143613560Y-89143000D01*
X143613560Y-90943000D01*
X143657838Y-91178317D01*
X143796910Y-91394441D01*
X144009110Y-91539431D01*
X144261000Y-91590440D01*
X146061000Y-91590440D01*
X146296317Y-91546162D01*
X146512441Y-91407090D01*
X146657431Y-91194890D01*
X146661567Y-91174466D01*
X146830357Y-91343551D01*
X147394330Y-91577733D01*
X148004991Y-91578265D01*
X148569371Y-91345068D01*
X149001551Y-90913643D01*
X149235733Y-90349670D01*
X149236265Y-89739009D01*
X149003068Y-89174629D01*
X148571643Y-88742449D01*
X148007670Y-88508267D01*
X147397009Y-88507735D01*
X146832629Y-88740932D01*
X146664387Y-88908880D01*
X146664162Y-88907683D01*
X146525090Y-88691559D01*
X146312890Y-88546569D01*
X146061000Y-88495560D01*
X144261000Y-88495560D01*
X144025683Y-88539838D01*
X143809559Y-88678910D01*
X143664569Y-88891110D01*
X143613560Y-89143000D01*
X143002201Y-89143000D01*
X142991894Y-89118057D01*
X142532363Y-88657722D01*
X141931648Y-88408284D01*
X141281205Y-88407716D01*
X140680057Y-88656106D01*
X140219722Y-89115637D01*
X140150227Y-89283000D01*
X136560047Y-89283000D01*
X136491894Y-89118057D01*
X136032363Y-88657722D01*
X135431648Y-88408284D01*
X134781205Y-88407716D01*
X134180057Y-88656106D01*
X134060000Y-88775953D01*
X134060000Y-86767608D01*
X134132074Y-86695534D01*
X134230736Y-86962387D01*
X134840461Y-87188908D01*
X135490460Y-87164856D01*
X135979264Y-86962387D01*
X136077927Y-86695532D01*
X140632073Y-86695532D01*
X140730736Y-86962387D01*
X141340461Y-87188908D01*
X141990460Y-87164856D01*
X142479264Y-86962387D01*
X142577927Y-86695532D01*
X141605000Y-85722605D01*
X140632073Y-86695532D01*
X136077927Y-86695532D01*
X135105000Y-85722605D01*
X135090858Y-85736748D01*
X134911253Y-85557143D01*
X134925395Y-85543000D01*
X134911253Y-85528858D01*
X135090858Y-85349253D01*
X135105000Y-85363395D01*
X135119143Y-85349253D01*
X135298748Y-85528858D01*
X135284605Y-85543000D01*
X136257532Y-86515927D01*
X136524387Y-86417264D01*
X136750908Y-85807539D01*
X136726856Y-85157540D01*
X136524387Y-84668736D01*
X136257534Y-84570074D01*
X136371814Y-84455794D01*
X136319020Y-84403000D01*
X140390980Y-84403000D01*
X140338186Y-84455794D01*
M02*
