M48
INCH,TZ
T1C0.031
T2C0.035
T3C0.039
T4C0.043
T5C0.047
%
G90
G05
T1
X52900Y-36750
X52900Y-41150
X55900Y-36750
X55900Y-41150
X58150Y-37400
X58150Y-38400
X58150Y-39400
X58150Y-40400
X59500Y-33450
X59500Y-44350
X61150Y-37400
X61150Y-38400
X61150Y-39400
X61150Y-40400
X62500Y-33450
X62500Y-44350
T2
X57150Y-35450
X57150Y-42400
X58150Y-35450
X58150Y-42400
X61150Y-35400
X61150Y-42400
X62150Y-35400
X62150Y-42400
T3
X53300Y-38350
X53300Y-39350
X63008Y-38800
X66000Y-38800
T4
X53191Y-33678
X53191Y-35450
X53200Y-42400
X53200Y-44172
X55750Y-33678
X55750Y-35450
X55759Y-42400
X55759Y-44172
X63541Y-33628
X63541Y-35400
X63550Y-42400
X63550Y-44172
X66100Y-33628
X66100Y-35400
X66109Y-42400
X66109Y-44172
T5
X56850Y-38016
X56850Y-39000
X56850Y-40000
T0
M30
