M48
INCH,TZ
T1C0.028
T2C0.031
T3C0.032
T4C0.035
T5C0.039
T6C0.043
T7C0.047
T8C0.098
%
G90
G05
T1
X49508Y-12500
X49508Y-14500
T2
X14311Y-18461
X14311Y-19461
X14311Y-20461
X14311Y-21461
X14311Y-22461
X14311Y-23461
X14311Y-24461
X14311Y-25461
X14311Y-26461
X14311Y-27461
X14311Y-28461
X14311Y-29461
X14311Y-30461
X14311Y-31461
X14311Y-32461
X15169Y-37421
X16169Y-37421
X17169Y-37421
X18169Y-37421
X19169Y-37421
X20169Y-37421
X20311Y-18461
X20311Y-19461
X20311Y-20461
X20311Y-21461
X20311Y-22461
X20311Y-23461
X20311Y-24461
X20311Y-25461
X20311Y-26461
X20311Y-27461
X20311Y-28461
X20311Y-29461
X20311Y-30461
X20311Y-31461
X20311Y-32461
X21169Y-37421
X21752Y-20453
X21752Y-21453
X21752Y-22453
X21752Y-23453
X21752Y-24453
X21752Y-25453
X21752Y-26453
X21752Y-27453
X21752Y-28453
X21752Y-29453
X23388Y-45863
X23900Y-27475
X23900Y-30475
X24387Y-45863
X25388Y-45863
X38898Y-36693
X38898Y-38661
X40945Y-36693
X40945Y-38661
X45965Y-15945
X46965Y-14945
X47965Y-15945
T3
X29150Y-41575
X29150Y-43544
X34071Y-41575
X34071Y-43544
X45625Y-41600
X45625Y-43569
X50546Y-41600
X50546Y-43569
T4
X19813Y-43863
X22813Y-43863
T5
X13625Y-45250
X14625Y-45250
X15625Y-45250
X16625Y-45250
X20987Y-45838
X21988Y-45838
X29370Y-22756
X30370Y-22756
X31370Y-22756
X39125Y-45625
X40125Y-45625
T6
X15039Y-40118
X15039Y-41890
X17598Y-40118
X17598Y-41890
X38937Y-30079
X38937Y-35787
X39921Y-35787
X40906Y-30079
X40906Y-35787
T7
X35531Y-11319
X36531Y-11319
X37531Y-11319
X38531Y-11319
X39531Y-11319
X40531Y-11319
X41531Y-11319
X42531Y-11319
X43531Y-11319
X44531Y-11319
X45531Y-11319
X46531Y-11319
X47531Y-11319
X48531Y-11319
X49531Y-11319
X50531Y-11319
T8
X33366Y-11319
X33366Y-23524
X37480Y-32835
X42362Y-32835
X62893Y-23524
X62894Y-11319
T0
M30
