G04 #@! TF.FileFunction,Legend,Bot*
%FSLAX46Y46*%
G04 Gerber Fmt 4.6, Leading zero omitted, Abs format (unit mm)*
G04 Created by KiCad (PCBNEW 4.0.7) date 12/06/18 02:32:05*
%MOMM*%
%LPD*%
G01*
G04 APERTURE LIST*
%ADD10C,0.100000*%
%ADD11C,0.120000*%
%ADD12C,0.150000*%
G04 APERTURE END LIST*
D10*
D11*
X37620000Y-81180000D02*
X37620000Y-83720000D01*
X37620000Y-83720000D02*
X34950000Y-83720000D01*
X34950000Y-81180000D02*
X34950000Y-42950000D01*
X34950000Y-86390000D02*
X34950000Y-83720000D01*
X50320000Y-83720000D02*
X52990000Y-83720000D01*
X50320000Y-83720000D02*
X50320000Y-45620000D01*
X50320000Y-45620000D02*
X52990000Y-45620000D01*
X37620000Y-81180000D02*
X34950000Y-81180000D01*
X37620000Y-81180000D02*
X37620000Y-45620000D01*
X37620000Y-45620000D02*
X34950000Y-45620000D01*
X34950000Y-42950000D02*
X52990000Y-42950000D01*
X52990000Y-42950000D02*
X52990000Y-86390000D01*
X52990000Y-86390000D02*
X34950000Y-86390000D01*
X124890000Y-32430000D02*
X124890000Y-36150000D01*
X126610000Y-32430000D02*
X126610000Y-36150000D01*
X39200000Y-100900000D02*
X43700000Y-100900000D01*
X37950000Y-104900000D02*
X37950000Y-103400000D01*
X43700000Y-107400000D02*
X39200000Y-107400000D01*
X44950000Y-103400000D02*
X44950000Y-104900000D01*
X53850000Y-50510000D02*
X56650000Y-50510000D01*
X56650000Y-50510000D02*
X56650000Y-76250000D01*
X56650000Y-76250000D02*
X53850000Y-76250000D01*
X53850000Y-76250000D02*
X53850000Y-50510000D01*
X53850000Y-53220000D02*
X56650000Y-53220000D01*
X122650000Y-44120000D02*
X122650000Y-41111000D01*
X122650000Y-39889000D02*
X122650000Y-37000000D01*
X115930000Y-44120000D02*
X115930000Y-41111000D01*
X115930000Y-39889000D02*
X115930000Y-37000000D01*
X122650000Y-44120000D02*
X115930000Y-44120000D01*
X122650000Y-37000000D02*
X115930000Y-37000000D01*
X81010000Y-56470000D02*
X81010000Y-59130000D01*
X75870000Y-56470000D02*
X81010000Y-56470000D01*
X75870000Y-59130000D02*
X81010000Y-59130000D01*
X75870000Y-56470000D02*
X75870000Y-59130000D01*
X74600000Y-56470000D02*
X73270000Y-56470000D01*
X73270000Y-56470000D02*
X73270000Y-57800000D01*
X105310000Y-98260000D02*
X105310000Y-93140000D01*
X102690000Y-98260000D02*
X102690000Y-93140000D01*
X105310000Y-98260000D02*
X104996000Y-98260000D01*
X103004000Y-98260000D02*
X102690000Y-98260000D01*
X105310000Y-93140000D02*
X104996000Y-93140000D01*
X103004000Y-93140000D02*
X102690000Y-93140000D01*
X100110000Y-98260000D02*
X100110000Y-93140000D01*
X97490000Y-98260000D02*
X97490000Y-93140000D01*
X100110000Y-98260000D02*
X99796000Y-98260000D01*
X97804000Y-98260000D02*
X97490000Y-98260000D01*
X100110000Y-93140000D02*
X99796000Y-93140000D01*
X97804000Y-93140000D02*
X97490000Y-93140000D01*
X51473750Y-112820750D02*
X51473750Y-110000750D01*
X51473750Y-110000750D02*
X56793750Y-110000750D01*
X56793750Y-110000750D02*
X56793750Y-112820750D01*
X56793750Y-112820750D02*
X51473750Y-112820750D01*
X51403750Y-111410750D02*
X51473750Y-111410750D01*
X56863750Y-111410750D02*
X56793750Y-111410750D01*
X52313750Y-112820750D02*
X52313750Y-110000750D01*
X57178250Y-115097250D02*
X57178250Y-117757250D01*
X54578250Y-115097250D02*
X57178250Y-115097250D01*
X54578250Y-117757250D02*
X57178250Y-117757250D01*
X54578250Y-115097250D02*
X54578250Y-117757250D01*
X53308250Y-115097250D02*
X51978250Y-115097250D01*
X51978250Y-115097250D02*
X51978250Y-116427250D01*
X59726000Y-70386500D02*
X59396000Y-70386500D01*
X59396000Y-70386500D02*
X59396000Y-76806500D01*
X59396000Y-76806500D02*
X59726000Y-76806500D01*
X61686000Y-70386500D02*
X62016000Y-70386500D01*
X62016000Y-70386500D02*
X62016000Y-76806500D01*
X62016000Y-76806500D02*
X61686000Y-76806500D01*
X63744250Y-118340750D02*
X60144250Y-118340750D01*
X64268434Y-117613545D02*
G75*
G02X63744250Y-118340750I-2324184J1122795D01*
G01*
X64300650Y-115391943D02*
G75*
G03X61944250Y-113890750I-2356400J-1098807D01*
G01*
X59587850Y-115391943D02*
G75*
G02X61944250Y-113890750I2356400J-1098807D01*
G01*
X59620066Y-117613545D02*
G75*
G03X60144250Y-118340750I2324184J1122795D01*
G01*
X43557500Y-113605000D02*
X43557500Y-116265000D01*
X35877500Y-113605000D02*
X43557500Y-113605000D01*
X35877500Y-116265000D02*
X43557500Y-116265000D01*
X35877500Y-113605000D02*
X35877500Y-116265000D01*
X34607500Y-113605000D02*
X33277500Y-113605000D01*
X33277500Y-113605000D02*
X33277500Y-114935000D01*
X100647500Y-114557500D02*
X103247500Y-114557500D01*
X103247500Y-114557500D02*
X103247500Y-117217500D01*
X103247500Y-117217500D02*
X100647500Y-117217500D01*
X100647500Y-117217500D02*
X100647500Y-114557500D01*
X99377500Y-114557500D02*
X98047500Y-114557500D01*
X98047500Y-114557500D02*
X98047500Y-115887500D01*
D12*
X44684286Y-87696667D02*
X44208095Y-87696667D01*
X44779524Y-87982381D02*
X44446191Y-86982381D01*
X44112857Y-87982381D01*
X43255714Y-87982381D02*
X43827143Y-87982381D01*
X43541429Y-87982381D02*
X43541429Y-86982381D01*
X43636667Y-87125238D01*
X43731905Y-87220476D01*
X43827143Y-87268095D01*
X124342381Y-34123334D02*
X123866190Y-33790000D01*
X124342381Y-33551905D02*
X123342381Y-33551905D01*
X123342381Y-33932858D01*
X123390000Y-34028096D01*
X123437619Y-34075715D01*
X123532857Y-34123334D01*
X123675714Y-34123334D01*
X123770952Y-34075715D01*
X123818571Y-34028096D01*
X123866190Y-33932858D01*
X123866190Y-33551905D01*
X124342381Y-35075715D02*
X124342381Y-34504286D01*
X124342381Y-34790000D02*
X123342381Y-34790000D01*
X123485238Y-34694762D01*
X123580476Y-34599524D01*
X123628095Y-34504286D01*
X43164286Y-108852381D02*
X43497620Y-108376190D01*
X43735715Y-108852381D02*
X43735715Y-107852381D01*
X43354762Y-107852381D01*
X43259524Y-107900000D01*
X43211905Y-107947619D01*
X43164286Y-108042857D01*
X43164286Y-108185714D01*
X43211905Y-108280952D01*
X43259524Y-108328571D01*
X43354762Y-108376190D01*
X43735715Y-108376190D01*
X42354762Y-108804762D02*
X42450000Y-108852381D01*
X42640477Y-108852381D01*
X42735715Y-108804762D01*
X42783334Y-108709524D01*
X42783334Y-108328571D01*
X42735715Y-108233333D01*
X42640477Y-108185714D01*
X42450000Y-108185714D01*
X42354762Y-108233333D01*
X42307143Y-108328571D01*
X42307143Y-108423810D01*
X42783334Y-108519048D01*
X41926191Y-108804762D02*
X41830953Y-108852381D01*
X41640477Y-108852381D01*
X41545238Y-108804762D01*
X41497619Y-108709524D01*
X41497619Y-108661905D01*
X41545238Y-108566667D01*
X41640477Y-108519048D01*
X41783334Y-108519048D01*
X41878572Y-108471429D01*
X41926191Y-108376190D01*
X41926191Y-108328571D01*
X41878572Y-108233333D01*
X41783334Y-108185714D01*
X41640477Y-108185714D01*
X41545238Y-108233333D01*
X40688095Y-108804762D02*
X40783333Y-108852381D01*
X40973810Y-108852381D01*
X41069048Y-108804762D01*
X41116667Y-108709524D01*
X41116667Y-108328571D01*
X41069048Y-108233333D01*
X40973810Y-108185714D01*
X40783333Y-108185714D01*
X40688095Y-108233333D01*
X40640476Y-108328571D01*
X40640476Y-108423810D01*
X41116667Y-108519048D01*
X40354762Y-108185714D02*
X39973810Y-108185714D01*
X40211905Y-107852381D02*
X40211905Y-108709524D01*
X40164286Y-108804762D01*
X40069048Y-108852381D01*
X39973810Y-108852381D01*
X39116666Y-108852381D02*
X39688095Y-108852381D01*
X39402381Y-108852381D02*
X39402381Y-107852381D01*
X39497619Y-107995238D01*
X39592857Y-108090476D01*
X39688095Y-108138095D01*
X53302381Y-63959524D02*
X52826190Y-63626190D01*
X53302381Y-63388095D02*
X52302381Y-63388095D01*
X52302381Y-63769048D01*
X52350000Y-63864286D01*
X52397619Y-63911905D01*
X52492857Y-63959524D01*
X52635714Y-63959524D01*
X52730952Y-63911905D01*
X52778571Y-63864286D01*
X52826190Y-63769048D01*
X52826190Y-63388095D01*
X53302381Y-64388095D02*
X52302381Y-64388095D01*
X53302381Y-64959524D01*
X52302381Y-64959524D01*
X53302381Y-65959524D02*
X53302381Y-65388095D01*
X53302381Y-65673809D02*
X52302381Y-65673809D01*
X52445238Y-65578571D01*
X52540476Y-65483333D01*
X52588095Y-65388095D01*
X124292381Y-39964762D02*
X123816190Y-39631428D01*
X124292381Y-39393333D02*
X123292381Y-39393333D01*
X123292381Y-39774286D01*
X123340000Y-39869524D01*
X123387619Y-39917143D01*
X123482857Y-39964762D01*
X123625714Y-39964762D01*
X123720952Y-39917143D01*
X123768571Y-39869524D01*
X123816190Y-39774286D01*
X123816190Y-39393333D01*
X123292381Y-40250476D02*
X124292381Y-40583809D01*
X123292381Y-40917143D01*
X124292381Y-41774286D02*
X124292381Y-41202857D01*
X124292381Y-41488571D02*
X123292381Y-41488571D01*
X123435238Y-41393333D01*
X123530476Y-41298095D01*
X123578095Y-41202857D01*
X71722381Y-57038095D02*
X72531905Y-57038095D01*
X72627143Y-57085714D01*
X72674762Y-57133333D01*
X72722381Y-57228571D01*
X72722381Y-57419048D01*
X72674762Y-57514286D01*
X72627143Y-57561905D01*
X72531905Y-57609524D01*
X71722381Y-57609524D01*
X71817619Y-58038095D02*
X71770000Y-58085714D01*
X71722381Y-58180952D01*
X71722381Y-58419048D01*
X71770000Y-58514286D01*
X71817619Y-58561905D01*
X71912857Y-58609524D01*
X72008095Y-58609524D01*
X72150952Y-58561905D01*
X72722381Y-57990476D01*
X72722381Y-58609524D01*
X106917143Y-95533334D02*
X106964762Y-95485715D01*
X107012381Y-95342858D01*
X107012381Y-95247620D01*
X106964762Y-95104762D01*
X106869524Y-95009524D01*
X106774286Y-94961905D01*
X106583810Y-94914286D01*
X106440952Y-94914286D01*
X106250476Y-94961905D01*
X106155238Y-95009524D01*
X106060000Y-95104762D01*
X106012381Y-95247620D01*
X106012381Y-95342858D01*
X106060000Y-95485715D01*
X106107619Y-95533334D01*
X107012381Y-96485715D02*
X107012381Y-95914286D01*
X107012381Y-96200000D02*
X106012381Y-96200000D01*
X106155238Y-96104762D01*
X106250476Y-96009524D01*
X106298095Y-95914286D01*
X101717143Y-95533334D02*
X101764762Y-95485715D01*
X101812381Y-95342858D01*
X101812381Y-95247620D01*
X101764762Y-95104762D01*
X101669524Y-95009524D01*
X101574286Y-94961905D01*
X101383810Y-94914286D01*
X101240952Y-94914286D01*
X101050476Y-94961905D01*
X100955238Y-95009524D01*
X100860000Y-95104762D01*
X100812381Y-95247620D01*
X100812381Y-95342858D01*
X100860000Y-95485715D01*
X100907619Y-95533334D01*
X100907619Y-95914286D02*
X100860000Y-95961905D01*
X100812381Y-96057143D01*
X100812381Y-96295239D01*
X100860000Y-96390477D01*
X100907619Y-96438096D01*
X101002857Y-96485715D01*
X101098095Y-96485715D01*
X101240952Y-96438096D01*
X101812381Y-95866667D01*
X101812381Y-96485715D01*
X54871845Y-114273131D02*
X54871845Y-113273131D01*
X54633750Y-113273131D01*
X54490892Y-113320750D01*
X54395654Y-113415988D01*
X54348035Y-113511226D01*
X54300416Y-113701702D01*
X54300416Y-113844560D01*
X54348035Y-114035036D01*
X54395654Y-114130274D01*
X54490892Y-114225512D01*
X54633750Y-114273131D01*
X54871845Y-114273131D01*
X53348035Y-114273131D02*
X53919464Y-114273131D01*
X53633750Y-114273131D02*
X53633750Y-113273131D01*
X53728988Y-113415988D01*
X53824226Y-113511226D01*
X53919464Y-113558845D01*
X50430631Y-116093917D02*
X51144917Y-116093917D01*
X51287774Y-116046297D01*
X51383012Y-115951059D01*
X51430631Y-115808202D01*
X51430631Y-115712964D01*
X50430631Y-116474869D02*
X50430631Y-117093917D01*
X50811583Y-116760583D01*
X50811583Y-116903441D01*
X50859202Y-116998679D01*
X50906821Y-117046298D01*
X51002060Y-117093917D01*
X51240155Y-117093917D01*
X51335393Y-117046298D01*
X51383012Y-116998679D01*
X51430631Y-116903441D01*
X51430631Y-116617726D01*
X51383012Y-116522488D01*
X51335393Y-116474869D01*
X58848381Y-73429834D02*
X58372190Y-73096500D01*
X58848381Y-72858405D02*
X57848381Y-72858405D01*
X57848381Y-73239358D01*
X57896000Y-73334596D01*
X57943619Y-73382215D01*
X58038857Y-73429834D01*
X58181714Y-73429834D01*
X58276952Y-73382215D01*
X58324571Y-73334596D01*
X58372190Y-73239358D01*
X58372190Y-72858405D01*
X57943619Y-73810786D02*
X57896000Y-73858405D01*
X57848381Y-73953643D01*
X57848381Y-74191739D01*
X57896000Y-74286977D01*
X57943619Y-74334596D01*
X58038857Y-74382215D01*
X58134095Y-74382215D01*
X58276952Y-74334596D01*
X58848381Y-73763167D01*
X58848381Y-74382215D01*
X62039488Y-113478369D02*
X62134726Y-113430750D01*
X62229964Y-113335512D01*
X62372821Y-113192655D01*
X62468060Y-113145036D01*
X62563298Y-113145036D01*
X62515679Y-113383131D02*
X62610917Y-113335512D01*
X62706155Y-113240274D01*
X62753774Y-113049798D01*
X62753774Y-112716464D01*
X62706155Y-112525988D01*
X62610917Y-112430750D01*
X62515679Y-112383131D01*
X62325202Y-112383131D01*
X62229964Y-112430750D01*
X62134726Y-112525988D01*
X62087107Y-112716464D01*
X62087107Y-113049798D01*
X62134726Y-113240274D01*
X62229964Y-113335512D01*
X62325202Y-113383131D01*
X62515679Y-113383131D01*
X61134726Y-113383131D02*
X61706155Y-113383131D01*
X61420441Y-113383131D02*
X61420441Y-112383131D01*
X61515679Y-112525988D01*
X61610917Y-112621226D01*
X61706155Y-112668845D01*
X31729881Y-114601667D02*
X32444167Y-114601667D01*
X32587024Y-114554047D01*
X32682262Y-114458809D01*
X32729881Y-114315952D01*
X32729881Y-114220714D01*
X31825119Y-115030238D02*
X31777500Y-115077857D01*
X31729881Y-115173095D01*
X31729881Y-115411191D01*
X31777500Y-115506429D01*
X31825119Y-115554048D01*
X31920357Y-115601667D01*
X32015595Y-115601667D01*
X32158452Y-115554048D01*
X32729881Y-114982619D01*
X32729881Y-115601667D01*
X96499881Y-115554167D02*
X97214167Y-115554167D01*
X97357024Y-115506547D01*
X97452262Y-115411309D01*
X97499881Y-115268452D01*
X97499881Y-115173214D01*
X97499881Y-116554167D02*
X97499881Y-115982738D01*
X97499881Y-116268452D02*
X96499881Y-116268452D01*
X96642738Y-116173214D01*
X96737976Y-116077976D01*
X96785595Y-115982738D01*
M02*
