G04 #@! TF.FileFunction,Soldermask,Bot*
%FSLAX46Y46*%
G04 Gerber Fmt 4.6, Leading zero omitted, Abs format (unit mm)*
G04 Created by KiCad (PCBNEW 4.0.7) date 12/06/18 02:32:05*
%MOMM*%
%LPD*%
G01*
G04 APERTURE LIST*
%ADD10C,0.100000*%
%ADD11O,3.448000X2.127200*%
%ADD12C,2.150000*%
%ADD13O,4.400000X4.400000*%
%ADD14O,1.800000X2.400000*%
%ADD15R,2.000000X2.000000*%
%ADD16O,2.000000X2.000000*%
%ADD17R,2.200000X3.000000*%
%ADD18O,2.200000X3.000000*%
%ADD19C,3.400000*%
%ADD20C,1.800000*%
%ADD21O,1.800000X1.800000*%
%ADD22C,2.400000*%
%ADD23C,1.840000*%
%ADD24R,2.100000X2.100000*%
%ADD25O,2.100000X2.100000*%
%ADD26C,2.000000*%
%ADD27R,2.200000X2.200000*%
%ADD28O,2.200000X2.200000*%
%ADD29C,1.920000*%
%ADD30R,1.920000X1.920000*%
G04 APERTURE END LIST*
D10*
D11*
X128387500Y-105664000D03*
X128387500Y-110664000D03*
X115887500Y-105664000D03*
X115887500Y-110664000D03*
X86541000Y-105600500D03*
X86541000Y-110600500D03*
X74041000Y-105600500D03*
X74041000Y-110600500D03*
D12*
X98900000Y-90900000D03*
X103900000Y-90900000D03*
X101400000Y-90900000D03*
X103900000Y-76400000D03*
X98900000Y-76400000D03*
D13*
X107600000Y-83400000D03*
X95200000Y-83400000D03*
D14*
X38530000Y-95050000D03*
X41070000Y-95050000D03*
X43610000Y-95050000D03*
X46150000Y-95050000D03*
X48690000Y-95050000D03*
X51230000Y-95050000D03*
X53770000Y-95050000D03*
D15*
X36350000Y-82450000D03*
D16*
X51590000Y-49430000D03*
X36350000Y-79910000D03*
X51590000Y-51970000D03*
X36350000Y-77370000D03*
X51590000Y-54510000D03*
X36350000Y-74830000D03*
X51590000Y-57050000D03*
X36350000Y-72290000D03*
X51590000Y-59590000D03*
X36350000Y-69750000D03*
X51590000Y-62130000D03*
X36350000Y-67210000D03*
X51590000Y-64670000D03*
X36350000Y-64670000D03*
X51590000Y-67210000D03*
X36350000Y-62130000D03*
X51590000Y-69750000D03*
X36350000Y-59590000D03*
X51590000Y-72290000D03*
X36350000Y-57050000D03*
X51590000Y-74830000D03*
X36350000Y-54510000D03*
X51590000Y-77370000D03*
X36350000Y-51970000D03*
X51590000Y-79910000D03*
X36350000Y-49430000D03*
X51590000Y-82450000D03*
X36350000Y-46890000D03*
X51590000Y-46890000D03*
D17*
X90250000Y-28750000D03*
D18*
X92790000Y-28750000D03*
X95330000Y-28750000D03*
X97870000Y-28750000D03*
X100410000Y-28750000D03*
X102950000Y-28750000D03*
X105490000Y-28750000D03*
X108030000Y-28750000D03*
X110570000Y-28750000D03*
X113110000Y-28750000D03*
X115650000Y-28750000D03*
X118190000Y-28750000D03*
X120730000Y-28750000D03*
X123270000Y-28750000D03*
X125810000Y-28750000D03*
X128350000Y-28750000D03*
D19*
X84750900Y-28750000D03*
X84750900Y-59750700D03*
X159749480Y-59750700D03*
X159750000Y-28750000D03*
D20*
X125750000Y-31750000D03*
D21*
X125750000Y-36830000D03*
D22*
X38200000Y-101900000D03*
X38200000Y-106400000D03*
X44700000Y-101900000D03*
X44700000Y-106400000D03*
D15*
X55250000Y-51950000D03*
D16*
X55250000Y-54490000D03*
X55250000Y-57030000D03*
X55250000Y-59570000D03*
X55250000Y-62110000D03*
X55250000Y-64650000D03*
X55250000Y-67190000D03*
X55250000Y-69730000D03*
X55250000Y-72270000D03*
X55250000Y-74810000D03*
D23*
X121830000Y-40500000D03*
X119290000Y-37960000D03*
X116750000Y-40500000D03*
D24*
X74600000Y-57800000D03*
D25*
X77140000Y-57800000D03*
X79680000Y-57800000D03*
D26*
X104000000Y-98200000D03*
X104000000Y-93200000D03*
X98800000Y-98200000D03*
X98800000Y-93200000D03*
D27*
X50323750Y-111410750D03*
D28*
X57943750Y-111410750D03*
D24*
X53308250Y-116427250D03*
D25*
X55848250Y-116427250D03*
D26*
X60706000Y-69786500D03*
D16*
X60706000Y-77406500D03*
D29*
X61944250Y-116490750D03*
X59404250Y-116490750D03*
D30*
X64484250Y-116490750D03*
D24*
X34607500Y-114935000D03*
D25*
X37147500Y-114935000D03*
X39687500Y-114935000D03*
X42227500Y-114935000D03*
D24*
X99377500Y-115887500D03*
D25*
X101917500Y-115887500D03*
M02*
