G04 #@! TF.FileFunction,Other,User*
%FSLAX46Y46*%
G04 Gerber Fmt 4.6, Leading zero omitted, Abs format (unit mm)*
G04 Created by KiCad (PCBNEW 4.0.7) date 12/06/18 02:32:05*
%MOMM*%
%LPD*%
G01*
G04 APERTURE LIST*
%ADD10C,0.100000*%
%ADD11C,0.050000*%
G04 APERTURE END LIST*
D10*
D11*
X114117500Y-101914000D02*
X130137500Y-101914000D01*
X114117500Y-101914000D02*
X114117500Y-114414000D01*
X130137500Y-114414000D02*
X130137500Y-101914000D01*
X130137500Y-114414000D02*
X114117500Y-114414000D01*
X72271000Y-101850500D02*
X88291000Y-101850500D01*
X72271000Y-101850500D02*
X72271000Y-114350500D01*
X88291000Y-114350500D02*
X88291000Y-101850500D01*
X88291000Y-114350500D02*
X72271000Y-114350500D01*
D10*
X71650000Y-91550000D02*
X71650000Y-27550000D01*
X71650000Y-27550000D02*
X20650000Y-27550000D01*
X20650000Y-27550000D02*
X20650000Y-91550000D01*
X20650000Y-91550000D02*
X27650000Y-91550000D01*
X27650000Y-91550000D02*
X27650000Y-97050000D01*
X27650000Y-97050000D02*
X64650000Y-97050000D01*
X64650000Y-97050000D02*
X64650000Y-91550000D01*
X64650000Y-91550000D02*
X71650000Y-91550000D01*
D11*
X82000000Y-26000000D02*
X82000000Y-62500000D01*
X82000000Y-62500000D02*
X162500000Y-62500000D01*
X162500000Y-26000000D02*
X162500000Y-62500000D01*
X82000000Y-26000000D02*
X162500000Y-26000000D01*
M02*
