G04 #@! TF.FileFunction,Legend,Bot*
%FSLAX46Y46*%
G04 Gerber Fmt 4.6, Leading zero omitted, Abs format (unit mm)*
G04 Created by KiCad (PCBNEW 4.0.7) date 01/31/18 00:19:25*
%MOMM*%
%LPD*%
G01*
G04 APERTURE LIST*
%ADD10C,0.100000*%
%ADD11C,0.120000*%
%ADD12C,0.150000*%
G04 APERTURE END LIST*
D10*
D11*
X138166400Y-113730600D02*
X138166400Y-114060600D01*
X138166400Y-114060600D02*
X144586400Y-114060600D01*
X144586400Y-114060600D02*
X144586400Y-113730600D01*
X138166400Y-111770600D02*
X138166400Y-111440600D01*
X138166400Y-111440600D02*
X144586400Y-111440600D01*
X144586400Y-111440600D02*
X144586400Y-111770600D01*
X145602000Y-101362000D02*
G75*
G03X145602000Y-103362000I0J-1000000D01*
G01*
X145602000Y-103362000D02*
X145602000Y-104612000D01*
X145602000Y-104612000D02*
X135322000Y-104612000D01*
X135322000Y-104612000D02*
X135322000Y-100112000D01*
X135322000Y-100112000D02*
X145602000Y-100112000D01*
X145602000Y-100112000D02*
X145602000Y-101362000D01*
D12*
X141644666Y-113355381D02*
X141978000Y-112879190D01*
X142216095Y-113355381D02*
X142216095Y-112355381D01*
X141835142Y-112355381D01*
X141739904Y-112403000D01*
X141692285Y-112450619D01*
X141644666Y-112545857D01*
X141644666Y-112688714D01*
X141692285Y-112783952D01*
X141739904Y-112831571D01*
X141835142Y-112879190D01*
X142216095Y-112879190D01*
X141311333Y-112355381D02*
X140692285Y-112355381D01*
X141025619Y-112736333D01*
X140882761Y-112736333D01*
X140787523Y-112783952D01*
X140739904Y-112831571D01*
X140692285Y-112926810D01*
X140692285Y-113164905D01*
X140739904Y-113260143D01*
X140787523Y-113307762D01*
X140882761Y-113355381D01*
X141168476Y-113355381D01*
X141263714Y-113307762D01*
X141311333Y-113260143D01*
X146054381Y-101600095D02*
X146863905Y-101600095D01*
X146959143Y-101647714D01*
X147006762Y-101695333D01*
X147054381Y-101790571D01*
X147054381Y-101981048D01*
X147006762Y-102076286D01*
X146959143Y-102123905D01*
X146863905Y-102171524D01*
X146054381Y-102171524D01*
X147054381Y-103171524D02*
X147054381Y-102600095D01*
X147054381Y-102885809D02*
X146054381Y-102885809D01*
X146197238Y-102790571D01*
X146292476Y-102695333D01*
X146340095Y-102600095D01*
M02*
