G04 #@! TF.FileFunction,Legend,Bot*
%FSLAX46Y46*%
G04 Gerber Fmt 4.6, Leading zero omitted, Abs format (unit mm)*
G04 Created by KiCad (PCBNEW 4.0.7) date 12/08/18 06:10:40*
%MOMM*%
%LPD*%
G01*
G04 APERTURE LIST*
%ADD10C,0.100000*%
%ADD11C,0.120000*%
%ADD12C,0.150000*%
G04 APERTURE END LIST*
D10*
D11*
X73956800Y-34626000D02*
X72956800Y-34626000D01*
X72956800Y-35986000D02*
X73956800Y-35986000D01*
X119907215Y-30773427D02*
G75*
G02X114559400Y-31237430I-2787815J1080827D01*
G01*
X119907215Y-28611773D02*
G75*
G03X114559400Y-28147770I-2787815J-1080827D01*
G01*
X119373879Y-30773029D02*
G75*
G02X114864716Y-30772600I-2254479J1080429D01*
G01*
X119373879Y-28612171D02*
G75*
G03X114864716Y-28612600I-2254479J-1080429D01*
G01*
X114559400Y-31237600D02*
X114559400Y-30772600D01*
X114559400Y-28612600D02*
X114559400Y-28147600D01*
X119780215Y-51093427D02*
G75*
G02X114432400Y-51557430I-2787815J1080827D01*
G01*
X119780215Y-48931773D02*
G75*
G03X114432400Y-48467770I-2787815J-1080827D01*
G01*
X119246879Y-51093029D02*
G75*
G02X114737716Y-51092600I-2254479J1080429D01*
G01*
X119246879Y-48932171D02*
G75*
G03X114737716Y-48932600I-2254479J-1080429D01*
G01*
X114432400Y-51557600D02*
X114432400Y-51092600D01*
X114432400Y-48932600D02*
X114432400Y-48467600D01*
D12*
X73623466Y-37208381D02*
X73956800Y-36732190D01*
X74194895Y-37208381D02*
X74194895Y-36208381D01*
X73813942Y-36208381D01*
X73718704Y-36256000D01*
X73671085Y-36303619D01*
X73623466Y-36398857D01*
X73623466Y-36541714D01*
X73671085Y-36636952D01*
X73718704Y-36684571D01*
X73813942Y-36732190D01*
X74194895Y-36732190D01*
X72671085Y-37208381D02*
X73242514Y-37208381D01*
X72956800Y-37208381D02*
X72956800Y-36208381D01*
X73052038Y-36351238D01*
X73147276Y-36446476D01*
X73242514Y-36494095D01*
X117762257Y-34104981D02*
X118238448Y-34104981D01*
X118238448Y-33104981D01*
X117428924Y-33581171D02*
X117095590Y-33581171D01*
X116952733Y-34104981D02*
X117428924Y-34104981D01*
X117428924Y-33104981D01*
X116952733Y-33104981D01*
X116524162Y-34104981D02*
X116524162Y-33104981D01*
X116286067Y-33104981D01*
X116143209Y-33152600D01*
X116047971Y-33247838D01*
X116000352Y-33343076D01*
X115952733Y-33533552D01*
X115952733Y-33676410D01*
X116000352Y-33866886D01*
X116047971Y-33962124D01*
X116143209Y-34057362D01*
X116286067Y-34104981D01*
X116524162Y-34104981D01*
X117838457Y-46527981D02*
X118314648Y-46527981D01*
X118314648Y-45527981D01*
X117505124Y-46004171D02*
X117171790Y-46004171D01*
X117028933Y-46527981D02*
X117505124Y-46527981D01*
X117505124Y-45527981D01*
X117028933Y-45527981D01*
X116600362Y-46527981D02*
X116600362Y-45527981D01*
X116362267Y-45527981D01*
X116219409Y-45575600D01*
X116124171Y-45670838D01*
X116076552Y-45766076D01*
X116028933Y-45956552D01*
X116028933Y-46099410D01*
X116076552Y-46289886D01*
X116124171Y-46385124D01*
X116219409Y-46480362D01*
X116362267Y-46527981D01*
X116600362Y-46527981D01*
M02*
