G04 #@! TF.FileFunction,Copper,L2,Bot,Signal*
%FSLAX46Y46*%
G04 Gerber Fmt 4.6, Leading zero omitted, Abs format (unit mm)*
G04 Created by KiCad (PCBNEW 4.0.7) date 12/08/18 06:10:40*
%MOMM*%
%LPD*%
G01*
G04 APERTURE LIST*
%ADD10C,0.100000*%
%ADD11R,1.700000X1.700000*%
%ADD12O,1.700000X1.700000*%
%ADD13R,1.600000X1.600000*%
%ADD14O,1.600000X1.600000*%
%ADD15O,1.524000X2.524000*%
%ADD16R,1.200000X0.900000*%
%ADD17C,1.600000*%
%ADD18R,1.350000X1.350000*%
%ADD19R,2.400000X1.600000*%
%ADD20O,2.400000X1.600000*%
%ADD21R,1.800000X1.800000*%
%ADD22C,1.800000*%
%ADD23C,1.400000*%
%ADD24O,1.400000X1.400000*%
%ADD25R,1.070000X1.800000*%
%ADD26O,1.070000X1.800000*%
%ADD27C,0.250000*%
%ADD28C,0.254000*%
G04 APERTURE END LIST*
D10*
D11*
X100584000Y-28498800D03*
D12*
X100584000Y-31038800D03*
D11*
X100685600Y-48768000D03*
D12*
X100685600Y-46228000D03*
X100685600Y-43688000D03*
X100685600Y-41148000D03*
X100685600Y-38608000D03*
D13*
X93065600Y-24638000D03*
D14*
X75285600Y-32258000D03*
X90525600Y-24638000D03*
X77825600Y-32258000D03*
X87985600Y-24638000D03*
X80365600Y-32258000D03*
X85445600Y-24638000D03*
X82905600Y-32258000D03*
X82905600Y-24638000D03*
X85445600Y-32258000D03*
X80365600Y-24638000D03*
X87985600Y-32258000D03*
X77825600Y-24638000D03*
X90525600Y-32258000D03*
X75285600Y-24638000D03*
X93065600Y-32258000D03*
D15*
X83007200Y-51816000D03*
X85547200Y-51816000D03*
X88087200Y-51816000D03*
X90627200Y-51816000D03*
X93167200Y-51816000D03*
X93167200Y-36576000D03*
X90627200Y-36576000D03*
X88087200Y-36576000D03*
X85547200Y-36576000D03*
X83007200Y-36576000D03*
D11*
X75285600Y-48768000D03*
D12*
X75285600Y-46228000D03*
X75285600Y-43688000D03*
X75285600Y-41148000D03*
X75285600Y-38608000D03*
D16*
X72356800Y-35306000D03*
X74556800Y-35306000D03*
D17*
X96215200Y-39878000D03*
D14*
X96215200Y-47498000D03*
D18*
X75387200Y-52273200D03*
D19*
X113817400Y-34137600D03*
D20*
X121437400Y-41757600D03*
X113817400Y-36677600D03*
X121437400Y-39217600D03*
X113817400Y-39217600D03*
X121437400Y-36677600D03*
X113817400Y-41757600D03*
X121437400Y-34137600D03*
D11*
X107340400Y-42138600D03*
D12*
X107340400Y-39598600D03*
X107340400Y-37058600D03*
X107340400Y-34518600D03*
D21*
X122732800Y-46177200D03*
D22*
X120192800Y-46177200D03*
D21*
X115011200Y-46177200D03*
D22*
X112471200Y-46177200D03*
D11*
X127787400Y-41757600D03*
D12*
X127787400Y-39217600D03*
X127787400Y-36677600D03*
X127787400Y-34137600D03*
D23*
X125018800Y-47091600D03*
D24*
X125018800Y-42011600D03*
D23*
X110083600Y-42164000D03*
D24*
X110083600Y-47244000D03*
D25*
X115214400Y-29692600D03*
D26*
X116484400Y-29692600D03*
X117754400Y-29692600D03*
X119024400Y-29692600D03*
D25*
X115087400Y-50012600D03*
D26*
X116357400Y-50012600D03*
X117627400Y-50012600D03*
X118897400Y-50012600D03*
D27*
X100685600Y-43688000D02*
X75285600Y-43688000D01*
X100685600Y-46228000D02*
X100584000Y-46228000D01*
X100584000Y-46228000D02*
X99263200Y-44907200D01*
X99263200Y-44907200D02*
X76606400Y-44907200D01*
X76606400Y-44907200D02*
X75285600Y-46228000D01*
X96215200Y-39878000D02*
X93573600Y-39878000D01*
X91795600Y-33528000D02*
X93065600Y-32258000D01*
X91795600Y-38100000D02*
X91795600Y-33528000D01*
X93573600Y-39878000D02*
X91795600Y-38100000D01*
X77825600Y-24638000D02*
X77876400Y-24638000D01*
X77876400Y-24638000D02*
X79248000Y-23266400D01*
X79248000Y-23266400D02*
X95250000Y-23266400D01*
X95250000Y-23266400D02*
X96926400Y-24942800D01*
X96926400Y-24942800D02*
X96926400Y-27381200D01*
X96926400Y-27381200D02*
X100584000Y-31038800D01*
X100685600Y-41148000D02*
X100533200Y-41148000D01*
X100533200Y-41148000D02*
X99161600Y-42519600D01*
X99161600Y-42519600D02*
X78130400Y-42519600D01*
X78130400Y-42519600D02*
X76860400Y-41249600D01*
X76860400Y-41249600D02*
X76860400Y-33832800D01*
X76860400Y-33832800D02*
X75285600Y-32258000D01*
X75285600Y-32258000D02*
X75285600Y-32918400D01*
X93167200Y-36576000D02*
X93167200Y-34848800D01*
X93065600Y-29362400D02*
X93065600Y-24638000D01*
X94335600Y-30632400D02*
X93065600Y-29362400D01*
X94335600Y-33680400D02*
X94335600Y-30632400D01*
X93167200Y-34848800D02*
X94335600Y-33680400D01*
X85547200Y-36576000D02*
X85547200Y-34899600D01*
X82905600Y-26517600D02*
X82905600Y-24638000D01*
X86664800Y-30276800D02*
X82905600Y-26517600D01*
X86664800Y-33782000D02*
X86664800Y-30276800D01*
X85547200Y-34899600D02*
X86664800Y-33782000D01*
X83007200Y-36576000D02*
X83007200Y-34798000D01*
X80365600Y-26365200D02*
X80365600Y-24638000D01*
X84226400Y-30226000D02*
X80365600Y-26365200D01*
X84226400Y-33578800D02*
X84226400Y-30226000D01*
X83007200Y-34798000D02*
X84226400Y-33578800D01*
X100685600Y-38608000D02*
X97840800Y-41452800D01*
X85445600Y-33782000D02*
X85445600Y-32258000D01*
X84328000Y-34899600D02*
X85445600Y-33782000D01*
X84328000Y-40843200D02*
X84328000Y-34899600D01*
X84937600Y-41452800D02*
X84328000Y-40843200D01*
X97840800Y-41452800D02*
X84937600Y-41452800D01*
X75285600Y-38608000D02*
X75285600Y-36435600D01*
X75285600Y-36435600D02*
X74257600Y-35407600D01*
X96215200Y-47498000D02*
X89865200Y-47498000D01*
X88087200Y-49276000D02*
X88087200Y-51816000D01*
X89865200Y-47498000D02*
X88087200Y-49276000D01*
X88087200Y-36576000D02*
X88087200Y-36017200D01*
X120091200Y-46177200D02*
X120091200Y-45720000D01*
X120091200Y-45720000D02*
X123088400Y-42722800D01*
X123088400Y-42722800D02*
X123088400Y-38328600D01*
X123088400Y-38328600D02*
X121437400Y-36677600D01*
X121437400Y-36677600D02*
X121920000Y-36677600D01*
X121437400Y-39217600D02*
X118821200Y-39217600D01*
X108178600Y-40436800D02*
X107340400Y-39598600D01*
X117602000Y-40436800D02*
X108178600Y-40436800D01*
X118821200Y-39217600D02*
X117602000Y-40436800D01*
D28*
G36*
X78191858Y-23247740D02*
X77825600Y-23174887D01*
X77276449Y-23284120D01*
X76810902Y-23595189D01*
X76540614Y-23999703D01*
X76437989Y-23782866D01*
X76023023Y-23406959D01*
X75634639Y-23246096D01*
X75412600Y-23368085D01*
X75412600Y-24511000D01*
X75432600Y-24511000D01*
X75432600Y-24765000D01*
X75412600Y-24765000D01*
X75412600Y-25907915D01*
X75634639Y-26029904D01*
X76023023Y-25869041D01*
X76437989Y-25493134D01*
X76540614Y-25276297D01*
X76810902Y-25680811D01*
X77276449Y-25991880D01*
X77825600Y-26101113D01*
X78374751Y-25991880D01*
X78840298Y-25680811D01*
X79095600Y-25298725D01*
X79350902Y-25680811D01*
X79605600Y-25850995D01*
X79605600Y-26365200D01*
X79663452Y-26656039D01*
X79828199Y-26902601D01*
X83466400Y-30540802D01*
X83466400Y-30911904D01*
X83454751Y-30904120D01*
X82905600Y-30794887D01*
X82356449Y-30904120D01*
X81890902Y-31215189D01*
X81635600Y-31597275D01*
X81380298Y-31215189D01*
X80914751Y-30904120D01*
X80365600Y-30794887D01*
X79816449Y-30904120D01*
X79350902Y-31215189D01*
X79095600Y-31597275D01*
X78840298Y-31215189D01*
X78374751Y-30904120D01*
X77825600Y-30794887D01*
X77276449Y-30904120D01*
X76810902Y-31215189D01*
X76555600Y-31597275D01*
X76300298Y-31215189D01*
X75834751Y-30904120D01*
X75285600Y-30794887D01*
X74736449Y-30904120D01*
X74270902Y-31215189D01*
X73959833Y-31680736D01*
X73850600Y-32229887D01*
X73850600Y-32286113D01*
X73959833Y-32835264D01*
X74270902Y-33300811D01*
X74736449Y-33611880D01*
X75285600Y-33721113D01*
X75609486Y-33656688D01*
X76100400Y-34147602D01*
X76100400Y-37381315D01*
X76045600Y-37344699D01*
X76045600Y-36435600D01*
X75987748Y-36144761D01*
X75823001Y-35898199D01*
X75783453Y-35858651D01*
X75804240Y-35756000D01*
X75804240Y-34856000D01*
X75759962Y-34620683D01*
X75620890Y-34404559D01*
X75408690Y-34259569D01*
X75156800Y-34208560D01*
X73956800Y-34208560D01*
X73721483Y-34252838D01*
X73505359Y-34391910D01*
X73458831Y-34460006D01*
X73316498Y-34317673D01*
X73083109Y-34221000D01*
X72642550Y-34221000D01*
X72483800Y-34379750D01*
X72483800Y-35179000D01*
X72503800Y-35179000D01*
X72503800Y-35433000D01*
X72483800Y-35433000D01*
X72483800Y-36232250D01*
X72642550Y-36391000D01*
X73083109Y-36391000D01*
X73316498Y-36294327D01*
X73457736Y-36153090D01*
X73492710Y-36207441D01*
X73704910Y-36352431D01*
X73956800Y-36403440D01*
X74178638Y-36403440D01*
X74525600Y-36750402D01*
X74525600Y-37344699D01*
X74206453Y-37557946D01*
X73884546Y-38039715D01*
X73771507Y-38608000D01*
X73884546Y-39176285D01*
X74206453Y-39658054D01*
X74535626Y-39878000D01*
X74206453Y-40097946D01*
X73884546Y-40579715D01*
X73771507Y-41148000D01*
X73884546Y-41716285D01*
X74206453Y-42198054D01*
X74535626Y-42418000D01*
X74206453Y-42637946D01*
X73884546Y-43119715D01*
X73771507Y-43688000D01*
X73884546Y-44256285D01*
X74206453Y-44738054D01*
X74535626Y-44958000D01*
X74206453Y-45177946D01*
X73884546Y-45659715D01*
X73771507Y-46228000D01*
X73884546Y-46796285D01*
X74206453Y-47278054D01*
X74250377Y-47307403D01*
X74075902Y-47379673D01*
X73897273Y-47558301D01*
X73800600Y-47791690D01*
X73800600Y-48482250D01*
X73959350Y-48641000D01*
X75158600Y-48641000D01*
X75158600Y-48621000D01*
X75412600Y-48621000D01*
X75412600Y-48641000D01*
X76611850Y-48641000D01*
X76770600Y-48482250D01*
X76770600Y-47791690D01*
X76673927Y-47558301D01*
X76495298Y-47379673D01*
X76320823Y-47307403D01*
X76364747Y-47278054D01*
X76686654Y-46796285D01*
X76799693Y-46228000D01*
X76726810Y-45861592D01*
X76921202Y-45667200D01*
X98948398Y-45667200D01*
X99227534Y-45946336D01*
X99171507Y-46228000D01*
X99284546Y-46796285D01*
X99606453Y-47278054D01*
X99650377Y-47307403D01*
X99475902Y-47379673D01*
X99297273Y-47558301D01*
X99200600Y-47791690D01*
X99200600Y-48482250D01*
X99359350Y-48641000D01*
X100558600Y-48641000D01*
X100558600Y-48621000D01*
X100812600Y-48621000D01*
X100812600Y-48641000D01*
X102011850Y-48641000D01*
X102170600Y-48482250D01*
X102170600Y-47791690D01*
X102073927Y-47558301D01*
X101895298Y-47379673D01*
X101720823Y-47307403D01*
X101764747Y-47278054D01*
X102086654Y-46796285D01*
X102199693Y-46228000D01*
X102086654Y-45659715D01*
X101764747Y-45177946D01*
X101435574Y-44958000D01*
X101764747Y-44738054D01*
X102086654Y-44256285D01*
X102199693Y-43688000D01*
X102086654Y-43119715D01*
X101764747Y-42637946D01*
X101435574Y-42418000D01*
X101764747Y-42198054D01*
X102086654Y-41716285D01*
X102199693Y-41148000D01*
X102086654Y-40579715D01*
X101764747Y-40097946D01*
X101435574Y-39878000D01*
X101764747Y-39658054D01*
X102086654Y-39176285D01*
X102199693Y-38608000D01*
X102086654Y-38039715D01*
X101764747Y-37557946D01*
X101282978Y-37236039D01*
X100714693Y-37123000D01*
X100656507Y-37123000D01*
X100088222Y-37236039D01*
X99606453Y-37557946D01*
X99284546Y-38039715D01*
X99171507Y-38608000D01*
X99244390Y-38974408D01*
X97525998Y-40692800D01*
X97430145Y-40692800D01*
X97431024Y-40691923D01*
X97649950Y-40164691D01*
X97650448Y-39593813D01*
X97432443Y-39066200D01*
X97029123Y-38662176D01*
X96501891Y-38443250D01*
X95931013Y-38442752D01*
X95403400Y-38660757D01*
X94999376Y-39064077D01*
X94976985Y-39118000D01*
X93888402Y-39118000D01*
X93261757Y-38491355D01*
X93701809Y-38403824D01*
X94155028Y-38100992D01*
X94457860Y-37647773D01*
X94564200Y-37113164D01*
X94564200Y-36038836D01*
X94457860Y-35504227D01*
X94155028Y-35051008D01*
X94085950Y-35004852D01*
X94873001Y-34217801D01*
X95037748Y-33971239D01*
X95095600Y-33680400D01*
X95095600Y-30632400D01*
X95082718Y-30567640D01*
X95037748Y-30341560D01*
X94873001Y-30094999D01*
X93825600Y-29047598D01*
X93825600Y-26085440D01*
X93865600Y-26085440D01*
X94100917Y-26041162D01*
X94317041Y-25902090D01*
X94462031Y-25689890D01*
X94513040Y-25438000D01*
X94513040Y-24026400D01*
X94935198Y-24026400D01*
X96166400Y-25257602D01*
X96166400Y-27381200D01*
X96224252Y-27672039D01*
X96388999Y-27918601D01*
X99142790Y-30672392D01*
X99069907Y-31038800D01*
X99182946Y-31607085D01*
X99504853Y-32088854D01*
X99986622Y-32410761D01*
X100554907Y-32523800D01*
X100613093Y-32523800D01*
X101181378Y-32410761D01*
X101663147Y-32088854D01*
X101985054Y-31607085D01*
X102098093Y-31038800D01*
X101985054Y-30470515D01*
X101663147Y-29988746D01*
X101621548Y-29960950D01*
X101669317Y-29951962D01*
X101885441Y-29812890D01*
X102030431Y-29600690D01*
X102081440Y-29348800D01*
X102081440Y-27648800D01*
X102037162Y-27413483D01*
X101898090Y-27197359D01*
X101685890Y-27052369D01*
X101434000Y-27001360D01*
X99734000Y-27001360D01*
X99498683Y-27045638D01*
X99282559Y-27184710D01*
X99137569Y-27396910D01*
X99086560Y-27648800D01*
X99086560Y-28466558D01*
X97686400Y-27066398D01*
X97686400Y-24942800D01*
X97628548Y-24651961D01*
X97463801Y-24405399D01*
X96222002Y-23163600D01*
X103176000Y-23163600D01*
X103176000Y-32019432D01*
X102195689Y-53341200D01*
X94154717Y-53341200D01*
X94155028Y-53340992D01*
X94457860Y-52887773D01*
X94564200Y-52353164D01*
X94564200Y-51278836D01*
X94457860Y-50744227D01*
X94155028Y-50291008D01*
X93701809Y-49988176D01*
X93167200Y-49881836D01*
X92632591Y-49988176D01*
X92179372Y-50291008D01*
X91897200Y-50713307D01*
X91615028Y-50291008D01*
X91161809Y-49988176D01*
X90627200Y-49881836D01*
X90092591Y-49988176D01*
X89639372Y-50291008D01*
X89357200Y-50713307D01*
X89075028Y-50291008D01*
X88847200Y-50138778D01*
X88847200Y-49590802D01*
X89384252Y-49053750D01*
X99200600Y-49053750D01*
X99200600Y-49744310D01*
X99297273Y-49977699D01*
X99475902Y-50156327D01*
X99709291Y-50253000D01*
X100399850Y-50253000D01*
X100558600Y-50094250D01*
X100558600Y-48895000D01*
X100812600Y-48895000D01*
X100812600Y-50094250D01*
X100971350Y-50253000D01*
X101661909Y-50253000D01*
X101895298Y-50156327D01*
X102073927Y-49977699D01*
X102170600Y-49744310D01*
X102170600Y-49053750D01*
X102011850Y-48895000D01*
X100812600Y-48895000D01*
X100558600Y-48895000D01*
X99359350Y-48895000D01*
X99200600Y-49053750D01*
X89384252Y-49053750D01*
X90180002Y-48258000D01*
X95011533Y-48258000D01*
X95200502Y-48540811D01*
X95666049Y-48851880D01*
X96215200Y-48961113D01*
X96764351Y-48851880D01*
X97229898Y-48540811D01*
X97540967Y-48075264D01*
X97650200Y-47526113D01*
X97650200Y-47469887D01*
X97540967Y-46920736D01*
X97229898Y-46455189D01*
X96764351Y-46144120D01*
X96215200Y-46034887D01*
X95666049Y-46144120D01*
X95200502Y-46455189D01*
X95011533Y-46738000D01*
X89865200Y-46738000D01*
X89574361Y-46795852D01*
X89327799Y-46960599D01*
X87549799Y-48738599D01*
X87385052Y-48985161D01*
X87327200Y-49276000D01*
X87327200Y-50138778D01*
X87099372Y-50291008D01*
X86817200Y-50713307D01*
X86535028Y-50291008D01*
X86081809Y-49988176D01*
X85547200Y-49881836D01*
X85012591Y-49988176D01*
X84559372Y-50291008D01*
X84277200Y-50713307D01*
X83995028Y-50291008D01*
X83541809Y-49988176D01*
X83007200Y-49881836D01*
X82472591Y-49988176D01*
X82019372Y-50291008D01*
X81716540Y-50744227D01*
X81610200Y-51278836D01*
X81610200Y-52353164D01*
X81716540Y-52887773D01*
X82019372Y-53340992D01*
X82019683Y-53341200D01*
X76562215Y-53341200D01*
X76658631Y-53200090D01*
X76709640Y-52948200D01*
X76709640Y-51598200D01*
X76665362Y-51362883D01*
X76526290Y-51146759D01*
X76314090Y-51001769D01*
X76062200Y-50950760D01*
X74712200Y-50950760D01*
X74476883Y-50995038D01*
X74260759Y-51134110D01*
X74115769Y-51346310D01*
X74064760Y-51598200D01*
X74064760Y-52948200D01*
X74109038Y-53183517D01*
X74210504Y-53341200D01*
X71779200Y-53341200D01*
X71779200Y-49053750D01*
X73800600Y-49053750D01*
X73800600Y-49744310D01*
X73897273Y-49977699D01*
X74075902Y-50156327D01*
X74309291Y-50253000D01*
X74999850Y-50253000D01*
X75158600Y-50094250D01*
X75158600Y-48895000D01*
X75412600Y-48895000D01*
X75412600Y-50094250D01*
X75571350Y-50253000D01*
X76261909Y-50253000D01*
X76495298Y-50156327D01*
X76673927Y-49977699D01*
X76770600Y-49744310D01*
X76770600Y-49053750D01*
X76611850Y-48895000D01*
X75412600Y-48895000D01*
X75158600Y-48895000D01*
X73959350Y-48895000D01*
X73800600Y-49053750D01*
X71779200Y-49053750D01*
X71779200Y-36391000D01*
X72071050Y-36391000D01*
X72229800Y-36232250D01*
X72229800Y-35433000D01*
X72209800Y-35433000D01*
X72209800Y-35179000D01*
X72229800Y-35179000D01*
X72229800Y-34379750D01*
X72071050Y-34221000D01*
X71779200Y-34221000D01*
X71779200Y-24987041D01*
X73893686Y-24987041D01*
X74133211Y-25493134D01*
X74548177Y-25869041D01*
X74936561Y-26029904D01*
X75158600Y-25907915D01*
X75158600Y-24765000D01*
X74014971Y-24765000D01*
X73893686Y-24987041D01*
X71779200Y-24987041D01*
X71779200Y-24288959D01*
X73893686Y-24288959D01*
X74014971Y-24511000D01*
X75158600Y-24511000D01*
X75158600Y-23368085D01*
X74936561Y-23246096D01*
X74548177Y-23406959D01*
X74133211Y-23782866D01*
X73893686Y-24288959D01*
X71779200Y-24288959D01*
X71779200Y-23163600D01*
X78275998Y-23163600D01*
X78191858Y-23247740D01*
X78191858Y-23247740D01*
G37*
X78191858Y-23247740D02*
X77825600Y-23174887D01*
X77276449Y-23284120D01*
X76810902Y-23595189D01*
X76540614Y-23999703D01*
X76437989Y-23782866D01*
X76023023Y-23406959D01*
X75634639Y-23246096D01*
X75412600Y-23368085D01*
X75412600Y-24511000D01*
X75432600Y-24511000D01*
X75432600Y-24765000D01*
X75412600Y-24765000D01*
X75412600Y-25907915D01*
X75634639Y-26029904D01*
X76023023Y-25869041D01*
X76437989Y-25493134D01*
X76540614Y-25276297D01*
X76810902Y-25680811D01*
X77276449Y-25991880D01*
X77825600Y-26101113D01*
X78374751Y-25991880D01*
X78840298Y-25680811D01*
X79095600Y-25298725D01*
X79350902Y-25680811D01*
X79605600Y-25850995D01*
X79605600Y-26365200D01*
X79663452Y-26656039D01*
X79828199Y-26902601D01*
X83466400Y-30540802D01*
X83466400Y-30911904D01*
X83454751Y-30904120D01*
X82905600Y-30794887D01*
X82356449Y-30904120D01*
X81890902Y-31215189D01*
X81635600Y-31597275D01*
X81380298Y-31215189D01*
X80914751Y-30904120D01*
X80365600Y-30794887D01*
X79816449Y-30904120D01*
X79350902Y-31215189D01*
X79095600Y-31597275D01*
X78840298Y-31215189D01*
X78374751Y-30904120D01*
X77825600Y-30794887D01*
X77276449Y-30904120D01*
X76810902Y-31215189D01*
X76555600Y-31597275D01*
X76300298Y-31215189D01*
X75834751Y-30904120D01*
X75285600Y-30794887D01*
X74736449Y-30904120D01*
X74270902Y-31215189D01*
X73959833Y-31680736D01*
X73850600Y-32229887D01*
X73850600Y-32286113D01*
X73959833Y-32835264D01*
X74270902Y-33300811D01*
X74736449Y-33611880D01*
X75285600Y-33721113D01*
X75609486Y-33656688D01*
X76100400Y-34147602D01*
X76100400Y-37381315D01*
X76045600Y-37344699D01*
X76045600Y-36435600D01*
X75987748Y-36144761D01*
X75823001Y-35898199D01*
X75783453Y-35858651D01*
X75804240Y-35756000D01*
X75804240Y-34856000D01*
X75759962Y-34620683D01*
X75620890Y-34404559D01*
X75408690Y-34259569D01*
X75156800Y-34208560D01*
X73956800Y-34208560D01*
X73721483Y-34252838D01*
X73505359Y-34391910D01*
X73458831Y-34460006D01*
X73316498Y-34317673D01*
X73083109Y-34221000D01*
X72642550Y-34221000D01*
X72483800Y-34379750D01*
X72483800Y-35179000D01*
X72503800Y-35179000D01*
X72503800Y-35433000D01*
X72483800Y-35433000D01*
X72483800Y-36232250D01*
X72642550Y-36391000D01*
X73083109Y-36391000D01*
X73316498Y-36294327D01*
X73457736Y-36153090D01*
X73492710Y-36207441D01*
X73704910Y-36352431D01*
X73956800Y-36403440D01*
X74178638Y-36403440D01*
X74525600Y-36750402D01*
X74525600Y-37344699D01*
X74206453Y-37557946D01*
X73884546Y-38039715D01*
X73771507Y-38608000D01*
X73884546Y-39176285D01*
X74206453Y-39658054D01*
X74535626Y-39878000D01*
X74206453Y-40097946D01*
X73884546Y-40579715D01*
X73771507Y-41148000D01*
X73884546Y-41716285D01*
X74206453Y-42198054D01*
X74535626Y-42418000D01*
X74206453Y-42637946D01*
X73884546Y-43119715D01*
X73771507Y-43688000D01*
X73884546Y-44256285D01*
X74206453Y-44738054D01*
X74535626Y-44958000D01*
X74206453Y-45177946D01*
X73884546Y-45659715D01*
X73771507Y-46228000D01*
X73884546Y-46796285D01*
X74206453Y-47278054D01*
X74250377Y-47307403D01*
X74075902Y-47379673D01*
X73897273Y-47558301D01*
X73800600Y-47791690D01*
X73800600Y-48482250D01*
X73959350Y-48641000D01*
X75158600Y-48641000D01*
X75158600Y-48621000D01*
X75412600Y-48621000D01*
X75412600Y-48641000D01*
X76611850Y-48641000D01*
X76770600Y-48482250D01*
X76770600Y-47791690D01*
X76673927Y-47558301D01*
X76495298Y-47379673D01*
X76320823Y-47307403D01*
X76364747Y-47278054D01*
X76686654Y-46796285D01*
X76799693Y-46228000D01*
X76726810Y-45861592D01*
X76921202Y-45667200D01*
X98948398Y-45667200D01*
X99227534Y-45946336D01*
X99171507Y-46228000D01*
X99284546Y-46796285D01*
X99606453Y-47278054D01*
X99650377Y-47307403D01*
X99475902Y-47379673D01*
X99297273Y-47558301D01*
X99200600Y-47791690D01*
X99200600Y-48482250D01*
X99359350Y-48641000D01*
X100558600Y-48641000D01*
X100558600Y-48621000D01*
X100812600Y-48621000D01*
X100812600Y-48641000D01*
X102011850Y-48641000D01*
X102170600Y-48482250D01*
X102170600Y-47791690D01*
X102073927Y-47558301D01*
X101895298Y-47379673D01*
X101720823Y-47307403D01*
X101764747Y-47278054D01*
X102086654Y-46796285D01*
X102199693Y-46228000D01*
X102086654Y-45659715D01*
X101764747Y-45177946D01*
X101435574Y-44958000D01*
X101764747Y-44738054D01*
X102086654Y-44256285D01*
X102199693Y-43688000D01*
X102086654Y-43119715D01*
X101764747Y-42637946D01*
X101435574Y-42418000D01*
X101764747Y-42198054D01*
X102086654Y-41716285D01*
X102199693Y-41148000D01*
X102086654Y-40579715D01*
X101764747Y-40097946D01*
X101435574Y-39878000D01*
X101764747Y-39658054D01*
X102086654Y-39176285D01*
X102199693Y-38608000D01*
X102086654Y-38039715D01*
X101764747Y-37557946D01*
X101282978Y-37236039D01*
X100714693Y-37123000D01*
X100656507Y-37123000D01*
X100088222Y-37236039D01*
X99606453Y-37557946D01*
X99284546Y-38039715D01*
X99171507Y-38608000D01*
X99244390Y-38974408D01*
X97525998Y-40692800D01*
X97430145Y-40692800D01*
X97431024Y-40691923D01*
X97649950Y-40164691D01*
X97650448Y-39593813D01*
X97432443Y-39066200D01*
X97029123Y-38662176D01*
X96501891Y-38443250D01*
X95931013Y-38442752D01*
X95403400Y-38660757D01*
X94999376Y-39064077D01*
X94976985Y-39118000D01*
X93888402Y-39118000D01*
X93261757Y-38491355D01*
X93701809Y-38403824D01*
X94155028Y-38100992D01*
X94457860Y-37647773D01*
X94564200Y-37113164D01*
X94564200Y-36038836D01*
X94457860Y-35504227D01*
X94155028Y-35051008D01*
X94085950Y-35004852D01*
X94873001Y-34217801D01*
X95037748Y-33971239D01*
X95095600Y-33680400D01*
X95095600Y-30632400D01*
X95082718Y-30567640D01*
X95037748Y-30341560D01*
X94873001Y-30094999D01*
X93825600Y-29047598D01*
X93825600Y-26085440D01*
X93865600Y-26085440D01*
X94100917Y-26041162D01*
X94317041Y-25902090D01*
X94462031Y-25689890D01*
X94513040Y-25438000D01*
X94513040Y-24026400D01*
X94935198Y-24026400D01*
X96166400Y-25257602D01*
X96166400Y-27381200D01*
X96224252Y-27672039D01*
X96388999Y-27918601D01*
X99142790Y-30672392D01*
X99069907Y-31038800D01*
X99182946Y-31607085D01*
X99504853Y-32088854D01*
X99986622Y-32410761D01*
X100554907Y-32523800D01*
X100613093Y-32523800D01*
X101181378Y-32410761D01*
X101663147Y-32088854D01*
X101985054Y-31607085D01*
X102098093Y-31038800D01*
X101985054Y-30470515D01*
X101663147Y-29988746D01*
X101621548Y-29960950D01*
X101669317Y-29951962D01*
X101885441Y-29812890D01*
X102030431Y-29600690D01*
X102081440Y-29348800D01*
X102081440Y-27648800D01*
X102037162Y-27413483D01*
X101898090Y-27197359D01*
X101685890Y-27052369D01*
X101434000Y-27001360D01*
X99734000Y-27001360D01*
X99498683Y-27045638D01*
X99282559Y-27184710D01*
X99137569Y-27396910D01*
X99086560Y-27648800D01*
X99086560Y-28466558D01*
X97686400Y-27066398D01*
X97686400Y-24942800D01*
X97628548Y-24651961D01*
X97463801Y-24405399D01*
X96222002Y-23163600D01*
X103176000Y-23163600D01*
X103176000Y-32019432D01*
X102195689Y-53341200D01*
X94154717Y-53341200D01*
X94155028Y-53340992D01*
X94457860Y-52887773D01*
X94564200Y-52353164D01*
X94564200Y-51278836D01*
X94457860Y-50744227D01*
X94155028Y-50291008D01*
X93701809Y-49988176D01*
X93167200Y-49881836D01*
X92632591Y-49988176D01*
X92179372Y-50291008D01*
X91897200Y-50713307D01*
X91615028Y-50291008D01*
X91161809Y-49988176D01*
X90627200Y-49881836D01*
X90092591Y-49988176D01*
X89639372Y-50291008D01*
X89357200Y-50713307D01*
X89075028Y-50291008D01*
X88847200Y-50138778D01*
X88847200Y-49590802D01*
X89384252Y-49053750D01*
X99200600Y-49053750D01*
X99200600Y-49744310D01*
X99297273Y-49977699D01*
X99475902Y-50156327D01*
X99709291Y-50253000D01*
X100399850Y-50253000D01*
X100558600Y-50094250D01*
X100558600Y-48895000D01*
X100812600Y-48895000D01*
X100812600Y-50094250D01*
X100971350Y-50253000D01*
X101661909Y-50253000D01*
X101895298Y-50156327D01*
X102073927Y-49977699D01*
X102170600Y-49744310D01*
X102170600Y-49053750D01*
X102011850Y-48895000D01*
X100812600Y-48895000D01*
X100558600Y-48895000D01*
X99359350Y-48895000D01*
X99200600Y-49053750D01*
X89384252Y-49053750D01*
X90180002Y-48258000D01*
X95011533Y-48258000D01*
X95200502Y-48540811D01*
X95666049Y-48851880D01*
X96215200Y-48961113D01*
X96764351Y-48851880D01*
X97229898Y-48540811D01*
X97540967Y-48075264D01*
X97650200Y-47526113D01*
X97650200Y-47469887D01*
X97540967Y-46920736D01*
X97229898Y-46455189D01*
X96764351Y-46144120D01*
X96215200Y-46034887D01*
X95666049Y-46144120D01*
X95200502Y-46455189D01*
X95011533Y-46738000D01*
X89865200Y-46738000D01*
X89574361Y-46795852D01*
X89327799Y-46960599D01*
X87549799Y-48738599D01*
X87385052Y-48985161D01*
X87327200Y-49276000D01*
X87327200Y-50138778D01*
X87099372Y-50291008D01*
X86817200Y-50713307D01*
X86535028Y-50291008D01*
X86081809Y-49988176D01*
X85547200Y-49881836D01*
X85012591Y-49988176D01*
X84559372Y-50291008D01*
X84277200Y-50713307D01*
X83995028Y-50291008D01*
X83541809Y-49988176D01*
X83007200Y-49881836D01*
X82472591Y-49988176D01*
X82019372Y-50291008D01*
X81716540Y-50744227D01*
X81610200Y-51278836D01*
X81610200Y-52353164D01*
X81716540Y-52887773D01*
X82019372Y-53340992D01*
X82019683Y-53341200D01*
X76562215Y-53341200D01*
X76658631Y-53200090D01*
X76709640Y-52948200D01*
X76709640Y-51598200D01*
X76665362Y-51362883D01*
X76526290Y-51146759D01*
X76314090Y-51001769D01*
X76062200Y-50950760D01*
X74712200Y-50950760D01*
X74476883Y-50995038D01*
X74260759Y-51134110D01*
X74115769Y-51346310D01*
X74064760Y-51598200D01*
X74064760Y-52948200D01*
X74109038Y-53183517D01*
X74210504Y-53341200D01*
X71779200Y-53341200D01*
X71779200Y-49053750D01*
X73800600Y-49053750D01*
X73800600Y-49744310D01*
X73897273Y-49977699D01*
X74075902Y-50156327D01*
X74309291Y-50253000D01*
X74999850Y-50253000D01*
X75158600Y-50094250D01*
X75158600Y-48895000D01*
X75412600Y-48895000D01*
X75412600Y-50094250D01*
X75571350Y-50253000D01*
X76261909Y-50253000D01*
X76495298Y-50156327D01*
X76673927Y-49977699D01*
X76770600Y-49744310D01*
X76770600Y-49053750D01*
X76611850Y-48895000D01*
X75412600Y-48895000D01*
X75158600Y-48895000D01*
X73959350Y-48895000D01*
X73800600Y-49053750D01*
X71779200Y-49053750D01*
X71779200Y-36391000D01*
X72071050Y-36391000D01*
X72229800Y-36232250D01*
X72229800Y-35433000D01*
X72209800Y-35433000D01*
X72209800Y-35179000D01*
X72229800Y-35179000D01*
X72229800Y-34379750D01*
X72071050Y-34221000D01*
X71779200Y-34221000D01*
X71779200Y-24987041D01*
X73893686Y-24987041D01*
X74133211Y-25493134D01*
X74548177Y-25869041D01*
X74936561Y-26029904D01*
X75158600Y-25907915D01*
X75158600Y-24765000D01*
X74014971Y-24765000D01*
X73893686Y-24987041D01*
X71779200Y-24987041D01*
X71779200Y-24288959D01*
X73893686Y-24288959D01*
X74014971Y-24511000D01*
X75158600Y-24511000D01*
X75158600Y-23368085D01*
X74936561Y-23246096D01*
X74548177Y-23406959D01*
X74133211Y-23782866D01*
X73893686Y-24288959D01*
X71779200Y-24288959D01*
X71779200Y-23163600D01*
X78275998Y-23163600D01*
X78191858Y-23247740D01*
G36*
X129490400Y-52985600D02*
X105510400Y-52985600D01*
X105510400Y-49112600D01*
X113904960Y-49112600D01*
X113904960Y-50912600D01*
X113949238Y-51147917D01*
X114088310Y-51364041D01*
X114300510Y-51509031D01*
X114552400Y-51560040D01*
X115622400Y-51560040D01*
X115857717Y-51515762D01*
X115904877Y-51485415D01*
X115909660Y-51488611D01*
X116357400Y-51577672D01*
X116805140Y-51488611D01*
X117008166Y-51352954D01*
X117320017Y-51506500D01*
X117500400Y-51380844D01*
X117500400Y-50543410D01*
X117527400Y-50407672D01*
X117527400Y-49617528D01*
X117727400Y-49617528D01*
X117727400Y-50407672D01*
X117754400Y-50543410D01*
X117754400Y-51380844D01*
X117934783Y-51506500D01*
X118246634Y-51352954D01*
X118449660Y-51488611D01*
X118897400Y-51577672D01*
X119345140Y-51488611D01*
X119724715Y-51234987D01*
X119978339Y-50855412D01*
X120067400Y-50407672D01*
X120067400Y-49617528D01*
X119978339Y-49169788D01*
X119724715Y-48790213D01*
X119345140Y-48536589D01*
X118897400Y-48447528D01*
X118449660Y-48536589D01*
X118246634Y-48672246D01*
X117934783Y-48518700D01*
X117754400Y-48644356D01*
X117754400Y-49481790D01*
X117727400Y-49617528D01*
X117527400Y-49617528D01*
X117500400Y-49481790D01*
X117500400Y-48644356D01*
X117320017Y-48518700D01*
X117008166Y-48672246D01*
X116805140Y-48536589D01*
X116357400Y-48447528D01*
X115909660Y-48536589D01*
X115906887Y-48538442D01*
X115874290Y-48516169D01*
X115622400Y-48465160D01*
X114552400Y-48465160D01*
X114317083Y-48509438D01*
X114100959Y-48648510D01*
X113955969Y-48860710D01*
X113904960Y-49112600D01*
X105510400Y-49112600D01*
X105510400Y-47217846D01*
X108748600Y-47217846D01*
X108748600Y-47270154D01*
X108850221Y-47781036D01*
X109139612Y-48214142D01*
X109572718Y-48503533D01*
X110083600Y-48605154D01*
X110594482Y-48503533D01*
X111027588Y-48214142D01*
X111316979Y-47781036D01*
X111414400Y-47291268D01*
X111600557Y-47477751D01*
X112164530Y-47711933D01*
X112775191Y-47712465D01*
X113339571Y-47479268D01*
X113517041Y-47302108D01*
X113572873Y-47436899D01*
X113751502Y-47615527D01*
X113984891Y-47712200D01*
X114725450Y-47712200D01*
X114884200Y-47553450D01*
X114884200Y-46304200D01*
X115138200Y-46304200D01*
X115138200Y-47553450D01*
X115296950Y-47712200D01*
X116037509Y-47712200D01*
X116270898Y-47615527D01*
X116449527Y-47436899D01*
X116546200Y-47203510D01*
X116546200Y-46462950D01*
X116387450Y-46304200D01*
X115138200Y-46304200D01*
X114884200Y-46304200D01*
X114864200Y-46304200D01*
X114864200Y-46050200D01*
X114884200Y-46050200D01*
X114884200Y-44800950D01*
X115138200Y-44800950D01*
X115138200Y-46050200D01*
X116387450Y-46050200D01*
X116546200Y-45891450D01*
X116546200Y-45150890D01*
X116449527Y-44917501D01*
X116270898Y-44738873D01*
X116037509Y-44642200D01*
X115296950Y-44642200D01*
X115138200Y-44800950D01*
X114884200Y-44800950D01*
X114725450Y-44642200D01*
X113984891Y-44642200D01*
X113751502Y-44738873D01*
X113572873Y-44917501D01*
X113517081Y-45052194D01*
X113341843Y-44876649D01*
X112777870Y-44642467D01*
X112167209Y-44641935D01*
X111602829Y-44875132D01*
X111170649Y-45306557D01*
X110936467Y-45870530D01*
X110936169Y-46212774D01*
X110594482Y-45984467D01*
X110083600Y-45882846D01*
X109572718Y-45984467D01*
X109139612Y-46273858D01*
X108850221Y-46706964D01*
X108748600Y-47217846D01*
X105510400Y-47217846D01*
X105510400Y-42424350D01*
X105855400Y-42424350D01*
X105855400Y-43114910D01*
X105952073Y-43348299D01*
X106130702Y-43526927D01*
X106364091Y-43623600D01*
X107054650Y-43623600D01*
X107213400Y-43464850D01*
X107213400Y-42265600D01*
X106014150Y-42265600D01*
X105855400Y-42424350D01*
X105510400Y-42424350D01*
X105510400Y-41960800D01*
X105456354Y-41689095D01*
X105302446Y-41458754D01*
X105072105Y-41304846D01*
X104800400Y-41250800D01*
X104596000Y-41250800D01*
X104596000Y-34542800D01*
X104800400Y-34542800D01*
X104922060Y-34518600D01*
X105826307Y-34518600D01*
X105939346Y-35086885D01*
X106261253Y-35568654D01*
X106590426Y-35788600D01*
X106261253Y-36008546D01*
X105939346Y-36490315D01*
X105826307Y-37058600D01*
X105939346Y-37626885D01*
X106261253Y-38108654D01*
X106590426Y-38328600D01*
X106261253Y-38548546D01*
X105939346Y-39030315D01*
X105826307Y-39598600D01*
X105939346Y-40166885D01*
X106261253Y-40648654D01*
X106305177Y-40678003D01*
X106130702Y-40750273D01*
X105952073Y-40928901D01*
X105855400Y-41162290D01*
X105855400Y-41852850D01*
X106014150Y-42011600D01*
X107213400Y-42011600D01*
X107213400Y-41991600D01*
X107467400Y-41991600D01*
X107467400Y-42011600D01*
X107487400Y-42011600D01*
X107487400Y-42265600D01*
X107467400Y-42265600D01*
X107467400Y-43464850D01*
X107626150Y-43623600D01*
X108316709Y-43623600D01*
X108550098Y-43526927D01*
X108728727Y-43348299D01*
X108825400Y-43114910D01*
X108825400Y-42614813D01*
X108951182Y-42919229D01*
X109326396Y-43295098D01*
X109816887Y-43498768D01*
X110347983Y-43499231D01*
X110838829Y-43296418D01*
X111214698Y-42921204D01*
X111418368Y-42430713D01*
X111418831Y-41899617D01*
X111216018Y-41408771D01*
X111004416Y-41196800D01*
X112063467Y-41196800D01*
X112055683Y-41208449D01*
X111946450Y-41757600D01*
X112055683Y-42306751D01*
X112366752Y-42772298D01*
X112832299Y-43083367D01*
X113381450Y-43192600D01*
X114253350Y-43192600D01*
X114802501Y-43083367D01*
X115268048Y-42772298D01*
X115579117Y-42306751D01*
X115688350Y-41757600D01*
X115579117Y-41208449D01*
X115571333Y-41196800D01*
X117602000Y-41196800D01*
X117892839Y-41138948D01*
X118139401Y-40974201D01*
X119136002Y-39977600D01*
X119816568Y-39977600D01*
X119986752Y-40232298D01*
X120368838Y-40487600D01*
X119986752Y-40742902D01*
X119675683Y-41208449D01*
X119566450Y-41757600D01*
X119675683Y-42306751D01*
X119986752Y-42772298D01*
X120452299Y-43083367D01*
X121001450Y-43192600D01*
X121543798Y-43192600D01*
X120094284Y-44642114D01*
X119888809Y-44641935D01*
X119324429Y-44875132D01*
X118892249Y-45306557D01*
X118658067Y-45870530D01*
X118657535Y-46481191D01*
X118890732Y-47045571D01*
X119322157Y-47477751D01*
X119886130Y-47711933D01*
X120496791Y-47712465D01*
X121061171Y-47479268D01*
X121229413Y-47311320D01*
X121229638Y-47312517D01*
X121368710Y-47528641D01*
X121580910Y-47673631D01*
X121832800Y-47724640D01*
X123632800Y-47724640D01*
X123821244Y-47689182D01*
X123886382Y-47846829D01*
X124261596Y-48222698D01*
X124752087Y-48426368D01*
X125283183Y-48426831D01*
X125774029Y-48224018D01*
X126149898Y-47848804D01*
X126353568Y-47358313D01*
X126354031Y-46827217D01*
X126151218Y-46336371D01*
X125776004Y-45960502D01*
X125285513Y-45756832D01*
X124754417Y-45756369D01*
X124280240Y-45952295D01*
X124280240Y-45277200D01*
X124235962Y-45041883D01*
X124096890Y-44825759D01*
X123884690Y-44680769D01*
X123632800Y-44629760D01*
X122256242Y-44629760D01*
X123625801Y-43260201D01*
X123790548Y-43013639D01*
X123848400Y-42722800D01*
X123848400Y-42642891D01*
X124074812Y-42981742D01*
X124507918Y-43271133D01*
X125018800Y-43372754D01*
X125529682Y-43271133D01*
X125962788Y-42981742D01*
X126252179Y-42548636D01*
X126302400Y-42296159D01*
X126302400Y-42733910D01*
X126399073Y-42967299D01*
X126577702Y-43145927D01*
X126811091Y-43242600D01*
X127501650Y-43242600D01*
X127660400Y-43083850D01*
X127660400Y-41884600D01*
X127914400Y-41884600D01*
X127914400Y-43083850D01*
X128073150Y-43242600D01*
X128763709Y-43242600D01*
X128997098Y-43145927D01*
X129175727Y-42967299D01*
X129272400Y-42733910D01*
X129272400Y-42043350D01*
X129113650Y-41884600D01*
X127914400Y-41884600D01*
X127660400Y-41884600D01*
X127640400Y-41884600D01*
X127640400Y-41630600D01*
X127660400Y-41630600D01*
X127660400Y-41610600D01*
X127914400Y-41610600D01*
X127914400Y-41630600D01*
X129113650Y-41630600D01*
X129272400Y-41471850D01*
X129272400Y-40781290D01*
X129175727Y-40547901D01*
X128997098Y-40369273D01*
X128822623Y-40297003D01*
X128866547Y-40267654D01*
X129188454Y-39785885D01*
X129301493Y-39217600D01*
X129188454Y-38649315D01*
X128866547Y-38167546D01*
X128537374Y-37947600D01*
X128866547Y-37727654D01*
X129188454Y-37245885D01*
X129301493Y-36677600D01*
X129188454Y-36109315D01*
X128866547Y-35627546D01*
X128537374Y-35407600D01*
X128866547Y-35187654D01*
X129188454Y-34705885D01*
X129301493Y-34137600D01*
X129188454Y-33569315D01*
X128866547Y-33087546D01*
X128384778Y-32765639D01*
X127816493Y-32652600D01*
X127758307Y-32652600D01*
X127190022Y-32765639D01*
X126708253Y-33087546D01*
X126386346Y-33569315D01*
X126273307Y-34137600D01*
X126386346Y-34705885D01*
X126708253Y-35187654D01*
X127037426Y-35407600D01*
X126708253Y-35627546D01*
X126386346Y-36109315D01*
X126273307Y-36677600D01*
X126386346Y-37245885D01*
X126708253Y-37727654D01*
X127037426Y-37947600D01*
X126708253Y-38167546D01*
X126386346Y-38649315D01*
X126273307Y-39217600D01*
X126386346Y-39785885D01*
X126708253Y-40267654D01*
X126752177Y-40297003D01*
X126577702Y-40369273D01*
X126399073Y-40547901D01*
X126302400Y-40781290D01*
X126302400Y-41471850D01*
X126461148Y-41630598D01*
X126302400Y-41630598D01*
X126302400Y-41727041D01*
X126252179Y-41474564D01*
X125962788Y-41041458D01*
X125529682Y-40752067D01*
X125018800Y-40650446D01*
X124507918Y-40752067D01*
X124074812Y-41041458D01*
X123848400Y-41380309D01*
X123848400Y-38328600D01*
X123790548Y-38037761D01*
X123625801Y-37791199D01*
X123143936Y-37309334D01*
X123199117Y-37226751D01*
X123308350Y-36677600D01*
X123199117Y-36128449D01*
X122888048Y-35662902D01*
X122509693Y-35410093D01*
X122941900Y-35062496D01*
X123211767Y-34569419D01*
X123229304Y-34486639D01*
X123107315Y-34264600D01*
X121564400Y-34264600D01*
X121564400Y-34284600D01*
X121310400Y-34284600D01*
X121310400Y-34264600D01*
X119767485Y-34264600D01*
X119645496Y-34486639D01*
X119663033Y-34569419D01*
X119932900Y-35062496D01*
X120365107Y-35410093D01*
X119986752Y-35662902D01*
X119675683Y-36128449D01*
X119566450Y-36677600D01*
X119675683Y-37226751D01*
X119986752Y-37692298D01*
X120368838Y-37947600D01*
X119986752Y-38202902D01*
X119816568Y-38457600D01*
X118821200Y-38457600D01*
X118530360Y-38515452D01*
X118283799Y-38680199D01*
X117287198Y-39676800D01*
X115597009Y-39676800D01*
X115688350Y-39217600D01*
X115579117Y-38668449D01*
X115268048Y-38202902D01*
X114885962Y-37947600D01*
X115268048Y-37692298D01*
X115579117Y-37226751D01*
X115688350Y-36677600D01*
X115579117Y-36128449D01*
X115268048Y-35662902D01*
X115122050Y-35565349D01*
X115252717Y-35540762D01*
X115468841Y-35401690D01*
X115613831Y-35189490D01*
X115664840Y-34937600D01*
X115664840Y-33788561D01*
X119645496Y-33788561D01*
X119767485Y-34010600D01*
X121310400Y-34010600D01*
X121310400Y-32702600D01*
X121564400Y-32702600D01*
X121564400Y-34010600D01*
X123107315Y-34010600D01*
X123229304Y-33788561D01*
X123211767Y-33705781D01*
X122941900Y-33212704D01*
X122503883Y-32860434D01*
X121964400Y-32702600D01*
X121564400Y-32702600D01*
X121310400Y-32702600D01*
X120910400Y-32702600D01*
X120370917Y-32860434D01*
X119932900Y-33212704D01*
X119663033Y-33705781D01*
X119645496Y-33788561D01*
X115664840Y-33788561D01*
X115664840Y-33337600D01*
X115620562Y-33102283D01*
X115481490Y-32886159D01*
X115269290Y-32741169D01*
X115017400Y-32690160D01*
X112617400Y-32690160D01*
X112382083Y-32734438D01*
X112165959Y-32873510D01*
X112020969Y-33085710D01*
X111969960Y-33337600D01*
X111969960Y-34937600D01*
X112014238Y-35172917D01*
X112153310Y-35389041D01*
X112365510Y-35534031D01*
X112514474Y-35564197D01*
X112366752Y-35662902D01*
X112055683Y-36128449D01*
X111946450Y-36677600D01*
X112055683Y-37226751D01*
X112366752Y-37692298D01*
X112748838Y-37947600D01*
X112366752Y-38202902D01*
X112055683Y-38668449D01*
X111946450Y-39217600D01*
X112037791Y-39676800D01*
X108838938Y-39676800D01*
X108854493Y-39598600D01*
X108741454Y-39030315D01*
X108419547Y-38548546D01*
X108090374Y-38328600D01*
X108419547Y-38108654D01*
X108741454Y-37626885D01*
X108854493Y-37058600D01*
X108741454Y-36490315D01*
X108419547Y-36008546D01*
X108090374Y-35788600D01*
X108419547Y-35568654D01*
X108741454Y-35086885D01*
X108854493Y-34518600D01*
X108741454Y-33950315D01*
X108419547Y-33468546D01*
X107937778Y-33146639D01*
X107369493Y-33033600D01*
X107311307Y-33033600D01*
X106743022Y-33146639D01*
X106261253Y-33468546D01*
X105939346Y-33950315D01*
X105826307Y-34518600D01*
X104922060Y-34518600D01*
X105072105Y-34488754D01*
X105302446Y-34334846D01*
X105456354Y-34104505D01*
X105510400Y-33832800D01*
X105510400Y-28792600D01*
X114031960Y-28792600D01*
X114031960Y-30592600D01*
X114076238Y-30827917D01*
X114215310Y-31044041D01*
X114427510Y-31189031D01*
X114679400Y-31240040D01*
X115749400Y-31240040D01*
X115984717Y-31195762D01*
X116031877Y-31165415D01*
X116036660Y-31168611D01*
X116484400Y-31257672D01*
X116932140Y-31168611D01*
X117135166Y-31032954D01*
X117447017Y-31186500D01*
X117627400Y-31060844D01*
X117627400Y-30223410D01*
X117654400Y-30087672D01*
X117654400Y-29297528D01*
X117854400Y-29297528D01*
X117854400Y-30087672D01*
X117881400Y-30223410D01*
X117881400Y-31060844D01*
X118061783Y-31186500D01*
X118373634Y-31032954D01*
X118576660Y-31168611D01*
X119024400Y-31257672D01*
X119472140Y-31168611D01*
X119851715Y-30914987D01*
X120105339Y-30535412D01*
X120194400Y-30087672D01*
X120194400Y-29297528D01*
X120105339Y-28849788D01*
X119851715Y-28470213D01*
X119472140Y-28216589D01*
X119024400Y-28127528D01*
X118576660Y-28216589D01*
X118373634Y-28352246D01*
X118061783Y-28198700D01*
X117881400Y-28324356D01*
X117881400Y-29161790D01*
X117854400Y-29297528D01*
X117654400Y-29297528D01*
X117627400Y-29161790D01*
X117627400Y-28324356D01*
X117447017Y-28198700D01*
X117135166Y-28352246D01*
X116932140Y-28216589D01*
X116484400Y-28127528D01*
X116036660Y-28216589D01*
X116033887Y-28218442D01*
X116001290Y-28196169D01*
X115749400Y-28145160D01*
X114679400Y-28145160D01*
X114444083Y-28189438D01*
X114227959Y-28328510D01*
X114082969Y-28540710D01*
X114031960Y-28792600D01*
X105510400Y-28792600D01*
X105510400Y-26465600D01*
X129490400Y-26465600D01*
X129490400Y-52985600D01*
X129490400Y-52985600D01*
G37*
X129490400Y-52985600D02*
X105510400Y-52985600D01*
X105510400Y-49112600D01*
X113904960Y-49112600D01*
X113904960Y-50912600D01*
X113949238Y-51147917D01*
X114088310Y-51364041D01*
X114300510Y-51509031D01*
X114552400Y-51560040D01*
X115622400Y-51560040D01*
X115857717Y-51515762D01*
X115904877Y-51485415D01*
X115909660Y-51488611D01*
X116357400Y-51577672D01*
X116805140Y-51488611D01*
X117008166Y-51352954D01*
X117320017Y-51506500D01*
X117500400Y-51380844D01*
X117500400Y-50543410D01*
X117527400Y-50407672D01*
X117527400Y-49617528D01*
X117727400Y-49617528D01*
X117727400Y-50407672D01*
X117754400Y-50543410D01*
X117754400Y-51380844D01*
X117934783Y-51506500D01*
X118246634Y-51352954D01*
X118449660Y-51488611D01*
X118897400Y-51577672D01*
X119345140Y-51488611D01*
X119724715Y-51234987D01*
X119978339Y-50855412D01*
X120067400Y-50407672D01*
X120067400Y-49617528D01*
X119978339Y-49169788D01*
X119724715Y-48790213D01*
X119345140Y-48536589D01*
X118897400Y-48447528D01*
X118449660Y-48536589D01*
X118246634Y-48672246D01*
X117934783Y-48518700D01*
X117754400Y-48644356D01*
X117754400Y-49481790D01*
X117727400Y-49617528D01*
X117527400Y-49617528D01*
X117500400Y-49481790D01*
X117500400Y-48644356D01*
X117320017Y-48518700D01*
X117008166Y-48672246D01*
X116805140Y-48536589D01*
X116357400Y-48447528D01*
X115909660Y-48536589D01*
X115906887Y-48538442D01*
X115874290Y-48516169D01*
X115622400Y-48465160D01*
X114552400Y-48465160D01*
X114317083Y-48509438D01*
X114100959Y-48648510D01*
X113955969Y-48860710D01*
X113904960Y-49112600D01*
X105510400Y-49112600D01*
X105510400Y-47217846D01*
X108748600Y-47217846D01*
X108748600Y-47270154D01*
X108850221Y-47781036D01*
X109139612Y-48214142D01*
X109572718Y-48503533D01*
X110083600Y-48605154D01*
X110594482Y-48503533D01*
X111027588Y-48214142D01*
X111316979Y-47781036D01*
X111414400Y-47291268D01*
X111600557Y-47477751D01*
X112164530Y-47711933D01*
X112775191Y-47712465D01*
X113339571Y-47479268D01*
X113517041Y-47302108D01*
X113572873Y-47436899D01*
X113751502Y-47615527D01*
X113984891Y-47712200D01*
X114725450Y-47712200D01*
X114884200Y-47553450D01*
X114884200Y-46304200D01*
X115138200Y-46304200D01*
X115138200Y-47553450D01*
X115296950Y-47712200D01*
X116037509Y-47712200D01*
X116270898Y-47615527D01*
X116449527Y-47436899D01*
X116546200Y-47203510D01*
X116546200Y-46462950D01*
X116387450Y-46304200D01*
X115138200Y-46304200D01*
X114884200Y-46304200D01*
X114864200Y-46304200D01*
X114864200Y-46050200D01*
X114884200Y-46050200D01*
X114884200Y-44800950D01*
X115138200Y-44800950D01*
X115138200Y-46050200D01*
X116387450Y-46050200D01*
X116546200Y-45891450D01*
X116546200Y-45150890D01*
X116449527Y-44917501D01*
X116270898Y-44738873D01*
X116037509Y-44642200D01*
X115296950Y-44642200D01*
X115138200Y-44800950D01*
X114884200Y-44800950D01*
X114725450Y-44642200D01*
X113984891Y-44642200D01*
X113751502Y-44738873D01*
X113572873Y-44917501D01*
X113517081Y-45052194D01*
X113341843Y-44876649D01*
X112777870Y-44642467D01*
X112167209Y-44641935D01*
X111602829Y-44875132D01*
X111170649Y-45306557D01*
X110936467Y-45870530D01*
X110936169Y-46212774D01*
X110594482Y-45984467D01*
X110083600Y-45882846D01*
X109572718Y-45984467D01*
X109139612Y-46273858D01*
X108850221Y-46706964D01*
X108748600Y-47217846D01*
X105510400Y-47217846D01*
X105510400Y-42424350D01*
X105855400Y-42424350D01*
X105855400Y-43114910D01*
X105952073Y-43348299D01*
X106130702Y-43526927D01*
X106364091Y-43623600D01*
X107054650Y-43623600D01*
X107213400Y-43464850D01*
X107213400Y-42265600D01*
X106014150Y-42265600D01*
X105855400Y-42424350D01*
X105510400Y-42424350D01*
X105510400Y-41960800D01*
X105456354Y-41689095D01*
X105302446Y-41458754D01*
X105072105Y-41304846D01*
X104800400Y-41250800D01*
X104596000Y-41250800D01*
X104596000Y-34542800D01*
X104800400Y-34542800D01*
X104922060Y-34518600D01*
X105826307Y-34518600D01*
X105939346Y-35086885D01*
X106261253Y-35568654D01*
X106590426Y-35788600D01*
X106261253Y-36008546D01*
X105939346Y-36490315D01*
X105826307Y-37058600D01*
X105939346Y-37626885D01*
X106261253Y-38108654D01*
X106590426Y-38328600D01*
X106261253Y-38548546D01*
X105939346Y-39030315D01*
X105826307Y-39598600D01*
X105939346Y-40166885D01*
X106261253Y-40648654D01*
X106305177Y-40678003D01*
X106130702Y-40750273D01*
X105952073Y-40928901D01*
X105855400Y-41162290D01*
X105855400Y-41852850D01*
X106014150Y-42011600D01*
X107213400Y-42011600D01*
X107213400Y-41991600D01*
X107467400Y-41991600D01*
X107467400Y-42011600D01*
X107487400Y-42011600D01*
X107487400Y-42265600D01*
X107467400Y-42265600D01*
X107467400Y-43464850D01*
X107626150Y-43623600D01*
X108316709Y-43623600D01*
X108550098Y-43526927D01*
X108728727Y-43348299D01*
X108825400Y-43114910D01*
X108825400Y-42614813D01*
X108951182Y-42919229D01*
X109326396Y-43295098D01*
X109816887Y-43498768D01*
X110347983Y-43499231D01*
X110838829Y-43296418D01*
X111214698Y-42921204D01*
X111418368Y-42430713D01*
X111418831Y-41899617D01*
X111216018Y-41408771D01*
X111004416Y-41196800D01*
X112063467Y-41196800D01*
X112055683Y-41208449D01*
X111946450Y-41757600D01*
X112055683Y-42306751D01*
X112366752Y-42772298D01*
X112832299Y-43083367D01*
X113381450Y-43192600D01*
X114253350Y-43192600D01*
X114802501Y-43083367D01*
X115268048Y-42772298D01*
X115579117Y-42306751D01*
X115688350Y-41757600D01*
X115579117Y-41208449D01*
X115571333Y-41196800D01*
X117602000Y-41196800D01*
X117892839Y-41138948D01*
X118139401Y-40974201D01*
X119136002Y-39977600D01*
X119816568Y-39977600D01*
X119986752Y-40232298D01*
X120368838Y-40487600D01*
X119986752Y-40742902D01*
X119675683Y-41208449D01*
X119566450Y-41757600D01*
X119675683Y-42306751D01*
X119986752Y-42772298D01*
X120452299Y-43083367D01*
X121001450Y-43192600D01*
X121543798Y-43192600D01*
X120094284Y-44642114D01*
X119888809Y-44641935D01*
X119324429Y-44875132D01*
X118892249Y-45306557D01*
X118658067Y-45870530D01*
X118657535Y-46481191D01*
X118890732Y-47045571D01*
X119322157Y-47477751D01*
X119886130Y-47711933D01*
X120496791Y-47712465D01*
X121061171Y-47479268D01*
X121229413Y-47311320D01*
X121229638Y-47312517D01*
X121368710Y-47528641D01*
X121580910Y-47673631D01*
X121832800Y-47724640D01*
X123632800Y-47724640D01*
X123821244Y-47689182D01*
X123886382Y-47846829D01*
X124261596Y-48222698D01*
X124752087Y-48426368D01*
X125283183Y-48426831D01*
X125774029Y-48224018D01*
X126149898Y-47848804D01*
X126353568Y-47358313D01*
X126354031Y-46827217D01*
X126151218Y-46336371D01*
X125776004Y-45960502D01*
X125285513Y-45756832D01*
X124754417Y-45756369D01*
X124280240Y-45952295D01*
X124280240Y-45277200D01*
X124235962Y-45041883D01*
X124096890Y-44825759D01*
X123884690Y-44680769D01*
X123632800Y-44629760D01*
X122256242Y-44629760D01*
X123625801Y-43260201D01*
X123790548Y-43013639D01*
X123848400Y-42722800D01*
X123848400Y-42642891D01*
X124074812Y-42981742D01*
X124507918Y-43271133D01*
X125018800Y-43372754D01*
X125529682Y-43271133D01*
X125962788Y-42981742D01*
X126252179Y-42548636D01*
X126302400Y-42296159D01*
X126302400Y-42733910D01*
X126399073Y-42967299D01*
X126577702Y-43145927D01*
X126811091Y-43242600D01*
X127501650Y-43242600D01*
X127660400Y-43083850D01*
X127660400Y-41884600D01*
X127914400Y-41884600D01*
X127914400Y-43083850D01*
X128073150Y-43242600D01*
X128763709Y-43242600D01*
X128997098Y-43145927D01*
X129175727Y-42967299D01*
X129272400Y-42733910D01*
X129272400Y-42043350D01*
X129113650Y-41884600D01*
X127914400Y-41884600D01*
X127660400Y-41884600D01*
X127640400Y-41884600D01*
X127640400Y-41630600D01*
X127660400Y-41630600D01*
X127660400Y-41610600D01*
X127914400Y-41610600D01*
X127914400Y-41630600D01*
X129113650Y-41630600D01*
X129272400Y-41471850D01*
X129272400Y-40781290D01*
X129175727Y-40547901D01*
X128997098Y-40369273D01*
X128822623Y-40297003D01*
X128866547Y-40267654D01*
X129188454Y-39785885D01*
X129301493Y-39217600D01*
X129188454Y-38649315D01*
X128866547Y-38167546D01*
X128537374Y-37947600D01*
X128866547Y-37727654D01*
X129188454Y-37245885D01*
X129301493Y-36677600D01*
X129188454Y-36109315D01*
X128866547Y-35627546D01*
X128537374Y-35407600D01*
X128866547Y-35187654D01*
X129188454Y-34705885D01*
X129301493Y-34137600D01*
X129188454Y-33569315D01*
X128866547Y-33087546D01*
X128384778Y-32765639D01*
X127816493Y-32652600D01*
X127758307Y-32652600D01*
X127190022Y-32765639D01*
X126708253Y-33087546D01*
X126386346Y-33569315D01*
X126273307Y-34137600D01*
X126386346Y-34705885D01*
X126708253Y-35187654D01*
X127037426Y-35407600D01*
X126708253Y-35627546D01*
X126386346Y-36109315D01*
X126273307Y-36677600D01*
X126386346Y-37245885D01*
X126708253Y-37727654D01*
X127037426Y-37947600D01*
X126708253Y-38167546D01*
X126386346Y-38649315D01*
X126273307Y-39217600D01*
X126386346Y-39785885D01*
X126708253Y-40267654D01*
X126752177Y-40297003D01*
X126577702Y-40369273D01*
X126399073Y-40547901D01*
X126302400Y-40781290D01*
X126302400Y-41471850D01*
X126461148Y-41630598D01*
X126302400Y-41630598D01*
X126302400Y-41727041D01*
X126252179Y-41474564D01*
X125962788Y-41041458D01*
X125529682Y-40752067D01*
X125018800Y-40650446D01*
X124507918Y-40752067D01*
X124074812Y-41041458D01*
X123848400Y-41380309D01*
X123848400Y-38328600D01*
X123790548Y-38037761D01*
X123625801Y-37791199D01*
X123143936Y-37309334D01*
X123199117Y-37226751D01*
X123308350Y-36677600D01*
X123199117Y-36128449D01*
X122888048Y-35662902D01*
X122509693Y-35410093D01*
X122941900Y-35062496D01*
X123211767Y-34569419D01*
X123229304Y-34486639D01*
X123107315Y-34264600D01*
X121564400Y-34264600D01*
X121564400Y-34284600D01*
X121310400Y-34284600D01*
X121310400Y-34264600D01*
X119767485Y-34264600D01*
X119645496Y-34486639D01*
X119663033Y-34569419D01*
X119932900Y-35062496D01*
X120365107Y-35410093D01*
X119986752Y-35662902D01*
X119675683Y-36128449D01*
X119566450Y-36677600D01*
X119675683Y-37226751D01*
X119986752Y-37692298D01*
X120368838Y-37947600D01*
X119986752Y-38202902D01*
X119816568Y-38457600D01*
X118821200Y-38457600D01*
X118530360Y-38515452D01*
X118283799Y-38680199D01*
X117287198Y-39676800D01*
X115597009Y-39676800D01*
X115688350Y-39217600D01*
X115579117Y-38668449D01*
X115268048Y-38202902D01*
X114885962Y-37947600D01*
X115268048Y-37692298D01*
X115579117Y-37226751D01*
X115688350Y-36677600D01*
X115579117Y-36128449D01*
X115268048Y-35662902D01*
X115122050Y-35565349D01*
X115252717Y-35540762D01*
X115468841Y-35401690D01*
X115613831Y-35189490D01*
X115664840Y-34937600D01*
X115664840Y-33788561D01*
X119645496Y-33788561D01*
X119767485Y-34010600D01*
X121310400Y-34010600D01*
X121310400Y-32702600D01*
X121564400Y-32702600D01*
X121564400Y-34010600D01*
X123107315Y-34010600D01*
X123229304Y-33788561D01*
X123211767Y-33705781D01*
X122941900Y-33212704D01*
X122503883Y-32860434D01*
X121964400Y-32702600D01*
X121564400Y-32702600D01*
X121310400Y-32702600D01*
X120910400Y-32702600D01*
X120370917Y-32860434D01*
X119932900Y-33212704D01*
X119663033Y-33705781D01*
X119645496Y-33788561D01*
X115664840Y-33788561D01*
X115664840Y-33337600D01*
X115620562Y-33102283D01*
X115481490Y-32886159D01*
X115269290Y-32741169D01*
X115017400Y-32690160D01*
X112617400Y-32690160D01*
X112382083Y-32734438D01*
X112165959Y-32873510D01*
X112020969Y-33085710D01*
X111969960Y-33337600D01*
X111969960Y-34937600D01*
X112014238Y-35172917D01*
X112153310Y-35389041D01*
X112365510Y-35534031D01*
X112514474Y-35564197D01*
X112366752Y-35662902D01*
X112055683Y-36128449D01*
X111946450Y-36677600D01*
X112055683Y-37226751D01*
X112366752Y-37692298D01*
X112748838Y-37947600D01*
X112366752Y-38202902D01*
X112055683Y-38668449D01*
X111946450Y-39217600D01*
X112037791Y-39676800D01*
X108838938Y-39676800D01*
X108854493Y-39598600D01*
X108741454Y-39030315D01*
X108419547Y-38548546D01*
X108090374Y-38328600D01*
X108419547Y-38108654D01*
X108741454Y-37626885D01*
X108854493Y-37058600D01*
X108741454Y-36490315D01*
X108419547Y-36008546D01*
X108090374Y-35788600D01*
X108419547Y-35568654D01*
X108741454Y-35086885D01*
X108854493Y-34518600D01*
X108741454Y-33950315D01*
X108419547Y-33468546D01*
X107937778Y-33146639D01*
X107369493Y-33033600D01*
X107311307Y-33033600D01*
X106743022Y-33146639D01*
X106261253Y-33468546D01*
X105939346Y-33950315D01*
X105826307Y-34518600D01*
X104922060Y-34518600D01*
X105072105Y-34488754D01*
X105302446Y-34334846D01*
X105456354Y-34104505D01*
X105510400Y-33832800D01*
X105510400Y-28792600D01*
X114031960Y-28792600D01*
X114031960Y-30592600D01*
X114076238Y-30827917D01*
X114215310Y-31044041D01*
X114427510Y-31189031D01*
X114679400Y-31240040D01*
X115749400Y-31240040D01*
X115984717Y-31195762D01*
X116031877Y-31165415D01*
X116036660Y-31168611D01*
X116484400Y-31257672D01*
X116932140Y-31168611D01*
X117135166Y-31032954D01*
X117447017Y-31186500D01*
X117627400Y-31060844D01*
X117627400Y-30223410D01*
X117654400Y-30087672D01*
X117654400Y-29297528D01*
X117854400Y-29297528D01*
X117854400Y-30087672D01*
X117881400Y-30223410D01*
X117881400Y-31060844D01*
X118061783Y-31186500D01*
X118373634Y-31032954D01*
X118576660Y-31168611D01*
X119024400Y-31257672D01*
X119472140Y-31168611D01*
X119851715Y-30914987D01*
X120105339Y-30535412D01*
X120194400Y-30087672D01*
X120194400Y-29297528D01*
X120105339Y-28849788D01*
X119851715Y-28470213D01*
X119472140Y-28216589D01*
X119024400Y-28127528D01*
X118576660Y-28216589D01*
X118373634Y-28352246D01*
X118061783Y-28198700D01*
X117881400Y-28324356D01*
X117881400Y-29161790D01*
X117854400Y-29297528D01*
X117654400Y-29297528D01*
X117627400Y-29161790D01*
X117627400Y-28324356D01*
X117447017Y-28198700D01*
X117135166Y-28352246D01*
X116932140Y-28216589D01*
X116484400Y-28127528D01*
X116036660Y-28216589D01*
X116033887Y-28218442D01*
X116001290Y-28196169D01*
X115749400Y-28145160D01*
X114679400Y-28145160D01*
X114444083Y-28189438D01*
X114227959Y-28328510D01*
X114082969Y-28540710D01*
X114031960Y-28792600D01*
X105510400Y-28792600D01*
X105510400Y-26465600D01*
X129490400Y-26465600D01*
X129490400Y-52985600D01*
M02*
