G04 #@! TF.FileFunction,Copper,L1,Top,Signal*
%FSLAX46Y46*%
G04 Gerber Fmt 4.6, Leading zero omitted, Abs format (unit mm)*
G04 Created by KiCad (PCBNEW 4.0.7) date 12/08/18 06:10:40*
%MOMM*%
%LPD*%
G01*
G04 APERTURE LIST*
%ADD10C,0.100000*%
%ADD11R,1.700000X1.700000*%
%ADD12O,1.700000X1.700000*%
%ADD13R,1.600000X1.600000*%
%ADD14O,1.600000X1.600000*%
%ADD15O,1.524000X2.524000*%
%ADD16C,1.600000*%
%ADD17R,1.200000X0.900000*%
%ADD18R,1.350000X1.350000*%
%ADD19R,2.400000X1.600000*%
%ADD20O,2.400000X1.600000*%
%ADD21R,1.800000X1.800000*%
%ADD22C,1.800000*%
%ADD23C,1.400000*%
%ADD24O,1.400000X1.400000*%
%ADD25R,1.070000X1.800000*%
%ADD26O,1.070000X1.800000*%
%ADD27C,0.250000*%
%ADD28C,0.254000*%
G04 APERTURE END LIST*
D10*
D11*
X100584000Y-28498800D03*
D12*
X100584000Y-31038800D03*
D11*
X100685600Y-48768000D03*
D12*
X100685600Y-46228000D03*
X100685600Y-43688000D03*
X100685600Y-41148000D03*
X100685600Y-38608000D03*
D13*
X93065600Y-24638000D03*
D14*
X75285600Y-32258000D03*
X90525600Y-24638000D03*
X77825600Y-32258000D03*
X87985600Y-24638000D03*
X80365600Y-32258000D03*
X85445600Y-24638000D03*
X82905600Y-32258000D03*
X82905600Y-24638000D03*
X85445600Y-32258000D03*
X80365600Y-24638000D03*
X87985600Y-32258000D03*
X77825600Y-24638000D03*
X90525600Y-32258000D03*
X75285600Y-24638000D03*
X93065600Y-32258000D03*
D15*
X83007200Y-51816000D03*
X85547200Y-51816000D03*
X88087200Y-51816000D03*
X90627200Y-51816000D03*
X93167200Y-51816000D03*
X93167200Y-36576000D03*
X90627200Y-36576000D03*
X88087200Y-36576000D03*
X85547200Y-36576000D03*
X83007200Y-36576000D03*
D11*
X75285600Y-48768000D03*
D12*
X75285600Y-46228000D03*
X75285600Y-43688000D03*
X75285600Y-41148000D03*
X75285600Y-38608000D03*
D16*
X96215200Y-39878000D03*
D14*
X96215200Y-47498000D03*
D17*
X95724800Y-51460400D03*
X97924800Y-51460400D03*
D18*
X75387200Y-52273200D03*
D19*
X113817400Y-34137600D03*
D20*
X121437400Y-41757600D03*
X113817400Y-36677600D03*
X121437400Y-39217600D03*
X113817400Y-39217600D03*
X121437400Y-36677600D03*
X113817400Y-41757600D03*
X121437400Y-34137600D03*
D11*
X107340400Y-42138600D03*
D12*
X107340400Y-39598600D03*
X107340400Y-37058600D03*
X107340400Y-34518600D03*
D21*
X122732800Y-46177200D03*
D22*
X120192800Y-46177200D03*
D21*
X115011200Y-46177200D03*
D22*
X112471200Y-46177200D03*
D11*
X127787400Y-41757600D03*
D12*
X127787400Y-39217600D03*
X127787400Y-36677600D03*
X127787400Y-34137600D03*
D23*
X125018800Y-47091600D03*
D24*
X125018800Y-42011600D03*
D23*
X110083600Y-42164000D03*
D24*
X110083600Y-47244000D03*
D25*
X115214400Y-29692600D03*
D26*
X116484400Y-29692600D03*
X117754400Y-29692600D03*
X119024400Y-29692600D03*
D25*
X115087400Y-50012600D03*
D26*
X116357400Y-50012600D03*
X117627400Y-50012600D03*
X118897400Y-50012600D03*
D27*
X82905600Y-32258000D02*
X80365600Y-32258000D01*
X80365600Y-32258000D02*
X75539600Y-37084000D01*
X75539600Y-37084000D02*
X74777600Y-37084000D01*
X74777600Y-37084000D02*
X73456800Y-38404800D01*
X73456800Y-38404800D02*
X73456800Y-41859200D01*
X73456800Y-41859200D02*
X75285600Y-43688000D01*
X115214400Y-29692600D02*
X113157000Y-29692600D01*
X109575600Y-34823400D02*
X107340400Y-37058600D01*
X109575600Y-33274000D02*
X109575600Y-34823400D01*
X113157000Y-29692600D02*
X109575600Y-33274000D01*
X127787400Y-39217600D02*
X123977400Y-39217600D01*
X123977400Y-39217600D02*
X121437400Y-41757600D01*
X90525600Y-24638000D02*
X90525600Y-25908000D01*
X90627200Y-44602400D02*
X90627200Y-51816000D01*
X94996000Y-40233600D02*
X90627200Y-44602400D01*
X94996000Y-30378400D02*
X94996000Y-40233600D01*
X90525600Y-25908000D02*
X94996000Y-30378400D01*
X87985600Y-24638000D02*
X87985600Y-26060400D01*
X85547200Y-45567600D02*
X85547200Y-51816000D01*
X91795600Y-39319200D02*
X85547200Y-45567600D01*
X91795600Y-29870400D02*
X91795600Y-39319200D01*
X87985600Y-26060400D02*
X91795600Y-29870400D01*
X85445600Y-24638000D02*
X85445600Y-26568400D01*
X83007200Y-44958000D02*
X83007200Y-51816000D01*
X89357200Y-38608000D02*
X83007200Y-44958000D01*
X89357200Y-30480000D02*
X89357200Y-38608000D01*
X85445600Y-26568400D02*
X89357200Y-30480000D01*
X90627200Y-36576000D02*
X90627200Y-32359600D01*
X90627200Y-32359600D02*
X90525600Y-32258000D01*
X87985600Y-32258000D02*
X87985600Y-33528000D01*
X81788000Y-34645600D02*
X75285600Y-41148000D01*
X86868000Y-34645600D02*
X81788000Y-34645600D01*
X87985600Y-33528000D02*
X86868000Y-34645600D01*
X85445600Y-32258000D02*
X85445600Y-32410400D01*
X85445600Y-32410400D02*
X84124800Y-33731200D01*
X80162400Y-33731200D02*
X75285600Y-38608000D01*
X84124800Y-33731200D02*
X80162400Y-33731200D01*
X97924800Y-51460400D02*
X97924800Y-49207600D01*
X97924800Y-49207600D02*
X96215200Y-47498000D01*
X88087200Y-36576000D02*
X88087200Y-37490400D01*
X88087200Y-37490400D02*
X81280000Y-44297600D01*
X86309200Y-53594000D02*
X88087200Y-51816000D01*
X82245200Y-53594000D02*
X86309200Y-53594000D01*
X81280000Y-52628800D02*
X82245200Y-53594000D01*
X81280000Y-44297600D02*
X81280000Y-52628800D01*
X125018800Y-47091600D02*
X123545600Y-47091600D01*
X123545600Y-47091600D02*
X122631200Y-46177200D01*
X112471200Y-46177200D02*
X112471200Y-44551600D01*
X112471200Y-44551600D02*
X110083600Y-42164000D01*
X113817400Y-36677600D02*
X111404400Y-36677600D01*
X110083600Y-37998400D02*
X110083600Y-42164000D01*
X111404400Y-36677600D02*
X110083600Y-37998400D01*
X115087400Y-50012600D02*
X115087400Y-48641000D01*
X119024400Y-37846000D02*
X119024400Y-29692600D01*
X116687600Y-40182800D02*
X119024400Y-37846000D01*
X116687600Y-47040800D02*
X116687600Y-40182800D01*
X115087400Y-48641000D02*
X116687600Y-47040800D01*
X118897400Y-50012600D02*
X118897400Y-39547800D01*
X126415800Y-38049200D02*
X127787400Y-36677600D01*
X120396000Y-38049200D02*
X126415800Y-38049200D01*
X118897400Y-39547800D02*
X120396000Y-38049200D01*
D28*
G36*
X129490400Y-52985600D02*
X105510400Y-52985600D01*
X105510400Y-47577331D01*
X108790873Y-47577331D01*
X109016836Y-48046663D01*
X109405204Y-48393797D01*
X109750271Y-48536716D01*
X109956600Y-48413374D01*
X109956600Y-47371000D01*
X108913394Y-47371000D01*
X108790873Y-47577331D01*
X105510400Y-47577331D01*
X105510400Y-46910669D01*
X108790873Y-46910669D01*
X108913394Y-47117000D01*
X109956600Y-47117000D01*
X109956600Y-46074626D01*
X109750271Y-45951284D01*
X109405204Y-46094203D01*
X109016836Y-46441337D01*
X108790873Y-46910669D01*
X105510400Y-46910669D01*
X105510400Y-41960800D01*
X105456354Y-41689095D01*
X105302446Y-41458754D01*
X105072105Y-41304846D01*
X104800400Y-41250800D01*
X104677274Y-41250800D01*
X104802558Y-37058600D01*
X105826307Y-37058600D01*
X105939346Y-37626885D01*
X106261253Y-38108654D01*
X106590426Y-38328600D01*
X106261253Y-38548546D01*
X105939346Y-39030315D01*
X105826307Y-39598600D01*
X105939346Y-40166885D01*
X106261253Y-40648654D01*
X106302852Y-40676450D01*
X106255083Y-40685438D01*
X106038959Y-40824510D01*
X105893969Y-41036710D01*
X105842960Y-41288600D01*
X105842960Y-42988600D01*
X105887238Y-43223917D01*
X106026310Y-43440041D01*
X106238510Y-43585031D01*
X106490400Y-43636040D01*
X108190400Y-43636040D01*
X108425717Y-43591762D01*
X108641841Y-43452690D01*
X108786831Y-43240490D01*
X108837840Y-42988600D01*
X108837840Y-42644920D01*
X108951182Y-42919229D01*
X109326396Y-43295098D01*
X109816887Y-43498768D01*
X110344026Y-43499228D01*
X111685692Y-44840894D01*
X111602829Y-44875132D01*
X111170649Y-45306557D01*
X110936467Y-45870530D01*
X110936137Y-46249855D01*
X110761996Y-46094203D01*
X110416929Y-45951284D01*
X110210600Y-46074626D01*
X110210600Y-47117000D01*
X110230600Y-47117000D01*
X110230600Y-47371000D01*
X110210600Y-47371000D01*
X110210600Y-48413374D01*
X110416929Y-48536716D01*
X110761996Y-48393797D01*
X111150364Y-48046663D01*
X111376327Y-47577331D01*
X111253807Y-47371002D01*
X111418600Y-47371002D01*
X111418600Y-47295476D01*
X111600557Y-47477751D01*
X112164530Y-47711933D01*
X112775191Y-47712465D01*
X113339571Y-47479268D01*
X113507813Y-47311320D01*
X113508038Y-47312517D01*
X113647110Y-47528641D01*
X113859310Y-47673631D01*
X114111200Y-47724640D01*
X114928958Y-47724640D01*
X114549999Y-48103599D01*
X114385252Y-48350161D01*
X114354988Y-48502306D01*
X114317083Y-48509438D01*
X114100959Y-48648510D01*
X113955969Y-48860710D01*
X113904960Y-49112600D01*
X113904960Y-50912600D01*
X113949238Y-51147917D01*
X114088310Y-51364041D01*
X114300510Y-51509031D01*
X114552400Y-51560040D01*
X115622400Y-51560040D01*
X115857717Y-51515762D01*
X115949230Y-51456875D01*
X116050017Y-51506500D01*
X116230400Y-51380844D01*
X116230400Y-51107361D01*
X116269840Y-50912600D01*
X116269840Y-49112600D01*
X116230400Y-48902995D01*
X116230400Y-48644356D01*
X116188225Y-48614977D01*
X117225001Y-47578201D01*
X117389748Y-47331639D01*
X117447600Y-47040800D01*
X117447600Y-40497602D01*
X118137400Y-39807802D01*
X118137400Y-48578190D01*
X118075140Y-48536589D01*
X117627400Y-48447528D01*
X117179660Y-48536589D01*
X116976634Y-48672246D01*
X116664783Y-48518700D01*
X116484400Y-48644356D01*
X116484400Y-49481790D01*
X116457400Y-49617528D01*
X116457400Y-50407672D01*
X116484400Y-50543410D01*
X116484400Y-51380844D01*
X116664783Y-51506500D01*
X116976634Y-51352954D01*
X117179660Y-51488611D01*
X117627400Y-51577672D01*
X118075140Y-51488611D01*
X118262400Y-51363488D01*
X118449660Y-51488611D01*
X118897400Y-51577672D01*
X119345140Y-51488611D01*
X119724715Y-51234987D01*
X119978339Y-50855412D01*
X120067400Y-50407672D01*
X120067400Y-49617528D01*
X119978339Y-49169788D01*
X119724715Y-48790213D01*
X119657400Y-48745235D01*
X119657400Y-47616956D01*
X119886130Y-47711933D01*
X120496791Y-47712465D01*
X121061171Y-47479268D01*
X121229413Y-47311320D01*
X121229638Y-47312517D01*
X121368710Y-47528641D01*
X121580910Y-47673631D01*
X121832800Y-47724640D01*
X123151333Y-47724640D01*
X123254761Y-47793748D01*
X123545600Y-47851600D01*
X123891145Y-47851600D01*
X124261596Y-48222698D01*
X124752087Y-48426368D01*
X125283183Y-48426831D01*
X125774029Y-48224018D01*
X126149898Y-47848804D01*
X126353568Y-47358313D01*
X126354031Y-46827217D01*
X126151218Y-46336371D01*
X125776004Y-45960502D01*
X125285513Y-45756832D01*
X124754417Y-45756369D01*
X124280240Y-45952295D01*
X124280240Y-45277200D01*
X124235962Y-45041883D01*
X124096890Y-44825759D01*
X123884690Y-44680769D01*
X123632800Y-44629760D01*
X121832800Y-44629760D01*
X121597483Y-44674038D01*
X121381359Y-44813110D01*
X121236369Y-45025310D01*
X121232233Y-45045734D01*
X121063443Y-44876649D01*
X120499470Y-44642467D01*
X119888809Y-44641935D01*
X119657400Y-44737551D01*
X119657400Y-42214836D01*
X119675683Y-42306751D01*
X119986752Y-42772298D01*
X120452299Y-43083367D01*
X121001450Y-43192600D01*
X121873350Y-43192600D01*
X122422501Y-43083367D01*
X122888048Y-42772298D01*
X123173605Y-42344931D01*
X123726073Y-42344931D01*
X123952036Y-42814263D01*
X124340404Y-43161397D01*
X124685471Y-43304316D01*
X124891800Y-43180974D01*
X124891800Y-42138600D01*
X123848594Y-42138600D01*
X123726073Y-42344931D01*
X123173605Y-42344931D01*
X123199117Y-42306751D01*
X123308350Y-41757600D01*
X123292571Y-41678269D01*
X123726073Y-41678269D01*
X123848594Y-41884600D01*
X124891800Y-41884600D01*
X124891800Y-40842226D01*
X124685471Y-40718884D01*
X124340404Y-40861803D01*
X123952036Y-41208937D01*
X123726073Y-41678269D01*
X123292571Y-41678269D01*
X123199117Y-41208449D01*
X123143936Y-41125866D01*
X124292202Y-39977600D01*
X126514446Y-39977600D01*
X126708253Y-40267654D01*
X126749852Y-40295450D01*
X126702083Y-40304438D01*
X126485959Y-40443510D01*
X126340969Y-40655710D01*
X126289960Y-40907600D01*
X126289960Y-41633474D01*
X126085564Y-41208937D01*
X125697196Y-40861803D01*
X125352129Y-40718884D01*
X125145800Y-40842226D01*
X125145800Y-41884600D01*
X125165800Y-41884600D01*
X125165800Y-42138600D01*
X125145800Y-42138600D01*
X125145800Y-43180974D01*
X125352129Y-43304316D01*
X125697196Y-43161397D01*
X126085564Y-42814263D01*
X126289960Y-42389726D01*
X126289960Y-42607600D01*
X126334238Y-42842917D01*
X126473310Y-43059041D01*
X126685510Y-43204031D01*
X126937400Y-43255040D01*
X128637400Y-43255040D01*
X128872717Y-43210762D01*
X129088841Y-43071690D01*
X129233831Y-42859490D01*
X129284840Y-42607600D01*
X129284840Y-40907600D01*
X129240562Y-40672283D01*
X129101490Y-40456159D01*
X128889290Y-40311169D01*
X128821859Y-40297514D01*
X128866547Y-40267654D01*
X129188454Y-39785885D01*
X129301493Y-39217600D01*
X129188454Y-38649315D01*
X128866547Y-38167546D01*
X128537374Y-37947600D01*
X128866547Y-37727654D01*
X129188454Y-37245885D01*
X129301493Y-36677600D01*
X129188454Y-36109315D01*
X128866547Y-35627546D01*
X128525847Y-35399898D01*
X128668758Y-35332783D01*
X129059045Y-34904524D01*
X129228876Y-34494490D01*
X129107555Y-34264600D01*
X127914400Y-34264600D01*
X127914400Y-34284600D01*
X127660400Y-34284600D01*
X127660400Y-34264600D01*
X126467245Y-34264600D01*
X126345924Y-34494490D01*
X126515755Y-34904524D01*
X126906042Y-35332783D01*
X127048953Y-35399898D01*
X126708253Y-35627546D01*
X126386346Y-36109315D01*
X126273307Y-36677600D01*
X126346190Y-37044008D01*
X126100998Y-37289200D01*
X123157390Y-37289200D01*
X123199117Y-37226751D01*
X123308350Y-36677600D01*
X123199117Y-36128449D01*
X122888048Y-35662902D01*
X122505962Y-35407600D01*
X122888048Y-35152298D01*
X123199117Y-34686751D01*
X123308350Y-34137600D01*
X123237361Y-33780710D01*
X126345924Y-33780710D01*
X126467245Y-34010600D01*
X127660400Y-34010600D01*
X127660400Y-32816781D01*
X127914400Y-32816781D01*
X127914400Y-34010600D01*
X129107555Y-34010600D01*
X129228876Y-33780710D01*
X129059045Y-33370676D01*
X128668758Y-32942417D01*
X128144292Y-32696114D01*
X127914400Y-32816781D01*
X127660400Y-32816781D01*
X127430508Y-32696114D01*
X126906042Y-32942417D01*
X126515755Y-33370676D01*
X126345924Y-33780710D01*
X123237361Y-33780710D01*
X123199117Y-33588449D01*
X122888048Y-33122902D01*
X122422501Y-32811833D01*
X121873350Y-32702600D01*
X121001450Y-32702600D01*
X120452299Y-32811833D01*
X119986752Y-33122902D01*
X119784400Y-33425743D01*
X119784400Y-30959965D01*
X119851715Y-30914987D01*
X120105339Y-30535412D01*
X120194400Y-30087672D01*
X120194400Y-29297528D01*
X120105339Y-28849788D01*
X119851715Y-28470213D01*
X119472140Y-28216589D01*
X119024400Y-28127528D01*
X118576660Y-28216589D01*
X118389400Y-28341712D01*
X118202140Y-28216589D01*
X117754400Y-28127528D01*
X117306660Y-28216589D01*
X117103634Y-28352246D01*
X116791783Y-28198700D01*
X116611400Y-28324356D01*
X116611400Y-29161790D01*
X116584400Y-29297528D01*
X116584400Y-30087672D01*
X116611400Y-30223410D01*
X116611400Y-31060844D01*
X116791783Y-31186500D01*
X117103634Y-31032954D01*
X117306660Y-31168611D01*
X117754400Y-31257672D01*
X118202140Y-31168611D01*
X118264400Y-31127010D01*
X118264400Y-37531198D01*
X116150199Y-39645399D01*
X115985452Y-39891961D01*
X115927600Y-40182800D01*
X115927600Y-44633081D01*
X115911200Y-44629760D01*
X114111200Y-44629760D01*
X113875883Y-44674038D01*
X113659759Y-44813110D01*
X113514769Y-45025310D01*
X113510633Y-45045734D01*
X113341843Y-44876649D01*
X113231200Y-44830706D01*
X113231200Y-44551600D01*
X113173348Y-44260761D01*
X113173348Y-44260760D01*
X113008601Y-44014199D01*
X111418374Y-42423972D01*
X111418650Y-42106639D01*
X112025496Y-42106639D01*
X112043033Y-42189419D01*
X112312900Y-42682496D01*
X112750917Y-43034766D01*
X113290400Y-43192600D01*
X113690400Y-43192600D01*
X113690400Y-41884600D01*
X113944400Y-41884600D01*
X113944400Y-43192600D01*
X114344400Y-43192600D01*
X114883883Y-43034766D01*
X115321900Y-42682496D01*
X115591767Y-42189419D01*
X115609304Y-42106639D01*
X115487315Y-41884600D01*
X113944400Y-41884600D01*
X113690400Y-41884600D01*
X112147485Y-41884600D01*
X112025496Y-42106639D01*
X111418650Y-42106639D01*
X111418831Y-41899617D01*
X111216018Y-41408771D01*
X110843600Y-41035703D01*
X110843600Y-38313202D01*
X111719202Y-37437600D01*
X112196568Y-37437600D01*
X112366752Y-37692298D01*
X112748838Y-37947600D01*
X112366752Y-38202902D01*
X112055683Y-38668449D01*
X111946450Y-39217600D01*
X112055683Y-39766751D01*
X112366752Y-40232298D01*
X112745107Y-40485107D01*
X112312900Y-40832704D01*
X112043033Y-41325781D01*
X112025496Y-41408561D01*
X112147485Y-41630600D01*
X113690400Y-41630600D01*
X113690400Y-41610600D01*
X113944400Y-41610600D01*
X113944400Y-41630600D01*
X115487315Y-41630600D01*
X115609304Y-41408561D01*
X115591767Y-41325781D01*
X115321900Y-40832704D01*
X114889693Y-40485107D01*
X115268048Y-40232298D01*
X115579117Y-39766751D01*
X115688350Y-39217600D01*
X115579117Y-38668449D01*
X115268048Y-38202902D01*
X114885962Y-37947600D01*
X115268048Y-37692298D01*
X115579117Y-37226751D01*
X115688350Y-36677600D01*
X115579117Y-36128449D01*
X115268048Y-35662902D01*
X115122050Y-35565349D01*
X115252717Y-35540762D01*
X115468841Y-35401690D01*
X115613831Y-35189490D01*
X115664840Y-34937600D01*
X115664840Y-33337600D01*
X115620562Y-33102283D01*
X115481490Y-32886159D01*
X115269290Y-32741169D01*
X115017400Y-32690160D01*
X112617400Y-32690160D01*
X112382083Y-32734438D01*
X112165959Y-32873510D01*
X112020969Y-33085710D01*
X111969960Y-33337600D01*
X111969960Y-34937600D01*
X112014238Y-35172917D01*
X112153310Y-35389041D01*
X112365510Y-35534031D01*
X112514474Y-35564197D01*
X112366752Y-35662902D01*
X112196568Y-35917600D01*
X111404400Y-35917600D01*
X111113560Y-35975452D01*
X110866999Y-36140199D01*
X109546199Y-37460999D01*
X109381452Y-37707561D01*
X109323600Y-37998400D01*
X109323600Y-41036345D01*
X108952502Y-41406796D01*
X108837840Y-41682932D01*
X108837840Y-41288600D01*
X108793562Y-41053283D01*
X108654490Y-40837159D01*
X108442290Y-40692169D01*
X108374859Y-40678514D01*
X108419547Y-40648654D01*
X108741454Y-40166885D01*
X108854493Y-39598600D01*
X108741454Y-39030315D01*
X108419547Y-38548546D01*
X108090374Y-38328600D01*
X108419547Y-38108654D01*
X108741454Y-37626885D01*
X108854493Y-37058600D01*
X108781610Y-36692192D01*
X110113001Y-35360801D01*
X110277748Y-35114239D01*
X110335600Y-34823400D01*
X110335600Y-33588802D01*
X113471802Y-30452600D01*
X114031960Y-30452600D01*
X114031960Y-30592600D01*
X114076238Y-30827917D01*
X114215310Y-31044041D01*
X114427510Y-31189031D01*
X114679400Y-31240040D01*
X115749400Y-31240040D01*
X115984717Y-31195762D01*
X116076230Y-31136875D01*
X116177017Y-31186500D01*
X116357400Y-31060844D01*
X116357400Y-30787361D01*
X116396840Y-30592600D01*
X116396840Y-28792600D01*
X116357400Y-28582995D01*
X116357400Y-28324356D01*
X116177017Y-28198700D01*
X116077039Y-28247926D01*
X116001290Y-28196169D01*
X115749400Y-28145160D01*
X114679400Y-28145160D01*
X114444083Y-28189438D01*
X114227959Y-28328510D01*
X114082969Y-28540710D01*
X114031960Y-28792600D01*
X114031960Y-28932600D01*
X113157000Y-28932600D01*
X112914414Y-28980854D01*
X112866160Y-28990452D01*
X112619599Y-29155199D01*
X109038199Y-32736599D01*
X108873452Y-32983161D01*
X108815600Y-33274000D01*
X108815600Y-34391598D01*
X108660556Y-34391598D01*
X108781876Y-34161710D01*
X108612045Y-33751676D01*
X108221758Y-33323417D01*
X107697292Y-33077114D01*
X107467400Y-33197781D01*
X107467400Y-34391600D01*
X107487400Y-34391600D01*
X107487400Y-34645600D01*
X107467400Y-34645600D01*
X107467400Y-34665600D01*
X107213400Y-34665600D01*
X107213400Y-34645600D01*
X106020245Y-34645600D01*
X105898924Y-34875490D01*
X106068755Y-35285524D01*
X106459042Y-35713783D01*
X106601953Y-35780898D01*
X106261253Y-36008546D01*
X105939346Y-36490315D01*
X105826307Y-37058600D01*
X104802558Y-37058600D01*
X104878206Y-34527323D01*
X105072105Y-34488754D01*
X105302446Y-34334846D01*
X105418131Y-34161710D01*
X105898924Y-34161710D01*
X106020245Y-34391600D01*
X107213400Y-34391600D01*
X107213400Y-33197781D01*
X106983508Y-33077114D01*
X106459042Y-33323417D01*
X106068755Y-33751676D01*
X105898924Y-34161710D01*
X105418131Y-34161710D01*
X105456354Y-34104505D01*
X105510400Y-33832800D01*
X105510400Y-26465600D01*
X129490400Y-26465600D01*
X129490400Y-52985600D01*
X129490400Y-52985600D01*
G37*
X129490400Y-52985600D02*
X105510400Y-52985600D01*
X105510400Y-47577331D01*
X108790873Y-47577331D01*
X109016836Y-48046663D01*
X109405204Y-48393797D01*
X109750271Y-48536716D01*
X109956600Y-48413374D01*
X109956600Y-47371000D01*
X108913394Y-47371000D01*
X108790873Y-47577331D01*
X105510400Y-47577331D01*
X105510400Y-46910669D01*
X108790873Y-46910669D01*
X108913394Y-47117000D01*
X109956600Y-47117000D01*
X109956600Y-46074626D01*
X109750271Y-45951284D01*
X109405204Y-46094203D01*
X109016836Y-46441337D01*
X108790873Y-46910669D01*
X105510400Y-46910669D01*
X105510400Y-41960800D01*
X105456354Y-41689095D01*
X105302446Y-41458754D01*
X105072105Y-41304846D01*
X104800400Y-41250800D01*
X104677274Y-41250800D01*
X104802558Y-37058600D01*
X105826307Y-37058600D01*
X105939346Y-37626885D01*
X106261253Y-38108654D01*
X106590426Y-38328600D01*
X106261253Y-38548546D01*
X105939346Y-39030315D01*
X105826307Y-39598600D01*
X105939346Y-40166885D01*
X106261253Y-40648654D01*
X106302852Y-40676450D01*
X106255083Y-40685438D01*
X106038959Y-40824510D01*
X105893969Y-41036710D01*
X105842960Y-41288600D01*
X105842960Y-42988600D01*
X105887238Y-43223917D01*
X106026310Y-43440041D01*
X106238510Y-43585031D01*
X106490400Y-43636040D01*
X108190400Y-43636040D01*
X108425717Y-43591762D01*
X108641841Y-43452690D01*
X108786831Y-43240490D01*
X108837840Y-42988600D01*
X108837840Y-42644920D01*
X108951182Y-42919229D01*
X109326396Y-43295098D01*
X109816887Y-43498768D01*
X110344026Y-43499228D01*
X111685692Y-44840894D01*
X111602829Y-44875132D01*
X111170649Y-45306557D01*
X110936467Y-45870530D01*
X110936137Y-46249855D01*
X110761996Y-46094203D01*
X110416929Y-45951284D01*
X110210600Y-46074626D01*
X110210600Y-47117000D01*
X110230600Y-47117000D01*
X110230600Y-47371000D01*
X110210600Y-47371000D01*
X110210600Y-48413374D01*
X110416929Y-48536716D01*
X110761996Y-48393797D01*
X111150364Y-48046663D01*
X111376327Y-47577331D01*
X111253807Y-47371002D01*
X111418600Y-47371002D01*
X111418600Y-47295476D01*
X111600557Y-47477751D01*
X112164530Y-47711933D01*
X112775191Y-47712465D01*
X113339571Y-47479268D01*
X113507813Y-47311320D01*
X113508038Y-47312517D01*
X113647110Y-47528641D01*
X113859310Y-47673631D01*
X114111200Y-47724640D01*
X114928958Y-47724640D01*
X114549999Y-48103599D01*
X114385252Y-48350161D01*
X114354988Y-48502306D01*
X114317083Y-48509438D01*
X114100959Y-48648510D01*
X113955969Y-48860710D01*
X113904960Y-49112600D01*
X113904960Y-50912600D01*
X113949238Y-51147917D01*
X114088310Y-51364041D01*
X114300510Y-51509031D01*
X114552400Y-51560040D01*
X115622400Y-51560040D01*
X115857717Y-51515762D01*
X115949230Y-51456875D01*
X116050017Y-51506500D01*
X116230400Y-51380844D01*
X116230400Y-51107361D01*
X116269840Y-50912600D01*
X116269840Y-49112600D01*
X116230400Y-48902995D01*
X116230400Y-48644356D01*
X116188225Y-48614977D01*
X117225001Y-47578201D01*
X117389748Y-47331639D01*
X117447600Y-47040800D01*
X117447600Y-40497602D01*
X118137400Y-39807802D01*
X118137400Y-48578190D01*
X118075140Y-48536589D01*
X117627400Y-48447528D01*
X117179660Y-48536589D01*
X116976634Y-48672246D01*
X116664783Y-48518700D01*
X116484400Y-48644356D01*
X116484400Y-49481790D01*
X116457400Y-49617528D01*
X116457400Y-50407672D01*
X116484400Y-50543410D01*
X116484400Y-51380844D01*
X116664783Y-51506500D01*
X116976634Y-51352954D01*
X117179660Y-51488611D01*
X117627400Y-51577672D01*
X118075140Y-51488611D01*
X118262400Y-51363488D01*
X118449660Y-51488611D01*
X118897400Y-51577672D01*
X119345140Y-51488611D01*
X119724715Y-51234987D01*
X119978339Y-50855412D01*
X120067400Y-50407672D01*
X120067400Y-49617528D01*
X119978339Y-49169788D01*
X119724715Y-48790213D01*
X119657400Y-48745235D01*
X119657400Y-47616956D01*
X119886130Y-47711933D01*
X120496791Y-47712465D01*
X121061171Y-47479268D01*
X121229413Y-47311320D01*
X121229638Y-47312517D01*
X121368710Y-47528641D01*
X121580910Y-47673631D01*
X121832800Y-47724640D01*
X123151333Y-47724640D01*
X123254761Y-47793748D01*
X123545600Y-47851600D01*
X123891145Y-47851600D01*
X124261596Y-48222698D01*
X124752087Y-48426368D01*
X125283183Y-48426831D01*
X125774029Y-48224018D01*
X126149898Y-47848804D01*
X126353568Y-47358313D01*
X126354031Y-46827217D01*
X126151218Y-46336371D01*
X125776004Y-45960502D01*
X125285513Y-45756832D01*
X124754417Y-45756369D01*
X124280240Y-45952295D01*
X124280240Y-45277200D01*
X124235962Y-45041883D01*
X124096890Y-44825759D01*
X123884690Y-44680769D01*
X123632800Y-44629760D01*
X121832800Y-44629760D01*
X121597483Y-44674038D01*
X121381359Y-44813110D01*
X121236369Y-45025310D01*
X121232233Y-45045734D01*
X121063443Y-44876649D01*
X120499470Y-44642467D01*
X119888809Y-44641935D01*
X119657400Y-44737551D01*
X119657400Y-42214836D01*
X119675683Y-42306751D01*
X119986752Y-42772298D01*
X120452299Y-43083367D01*
X121001450Y-43192600D01*
X121873350Y-43192600D01*
X122422501Y-43083367D01*
X122888048Y-42772298D01*
X123173605Y-42344931D01*
X123726073Y-42344931D01*
X123952036Y-42814263D01*
X124340404Y-43161397D01*
X124685471Y-43304316D01*
X124891800Y-43180974D01*
X124891800Y-42138600D01*
X123848594Y-42138600D01*
X123726073Y-42344931D01*
X123173605Y-42344931D01*
X123199117Y-42306751D01*
X123308350Y-41757600D01*
X123292571Y-41678269D01*
X123726073Y-41678269D01*
X123848594Y-41884600D01*
X124891800Y-41884600D01*
X124891800Y-40842226D01*
X124685471Y-40718884D01*
X124340404Y-40861803D01*
X123952036Y-41208937D01*
X123726073Y-41678269D01*
X123292571Y-41678269D01*
X123199117Y-41208449D01*
X123143936Y-41125866D01*
X124292202Y-39977600D01*
X126514446Y-39977600D01*
X126708253Y-40267654D01*
X126749852Y-40295450D01*
X126702083Y-40304438D01*
X126485959Y-40443510D01*
X126340969Y-40655710D01*
X126289960Y-40907600D01*
X126289960Y-41633474D01*
X126085564Y-41208937D01*
X125697196Y-40861803D01*
X125352129Y-40718884D01*
X125145800Y-40842226D01*
X125145800Y-41884600D01*
X125165800Y-41884600D01*
X125165800Y-42138600D01*
X125145800Y-42138600D01*
X125145800Y-43180974D01*
X125352129Y-43304316D01*
X125697196Y-43161397D01*
X126085564Y-42814263D01*
X126289960Y-42389726D01*
X126289960Y-42607600D01*
X126334238Y-42842917D01*
X126473310Y-43059041D01*
X126685510Y-43204031D01*
X126937400Y-43255040D01*
X128637400Y-43255040D01*
X128872717Y-43210762D01*
X129088841Y-43071690D01*
X129233831Y-42859490D01*
X129284840Y-42607600D01*
X129284840Y-40907600D01*
X129240562Y-40672283D01*
X129101490Y-40456159D01*
X128889290Y-40311169D01*
X128821859Y-40297514D01*
X128866547Y-40267654D01*
X129188454Y-39785885D01*
X129301493Y-39217600D01*
X129188454Y-38649315D01*
X128866547Y-38167546D01*
X128537374Y-37947600D01*
X128866547Y-37727654D01*
X129188454Y-37245885D01*
X129301493Y-36677600D01*
X129188454Y-36109315D01*
X128866547Y-35627546D01*
X128525847Y-35399898D01*
X128668758Y-35332783D01*
X129059045Y-34904524D01*
X129228876Y-34494490D01*
X129107555Y-34264600D01*
X127914400Y-34264600D01*
X127914400Y-34284600D01*
X127660400Y-34284600D01*
X127660400Y-34264600D01*
X126467245Y-34264600D01*
X126345924Y-34494490D01*
X126515755Y-34904524D01*
X126906042Y-35332783D01*
X127048953Y-35399898D01*
X126708253Y-35627546D01*
X126386346Y-36109315D01*
X126273307Y-36677600D01*
X126346190Y-37044008D01*
X126100998Y-37289200D01*
X123157390Y-37289200D01*
X123199117Y-37226751D01*
X123308350Y-36677600D01*
X123199117Y-36128449D01*
X122888048Y-35662902D01*
X122505962Y-35407600D01*
X122888048Y-35152298D01*
X123199117Y-34686751D01*
X123308350Y-34137600D01*
X123237361Y-33780710D01*
X126345924Y-33780710D01*
X126467245Y-34010600D01*
X127660400Y-34010600D01*
X127660400Y-32816781D01*
X127914400Y-32816781D01*
X127914400Y-34010600D01*
X129107555Y-34010600D01*
X129228876Y-33780710D01*
X129059045Y-33370676D01*
X128668758Y-32942417D01*
X128144292Y-32696114D01*
X127914400Y-32816781D01*
X127660400Y-32816781D01*
X127430508Y-32696114D01*
X126906042Y-32942417D01*
X126515755Y-33370676D01*
X126345924Y-33780710D01*
X123237361Y-33780710D01*
X123199117Y-33588449D01*
X122888048Y-33122902D01*
X122422501Y-32811833D01*
X121873350Y-32702600D01*
X121001450Y-32702600D01*
X120452299Y-32811833D01*
X119986752Y-33122902D01*
X119784400Y-33425743D01*
X119784400Y-30959965D01*
X119851715Y-30914987D01*
X120105339Y-30535412D01*
X120194400Y-30087672D01*
X120194400Y-29297528D01*
X120105339Y-28849788D01*
X119851715Y-28470213D01*
X119472140Y-28216589D01*
X119024400Y-28127528D01*
X118576660Y-28216589D01*
X118389400Y-28341712D01*
X118202140Y-28216589D01*
X117754400Y-28127528D01*
X117306660Y-28216589D01*
X117103634Y-28352246D01*
X116791783Y-28198700D01*
X116611400Y-28324356D01*
X116611400Y-29161790D01*
X116584400Y-29297528D01*
X116584400Y-30087672D01*
X116611400Y-30223410D01*
X116611400Y-31060844D01*
X116791783Y-31186500D01*
X117103634Y-31032954D01*
X117306660Y-31168611D01*
X117754400Y-31257672D01*
X118202140Y-31168611D01*
X118264400Y-31127010D01*
X118264400Y-37531198D01*
X116150199Y-39645399D01*
X115985452Y-39891961D01*
X115927600Y-40182800D01*
X115927600Y-44633081D01*
X115911200Y-44629760D01*
X114111200Y-44629760D01*
X113875883Y-44674038D01*
X113659759Y-44813110D01*
X113514769Y-45025310D01*
X113510633Y-45045734D01*
X113341843Y-44876649D01*
X113231200Y-44830706D01*
X113231200Y-44551600D01*
X113173348Y-44260761D01*
X113173348Y-44260760D01*
X113008601Y-44014199D01*
X111418374Y-42423972D01*
X111418650Y-42106639D01*
X112025496Y-42106639D01*
X112043033Y-42189419D01*
X112312900Y-42682496D01*
X112750917Y-43034766D01*
X113290400Y-43192600D01*
X113690400Y-43192600D01*
X113690400Y-41884600D01*
X113944400Y-41884600D01*
X113944400Y-43192600D01*
X114344400Y-43192600D01*
X114883883Y-43034766D01*
X115321900Y-42682496D01*
X115591767Y-42189419D01*
X115609304Y-42106639D01*
X115487315Y-41884600D01*
X113944400Y-41884600D01*
X113690400Y-41884600D01*
X112147485Y-41884600D01*
X112025496Y-42106639D01*
X111418650Y-42106639D01*
X111418831Y-41899617D01*
X111216018Y-41408771D01*
X110843600Y-41035703D01*
X110843600Y-38313202D01*
X111719202Y-37437600D01*
X112196568Y-37437600D01*
X112366752Y-37692298D01*
X112748838Y-37947600D01*
X112366752Y-38202902D01*
X112055683Y-38668449D01*
X111946450Y-39217600D01*
X112055683Y-39766751D01*
X112366752Y-40232298D01*
X112745107Y-40485107D01*
X112312900Y-40832704D01*
X112043033Y-41325781D01*
X112025496Y-41408561D01*
X112147485Y-41630600D01*
X113690400Y-41630600D01*
X113690400Y-41610600D01*
X113944400Y-41610600D01*
X113944400Y-41630600D01*
X115487315Y-41630600D01*
X115609304Y-41408561D01*
X115591767Y-41325781D01*
X115321900Y-40832704D01*
X114889693Y-40485107D01*
X115268048Y-40232298D01*
X115579117Y-39766751D01*
X115688350Y-39217600D01*
X115579117Y-38668449D01*
X115268048Y-38202902D01*
X114885962Y-37947600D01*
X115268048Y-37692298D01*
X115579117Y-37226751D01*
X115688350Y-36677600D01*
X115579117Y-36128449D01*
X115268048Y-35662902D01*
X115122050Y-35565349D01*
X115252717Y-35540762D01*
X115468841Y-35401690D01*
X115613831Y-35189490D01*
X115664840Y-34937600D01*
X115664840Y-33337600D01*
X115620562Y-33102283D01*
X115481490Y-32886159D01*
X115269290Y-32741169D01*
X115017400Y-32690160D01*
X112617400Y-32690160D01*
X112382083Y-32734438D01*
X112165959Y-32873510D01*
X112020969Y-33085710D01*
X111969960Y-33337600D01*
X111969960Y-34937600D01*
X112014238Y-35172917D01*
X112153310Y-35389041D01*
X112365510Y-35534031D01*
X112514474Y-35564197D01*
X112366752Y-35662902D01*
X112196568Y-35917600D01*
X111404400Y-35917600D01*
X111113560Y-35975452D01*
X110866999Y-36140199D01*
X109546199Y-37460999D01*
X109381452Y-37707561D01*
X109323600Y-37998400D01*
X109323600Y-41036345D01*
X108952502Y-41406796D01*
X108837840Y-41682932D01*
X108837840Y-41288600D01*
X108793562Y-41053283D01*
X108654490Y-40837159D01*
X108442290Y-40692169D01*
X108374859Y-40678514D01*
X108419547Y-40648654D01*
X108741454Y-40166885D01*
X108854493Y-39598600D01*
X108741454Y-39030315D01*
X108419547Y-38548546D01*
X108090374Y-38328600D01*
X108419547Y-38108654D01*
X108741454Y-37626885D01*
X108854493Y-37058600D01*
X108781610Y-36692192D01*
X110113001Y-35360801D01*
X110277748Y-35114239D01*
X110335600Y-34823400D01*
X110335600Y-33588802D01*
X113471802Y-30452600D01*
X114031960Y-30452600D01*
X114031960Y-30592600D01*
X114076238Y-30827917D01*
X114215310Y-31044041D01*
X114427510Y-31189031D01*
X114679400Y-31240040D01*
X115749400Y-31240040D01*
X115984717Y-31195762D01*
X116076230Y-31136875D01*
X116177017Y-31186500D01*
X116357400Y-31060844D01*
X116357400Y-30787361D01*
X116396840Y-30592600D01*
X116396840Y-28792600D01*
X116357400Y-28582995D01*
X116357400Y-28324356D01*
X116177017Y-28198700D01*
X116077039Y-28247926D01*
X116001290Y-28196169D01*
X115749400Y-28145160D01*
X114679400Y-28145160D01*
X114444083Y-28189438D01*
X114227959Y-28328510D01*
X114082969Y-28540710D01*
X114031960Y-28792600D01*
X114031960Y-28932600D01*
X113157000Y-28932600D01*
X112914414Y-28980854D01*
X112866160Y-28990452D01*
X112619599Y-29155199D01*
X109038199Y-32736599D01*
X108873452Y-32983161D01*
X108815600Y-33274000D01*
X108815600Y-34391598D01*
X108660556Y-34391598D01*
X108781876Y-34161710D01*
X108612045Y-33751676D01*
X108221758Y-33323417D01*
X107697292Y-33077114D01*
X107467400Y-33197781D01*
X107467400Y-34391600D01*
X107487400Y-34391600D01*
X107487400Y-34645600D01*
X107467400Y-34645600D01*
X107467400Y-34665600D01*
X107213400Y-34665600D01*
X107213400Y-34645600D01*
X106020245Y-34645600D01*
X105898924Y-34875490D01*
X106068755Y-35285524D01*
X106459042Y-35713783D01*
X106601953Y-35780898D01*
X106261253Y-36008546D01*
X105939346Y-36490315D01*
X105826307Y-37058600D01*
X104802558Y-37058600D01*
X104878206Y-34527323D01*
X105072105Y-34488754D01*
X105302446Y-34334846D01*
X105418131Y-34161710D01*
X105898924Y-34161710D01*
X106020245Y-34391600D01*
X107213400Y-34391600D01*
X107213400Y-33197781D01*
X106983508Y-33077114D01*
X106459042Y-33323417D01*
X106068755Y-33751676D01*
X105898924Y-34161710D01*
X105418131Y-34161710D01*
X105456354Y-34104505D01*
X105510400Y-33832800D01*
X105510400Y-26465600D01*
X129490400Y-26465600D01*
X129490400Y-52985600D01*
G36*
X103176000Y-53341200D02*
X94107599Y-53341200D01*
X94409259Y-52967941D01*
X94564200Y-52443000D01*
X94564200Y-52216327D01*
X94586473Y-52270099D01*
X94765102Y-52448727D01*
X94998491Y-52545400D01*
X95439050Y-52545400D01*
X95597800Y-52386650D01*
X95597800Y-51587400D01*
X95577800Y-51587400D01*
X95577800Y-51333400D01*
X95597800Y-51333400D01*
X95597800Y-50534150D01*
X95439050Y-50375400D01*
X94998491Y-50375400D01*
X94765102Y-50472073D01*
X94586473Y-50650701D01*
X94489800Y-50884090D01*
X94489800Y-50936932D01*
X94409259Y-50664059D01*
X94065226Y-50238370D01*
X93584477Y-49976740D01*
X93510270Y-49961780D01*
X93294200Y-50084280D01*
X93294200Y-51689000D01*
X93314200Y-51689000D01*
X93314200Y-51943000D01*
X93294200Y-51943000D01*
X93294200Y-51963000D01*
X93040200Y-51963000D01*
X93040200Y-51943000D01*
X93020200Y-51943000D01*
X93020200Y-51689000D01*
X93040200Y-51689000D01*
X93040200Y-50084280D01*
X92824130Y-49961780D01*
X92749923Y-49976740D01*
X92269174Y-50238370D01*
X91925141Y-50664059D01*
X91906498Y-50727222D01*
X91615028Y-50291008D01*
X91387200Y-50138778D01*
X91387200Y-47469887D01*
X94780200Y-47469887D01*
X94780200Y-47526113D01*
X94889433Y-48075264D01*
X95200502Y-48540811D01*
X95666049Y-48851880D01*
X96215200Y-48961113D01*
X96539086Y-48896688D01*
X97164800Y-49522403D01*
X97164800Y-50393066D01*
X97089483Y-50407238D01*
X96873359Y-50546310D01*
X96826831Y-50614406D01*
X96684498Y-50472073D01*
X96451109Y-50375400D01*
X96010550Y-50375400D01*
X95851800Y-50534150D01*
X95851800Y-51333400D01*
X95871800Y-51333400D01*
X95871800Y-51587400D01*
X95851800Y-51587400D01*
X95851800Y-52386650D01*
X96010550Y-52545400D01*
X96451109Y-52545400D01*
X96684498Y-52448727D01*
X96825736Y-52307490D01*
X96860710Y-52361841D01*
X97072910Y-52506831D01*
X97324800Y-52557840D01*
X98524800Y-52557840D01*
X98760117Y-52513562D01*
X98976241Y-52374490D01*
X99121231Y-52162290D01*
X99172240Y-51910400D01*
X99172240Y-51010400D01*
X99127962Y-50775083D01*
X98988890Y-50558959D01*
X98776690Y-50413969D01*
X98684800Y-50395361D01*
X98684800Y-49207600D01*
X98626948Y-48916761D01*
X98583596Y-48851880D01*
X98462202Y-48670199D01*
X97710003Y-47918000D01*
X99188160Y-47918000D01*
X99188160Y-49618000D01*
X99232438Y-49853317D01*
X99371510Y-50069441D01*
X99583710Y-50214431D01*
X99835600Y-50265440D01*
X101535600Y-50265440D01*
X101770917Y-50221162D01*
X101987041Y-50082090D01*
X102132031Y-49869890D01*
X102183040Y-49618000D01*
X102183040Y-47918000D01*
X102138762Y-47682683D01*
X101999690Y-47466559D01*
X101787490Y-47321569D01*
X101679493Y-47299699D01*
X101957245Y-46994924D01*
X102127076Y-46584890D01*
X102005755Y-46355000D01*
X100812600Y-46355000D01*
X100812600Y-46375000D01*
X100558600Y-46375000D01*
X100558600Y-46355000D01*
X99365445Y-46355000D01*
X99244124Y-46584890D01*
X99413955Y-46994924D01*
X99690101Y-47297937D01*
X99600283Y-47314838D01*
X99384159Y-47453910D01*
X99239169Y-47666110D01*
X99188160Y-47918000D01*
X97710003Y-47918000D01*
X97595104Y-47803101D01*
X97650200Y-47526113D01*
X97650200Y-47469887D01*
X97540967Y-46920736D01*
X97229898Y-46455189D01*
X96764351Y-46144120D01*
X96215200Y-46034887D01*
X95666049Y-46144120D01*
X95200502Y-46455189D01*
X94889433Y-46920736D01*
X94780200Y-47469887D01*
X91387200Y-47469887D01*
X91387200Y-44917202D01*
X95394375Y-40910027D01*
X95461195Y-41131864D01*
X95998423Y-41324965D01*
X96568654Y-41297778D01*
X96969205Y-41131864D01*
X97043339Y-40885745D01*
X96215200Y-40057605D01*
X96201058Y-40071748D01*
X96021453Y-39892143D01*
X96035595Y-39878000D01*
X96394805Y-39878000D01*
X97222945Y-40706139D01*
X97469064Y-40632005D01*
X97662165Y-40094777D01*
X97634978Y-39524546D01*
X97469064Y-39123995D01*
X97222945Y-39049861D01*
X96394805Y-39878000D01*
X96035595Y-39878000D01*
X96021453Y-39863858D01*
X96201058Y-39684252D01*
X96215200Y-39698395D01*
X97043339Y-38870255D01*
X96969205Y-38624136D01*
X96924313Y-38608000D01*
X99171507Y-38608000D01*
X99284546Y-39176285D01*
X99606453Y-39658054D01*
X99935626Y-39878000D01*
X99606453Y-40097946D01*
X99284546Y-40579715D01*
X99171507Y-41148000D01*
X99284546Y-41716285D01*
X99606453Y-42198054D01*
X99935626Y-42418000D01*
X99606453Y-42637946D01*
X99284546Y-43119715D01*
X99171507Y-43688000D01*
X99284546Y-44256285D01*
X99606453Y-44738054D01*
X99947153Y-44965702D01*
X99804242Y-45032817D01*
X99413955Y-45461076D01*
X99244124Y-45871110D01*
X99365445Y-46101000D01*
X100558600Y-46101000D01*
X100558600Y-46081000D01*
X100812600Y-46081000D01*
X100812600Y-46101000D01*
X102005755Y-46101000D01*
X102127076Y-45871110D01*
X101957245Y-45461076D01*
X101566958Y-45032817D01*
X101424047Y-44965702D01*
X101764747Y-44738054D01*
X102086654Y-44256285D01*
X102199693Y-43688000D01*
X102086654Y-43119715D01*
X101764747Y-42637946D01*
X101435574Y-42418000D01*
X101764747Y-42198054D01*
X102086654Y-41716285D01*
X102199693Y-41148000D01*
X102086654Y-40579715D01*
X101764747Y-40097946D01*
X101435574Y-39878000D01*
X101764747Y-39658054D01*
X102086654Y-39176285D01*
X102199693Y-38608000D01*
X102086654Y-38039715D01*
X101764747Y-37557946D01*
X101282978Y-37236039D01*
X100714693Y-37123000D01*
X100656507Y-37123000D01*
X100088222Y-37236039D01*
X99606453Y-37557946D01*
X99284546Y-38039715D01*
X99171507Y-38608000D01*
X96924313Y-38608000D01*
X96431977Y-38431035D01*
X95861746Y-38458222D01*
X95756000Y-38502024D01*
X95756000Y-31038800D01*
X99069907Y-31038800D01*
X99182946Y-31607085D01*
X99504853Y-32088854D01*
X99986622Y-32410761D01*
X100554907Y-32523800D01*
X100613093Y-32523800D01*
X101181378Y-32410761D01*
X101663147Y-32088854D01*
X101985054Y-31607085D01*
X102098093Y-31038800D01*
X101985054Y-30470515D01*
X101663147Y-29988746D01*
X101619223Y-29959397D01*
X101793698Y-29887127D01*
X101972327Y-29708499D01*
X102069000Y-29475110D01*
X102069000Y-28784550D01*
X101910250Y-28625800D01*
X100711000Y-28625800D01*
X100711000Y-28645800D01*
X100457000Y-28645800D01*
X100457000Y-28625800D01*
X99257750Y-28625800D01*
X99099000Y-28784550D01*
X99099000Y-29475110D01*
X99195673Y-29708499D01*
X99374302Y-29887127D01*
X99548777Y-29959397D01*
X99504853Y-29988746D01*
X99182946Y-30470515D01*
X99069907Y-31038800D01*
X95756000Y-31038800D01*
X95756000Y-30378400D01*
X95698148Y-30087561D01*
X95698148Y-30087560D01*
X95533401Y-29840999D01*
X93214892Y-27522490D01*
X99099000Y-27522490D01*
X99099000Y-28213050D01*
X99257750Y-28371800D01*
X100457000Y-28371800D01*
X100457000Y-27172550D01*
X100711000Y-27172550D01*
X100711000Y-28371800D01*
X101910250Y-28371800D01*
X102069000Y-28213050D01*
X102069000Y-27522490D01*
X101972327Y-27289101D01*
X101793698Y-27110473D01*
X101560309Y-27013800D01*
X100869750Y-27013800D01*
X100711000Y-27172550D01*
X100457000Y-27172550D01*
X100298250Y-27013800D01*
X99607691Y-27013800D01*
X99374302Y-27110473D01*
X99195673Y-27289101D01*
X99099000Y-27522490D01*
X93214892Y-27522490D01*
X91440138Y-25747736D01*
X91540298Y-25680811D01*
X91636701Y-25536535D01*
X91662438Y-25673317D01*
X91801510Y-25889441D01*
X92013710Y-26034431D01*
X92265600Y-26085440D01*
X93865600Y-26085440D01*
X94100917Y-26041162D01*
X94317041Y-25902090D01*
X94462031Y-25689890D01*
X94513040Y-25438000D01*
X94513040Y-23838000D01*
X94468762Y-23602683D01*
X94329690Y-23386559D01*
X94117490Y-23241569D01*
X93865600Y-23190560D01*
X92265600Y-23190560D01*
X92030283Y-23234838D01*
X91814159Y-23373910D01*
X91669169Y-23586110D01*
X91637785Y-23741089D01*
X91540298Y-23595189D01*
X91074751Y-23284120D01*
X90525600Y-23174887D01*
X89976449Y-23284120D01*
X89510902Y-23595189D01*
X89255600Y-23977275D01*
X89000298Y-23595189D01*
X88534751Y-23284120D01*
X87985600Y-23174887D01*
X87436449Y-23284120D01*
X86970902Y-23595189D01*
X86715600Y-23977275D01*
X86460298Y-23595189D01*
X85994751Y-23284120D01*
X85445600Y-23174887D01*
X84896449Y-23284120D01*
X84430902Y-23595189D01*
X84175600Y-23977275D01*
X83920298Y-23595189D01*
X83454751Y-23284120D01*
X82905600Y-23174887D01*
X82356449Y-23284120D01*
X81890902Y-23595189D01*
X81635600Y-23977275D01*
X81380298Y-23595189D01*
X80914751Y-23284120D01*
X80365600Y-23174887D01*
X79816449Y-23284120D01*
X79350902Y-23595189D01*
X79095600Y-23977275D01*
X78840298Y-23595189D01*
X78374751Y-23284120D01*
X77825600Y-23174887D01*
X77276449Y-23284120D01*
X76810902Y-23595189D01*
X76555600Y-23977275D01*
X76300298Y-23595189D01*
X75834751Y-23284120D01*
X75285600Y-23174887D01*
X74736449Y-23284120D01*
X74270902Y-23595189D01*
X73959833Y-24060736D01*
X73850600Y-24609887D01*
X73850600Y-24666113D01*
X73959833Y-25215264D01*
X74270902Y-25680811D01*
X74736449Y-25991880D01*
X75285600Y-26101113D01*
X75834751Y-25991880D01*
X76300298Y-25680811D01*
X76555600Y-25298725D01*
X76810902Y-25680811D01*
X77276449Y-25991880D01*
X77825600Y-26101113D01*
X78374751Y-25991880D01*
X78840298Y-25680811D01*
X79095600Y-25298725D01*
X79350902Y-25680811D01*
X79816449Y-25991880D01*
X80365600Y-26101113D01*
X80914751Y-25991880D01*
X81380298Y-25680811D01*
X81635600Y-25298725D01*
X81890902Y-25680811D01*
X82356449Y-25991880D01*
X82905600Y-26101113D01*
X83454751Y-25991880D01*
X83920298Y-25680811D01*
X84175600Y-25298725D01*
X84430902Y-25680811D01*
X84685600Y-25850995D01*
X84685600Y-26568400D01*
X84743452Y-26859239D01*
X84908199Y-27105801D01*
X88597200Y-30794802D01*
X88597200Y-30945847D01*
X88534751Y-30904120D01*
X87985600Y-30794887D01*
X87436449Y-30904120D01*
X86970902Y-31215189D01*
X86715600Y-31597275D01*
X86460298Y-31215189D01*
X85994751Y-30904120D01*
X85445600Y-30794887D01*
X84896449Y-30904120D01*
X84430902Y-31215189D01*
X84175600Y-31597275D01*
X83920298Y-31215189D01*
X83454751Y-30904120D01*
X82905600Y-30794887D01*
X82356449Y-30904120D01*
X81890902Y-31215189D01*
X81701933Y-31498000D01*
X81569267Y-31498000D01*
X81380298Y-31215189D01*
X80914751Y-30904120D01*
X80365600Y-30794887D01*
X79816449Y-30904120D01*
X79350902Y-31215189D01*
X79080614Y-31619703D01*
X78977989Y-31402866D01*
X78563023Y-31026959D01*
X78174639Y-30866096D01*
X77952600Y-30988085D01*
X77952600Y-32131000D01*
X77972600Y-32131000D01*
X77972600Y-32385000D01*
X77952600Y-32385000D01*
X77952600Y-33527915D01*
X77996671Y-33552127D01*
X75224798Y-36324000D01*
X74777600Y-36324000D01*
X74486760Y-36381852D01*
X74240199Y-36546599D01*
X72919399Y-37867399D01*
X72754652Y-38113961D01*
X72696800Y-38404800D01*
X72696800Y-41859200D01*
X72754652Y-42150039D01*
X72919399Y-42396601D01*
X73844390Y-43321592D01*
X73771507Y-43688000D01*
X73884546Y-44256285D01*
X74206453Y-44738054D01*
X74547153Y-44965702D01*
X74404242Y-45032817D01*
X74013955Y-45461076D01*
X73844124Y-45871110D01*
X73965445Y-46101000D01*
X75158600Y-46101000D01*
X75158600Y-46081000D01*
X75412600Y-46081000D01*
X75412600Y-46101000D01*
X76605755Y-46101000D01*
X76727076Y-45871110D01*
X76557245Y-45461076D01*
X76166958Y-45032817D01*
X76024047Y-44965702D01*
X76364747Y-44738054D01*
X76686654Y-44256285D01*
X76799693Y-43688000D01*
X76686654Y-43119715D01*
X76364747Y-42637946D01*
X76035574Y-42418000D01*
X76364747Y-42198054D01*
X76686654Y-41716285D01*
X76799693Y-41148000D01*
X76726810Y-40781592D01*
X81645120Y-35863282D01*
X81610200Y-36038836D01*
X81610200Y-37113164D01*
X81716540Y-37647773D01*
X82019372Y-38100992D01*
X82472591Y-38403824D01*
X83007200Y-38510164D01*
X83541809Y-38403824D01*
X83995028Y-38100992D01*
X84277200Y-37678693D01*
X84559372Y-38100992D01*
X85012591Y-38403824D01*
X85547200Y-38510164D01*
X86081809Y-38403824D01*
X86133539Y-38369259D01*
X80742599Y-43760199D01*
X80577852Y-44006761D01*
X80520000Y-44297600D01*
X80520000Y-52628800D01*
X80577852Y-52919639D01*
X80742599Y-53166201D01*
X80917598Y-53341200D01*
X76567226Y-53341200D01*
X76600527Y-53307899D01*
X76697200Y-53074510D01*
X76697200Y-52558950D01*
X76538450Y-52400200D01*
X75514200Y-52400200D01*
X75514200Y-52420200D01*
X75260200Y-52420200D01*
X75260200Y-52400200D01*
X74235950Y-52400200D01*
X74077200Y-52558950D01*
X74077200Y-53074510D01*
X74173873Y-53307899D01*
X74207174Y-53341200D01*
X71779200Y-53341200D01*
X71779200Y-51471890D01*
X74077200Y-51471890D01*
X74077200Y-51987450D01*
X74235950Y-52146200D01*
X75260200Y-52146200D01*
X75260200Y-51121950D01*
X75514200Y-51121950D01*
X75514200Y-52146200D01*
X76538450Y-52146200D01*
X76697200Y-51987450D01*
X76697200Y-51471890D01*
X76600527Y-51238501D01*
X76421898Y-51059873D01*
X76188509Y-50963200D01*
X75672950Y-50963200D01*
X75514200Y-51121950D01*
X75260200Y-51121950D01*
X75101450Y-50963200D01*
X74585891Y-50963200D01*
X74352502Y-51059873D01*
X74173873Y-51238501D01*
X74077200Y-51471890D01*
X71779200Y-51471890D01*
X71779200Y-47918000D01*
X73788160Y-47918000D01*
X73788160Y-49618000D01*
X73832438Y-49853317D01*
X73971510Y-50069441D01*
X74183710Y-50214431D01*
X74435600Y-50265440D01*
X76135600Y-50265440D01*
X76370917Y-50221162D01*
X76587041Y-50082090D01*
X76732031Y-49869890D01*
X76783040Y-49618000D01*
X76783040Y-47918000D01*
X76738762Y-47682683D01*
X76599690Y-47466559D01*
X76387490Y-47321569D01*
X76279493Y-47299699D01*
X76557245Y-46994924D01*
X76727076Y-46584890D01*
X76605755Y-46355000D01*
X75412600Y-46355000D01*
X75412600Y-46375000D01*
X75158600Y-46375000D01*
X75158600Y-46355000D01*
X73965445Y-46355000D01*
X73844124Y-46584890D01*
X74013955Y-46994924D01*
X74290101Y-47297937D01*
X74200283Y-47314838D01*
X73984159Y-47453910D01*
X73839169Y-47666110D01*
X73788160Y-47918000D01*
X71779200Y-47918000D01*
X71779200Y-32229887D01*
X73850600Y-32229887D01*
X73850600Y-32286113D01*
X73959833Y-32835264D01*
X74270902Y-33300811D01*
X74736449Y-33611880D01*
X75285600Y-33721113D01*
X75834751Y-33611880D01*
X76300298Y-33300811D01*
X76570586Y-32896297D01*
X76673211Y-33113134D01*
X77088177Y-33489041D01*
X77476561Y-33649904D01*
X77698600Y-33527915D01*
X77698600Y-32385000D01*
X77678600Y-32385000D01*
X77678600Y-32131000D01*
X77698600Y-32131000D01*
X77698600Y-30988085D01*
X77476561Y-30866096D01*
X77088177Y-31026959D01*
X76673211Y-31402866D01*
X76570586Y-31619703D01*
X76300298Y-31215189D01*
X75834751Y-30904120D01*
X75285600Y-30794887D01*
X74736449Y-30904120D01*
X74270902Y-31215189D01*
X73959833Y-31680736D01*
X73850600Y-32229887D01*
X71779200Y-32229887D01*
X71779200Y-23163600D01*
X103176000Y-23163600D01*
X103176000Y-53341200D01*
X103176000Y-53341200D01*
G37*
X103176000Y-53341200D02*
X94107599Y-53341200D01*
X94409259Y-52967941D01*
X94564200Y-52443000D01*
X94564200Y-52216327D01*
X94586473Y-52270099D01*
X94765102Y-52448727D01*
X94998491Y-52545400D01*
X95439050Y-52545400D01*
X95597800Y-52386650D01*
X95597800Y-51587400D01*
X95577800Y-51587400D01*
X95577800Y-51333400D01*
X95597800Y-51333400D01*
X95597800Y-50534150D01*
X95439050Y-50375400D01*
X94998491Y-50375400D01*
X94765102Y-50472073D01*
X94586473Y-50650701D01*
X94489800Y-50884090D01*
X94489800Y-50936932D01*
X94409259Y-50664059D01*
X94065226Y-50238370D01*
X93584477Y-49976740D01*
X93510270Y-49961780D01*
X93294200Y-50084280D01*
X93294200Y-51689000D01*
X93314200Y-51689000D01*
X93314200Y-51943000D01*
X93294200Y-51943000D01*
X93294200Y-51963000D01*
X93040200Y-51963000D01*
X93040200Y-51943000D01*
X93020200Y-51943000D01*
X93020200Y-51689000D01*
X93040200Y-51689000D01*
X93040200Y-50084280D01*
X92824130Y-49961780D01*
X92749923Y-49976740D01*
X92269174Y-50238370D01*
X91925141Y-50664059D01*
X91906498Y-50727222D01*
X91615028Y-50291008D01*
X91387200Y-50138778D01*
X91387200Y-47469887D01*
X94780200Y-47469887D01*
X94780200Y-47526113D01*
X94889433Y-48075264D01*
X95200502Y-48540811D01*
X95666049Y-48851880D01*
X96215200Y-48961113D01*
X96539086Y-48896688D01*
X97164800Y-49522403D01*
X97164800Y-50393066D01*
X97089483Y-50407238D01*
X96873359Y-50546310D01*
X96826831Y-50614406D01*
X96684498Y-50472073D01*
X96451109Y-50375400D01*
X96010550Y-50375400D01*
X95851800Y-50534150D01*
X95851800Y-51333400D01*
X95871800Y-51333400D01*
X95871800Y-51587400D01*
X95851800Y-51587400D01*
X95851800Y-52386650D01*
X96010550Y-52545400D01*
X96451109Y-52545400D01*
X96684498Y-52448727D01*
X96825736Y-52307490D01*
X96860710Y-52361841D01*
X97072910Y-52506831D01*
X97324800Y-52557840D01*
X98524800Y-52557840D01*
X98760117Y-52513562D01*
X98976241Y-52374490D01*
X99121231Y-52162290D01*
X99172240Y-51910400D01*
X99172240Y-51010400D01*
X99127962Y-50775083D01*
X98988890Y-50558959D01*
X98776690Y-50413969D01*
X98684800Y-50395361D01*
X98684800Y-49207600D01*
X98626948Y-48916761D01*
X98583596Y-48851880D01*
X98462202Y-48670199D01*
X97710003Y-47918000D01*
X99188160Y-47918000D01*
X99188160Y-49618000D01*
X99232438Y-49853317D01*
X99371510Y-50069441D01*
X99583710Y-50214431D01*
X99835600Y-50265440D01*
X101535600Y-50265440D01*
X101770917Y-50221162D01*
X101987041Y-50082090D01*
X102132031Y-49869890D01*
X102183040Y-49618000D01*
X102183040Y-47918000D01*
X102138762Y-47682683D01*
X101999690Y-47466559D01*
X101787490Y-47321569D01*
X101679493Y-47299699D01*
X101957245Y-46994924D01*
X102127076Y-46584890D01*
X102005755Y-46355000D01*
X100812600Y-46355000D01*
X100812600Y-46375000D01*
X100558600Y-46375000D01*
X100558600Y-46355000D01*
X99365445Y-46355000D01*
X99244124Y-46584890D01*
X99413955Y-46994924D01*
X99690101Y-47297937D01*
X99600283Y-47314838D01*
X99384159Y-47453910D01*
X99239169Y-47666110D01*
X99188160Y-47918000D01*
X97710003Y-47918000D01*
X97595104Y-47803101D01*
X97650200Y-47526113D01*
X97650200Y-47469887D01*
X97540967Y-46920736D01*
X97229898Y-46455189D01*
X96764351Y-46144120D01*
X96215200Y-46034887D01*
X95666049Y-46144120D01*
X95200502Y-46455189D01*
X94889433Y-46920736D01*
X94780200Y-47469887D01*
X91387200Y-47469887D01*
X91387200Y-44917202D01*
X95394375Y-40910027D01*
X95461195Y-41131864D01*
X95998423Y-41324965D01*
X96568654Y-41297778D01*
X96969205Y-41131864D01*
X97043339Y-40885745D01*
X96215200Y-40057605D01*
X96201058Y-40071748D01*
X96021453Y-39892143D01*
X96035595Y-39878000D01*
X96394805Y-39878000D01*
X97222945Y-40706139D01*
X97469064Y-40632005D01*
X97662165Y-40094777D01*
X97634978Y-39524546D01*
X97469064Y-39123995D01*
X97222945Y-39049861D01*
X96394805Y-39878000D01*
X96035595Y-39878000D01*
X96021453Y-39863858D01*
X96201058Y-39684252D01*
X96215200Y-39698395D01*
X97043339Y-38870255D01*
X96969205Y-38624136D01*
X96924313Y-38608000D01*
X99171507Y-38608000D01*
X99284546Y-39176285D01*
X99606453Y-39658054D01*
X99935626Y-39878000D01*
X99606453Y-40097946D01*
X99284546Y-40579715D01*
X99171507Y-41148000D01*
X99284546Y-41716285D01*
X99606453Y-42198054D01*
X99935626Y-42418000D01*
X99606453Y-42637946D01*
X99284546Y-43119715D01*
X99171507Y-43688000D01*
X99284546Y-44256285D01*
X99606453Y-44738054D01*
X99947153Y-44965702D01*
X99804242Y-45032817D01*
X99413955Y-45461076D01*
X99244124Y-45871110D01*
X99365445Y-46101000D01*
X100558600Y-46101000D01*
X100558600Y-46081000D01*
X100812600Y-46081000D01*
X100812600Y-46101000D01*
X102005755Y-46101000D01*
X102127076Y-45871110D01*
X101957245Y-45461076D01*
X101566958Y-45032817D01*
X101424047Y-44965702D01*
X101764747Y-44738054D01*
X102086654Y-44256285D01*
X102199693Y-43688000D01*
X102086654Y-43119715D01*
X101764747Y-42637946D01*
X101435574Y-42418000D01*
X101764747Y-42198054D01*
X102086654Y-41716285D01*
X102199693Y-41148000D01*
X102086654Y-40579715D01*
X101764747Y-40097946D01*
X101435574Y-39878000D01*
X101764747Y-39658054D01*
X102086654Y-39176285D01*
X102199693Y-38608000D01*
X102086654Y-38039715D01*
X101764747Y-37557946D01*
X101282978Y-37236039D01*
X100714693Y-37123000D01*
X100656507Y-37123000D01*
X100088222Y-37236039D01*
X99606453Y-37557946D01*
X99284546Y-38039715D01*
X99171507Y-38608000D01*
X96924313Y-38608000D01*
X96431977Y-38431035D01*
X95861746Y-38458222D01*
X95756000Y-38502024D01*
X95756000Y-31038800D01*
X99069907Y-31038800D01*
X99182946Y-31607085D01*
X99504853Y-32088854D01*
X99986622Y-32410761D01*
X100554907Y-32523800D01*
X100613093Y-32523800D01*
X101181378Y-32410761D01*
X101663147Y-32088854D01*
X101985054Y-31607085D01*
X102098093Y-31038800D01*
X101985054Y-30470515D01*
X101663147Y-29988746D01*
X101619223Y-29959397D01*
X101793698Y-29887127D01*
X101972327Y-29708499D01*
X102069000Y-29475110D01*
X102069000Y-28784550D01*
X101910250Y-28625800D01*
X100711000Y-28625800D01*
X100711000Y-28645800D01*
X100457000Y-28645800D01*
X100457000Y-28625800D01*
X99257750Y-28625800D01*
X99099000Y-28784550D01*
X99099000Y-29475110D01*
X99195673Y-29708499D01*
X99374302Y-29887127D01*
X99548777Y-29959397D01*
X99504853Y-29988746D01*
X99182946Y-30470515D01*
X99069907Y-31038800D01*
X95756000Y-31038800D01*
X95756000Y-30378400D01*
X95698148Y-30087561D01*
X95698148Y-30087560D01*
X95533401Y-29840999D01*
X93214892Y-27522490D01*
X99099000Y-27522490D01*
X99099000Y-28213050D01*
X99257750Y-28371800D01*
X100457000Y-28371800D01*
X100457000Y-27172550D01*
X100711000Y-27172550D01*
X100711000Y-28371800D01*
X101910250Y-28371800D01*
X102069000Y-28213050D01*
X102069000Y-27522490D01*
X101972327Y-27289101D01*
X101793698Y-27110473D01*
X101560309Y-27013800D01*
X100869750Y-27013800D01*
X100711000Y-27172550D01*
X100457000Y-27172550D01*
X100298250Y-27013800D01*
X99607691Y-27013800D01*
X99374302Y-27110473D01*
X99195673Y-27289101D01*
X99099000Y-27522490D01*
X93214892Y-27522490D01*
X91440138Y-25747736D01*
X91540298Y-25680811D01*
X91636701Y-25536535D01*
X91662438Y-25673317D01*
X91801510Y-25889441D01*
X92013710Y-26034431D01*
X92265600Y-26085440D01*
X93865600Y-26085440D01*
X94100917Y-26041162D01*
X94317041Y-25902090D01*
X94462031Y-25689890D01*
X94513040Y-25438000D01*
X94513040Y-23838000D01*
X94468762Y-23602683D01*
X94329690Y-23386559D01*
X94117490Y-23241569D01*
X93865600Y-23190560D01*
X92265600Y-23190560D01*
X92030283Y-23234838D01*
X91814159Y-23373910D01*
X91669169Y-23586110D01*
X91637785Y-23741089D01*
X91540298Y-23595189D01*
X91074751Y-23284120D01*
X90525600Y-23174887D01*
X89976449Y-23284120D01*
X89510902Y-23595189D01*
X89255600Y-23977275D01*
X89000298Y-23595189D01*
X88534751Y-23284120D01*
X87985600Y-23174887D01*
X87436449Y-23284120D01*
X86970902Y-23595189D01*
X86715600Y-23977275D01*
X86460298Y-23595189D01*
X85994751Y-23284120D01*
X85445600Y-23174887D01*
X84896449Y-23284120D01*
X84430902Y-23595189D01*
X84175600Y-23977275D01*
X83920298Y-23595189D01*
X83454751Y-23284120D01*
X82905600Y-23174887D01*
X82356449Y-23284120D01*
X81890902Y-23595189D01*
X81635600Y-23977275D01*
X81380298Y-23595189D01*
X80914751Y-23284120D01*
X80365600Y-23174887D01*
X79816449Y-23284120D01*
X79350902Y-23595189D01*
X79095600Y-23977275D01*
X78840298Y-23595189D01*
X78374751Y-23284120D01*
X77825600Y-23174887D01*
X77276449Y-23284120D01*
X76810902Y-23595189D01*
X76555600Y-23977275D01*
X76300298Y-23595189D01*
X75834751Y-23284120D01*
X75285600Y-23174887D01*
X74736449Y-23284120D01*
X74270902Y-23595189D01*
X73959833Y-24060736D01*
X73850600Y-24609887D01*
X73850600Y-24666113D01*
X73959833Y-25215264D01*
X74270902Y-25680811D01*
X74736449Y-25991880D01*
X75285600Y-26101113D01*
X75834751Y-25991880D01*
X76300298Y-25680811D01*
X76555600Y-25298725D01*
X76810902Y-25680811D01*
X77276449Y-25991880D01*
X77825600Y-26101113D01*
X78374751Y-25991880D01*
X78840298Y-25680811D01*
X79095600Y-25298725D01*
X79350902Y-25680811D01*
X79816449Y-25991880D01*
X80365600Y-26101113D01*
X80914751Y-25991880D01*
X81380298Y-25680811D01*
X81635600Y-25298725D01*
X81890902Y-25680811D01*
X82356449Y-25991880D01*
X82905600Y-26101113D01*
X83454751Y-25991880D01*
X83920298Y-25680811D01*
X84175600Y-25298725D01*
X84430902Y-25680811D01*
X84685600Y-25850995D01*
X84685600Y-26568400D01*
X84743452Y-26859239D01*
X84908199Y-27105801D01*
X88597200Y-30794802D01*
X88597200Y-30945847D01*
X88534751Y-30904120D01*
X87985600Y-30794887D01*
X87436449Y-30904120D01*
X86970902Y-31215189D01*
X86715600Y-31597275D01*
X86460298Y-31215189D01*
X85994751Y-30904120D01*
X85445600Y-30794887D01*
X84896449Y-30904120D01*
X84430902Y-31215189D01*
X84175600Y-31597275D01*
X83920298Y-31215189D01*
X83454751Y-30904120D01*
X82905600Y-30794887D01*
X82356449Y-30904120D01*
X81890902Y-31215189D01*
X81701933Y-31498000D01*
X81569267Y-31498000D01*
X81380298Y-31215189D01*
X80914751Y-30904120D01*
X80365600Y-30794887D01*
X79816449Y-30904120D01*
X79350902Y-31215189D01*
X79080614Y-31619703D01*
X78977989Y-31402866D01*
X78563023Y-31026959D01*
X78174639Y-30866096D01*
X77952600Y-30988085D01*
X77952600Y-32131000D01*
X77972600Y-32131000D01*
X77972600Y-32385000D01*
X77952600Y-32385000D01*
X77952600Y-33527915D01*
X77996671Y-33552127D01*
X75224798Y-36324000D01*
X74777600Y-36324000D01*
X74486760Y-36381852D01*
X74240199Y-36546599D01*
X72919399Y-37867399D01*
X72754652Y-38113961D01*
X72696800Y-38404800D01*
X72696800Y-41859200D01*
X72754652Y-42150039D01*
X72919399Y-42396601D01*
X73844390Y-43321592D01*
X73771507Y-43688000D01*
X73884546Y-44256285D01*
X74206453Y-44738054D01*
X74547153Y-44965702D01*
X74404242Y-45032817D01*
X74013955Y-45461076D01*
X73844124Y-45871110D01*
X73965445Y-46101000D01*
X75158600Y-46101000D01*
X75158600Y-46081000D01*
X75412600Y-46081000D01*
X75412600Y-46101000D01*
X76605755Y-46101000D01*
X76727076Y-45871110D01*
X76557245Y-45461076D01*
X76166958Y-45032817D01*
X76024047Y-44965702D01*
X76364747Y-44738054D01*
X76686654Y-44256285D01*
X76799693Y-43688000D01*
X76686654Y-43119715D01*
X76364747Y-42637946D01*
X76035574Y-42418000D01*
X76364747Y-42198054D01*
X76686654Y-41716285D01*
X76799693Y-41148000D01*
X76726810Y-40781592D01*
X81645120Y-35863282D01*
X81610200Y-36038836D01*
X81610200Y-37113164D01*
X81716540Y-37647773D01*
X82019372Y-38100992D01*
X82472591Y-38403824D01*
X83007200Y-38510164D01*
X83541809Y-38403824D01*
X83995028Y-38100992D01*
X84277200Y-37678693D01*
X84559372Y-38100992D01*
X85012591Y-38403824D01*
X85547200Y-38510164D01*
X86081809Y-38403824D01*
X86133539Y-38369259D01*
X80742599Y-43760199D01*
X80577852Y-44006761D01*
X80520000Y-44297600D01*
X80520000Y-52628800D01*
X80577852Y-52919639D01*
X80742599Y-53166201D01*
X80917598Y-53341200D01*
X76567226Y-53341200D01*
X76600527Y-53307899D01*
X76697200Y-53074510D01*
X76697200Y-52558950D01*
X76538450Y-52400200D01*
X75514200Y-52400200D01*
X75514200Y-52420200D01*
X75260200Y-52420200D01*
X75260200Y-52400200D01*
X74235950Y-52400200D01*
X74077200Y-52558950D01*
X74077200Y-53074510D01*
X74173873Y-53307899D01*
X74207174Y-53341200D01*
X71779200Y-53341200D01*
X71779200Y-51471890D01*
X74077200Y-51471890D01*
X74077200Y-51987450D01*
X74235950Y-52146200D01*
X75260200Y-52146200D01*
X75260200Y-51121950D01*
X75514200Y-51121950D01*
X75514200Y-52146200D01*
X76538450Y-52146200D01*
X76697200Y-51987450D01*
X76697200Y-51471890D01*
X76600527Y-51238501D01*
X76421898Y-51059873D01*
X76188509Y-50963200D01*
X75672950Y-50963200D01*
X75514200Y-51121950D01*
X75260200Y-51121950D01*
X75101450Y-50963200D01*
X74585891Y-50963200D01*
X74352502Y-51059873D01*
X74173873Y-51238501D01*
X74077200Y-51471890D01*
X71779200Y-51471890D01*
X71779200Y-47918000D01*
X73788160Y-47918000D01*
X73788160Y-49618000D01*
X73832438Y-49853317D01*
X73971510Y-50069441D01*
X74183710Y-50214431D01*
X74435600Y-50265440D01*
X76135600Y-50265440D01*
X76370917Y-50221162D01*
X76587041Y-50082090D01*
X76732031Y-49869890D01*
X76783040Y-49618000D01*
X76783040Y-47918000D01*
X76738762Y-47682683D01*
X76599690Y-47466559D01*
X76387490Y-47321569D01*
X76279493Y-47299699D01*
X76557245Y-46994924D01*
X76727076Y-46584890D01*
X76605755Y-46355000D01*
X75412600Y-46355000D01*
X75412600Y-46375000D01*
X75158600Y-46375000D01*
X75158600Y-46355000D01*
X73965445Y-46355000D01*
X73844124Y-46584890D01*
X74013955Y-46994924D01*
X74290101Y-47297937D01*
X74200283Y-47314838D01*
X73984159Y-47453910D01*
X73839169Y-47666110D01*
X73788160Y-47918000D01*
X71779200Y-47918000D01*
X71779200Y-32229887D01*
X73850600Y-32229887D01*
X73850600Y-32286113D01*
X73959833Y-32835264D01*
X74270902Y-33300811D01*
X74736449Y-33611880D01*
X75285600Y-33721113D01*
X75834751Y-33611880D01*
X76300298Y-33300811D01*
X76570586Y-32896297D01*
X76673211Y-33113134D01*
X77088177Y-33489041D01*
X77476561Y-33649904D01*
X77698600Y-33527915D01*
X77698600Y-32385000D01*
X77678600Y-32385000D01*
X77678600Y-32131000D01*
X77698600Y-32131000D01*
X77698600Y-30988085D01*
X77476561Y-30866096D01*
X77088177Y-31026959D01*
X76673211Y-31402866D01*
X76570586Y-31619703D01*
X76300298Y-31215189D01*
X75834751Y-30904120D01*
X75285600Y-30794887D01*
X74736449Y-30904120D01*
X74270902Y-31215189D01*
X73959833Y-31680736D01*
X73850600Y-32229887D01*
X71779200Y-32229887D01*
X71779200Y-23163600D01*
X103176000Y-23163600D01*
X103176000Y-53341200D01*
G36*
X89510902Y-25680811D02*
X89765600Y-25850995D01*
X89765600Y-25908000D01*
X89823452Y-26198839D01*
X89988199Y-26445401D01*
X94236000Y-30693202D01*
X94236000Y-31440921D01*
X94217989Y-31402866D01*
X93803023Y-31026959D01*
X93414639Y-30866096D01*
X93192600Y-30988085D01*
X93192600Y-32131000D01*
X93212600Y-32131000D01*
X93212600Y-32385000D01*
X93192600Y-32385000D01*
X93192600Y-33527915D01*
X93414639Y-33649904D01*
X93803023Y-33489041D01*
X94217989Y-33113134D01*
X94236000Y-33075079D01*
X94236000Y-35172191D01*
X94155028Y-35051008D01*
X93701809Y-34748176D01*
X93167200Y-34641836D01*
X92632591Y-34748176D01*
X92555600Y-34799620D01*
X92555600Y-33583236D01*
X92716561Y-33649904D01*
X92938600Y-33527915D01*
X92938600Y-32385000D01*
X92918600Y-32385000D01*
X92918600Y-32131000D01*
X92938600Y-32131000D01*
X92938600Y-30988085D01*
X92716561Y-30866096D01*
X92555600Y-30932764D01*
X92555600Y-29870400D01*
X92497748Y-29579561D01*
X92333001Y-29332999D01*
X88808781Y-25808779D01*
X89000298Y-25680811D01*
X89255600Y-25298725D01*
X89510902Y-25680811D01*
X89510902Y-25680811D01*
G37*
X89510902Y-25680811D02*
X89765600Y-25850995D01*
X89765600Y-25908000D01*
X89823452Y-26198839D01*
X89988199Y-26445401D01*
X94236000Y-30693202D01*
X94236000Y-31440921D01*
X94217989Y-31402866D01*
X93803023Y-31026959D01*
X93414639Y-30866096D01*
X93192600Y-30988085D01*
X93192600Y-32131000D01*
X93212600Y-32131000D01*
X93212600Y-32385000D01*
X93192600Y-32385000D01*
X93192600Y-33527915D01*
X93414639Y-33649904D01*
X93803023Y-33489041D01*
X94217989Y-33113134D01*
X94236000Y-33075079D01*
X94236000Y-35172191D01*
X94155028Y-35051008D01*
X93701809Y-34748176D01*
X93167200Y-34641836D01*
X92632591Y-34748176D01*
X92555600Y-34799620D01*
X92555600Y-33583236D01*
X92716561Y-33649904D01*
X92938600Y-33527915D01*
X92938600Y-32385000D01*
X92918600Y-32385000D01*
X92918600Y-32131000D01*
X92938600Y-32131000D01*
X92938600Y-30988085D01*
X92716561Y-30866096D01*
X92555600Y-30932764D01*
X92555600Y-29870400D01*
X92497748Y-29579561D01*
X92333001Y-29332999D01*
X88808781Y-25808779D01*
X89000298Y-25680811D01*
X89255600Y-25298725D01*
X89510902Y-25680811D01*
M02*
