M48
INCH,TZ
T1C0.028
T2C0.031
T3C0.035
T4C0.039
%
G90
G05
T1
X43340Y-16600
X43340Y-18600
X49220Y-16540
X49220Y-18540
T2
X29640Y-9700
X29640Y-12700
X29680Y-20580
X30640Y-9700
X30640Y-12700
X31640Y-9700
X31640Y-12700
X32640Y-9700
X32640Y-12700
X32680Y-14400
X32680Y-20400
X33640Y-9700
X33640Y-12700
X33680Y-14400
X33680Y-20400
X34640Y-9700
X34640Y-12700
X34680Y-14400
X34680Y-20400
X35640Y-9700
X35640Y-12700
X35680Y-14400
X35680Y-20400
X36640Y-9700
X36640Y-12700
X36680Y-14400
X36680Y-20400
X37880Y-15700
X37880Y-18700
X44810Y-13440
X44810Y-14440
X44810Y-15440
X44810Y-16440
X47810Y-13440
X47810Y-14440
X47810Y-15440
X47810Y-16440
T3
X44280Y-18180
X45280Y-18180
X45310Y-19690
X45360Y-11690
X45810Y-19690
X45860Y-11690
X46310Y-19690
X46360Y-11690
X46810Y-19690
X46860Y-11690
X47320Y-18180
X48320Y-18180
T4
X29640Y-15200
X29640Y-16200
X29640Y-17200
X29640Y-18200
X29640Y-19200
X39600Y-11220
X39600Y-12220
X39640Y-15200
X39640Y-16200
X39640Y-17200
X39640Y-18200
X39640Y-19200
X42260Y-13590
X42260Y-14590
X42260Y-15590
X42260Y-16590
X50310Y-13440
X50310Y-14440
X50310Y-15440
X50310Y-16440
T0
M30
