G04 #@! TF.FileFunction,Legend,Top*
%FSLAX46Y46*%
G04 Gerber Fmt 4.6, Leading zero omitted, Abs format (unit mm)*
G04 Created by KiCad (PCBNEW 4.0.7) date 12/08/18 06:10:40*
%MOMM*%
%LPD*%
G01*
G04 APERTURE LIST*
%ADD10C,0.100000*%
%ADD11C,0.120000*%
%ADD12C,0.150000*%
G04 APERTURE END LIST*
D10*
D11*
X99254000Y-29768800D02*
X99254000Y-32368800D01*
X99254000Y-32368800D02*
X101914000Y-32368800D01*
X101914000Y-32368800D02*
X101914000Y-29768800D01*
X101914000Y-29768800D02*
X99254000Y-29768800D01*
X99254000Y-28498800D02*
X99254000Y-27168800D01*
X99254000Y-27168800D02*
X100584000Y-27168800D01*
X102015600Y-47498000D02*
X102015600Y-37278000D01*
X102015600Y-37278000D02*
X99355600Y-37278000D01*
X99355600Y-37278000D02*
X99355600Y-47498000D01*
X99355600Y-47498000D02*
X102015600Y-47498000D01*
X102015600Y-48768000D02*
X102015600Y-50098000D01*
X102015600Y-50098000D02*
X100685600Y-50098000D01*
X94395600Y-29448000D02*
G75*
G02X94395600Y-27448000I0J1000000D01*
G01*
X94395600Y-27448000D02*
X94395600Y-25798000D01*
X94395600Y-25798000D02*
X73955600Y-25798000D01*
X73955600Y-25798000D02*
X73955600Y-31098000D01*
X73955600Y-31098000D02*
X94395600Y-31098000D01*
X94395600Y-31098000D02*
X94395600Y-29448000D01*
D12*
X92534414Y-49196000D02*
G75*
G03X92534414Y-49196000I-447214J0D01*
G01*
X85087200Y-39196000D02*
X84087200Y-44196000D01*
X84087200Y-44196000D02*
X83087200Y-49196000D01*
X83087200Y-49196000D02*
X90087200Y-49196000D01*
X90087200Y-49196000D02*
X91087200Y-44196000D01*
X92087200Y-39196000D02*
X91087200Y-44196000D01*
X91087200Y-44196000D02*
X84087200Y-44196000D01*
X85087200Y-39196000D02*
X92087200Y-39196000D01*
X94387200Y-53796000D02*
X81787200Y-53796000D01*
X81787200Y-38496000D02*
X81787200Y-49896000D01*
X94387200Y-38496000D02*
X94387200Y-49896000D01*
X81787200Y-34596000D02*
X94387200Y-34596000D01*
D11*
X76615600Y-47498000D02*
X76615600Y-37278000D01*
X76615600Y-37278000D02*
X73955600Y-37278000D01*
X73955600Y-37278000D02*
X73955600Y-47498000D01*
X73955600Y-47498000D02*
X76615600Y-47498000D01*
X76615600Y-48768000D02*
X76615600Y-50098000D01*
X76615600Y-50098000D02*
X75285600Y-50098000D01*
X97195200Y-40478000D02*
X97525200Y-40478000D01*
X97525200Y-40478000D02*
X97525200Y-46898000D01*
X97525200Y-46898000D02*
X97195200Y-46898000D01*
X95235200Y-40478000D02*
X94905200Y-40478000D01*
X94905200Y-40478000D02*
X94905200Y-46898000D01*
X94905200Y-46898000D02*
X95235200Y-46898000D01*
X97324800Y-52140400D02*
X96324800Y-52140400D01*
X96324800Y-50780400D02*
X97324800Y-50780400D01*
X74327200Y-53333200D02*
X76447200Y-53333200D01*
X74327200Y-53273200D02*
X74327200Y-53333200D01*
X76447200Y-53273200D02*
X76447200Y-53333200D01*
X74327200Y-53273200D02*
X76447200Y-53273200D01*
X74327200Y-52273200D02*
X74327200Y-51213200D01*
X74327200Y-51213200D02*
X75387200Y-51213200D01*
X118627400Y-32807600D02*
G75*
G02X116627400Y-32807600I-1000000J0D01*
G01*
X116627400Y-32807600D02*
X115377400Y-32807600D01*
X115377400Y-32807600D02*
X115377400Y-43087600D01*
X115377400Y-43087600D02*
X119877400Y-43087600D01*
X119877400Y-43087600D02*
X119877400Y-32807600D01*
X119877400Y-32807600D02*
X118627400Y-32807600D01*
X112377400Y-32747600D02*
X112377400Y-43147600D01*
X112377400Y-43147600D02*
X122877400Y-43147600D01*
X122877400Y-43147600D02*
X122877400Y-32747600D01*
X122877400Y-32747600D02*
X112377400Y-32747600D01*
X108670400Y-40868600D02*
X108670400Y-33188600D01*
X108670400Y-33188600D02*
X106010400Y-33188600D01*
X106010400Y-33188600D02*
X106010400Y-40868600D01*
X106010400Y-40868600D02*
X108670400Y-40868600D01*
X108670400Y-42138600D02*
X108670400Y-43468600D01*
X108670400Y-43468600D02*
X107340400Y-43468600D01*
X119790465Y-47255808D02*
G75*
G03X123022800Y-47412716I1672335J1078608D01*
G01*
X119790465Y-45098592D02*
G75*
G02X123022800Y-44941684I1672335J-1078608D01*
G01*
X120421670Y-47257037D02*
G75*
G03X122503761Y-47257200I1041130J1079837D01*
G01*
X120421670Y-45097363D02*
G75*
G02X122503761Y-45097200I1041130J-1079837D01*
G01*
X123022800Y-47413200D02*
X123022800Y-47257200D01*
X123022800Y-45097200D02*
X123022800Y-44941200D01*
X112068865Y-47255808D02*
G75*
G03X115301200Y-47412716I1672335J1078608D01*
G01*
X112068865Y-45098592D02*
G75*
G02X115301200Y-44941684I1672335J-1078608D01*
G01*
X112700070Y-47257037D02*
G75*
G03X114782161Y-47257200I1041130J1079837D01*
G01*
X112700070Y-45097363D02*
G75*
G02X114782161Y-45097200I1041130J-1079837D01*
G01*
X115301200Y-47413200D02*
X115301200Y-47257200D01*
X115301200Y-45097200D02*
X115301200Y-44941200D01*
X129117400Y-40487600D02*
X129117400Y-32807600D01*
X129117400Y-32807600D02*
X126457400Y-32807600D01*
X126457400Y-32807600D02*
X126457400Y-40487600D01*
X126457400Y-40487600D02*
X129117400Y-40487600D01*
X129117400Y-41757600D02*
X129117400Y-43087600D01*
X129117400Y-43087600D02*
X127787400Y-43087600D01*
X124158800Y-46411600D02*
X124158800Y-42691600D01*
X125878800Y-46411600D02*
X125878800Y-42691600D01*
X110943600Y-42844000D02*
X110943600Y-46564000D01*
X109223600Y-42844000D02*
X109223600Y-46564000D01*
D12*
X98547181Y-30564057D02*
X98547181Y-31040248D01*
X97547181Y-31040248D01*
X98023371Y-30230724D02*
X98023371Y-29897390D01*
X98547181Y-29754533D02*
X98547181Y-30230724D01*
X97547181Y-30230724D01*
X97547181Y-29754533D01*
X98547181Y-29325962D02*
X97547181Y-29325962D01*
X97547181Y-29087867D01*
X97594800Y-28945009D01*
X97690038Y-28849771D01*
X97785276Y-28802152D01*
X97975752Y-28754533D01*
X98118610Y-28754533D01*
X98309086Y-28802152D01*
X98404324Y-28849771D01*
X98499562Y-28945009D01*
X98547181Y-29087867D01*
X98547181Y-29325962D01*
X102420800Y-50753163D02*
X102373181Y-50848401D01*
X102373181Y-50991258D01*
X102420800Y-51134116D01*
X102516038Y-51229354D01*
X102611276Y-51276973D01*
X102801752Y-51324592D01*
X102944610Y-51324592D01*
X103135086Y-51276973D01*
X103230324Y-51229354D01*
X103325562Y-51134116D01*
X103373181Y-50991258D01*
X103373181Y-50896020D01*
X103325562Y-50753163D01*
X103277943Y-50705544D01*
X102944610Y-50705544D01*
X102944610Y-50896020D01*
X102706514Y-50276973D02*
X103373181Y-50276973D01*
X102801752Y-50276973D02*
X102754133Y-50229354D01*
X102706514Y-50134116D01*
X102706514Y-49991258D01*
X102754133Y-49896020D01*
X102849371Y-49848401D01*
X103373181Y-49848401D01*
X103373181Y-48943639D02*
X102373181Y-48943639D01*
X103325562Y-48943639D02*
X103373181Y-49038877D01*
X103373181Y-49229354D01*
X103325562Y-49324592D01*
X103277943Y-49372211D01*
X103182705Y-49419830D01*
X102896990Y-49419830D01*
X102801752Y-49372211D01*
X102754133Y-49324592D01*
X102706514Y-49229354D01*
X102706514Y-49038877D01*
X102754133Y-48943639D01*
X102373181Y-47848401D02*
X103373181Y-47515068D01*
X102373181Y-47181734D01*
X103325562Y-46419829D02*
X103373181Y-46515067D01*
X103373181Y-46705544D01*
X103325562Y-46800782D01*
X103277943Y-46848401D01*
X103182705Y-46896020D01*
X102896990Y-46896020D01*
X102801752Y-46848401D01*
X102754133Y-46800782D01*
X102706514Y-46705544D01*
X102706514Y-46515067D01*
X102754133Y-46419829D01*
X103325562Y-45562686D02*
X103373181Y-45657924D01*
X103373181Y-45848401D01*
X103325562Y-45943639D01*
X103277943Y-45991258D01*
X103182705Y-46038877D01*
X102896990Y-46038877D01*
X102801752Y-45991258D01*
X102754133Y-45943639D01*
X102706514Y-45848401D01*
X102706514Y-45657924D01*
X102754133Y-45562686D01*
X103277943Y-43800781D02*
X103325562Y-43848400D01*
X103373181Y-43991257D01*
X103373181Y-44086495D01*
X103325562Y-44229353D01*
X103230324Y-44324591D01*
X103135086Y-44372210D01*
X102944610Y-44419829D01*
X102801752Y-44419829D01*
X102611276Y-44372210D01*
X102516038Y-44324591D01*
X102420800Y-44229353D01*
X102373181Y-44086495D01*
X102373181Y-43991257D01*
X102420800Y-43848400D01*
X102468419Y-43800781D01*
X103373181Y-43229353D02*
X103325562Y-43324591D01*
X103230324Y-43372210D01*
X102373181Y-43372210D01*
X103373181Y-42848400D02*
X102373181Y-42848400D01*
X102992229Y-42753162D02*
X103373181Y-42467447D01*
X102706514Y-42467447D02*
X103087467Y-42848400D01*
X103373181Y-41276971D02*
X102373181Y-41276971D01*
X102373181Y-41038876D01*
X102420800Y-40896018D01*
X102516038Y-40800780D01*
X102611276Y-40753161D01*
X102801752Y-40705542D01*
X102944610Y-40705542D01*
X103135086Y-40753161D01*
X103230324Y-40800780D01*
X103325562Y-40896018D01*
X103373181Y-41038876D01*
X103373181Y-41276971D01*
X103373181Y-39038875D02*
X103373181Y-39515066D01*
X102373181Y-39515066D01*
X103325562Y-38276970D02*
X103373181Y-38372208D01*
X103373181Y-38562685D01*
X103325562Y-38657923D01*
X103277943Y-38705542D01*
X103182705Y-38753161D01*
X102896990Y-38753161D01*
X102801752Y-38705542D01*
X102754133Y-38657923D01*
X102706514Y-38562685D01*
X102706514Y-38372208D01*
X102754133Y-38276970D01*
X103373181Y-37848399D02*
X102373181Y-37848399D01*
X103373181Y-37419827D02*
X102849371Y-37419827D01*
X102754133Y-37467446D01*
X102706514Y-37562684D01*
X102706514Y-37705542D01*
X102754133Y-37800780D01*
X102801752Y-37848399D01*
X80608895Y-28103581D02*
X81275562Y-28103581D01*
X80846990Y-29103581D01*
X82085086Y-28436914D02*
X82085086Y-29103581D01*
X81846990Y-28055962D02*
X81608895Y-28770248D01*
X82227943Y-28770248D01*
X82608895Y-29103581D02*
X82608895Y-28103581D01*
X82608895Y-28579771D02*
X83180324Y-28579771D01*
X83180324Y-29103581D02*
X83180324Y-28103581D01*
X84227943Y-29008343D02*
X84180324Y-29055962D01*
X84037467Y-29103581D01*
X83942229Y-29103581D01*
X83799371Y-29055962D01*
X83704133Y-28960724D01*
X83656514Y-28865486D01*
X83608895Y-28675010D01*
X83608895Y-28532152D01*
X83656514Y-28341676D01*
X83704133Y-28246438D01*
X83799371Y-28151200D01*
X83942229Y-28103581D01*
X84037467Y-28103581D01*
X84180324Y-28151200D01*
X84227943Y-28198819D01*
X85132705Y-28103581D02*
X84656514Y-28103581D01*
X84608895Y-28579771D01*
X84656514Y-28532152D01*
X84751752Y-28484533D01*
X84989848Y-28484533D01*
X85085086Y-28532152D01*
X85132705Y-28579771D01*
X85180324Y-28675010D01*
X85180324Y-28913105D01*
X85132705Y-29008343D01*
X85085086Y-29055962D01*
X84989848Y-29103581D01*
X84751752Y-29103581D01*
X84656514Y-29055962D01*
X84608895Y-29008343D01*
X85656514Y-29103581D02*
X85846990Y-29103581D01*
X85942229Y-29055962D01*
X85989848Y-29008343D01*
X86085086Y-28865486D01*
X86132705Y-28675010D01*
X86132705Y-28294057D01*
X86085086Y-28198819D01*
X86037467Y-28151200D01*
X85942229Y-28103581D01*
X85751752Y-28103581D01*
X85656514Y-28151200D01*
X85608895Y-28198819D01*
X85561276Y-28294057D01*
X85561276Y-28532152D01*
X85608895Y-28627390D01*
X85656514Y-28675010D01*
X85751752Y-28722629D01*
X85942229Y-28722629D01*
X86037467Y-28675010D01*
X86085086Y-28627390D01*
X86132705Y-28532152D01*
X87037467Y-28103581D02*
X86561276Y-28103581D01*
X86513657Y-28579771D01*
X86561276Y-28532152D01*
X86656514Y-28484533D01*
X86894610Y-28484533D01*
X86989848Y-28532152D01*
X87037467Y-28579771D01*
X87085086Y-28675010D01*
X87085086Y-28913105D01*
X87037467Y-29008343D01*
X86989848Y-29055962D01*
X86894610Y-29103581D01*
X86656514Y-29103581D01*
X86561276Y-29055962D01*
X86513657Y-29008343D01*
X71585200Y-50600763D02*
X71537581Y-50696001D01*
X71537581Y-50838858D01*
X71585200Y-50981716D01*
X71680438Y-51076954D01*
X71775676Y-51124573D01*
X71966152Y-51172192D01*
X72109010Y-51172192D01*
X72299486Y-51124573D01*
X72394724Y-51076954D01*
X72489962Y-50981716D01*
X72537581Y-50838858D01*
X72537581Y-50743620D01*
X72489962Y-50600763D01*
X72442343Y-50553144D01*
X72109010Y-50553144D01*
X72109010Y-50743620D01*
X71870914Y-50124573D02*
X72537581Y-50124573D01*
X71966152Y-50124573D02*
X71918533Y-50076954D01*
X71870914Y-49981716D01*
X71870914Y-49838858D01*
X71918533Y-49743620D01*
X72013771Y-49696001D01*
X72537581Y-49696001D01*
X72537581Y-48791239D02*
X71537581Y-48791239D01*
X72489962Y-48791239D02*
X72537581Y-48886477D01*
X72537581Y-49076954D01*
X72489962Y-49172192D01*
X72442343Y-49219811D01*
X72347105Y-49267430D01*
X72061390Y-49267430D01*
X71966152Y-49219811D01*
X71918533Y-49172192D01*
X71870914Y-49076954D01*
X71870914Y-48886477D01*
X71918533Y-48791239D01*
X71537581Y-47696001D02*
X72537581Y-47362668D01*
X71537581Y-47029334D01*
X72489962Y-46267429D02*
X72537581Y-46362667D01*
X72537581Y-46553144D01*
X72489962Y-46648382D01*
X72442343Y-46696001D01*
X72347105Y-46743620D01*
X72061390Y-46743620D01*
X71966152Y-46696001D01*
X71918533Y-46648382D01*
X71870914Y-46553144D01*
X71870914Y-46362667D01*
X71918533Y-46267429D01*
X72489962Y-45410286D02*
X72537581Y-45505524D01*
X72537581Y-45696001D01*
X72489962Y-45791239D01*
X72442343Y-45838858D01*
X72347105Y-45886477D01*
X72061390Y-45886477D01*
X71966152Y-45838858D01*
X71918533Y-45791239D01*
X71870914Y-45696001D01*
X71870914Y-45505524D01*
X71918533Y-45410286D01*
X72442343Y-43648381D02*
X72489962Y-43696000D01*
X72537581Y-43838857D01*
X72537581Y-43934095D01*
X72489962Y-44076953D01*
X72394724Y-44172191D01*
X72299486Y-44219810D01*
X72109010Y-44267429D01*
X71966152Y-44267429D01*
X71775676Y-44219810D01*
X71680438Y-44172191D01*
X71585200Y-44076953D01*
X71537581Y-43934095D01*
X71537581Y-43838857D01*
X71585200Y-43696000D01*
X71632819Y-43648381D01*
X72537581Y-43076953D02*
X72489962Y-43172191D01*
X72394724Y-43219810D01*
X71537581Y-43219810D01*
X72537581Y-42696000D02*
X71537581Y-42696000D01*
X72156629Y-42600762D02*
X72537581Y-42315047D01*
X71870914Y-42315047D02*
X72251867Y-42696000D01*
X72537581Y-41124571D02*
X71537581Y-41124571D01*
X71537581Y-40886476D01*
X71585200Y-40743618D01*
X71680438Y-40648380D01*
X71775676Y-40600761D01*
X71966152Y-40553142D01*
X72109010Y-40553142D01*
X72299486Y-40600761D01*
X72394724Y-40648380D01*
X72489962Y-40743618D01*
X72537581Y-40886476D01*
X72537581Y-41124571D01*
X72537581Y-38886475D02*
X72537581Y-39362666D01*
X71537581Y-39362666D01*
X72489962Y-38124570D02*
X72537581Y-38219808D01*
X72537581Y-38410285D01*
X72489962Y-38505523D01*
X72442343Y-38553142D01*
X72347105Y-38600761D01*
X72061390Y-38600761D01*
X71966152Y-38553142D01*
X71918533Y-38505523D01*
X71870914Y-38410285D01*
X71870914Y-38219808D01*
X71918533Y-38124570D01*
X72537581Y-37695999D02*
X71537581Y-37695999D01*
X72537581Y-37267427D02*
X72013771Y-37267427D01*
X71918533Y-37315046D01*
X71870914Y-37410284D01*
X71870914Y-37553142D01*
X71918533Y-37648380D01*
X71966152Y-37695999D01*
X98977581Y-43378476D02*
X98501390Y-43711810D01*
X98977581Y-43949905D02*
X97977581Y-43949905D01*
X97977581Y-43568952D01*
X98025200Y-43473714D01*
X98072819Y-43426095D01*
X98168057Y-43378476D01*
X98310914Y-43378476D01*
X98406152Y-43426095D01*
X98453771Y-43473714D01*
X98501390Y-43568952D01*
X98501390Y-43949905D01*
X95205752Y-50462781D02*
X95205752Y-49462781D01*
X95777181Y-50462781D01*
X95777181Y-49462781D01*
X96396228Y-50462781D02*
X96300990Y-50415162D01*
X96253371Y-50367543D01*
X96205752Y-50272305D01*
X96205752Y-49986590D01*
X96253371Y-49891352D01*
X96300990Y-49843733D01*
X96396228Y-49796114D01*
X96539086Y-49796114D01*
X96634324Y-49843733D01*
X96681943Y-49891352D01*
X96729562Y-49986590D01*
X96729562Y-50272305D01*
X96681943Y-50367543D01*
X96634324Y-50415162D01*
X96539086Y-50462781D01*
X96396228Y-50462781D01*
X98491467Y-50462781D02*
X98158133Y-49986590D01*
X97920038Y-50462781D02*
X97920038Y-49462781D01*
X98300991Y-49462781D01*
X98396229Y-49510400D01*
X98443848Y-49558019D01*
X98491467Y-49653257D01*
X98491467Y-49796114D01*
X98443848Y-49891352D01*
X98396229Y-49938971D01*
X98300991Y-49986590D01*
X97920038Y-49986590D01*
X76584324Y-51573181D02*
X76917657Y-52573181D01*
X77250991Y-51573181D01*
X78012896Y-52525562D02*
X77917658Y-52573181D01*
X77727181Y-52573181D01*
X77631943Y-52525562D01*
X77584324Y-52477943D01*
X77536705Y-52382705D01*
X77536705Y-52096990D01*
X77584324Y-52001752D01*
X77631943Y-51954133D01*
X77727181Y-51906514D01*
X77917658Y-51906514D01*
X78012896Y-51954133D01*
X78870039Y-52525562D02*
X78774801Y-52573181D01*
X78584324Y-52573181D01*
X78489086Y-52525562D01*
X78441467Y-52477943D01*
X78393848Y-52382705D01*
X78393848Y-52096990D01*
X78441467Y-52001752D01*
X78489086Y-51954133D01*
X78584324Y-51906514D01*
X78774801Y-51906514D01*
X78870039Y-51954133D01*
X117105181Y-40477771D02*
X117105181Y-39906342D01*
X118105181Y-40192057D02*
X117105181Y-40192057D01*
X118105181Y-39573009D02*
X117105181Y-39573009D01*
X118105181Y-39096819D02*
X117105181Y-39096819D01*
X118105181Y-38525390D01*
X117105181Y-38525390D01*
X117628990Y-37858724D02*
X118105181Y-37858724D01*
X117105181Y-38192057D02*
X117628990Y-37858724D01*
X117105181Y-37525390D01*
X117533752Y-37049200D02*
X117486133Y-37144438D01*
X117438514Y-37192057D01*
X117343276Y-37239676D01*
X117295657Y-37239676D01*
X117200419Y-37192057D01*
X117152800Y-37144438D01*
X117105181Y-37049200D01*
X117105181Y-36858723D01*
X117152800Y-36763485D01*
X117200419Y-36715866D01*
X117295657Y-36668247D01*
X117343276Y-36668247D01*
X117438514Y-36715866D01*
X117486133Y-36763485D01*
X117533752Y-36858723D01*
X117533752Y-37049200D01*
X117581371Y-37144438D01*
X117628990Y-37192057D01*
X117724229Y-37239676D01*
X117914705Y-37239676D01*
X118009943Y-37192057D01*
X118057562Y-37144438D01*
X118105181Y-37049200D01*
X118105181Y-36858723D01*
X118057562Y-36763485D01*
X118009943Y-36715866D01*
X117914705Y-36668247D01*
X117724229Y-36668247D01*
X117628990Y-36715866D01*
X117581371Y-36763485D01*
X117533752Y-36858723D01*
X117105181Y-35763485D02*
X117105181Y-36239676D01*
X117581371Y-36287295D01*
X117533752Y-36239676D01*
X117486133Y-36144438D01*
X117486133Y-35906342D01*
X117533752Y-35811104D01*
X117581371Y-35763485D01*
X117676610Y-35715866D01*
X117914705Y-35715866D01*
X118009943Y-35763485D01*
X118057562Y-35811104D01*
X118105181Y-35906342D01*
X118105181Y-36144438D01*
X118057562Y-36239676D01*
X118009943Y-36287295D01*
X109180381Y-39460229D02*
X109180381Y-38888800D01*
X110180381Y-39174515D02*
X109180381Y-39174515D01*
X110180381Y-38412610D02*
X110132762Y-38507848D01*
X110085143Y-38555467D01*
X109989905Y-38603086D01*
X109704190Y-38603086D01*
X109608952Y-38555467D01*
X109561333Y-38507848D01*
X109513714Y-38412610D01*
X109513714Y-38269752D01*
X109561333Y-38174514D01*
X109608952Y-38126895D01*
X109704190Y-38079276D01*
X109989905Y-38079276D01*
X110085143Y-38126895D01*
X110132762Y-38174514D01*
X110180381Y-38269752D01*
X110180381Y-38412610D01*
X109513714Y-36460228D02*
X110180381Y-36460228D01*
X109513714Y-36888800D02*
X110037524Y-36888800D01*
X110132762Y-36841181D01*
X110180381Y-36745943D01*
X110180381Y-36603085D01*
X110132762Y-36507847D01*
X110085143Y-36460228D01*
X110085143Y-35412609D02*
X110132762Y-35460228D01*
X110180381Y-35603085D01*
X110180381Y-35698323D01*
X110132762Y-35841181D01*
X110037524Y-35936419D01*
X109942286Y-35984038D01*
X109751810Y-36031657D01*
X109608952Y-36031657D01*
X109418476Y-35984038D01*
X109323238Y-35936419D01*
X109228000Y-35841181D01*
X109180381Y-35698323D01*
X109180381Y-35603085D01*
X109228000Y-35460228D01*
X109275619Y-35412609D01*
X121940724Y-48169581D02*
X122512153Y-48169581D01*
X122226438Y-49169581D02*
X122226438Y-48169581D01*
X122750248Y-49169581D02*
X123274058Y-48502914D01*
X122750248Y-48502914D02*
X123274058Y-49169581D01*
X112325162Y-49169581D02*
X111991828Y-48693390D01*
X111753733Y-49169581D02*
X111753733Y-48169581D01*
X112134686Y-48169581D01*
X112229924Y-48217200D01*
X112277543Y-48264819D01*
X112325162Y-48360057D01*
X112325162Y-48502914D01*
X112277543Y-48598152D01*
X112229924Y-48645771D01*
X112134686Y-48693390D01*
X111753733Y-48693390D01*
X112658495Y-49169581D02*
X113182305Y-48502914D01*
X112658495Y-48502914D02*
X113182305Y-49169581D01*
X124674381Y-40169791D02*
X124674381Y-39598362D01*
X125674381Y-39884077D02*
X124674381Y-39884077D01*
X125674381Y-39122172D02*
X125626762Y-39217410D01*
X125579143Y-39265029D01*
X125483905Y-39312648D01*
X125198190Y-39312648D01*
X125102952Y-39265029D01*
X125055333Y-39217410D01*
X125007714Y-39122172D01*
X125007714Y-38979314D01*
X125055333Y-38884076D01*
X125102952Y-38836457D01*
X125198190Y-38788838D01*
X125483905Y-38788838D01*
X125579143Y-38836457D01*
X125626762Y-38884076D01*
X125674381Y-38979314D01*
X125674381Y-39122172D01*
X125150571Y-37598362D02*
X125150571Y-37265028D01*
X125674381Y-37122171D02*
X125674381Y-37598362D01*
X124674381Y-37598362D01*
X124674381Y-37122171D01*
X125007714Y-36693600D02*
X125674381Y-36693600D01*
X125102952Y-36693600D02*
X125055333Y-36645981D01*
X125007714Y-36550743D01*
X125007714Y-36407885D01*
X125055333Y-36312647D01*
X125150571Y-36265028D01*
X125674381Y-36265028D01*
X125674381Y-35360266D02*
X124674381Y-35360266D01*
X125626762Y-35360266D02*
X125674381Y-35455504D01*
X125674381Y-35645981D01*
X125626762Y-35741219D01*
X125579143Y-35788838D01*
X125483905Y-35836457D01*
X125198190Y-35836457D01*
X125102952Y-35788838D01*
X125055333Y-35741219D01*
X125007714Y-35645981D01*
X125007714Y-35455504D01*
X125055333Y-35360266D01*
X126198381Y-46040514D02*
X126198381Y-45421466D01*
X126579333Y-45754800D01*
X126579333Y-45611942D01*
X126626952Y-45516704D01*
X126674571Y-45469085D01*
X126769810Y-45421466D01*
X127007905Y-45421466D01*
X127103143Y-45469085D01*
X127150762Y-45516704D01*
X127198381Y-45611942D01*
X127198381Y-45897657D01*
X127150762Y-45992895D01*
X127103143Y-46040514D01*
X126198381Y-45088133D02*
X126198381Y-44469085D01*
X126579333Y-44802419D01*
X126579333Y-44659561D01*
X126626952Y-44564323D01*
X126674571Y-44516704D01*
X126769810Y-44469085D01*
X127007905Y-44469085D01*
X127103143Y-44516704D01*
X127150762Y-44564323D01*
X127198381Y-44659561D01*
X127198381Y-44945276D01*
X127150762Y-45040514D01*
X127103143Y-45088133D01*
X126198381Y-43850038D02*
X126198381Y-43754799D01*
X126246000Y-43659561D01*
X126293619Y-43611942D01*
X126388857Y-43564323D01*
X126579333Y-43516704D01*
X126817429Y-43516704D01*
X127007905Y-43564323D01*
X127103143Y-43611942D01*
X127150762Y-43659561D01*
X127198381Y-43754799D01*
X127198381Y-43850038D01*
X127150762Y-43945276D01*
X127103143Y-43992895D01*
X127007905Y-44040514D01*
X126817429Y-44088133D01*
X126579333Y-44088133D01*
X126388857Y-44040514D01*
X126293619Y-43992895D01*
X126246000Y-43945276D01*
X126198381Y-43850038D01*
X107961181Y-45797695D02*
X107961181Y-45178647D01*
X108342133Y-45511981D01*
X108342133Y-45369123D01*
X108389752Y-45273885D01*
X108437371Y-45226266D01*
X108532610Y-45178647D01*
X108770705Y-45178647D01*
X108865943Y-45226266D01*
X108913562Y-45273885D01*
X108961181Y-45369123D01*
X108961181Y-45654838D01*
X108913562Y-45750076D01*
X108865943Y-45797695D01*
X108961181Y-44750076D02*
X107961181Y-44750076D01*
X108580229Y-44654838D02*
X108961181Y-44369123D01*
X108294514Y-44369123D02*
X108675467Y-44750076D01*
M02*
