G04 #@! TF.FileFunction,Copper,L1,Top,Signal*
%FSLAX46Y46*%
G04 Gerber Fmt 4.6, Leading zero omitted, Abs format (unit mm)*
G04 Created by KiCad (PCBNEW 4.0.7) date 12/08/18 05:52:10*
%MOMM*%
%LPD*%
G01*
G04 APERTURE LIST*
%ADD10C,0.100000*%
%ADD11R,1.600000X1.600000*%
%ADD12O,1.600000X1.600000*%
%ADD13C,1.600000*%
%ADD14R,1.800000X1.800000*%
%ADD15C,1.800000*%
%ADD16R,1.350000X1.350000*%
%ADD17O,1.350000X1.350000*%
%ADD18C,1.520000*%
%ADD19R,1.520000X1.520000*%
%ADD20R,1.700000X1.700000*%
%ADD21O,1.700000X1.700000*%
%ADD22C,2.000000*%
%ADD23O,1.800000X1.800000*%
%ADD24R,1.727200X1.727200*%
%ADD25O,1.727200X1.727200*%
%ADD26C,0.250000*%
%ADD27C,0.508000*%
%ADD28C,0.254000*%
G04 APERTURE END LIST*
D10*
D11*
X138915001Y-87182600D03*
D12*
X154155001Y-120202600D03*
X138915001Y-89722600D03*
X154155001Y-117662600D03*
X138915001Y-92262600D03*
X154155001Y-115122600D03*
X138915001Y-94802600D03*
X154155001Y-112582600D03*
X138915001Y-97342600D03*
X154155001Y-110042600D03*
X138915001Y-99882600D03*
X154155001Y-107502600D03*
X138915001Y-102422600D03*
X154155001Y-104962600D03*
X138915001Y-104962600D03*
X154155001Y-102422600D03*
X138915001Y-107502600D03*
X154155001Y-99882600D03*
X138915001Y-110042600D03*
X154155001Y-97342600D03*
X138915001Y-112582600D03*
X154155001Y-94802600D03*
X138915001Y-115122600D03*
X154155001Y-92262600D03*
X138915001Y-117662600D03*
X154155001Y-89722600D03*
X138915001Y-120202600D03*
X154155001Y-87182600D03*
X138915001Y-122742600D03*
X154155001Y-122742600D03*
D13*
X158038800Y-90119200D03*
X158038800Y-92619200D03*
D11*
X164998400Y-77724000D03*
D13*
X169998400Y-77724000D03*
X170281600Y-114300000D03*
X170281600Y-111800000D03*
D14*
X163474400Y-95605600D03*
D15*
X166014400Y-95605600D03*
D14*
X120192800Y-110693200D03*
D15*
X120192800Y-113233200D03*
D14*
X120192800Y-104140000D03*
D15*
X120192800Y-106680000D03*
D14*
X120142000Y-97536000D03*
D15*
X120142000Y-100076000D03*
D16*
X145186400Y-78740000D03*
D17*
X147186400Y-78740000D03*
X149186400Y-78740000D03*
X151186400Y-78740000D03*
D16*
X135382000Y-78689200D03*
D17*
X137382000Y-78689200D03*
X139382000Y-78689200D03*
X141382000Y-78689200D03*
D18*
X162407600Y-118922800D03*
X159867600Y-116382800D03*
D19*
X164947600Y-116382800D03*
D18*
X162458400Y-111709200D03*
X159918400Y-109169200D03*
D19*
X164998400Y-109169200D03*
D13*
X165557200Y-103835200D03*
D12*
X157937200Y-103835200D03*
D13*
X165709600Y-122478800D03*
D12*
X158089600Y-122478800D03*
D13*
X134061200Y-113284000D03*
D12*
X126441200Y-113284000D03*
D13*
X134061200Y-106781600D03*
D12*
X126441200Y-106781600D03*
D13*
X175006000Y-124104400D03*
D12*
X182626000Y-124104400D03*
D13*
X133908800Y-100330000D03*
D12*
X126288800Y-100330000D03*
D13*
X169976800Y-101092000D03*
D12*
X169976800Y-108712000D03*
D13*
X186080400Y-93370400D03*
D12*
X178460400Y-93370400D03*
D13*
X169875200Y-87731600D03*
D12*
X169875200Y-95351600D03*
D13*
X186232800Y-124206000D03*
D12*
X193852800Y-124206000D03*
D13*
X170027600Y-124815600D03*
D12*
X170027600Y-117195600D03*
D20*
X132994400Y-93421200D03*
D21*
X132994400Y-90881200D03*
X132994400Y-88341200D03*
D22*
X199114800Y-119938800D03*
X194614800Y-119938800D03*
X199114800Y-113438800D03*
X194614800Y-113438800D03*
D20*
X194411600Y-91033600D03*
D21*
X196951600Y-91033600D03*
X199491600Y-91033600D03*
D20*
X180543200Y-88798400D03*
D21*
X183083200Y-88798400D03*
X185623200Y-88798400D03*
D22*
X199114800Y-104343200D03*
X194614800Y-104343200D03*
X199114800Y-97843200D03*
X194614800Y-97843200D03*
D14*
X164388800Y-85598000D03*
D23*
X161848800Y-85598000D03*
X159308800Y-85598000D03*
D24*
X177495200Y-119126000D03*
D25*
X177495200Y-116586000D03*
X180035200Y-119126000D03*
X180035200Y-116586000D03*
X182575200Y-119126000D03*
X182575200Y-116586000D03*
X185115200Y-119126000D03*
X185115200Y-116586000D03*
D11*
X120802400Y-121666000D03*
D12*
X128422400Y-129286000D03*
X120802400Y-124206000D03*
X128422400Y-126746000D03*
X120802400Y-126746000D03*
X128422400Y-124206000D03*
X120802400Y-129286000D03*
X128422400Y-121666000D03*
D26*
X159867600Y-116382800D02*
X159867600Y-118770400D01*
X163576000Y-122478800D02*
X165709600Y-122478800D01*
X159867600Y-118770400D02*
X163576000Y-122478800D01*
X138915001Y-87182600D02*
X138915001Y-79156199D01*
X138915001Y-79156199D02*
X139382000Y-78689200D01*
X159918400Y-109169200D02*
X160223200Y-109169200D01*
X160223200Y-109169200D02*
X165557200Y-103835200D01*
X159918400Y-109169200D02*
X155244800Y-109169200D01*
X146364600Y-89722600D02*
X138915001Y-89722600D01*
X150063200Y-93421200D02*
X146364600Y-89722600D01*
X150063200Y-106121200D02*
X150063200Y-93421200D01*
X152806400Y-108864400D02*
X150063200Y-106121200D01*
X154940000Y-108864400D02*
X152806400Y-108864400D01*
X155244800Y-109169200D02*
X154940000Y-108864400D01*
X138915001Y-89722600D02*
X137474600Y-89722600D01*
X137109200Y-89357200D02*
X137109200Y-78962000D01*
X137474600Y-89722600D02*
X137109200Y-89357200D01*
X137109200Y-78962000D02*
X137382000Y-78689200D01*
X138915001Y-92262600D02*
X136966600Y-92262600D01*
X134772400Y-88341200D02*
X132994400Y-88341200D01*
X135737600Y-89306400D02*
X134772400Y-88341200D01*
X135737600Y-91033600D02*
X135737600Y-89306400D01*
X136966600Y-92262600D02*
X135737600Y-91033600D01*
X138915001Y-110042600D02*
X137423800Y-110042600D01*
X136956800Y-103378000D02*
X133908800Y-100330000D01*
X136956800Y-109575600D02*
X136956800Y-103378000D01*
X137423800Y-110042600D02*
X136956800Y-109575600D01*
X138915001Y-112582600D02*
X137779400Y-112582600D01*
X136093200Y-108813600D02*
X134061200Y-106781600D01*
X136093200Y-110896400D02*
X136093200Y-108813600D01*
X137779400Y-112582600D02*
X136093200Y-110896400D01*
D27*
X156057600Y-91998800D02*
X156057600Y-92900001D01*
X157937200Y-90119200D02*
X156057600Y-91998800D01*
X156057600Y-92900001D02*
X154155001Y-94802600D01*
X158038800Y-90119200D02*
X157937200Y-90119200D01*
X157937200Y-103835200D02*
X157937200Y-98584799D01*
X157937200Y-98584799D02*
X154155001Y-94802600D01*
D26*
X138915001Y-115122600D02*
X137982600Y-115122600D01*
X136042400Y-113182400D02*
X133705600Y-113182400D01*
X137982600Y-115122600D02*
X136042400Y-113182400D01*
X120802400Y-121666000D02*
X120802400Y-119938800D01*
X123078600Y-117662600D02*
X138915001Y-117662600D01*
X120802400Y-119938800D02*
X123078600Y-117662600D01*
X138915001Y-120202600D02*
X127498200Y-120202600D01*
X126187200Y-127050800D02*
X128422400Y-129286000D01*
X126187200Y-121513600D02*
X126187200Y-127050800D01*
X127498200Y-120202600D02*
X126187200Y-121513600D01*
X138915001Y-122742600D02*
X136591400Y-122742600D01*
X132588000Y-126746000D02*
X128422400Y-126746000D01*
X136591400Y-122742600D02*
X132588000Y-126746000D01*
X128422400Y-124206000D02*
X133350000Y-124206000D01*
X152976801Y-121564400D02*
X154155001Y-122742600D01*
X135991600Y-121564400D02*
X152976801Y-121564400D01*
X133350000Y-124206000D02*
X135991600Y-121564400D01*
D27*
X145186400Y-78740000D02*
X145186400Y-77876400D01*
X163474400Y-76200000D02*
X164998400Y-77724000D01*
X146862800Y-76200000D02*
X163474400Y-76200000D01*
X145186400Y-77876400D02*
X146862800Y-76200000D01*
D26*
X169875200Y-95351600D02*
X166268400Y-95351600D01*
X166268400Y-95351600D02*
X166014400Y-95605600D01*
X120192800Y-113233200D02*
X126034800Y-113233200D01*
X126034800Y-113233200D02*
X126085600Y-113182400D01*
X126441200Y-106781600D02*
X120294400Y-106781600D01*
X120294400Y-106781600D02*
X120192800Y-106680000D01*
X120142000Y-100076000D02*
X126034800Y-100076000D01*
X126034800Y-100076000D02*
X126288800Y-100330000D01*
X177495200Y-119126000D02*
X176631600Y-119126000D01*
X176631600Y-119126000D02*
X174701200Y-117195600D01*
X174701200Y-117195600D02*
X174701200Y-113436400D01*
X174701200Y-113436400D02*
X169976800Y-108712000D01*
X164998400Y-109169200D02*
X169519600Y-109169200D01*
X169519600Y-109169200D02*
X169976800Y-108712000D01*
X164947600Y-116382800D02*
X169214800Y-116382800D01*
X169214800Y-116382800D02*
X170027600Y-117195600D01*
X199114800Y-119938800D02*
X199114800Y-113438800D01*
X182626000Y-124104400D02*
X183896000Y-124104400D01*
X199114800Y-123160400D02*
X199114800Y-119938800D01*
X195986400Y-126288800D02*
X199114800Y-123160400D01*
X186080400Y-126288800D02*
X195986400Y-126288800D01*
X183896000Y-124104400D02*
X186080400Y-126288800D01*
X182575200Y-119126000D02*
X182575200Y-124053600D01*
X182575200Y-124053600D02*
X182626000Y-124104400D01*
X185623200Y-88798400D02*
X185623200Y-92913200D01*
X185623200Y-92913200D02*
X186080400Y-93370400D01*
X180543200Y-88798400D02*
X170942000Y-88798400D01*
X170942000Y-88798400D02*
X169875200Y-87731600D01*
X194614800Y-97843200D02*
X194614800Y-96062800D01*
X196951600Y-93726000D02*
X196951600Y-91033600D01*
X194614800Y-96062800D02*
X196951600Y-93726000D01*
X194614800Y-104343200D02*
X194614800Y-97843200D01*
X182575200Y-116586000D02*
X182575200Y-114249200D01*
X192481200Y-104343200D02*
X194614800Y-104343200D01*
X182575200Y-114249200D02*
X192481200Y-104343200D01*
X186283600Y-123850400D02*
X186283600Y-123139200D01*
X186283600Y-123139200D02*
X183896000Y-120751600D01*
X183896000Y-120751600D02*
X183896000Y-118008400D01*
X183896000Y-118008400D02*
X182575200Y-116687600D01*
X182575200Y-116687600D02*
X182575200Y-116586000D01*
X180035200Y-116586000D02*
X180035200Y-98196400D01*
X183083200Y-95148400D02*
X183083200Y-88798400D01*
X180035200Y-98196400D02*
X183083200Y-95148400D01*
D28*
G36*
X200915200Y-90638622D02*
X200686783Y-90152242D01*
X200258524Y-89761955D01*
X199848490Y-89592124D01*
X199618600Y-89713445D01*
X199618600Y-90906600D01*
X199638600Y-90906600D01*
X199638600Y-91160600D01*
X199618600Y-91160600D01*
X199618600Y-92353755D01*
X199848490Y-92475076D01*
X200258524Y-92305245D01*
X200686783Y-91914958D01*
X200915200Y-91428578D01*
X200915200Y-131014400D01*
X115873600Y-131014400D01*
X115873600Y-129635039D01*
X119410496Y-129635039D01*
X119571359Y-130023423D01*
X119947266Y-130438389D01*
X120453359Y-130677914D01*
X120675400Y-130556629D01*
X120675400Y-129413000D01*
X120929400Y-129413000D01*
X120929400Y-130556629D01*
X121151441Y-130677914D01*
X121657534Y-130438389D01*
X122033441Y-130023423D01*
X122194304Y-129635039D01*
X122072315Y-129413000D01*
X120929400Y-129413000D01*
X120675400Y-129413000D01*
X119532485Y-129413000D01*
X119410496Y-129635039D01*
X115873600Y-129635039D01*
X115873600Y-124206000D01*
X119339287Y-124206000D01*
X119448520Y-124755151D01*
X119759589Y-125220698D01*
X120141675Y-125476000D01*
X119759589Y-125731302D01*
X119448520Y-126196849D01*
X119339287Y-126746000D01*
X119448520Y-127295151D01*
X119759589Y-127760698D01*
X120164103Y-128030986D01*
X119947266Y-128133611D01*
X119571359Y-128548577D01*
X119410496Y-128936961D01*
X119532485Y-129159000D01*
X120675400Y-129159000D01*
X120675400Y-129139000D01*
X120929400Y-129139000D01*
X120929400Y-129159000D01*
X122072315Y-129159000D01*
X122194304Y-128936961D01*
X122033441Y-128548577D01*
X121657534Y-128133611D01*
X121440697Y-128030986D01*
X121845211Y-127760698D01*
X122156280Y-127295151D01*
X122265513Y-126746000D01*
X122156280Y-126196849D01*
X121845211Y-125731302D01*
X121463125Y-125476000D01*
X121845211Y-125220698D01*
X122156280Y-124755151D01*
X122265513Y-124206000D01*
X122156280Y-123656849D01*
X121845211Y-123191302D01*
X121700935Y-123094899D01*
X121837717Y-123069162D01*
X122053841Y-122930090D01*
X122198831Y-122717890D01*
X122249840Y-122466000D01*
X122249840Y-120866000D01*
X122205562Y-120630683D01*
X122066490Y-120414559D01*
X121854290Y-120269569D01*
X121602400Y-120218560D01*
X121597442Y-120218560D01*
X123393402Y-118422600D01*
X137702006Y-118422600D01*
X137872190Y-118677298D01*
X138254276Y-118932600D01*
X137872190Y-119187902D01*
X137702006Y-119442600D01*
X127498200Y-119442600D01*
X127207361Y-119500452D01*
X126960799Y-119665199D01*
X125649799Y-120976199D01*
X125485052Y-121222761D01*
X125427200Y-121513600D01*
X125427200Y-127050800D01*
X125485052Y-127341639D01*
X125649799Y-127588201D01*
X127023712Y-128962114D01*
X126959287Y-129286000D01*
X127068520Y-129835151D01*
X127379589Y-130300698D01*
X127845136Y-130611767D01*
X128394287Y-130721000D01*
X128450513Y-130721000D01*
X128999664Y-130611767D01*
X129465211Y-130300698D01*
X129776280Y-129835151D01*
X129885513Y-129286000D01*
X129776280Y-128736849D01*
X129465211Y-128271302D01*
X129083125Y-128016000D01*
X129465211Y-127760698D01*
X129635395Y-127506000D01*
X132588000Y-127506000D01*
X132878839Y-127448148D01*
X133125401Y-127283401D01*
X135309015Y-125099787D01*
X168592352Y-125099787D01*
X168810357Y-125627400D01*
X169213677Y-126031424D01*
X169740909Y-126250350D01*
X170311787Y-126250848D01*
X170839400Y-126032843D01*
X171243424Y-125629523D01*
X171462350Y-125102291D01*
X171462848Y-124531413D01*
X171403834Y-124388587D01*
X173570752Y-124388587D01*
X173788757Y-124916200D01*
X174192077Y-125320224D01*
X174719309Y-125539150D01*
X175290187Y-125539648D01*
X175817800Y-125321643D01*
X176221824Y-124918323D01*
X176440750Y-124391091D01*
X176441248Y-123820213D01*
X176223243Y-123292600D01*
X175819923Y-122888576D01*
X175292691Y-122669650D01*
X174721813Y-122669152D01*
X174194200Y-122887157D01*
X173790176Y-123290477D01*
X173571250Y-123817709D01*
X173570752Y-124388587D01*
X171403834Y-124388587D01*
X171244843Y-124003800D01*
X170841523Y-123599776D01*
X170314291Y-123380850D01*
X169743413Y-123380352D01*
X169215800Y-123598357D01*
X168811776Y-124001677D01*
X168592850Y-124528909D01*
X168592352Y-125099787D01*
X135309015Y-125099787D01*
X136906202Y-123502600D01*
X137702006Y-123502600D01*
X137872190Y-123757298D01*
X138337737Y-124068367D01*
X138886888Y-124177600D01*
X138943114Y-124177600D01*
X139492265Y-124068367D01*
X139957812Y-123757298D01*
X140268881Y-123291751D01*
X140378114Y-122742600D01*
X140294929Y-122324400D01*
X152661999Y-122324400D01*
X152756313Y-122418714D01*
X152691888Y-122742600D01*
X152801121Y-123291751D01*
X153112190Y-123757298D01*
X153577737Y-124068367D01*
X154126888Y-124177600D01*
X154183114Y-124177600D01*
X154732265Y-124068367D01*
X155197812Y-123757298D01*
X155508881Y-123291751D01*
X155618114Y-122742600D01*
X155565641Y-122478800D01*
X156626487Y-122478800D01*
X156735720Y-123027951D01*
X157046789Y-123493498D01*
X157512336Y-123804567D01*
X158061487Y-123913800D01*
X158117713Y-123913800D01*
X158666864Y-123804567D01*
X159132411Y-123493498D01*
X159443480Y-123027951D01*
X159552713Y-122478800D01*
X159443480Y-121929649D01*
X159132411Y-121464102D01*
X158666864Y-121153033D01*
X158117713Y-121043800D01*
X158061487Y-121043800D01*
X157512336Y-121153033D01*
X157046789Y-121464102D01*
X156735720Y-121929649D01*
X156626487Y-122478800D01*
X155565641Y-122478800D01*
X155508881Y-122193449D01*
X155197812Y-121727902D01*
X154815726Y-121472600D01*
X155197812Y-121217298D01*
X155508881Y-120751751D01*
X155618114Y-120202600D01*
X155508881Y-119653449D01*
X155197812Y-119187902D01*
X154815726Y-118932600D01*
X155197812Y-118677298D01*
X155508881Y-118211751D01*
X155618114Y-117662600D01*
X155508881Y-117113449D01*
X155205271Y-116659065D01*
X158472358Y-116659065D01*
X158684287Y-117171972D01*
X159076364Y-117564734D01*
X159107600Y-117577704D01*
X159107600Y-118770400D01*
X159165452Y-119061239D01*
X159330199Y-119307801D01*
X163038599Y-123016201D01*
X163285161Y-123180948D01*
X163576000Y-123238800D01*
X164470954Y-123238800D01*
X164492357Y-123290600D01*
X164895677Y-123694624D01*
X165422909Y-123913550D01*
X165993787Y-123914048D01*
X166521400Y-123696043D01*
X166925424Y-123292723D01*
X167144350Y-122765491D01*
X167144848Y-122194613D01*
X166926843Y-121667000D01*
X166523523Y-121262976D01*
X165996291Y-121044050D01*
X165425413Y-121043552D01*
X164897800Y-121261557D01*
X164493776Y-121664877D01*
X164471385Y-121718800D01*
X163890802Y-121718800D01*
X162489875Y-120317873D01*
X162683865Y-120318042D01*
X163196772Y-120106113D01*
X163589534Y-119714036D01*
X163802358Y-119201500D01*
X163802842Y-118646535D01*
X163590913Y-118133628D01*
X163198836Y-117740866D01*
X162686300Y-117528042D01*
X162131335Y-117527558D01*
X161618428Y-117739487D01*
X161225666Y-118131564D01*
X161012842Y-118644100D01*
X161012671Y-118840669D01*
X160627600Y-118455598D01*
X160627600Y-117578167D01*
X160656772Y-117566113D01*
X161049534Y-117174036D01*
X161262358Y-116661500D01*
X161262842Y-116106535D01*
X161062967Y-115622800D01*
X163540160Y-115622800D01*
X163540160Y-117142800D01*
X163584438Y-117378117D01*
X163723510Y-117594241D01*
X163935710Y-117739231D01*
X164187600Y-117790240D01*
X165707600Y-117790240D01*
X165942917Y-117745962D01*
X166159041Y-117606890D01*
X166304031Y-117394690D01*
X166355040Y-117142800D01*
X168597511Y-117142800D01*
X168592600Y-117167487D01*
X168592600Y-117223713D01*
X168701833Y-117772864D01*
X169012902Y-118238411D01*
X169478449Y-118549480D01*
X170027600Y-118658713D01*
X170576751Y-118549480D01*
X171042298Y-118238411D01*
X171353367Y-117772864D01*
X171462600Y-117223713D01*
X171462600Y-117167487D01*
X171353367Y-116618336D01*
X171042298Y-116152789D01*
X170576751Y-115841720D01*
X170039171Y-115734789D01*
X170565787Y-115735248D01*
X171093400Y-115517243D01*
X171497424Y-115113923D01*
X171716350Y-114586691D01*
X171716848Y-114015813D01*
X171498843Y-113488200D01*
X171095523Y-113084176D01*
X171029056Y-113056577D01*
X171035605Y-113053864D01*
X171109739Y-112807745D01*
X170281600Y-111979605D01*
X169453461Y-112807745D01*
X169527595Y-113053864D01*
X169534083Y-113056196D01*
X169469800Y-113082757D01*
X169065776Y-113486077D01*
X168846850Y-114013309D01*
X168846352Y-114584187D01*
X169064357Y-115111800D01*
X169467677Y-115515824D01*
X169994909Y-115734750D01*
X170016130Y-115734769D01*
X169685159Y-115800603D01*
X169505639Y-115680652D01*
X169214800Y-115622800D01*
X166355040Y-115622800D01*
X166310762Y-115387483D01*
X166171690Y-115171359D01*
X165959490Y-115026369D01*
X165707600Y-114975360D01*
X164187600Y-114975360D01*
X163952283Y-115019638D01*
X163736159Y-115158710D01*
X163591169Y-115370910D01*
X163540160Y-115622800D01*
X161062967Y-115622800D01*
X161050913Y-115593628D01*
X160658836Y-115200866D01*
X160146300Y-114988042D01*
X159591335Y-114987558D01*
X159078428Y-115199487D01*
X158685666Y-115591564D01*
X158472842Y-116104100D01*
X158472358Y-116659065D01*
X155205271Y-116659065D01*
X155197812Y-116647902D01*
X154815726Y-116392600D01*
X155197812Y-116137298D01*
X155508881Y-115671751D01*
X155618114Y-115122600D01*
X155508881Y-114573449D01*
X155197812Y-114107902D01*
X154815726Y-113852600D01*
X155197812Y-113597298D01*
X155508881Y-113131751D01*
X155618114Y-112582600D01*
X155508881Y-112033449D01*
X155476820Y-111985465D01*
X161063158Y-111985465D01*
X161275087Y-112498372D01*
X161667164Y-112891134D01*
X162179700Y-113103958D01*
X162734665Y-113104442D01*
X163247572Y-112892513D01*
X163640334Y-112500436D01*
X163853158Y-111987900D01*
X163853510Y-111583223D01*
X168834635Y-111583223D01*
X168861822Y-112153454D01*
X169027736Y-112554005D01*
X169273855Y-112628139D01*
X170101995Y-111800000D01*
X169273855Y-110971861D01*
X169027736Y-111045995D01*
X168834635Y-111583223D01*
X163853510Y-111583223D01*
X163853642Y-111432935D01*
X163641713Y-110920028D01*
X163249636Y-110527266D01*
X162737100Y-110314442D01*
X162182135Y-110313958D01*
X161669228Y-110525887D01*
X161276466Y-110917964D01*
X161063642Y-111430500D01*
X161063158Y-111985465D01*
X155476820Y-111985465D01*
X155197812Y-111567902D01*
X154815726Y-111312600D01*
X155197812Y-111057298D01*
X155508881Y-110591751D01*
X155618114Y-110042600D01*
X155595557Y-109929200D01*
X158723033Y-109929200D01*
X158735087Y-109958372D01*
X159127164Y-110351134D01*
X159639700Y-110563958D01*
X160194665Y-110564442D01*
X160707572Y-110352513D01*
X161100334Y-109960436D01*
X161313158Y-109447900D01*
X161313415Y-109153787D01*
X162058002Y-108409200D01*
X163590960Y-108409200D01*
X163590960Y-109929200D01*
X163635238Y-110164517D01*
X163774310Y-110380641D01*
X163986510Y-110525631D01*
X164238400Y-110576640D01*
X165758400Y-110576640D01*
X165993717Y-110532362D01*
X166209841Y-110393290D01*
X166354831Y-110181090D01*
X166405840Y-109929200D01*
X169223093Y-109929200D01*
X169427649Y-110065880D01*
X169976800Y-110175113D01*
X170300686Y-110110688D01*
X170568091Y-110378093D01*
X170498377Y-110353035D01*
X169928146Y-110380222D01*
X169527595Y-110546136D01*
X169453461Y-110792255D01*
X170281600Y-111620395D01*
X170295742Y-111606252D01*
X170475348Y-111785858D01*
X170461205Y-111800000D01*
X171289345Y-112628139D01*
X171535464Y-112554005D01*
X171728565Y-112016777D01*
X171704624Y-111514626D01*
X173941200Y-113751202D01*
X173941200Y-117195600D01*
X173999052Y-117486439D01*
X174163799Y-117733001D01*
X175984160Y-119553362D01*
X175984160Y-119989600D01*
X176028438Y-120224917D01*
X176167510Y-120441041D01*
X176379710Y-120586031D01*
X176631600Y-120637040D01*
X178358800Y-120637040D01*
X178594117Y-120592762D01*
X178810241Y-120453690D01*
X178955231Y-120241490D01*
X178964064Y-120197869D01*
X178975530Y-120215029D01*
X179461711Y-120539885D01*
X180035200Y-120653959D01*
X180608689Y-120539885D01*
X181094870Y-120215029D01*
X181305200Y-119900248D01*
X181515530Y-120215029D01*
X181815200Y-120415262D01*
X181815200Y-122934677D01*
X181583189Y-123089702D01*
X181272120Y-123555249D01*
X181162887Y-124104400D01*
X181272120Y-124653551D01*
X181583189Y-125119098D01*
X182048736Y-125430167D01*
X182597887Y-125539400D01*
X182654113Y-125539400D01*
X183203264Y-125430167D01*
X183668811Y-125119098D01*
X183735736Y-125018938D01*
X185542999Y-126826201D01*
X185789561Y-126990948D01*
X186080400Y-127048800D01*
X195986400Y-127048800D01*
X196277239Y-126990948D01*
X196523801Y-126826201D01*
X199652201Y-123697801D01*
X199816948Y-123451239D01*
X199874800Y-123160400D01*
X199874800Y-121393847D01*
X200039743Y-121325694D01*
X200500078Y-120866163D01*
X200749516Y-120265448D01*
X200750084Y-119615005D01*
X200501694Y-119013857D01*
X200042163Y-118553522D01*
X199874800Y-118484027D01*
X199874800Y-114893847D01*
X200039743Y-114825694D01*
X200500078Y-114366163D01*
X200749516Y-113765448D01*
X200750084Y-113115005D01*
X200501694Y-112513857D01*
X200042163Y-112053522D01*
X199441448Y-111804084D01*
X198791005Y-111803516D01*
X198189857Y-112051906D01*
X197729522Y-112511437D01*
X197480084Y-113112152D01*
X197479516Y-113762595D01*
X197727906Y-114363743D01*
X198187437Y-114824078D01*
X198354800Y-114893573D01*
X198354800Y-118483753D01*
X198189857Y-118551906D01*
X197729522Y-119011437D01*
X197480084Y-119612152D01*
X197479516Y-120262595D01*
X197727906Y-120863743D01*
X198187437Y-121324078D01*
X198354800Y-121393573D01*
X198354800Y-122845598D01*
X195671598Y-125528800D01*
X194434504Y-125528800D01*
X194895611Y-125220698D01*
X195206680Y-124755151D01*
X195315913Y-124206000D01*
X195206680Y-123656849D01*
X194895611Y-123191302D01*
X194430064Y-122880233D01*
X193880913Y-122771000D01*
X193824687Y-122771000D01*
X193275536Y-122880233D01*
X192809989Y-123191302D01*
X192498920Y-123656849D01*
X192389687Y-124206000D01*
X192498920Y-124755151D01*
X192809989Y-125220698D01*
X193271096Y-125528800D01*
X186789132Y-125528800D01*
X187044600Y-125423243D01*
X187448624Y-125019923D01*
X187667550Y-124492691D01*
X187668048Y-123921813D01*
X187450043Y-123394200D01*
X187046723Y-122990176D01*
X187011007Y-122975345D01*
X186985748Y-122848360D01*
X186821001Y-122601799D01*
X185310534Y-121091332D01*
X193641873Y-121091332D01*
X193740536Y-121358187D01*
X194350261Y-121584708D01*
X195000260Y-121560656D01*
X195489064Y-121358187D01*
X195587727Y-121091332D01*
X194614800Y-120118405D01*
X193641873Y-121091332D01*
X185310534Y-121091332D01*
X184813062Y-120593860D01*
X185115200Y-120653959D01*
X185688689Y-120539885D01*
X186174870Y-120215029D01*
X186499726Y-119728848D01*
X186510584Y-119674261D01*
X192968892Y-119674261D01*
X192992944Y-120324260D01*
X193195413Y-120813064D01*
X193462268Y-120911727D01*
X194435195Y-119938800D01*
X194794405Y-119938800D01*
X195767332Y-120911727D01*
X196034187Y-120813064D01*
X196260708Y-120203339D01*
X196236656Y-119553340D01*
X196034187Y-119064536D01*
X195767332Y-118965873D01*
X194794405Y-119938800D01*
X194435195Y-119938800D01*
X193462268Y-118965873D01*
X193195413Y-119064536D01*
X192968892Y-119674261D01*
X186510584Y-119674261D01*
X186613800Y-119155359D01*
X186613800Y-119096641D01*
X186552064Y-118786268D01*
X193641873Y-118786268D01*
X194614800Y-119759195D01*
X195587727Y-118786268D01*
X195489064Y-118519413D01*
X194879339Y-118292892D01*
X194229340Y-118316944D01*
X193740536Y-118519413D01*
X193641873Y-118786268D01*
X186552064Y-118786268D01*
X186499726Y-118523152D01*
X186174870Y-118036971D01*
X185904028Y-117856000D01*
X186174870Y-117675029D01*
X186499726Y-117188848D01*
X186613800Y-116615359D01*
X186613800Y-116556641D01*
X186499726Y-115983152D01*
X186174870Y-115496971D01*
X185688689Y-115172115D01*
X185115200Y-115058041D01*
X184541711Y-115172115D01*
X184055530Y-115496971D01*
X183845200Y-115811752D01*
X183634870Y-115496971D01*
X183335200Y-115296738D01*
X183335200Y-114591332D01*
X193641873Y-114591332D01*
X193740536Y-114858187D01*
X194350261Y-115084708D01*
X195000260Y-115060656D01*
X195489064Y-114858187D01*
X195587727Y-114591332D01*
X194614800Y-113618405D01*
X193641873Y-114591332D01*
X183335200Y-114591332D01*
X183335200Y-114564002D01*
X184724941Y-113174261D01*
X192968892Y-113174261D01*
X192992944Y-113824260D01*
X193195413Y-114313064D01*
X193462268Y-114411727D01*
X194435195Y-113438800D01*
X194794405Y-113438800D01*
X195767332Y-114411727D01*
X196034187Y-114313064D01*
X196260708Y-113703339D01*
X196236656Y-113053340D01*
X196034187Y-112564536D01*
X195767332Y-112465873D01*
X194794405Y-113438800D01*
X194435195Y-113438800D01*
X193462268Y-112465873D01*
X193195413Y-112564536D01*
X192968892Y-113174261D01*
X184724941Y-113174261D01*
X185612934Y-112286268D01*
X193641873Y-112286268D01*
X194614800Y-113259195D01*
X195587727Y-112286268D01*
X195489064Y-112019413D01*
X194879339Y-111792892D01*
X194229340Y-111816944D01*
X193740536Y-112019413D01*
X193641873Y-112286268D01*
X185612934Y-112286268D01*
X192796002Y-105103200D01*
X193159753Y-105103200D01*
X193227906Y-105268143D01*
X193687437Y-105728478D01*
X194288152Y-105977916D01*
X194938595Y-105978484D01*
X195539743Y-105730094D01*
X195774515Y-105495732D01*
X198141873Y-105495732D01*
X198240536Y-105762587D01*
X198850261Y-105989108D01*
X199500260Y-105965056D01*
X199989064Y-105762587D01*
X200087727Y-105495732D01*
X199114800Y-104522805D01*
X198141873Y-105495732D01*
X195774515Y-105495732D01*
X196000078Y-105270563D01*
X196249516Y-104669848D01*
X196250032Y-104078661D01*
X197468892Y-104078661D01*
X197492944Y-104728660D01*
X197695413Y-105217464D01*
X197962268Y-105316127D01*
X198935195Y-104343200D01*
X199294405Y-104343200D01*
X200267332Y-105316127D01*
X200534187Y-105217464D01*
X200760708Y-104607739D01*
X200736656Y-103957740D01*
X200534187Y-103468936D01*
X200267332Y-103370273D01*
X199294405Y-104343200D01*
X198935195Y-104343200D01*
X197962268Y-103370273D01*
X197695413Y-103468936D01*
X197468892Y-104078661D01*
X196250032Y-104078661D01*
X196250084Y-104019405D01*
X196001694Y-103418257D01*
X195774503Y-103190668D01*
X198141873Y-103190668D01*
X199114800Y-104163595D01*
X200087727Y-103190668D01*
X199989064Y-102923813D01*
X199379339Y-102697292D01*
X198729340Y-102721344D01*
X198240536Y-102923813D01*
X198141873Y-103190668D01*
X195774503Y-103190668D01*
X195542163Y-102957922D01*
X195374800Y-102888427D01*
X195374800Y-99298247D01*
X195539743Y-99230094D01*
X195774515Y-98995732D01*
X198141873Y-98995732D01*
X198240536Y-99262587D01*
X198850261Y-99489108D01*
X199500260Y-99465056D01*
X199989064Y-99262587D01*
X200087727Y-98995732D01*
X199114800Y-98022805D01*
X198141873Y-98995732D01*
X195774515Y-98995732D01*
X196000078Y-98770563D01*
X196249516Y-98169848D01*
X196250032Y-97578661D01*
X197468892Y-97578661D01*
X197492944Y-98228660D01*
X197695413Y-98717464D01*
X197962268Y-98816127D01*
X198935195Y-97843200D01*
X199294405Y-97843200D01*
X200267332Y-98816127D01*
X200534187Y-98717464D01*
X200760708Y-98107739D01*
X200736656Y-97457740D01*
X200534187Y-96968936D01*
X200267332Y-96870273D01*
X199294405Y-97843200D01*
X198935195Y-97843200D01*
X197962268Y-96870273D01*
X197695413Y-96968936D01*
X197468892Y-97578661D01*
X196250032Y-97578661D01*
X196250084Y-97519405D01*
X196001694Y-96918257D01*
X195774503Y-96690668D01*
X198141873Y-96690668D01*
X199114800Y-97663595D01*
X200087727Y-96690668D01*
X199989064Y-96423813D01*
X199379339Y-96197292D01*
X198729340Y-96221344D01*
X198240536Y-96423813D01*
X198141873Y-96690668D01*
X195774503Y-96690668D01*
X195542163Y-96457922D01*
X195374800Y-96388427D01*
X195374800Y-96377602D01*
X197489001Y-94263401D01*
X197653748Y-94016840D01*
X197711600Y-93726000D01*
X197711600Y-92306554D01*
X198001654Y-92112747D01*
X198229302Y-91772047D01*
X198296417Y-91914958D01*
X198724676Y-92305245D01*
X199134710Y-92475076D01*
X199364600Y-92353755D01*
X199364600Y-91160600D01*
X199344600Y-91160600D01*
X199344600Y-90906600D01*
X199364600Y-90906600D01*
X199364600Y-89713445D01*
X199134710Y-89592124D01*
X198724676Y-89761955D01*
X198296417Y-90152242D01*
X198229302Y-90295153D01*
X198001654Y-89954453D01*
X197519885Y-89632546D01*
X196951600Y-89519507D01*
X196383315Y-89632546D01*
X195901546Y-89954453D01*
X195873750Y-89996052D01*
X195864762Y-89948283D01*
X195725690Y-89732159D01*
X195513490Y-89587169D01*
X195261600Y-89536160D01*
X193561600Y-89536160D01*
X193326283Y-89580438D01*
X193110159Y-89719510D01*
X192965169Y-89931710D01*
X192914160Y-90183600D01*
X192914160Y-91883600D01*
X192958438Y-92118917D01*
X193097510Y-92335041D01*
X193309710Y-92480031D01*
X193561600Y-92531040D01*
X195261600Y-92531040D01*
X195496917Y-92486762D01*
X195713041Y-92347690D01*
X195858031Y-92135490D01*
X195871686Y-92068059D01*
X195901546Y-92112747D01*
X196191600Y-92306554D01*
X196191600Y-93411198D01*
X194077399Y-95525399D01*
X193912652Y-95771961D01*
X193854800Y-96062800D01*
X193854800Y-96388153D01*
X193689857Y-96456306D01*
X193229522Y-96915837D01*
X192980084Y-97516552D01*
X192979516Y-98166995D01*
X193227906Y-98768143D01*
X193687437Y-99228478D01*
X193854800Y-99297973D01*
X193854800Y-102888153D01*
X193689857Y-102956306D01*
X193229522Y-103415837D01*
X193160027Y-103583200D01*
X192481200Y-103583200D01*
X192190361Y-103641052D01*
X191943799Y-103805799D01*
X182037799Y-113711799D01*
X181873052Y-113958361D01*
X181815200Y-114249200D01*
X181815200Y-115296738D01*
X181515530Y-115496971D01*
X181305200Y-115811752D01*
X181094870Y-115496971D01*
X180795200Y-115296738D01*
X180795200Y-98511202D01*
X183620601Y-95685801D01*
X183785348Y-95439239D01*
X183843200Y-95148400D01*
X183843200Y-90071354D01*
X184133254Y-89877547D01*
X184353200Y-89548374D01*
X184573146Y-89877547D01*
X184863200Y-90071354D01*
X184863200Y-92559791D01*
X184645650Y-93083709D01*
X184645152Y-93654587D01*
X184863157Y-94182200D01*
X185266477Y-94586224D01*
X185793709Y-94805150D01*
X186364587Y-94805648D01*
X186892200Y-94587643D01*
X187296224Y-94184323D01*
X187515150Y-93657091D01*
X187515648Y-93086213D01*
X187297643Y-92558600D01*
X186894323Y-92154576D01*
X186383200Y-91942339D01*
X186383200Y-90071354D01*
X186673254Y-89877547D01*
X186995161Y-89395778D01*
X187108200Y-88827493D01*
X187108200Y-88769307D01*
X186995161Y-88201022D01*
X186673254Y-87719253D01*
X186191485Y-87397346D01*
X185623200Y-87284307D01*
X185054915Y-87397346D01*
X184573146Y-87719253D01*
X184353200Y-88048426D01*
X184133254Y-87719253D01*
X183651485Y-87397346D01*
X183083200Y-87284307D01*
X182514915Y-87397346D01*
X182033146Y-87719253D01*
X182005350Y-87760852D01*
X181996362Y-87713083D01*
X181857290Y-87496959D01*
X181645090Y-87351969D01*
X181393200Y-87300960D01*
X179693200Y-87300960D01*
X179457883Y-87345238D01*
X179241759Y-87484310D01*
X179096769Y-87696510D01*
X179045760Y-87948400D01*
X179045760Y-88038400D01*
X171301600Y-88038400D01*
X171309950Y-88018291D01*
X171310448Y-87447413D01*
X171092443Y-86919800D01*
X170689123Y-86515776D01*
X170161891Y-86296850D01*
X169591013Y-86296352D01*
X169063400Y-86514357D01*
X168659376Y-86917677D01*
X168440450Y-87444909D01*
X168439952Y-88015787D01*
X168657957Y-88543400D01*
X169061277Y-88947424D01*
X169588509Y-89166350D01*
X170159387Y-89166848D01*
X170213349Y-89144551D01*
X170404599Y-89335801D01*
X170651161Y-89500548D01*
X170942000Y-89558400D01*
X179045760Y-89558400D01*
X179045760Y-89648400D01*
X179090038Y-89883717D01*
X179229110Y-90099841D01*
X179441310Y-90244831D01*
X179693200Y-90295840D01*
X181393200Y-90295840D01*
X181628517Y-90251562D01*
X181844641Y-90112490D01*
X181989631Y-89900290D01*
X182003286Y-89832859D01*
X182033146Y-89877547D01*
X182323200Y-90071354D01*
X182323200Y-94833598D01*
X179497799Y-97658999D01*
X179333052Y-97905561D01*
X179275200Y-98196400D01*
X179275200Y-115296738D01*
X178975530Y-115496971D01*
X178759536Y-115820228D01*
X178702021Y-115697510D01*
X178270147Y-115303312D01*
X177854226Y-115131042D01*
X177622200Y-115252183D01*
X177622200Y-116459000D01*
X177642200Y-116459000D01*
X177642200Y-116713000D01*
X177622200Y-116713000D01*
X177622200Y-116733000D01*
X177368200Y-116733000D01*
X177368200Y-116713000D01*
X176160731Y-116713000D01*
X176040232Y-116945027D01*
X176288379Y-117474490D01*
X176474633Y-117644495D01*
X176396283Y-117659238D01*
X176300971Y-117720569D01*
X175461200Y-116880798D01*
X175461200Y-116226973D01*
X176040232Y-116226973D01*
X176160731Y-116459000D01*
X177368200Y-116459000D01*
X177368200Y-115252183D01*
X177136174Y-115131042D01*
X176720253Y-115303312D01*
X176288379Y-115697510D01*
X176040232Y-116226973D01*
X175461200Y-116226973D01*
X175461200Y-113436400D01*
X175403348Y-113145561D01*
X175238601Y-112898999D01*
X171356704Y-109017102D01*
X171411800Y-108740113D01*
X171411800Y-108683887D01*
X171302567Y-108134736D01*
X170991498Y-107669189D01*
X170525951Y-107358120D01*
X169976800Y-107248887D01*
X169427649Y-107358120D01*
X168962102Y-107669189D01*
X168651033Y-108134736D01*
X168596439Y-108409200D01*
X166405840Y-108409200D01*
X166361562Y-108173883D01*
X166222490Y-107957759D01*
X166010290Y-107812769D01*
X165758400Y-107761760D01*
X164238400Y-107761760D01*
X164003083Y-107806038D01*
X163786959Y-107945110D01*
X163641969Y-108157310D01*
X163590960Y-108409200D01*
X162058002Y-108409200D01*
X165218746Y-105248456D01*
X165270509Y-105269950D01*
X165841387Y-105270448D01*
X166369000Y-105052443D01*
X166773024Y-104649123D01*
X166991950Y-104121891D01*
X166992448Y-103551013D01*
X166774443Y-103023400D01*
X166371123Y-102619376D01*
X165843891Y-102400450D01*
X165273013Y-102399952D01*
X164745400Y-102617957D01*
X164341376Y-103021277D01*
X164122450Y-103548509D01*
X164121952Y-104119387D01*
X164144249Y-104173349D01*
X160441622Y-107875976D01*
X160197100Y-107774442D01*
X159642135Y-107773958D01*
X159129228Y-107985887D01*
X158736466Y-108377964D01*
X158723496Y-108409200D01*
X155559602Y-108409200D01*
X155477401Y-108326999D01*
X155372016Y-108256583D01*
X155508881Y-108051751D01*
X155618114Y-107502600D01*
X155508881Y-106953449D01*
X155197812Y-106487902D01*
X154815726Y-106232600D01*
X155197812Y-105977298D01*
X155508881Y-105511751D01*
X155618114Y-104962600D01*
X155508881Y-104413449D01*
X155197812Y-103947902D01*
X154815726Y-103692600D01*
X155197812Y-103437298D01*
X155508881Y-102971751D01*
X155618114Y-102422600D01*
X155508881Y-101873449D01*
X155197812Y-101407902D01*
X154815726Y-101152600D01*
X155197812Y-100897298D01*
X155508881Y-100431751D01*
X155618114Y-99882600D01*
X155508881Y-99333449D01*
X155197812Y-98867902D01*
X154815726Y-98612600D01*
X155197812Y-98357298D01*
X155508881Y-97891751D01*
X155588192Y-97493027D01*
X157048200Y-98953035D01*
X157048200Y-102717729D01*
X156894389Y-102820502D01*
X156583320Y-103286049D01*
X156474087Y-103835200D01*
X156583320Y-104384351D01*
X156894389Y-104849898D01*
X157359936Y-105160967D01*
X157909087Y-105270200D01*
X157965313Y-105270200D01*
X158514464Y-105160967D01*
X158980011Y-104849898D01*
X159291080Y-104384351D01*
X159400313Y-103835200D01*
X159291080Y-103286049D01*
X158980011Y-102820502D01*
X158826200Y-102717729D01*
X158826200Y-101376187D01*
X168541552Y-101376187D01*
X168759557Y-101903800D01*
X169162877Y-102307824D01*
X169690109Y-102526750D01*
X170260987Y-102527248D01*
X170788600Y-102309243D01*
X171192624Y-101905923D01*
X171411550Y-101378691D01*
X171412048Y-100807813D01*
X171194043Y-100280200D01*
X170790723Y-99876176D01*
X170263491Y-99657250D01*
X169692613Y-99656752D01*
X169165000Y-99874757D01*
X168760976Y-100278077D01*
X168542050Y-100805309D01*
X168541552Y-101376187D01*
X158826200Y-101376187D01*
X158826200Y-98584799D01*
X158758529Y-98244593D01*
X158565818Y-97956181D01*
X156500987Y-95891350D01*
X161939400Y-95891350D01*
X161939400Y-96631910D01*
X162036073Y-96865299D01*
X162214702Y-97043927D01*
X162448091Y-97140600D01*
X163188650Y-97140600D01*
X163347400Y-96981850D01*
X163347400Y-95732600D01*
X162098150Y-95732600D01*
X161939400Y-95891350D01*
X156500987Y-95891350D01*
X155583957Y-94974320D01*
X155618114Y-94802600D01*
X155583957Y-94630880D01*
X155635547Y-94579290D01*
X161939400Y-94579290D01*
X161939400Y-95319850D01*
X162098150Y-95478600D01*
X163347400Y-95478600D01*
X163347400Y-94229350D01*
X163601400Y-94229350D01*
X163601400Y-95478600D01*
X163621400Y-95478600D01*
X163621400Y-95732600D01*
X163601400Y-95732600D01*
X163601400Y-96981850D01*
X163760150Y-97140600D01*
X164500709Y-97140600D01*
X164734098Y-97043927D01*
X164912727Y-96865299D01*
X164968519Y-96730606D01*
X165143757Y-96906151D01*
X165707730Y-97140333D01*
X166318391Y-97140865D01*
X166882771Y-96907668D01*
X167314951Y-96476243D01*
X167466364Y-96111600D01*
X168671533Y-96111600D01*
X168860502Y-96394411D01*
X169326049Y-96705480D01*
X169875200Y-96814713D01*
X170424351Y-96705480D01*
X170889898Y-96394411D01*
X171200967Y-95928864D01*
X171310200Y-95379713D01*
X171310200Y-95323487D01*
X171200967Y-94774336D01*
X170889898Y-94308789D01*
X170424351Y-93997720D01*
X169875200Y-93888487D01*
X169326049Y-93997720D01*
X168860502Y-94308789D01*
X168671533Y-94591600D01*
X167171093Y-94591600D01*
X166885043Y-94305049D01*
X166321070Y-94070867D01*
X165710409Y-94070335D01*
X165146029Y-94303532D01*
X164968559Y-94480692D01*
X164912727Y-94345901D01*
X164734098Y-94167273D01*
X164500709Y-94070600D01*
X163760150Y-94070600D01*
X163601400Y-94229350D01*
X163347400Y-94229350D01*
X163188650Y-94070600D01*
X162448091Y-94070600D01*
X162214702Y-94167273D01*
X162036073Y-94345901D01*
X161939400Y-94579290D01*
X155635547Y-94579290D01*
X156587892Y-93626945D01*
X157210661Y-93626945D01*
X157284795Y-93873064D01*
X157822023Y-94066165D01*
X158392254Y-94038978D01*
X158792805Y-93873064D01*
X158866939Y-93626945D01*
X158038800Y-92798805D01*
X157210661Y-93626945D01*
X156587892Y-93626945D01*
X156686218Y-93528619D01*
X156789204Y-93374490D01*
X157031055Y-93447339D01*
X157859195Y-92619200D01*
X158218405Y-92619200D01*
X159046545Y-93447339D01*
X159292664Y-93373205D01*
X159293672Y-93370400D01*
X176997287Y-93370400D01*
X177106520Y-93919551D01*
X177417589Y-94385098D01*
X177883136Y-94696167D01*
X178432287Y-94805400D01*
X178488513Y-94805400D01*
X179037664Y-94696167D01*
X179503211Y-94385098D01*
X179814280Y-93919551D01*
X179923513Y-93370400D01*
X179814280Y-92821249D01*
X179503211Y-92355702D01*
X179037664Y-92044633D01*
X178488513Y-91935400D01*
X178432287Y-91935400D01*
X177883136Y-92044633D01*
X177417589Y-92355702D01*
X177106520Y-92821249D01*
X176997287Y-93370400D01*
X159293672Y-93370400D01*
X159485765Y-92835977D01*
X159458578Y-92265746D01*
X159292664Y-91865195D01*
X159046545Y-91791061D01*
X158218405Y-92619200D01*
X157859195Y-92619200D01*
X157845052Y-92605058D01*
X158024658Y-92425452D01*
X158038800Y-92439595D01*
X158866939Y-91611455D01*
X158792805Y-91365336D01*
X158786317Y-91363004D01*
X158850600Y-91336443D01*
X159254624Y-90933123D01*
X159473550Y-90405891D01*
X159474048Y-89835013D01*
X159256043Y-89307400D01*
X158852723Y-88903376D01*
X158325491Y-88684450D01*
X157754613Y-88683952D01*
X157227000Y-88901957D01*
X156822976Y-89305277D01*
X156604050Y-89832509D01*
X156603733Y-90195431D01*
X155428982Y-91370182D01*
X155354250Y-91482027D01*
X155197812Y-91247902D01*
X154793298Y-90977614D01*
X155010135Y-90874989D01*
X155386042Y-90460023D01*
X155546905Y-90071639D01*
X155424916Y-89849600D01*
X154282001Y-89849600D01*
X154282001Y-89869600D01*
X154028001Y-89869600D01*
X154028001Y-89849600D01*
X152885086Y-89849600D01*
X152763097Y-90071639D01*
X152923960Y-90460023D01*
X153299867Y-90874989D01*
X153516704Y-90977614D01*
X153112190Y-91247902D01*
X152801121Y-91713449D01*
X152691888Y-92262600D01*
X152801121Y-92811751D01*
X153112190Y-93277298D01*
X153494276Y-93532600D01*
X153112190Y-93787902D01*
X152801121Y-94253449D01*
X152691888Y-94802600D01*
X152801121Y-95351751D01*
X153112190Y-95817298D01*
X153494276Y-96072600D01*
X153112190Y-96327902D01*
X152801121Y-96793449D01*
X152691888Y-97342600D01*
X152801121Y-97891751D01*
X153112190Y-98357298D01*
X153494276Y-98612600D01*
X153112190Y-98867902D01*
X152801121Y-99333449D01*
X152691888Y-99882600D01*
X152801121Y-100431751D01*
X153112190Y-100897298D01*
X153494276Y-101152600D01*
X153112190Y-101407902D01*
X152801121Y-101873449D01*
X152691888Y-102422600D01*
X152801121Y-102971751D01*
X153112190Y-103437298D01*
X153494276Y-103692600D01*
X153112190Y-103947902D01*
X152801121Y-104413449D01*
X152691888Y-104962600D01*
X152801121Y-105511751D01*
X153112190Y-105977298D01*
X153494276Y-106232600D01*
X153112190Y-106487902D01*
X152801121Y-106953449D01*
X152691888Y-107502600D01*
X152734717Y-107717915D01*
X150823200Y-105806398D01*
X150823200Y-93421200D01*
X150780004Y-93204039D01*
X150765348Y-93130360D01*
X150600601Y-92883799D01*
X146902001Y-89185199D01*
X146655439Y-89020452D01*
X146364600Y-88962600D01*
X140127996Y-88962600D01*
X139957812Y-88707902D01*
X139813536Y-88611499D01*
X139950318Y-88585762D01*
X140166442Y-88446690D01*
X140311432Y-88234490D01*
X140362441Y-87982600D01*
X140362441Y-87182600D01*
X152691888Y-87182600D01*
X152801121Y-87731751D01*
X153112190Y-88197298D01*
X153516704Y-88467586D01*
X153299867Y-88570211D01*
X152923960Y-88985177D01*
X152763097Y-89373561D01*
X152885086Y-89595600D01*
X154028001Y-89595600D01*
X154028001Y-89575600D01*
X154282001Y-89575600D01*
X154282001Y-89595600D01*
X155424916Y-89595600D01*
X155546905Y-89373561D01*
X155386042Y-88985177D01*
X155010135Y-88570211D01*
X154793298Y-88467586D01*
X155197812Y-88197298D01*
X155508881Y-87731751D01*
X155618114Y-87182600D01*
X155508881Y-86633449D01*
X155197812Y-86167902D01*
X154732265Y-85856833D01*
X154183114Y-85747600D01*
X154126888Y-85747600D01*
X153577737Y-85856833D01*
X153112190Y-86167902D01*
X152801121Y-86633449D01*
X152691888Y-87182600D01*
X140362441Y-87182600D01*
X140362441Y-86382600D01*
X140318163Y-86147283D01*
X140179091Y-85931159D01*
X139966891Y-85786169D01*
X139715001Y-85735160D01*
X139675001Y-85735160D01*
X139675001Y-85598000D01*
X157743728Y-85598000D01*
X157860573Y-86185419D01*
X158193319Y-86683409D01*
X158691309Y-87016155D01*
X159278728Y-87133000D01*
X159338872Y-87133000D01*
X159926291Y-87016155D01*
X160424281Y-86683409D01*
X160578800Y-86452155D01*
X160733319Y-86683409D01*
X161231309Y-87016155D01*
X161818728Y-87133000D01*
X161878872Y-87133000D01*
X162466291Y-87016155D01*
X162896922Y-86728417D01*
X162950473Y-86857699D01*
X163129102Y-87036327D01*
X163362491Y-87133000D01*
X164103050Y-87133000D01*
X164261800Y-86974250D01*
X164261800Y-85725000D01*
X164515800Y-85725000D01*
X164515800Y-86974250D01*
X164674550Y-87133000D01*
X165415109Y-87133000D01*
X165648498Y-87036327D01*
X165827127Y-86857699D01*
X165923800Y-86624310D01*
X165923800Y-85883750D01*
X165765050Y-85725000D01*
X164515800Y-85725000D01*
X164261800Y-85725000D01*
X164241800Y-85725000D01*
X164241800Y-85471000D01*
X164261800Y-85471000D01*
X164261800Y-84221750D01*
X164515800Y-84221750D01*
X164515800Y-85471000D01*
X165765050Y-85471000D01*
X165923800Y-85312250D01*
X165923800Y-84571690D01*
X165827127Y-84338301D01*
X165648498Y-84159673D01*
X165415109Y-84063000D01*
X164674550Y-84063000D01*
X164515800Y-84221750D01*
X164261800Y-84221750D01*
X164103050Y-84063000D01*
X163362491Y-84063000D01*
X163129102Y-84159673D01*
X162950473Y-84338301D01*
X162896922Y-84467583D01*
X162466291Y-84179845D01*
X161878872Y-84063000D01*
X161818728Y-84063000D01*
X161231309Y-84179845D01*
X160733319Y-84512591D01*
X160578800Y-84743845D01*
X160424281Y-84512591D01*
X159926291Y-84179845D01*
X159338872Y-84063000D01*
X159278728Y-84063000D01*
X158691309Y-84179845D01*
X158193319Y-84512591D01*
X157860573Y-85010581D01*
X157743728Y-85598000D01*
X139675001Y-85598000D01*
X139675001Y-79966582D01*
X139883315Y-79925146D01*
X140308310Y-79641174D01*
X140386928Y-79523514D01*
X140718367Y-79818678D01*
X141052600Y-79957110D01*
X141255000Y-79833424D01*
X141255000Y-78816200D01*
X141509000Y-78816200D01*
X141509000Y-79833424D01*
X141711400Y-79957110D01*
X142045633Y-79818678D01*
X142427349Y-79478740D01*
X142649920Y-79018602D01*
X142527090Y-78816200D01*
X141509000Y-78816200D01*
X141255000Y-78816200D01*
X141235000Y-78816200D01*
X141235000Y-78562200D01*
X141255000Y-78562200D01*
X141255000Y-77544976D01*
X141509000Y-77544976D01*
X141509000Y-78562200D01*
X142527090Y-78562200D01*
X142649920Y-78359798D01*
X142507325Y-78065000D01*
X143863960Y-78065000D01*
X143863960Y-79415000D01*
X143908238Y-79650317D01*
X144047310Y-79866441D01*
X144259510Y-80011431D01*
X144511400Y-80062440D01*
X145861400Y-80062440D01*
X146096717Y-80018162D01*
X146312841Y-79879090D01*
X146384083Y-79774823D01*
X146685085Y-79975946D01*
X147186400Y-80075664D01*
X147687715Y-79975946D01*
X148112710Y-79691974D01*
X148186400Y-79581689D01*
X148260090Y-79691974D01*
X148685085Y-79975946D01*
X149186400Y-80075664D01*
X149687715Y-79975946D01*
X150112710Y-79691974D01*
X150191328Y-79574314D01*
X150522767Y-79869478D01*
X150857000Y-80007910D01*
X151059400Y-79884224D01*
X151059400Y-78867000D01*
X151313400Y-78867000D01*
X151313400Y-79884224D01*
X151515800Y-80007910D01*
X151850033Y-79869478D01*
X152231749Y-79529540D01*
X152454320Y-79069402D01*
X152331490Y-78867000D01*
X151313400Y-78867000D01*
X151059400Y-78867000D01*
X151039400Y-78867000D01*
X151039400Y-78613000D01*
X151059400Y-78613000D01*
X151059400Y-77595776D01*
X151313400Y-77595776D01*
X151313400Y-78613000D01*
X152331490Y-78613000D01*
X152454320Y-78410598D01*
X152231749Y-77950460D01*
X151850033Y-77610522D01*
X151515800Y-77472090D01*
X151313400Y-77595776D01*
X151059400Y-77595776D01*
X150857000Y-77472090D01*
X150522767Y-77610522D01*
X150191328Y-77905686D01*
X150112710Y-77788026D01*
X149687715Y-77504054D01*
X149186400Y-77404336D01*
X148685085Y-77504054D01*
X148260090Y-77788026D01*
X148186400Y-77898311D01*
X148112710Y-77788026D01*
X147687715Y-77504054D01*
X147186400Y-77404336D01*
X146848484Y-77471552D01*
X147231036Y-77089000D01*
X163106164Y-77089000D01*
X163550960Y-77533796D01*
X163550960Y-78524000D01*
X163595238Y-78759317D01*
X163734310Y-78975441D01*
X163946510Y-79120431D01*
X164198400Y-79171440D01*
X165798400Y-79171440D01*
X166033717Y-79127162D01*
X166249841Y-78988090D01*
X166394831Y-78775890D01*
X166403770Y-78731745D01*
X169170261Y-78731745D01*
X169244395Y-78977864D01*
X169781623Y-79170965D01*
X170351854Y-79143778D01*
X170752405Y-78977864D01*
X170826539Y-78731745D01*
X169998400Y-77903605D01*
X169170261Y-78731745D01*
X166403770Y-78731745D01*
X166445840Y-78524000D01*
X166445840Y-77507223D01*
X168551435Y-77507223D01*
X168578622Y-78077454D01*
X168744536Y-78478005D01*
X168990655Y-78552139D01*
X169818795Y-77724000D01*
X170178005Y-77724000D01*
X171006145Y-78552139D01*
X171252264Y-78478005D01*
X171445365Y-77940777D01*
X171418178Y-77370546D01*
X171252264Y-76969995D01*
X171006145Y-76895861D01*
X170178005Y-77724000D01*
X169818795Y-77724000D01*
X168990655Y-76895861D01*
X168744536Y-76969995D01*
X168551435Y-77507223D01*
X166445840Y-77507223D01*
X166445840Y-76924000D01*
X166406751Y-76716255D01*
X169170261Y-76716255D01*
X169998400Y-77544395D01*
X170826539Y-76716255D01*
X170752405Y-76470136D01*
X170215177Y-76277035D01*
X169644946Y-76304222D01*
X169244395Y-76470136D01*
X169170261Y-76716255D01*
X166406751Y-76716255D01*
X166401562Y-76688683D01*
X166262490Y-76472559D01*
X166050290Y-76327569D01*
X165798400Y-76276560D01*
X164808196Y-76276560D01*
X164103018Y-75571382D01*
X163814606Y-75378671D01*
X163474400Y-75311000D01*
X146862800Y-75311000D01*
X146522595Y-75378670D01*
X146234182Y-75571382D01*
X144557782Y-77247782D01*
X144434696Y-77431993D01*
X144276083Y-77461838D01*
X144059959Y-77600910D01*
X143914969Y-77813110D01*
X143863960Y-78065000D01*
X142507325Y-78065000D01*
X142427349Y-77899660D01*
X142045633Y-77559722D01*
X141711400Y-77421290D01*
X141509000Y-77544976D01*
X141255000Y-77544976D01*
X141052600Y-77421290D01*
X140718367Y-77559722D01*
X140386928Y-77854886D01*
X140308310Y-77737226D01*
X139883315Y-77453254D01*
X139382000Y-77353536D01*
X138880685Y-77453254D01*
X138455690Y-77737226D01*
X138382000Y-77847511D01*
X138308310Y-77737226D01*
X137883315Y-77453254D01*
X137382000Y-77353536D01*
X136880685Y-77453254D01*
X136579936Y-77654208D01*
X136521090Y-77562759D01*
X136308890Y-77417769D01*
X136057000Y-77366760D01*
X134707000Y-77366760D01*
X134471683Y-77411038D01*
X134255559Y-77550110D01*
X134110569Y-77762310D01*
X134059560Y-78014200D01*
X134059560Y-79364200D01*
X134103838Y-79599517D01*
X134242910Y-79815641D01*
X134455110Y-79960631D01*
X134707000Y-80011640D01*
X136057000Y-80011640D01*
X136292317Y-79967362D01*
X136349200Y-79930759D01*
X136349200Y-88880046D01*
X136275001Y-88768999D01*
X135309801Y-87803799D01*
X135063239Y-87639052D01*
X134772400Y-87581200D01*
X134267354Y-87581200D01*
X134073547Y-87291146D01*
X133591778Y-86969239D01*
X133023493Y-86856200D01*
X132965307Y-86856200D01*
X132397022Y-86969239D01*
X131915253Y-87291146D01*
X131593346Y-87772915D01*
X131480307Y-88341200D01*
X131593346Y-88909485D01*
X131915253Y-89391254D01*
X132255953Y-89618902D01*
X132113042Y-89686017D01*
X131722755Y-90114276D01*
X131552924Y-90524310D01*
X131674245Y-90754200D01*
X132867400Y-90754200D01*
X132867400Y-90734200D01*
X133121400Y-90734200D01*
X133121400Y-90754200D01*
X134314555Y-90754200D01*
X134435876Y-90524310D01*
X134266045Y-90114276D01*
X133875758Y-89686017D01*
X133732847Y-89618902D01*
X134073547Y-89391254D01*
X134267354Y-89101200D01*
X134457598Y-89101200D01*
X134977600Y-89621202D01*
X134977600Y-91033600D01*
X135035452Y-91324439D01*
X135200199Y-91571001D01*
X136429199Y-92800001D01*
X136675760Y-92964748D01*
X136715507Y-92972654D01*
X136966600Y-93022600D01*
X137702006Y-93022600D01*
X137872190Y-93277298D01*
X138276704Y-93547586D01*
X138059867Y-93650211D01*
X137683960Y-94065177D01*
X137523097Y-94453561D01*
X137645086Y-94675600D01*
X138788001Y-94675600D01*
X138788001Y-94655600D01*
X139042001Y-94655600D01*
X139042001Y-94675600D01*
X140184916Y-94675600D01*
X140306905Y-94453561D01*
X140146042Y-94065177D01*
X139770135Y-93650211D01*
X139553298Y-93547586D01*
X139957812Y-93277298D01*
X140268881Y-92811751D01*
X140378114Y-92262600D01*
X140268881Y-91713449D01*
X139957812Y-91247902D01*
X139575726Y-90992600D01*
X139957812Y-90737298D01*
X140127996Y-90482600D01*
X146049798Y-90482600D01*
X149303200Y-93736002D01*
X149303200Y-106121200D01*
X149361052Y-106412039D01*
X149525799Y-106658601D01*
X152268999Y-109401801D01*
X152515561Y-109566548D01*
X152776266Y-109618406D01*
X152691888Y-110042600D01*
X152801121Y-110591751D01*
X153112190Y-111057298D01*
X153494276Y-111312600D01*
X153112190Y-111567902D01*
X152801121Y-112033449D01*
X152691888Y-112582600D01*
X152801121Y-113131751D01*
X153112190Y-113597298D01*
X153494276Y-113852600D01*
X153112190Y-114107902D01*
X152801121Y-114573449D01*
X152691888Y-115122600D01*
X152801121Y-115671751D01*
X153112190Y-116137298D01*
X153494276Y-116392600D01*
X153112190Y-116647902D01*
X152801121Y-117113449D01*
X152691888Y-117662600D01*
X152801121Y-118211751D01*
X153112190Y-118677298D01*
X153494276Y-118932600D01*
X153112190Y-119187902D01*
X152801121Y-119653449D01*
X152691888Y-120202600D01*
X152801121Y-120751751D01*
X152836300Y-120804400D01*
X140233702Y-120804400D01*
X140268881Y-120751751D01*
X140378114Y-120202600D01*
X140268881Y-119653449D01*
X139957812Y-119187902D01*
X139575726Y-118932600D01*
X139957812Y-118677298D01*
X140268881Y-118211751D01*
X140378114Y-117662600D01*
X140268881Y-117113449D01*
X139957812Y-116647902D01*
X139575726Y-116392600D01*
X139957812Y-116137298D01*
X140268881Y-115671751D01*
X140378114Y-115122600D01*
X140268881Y-114573449D01*
X139957812Y-114107902D01*
X139575726Y-113852600D01*
X139957812Y-113597298D01*
X140268881Y-113131751D01*
X140378114Y-112582600D01*
X140268881Y-112033449D01*
X139957812Y-111567902D01*
X139575726Y-111312600D01*
X139957812Y-111057298D01*
X140268881Y-110591751D01*
X140378114Y-110042600D01*
X140268881Y-109493449D01*
X139957812Y-109027902D01*
X139575726Y-108772600D01*
X139957812Y-108517298D01*
X140268881Y-108051751D01*
X140378114Y-107502600D01*
X140268881Y-106953449D01*
X139957812Y-106487902D01*
X139575726Y-106232600D01*
X139957812Y-105977298D01*
X140268881Y-105511751D01*
X140378114Y-104962600D01*
X140268881Y-104413449D01*
X139957812Y-103947902D01*
X139575726Y-103692600D01*
X139957812Y-103437298D01*
X140268881Y-102971751D01*
X140378114Y-102422600D01*
X140268881Y-101873449D01*
X139957812Y-101407902D01*
X139575726Y-101152600D01*
X139957812Y-100897298D01*
X140268881Y-100431751D01*
X140378114Y-99882600D01*
X140268881Y-99333449D01*
X139957812Y-98867902D01*
X139575726Y-98612600D01*
X139957812Y-98357298D01*
X140268881Y-97891751D01*
X140378114Y-97342600D01*
X140268881Y-96793449D01*
X139957812Y-96327902D01*
X139553298Y-96057614D01*
X139770135Y-95954989D01*
X140146042Y-95540023D01*
X140306905Y-95151639D01*
X140184916Y-94929600D01*
X139042001Y-94929600D01*
X139042001Y-94949600D01*
X138788001Y-94949600D01*
X138788001Y-94929600D01*
X137645086Y-94929600D01*
X137523097Y-95151639D01*
X137683960Y-95540023D01*
X138059867Y-95954989D01*
X138276704Y-96057614D01*
X137872190Y-96327902D01*
X137561121Y-96793449D01*
X137451888Y-97342600D01*
X137561121Y-97891751D01*
X137872190Y-98357298D01*
X138254276Y-98612600D01*
X137872190Y-98867902D01*
X137561121Y-99333449D01*
X137451888Y-99882600D01*
X137561121Y-100431751D01*
X137872190Y-100897298D01*
X138254276Y-101152600D01*
X137872190Y-101407902D01*
X137561121Y-101873449D01*
X137451888Y-102422600D01*
X137552341Y-102927612D01*
X137494201Y-102840599D01*
X135322056Y-100668454D01*
X135343550Y-100616691D01*
X135344048Y-100045813D01*
X135126043Y-99518200D01*
X134722723Y-99114176D01*
X134195491Y-98895250D01*
X133624613Y-98894752D01*
X133097000Y-99112757D01*
X132692976Y-99516077D01*
X132474050Y-100043309D01*
X132473552Y-100614187D01*
X132691557Y-101141800D01*
X133094877Y-101545824D01*
X133622109Y-101764750D01*
X134192987Y-101765248D01*
X134246949Y-101742951D01*
X136196800Y-103692802D01*
X136196800Y-107842398D01*
X135474456Y-107120054D01*
X135495950Y-107068291D01*
X135496448Y-106497413D01*
X135278443Y-105969800D01*
X134875123Y-105565776D01*
X134347891Y-105346850D01*
X133777013Y-105346352D01*
X133249400Y-105564357D01*
X132845376Y-105967677D01*
X132626450Y-106494909D01*
X132625952Y-107065787D01*
X132843957Y-107593400D01*
X133247277Y-107997424D01*
X133774509Y-108216350D01*
X134345387Y-108216848D01*
X134399349Y-108194551D01*
X135333200Y-109128402D01*
X135333200Y-110896400D01*
X135391052Y-111187239D01*
X135555799Y-111433801D01*
X137241999Y-113120001D01*
X137488561Y-113284748D01*
X137690143Y-113324845D01*
X137872190Y-113597298D01*
X138254276Y-113852600D01*
X137974406Y-114039604D01*
X136579801Y-112644999D01*
X136333239Y-112480252D01*
X136042400Y-112422400D01*
X135228730Y-112422400D01*
X134875123Y-112068176D01*
X134347891Y-111849250D01*
X133777013Y-111848752D01*
X133249400Y-112066757D01*
X132845376Y-112470077D01*
X132626450Y-112997309D01*
X132625952Y-113568187D01*
X132843957Y-114095800D01*
X133247277Y-114499824D01*
X133774509Y-114718750D01*
X134345387Y-114719248D01*
X134873000Y-114501243D01*
X135277024Y-114097923D01*
X135341603Y-113942400D01*
X135727598Y-113942400D01*
X137445199Y-115660001D01*
X137640436Y-115790454D01*
X137872190Y-116137298D01*
X138254276Y-116392600D01*
X137872190Y-116647902D01*
X137702006Y-116902600D01*
X123078600Y-116902600D01*
X122787761Y-116960452D01*
X122541199Y-117125199D01*
X120264999Y-119401399D01*
X120100252Y-119647961D01*
X120042400Y-119938800D01*
X120042400Y-120218560D01*
X120002400Y-120218560D01*
X119767083Y-120262838D01*
X119550959Y-120401910D01*
X119405969Y-120614110D01*
X119354960Y-120866000D01*
X119354960Y-122466000D01*
X119399238Y-122701317D01*
X119538310Y-122917441D01*
X119750510Y-123062431D01*
X119905489Y-123093815D01*
X119759589Y-123191302D01*
X119448520Y-123656849D01*
X119339287Y-124206000D01*
X115873600Y-124206000D01*
X115873600Y-113537191D01*
X118657535Y-113537191D01*
X118890732Y-114101571D01*
X119322157Y-114533751D01*
X119886130Y-114767933D01*
X120496791Y-114768465D01*
X121061171Y-114535268D01*
X121493351Y-114103843D01*
X121539294Y-113993200D01*
X125194261Y-113993200D01*
X125398389Y-114298698D01*
X125863936Y-114609767D01*
X126413087Y-114719000D01*
X126469313Y-114719000D01*
X127018464Y-114609767D01*
X127484011Y-114298698D01*
X127795080Y-113833151D01*
X127904313Y-113284000D01*
X127795080Y-112734849D01*
X127484011Y-112269302D01*
X127018464Y-111958233D01*
X126469313Y-111849000D01*
X126413087Y-111849000D01*
X125863936Y-111958233D01*
X125398389Y-112269302D01*
X125262149Y-112473200D01*
X121539646Y-112473200D01*
X121494868Y-112364829D01*
X121317708Y-112187359D01*
X121452499Y-112131527D01*
X121631127Y-111952898D01*
X121727800Y-111719509D01*
X121727800Y-110978950D01*
X121569050Y-110820200D01*
X120319800Y-110820200D01*
X120319800Y-110840200D01*
X120065800Y-110840200D01*
X120065800Y-110820200D01*
X118816550Y-110820200D01*
X118657800Y-110978950D01*
X118657800Y-111719509D01*
X118754473Y-111952898D01*
X118933101Y-112131527D01*
X119067794Y-112187319D01*
X118892249Y-112362557D01*
X118658067Y-112926530D01*
X118657535Y-113537191D01*
X115873600Y-113537191D01*
X115873600Y-109666891D01*
X118657800Y-109666891D01*
X118657800Y-110407450D01*
X118816550Y-110566200D01*
X120065800Y-110566200D01*
X120065800Y-109316950D01*
X120319800Y-109316950D01*
X120319800Y-110566200D01*
X121569050Y-110566200D01*
X121727800Y-110407450D01*
X121727800Y-109666891D01*
X121631127Y-109433502D01*
X121452499Y-109254873D01*
X121219110Y-109158200D01*
X120478550Y-109158200D01*
X120319800Y-109316950D01*
X120065800Y-109316950D01*
X119907050Y-109158200D01*
X119166490Y-109158200D01*
X118933101Y-109254873D01*
X118754473Y-109433502D01*
X118657800Y-109666891D01*
X115873600Y-109666891D01*
X115873600Y-106983991D01*
X118657535Y-106983991D01*
X118890732Y-107548371D01*
X119322157Y-107980551D01*
X119886130Y-108214733D01*
X120496791Y-108215265D01*
X121061171Y-107982068D01*
X121493351Y-107550643D01*
X121497106Y-107541600D01*
X125228205Y-107541600D01*
X125398389Y-107796298D01*
X125863936Y-108107367D01*
X126413087Y-108216600D01*
X126469313Y-108216600D01*
X127018464Y-108107367D01*
X127484011Y-107796298D01*
X127795080Y-107330751D01*
X127904313Y-106781600D01*
X127795080Y-106232449D01*
X127484011Y-105766902D01*
X127018464Y-105455833D01*
X126469313Y-105346600D01*
X126413087Y-105346600D01*
X125863936Y-105455833D01*
X125398389Y-105766902D01*
X125228205Y-106021600D01*
X121581626Y-106021600D01*
X121494868Y-105811629D01*
X121317708Y-105634159D01*
X121452499Y-105578327D01*
X121631127Y-105399698D01*
X121727800Y-105166309D01*
X121727800Y-104425750D01*
X121569050Y-104267000D01*
X120319800Y-104267000D01*
X120319800Y-104287000D01*
X120065800Y-104287000D01*
X120065800Y-104267000D01*
X118816550Y-104267000D01*
X118657800Y-104425750D01*
X118657800Y-105166309D01*
X118754473Y-105399698D01*
X118933101Y-105578327D01*
X119067794Y-105634119D01*
X118892249Y-105809357D01*
X118658067Y-106373330D01*
X118657535Y-106983991D01*
X115873600Y-106983991D01*
X115873600Y-103113691D01*
X118657800Y-103113691D01*
X118657800Y-103854250D01*
X118816550Y-104013000D01*
X120065800Y-104013000D01*
X120065800Y-102763750D01*
X120319800Y-102763750D01*
X120319800Y-104013000D01*
X121569050Y-104013000D01*
X121727800Y-103854250D01*
X121727800Y-103113691D01*
X121631127Y-102880302D01*
X121452499Y-102701673D01*
X121219110Y-102605000D01*
X120478550Y-102605000D01*
X120319800Y-102763750D01*
X120065800Y-102763750D01*
X119907050Y-102605000D01*
X119166490Y-102605000D01*
X118933101Y-102701673D01*
X118754473Y-102880302D01*
X118657800Y-103113691D01*
X115873600Y-103113691D01*
X115873600Y-100379991D01*
X118606735Y-100379991D01*
X118839932Y-100944371D01*
X119271357Y-101376551D01*
X119835330Y-101610733D01*
X120445991Y-101611265D01*
X121010371Y-101378068D01*
X121442551Y-100946643D01*
X121488494Y-100836000D01*
X124926337Y-100836000D01*
X124934920Y-100879151D01*
X125245989Y-101344698D01*
X125711536Y-101655767D01*
X126260687Y-101765000D01*
X126316913Y-101765000D01*
X126866064Y-101655767D01*
X127331611Y-101344698D01*
X127642680Y-100879151D01*
X127751913Y-100330000D01*
X127642680Y-99780849D01*
X127331611Y-99315302D01*
X126866064Y-99004233D01*
X126316913Y-98895000D01*
X126260687Y-98895000D01*
X125711536Y-99004233D01*
X125245989Y-99315302D01*
X125245523Y-99316000D01*
X121488846Y-99316000D01*
X121444068Y-99207629D01*
X121266908Y-99030159D01*
X121401699Y-98974327D01*
X121580327Y-98795698D01*
X121677000Y-98562309D01*
X121677000Y-97821750D01*
X121518250Y-97663000D01*
X120269000Y-97663000D01*
X120269000Y-97683000D01*
X120015000Y-97683000D01*
X120015000Y-97663000D01*
X118765750Y-97663000D01*
X118607000Y-97821750D01*
X118607000Y-98562309D01*
X118703673Y-98795698D01*
X118882301Y-98974327D01*
X119016994Y-99030119D01*
X118841449Y-99205357D01*
X118607267Y-99769330D01*
X118606735Y-100379991D01*
X115873600Y-100379991D01*
X115873600Y-96509691D01*
X118607000Y-96509691D01*
X118607000Y-97250250D01*
X118765750Y-97409000D01*
X120015000Y-97409000D01*
X120015000Y-96159750D01*
X120269000Y-96159750D01*
X120269000Y-97409000D01*
X121518250Y-97409000D01*
X121677000Y-97250250D01*
X121677000Y-96509691D01*
X121580327Y-96276302D01*
X121401699Y-96097673D01*
X121168310Y-96001000D01*
X120427750Y-96001000D01*
X120269000Y-96159750D01*
X120015000Y-96159750D01*
X119856250Y-96001000D01*
X119115690Y-96001000D01*
X118882301Y-96097673D01*
X118703673Y-96276302D01*
X118607000Y-96509691D01*
X115873600Y-96509691D01*
X115873600Y-92571200D01*
X131496960Y-92571200D01*
X131496960Y-94271200D01*
X131541238Y-94506517D01*
X131680310Y-94722641D01*
X131892510Y-94867631D01*
X132144400Y-94918640D01*
X133844400Y-94918640D01*
X134079717Y-94874362D01*
X134295841Y-94735290D01*
X134440831Y-94523090D01*
X134491840Y-94271200D01*
X134491840Y-92571200D01*
X134447562Y-92335883D01*
X134308490Y-92119759D01*
X134096290Y-91974769D01*
X133988293Y-91952899D01*
X134266045Y-91648124D01*
X134435876Y-91238090D01*
X134314555Y-91008200D01*
X133121400Y-91008200D01*
X133121400Y-91028200D01*
X132867400Y-91028200D01*
X132867400Y-91008200D01*
X131674245Y-91008200D01*
X131552924Y-91238090D01*
X131722755Y-91648124D01*
X131998901Y-91951137D01*
X131909083Y-91968038D01*
X131692959Y-92107110D01*
X131547969Y-92319310D01*
X131496960Y-92571200D01*
X115873600Y-92571200D01*
X115873600Y-74573200D01*
X200915200Y-74573200D01*
X200915200Y-90638622D01*
X200915200Y-90638622D01*
G37*
X200915200Y-90638622D02*
X200686783Y-90152242D01*
X200258524Y-89761955D01*
X199848490Y-89592124D01*
X199618600Y-89713445D01*
X199618600Y-90906600D01*
X199638600Y-90906600D01*
X199638600Y-91160600D01*
X199618600Y-91160600D01*
X199618600Y-92353755D01*
X199848490Y-92475076D01*
X200258524Y-92305245D01*
X200686783Y-91914958D01*
X200915200Y-91428578D01*
X200915200Y-131014400D01*
X115873600Y-131014400D01*
X115873600Y-129635039D01*
X119410496Y-129635039D01*
X119571359Y-130023423D01*
X119947266Y-130438389D01*
X120453359Y-130677914D01*
X120675400Y-130556629D01*
X120675400Y-129413000D01*
X120929400Y-129413000D01*
X120929400Y-130556629D01*
X121151441Y-130677914D01*
X121657534Y-130438389D01*
X122033441Y-130023423D01*
X122194304Y-129635039D01*
X122072315Y-129413000D01*
X120929400Y-129413000D01*
X120675400Y-129413000D01*
X119532485Y-129413000D01*
X119410496Y-129635039D01*
X115873600Y-129635039D01*
X115873600Y-124206000D01*
X119339287Y-124206000D01*
X119448520Y-124755151D01*
X119759589Y-125220698D01*
X120141675Y-125476000D01*
X119759589Y-125731302D01*
X119448520Y-126196849D01*
X119339287Y-126746000D01*
X119448520Y-127295151D01*
X119759589Y-127760698D01*
X120164103Y-128030986D01*
X119947266Y-128133611D01*
X119571359Y-128548577D01*
X119410496Y-128936961D01*
X119532485Y-129159000D01*
X120675400Y-129159000D01*
X120675400Y-129139000D01*
X120929400Y-129139000D01*
X120929400Y-129159000D01*
X122072315Y-129159000D01*
X122194304Y-128936961D01*
X122033441Y-128548577D01*
X121657534Y-128133611D01*
X121440697Y-128030986D01*
X121845211Y-127760698D01*
X122156280Y-127295151D01*
X122265513Y-126746000D01*
X122156280Y-126196849D01*
X121845211Y-125731302D01*
X121463125Y-125476000D01*
X121845211Y-125220698D01*
X122156280Y-124755151D01*
X122265513Y-124206000D01*
X122156280Y-123656849D01*
X121845211Y-123191302D01*
X121700935Y-123094899D01*
X121837717Y-123069162D01*
X122053841Y-122930090D01*
X122198831Y-122717890D01*
X122249840Y-122466000D01*
X122249840Y-120866000D01*
X122205562Y-120630683D01*
X122066490Y-120414559D01*
X121854290Y-120269569D01*
X121602400Y-120218560D01*
X121597442Y-120218560D01*
X123393402Y-118422600D01*
X137702006Y-118422600D01*
X137872190Y-118677298D01*
X138254276Y-118932600D01*
X137872190Y-119187902D01*
X137702006Y-119442600D01*
X127498200Y-119442600D01*
X127207361Y-119500452D01*
X126960799Y-119665199D01*
X125649799Y-120976199D01*
X125485052Y-121222761D01*
X125427200Y-121513600D01*
X125427200Y-127050800D01*
X125485052Y-127341639D01*
X125649799Y-127588201D01*
X127023712Y-128962114D01*
X126959287Y-129286000D01*
X127068520Y-129835151D01*
X127379589Y-130300698D01*
X127845136Y-130611767D01*
X128394287Y-130721000D01*
X128450513Y-130721000D01*
X128999664Y-130611767D01*
X129465211Y-130300698D01*
X129776280Y-129835151D01*
X129885513Y-129286000D01*
X129776280Y-128736849D01*
X129465211Y-128271302D01*
X129083125Y-128016000D01*
X129465211Y-127760698D01*
X129635395Y-127506000D01*
X132588000Y-127506000D01*
X132878839Y-127448148D01*
X133125401Y-127283401D01*
X135309015Y-125099787D01*
X168592352Y-125099787D01*
X168810357Y-125627400D01*
X169213677Y-126031424D01*
X169740909Y-126250350D01*
X170311787Y-126250848D01*
X170839400Y-126032843D01*
X171243424Y-125629523D01*
X171462350Y-125102291D01*
X171462848Y-124531413D01*
X171403834Y-124388587D01*
X173570752Y-124388587D01*
X173788757Y-124916200D01*
X174192077Y-125320224D01*
X174719309Y-125539150D01*
X175290187Y-125539648D01*
X175817800Y-125321643D01*
X176221824Y-124918323D01*
X176440750Y-124391091D01*
X176441248Y-123820213D01*
X176223243Y-123292600D01*
X175819923Y-122888576D01*
X175292691Y-122669650D01*
X174721813Y-122669152D01*
X174194200Y-122887157D01*
X173790176Y-123290477D01*
X173571250Y-123817709D01*
X173570752Y-124388587D01*
X171403834Y-124388587D01*
X171244843Y-124003800D01*
X170841523Y-123599776D01*
X170314291Y-123380850D01*
X169743413Y-123380352D01*
X169215800Y-123598357D01*
X168811776Y-124001677D01*
X168592850Y-124528909D01*
X168592352Y-125099787D01*
X135309015Y-125099787D01*
X136906202Y-123502600D01*
X137702006Y-123502600D01*
X137872190Y-123757298D01*
X138337737Y-124068367D01*
X138886888Y-124177600D01*
X138943114Y-124177600D01*
X139492265Y-124068367D01*
X139957812Y-123757298D01*
X140268881Y-123291751D01*
X140378114Y-122742600D01*
X140294929Y-122324400D01*
X152661999Y-122324400D01*
X152756313Y-122418714D01*
X152691888Y-122742600D01*
X152801121Y-123291751D01*
X153112190Y-123757298D01*
X153577737Y-124068367D01*
X154126888Y-124177600D01*
X154183114Y-124177600D01*
X154732265Y-124068367D01*
X155197812Y-123757298D01*
X155508881Y-123291751D01*
X155618114Y-122742600D01*
X155565641Y-122478800D01*
X156626487Y-122478800D01*
X156735720Y-123027951D01*
X157046789Y-123493498D01*
X157512336Y-123804567D01*
X158061487Y-123913800D01*
X158117713Y-123913800D01*
X158666864Y-123804567D01*
X159132411Y-123493498D01*
X159443480Y-123027951D01*
X159552713Y-122478800D01*
X159443480Y-121929649D01*
X159132411Y-121464102D01*
X158666864Y-121153033D01*
X158117713Y-121043800D01*
X158061487Y-121043800D01*
X157512336Y-121153033D01*
X157046789Y-121464102D01*
X156735720Y-121929649D01*
X156626487Y-122478800D01*
X155565641Y-122478800D01*
X155508881Y-122193449D01*
X155197812Y-121727902D01*
X154815726Y-121472600D01*
X155197812Y-121217298D01*
X155508881Y-120751751D01*
X155618114Y-120202600D01*
X155508881Y-119653449D01*
X155197812Y-119187902D01*
X154815726Y-118932600D01*
X155197812Y-118677298D01*
X155508881Y-118211751D01*
X155618114Y-117662600D01*
X155508881Y-117113449D01*
X155205271Y-116659065D01*
X158472358Y-116659065D01*
X158684287Y-117171972D01*
X159076364Y-117564734D01*
X159107600Y-117577704D01*
X159107600Y-118770400D01*
X159165452Y-119061239D01*
X159330199Y-119307801D01*
X163038599Y-123016201D01*
X163285161Y-123180948D01*
X163576000Y-123238800D01*
X164470954Y-123238800D01*
X164492357Y-123290600D01*
X164895677Y-123694624D01*
X165422909Y-123913550D01*
X165993787Y-123914048D01*
X166521400Y-123696043D01*
X166925424Y-123292723D01*
X167144350Y-122765491D01*
X167144848Y-122194613D01*
X166926843Y-121667000D01*
X166523523Y-121262976D01*
X165996291Y-121044050D01*
X165425413Y-121043552D01*
X164897800Y-121261557D01*
X164493776Y-121664877D01*
X164471385Y-121718800D01*
X163890802Y-121718800D01*
X162489875Y-120317873D01*
X162683865Y-120318042D01*
X163196772Y-120106113D01*
X163589534Y-119714036D01*
X163802358Y-119201500D01*
X163802842Y-118646535D01*
X163590913Y-118133628D01*
X163198836Y-117740866D01*
X162686300Y-117528042D01*
X162131335Y-117527558D01*
X161618428Y-117739487D01*
X161225666Y-118131564D01*
X161012842Y-118644100D01*
X161012671Y-118840669D01*
X160627600Y-118455598D01*
X160627600Y-117578167D01*
X160656772Y-117566113D01*
X161049534Y-117174036D01*
X161262358Y-116661500D01*
X161262842Y-116106535D01*
X161062967Y-115622800D01*
X163540160Y-115622800D01*
X163540160Y-117142800D01*
X163584438Y-117378117D01*
X163723510Y-117594241D01*
X163935710Y-117739231D01*
X164187600Y-117790240D01*
X165707600Y-117790240D01*
X165942917Y-117745962D01*
X166159041Y-117606890D01*
X166304031Y-117394690D01*
X166355040Y-117142800D01*
X168597511Y-117142800D01*
X168592600Y-117167487D01*
X168592600Y-117223713D01*
X168701833Y-117772864D01*
X169012902Y-118238411D01*
X169478449Y-118549480D01*
X170027600Y-118658713D01*
X170576751Y-118549480D01*
X171042298Y-118238411D01*
X171353367Y-117772864D01*
X171462600Y-117223713D01*
X171462600Y-117167487D01*
X171353367Y-116618336D01*
X171042298Y-116152789D01*
X170576751Y-115841720D01*
X170039171Y-115734789D01*
X170565787Y-115735248D01*
X171093400Y-115517243D01*
X171497424Y-115113923D01*
X171716350Y-114586691D01*
X171716848Y-114015813D01*
X171498843Y-113488200D01*
X171095523Y-113084176D01*
X171029056Y-113056577D01*
X171035605Y-113053864D01*
X171109739Y-112807745D01*
X170281600Y-111979605D01*
X169453461Y-112807745D01*
X169527595Y-113053864D01*
X169534083Y-113056196D01*
X169469800Y-113082757D01*
X169065776Y-113486077D01*
X168846850Y-114013309D01*
X168846352Y-114584187D01*
X169064357Y-115111800D01*
X169467677Y-115515824D01*
X169994909Y-115734750D01*
X170016130Y-115734769D01*
X169685159Y-115800603D01*
X169505639Y-115680652D01*
X169214800Y-115622800D01*
X166355040Y-115622800D01*
X166310762Y-115387483D01*
X166171690Y-115171359D01*
X165959490Y-115026369D01*
X165707600Y-114975360D01*
X164187600Y-114975360D01*
X163952283Y-115019638D01*
X163736159Y-115158710D01*
X163591169Y-115370910D01*
X163540160Y-115622800D01*
X161062967Y-115622800D01*
X161050913Y-115593628D01*
X160658836Y-115200866D01*
X160146300Y-114988042D01*
X159591335Y-114987558D01*
X159078428Y-115199487D01*
X158685666Y-115591564D01*
X158472842Y-116104100D01*
X158472358Y-116659065D01*
X155205271Y-116659065D01*
X155197812Y-116647902D01*
X154815726Y-116392600D01*
X155197812Y-116137298D01*
X155508881Y-115671751D01*
X155618114Y-115122600D01*
X155508881Y-114573449D01*
X155197812Y-114107902D01*
X154815726Y-113852600D01*
X155197812Y-113597298D01*
X155508881Y-113131751D01*
X155618114Y-112582600D01*
X155508881Y-112033449D01*
X155476820Y-111985465D01*
X161063158Y-111985465D01*
X161275087Y-112498372D01*
X161667164Y-112891134D01*
X162179700Y-113103958D01*
X162734665Y-113104442D01*
X163247572Y-112892513D01*
X163640334Y-112500436D01*
X163853158Y-111987900D01*
X163853510Y-111583223D01*
X168834635Y-111583223D01*
X168861822Y-112153454D01*
X169027736Y-112554005D01*
X169273855Y-112628139D01*
X170101995Y-111800000D01*
X169273855Y-110971861D01*
X169027736Y-111045995D01*
X168834635Y-111583223D01*
X163853510Y-111583223D01*
X163853642Y-111432935D01*
X163641713Y-110920028D01*
X163249636Y-110527266D01*
X162737100Y-110314442D01*
X162182135Y-110313958D01*
X161669228Y-110525887D01*
X161276466Y-110917964D01*
X161063642Y-111430500D01*
X161063158Y-111985465D01*
X155476820Y-111985465D01*
X155197812Y-111567902D01*
X154815726Y-111312600D01*
X155197812Y-111057298D01*
X155508881Y-110591751D01*
X155618114Y-110042600D01*
X155595557Y-109929200D01*
X158723033Y-109929200D01*
X158735087Y-109958372D01*
X159127164Y-110351134D01*
X159639700Y-110563958D01*
X160194665Y-110564442D01*
X160707572Y-110352513D01*
X161100334Y-109960436D01*
X161313158Y-109447900D01*
X161313415Y-109153787D01*
X162058002Y-108409200D01*
X163590960Y-108409200D01*
X163590960Y-109929200D01*
X163635238Y-110164517D01*
X163774310Y-110380641D01*
X163986510Y-110525631D01*
X164238400Y-110576640D01*
X165758400Y-110576640D01*
X165993717Y-110532362D01*
X166209841Y-110393290D01*
X166354831Y-110181090D01*
X166405840Y-109929200D01*
X169223093Y-109929200D01*
X169427649Y-110065880D01*
X169976800Y-110175113D01*
X170300686Y-110110688D01*
X170568091Y-110378093D01*
X170498377Y-110353035D01*
X169928146Y-110380222D01*
X169527595Y-110546136D01*
X169453461Y-110792255D01*
X170281600Y-111620395D01*
X170295742Y-111606252D01*
X170475348Y-111785858D01*
X170461205Y-111800000D01*
X171289345Y-112628139D01*
X171535464Y-112554005D01*
X171728565Y-112016777D01*
X171704624Y-111514626D01*
X173941200Y-113751202D01*
X173941200Y-117195600D01*
X173999052Y-117486439D01*
X174163799Y-117733001D01*
X175984160Y-119553362D01*
X175984160Y-119989600D01*
X176028438Y-120224917D01*
X176167510Y-120441041D01*
X176379710Y-120586031D01*
X176631600Y-120637040D01*
X178358800Y-120637040D01*
X178594117Y-120592762D01*
X178810241Y-120453690D01*
X178955231Y-120241490D01*
X178964064Y-120197869D01*
X178975530Y-120215029D01*
X179461711Y-120539885D01*
X180035200Y-120653959D01*
X180608689Y-120539885D01*
X181094870Y-120215029D01*
X181305200Y-119900248D01*
X181515530Y-120215029D01*
X181815200Y-120415262D01*
X181815200Y-122934677D01*
X181583189Y-123089702D01*
X181272120Y-123555249D01*
X181162887Y-124104400D01*
X181272120Y-124653551D01*
X181583189Y-125119098D01*
X182048736Y-125430167D01*
X182597887Y-125539400D01*
X182654113Y-125539400D01*
X183203264Y-125430167D01*
X183668811Y-125119098D01*
X183735736Y-125018938D01*
X185542999Y-126826201D01*
X185789561Y-126990948D01*
X186080400Y-127048800D01*
X195986400Y-127048800D01*
X196277239Y-126990948D01*
X196523801Y-126826201D01*
X199652201Y-123697801D01*
X199816948Y-123451239D01*
X199874800Y-123160400D01*
X199874800Y-121393847D01*
X200039743Y-121325694D01*
X200500078Y-120866163D01*
X200749516Y-120265448D01*
X200750084Y-119615005D01*
X200501694Y-119013857D01*
X200042163Y-118553522D01*
X199874800Y-118484027D01*
X199874800Y-114893847D01*
X200039743Y-114825694D01*
X200500078Y-114366163D01*
X200749516Y-113765448D01*
X200750084Y-113115005D01*
X200501694Y-112513857D01*
X200042163Y-112053522D01*
X199441448Y-111804084D01*
X198791005Y-111803516D01*
X198189857Y-112051906D01*
X197729522Y-112511437D01*
X197480084Y-113112152D01*
X197479516Y-113762595D01*
X197727906Y-114363743D01*
X198187437Y-114824078D01*
X198354800Y-114893573D01*
X198354800Y-118483753D01*
X198189857Y-118551906D01*
X197729522Y-119011437D01*
X197480084Y-119612152D01*
X197479516Y-120262595D01*
X197727906Y-120863743D01*
X198187437Y-121324078D01*
X198354800Y-121393573D01*
X198354800Y-122845598D01*
X195671598Y-125528800D01*
X194434504Y-125528800D01*
X194895611Y-125220698D01*
X195206680Y-124755151D01*
X195315913Y-124206000D01*
X195206680Y-123656849D01*
X194895611Y-123191302D01*
X194430064Y-122880233D01*
X193880913Y-122771000D01*
X193824687Y-122771000D01*
X193275536Y-122880233D01*
X192809989Y-123191302D01*
X192498920Y-123656849D01*
X192389687Y-124206000D01*
X192498920Y-124755151D01*
X192809989Y-125220698D01*
X193271096Y-125528800D01*
X186789132Y-125528800D01*
X187044600Y-125423243D01*
X187448624Y-125019923D01*
X187667550Y-124492691D01*
X187668048Y-123921813D01*
X187450043Y-123394200D01*
X187046723Y-122990176D01*
X187011007Y-122975345D01*
X186985748Y-122848360D01*
X186821001Y-122601799D01*
X185310534Y-121091332D01*
X193641873Y-121091332D01*
X193740536Y-121358187D01*
X194350261Y-121584708D01*
X195000260Y-121560656D01*
X195489064Y-121358187D01*
X195587727Y-121091332D01*
X194614800Y-120118405D01*
X193641873Y-121091332D01*
X185310534Y-121091332D01*
X184813062Y-120593860D01*
X185115200Y-120653959D01*
X185688689Y-120539885D01*
X186174870Y-120215029D01*
X186499726Y-119728848D01*
X186510584Y-119674261D01*
X192968892Y-119674261D01*
X192992944Y-120324260D01*
X193195413Y-120813064D01*
X193462268Y-120911727D01*
X194435195Y-119938800D01*
X194794405Y-119938800D01*
X195767332Y-120911727D01*
X196034187Y-120813064D01*
X196260708Y-120203339D01*
X196236656Y-119553340D01*
X196034187Y-119064536D01*
X195767332Y-118965873D01*
X194794405Y-119938800D01*
X194435195Y-119938800D01*
X193462268Y-118965873D01*
X193195413Y-119064536D01*
X192968892Y-119674261D01*
X186510584Y-119674261D01*
X186613800Y-119155359D01*
X186613800Y-119096641D01*
X186552064Y-118786268D01*
X193641873Y-118786268D01*
X194614800Y-119759195D01*
X195587727Y-118786268D01*
X195489064Y-118519413D01*
X194879339Y-118292892D01*
X194229340Y-118316944D01*
X193740536Y-118519413D01*
X193641873Y-118786268D01*
X186552064Y-118786268D01*
X186499726Y-118523152D01*
X186174870Y-118036971D01*
X185904028Y-117856000D01*
X186174870Y-117675029D01*
X186499726Y-117188848D01*
X186613800Y-116615359D01*
X186613800Y-116556641D01*
X186499726Y-115983152D01*
X186174870Y-115496971D01*
X185688689Y-115172115D01*
X185115200Y-115058041D01*
X184541711Y-115172115D01*
X184055530Y-115496971D01*
X183845200Y-115811752D01*
X183634870Y-115496971D01*
X183335200Y-115296738D01*
X183335200Y-114591332D01*
X193641873Y-114591332D01*
X193740536Y-114858187D01*
X194350261Y-115084708D01*
X195000260Y-115060656D01*
X195489064Y-114858187D01*
X195587727Y-114591332D01*
X194614800Y-113618405D01*
X193641873Y-114591332D01*
X183335200Y-114591332D01*
X183335200Y-114564002D01*
X184724941Y-113174261D01*
X192968892Y-113174261D01*
X192992944Y-113824260D01*
X193195413Y-114313064D01*
X193462268Y-114411727D01*
X194435195Y-113438800D01*
X194794405Y-113438800D01*
X195767332Y-114411727D01*
X196034187Y-114313064D01*
X196260708Y-113703339D01*
X196236656Y-113053340D01*
X196034187Y-112564536D01*
X195767332Y-112465873D01*
X194794405Y-113438800D01*
X194435195Y-113438800D01*
X193462268Y-112465873D01*
X193195413Y-112564536D01*
X192968892Y-113174261D01*
X184724941Y-113174261D01*
X185612934Y-112286268D01*
X193641873Y-112286268D01*
X194614800Y-113259195D01*
X195587727Y-112286268D01*
X195489064Y-112019413D01*
X194879339Y-111792892D01*
X194229340Y-111816944D01*
X193740536Y-112019413D01*
X193641873Y-112286268D01*
X185612934Y-112286268D01*
X192796002Y-105103200D01*
X193159753Y-105103200D01*
X193227906Y-105268143D01*
X193687437Y-105728478D01*
X194288152Y-105977916D01*
X194938595Y-105978484D01*
X195539743Y-105730094D01*
X195774515Y-105495732D01*
X198141873Y-105495732D01*
X198240536Y-105762587D01*
X198850261Y-105989108D01*
X199500260Y-105965056D01*
X199989064Y-105762587D01*
X200087727Y-105495732D01*
X199114800Y-104522805D01*
X198141873Y-105495732D01*
X195774515Y-105495732D01*
X196000078Y-105270563D01*
X196249516Y-104669848D01*
X196250032Y-104078661D01*
X197468892Y-104078661D01*
X197492944Y-104728660D01*
X197695413Y-105217464D01*
X197962268Y-105316127D01*
X198935195Y-104343200D01*
X199294405Y-104343200D01*
X200267332Y-105316127D01*
X200534187Y-105217464D01*
X200760708Y-104607739D01*
X200736656Y-103957740D01*
X200534187Y-103468936D01*
X200267332Y-103370273D01*
X199294405Y-104343200D01*
X198935195Y-104343200D01*
X197962268Y-103370273D01*
X197695413Y-103468936D01*
X197468892Y-104078661D01*
X196250032Y-104078661D01*
X196250084Y-104019405D01*
X196001694Y-103418257D01*
X195774503Y-103190668D01*
X198141873Y-103190668D01*
X199114800Y-104163595D01*
X200087727Y-103190668D01*
X199989064Y-102923813D01*
X199379339Y-102697292D01*
X198729340Y-102721344D01*
X198240536Y-102923813D01*
X198141873Y-103190668D01*
X195774503Y-103190668D01*
X195542163Y-102957922D01*
X195374800Y-102888427D01*
X195374800Y-99298247D01*
X195539743Y-99230094D01*
X195774515Y-98995732D01*
X198141873Y-98995732D01*
X198240536Y-99262587D01*
X198850261Y-99489108D01*
X199500260Y-99465056D01*
X199989064Y-99262587D01*
X200087727Y-98995732D01*
X199114800Y-98022805D01*
X198141873Y-98995732D01*
X195774515Y-98995732D01*
X196000078Y-98770563D01*
X196249516Y-98169848D01*
X196250032Y-97578661D01*
X197468892Y-97578661D01*
X197492944Y-98228660D01*
X197695413Y-98717464D01*
X197962268Y-98816127D01*
X198935195Y-97843200D01*
X199294405Y-97843200D01*
X200267332Y-98816127D01*
X200534187Y-98717464D01*
X200760708Y-98107739D01*
X200736656Y-97457740D01*
X200534187Y-96968936D01*
X200267332Y-96870273D01*
X199294405Y-97843200D01*
X198935195Y-97843200D01*
X197962268Y-96870273D01*
X197695413Y-96968936D01*
X197468892Y-97578661D01*
X196250032Y-97578661D01*
X196250084Y-97519405D01*
X196001694Y-96918257D01*
X195774503Y-96690668D01*
X198141873Y-96690668D01*
X199114800Y-97663595D01*
X200087727Y-96690668D01*
X199989064Y-96423813D01*
X199379339Y-96197292D01*
X198729340Y-96221344D01*
X198240536Y-96423813D01*
X198141873Y-96690668D01*
X195774503Y-96690668D01*
X195542163Y-96457922D01*
X195374800Y-96388427D01*
X195374800Y-96377602D01*
X197489001Y-94263401D01*
X197653748Y-94016840D01*
X197711600Y-93726000D01*
X197711600Y-92306554D01*
X198001654Y-92112747D01*
X198229302Y-91772047D01*
X198296417Y-91914958D01*
X198724676Y-92305245D01*
X199134710Y-92475076D01*
X199364600Y-92353755D01*
X199364600Y-91160600D01*
X199344600Y-91160600D01*
X199344600Y-90906600D01*
X199364600Y-90906600D01*
X199364600Y-89713445D01*
X199134710Y-89592124D01*
X198724676Y-89761955D01*
X198296417Y-90152242D01*
X198229302Y-90295153D01*
X198001654Y-89954453D01*
X197519885Y-89632546D01*
X196951600Y-89519507D01*
X196383315Y-89632546D01*
X195901546Y-89954453D01*
X195873750Y-89996052D01*
X195864762Y-89948283D01*
X195725690Y-89732159D01*
X195513490Y-89587169D01*
X195261600Y-89536160D01*
X193561600Y-89536160D01*
X193326283Y-89580438D01*
X193110159Y-89719510D01*
X192965169Y-89931710D01*
X192914160Y-90183600D01*
X192914160Y-91883600D01*
X192958438Y-92118917D01*
X193097510Y-92335041D01*
X193309710Y-92480031D01*
X193561600Y-92531040D01*
X195261600Y-92531040D01*
X195496917Y-92486762D01*
X195713041Y-92347690D01*
X195858031Y-92135490D01*
X195871686Y-92068059D01*
X195901546Y-92112747D01*
X196191600Y-92306554D01*
X196191600Y-93411198D01*
X194077399Y-95525399D01*
X193912652Y-95771961D01*
X193854800Y-96062800D01*
X193854800Y-96388153D01*
X193689857Y-96456306D01*
X193229522Y-96915837D01*
X192980084Y-97516552D01*
X192979516Y-98166995D01*
X193227906Y-98768143D01*
X193687437Y-99228478D01*
X193854800Y-99297973D01*
X193854800Y-102888153D01*
X193689857Y-102956306D01*
X193229522Y-103415837D01*
X193160027Y-103583200D01*
X192481200Y-103583200D01*
X192190361Y-103641052D01*
X191943799Y-103805799D01*
X182037799Y-113711799D01*
X181873052Y-113958361D01*
X181815200Y-114249200D01*
X181815200Y-115296738D01*
X181515530Y-115496971D01*
X181305200Y-115811752D01*
X181094870Y-115496971D01*
X180795200Y-115296738D01*
X180795200Y-98511202D01*
X183620601Y-95685801D01*
X183785348Y-95439239D01*
X183843200Y-95148400D01*
X183843200Y-90071354D01*
X184133254Y-89877547D01*
X184353200Y-89548374D01*
X184573146Y-89877547D01*
X184863200Y-90071354D01*
X184863200Y-92559791D01*
X184645650Y-93083709D01*
X184645152Y-93654587D01*
X184863157Y-94182200D01*
X185266477Y-94586224D01*
X185793709Y-94805150D01*
X186364587Y-94805648D01*
X186892200Y-94587643D01*
X187296224Y-94184323D01*
X187515150Y-93657091D01*
X187515648Y-93086213D01*
X187297643Y-92558600D01*
X186894323Y-92154576D01*
X186383200Y-91942339D01*
X186383200Y-90071354D01*
X186673254Y-89877547D01*
X186995161Y-89395778D01*
X187108200Y-88827493D01*
X187108200Y-88769307D01*
X186995161Y-88201022D01*
X186673254Y-87719253D01*
X186191485Y-87397346D01*
X185623200Y-87284307D01*
X185054915Y-87397346D01*
X184573146Y-87719253D01*
X184353200Y-88048426D01*
X184133254Y-87719253D01*
X183651485Y-87397346D01*
X183083200Y-87284307D01*
X182514915Y-87397346D01*
X182033146Y-87719253D01*
X182005350Y-87760852D01*
X181996362Y-87713083D01*
X181857290Y-87496959D01*
X181645090Y-87351969D01*
X181393200Y-87300960D01*
X179693200Y-87300960D01*
X179457883Y-87345238D01*
X179241759Y-87484310D01*
X179096769Y-87696510D01*
X179045760Y-87948400D01*
X179045760Y-88038400D01*
X171301600Y-88038400D01*
X171309950Y-88018291D01*
X171310448Y-87447413D01*
X171092443Y-86919800D01*
X170689123Y-86515776D01*
X170161891Y-86296850D01*
X169591013Y-86296352D01*
X169063400Y-86514357D01*
X168659376Y-86917677D01*
X168440450Y-87444909D01*
X168439952Y-88015787D01*
X168657957Y-88543400D01*
X169061277Y-88947424D01*
X169588509Y-89166350D01*
X170159387Y-89166848D01*
X170213349Y-89144551D01*
X170404599Y-89335801D01*
X170651161Y-89500548D01*
X170942000Y-89558400D01*
X179045760Y-89558400D01*
X179045760Y-89648400D01*
X179090038Y-89883717D01*
X179229110Y-90099841D01*
X179441310Y-90244831D01*
X179693200Y-90295840D01*
X181393200Y-90295840D01*
X181628517Y-90251562D01*
X181844641Y-90112490D01*
X181989631Y-89900290D01*
X182003286Y-89832859D01*
X182033146Y-89877547D01*
X182323200Y-90071354D01*
X182323200Y-94833598D01*
X179497799Y-97658999D01*
X179333052Y-97905561D01*
X179275200Y-98196400D01*
X179275200Y-115296738D01*
X178975530Y-115496971D01*
X178759536Y-115820228D01*
X178702021Y-115697510D01*
X178270147Y-115303312D01*
X177854226Y-115131042D01*
X177622200Y-115252183D01*
X177622200Y-116459000D01*
X177642200Y-116459000D01*
X177642200Y-116713000D01*
X177622200Y-116713000D01*
X177622200Y-116733000D01*
X177368200Y-116733000D01*
X177368200Y-116713000D01*
X176160731Y-116713000D01*
X176040232Y-116945027D01*
X176288379Y-117474490D01*
X176474633Y-117644495D01*
X176396283Y-117659238D01*
X176300971Y-117720569D01*
X175461200Y-116880798D01*
X175461200Y-116226973D01*
X176040232Y-116226973D01*
X176160731Y-116459000D01*
X177368200Y-116459000D01*
X177368200Y-115252183D01*
X177136174Y-115131042D01*
X176720253Y-115303312D01*
X176288379Y-115697510D01*
X176040232Y-116226973D01*
X175461200Y-116226973D01*
X175461200Y-113436400D01*
X175403348Y-113145561D01*
X175238601Y-112898999D01*
X171356704Y-109017102D01*
X171411800Y-108740113D01*
X171411800Y-108683887D01*
X171302567Y-108134736D01*
X170991498Y-107669189D01*
X170525951Y-107358120D01*
X169976800Y-107248887D01*
X169427649Y-107358120D01*
X168962102Y-107669189D01*
X168651033Y-108134736D01*
X168596439Y-108409200D01*
X166405840Y-108409200D01*
X166361562Y-108173883D01*
X166222490Y-107957759D01*
X166010290Y-107812769D01*
X165758400Y-107761760D01*
X164238400Y-107761760D01*
X164003083Y-107806038D01*
X163786959Y-107945110D01*
X163641969Y-108157310D01*
X163590960Y-108409200D01*
X162058002Y-108409200D01*
X165218746Y-105248456D01*
X165270509Y-105269950D01*
X165841387Y-105270448D01*
X166369000Y-105052443D01*
X166773024Y-104649123D01*
X166991950Y-104121891D01*
X166992448Y-103551013D01*
X166774443Y-103023400D01*
X166371123Y-102619376D01*
X165843891Y-102400450D01*
X165273013Y-102399952D01*
X164745400Y-102617957D01*
X164341376Y-103021277D01*
X164122450Y-103548509D01*
X164121952Y-104119387D01*
X164144249Y-104173349D01*
X160441622Y-107875976D01*
X160197100Y-107774442D01*
X159642135Y-107773958D01*
X159129228Y-107985887D01*
X158736466Y-108377964D01*
X158723496Y-108409200D01*
X155559602Y-108409200D01*
X155477401Y-108326999D01*
X155372016Y-108256583D01*
X155508881Y-108051751D01*
X155618114Y-107502600D01*
X155508881Y-106953449D01*
X155197812Y-106487902D01*
X154815726Y-106232600D01*
X155197812Y-105977298D01*
X155508881Y-105511751D01*
X155618114Y-104962600D01*
X155508881Y-104413449D01*
X155197812Y-103947902D01*
X154815726Y-103692600D01*
X155197812Y-103437298D01*
X155508881Y-102971751D01*
X155618114Y-102422600D01*
X155508881Y-101873449D01*
X155197812Y-101407902D01*
X154815726Y-101152600D01*
X155197812Y-100897298D01*
X155508881Y-100431751D01*
X155618114Y-99882600D01*
X155508881Y-99333449D01*
X155197812Y-98867902D01*
X154815726Y-98612600D01*
X155197812Y-98357298D01*
X155508881Y-97891751D01*
X155588192Y-97493027D01*
X157048200Y-98953035D01*
X157048200Y-102717729D01*
X156894389Y-102820502D01*
X156583320Y-103286049D01*
X156474087Y-103835200D01*
X156583320Y-104384351D01*
X156894389Y-104849898D01*
X157359936Y-105160967D01*
X157909087Y-105270200D01*
X157965313Y-105270200D01*
X158514464Y-105160967D01*
X158980011Y-104849898D01*
X159291080Y-104384351D01*
X159400313Y-103835200D01*
X159291080Y-103286049D01*
X158980011Y-102820502D01*
X158826200Y-102717729D01*
X158826200Y-101376187D01*
X168541552Y-101376187D01*
X168759557Y-101903800D01*
X169162877Y-102307824D01*
X169690109Y-102526750D01*
X170260987Y-102527248D01*
X170788600Y-102309243D01*
X171192624Y-101905923D01*
X171411550Y-101378691D01*
X171412048Y-100807813D01*
X171194043Y-100280200D01*
X170790723Y-99876176D01*
X170263491Y-99657250D01*
X169692613Y-99656752D01*
X169165000Y-99874757D01*
X168760976Y-100278077D01*
X168542050Y-100805309D01*
X168541552Y-101376187D01*
X158826200Y-101376187D01*
X158826200Y-98584799D01*
X158758529Y-98244593D01*
X158565818Y-97956181D01*
X156500987Y-95891350D01*
X161939400Y-95891350D01*
X161939400Y-96631910D01*
X162036073Y-96865299D01*
X162214702Y-97043927D01*
X162448091Y-97140600D01*
X163188650Y-97140600D01*
X163347400Y-96981850D01*
X163347400Y-95732600D01*
X162098150Y-95732600D01*
X161939400Y-95891350D01*
X156500987Y-95891350D01*
X155583957Y-94974320D01*
X155618114Y-94802600D01*
X155583957Y-94630880D01*
X155635547Y-94579290D01*
X161939400Y-94579290D01*
X161939400Y-95319850D01*
X162098150Y-95478600D01*
X163347400Y-95478600D01*
X163347400Y-94229350D01*
X163601400Y-94229350D01*
X163601400Y-95478600D01*
X163621400Y-95478600D01*
X163621400Y-95732600D01*
X163601400Y-95732600D01*
X163601400Y-96981850D01*
X163760150Y-97140600D01*
X164500709Y-97140600D01*
X164734098Y-97043927D01*
X164912727Y-96865299D01*
X164968519Y-96730606D01*
X165143757Y-96906151D01*
X165707730Y-97140333D01*
X166318391Y-97140865D01*
X166882771Y-96907668D01*
X167314951Y-96476243D01*
X167466364Y-96111600D01*
X168671533Y-96111600D01*
X168860502Y-96394411D01*
X169326049Y-96705480D01*
X169875200Y-96814713D01*
X170424351Y-96705480D01*
X170889898Y-96394411D01*
X171200967Y-95928864D01*
X171310200Y-95379713D01*
X171310200Y-95323487D01*
X171200967Y-94774336D01*
X170889898Y-94308789D01*
X170424351Y-93997720D01*
X169875200Y-93888487D01*
X169326049Y-93997720D01*
X168860502Y-94308789D01*
X168671533Y-94591600D01*
X167171093Y-94591600D01*
X166885043Y-94305049D01*
X166321070Y-94070867D01*
X165710409Y-94070335D01*
X165146029Y-94303532D01*
X164968559Y-94480692D01*
X164912727Y-94345901D01*
X164734098Y-94167273D01*
X164500709Y-94070600D01*
X163760150Y-94070600D01*
X163601400Y-94229350D01*
X163347400Y-94229350D01*
X163188650Y-94070600D01*
X162448091Y-94070600D01*
X162214702Y-94167273D01*
X162036073Y-94345901D01*
X161939400Y-94579290D01*
X155635547Y-94579290D01*
X156587892Y-93626945D01*
X157210661Y-93626945D01*
X157284795Y-93873064D01*
X157822023Y-94066165D01*
X158392254Y-94038978D01*
X158792805Y-93873064D01*
X158866939Y-93626945D01*
X158038800Y-92798805D01*
X157210661Y-93626945D01*
X156587892Y-93626945D01*
X156686218Y-93528619D01*
X156789204Y-93374490D01*
X157031055Y-93447339D01*
X157859195Y-92619200D01*
X158218405Y-92619200D01*
X159046545Y-93447339D01*
X159292664Y-93373205D01*
X159293672Y-93370400D01*
X176997287Y-93370400D01*
X177106520Y-93919551D01*
X177417589Y-94385098D01*
X177883136Y-94696167D01*
X178432287Y-94805400D01*
X178488513Y-94805400D01*
X179037664Y-94696167D01*
X179503211Y-94385098D01*
X179814280Y-93919551D01*
X179923513Y-93370400D01*
X179814280Y-92821249D01*
X179503211Y-92355702D01*
X179037664Y-92044633D01*
X178488513Y-91935400D01*
X178432287Y-91935400D01*
X177883136Y-92044633D01*
X177417589Y-92355702D01*
X177106520Y-92821249D01*
X176997287Y-93370400D01*
X159293672Y-93370400D01*
X159485765Y-92835977D01*
X159458578Y-92265746D01*
X159292664Y-91865195D01*
X159046545Y-91791061D01*
X158218405Y-92619200D01*
X157859195Y-92619200D01*
X157845052Y-92605058D01*
X158024658Y-92425452D01*
X158038800Y-92439595D01*
X158866939Y-91611455D01*
X158792805Y-91365336D01*
X158786317Y-91363004D01*
X158850600Y-91336443D01*
X159254624Y-90933123D01*
X159473550Y-90405891D01*
X159474048Y-89835013D01*
X159256043Y-89307400D01*
X158852723Y-88903376D01*
X158325491Y-88684450D01*
X157754613Y-88683952D01*
X157227000Y-88901957D01*
X156822976Y-89305277D01*
X156604050Y-89832509D01*
X156603733Y-90195431D01*
X155428982Y-91370182D01*
X155354250Y-91482027D01*
X155197812Y-91247902D01*
X154793298Y-90977614D01*
X155010135Y-90874989D01*
X155386042Y-90460023D01*
X155546905Y-90071639D01*
X155424916Y-89849600D01*
X154282001Y-89849600D01*
X154282001Y-89869600D01*
X154028001Y-89869600D01*
X154028001Y-89849600D01*
X152885086Y-89849600D01*
X152763097Y-90071639D01*
X152923960Y-90460023D01*
X153299867Y-90874989D01*
X153516704Y-90977614D01*
X153112190Y-91247902D01*
X152801121Y-91713449D01*
X152691888Y-92262600D01*
X152801121Y-92811751D01*
X153112190Y-93277298D01*
X153494276Y-93532600D01*
X153112190Y-93787902D01*
X152801121Y-94253449D01*
X152691888Y-94802600D01*
X152801121Y-95351751D01*
X153112190Y-95817298D01*
X153494276Y-96072600D01*
X153112190Y-96327902D01*
X152801121Y-96793449D01*
X152691888Y-97342600D01*
X152801121Y-97891751D01*
X153112190Y-98357298D01*
X153494276Y-98612600D01*
X153112190Y-98867902D01*
X152801121Y-99333449D01*
X152691888Y-99882600D01*
X152801121Y-100431751D01*
X153112190Y-100897298D01*
X153494276Y-101152600D01*
X153112190Y-101407902D01*
X152801121Y-101873449D01*
X152691888Y-102422600D01*
X152801121Y-102971751D01*
X153112190Y-103437298D01*
X153494276Y-103692600D01*
X153112190Y-103947902D01*
X152801121Y-104413449D01*
X152691888Y-104962600D01*
X152801121Y-105511751D01*
X153112190Y-105977298D01*
X153494276Y-106232600D01*
X153112190Y-106487902D01*
X152801121Y-106953449D01*
X152691888Y-107502600D01*
X152734717Y-107717915D01*
X150823200Y-105806398D01*
X150823200Y-93421200D01*
X150780004Y-93204039D01*
X150765348Y-93130360D01*
X150600601Y-92883799D01*
X146902001Y-89185199D01*
X146655439Y-89020452D01*
X146364600Y-88962600D01*
X140127996Y-88962600D01*
X139957812Y-88707902D01*
X139813536Y-88611499D01*
X139950318Y-88585762D01*
X140166442Y-88446690D01*
X140311432Y-88234490D01*
X140362441Y-87982600D01*
X140362441Y-87182600D01*
X152691888Y-87182600D01*
X152801121Y-87731751D01*
X153112190Y-88197298D01*
X153516704Y-88467586D01*
X153299867Y-88570211D01*
X152923960Y-88985177D01*
X152763097Y-89373561D01*
X152885086Y-89595600D01*
X154028001Y-89595600D01*
X154028001Y-89575600D01*
X154282001Y-89575600D01*
X154282001Y-89595600D01*
X155424916Y-89595600D01*
X155546905Y-89373561D01*
X155386042Y-88985177D01*
X155010135Y-88570211D01*
X154793298Y-88467586D01*
X155197812Y-88197298D01*
X155508881Y-87731751D01*
X155618114Y-87182600D01*
X155508881Y-86633449D01*
X155197812Y-86167902D01*
X154732265Y-85856833D01*
X154183114Y-85747600D01*
X154126888Y-85747600D01*
X153577737Y-85856833D01*
X153112190Y-86167902D01*
X152801121Y-86633449D01*
X152691888Y-87182600D01*
X140362441Y-87182600D01*
X140362441Y-86382600D01*
X140318163Y-86147283D01*
X140179091Y-85931159D01*
X139966891Y-85786169D01*
X139715001Y-85735160D01*
X139675001Y-85735160D01*
X139675001Y-85598000D01*
X157743728Y-85598000D01*
X157860573Y-86185419D01*
X158193319Y-86683409D01*
X158691309Y-87016155D01*
X159278728Y-87133000D01*
X159338872Y-87133000D01*
X159926291Y-87016155D01*
X160424281Y-86683409D01*
X160578800Y-86452155D01*
X160733319Y-86683409D01*
X161231309Y-87016155D01*
X161818728Y-87133000D01*
X161878872Y-87133000D01*
X162466291Y-87016155D01*
X162896922Y-86728417D01*
X162950473Y-86857699D01*
X163129102Y-87036327D01*
X163362491Y-87133000D01*
X164103050Y-87133000D01*
X164261800Y-86974250D01*
X164261800Y-85725000D01*
X164515800Y-85725000D01*
X164515800Y-86974250D01*
X164674550Y-87133000D01*
X165415109Y-87133000D01*
X165648498Y-87036327D01*
X165827127Y-86857699D01*
X165923800Y-86624310D01*
X165923800Y-85883750D01*
X165765050Y-85725000D01*
X164515800Y-85725000D01*
X164261800Y-85725000D01*
X164241800Y-85725000D01*
X164241800Y-85471000D01*
X164261800Y-85471000D01*
X164261800Y-84221750D01*
X164515800Y-84221750D01*
X164515800Y-85471000D01*
X165765050Y-85471000D01*
X165923800Y-85312250D01*
X165923800Y-84571690D01*
X165827127Y-84338301D01*
X165648498Y-84159673D01*
X165415109Y-84063000D01*
X164674550Y-84063000D01*
X164515800Y-84221750D01*
X164261800Y-84221750D01*
X164103050Y-84063000D01*
X163362491Y-84063000D01*
X163129102Y-84159673D01*
X162950473Y-84338301D01*
X162896922Y-84467583D01*
X162466291Y-84179845D01*
X161878872Y-84063000D01*
X161818728Y-84063000D01*
X161231309Y-84179845D01*
X160733319Y-84512591D01*
X160578800Y-84743845D01*
X160424281Y-84512591D01*
X159926291Y-84179845D01*
X159338872Y-84063000D01*
X159278728Y-84063000D01*
X158691309Y-84179845D01*
X158193319Y-84512591D01*
X157860573Y-85010581D01*
X157743728Y-85598000D01*
X139675001Y-85598000D01*
X139675001Y-79966582D01*
X139883315Y-79925146D01*
X140308310Y-79641174D01*
X140386928Y-79523514D01*
X140718367Y-79818678D01*
X141052600Y-79957110D01*
X141255000Y-79833424D01*
X141255000Y-78816200D01*
X141509000Y-78816200D01*
X141509000Y-79833424D01*
X141711400Y-79957110D01*
X142045633Y-79818678D01*
X142427349Y-79478740D01*
X142649920Y-79018602D01*
X142527090Y-78816200D01*
X141509000Y-78816200D01*
X141255000Y-78816200D01*
X141235000Y-78816200D01*
X141235000Y-78562200D01*
X141255000Y-78562200D01*
X141255000Y-77544976D01*
X141509000Y-77544976D01*
X141509000Y-78562200D01*
X142527090Y-78562200D01*
X142649920Y-78359798D01*
X142507325Y-78065000D01*
X143863960Y-78065000D01*
X143863960Y-79415000D01*
X143908238Y-79650317D01*
X144047310Y-79866441D01*
X144259510Y-80011431D01*
X144511400Y-80062440D01*
X145861400Y-80062440D01*
X146096717Y-80018162D01*
X146312841Y-79879090D01*
X146384083Y-79774823D01*
X146685085Y-79975946D01*
X147186400Y-80075664D01*
X147687715Y-79975946D01*
X148112710Y-79691974D01*
X148186400Y-79581689D01*
X148260090Y-79691974D01*
X148685085Y-79975946D01*
X149186400Y-80075664D01*
X149687715Y-79975946D01*
X150112710Y-79691974D01*
X150191328Y-79574314D01*
X150522767Y-79869478D01*
X150857000Y-80007910D01*
X151059400Y-79884224D01*
X151059400Y-78867000D01*
X151313400Y-78867000D01*
X151313400Y-79884224D01*
X151515800Y-80007910D01*
X151850033Y-79869478D01*
X152231749Y-79529540D01*
X152454320Y-79069402D01*
X152331490Y-78867000D01*
X151313400Y-78867000D01*
X151059400Y-78867000D01*
X151039400Y-78867000D01*
X151039400Y-78613000D01*
X151059400Y-78613000D01*
X151059400Y-77595776D01*
X151313400Y-77595776D01*
X151313400Y-78613000D01*
X152331490Y-78613000D01*
X152454320Y-78410598D01*
X152231749Y-77950460D01*
X151850033Y-77610522D01*
X151515800Y-77472090D01*
X151313400Y-77595776D01*
X151059400Y-77595776D01*
X150857000Y-77472090D01*
X150522767Y-77610522D01*
X150191328Y-77905686D01*
X150112710Y-77788026D01*
X149687715Y-77504054D01*
X149186400Y-77404336D01*
X148685085Y-77504054D01*
X148260090Y-77788026D01*
X148186400Y-77898311D01*
X148112710Y-77788026D01*
X147687715Y-77504054D01*
X147186400Y-77404336D01*
X146848484Y-77471552D01*
X147231036Y-77089000D01*
X163106164Y-77089000D01*
X163550960Y-77533796D01*
X163550960Y-78524000D01*
X163595238Y-78759317D01*
X163734310Y-78975441D01*
X163946510Y-79120431D01*
X164198400Y-79171440D01*
X165798400Y-79171440D01*
X166033717Y-79127162D01*
X166249841Y-78988090D01*
X166394831Y-78775890D01*
X166403770Y-78731745D01*
X169170261Y-78731745D01*
X169244395Y-78977864D01*
X169781623Y-79170965D01*
X170351854Y-79143778D01*
X170752405Y-78977864D01*
X170826539Y-78731745D01*
X169998400Y-77903605D01*
X169170261Y-78731745D01*
X166403770Y-78731745D01*
X166445840Y-78524000D01*
X166445840Y-77507223D01*
X168551435Y-77507223D01*
X168578622Y-78077454D01*
X168744536Y-78478005D01*
X168990655Y-78552139D01*
X169818795Y-77724000D01*
X170178005Y-77724000D01*
X171006145Y-78552139D01*
X171252264Y-78478005D01*
X171445365Y-77940777D01*
X171418178Y-77370546D01*
X171252264Y-76969995D01*
X171006145Y-76895861D01*
X170178005Y-77724000D01*
X169818795Y-77724000D01*
X168990655Y-76895861D01*
X168744536Y-76969995D01*
X168551435Y-77507223D01*
X166445840Y-77507223D01*
X166445840Y-76924000D01*
X166406751Y-76716255D01*
X169170261Y-76716255D01*
X169998400Y-77544395D01*
X170826539Y-76716255D01*
X170752405Y-76470136D01*
X170215177Y-76277035D01*
X169644946Y-76304222D01*
X169244395Y-76470136D01*
X169170261Y-76716255D01*
X166406751Y-76716255D01*
X166401562Y-76688683D01*
X166262490Y-76472559D01*
X166050290Y-76327569D01*
X165798400Y-76276560D01*
X164808196Y-76276560D01*
X164103018Y-75571382D01*
X163814606Y-75378671D01*
X163474400Y-75311000D01*
X146862800Y-75311000D01*
X146522595Y-75378670D01*
X146234182Y-75571382D01*
X144557782Y-77247782D01*
X144434696Y-77431993D01*
X144276083Y-77461838D01*
X144059959Y-77600910D01*
X143914969Y-77813110D01*
X143863960Y-78065000D01*
X142507325Y-78065000D01*
X142427349Y-77899660D01*
X142045633Y-77559722D01*
X141711400Y-77421290D01*
X141509000Y-77544976D01*
X141255000Y-77544976D01*
X141052600Y-77421290D01*
X140718367Y-77559722D01*
X140386928Y-77854886D01*
X140308310Y-77737226D01*
X139883315Y-77453254D01*
X139382000Y-77353536D01*
X138880685Y-77453254D01*
X138455690Y-77737226D01*
X138382000Y-77847511D01*
X138308310Y-77737226D01*
X137883315Y-77453254D01*
X137382000Y-77353536D01*
X136880685Y-77453254D01*
X136579936Y-77654208D01*
X136521090Y-77562759D01*
X136308890Y-77417769D01*
X136057000Y-77366760D01*
X134707000Y-77366760D01*
X134471683Y-77411038D01*
X134255559Y-77550110D01*
X134110569Y-77762310D01*
X134059560Y-78014200D01*
X134059560Y-79364200D01*
X134103838Y-79599517D01*
X134242910Y-79815641D01*
X134455110Y-79960631D01*
X134707000Y-80011640D01*
X136057000Y-80011640D01*
X136292317Y-79967362D01*
X136349200Y-79930759D01*
X136349200Y-88880046D01*
X136275001Y-88768999D01*
X135309801Y-87803799D01*
X135063239Y-87639052D01*
X134772400Y-87581200D01*
X134267354Y-87581200D01*
X134073547Y-87291146D01*
X133591778Y-86969239D01*
X133023493Y-86856200D01*
X132965307Y-86856200D01*
X132397022Y-86969239D01*
X131915253Y-87291146D01*
X131593346Y-87772915D01*
X131480307Y-88341200D01*
X131593346Y-88909485D01*
X131915253Y-89391254D01*
X132255953Y-89618902D01*
X132113042Y-89686017D01*
X131722755Y-90114276D01*
X131552924Y-90524310D01*
X131674245Y-90754200D01*
X132867400Y-90754200D01*
X132867400Y-90734200D01*
X133121400Y-90734200D01*
X133121400Y-90754200D01*
X134314555Y-90754200D01*
X134435876Y-90524310D01*
X134266045Y-90114276D01*
X133875758Y-89686017D01*
X133732847Y-89618902D01*
X134073547Y-89391254D01*
X134267354Y-89101200D01*
X134457598Y-89101200D01*
X134977600Y-89621202D01*
X134977600Y-91033600D01*
X135035452Y-91324439D01*
X135200199Y-91571001D01*
X136429199Y-92800001D01*
X136675760Y-92964748D01*
X136715507Y-92972654D01*
X136966600Y-93022600D01*
X137702006Y-93022600D01*
X137872190Y-93277298D01*
X138276704Y-93547586D01*
X138059867Y-93650211D01*
X137683960Y-94065177D01*
X137523097Y-94453561D01*
X137645086Y-94675600D01*
X138788001Y-94675600D01*
X138788001Y-94655600D01*
X139042001Y-94655600D01*
X139042001Y-94675600D01*
X140184916Y-94675600D01*
X140306905Y-94453561D01*
X140146042Y-94065177D01*
X139770135Y-93650211D01*
X139553298Y-93547586D01*
X139957812Y-93277298D01*
X140268881Y-92811751D01*
X140378114Y-92262600D01*
X140268881Y-91713449D01*
X139957812Y-91247902D01*
X139575726Y-90992600D01*
X139957812Y-90737298D01*
X140127996Y-90482600D01*
X146049798Y-90482600D01*
X149303200Y-93736002D01*
X149303200Y-106121200D01*
X149361052Y-106412039D01*
X149525799Y-106658601D01*
X152268999Y-109401801D01*
X152515561Y-109566548D01*
X152776266Y-109618406D01*
X152691888Y-110042600D01*
X152801121Y-110591751D01*
X153112190Y-111057298D01*
X153494276Y-111312600D01*
X153112190Y-111567902D01*
X152801121Y-112033449D01*
X152691888Y-112582600D01*
X152801121Y-113131751D01*
X153112190Y-113597298D01*
X153494276Y-113852600D01*
X153112190Y-114107902D01*
X152801121Y-114573449D01*
X152691888Y-115122600D01*
X152801121Y-115671751D01*
X153112190Y-116137298D01*
X153494276Y-116392600D01*
X153112190Y-116647902D01*
X152801121Y-117113449D01*
X152691888Y-117662600D01*
X152801121Y-118211751D01*
X153112190Y-118677298D01*
X153494276Y-118932600D01*
X153112190Y-119187902D01*
X152801121Y-119653449D01*
X152691888Y-120202600D01*
X152801121Y-120751751D01*
X152836300Y-120804400D01*
X140233702Y-120804400D01*
X140268881Y-120751751D01*
X140378114Y-120202600D01*
X140268881Y-119653449D01*
X139957812Y-119187902D01*
X139575726Y-118932600D01*
X139957812Y-118677298D01*
X140268881Y-118211751D01*
X140378114Y-117662600D01*
X140268881Y-117113449D01*
X139957812Y-116647902D01*
X139575726Y-116392600D01*
X139957812Y-116137298D01*
X140268881Y-115671751D01*
X140378114Y-115122600D01*
X140268881Y-114573449D01*
X139957812Y-114107902D01*
X139575726Y-113852600D01*
X139957812Y-113597298D01*
X140268881Y-113131751D01*
X140378114Y-112582600D01*
X140268881Y-112033449D01*
X139957812Y-111567902D01*
X139575726Y-111312600D01*
X139957812Y-111057298D01*
X140268881Y-110591751D01*
X140378114Y-110042600D01*
X140268881Y-109493449D01*
X139957812Y-109027902D01*
X139575726Y-108772600D01*
X139957812Y-108517298D01*
X140268881Y-108051751D01*
X140378114Y-107502600D01*
X140268881Y-106953449D01*
X139957812Y-106487902D01*
X139575726Y-106232600D01*
X139957812Y-105977298D01*
X140268881Y-105511751D01*
X140378114Y-104962600D01*
X140268881Y-104413449D01*
X139957812Y-103947902D01*
X139575726Y-103692600D01*
X139957812Y-103437298D01*
X140268881Y-102971751D01*
X140378114Y-102422600D01*
X140268881Y-101873449D01*
X139957812Y-101407902D01*
X139575726Y-101152600D01*
X139957812Y-100897298D01*
X140268881Y-100431751D01*
X140378114Y-99882600D01*
X140268881Y-99333449D01*
X139957812Y-98867902D01*
X139575726Y-98612600D01*
X139957812Y-98357298D01*
X140268881Y-97891751D01*
X140378114Y-97342600D01*
X140268881Y-96793449D01*
X139957812Y-96327902D01*
X139553298Y-96057614D01*
X139770135Y-95954989D01*
X140146042Y-95540023D01*
X140306905Y-95151639D01*
X140184916Y-94929600D01*
X139042001Y-94929600D01*
X139042001Y-94949600D01*
X138788001Y-94949600D01*
X138788001Y-94929600D01*
X137645086Y-94929600D01*
X137523097Y-95151639D01*
X137683960Y-95540023D01*
X138059867Y-95954989D01*
X138276704Y-96057614D01*
X137872190Y-96327902D01*
X137561121Y-96793449D01*
X137451888Y-97342600D01*
X137561121Y-97891751D01*
X137872190Y-98357298D01*
X138254276Y-98612600D01*
X137872190Y-98867902D01*
X137561121Y-99333449D01*
X137451888Y-99882600D01*
X137561121Y-100431751D01*
X137872190Y-100897298D01*
X138254276Y-101152600D01*
X137872190Y-101407902D01*
X137561121Y-101873449D01*
X137451888Y-102422600D01*
X137552341Y-102927612D01*
X137494201Y-102840599D01*
X135322056Y-100668454D01*
X135343550Y-100616691D01*
X135344048Y-100045813D01*
X135126043Y-99518200D01*
X134722723Y-99114176D01*
X134195491Y-98895250D01*
X133624613Y-98894752D01*
X133097000Y-99112757D01*
X132692976Y-99516077D01*
X132474050Y-100043309D01*
X132473552Y-100614187D01*
X132691557Y-101141800D01*
X133094877Y-101545824D01*
X133622109Y-101764750D01*
X134192987Y-101765248D01*
X134246949Y-101742951D01*
X136196800Y-103692802D01*
X136196800Y-107842398D01*
X135474456Y-107120054D01*
X135495950Y-107068291D01*
X135496448Y-106497413D01*
X135278443Y-105969800D01*
X134875123Y-105565776D01*
X134347891Y-105346850D01*
X133777013Y-105346352D01*
X133249400Y-105564357D01*
X132845376Y-105967677D01*
X132626450Y-106494909D01*
X132625952Y-107065787D01*
X132843957Y-107593400D01*
X133247277Y-107997424D01*
X133774509Y-108216350D01*
X134345387Y-108216848D01*
X134399349Y-108194551D01*
X135333200Y-109128402D01*
X135333200Y-110896400D01*
X135391052Y-111187239D01*
X135555799Y-111433801D01*
X137241999Y-113120001D01*
X137488561Y-113284748D01*
X137690143Y-113324845D01*
X137872190Y-113597298D01*
X138254276Y-113852600D01*
X137974406Y-114039604D01*
X136579801Y-112644999D01*
X136333239Y-112480252D01*
X136042400Y-112422400D01*
X135228730Y-112422400D01*
X134875123Y-112068176D01*
X134347891Y-111849250D01*
X133777013Y-111848752D01*
X133249400Y-112066757D01*
X132845376Y-112470077D01*
X132626450Y-112997309D01*
X132625952Y-113568187D01*
X132843957Y-114095800D01*
X133247277Y-114499824D01*
X133774509Y-114718750D01*
X134345387Y-114719248D01*
X134873000Y-114501243D01*
X135277024Y-114097923D01*
X135341603Y-113942400D01*
X135727598Y-113942400D01*
X137445199Y-115660001D01*
X137640436Y-115790454D01*
X137872190Y-116137298D01*
X138254276Y-116392600D01*
X137872190Y-116647902D01*
X137702006Y-116902600D01*
X123078600Y-116902600D01*
X122787761Y-116960452D01*
X122541199Y-117125199D01*
X120264999Y-119401399D01*
X120100252Y-119647961D01*
X120042400Y-119938800D01*
X120042400Y-120218560D01*
X120002400Y-120218560D01*
X119767083Y-120262838D01*
X119550959Y-120401910D01*
X119405969Y-120614110D01*
X119354960Y-120866000D01*
X119354960Y-122466000D01*
X119399238Y-122701317D01*
X119538310Y-122917441D01*
X119750510Y-123062431D01*
X119905489Y-123093815D01*
X119759589Y-123191302D01*
X119448520Y-123656849D01*
X119339287Y-124206000D01*
X115873600Y-124206000D01*
X115873600Y-113537191D01*
X118657535Y-113537191D01*
X118890732Y-114101571D01*
X119322157Y-114533751D01*
X119886130Y-114767933D01*
X120496791Y-114768465D01*
X121061171Y-114535268D01*
X121493351Y-114103843D01*
X121539294Y-113993200D01*
X125194261Y-113993200D01*
X125398389Y-114298698D01*
X125863936Y-114609767D01*
X126413087Y-114719000D01*
X126469313Y-114719000D01*
X127018464Y-114609767D01*
X127484011Y-114298698D01*
X127795080Y-113833151D01*
X127904313Y-113284000D01*
X127795080Y-112734849D01*
X127484011Y-112269302D01*
X127018464Y-111958233D01*
X126469313Y-111849000D01*
X126413087Y-111849000D01*
X125863936Y-111958233D01*
X125398389Y-112269302D01*
X125262149Y-112473200D01*
X121539646Y-112473200D01*
X121494868Y-112364829D01*
X121317708Y-112187359D01*
X121452499Y-112131527D01*
X121631127Y-111952898D01*
X121727800Y-111719509D01*
X121727800Y-110978950D01*
X121569050Y-110820200D01*
X120319800Y-110820200D01*
X120319800Y-110840200D01*
X120065800Y-110840200D01*
X120065800Y-110820200D01*
X118816550Y-110820200D01*
X118657800Y-110978950D01*
X118657800Y-111719509D01*
X118754473Y-111952898D01*
X118933101Y-112131527D01*
X119067794Y-112187319D01*
X118892249Y-112362557D01*
X118658067Y-112926530D01*
X118657535Y-113537191D01*
X115873600Y-113537191D01*
X115873600Y-109666891D01*
X118657800Y-109666891D01*
X118657800Y-110407450D01*
X118816550Y-110566200D01*
X120065800Y-110566200D01*
X120065800Y-109316950D01*
X120319800Y-109316950D01*
X120319800Y-110566200D01*
X121569050Y-110566200D01*
X121727800Y-110407450D01*
X121727800Y-109666891D01*
X121631127Y-109433502D01*
X121452499Y-109254873D01*
X121219110Y-109158200D01*
X120478550Y-109158200D01*
X120319800Y-109316950D01*
X120065800Y-109316950D01*
X119907050Y-109158200D01*
X119166490Y-109158200D01*
X118933101Y-109254873D01*
X118754473Y-109433502D01*
X118657800Y-109666891D01*
X115873600Y-109666891D01*
X115873600Y-106983991D01*
X118657535Y-106983991D01*
X118890732Y-107548371D01*
X119322157Y-107980551D01*
X119886130Y-108214733D01*
X120496791Y-108215265D01*
X121061171Y-107982068D01*
X121493351Y-107550643D01*
X121497106Y-107541600D01*
X125228205Y-107541600D01*
X125398389Y-107796298D01*
X125863936Y-108107367D01*
X126413087Y-108216600D01*
X126469313Y-108216600D01*
X127018464Y-108107367D01*
X127484011Y-107796298D01*
X127795080Y-107330751D01*
X127904313Y-106781600D01*
X127795080Y-106232449D01*
X127484011Y-105766902D01*
X127018464Y-105455833D01*
X126469313Y-105346600D01*
X126413087Y-105346600D01*
X125863936Y-105455833D01*
X125398389Y-105766902D01*
X125228205Y-106021600D01*
X121581626Y-106021600D01*
X121494868Y-105811629D01*
X121317708Y-105634159D01*
X121452499Y-105578327D01*
X121631127Y-105399698D01*
X121727800Y-105166309D01*
X121727800Y-104425750D01*
X121569050Y-104267000D01*
X120319800Y-104267000D01*
X120319800Y-104287000D01*
X120065800Y-104287000D01*
X120065800Y-104267000D01*
X118816550Y-104267000D01*
X118657800Y-104425750D01*
X118657800Y-105166309D01*
X118754473Y-105399698D01*
X118933101Y-105578327D01*
X119067794Y-105634119D01*
X118892249Y-105809357D01*
X118658067Y-106373330D01*
X118657535Y-106983991D01*
X115873600Y-106983991D01*
X115873600Y-103113691D01*
X118657800Y-103113691D01*
X118657800Y-103854250D01*
X118816550Y-104013000D01*
X120065800Y-104013000D01*
X120065800Y-102763750D01*
X120319800Y-102763750D01*
X120319800Y-104013000D01*
X121569050Y-104013000D01*
X121727800Y-103854250D01*
X121727800Y-103113691D01*
X121631127Y-102880302D01*
X121452499Y-102701673D01*
X121219110Y-102605000D01*
X120478550Y-102605000D01*
X120319800Y-102763750D01*
X120065800Y-102763750D01*
X119907050Y-102605000D01*
X119166490Y-102605000D01*
X118933101Y-102701673D01*
X118754473Y-102880302D01*
X118657800Y-103113691D01*
X115873600Y-103113691D01*
X115873600Y-100379991D01*
X118606735Y-100379991D01*
X118839932Y-100944371D01*
X119271357Y-101376551D01*
X119835330Y-101610733D01*
X120445991Y-101611265D01*
X121010371Y-101378068D01*
X121442551Y-100946643D01*
X121488494Y-100836000D01*
X124926337Y-100836000D01*
X124934920Y-100879151D01*
X125245989Y-101344698D01*
X125711536Y-101655767D01*
X126260687Y-101765000D01*
X126316913Y-101765000D01*
X126866064Y-101655767D01*
X127331611Y-101344698D01*
X127642680Y-100879151D01*
X127751913Y-100330000D01*
X127642680Y-99780849D01*
X127331611Y-99315302D01*
X126866064Y-99004233D01*
X126316913Y-98895000D01*
X126260687Y-98895000D01*
X125711536Y-99004233D01*
X125245989Y-99315302D01*
X125245523Y-99316000D01*
X121488846Y-99316000D01*
X121444068Y-99207629D01*
X121266908Y-99030159D01*
X121401699Y-98974327D01*
X121580327Y-98795698D01*
X121677000Y-98562309D01*
X121677000Y-97821750D01*
X121518250Y-97663000D01*
X120269000Y-97663000D01*
X120269000Y-97683000D01*
X120015000Y-97683000D01*
X120015000Y-97663000D01*
X118765750Y-97663000D01*
X118607000Y-97821750D01*
X118607000Y-98562309D01*
X118703673Y-98795698D01*
X118882301Y-98974327D01*
X119016994Y-99030119D01*
X118841449Y-99205357D01*
X118607267Y-99769330D01*
X118606735Y-100379991D01*
X115873600Y-100379991D01*
X115873600Y-96509691D01*
X118607000Y-96509691D01*
X118607000Y-97250250D01*
X118765750Y-97409000D01*
X120015000Y-97409000D01*
X120015000Y-96159750D01*
X120269000Y-96159750D01*
X120269000Y-97409000D01*
X121518250Y-97409000D01*
X121677000Y-97250250D01*
X121677000Y-96509691D01*
X121580327Y-96276302D01*
X121401699Y-96097673D01*
X121168310Y-96001000D01*
X120427750Y-96001000D01*
X120269000Y-96159750D01*
X120015000Y-96159750D01*
X119856250Y-96001000D01*
X119115690Y-96001000D01*
X118882301Y-96097673D01*
X118703673Y-96276302D01*
X118607000Y-96509691D01*
X115873600Y-96509691D01*
X115873600Y-92571200D01*
X131496960Y-92571200D01*
X131496960Y-94271200D01*
X131541238Y-94506517D01*
X131680310Y-94722641D01*
X131892510Y-94867631D01*
X132144400Y-94918640D01*
X133844400Y-94918640D01*
X134079717Y-94874362D01*
X134295841Y-94735290D01*
X134440831Y-94523090D01*
X134491840Y-94271200D01*
X134491840Y-92571200D01*
X134447562Y-92335883D01*
X134308490Y-92119759D01*
X134096290Y-91974769D01*
X133988293Y-91952899D01*
X134266045Y-91648124D01*
X134435876Y-91238090D01*
X134314555Y-91008200D01*
X133121400Y-91008200D01*
X133121400Y-91028200D01*
X132867400Y-91028200D01*
X132867400Y-91008200D01*
X131674245Y-91008200D01*
X131552924Y-91238090D01*
X131722755Y-91648124D01*
X131998901Y-91951137D01*
X131909083Y-91968038D01*
X131692959Y-92107110D01*
X131547969Y-92319310D01*
X131496960Y-92571200D01*
X115873600Y-92571200D01*
X115873600Y-74573200D01*
X200915200Y-74573200D01*
X200915200Y-90638622D01*
M02*
