M48
INCH,TZ
T1C0.031
T2C0.035
T3C0.039
T4C0.040
T5C0.043
%
G90
G05
T1
X47560Y-47900
X47560Y-48900
X47560Y-49900
X47560Y-50900
X49720Y-39500
X49780Y-42040
X49780Y-44600
X50560Y-47900
X50560Y-48900
X50560Y-49900
X50560Y-50900
X52720Y-39500
X52780Y-42040
X52780Y-44600
X53300Y-30980
X54087Y-30980
X54691Y-34324
X54691Y-35324
X54691Y-36324
X54691Y-37324
X54691Y-38324
X54691Y-39324
X54691Y-40324
X54691Y-41324
X54691Y-42324
X54691Y-43324
X54691Y-44324
X54691Y-45324
X54691Y-46324
X54691Y-47324
X54691Y-48324
X54875Y-30980
X55662Y-30980
X57160Y-31000
X57947Y-31000
X58735Y-31000
X59522Y-31000
X60691Y-34324
X60691Y-35324
X60691Y-36324
X60691Y-37324
X60691Y-38324
X60691Y-39324
X60691Y-40324
X60691Y-41324
X60691Y-42324
X60691Y-43324
X60691Y-44324
X60691Y-45324
X60691Y-46324
X60691Y-47324
X60691Y-48324
X62180Y-40880
X62220Y-35480
X62220Y-36464
X62240Y-48220
X62940Y-45820
X62960Y-42980
X63940Y-46820
X63960Y-43980
X64940Y-45820
X64960Y-30600
X64960Y-42980
X65180Y-40880
X65240Y-48220
X66880Y-34540
X66880Y-37540
X66920Y-39800
X66920Y-42800
X66929Y-30600
X66940Y-46140
X66940Y-49140
X67040Y-44016
X67040Y-45000
X68900Y-48860
X70260Y-36760
X71900Y-48860
X73260Y-36760
X73320Y-48900
X76320Y-48900
T2
X47300Y-38400
X47300Y-39400
X47320Y-41000
X47320Y-42000
X47320Y-43580
X47320Y-44580
X64360Y-37640
X65360Y-37640
T3
X52360Y-34780
X52360Y-35780
X52360Y-36780
X62720Y-33700
X63720Y-33700
X64720Y-33700
X71080Y-34960
X72080Y-34960
X73080Y-34960
X76540Y-35840
X77540Y-35840
X78540Y-35840
T4
X69880Y-45900
X69880Y-46900
X70880Y-45900
X70880Y-46900
X71880Y-45900
X71880Y-46900
X72880Y-45900
X72880Y-46900
T5
X76620Y-38521
X76620Y-41080
X76620Y-44661
X76620Y-47220
X78392Y-38521
X78392Y-41080
X78392Y-44661
X78392Y-47220
T0
M30
