G04 #@! TF.FileFunction,Soldermask,Top*
%FSLAX46Y46*%
G04 Gerber Fmt 4.6, Leading zero omitted, Abs format (unit mm)*
G04 Created by KiCad (PCBNEW 4.0.7) date 12/08/18 05:52:10*
%MOMM*%
%LPD*%
G01*
G04 APERTURE LIST*
%ADD10C,0.100000*%
%ADD11R,2.000000X2.000000*%
%ADD12O,2.000000X2.000000*%
%ADD13C,2.000000*%
%ADD14R,2.200000X2.200000*%
%ADD15C,2.200000*%
%ADD16R,1.750000X1.750000*%
%ADD17O,1.750000X1.750000*%
%ADD18C,1.920000*%
%ADD19R,1.920000X1.920000*%
%ADD20R,2.100000X2.100000*%
%ADD21O,2.100000X2.100000*%
%ADD22C,2.400000*%
%ADD23O,2.200000X2.200000*%
%ADD24R,2.127200X2.127200*%
%ADD25O,2.127200X2.127200*%
G04 APERTURE END LIST*
D10*
D11*
X138915001Y-87182600D03*
D12*
X154155001Y-120202600D03*
X138915001Y-89722600D03*
X154155001Y-117662600D03*
X138915001Y-92262600D03*
X154155001Y-115122600D03*
X138915001Y-94802600D03*
X154155001Y-112582600D03*
X138915001Y-97342600D03*
X154155001Y-110042600D03*
X138915001Y-99882600D03*
X154155001Y-107502600D03*
X138915001Y-102422600D03*
X154155001Y-104962600D03*
X138915001Y-104962600D03*
X154155001Y-102422600D03*
X138915001Y-107502600D03*
X154155001Y-99882600D03*
X138915001Y-110042600D03*
X154155001Y-97342600D03*
X138915001Y-112582600D03*
X154155001Y-94802600D03*
X138915001Y-115122600D03*
X154155001Y-92262600D03*
X138915001Y-117662600D03*
X154155001Y-89722600D03*
X138915001Y-120202600D03*
X154155001Y-87182600D03*
X138915001Y-122742600D03*
X154155001Y-122742600D03*
D13*
X158038800Y-90119200D03*
X158038800Y-92619200D03*
D11*
X164998400Y-77724000D03*
D13*
X169998400Y-77724000D03*
X170281600Y-114300000D03*
X170281600Y-111800000D03*
D14*
X163474400Y-95605600D03*
D15*
X166014400Y-95605600D03*
D14*
X120192800Y-110693200D03*
D15*
X120192800Y-113233200D03*
D14*
X120192800Y-104140000D03*
D15*
X120192800Y-106680000D03*
D14*
X120142000Y-97536000D03*
D15*
X120142000Y-100076000D03*
D16*
X145186400Y-78740000D03*
D17*
X147186400Y-78740000D03*
X149186400Y-78740000D03*
X151186400Y-78740000D03*
D16*
X135382000Y-78689200D03*
D17*
X137382000Y-78689200D03*
X139382000Y-78689200D03*
X141382000Y-78689200D03*
D18*
X162407600Y-118922800D03*
X159867600Y-116382800D03*
D19*
X164947600Y-116382800D03*
D18*
X162458400Y-111709200D03*
X159918400Y-109169200D03*
D19*
X164998400Y-109169200D03*
D13*
X165557200Y-103835200D03*
D12*
X157937200Y-103835200D03*
D13*
X165709600Y-122478800D03*
D12*
X158089600Y-122478800D03*
D13*
X134061200Y-113284000D03*
D12*
X126441200Y-113284000D03*
D13*
X134061200Y-106781600D03*
D12*
X126441200Y-106781600D03*
D13*
X175006000Y-124104400D03*
D12*
X182626000Y-124104400D03*
D13*
X133908800Y-100330000D03*
D12*
X126288800Y-100330000D03*
D13*
X169976800Y-101092000D03*
D12*
X169976800Y-108712000D03*
D13*
X186080400Y-93370400D03*
D12*
X178460400Y-93370400D03*
D13*
X169875200Y-87731600D03*
D12*
X169875200Y-95351600D03*
D13*
X186232800Y-124206000D03*
D12*
X193852800Y-124206000D03*
D13*
X170027600Y-124815600D03*
D12*
X170027600Y-117195600D03*
D20*
X132994400Y-93421200D03*
D21*
X132994400Y-90881200D03*
X132994400Y-88341200D03*
D22*
X199114800Y-119938800D03*
X194614800Y-119938800D03*
X199114800Y-113438800D03*
X194614800Y-113438800D03*
D20*
X194411600Y-91033600D03*
D21*
X196951600Y-91033600D03*
X199491600Y-91033600D03*
D20*
X180543200Y-88798400D03*
D21*
X183083200Y-88798400D03*
X185623200Y-88798400D03*
D22*
X199114800Y-104343200D03*
X194614800Y-104343200D03*
X199114800Y-97843200D03*
X194614800Y-97843200D03*
D14*
X164388800Y-85598000D03*
D23*
X161848800Y-85598000D03*
X159308800Y-85598000D03*
D24*
X177495200Y-119126000D03*
D25*
X177495200Y-116586000D03*
X180035200Y-119126000D03*
X180035200Y-116586000D03*
X182575200Y-119126000D03*
X182575200Y-116586000D03*
X185115200Y-119126000D03*
X185115200Y-116586000D03*
D11*
X120802400Y-121666000D03*
D12*
X128422400Y-129286000D03*
X120802400Y-124206000D03*
X128422400Y-126746000D03*
X120802400Y-126746000D03*
X128422400Y-124206000D03*
X120802400Y-129286000D03*
X128422400Y-121666000D03*
M02*
