<?xml version="1.0" standalone="no"?>
 <!DOCTYPE svg PUBLIC "-//W3C//DTD SVG 1.1//EN" 
 "http://www.w3.org/Graphics/SVG/1.1/DTD/svg11.dtd"> 
<svg xmlns="http://www.w3.org/2000/svg" version="1.1" 
    width="2.12852cm" height="1.23698cm" viewBox="0 0 8380 4870 ">
<title>SVG Picture created as comp.svg date 2018/01/11 15:06:38 </title>
  <desc>Picture generated by Eeschema-SVG </desc>
<g style="fill:#000000; fill-opacity:1;stroke:#000000; stroke-opacity:1;
stroke-linecap:round; stroke-linejoin:round; "
 transform="translate(0 0) scale(1 1)">
</g>
<g style="fill:#000000; fill-opacity:0.0; 
stroke:#000000; stroke-width:-10; stroke-opacity:1; 
stroke-linecap:round; stroke-linejoin:round;">
</g>
<g style="fill:#000000; fill-opacity:0.0; 
stroke:#000000; stroke-width:60; stroke-opacity:1; 
stroke-linecap:round; stroke-linejoin:round;">
<path d="M1050 1230
L1050 830
" />
<path d="M1050 630
L1020 660
L1050 690
L1080 660
L1050 630
L1050 690
" />
<path d="M1340 830
L1340 1230
" />
<path d="M1340 890
L1370 860
L1430 830
L1510 830
L1570 860
L1600 920
L1600 1230
" />
<path d="M1880 1000
L2340 1000
" />
<path d="M2110 1230
L2110 770
" />
<path d="M1050 3230
L1050 2830
" />
<path d="M1050 2630
L1020 2660
L1050 2690
L1080 2660
L1050 2630
L1050 2690
" />
<path d="M1340 2830
L1340 3230
" />
<path d="M1340 2890
L1370 2860
L1430 2830
L1510 2830
L1570 2860
L1600 2920
L1600 3230
" />
<path d="M1880 3000
L2340 3000
" />
<path d="M6710 2230
L6650 2200
L6620 2170
L6590 2120
L6590 1950
L6620 1890
L6650 1860
L6710 1830
L6790 1830
L6850 1860
L6880 1890
L6910 1950
L6910 2120
L6880 2170
L6850 2200
L6790 2230
L6710 2230
" />
<path d="M7420 1830
L7420 2230
" />
<path d="M7160 1830
L7160 2150
L7190 2200
L7250 2230
L7330 2230
L7390 2200
L7420 2170
" />
<path d="M7620 1830
L7850 1830
" />
<path d="M7700 1630
L7700 2150
L7730 2200
L7790 2230
L7850 2230
" />
<path d="M4630 630
L4830 1230
L5030 630
" />
<path d="M5220 1000
L5680 1000
" />
<path d="M5450 1230
L5450 770
" />
<path d="M4630 3630
L4830 4230
L5030 3630
" />
<path d="M5220 4000
L5680 4000
" />
<polyline fill="none;"
points="1440,1430
2440,1430
" /> 
<polyline fill="none;"
points="2440,3430
1440,3430
" /> 
<polyline fill="none;"
points="4440,3430
4440,4430
" /> 
<polyline fill="none;"
points="4440,1430
4440,430
" /> 
<polyline fill="none;"
points="4440,1430
4440,430
" /> 
<polyline fill="none;"
points="7440,2430
6440,2430
" /> 
<polyline fill="none;"
points="2440,430
2440,4430
6440,2430
2440,430
" /> 
<path d="M17260 3380
L17260 3870
L17290 3920
L17320 3950
L17380 3980
L17490 3980
L17550 3950
L17580 3920
L17610 3870
L17610 3380
" />
<path d="M17980 3920
L18010 3950
L17980 3980
L17950 3950
L17980 3920
L17980 3980
" />
<path d="M17860 3410
L17920 3380
L18060 3380
L18120 3410
L18150 3470
L18150 3520
L18120 3580
L18090 3610
L18040 3640
L18010 3670
L17980 3720
L17980 3750
" />
<path d="M19900 6950
L19840 6980
L19730 6980
L19670 6950
L19640 6920
L19610 6870
L19610 6700
L19640 6640
L19670 6610
L19730 6580
L19840 6580
L19900 6610
" />
<path d="M20240 6980
L20180 6950
L20150 6920
L20120 6870
L20120 6700
L20150 6640
L20180 6610
L20240 6580
L20320 6580
L20380 6610
L20410 6640
L20440 6700
L20440 6870
L20410 6920
L20380 6950
L20320 6980
L20240 6980
" />
<path d="M20690 6980
L20690 6580
" />
<path d="M20690 6640
L20720 6610
L20780 6580
L20860 6580
L20920 6610
L20950 6670
L20950 6980
" />
<path d="M20950 6670
L20980 6610
L21040 6580
L21120 6580
L21180 6610
L21210 6670
L21210 6980
" />
<path d="M21490 6580
L21490 7180
" />
<path d="M21490 6610
L21550 6580
L21660 6580
L21720 6610
L21750 6640
L21780 6700
L21780 6870
L21750 6920
L21720 6950
L21660 6980
L21550 6980
L21490 6950
" />
</g> 
</svg>
