M48
INCH,TZ
T1C0.031
T2C0.035
T3C0.040
T4C0.044
%
G90
G05
T1
X50750Y-46500
X50750Y-51500
X52500Y-46500
X52500Y-51500
X53250Y-43500
X54250Y-46500
X54250Y-51500
X56250Y-46500
X56250Y-51500
X58250Y-43500
X58500Y-46250
X58500Y-47250
X58500Y-48250
T2
X50750Y-53000
X51750Y-53000
X53500Y-53000
X54500Y-53000
X56250Y-53000
X57250Y-53000
X59000Y-53000
X60000Y-53000
T3
X60000Y-43500
X60000Y-44500
X60000Y-45500
X60000Y-49250
X60000Y-51200
T4
X51250Y-43300
X51250Y-45200
T0
M30
