G04 #@! TF.FileFunction,Legend,Top*
%FSLAX46Y46*%
G04 Gerber Fmt 4.6, Leading zero omitted, Abs format (unit mm)*
G04 Created by KiCad (PCBNEW 4.0.7) date 01/31/18 00:20:31*
%MOMM*%
%LPD*%
G01*
G04 APERTURE LIST*
%ADD10C,0.100000*%
%ADD11C,0.150000*%
%ADD12C,0.120000*%
G04 APERTURE END LIST*
D10*
D11*
X149301200Y-85699600D02*
X139192000Y-85699600D01*
X139192000Y-85699600D02*
X139192000Y-88442800D01*
X139192000Y-88442800D02*
X149301200Y-88442800D01*
X149301200Y-88442800D02*
X149301200Y-85699600D01*
D12*
X153832000Y-98008000D02*
X153832000Y-98338000D01*
X153832000Y-98338000D02*
X147412000Y-98338000D01*
X147412000Y-98338000D02*
X147412000Y-98008000D01*
X153832000Y-96048000D02*
X153832000Y-95718000D01*
X153832000Y-95718000D02*
X147412000Y-95718000D01*
X147412000Y-95718000D02*
X147412000Y-96048000D01*
X140605000Y-109790600D02*
X136105000Y-109790600D01*
X141855000Y-113790600D02*
X141855000Y-112290600D01*
X136105000Y-116290600D02*
X140605000Y-116290600D01*
X134855000Y-112290600D02*
X134855000Y-113790600D01*
X132842000Y-88646000D02*
X137922000Y-88646000D01*
X132842000Y-84206000D02*
X137922000Y-84206000D01*
X137922000Y-90546000D02*
X132842000Y-90546000D01*
X137922000Y-90546000D02*
X137922000Y-84206000D01*
X132842000Y-90546000D02*
X132842000Y-84206000D01*
X133341999Y-91949958D02*
G75*
G03X127742000Y-90308488I-3039999J1958D01*
G01*
X133341999Y-91946042D02*
G75*
G02X127742000Y-93587512I-3039999J-1958D01*
G01*
X132802000Y-91948000D02*
G75*
G03X132802000Y-91948000I-2500000J0D01*
G01*
X127742000Y-90308000D02*
X127742000Y-93588000D01*
X133341999Y-102109958D02*
G75*
G03X127742000Y-100468488I-3039999J1958D01*
G01*
X133341999Y-102106042D02*
G75*
G02X127742000Y-103747512I-3039999J-1958D01*
G01*
X132802000Y-102108000D02*
G75*
G03X132802000Y-102108000I-2500000J0D01*
G01*
X127742000Y-100468000D02*
X127742000Y-103748000D01*
X133341999Y-112269958D02*
G75*
G03X127742000Y-110628488I-3039999J1958D01*
G01*
X133341999Y-112266042D02*
G75*
G02X127742000Y-113907512I-3039999J-1958D01*
G01*
X132802000Y-112268000D02*
G75*
G03X132802000Y-112268000I-2500000J0D01*
G01*
X127742000Y-110628000D02*
X127742000Y-113908000D01*
X143501999Y-102109958D02*
G75*
G03X137902000Y-100468488I-3039999J1958D01*
G01*
X143501999Y-102106042D02*
G75*
G02X137902000Y-103747512I-3039999J-1958D01*
G01*
X142962000Y-102108000D02*
G75*
G03X142962000Y-102108000I-2500000J0D01*
G01*
X137902000Y-100468000D02*
X137902000Y-103748000D01*
X147582001Y-91946042D02*
G75*
G03X153182000Y-93587512I3039999J-1958D01*
G01*
X147582001Y-91949958D02*
G75*
G02X153182000Y-90308488I3039999J1958D01*
G01*
X153122000Y-91948000D02*
G75*
G03X153122000Y-91948000I-2500000J0D01*
G01*
X153182000Y-93588000D02*
X153182000Y-90308000D01*
X147582001Y-102106042D02*
G75*
G03X153182000Y-103747512I3039999J-1958D01*
G01*
X147582001Y-102109958D02*
G75*
G02X153182000Y-100468488I3039999J1958D01*
G01*
X153122000Y-102108000D02*
G75*
G03X153122000Y-102108000I-2500000J0D01*
G01*
X153182000Y-103748000D02*
X153182000Y-100468000D01*
X147582001Y-112266042D02*
G75*
G03X153182000Y-113907512I3039999J-1958D01*
G01*
X147582001Y-112269958D02*
G75*
G02X153182000Y-110628488I3039999J1958D01*
G01*
X153122000Y-112268000D02*
G75*
G03X153122000Y-112268000I-2500000J0D01*
G01*
X153182000Y-113908000D02*
X153182000Y-110628000D01*
X127600000Y-96048000D02*
X127600000Y-95718000D01*
X127600000Y-95718000D02*
X134020000Y-95718000D01*
X134020000Y-95718000D02*
X134020000Y-96048000D01*
X127600000Y-98008000D02*
X127600000Y-98338000D01*
X127600000Y-98338000D02*
X134020000Y-98338000D01*
X134020000Y-98338000D02*
X134020000Y-98008000D01*
X127092000Y-106208000D02*
X127092000Y-105878000D01*
X127092000Y-105878000D02*
X133512000Y-105878000D01*
X133512000Y-105878000D02*
X133512000Y-106208000D01*
X127092000Y-108168000D02*
X127092000Y-108498000D01*
X127092000Y-108498000D02*
X133512000Y-108498000D01*
X133512000Y-108498000D02*
X133512000Y-108168000D01*
X138776000Y-92873000D02*
X138776000Y-92543000D01*
X138776000Y-92543000D02*
X145196000Y-92543000D01*
X145196000Y-92543000D02*
X145196000Y-92873000D01*
X138776000Y-94833000D02*
X138776000Y-95163000D01*
X138776000Y-95163000D02*
X145196000Y-95163000D01*
X145196000Y-95163000D02*
X145196000Y-94833000D01*
X145196000Y-91404000D02*
X145196000Y-91734000D01*
X145196000Y-91734000D02*
X138776000Y-91734000D01*
X138776000Y-91734000D02*
X138776000Y-91404000D01*
X145196000Y-89444000D02*
X145196000Y-89114000D01*
X145196000Y-89114000D02*
X138776000Y-89114000D01*
X138776000Y-89114000D02*
X138776000Y-89444000D01*
X153832000Y-108168000D02*
X153832000Y-108498000D01*
X153832000Y-108498000D02*
X147412000Y-108498000D01*
X147412000Y-108498000D02*
X147412000Y-108168000D01*
X153832000Y-106208000D02*
X153832000Y-105878000D01*
X153832000Y-105878000D02*
X147412000Y-105878000D01*
X147412000Y-105878000D02*
X147412000Y-106208000D01*
D11*
X142938667Y-88923762D02*
X143081524Y-88971381D01*
X143319620Y-88971381D01*
X143414858Y-88923762D01*
X143462477Y-88876143D01*
X143510096Y-88780905D01*
X143510096Y-88685667D01*
X143462477Y-88590429D01*
X143414858Y-88542810D01*
X143319620Y-88495190D01*
X143129143Y-88447571D01*
X143033905Y-88399952D01*
X142986286Y-88352333D01*
X142938667Y-88257095D01*
X142938667Y-88161857D01*
X142986286Y-88066619D01*
X143033905Y-88019000D01*
X143129143Y-87971381D01*
X143367239Y-87971381D01*
X143510096Y-88019000D01*
X143843429Y-87971381D02*
X144081524Y-88971381D01*
X144272001Y-88257095D01*
X144462477Y-88971381D01*
X144700572Y-87971381D01*
X145605334Y-88971381D02*
X145033905Y-88971381D01*
X145319619Y-88971381D02*
X145319619Y-87971381D01*
X145224381Y-88114238D01*
X145129143Y-88209476D01*
X145033905Y-88257095D01*
X150455334Y-97480381D02*
X150122000Y-97004190D01*
X149883905Y-97480381D02*
X149883905Y-96480381D01*
X150264858Y-96480381D01*
X150360096Y-96528000D01*
X150407715Y-96575619D01*
X150455334Y-96670857D01*
X150455334Y-96813714D01*
X150407715Y-96908952D01*
X150360096Y-96956571D01*
X150264858Y-97004190D01*
X149883905Y-97004190D01*
X151312477Y-96480381D02*
X151122000Y-96480381D01*
X151026762Y-96528000D01*
X150979143Y-96575619D01*
X150883905Y-96718476D01*
X150836286Y-96908952D01*
X150836286Y-97289905D01*
X150883905Y-97385143D01*
X150931524Y-97432762D01*
X151026762Y-97480381D01*
X151217239Y-97480381D01*
X151312477Y-97432762D01*
X151360096Y-97385143D01*
X151407715Y-97289905D01*
X151407715Y-97051810D01*
X151360096Y-96956571D01*
X151312477Y-96908952D01*
X151217239Y-96861333D01*
X151026762Y-96861333D01*
X150931524Y-96908952D01*
X150883905Y-96956571D01*
X150836286Y-97051810D01*
X136969667Y-115720762D02*
X137112524Y-115768381D01*
X137350620Y-115768381D01*
X137445858Y-115720762D01*
X137493477Y-115673143D01*
X137541096Y-115577905D01*
X137541096Y-115482667D01*
X137493477Y-115387429D01*
X137445858Y-115339810D01*
X137350620Y-115292190D01*
X137160143Y-115244571D01*
X137064905Y-115196952D01*
X137017286Y-115149333D01*
X136969667Y-115054095D01*
X136969667Y-114958857D01*
X137017286Y-114863619D01*
X137064905Y-114816000D01*
X137160143Y-114768381D01*
X137398239Y-114768381D01*
X137541096Y-114816000D01*
X137874429Y-114768381D02*
X138112524Y-115768381D01*
X138303001Y-115054095D01*
X138493477Y-115768381D01*
X138731572Y-114768381D01*
X139064905Y-114863619D02*
X139112524Y-114816000D01*
X139207762Y-114768381D01*
X139445858Y-114768381D01*
X139541096Y-114816000D01*
X139588715Y-114863619D01*
X139636334Y-114958857D01*
X139636334Y-115054095D01*
X139588715Y-115196952D01*
X139017286Y-115768381D01*
X139636334Y-115768381D01*
X134516905Y-89717571D02*
X134659762Y-89765190D01*
X134707381Y-89812810D01*
X134755000Y-89908048D01*
X134755000Y-90050905D01*
X134707381Y-90146143D01*
X134659762Y-90193762D01*
X134564524Y-90241381D01*
X134183571Y-90241381D01*
X134183571Y-89241381D01*
X134516905Y-89241381D01*
X134612143Y-89289000D01*
X134659762Y-89336619D01*
X134707381Y-89431857D01*
X134707381Y-89527095D01*
X134659762Y-89622333D01*
X134612143Y-89669952D01*
X134516905Y-89717571D01*
X134183571Y-89717571D01*
X135135952Y-89955667D02*
X135612143Y-89955667D01*
X135040714Y-90241381D02*
X135374047Y-89241381D01*
X135707381Y-90241381D01*
X135897857Y-89241381D02*
X136469286Y-89241381D01*
X136183571Y-90241381D02*
X136183571Y-89241381D01*
X129690905Y-94178381D02*
X129690905Y-93178381D01*
X129929000Y-93178381D01*
X130071858Y-93226000D01*
X130167096Y-93321238D01*
X130214715Y-93416476D01*
X130262334Y-93606952D01*
X130262334Y-93749810D01*
X130214715Y-93940286D01*
X130167096Y-94035524D01*
X130071858Y-94130762D01*
X129929000Y-94178381D01*
X129690905Y-94178381D01*
X131214715Y-94178381D02*
X130643286Y-94178381D01*
X130929000Y-94178381D02*
X130929000Y-93178381D01*
X130833762Y-93321238D01*
X130738524Y-93416476D01*
X130643286Y-93464095D01*
X129690905Y-104338381D02*
X129690905Y-103338381D01*
X129929000Y-103338381D01*
X130071858Y-103386000D01*
X130167096Y-103481238D01*
X130214715Y-103576476D01*
X130262334Y-103766952D01*
X130262334Y-103909810D01*
X130214715Y-104100286D01*
X130167096Y-104195524D01*
X130071858Y-104290762D01*
X129929000Y-104338381D01*
X129690905Y-104338381D01*
X130643286Y-103433619D02*
X130690905Y-103386000D01*
X130786143Y-103338381D01*
X131024239Y-103338381D01*
X131119477Y-103386000D01*
X131167096Y-103433619D01*
X131214715Y-103528857D01*
X131214715Y-103624095D01*
X131167096Y-103766952D01*
X130595667Y-104338381D01*
X131214715Y-104338381D01*
X129563905Y-114498381D02*
X129563905Y-113498381D01*
X129802000Y-113498381D01*
X129944858Y-113546000D01*
X130040096Y-113641238D01*
X130087715Y-113736476D01*
X130135334Y-113926952D01*
X130135334Y-114069810D01*
X130087715Y-114260286D01*
X130040096Y-114355524D01*
X129944858Y-114450762D01*
X129802000Y-114498381D01*
X129563905Y-114498381D01*
X130468667Y-113498381D02*
X131087715Y-113498381D01*
X130754381Y-113879333D01*
X130897239Y-113879333D01*
X130992477Y-113926952D01*
X131040096Y-113974571D01*
X131087715Y-114069810D01*
X131087715Y-114307905D01*
X131040096Y-114403143D01*
X130992477Y-114450762D01*
X130897239Y-114498381D01*
X130611524Y-114498381D01*
X130516286Y-114450762D01*
X130468667Y-114403143D01*
X139850905Y-104211381D02*
X139850905Y-103211381D01*
X140089000Y-103211381D01*
X140231858Y-103259000D01*
X140327096Y-103354238D01*
X140374715Y-103449476D01*
X140422334Y-103639952D01*
X140422334Y-103782810D01*
X140374715Y-103973286D01*
X140327096Y-104068524D01*
X140231858Y-104163762D01*
X140089000Y-104211381D01*
X139850905Y-104211381D01*
X141279477Y-103544714D02*
X141279477Y-104211381D01*
X141041381Y-103163762D02*
X140803286Y-103878048D01*
X141422334Y-103878048D01*
X149883905Y-94051381D02*
X149883905Y-93051381D01*
X150122000Y-93051381D01*
X150264858Y-93099000D01*
X150360096Y-93194238D01*
X150407715Y-93289476D01*
X150455334Y-93479952D01*
X150455334Y-93622810D01*
X150407715Y-93813286D01*
X150360096Y-93908524D01*
X150264858Y-94003762D01*
X150122000Y-94051381D01*
X149883905Y-94051381D01*
X151360096Y-93051381D02*
X150883905Y-93051381D01*
X150836286Y-93527571D01*
X150883905Y-93479952D01*
X150979143Y-93432333D01*
X151217239Y-93432333D01*
X151312477Y-93479952D01*
X151360096Y-93527571D01*
X151407715Y-93622810D01*
X151407715Y-93860905D01*
X151360096Y-93956143D01*
X151312477Y-94003762D01*
X151217239Y-94051381D01*
X150979143Y-94051381D01*
X150883905Y-94003762D01*
X150836286Y-93956143D01*
X149883905Y-104211381D02*
X149883905Y-103211381D01*
X150122000Y-103211381D01*
X150264858Y-103259000D01*
X150360096Y-103354238D01*
X150407715Y-103449476D01*
X150455334Y-103639952D01*
X150455334Y-103782810D01*
X150407715Y-103973286D01*
X150360096Y-104068524D01*
X150264858Y-104163762D01*
X150122000Y-104211381D01*
X149883905Y-104211381D01*
X151312477Y-103211381D02*
X151122000Y-103211381D01*
X151026762Y-103259000D01*
X150979143Y-103306619D01*
X150883905Y-103449476D01*
X150836286Y-103639952D01*
X150836286Y-104020905D01*
X150883905Y-104116143D01*
X150931524Y-104163762D01*
X151026762Y-104211381D01*
X151217239Y-104211381D01*
X151312477Y-104163762D01*
X151360096Y-104116143D01*
X151407715Y-104020905D01*
X151407715Y-103782810D01*
X151360096Y-103687571D01*
X151312477Y-103639952D01*
X151217239Y-103592333D01*
X151026762Y-103592333D01*
X150931524Y-103639952D01*
X150883905Y-103687571D01*
X150836286Y-103782810D01*
X149883905Y-114498381D02*
X149883905Y-113498381D01*
X150122000Y-113498381D01*
X150264858Y-113546000D01*
X150360096Y-113641238D01*
X150407715Y-113736476D01*
X150455334Y-113926952D01*
X150455334Y-114069810D01*
X150407715Y-114260286D01*
X150360096Y-114355524D01*
X150264858Y-114450762D01*
X150122000Y-114498381D01*
X149883905Y-114498381D01*
X150788667Y-113498381D02*
X151455334Y-113498381D01*
X151026762Y-114498381D01*
X130643334Y-97480381D02*
X130310000Y-97004190D01*
X130071905Y-97480381D02*
X130071905Y-96480381D01*
X130452858Y-96480381D01*
X130548096Y-96528000D01*
X130595715Y-96575619D01*
X130643334Y-96670857D01*
X130643334Y-96813714D01*
X130595715Y-96908952D01*
X130548096Y-96956571D01*
X130452858Y-97004190D01*
X130071905Y-97004190D01*
X131595715Y-97480381D02*
X131024286Y-97480381D01*
X131310000Y-97480381D02*
X131310000Y-96480381D01*
X131214762Y-96623238D01*
X131119524Y-96718476D01*
X131024286Y-96766095D01*
X130135334Y-107640381D02*
X129802000Y-107164190D01*
X129563905Y-107640381D02*
X129563905Y-106640381D01*
X129944858Y-106640381D01*
X130040096Y-106688000D01*
X130087715Y-106735619D01*
X130135334Y-106830857D01*
X130135334Y-106973714D01*
X130087715Y-107068952D01*
X130040096Y-107116571D01*
X129944858Y-107164190D01*
X129563905Y-107164190D01*
X130516286Y-106735619D02*
X130563905Y-106688000D01*
X130659143Y-106640381D01*
X130897239Y-106640381D01*
X130992477Y-106688000D01*
X131040096Y-106735619D01*
X131087715Y-106830857D01*
X131087715Y-106926095D01*
X131040096Y-107068952D01*
X130468667Y-107640381D01*
X131087715Y-107640381D01*
X141819334Y-94305381D02*
X141486000Y-93829190D01*
X141247905Y-94305381D02*
X141247905Y-93305381D01*
X141628858Y-93305381D01*
X141724096Y-93353000D01*
X141771715Y-93400619D01*
X141819334Y-93495857D01*
X141819334Y-93638714D01*
X141771715Y-93733952D01*
X141724096Y-93781571D01*
X141628858Y-93829190D01*
X141247905Y-93829190D01*
X142676477Y-93638714D02*
X142676477Y-94305381D01*
X142438381Y-93257762D02*
X142200286Y-93972048D01*
X142819334Y-93972048D01*
X141819334Y-90876381D02*
X141486000Y-90400190D01*
X141247905Y-90876381D02*
X141247905Y-89876381D01*
X141628858Y-89876381D01*
X141724096Y-89924000D01*
X141771715Y-89971619D01*
X141819334Y-90066857D01*
X141819334Y-90209714D01*
X141771715Y-90304952D01*
X141724096Y-90352571D01*
X141628858Y-90400190D01*
X141247905Y-90400190D01*
X142724096Y-89876381D02*
X142247905Y-89876381D01*
X142200286Y-90352571D01*
X142247905Y-90304952D01*
X142343143Y-90257333D01*
X142581239Y-90257333D01*
X142676477Y-90304952D01*
X142724096Y-90352571D01*
X142771715Y-90447810D01*
X142771715Y-90685905D01*
X142724096Y-90781143D01*
X142676477Y-90828762D01*
X142581239Y-90876381D01*
X142343143Y-90876381D01*
X142247905Y-90828762D01*
X142200286Y-90781143D01*
X150455334Y-107640381D02*
X150122000Y-107164190D01*
X149883905Y-107640381D02*
X149883905Y-106640381D01*
X150264858Y-106640381D01*
X150360096Y-106688000D01*
X150407715Y-106735619D01*
X150455334Y-106830857D01*
X150455334Y-106973714D01*
X150407715Y-107068952D01*
X150360096Y-107116571D01*
X150264858Y-107164190D01*
X149883905Y-107164190D01*
X150788667Y-106640381D02*
X151455334Y-106640381D01*
X151026762Y-107640381D01*
M02*
