G04 #@! TF.FileFunction,Legend,Top*
%FSLAX46Y46*%
G04 Gerber Fmt 4.6, Leading zero omitted, Abs format (unit mm)*
G04 Created by KiCad (PCBNEW 4.0.7) date 01/30/18 23:47:30*
%MOMM*%
%LPD*%
G01*
G04 APERTURE LIST*
%ADD10C,0.100000*%
%ADD11C,0.120000*%
%ADD12C,0.150000*%
G04 APERTURE END LIST*
D10*
D11*
X120405400Y-71822000D02*
G75*
G02X118405400Y-71822000I-1000000J0D01*
G01*
X118405400Y-71822000D02*
X116755400Y-71822000D01*
X116755400Y-71822000D02*
X116755400Y-82102000D01*
X116755400Y-82102000D02*
X122055400Y-82102000D01*
X122055400Y-82102000D02*
X122055400Y-71822000D01*
X122055400Y-71822000D02*
X120405400Y-71822000D01*
X114265400Y-71762000D02*
X114265400Y-82162000D01*
X114265400Y-82162000D02*
X124545400Y-82162000D01*
X124545400Y-82162000D02*
X124545400Y-71762000D01*
X124545400Y-71762000D02*
X114265400Y-71762000D01*
X120054200Y-83973600D02*
X120054200Y-87893600D01*
X117334200Y-83973600D02*
X117334200Y-87893600D01*
X120054200Y-83973600D02*
X119444200Y-83973600D01*
X117944200Y-83973600D02*
X117334200Y-83973600D01*
X120054200Y-87893600D02*
X119444200Y-87893600D01*
X117944200Y-87893600D02*
X117334200Y-87893600D01*
X114438323Y-88823522D02*
G75*
G03X114438600Y-84212220I-1179723J2305722D01*
G01*
X112078877Y-88823522D02*
G75*
G02X112078600Y-84212220I1179723J2305722D01*
G01*
X112078877Y-88823522D02*
G75*
G03X114438600Y-88823380I1179723J2305722D01*
G01*
X115808600Y-86517800D02*
X110708600Y-86517800D01*
X115808600Y-86557800D02*
X110708600Y-86557800D01*
X115807600Y-86597800D02*
X110709600Y-86597800D01*
X115806600Y-86637800D02*
X110710600Y-86637800D01*
X115804600Y-86677800D02*
X110712600Y-86677800D01*
X115801600Y-86717800D02*
X110715600Y-86717800D01*
X115797600Y-86757800D02*
X110719600Y-86757800D01*
X115793600Y-86797800D02*
X114238600Y-86797800D01*
X112278600Y-86797800D02*
X110723600Y-86797800D01*
X115789600Y-86837800D02*
X114238600Y-86837800D01*
X112278600Y-86837800D02*
X110727600Y-86837800D01*
X115783600Y-86877800D02*
X114238600Y-86877800D01*
X112278600Y-86877800D02*
X110733600Y-86877800D01*
X115777600Y-86917800D02*
X114238600Y-86917800D01*
X112278600Y-86917800D02*
X110739600Y-86917800D01*
X115771600Y-86957800D02*
X114238600Y-86957800D01*
X112278600Y-86957800D02*
X110745600Y-86957800D01*
X115764600Y-86997800D02*
X114238600Y-86997800D01*
X112278600Y-86997800D02*
X110752600Y-86997800D01*
X115756600Y-87037800D02*
X114238600Y-87037800D01*
X112278600Y-87037800D02*
X110760600Y-87037800D01*
X115747600Y-87077800D02*
X114238600Y-87077800D01*
X112278600Y-87077800D02*
X110769600Y-87077800D01*
X115738600Y-87117800D02*
X114238600Y-87117800D01*
X112278600Y-87117800D02*
X110778600Y-87117800D01*
X115728600Y-87157800D02*
X114238600Y-87157800D01*
X112278600Y-87157800D02*
X110788600Y-87157800D01*
X115718600Y-87197800D02*
X114238600Y-87197800D01*
X112278600Y-87197800D02*
X110798600Y-87197800D01*
X115706600Y-87238800D02*
X114238600Y-87238800D01*
X112278600Y-87238800D02*
X110810600Y-87238800D01*
X115694600Y-87278800D02*
X114238600Y-87278800D01*
X112278600Y-87278800D02*
X110822600Y-87278800D01*
X115682600Y-87318800D02*
X114238600Y-87318800D01*
X112278600Y-87318800D02*
X110834600Y-87318800D01*
X115668600Y-87358800D02*
X114238600Y-87358800D01*
X112278600Y-87358800D02*
X110848600Y-87358800D01*
X115654600Y-87398800D02*
X114238600Y-87398800D01*
X112278600Y-87398800D02*
X110862600Y-87398800D01*
X115640600Y-87438800D02*
X114238600Y-87438800D01*
X112278600Y-87438800D02*
X110876600Y-87438800D01*
X115624600Y-87478800D02*
X114238600Y-87478800D01*
X112278600Y-87478800D02*
X110892600Y-87478800D01*
X115608600Y-87518800D02*
X114238600Y-87518800D01*
X112278600Y-87518800D02*
X110908600Y-87518800D01*
X115591600Y-87558800D02*
X114238600Y-87558800D01*
X112278600Y-87558800D02*
X110925600Y-87558800D01*
X115573600Y-87598800D02*
X114238600Y-87598800D01*
X112278600Y-87598800D02*
X110943600Y-87598800D01*
X115554600Y-87638800D02*
X114238600Y-87638800D01*
X112278600Y-87638800D02*
X110962600Y-87638800D01*
X115534600Y-87678800D02*
X114238600Y-87678800D01*
X112278600Y-87678800D02*
X110982600Y-87678800D01*
X115514600Y-87718800D02*
X114238600Y-87718800D01*
X112278600Y-87718800D02*
X111002600Y-87718800D01*
X115492600Y-87758800D02*
X114238600Y-87758800D01*
X112278600Y-87758800D02*
X111024600Y-87758800D01*
X115470600Y-87798800D02*
X114238600Y-87798800D01*
X112278600Y-87798800D02*
X111046600Y-87798800D01*
X115447600Y-87838800D02*
X114238600Y-87838800D01*
X112278600Y-87838800D02*
X111069600Y-87838800D01*
X115423600Y-87878800D02*
X114238600Y-87878800D01*
X112278600Y-87878800D02*
X111093600Y-87878800D01*
X115398600Y-87918800D02*
X114238600Y-87918800D01*
X112278600Y-87918800D02*
X111118600Y-87918800D01*
X115371600Y-87958800D02*
X114238600Y-87958800D01*
X112278600Y-87958800D02*
X111145600Y-87958800D01*
X115344600Y-87998800D02*
X114238600Y-87998800D01*
X112278600Y-87998800D02*
X111172600Y-87998800D01*
X115316600Y-88038800D02*
X114238600Y-88038800D01*
X112278600Y-88038800D02*
X111200600Y-88038800D01*
X115286600Y-88078800D02*
X114238600Y-88078800D01*
X112278600Y-88078800D02*
X111230600Y-88078800D01*
X115255600Y-88118800D02*
X114238600Y-88118800D01*
X112278600Y-88118800D02*
X111261600Y-88118800D01*
X115223600Y-88158800D02*
X114238600Y-88158800D01*
X112278600Y-88158800D02*
X111293600Y-88158800D01*
X115190600Y-88198800D02*
X114238600Y-88198800D01*
X112278600Y-88198800D02*
X111326600Y-88198800D01*
X115155600Y-88238800D02*
X114238600Y-88238800D01*
X112278600Y-88238800D02*
X111361600Y-88238800D01*
X115119600Y-88278800D02*
X114238600Y-88278800D01*
X112278600Y-88278800D02*
X111397600Y-88278800D01*
X115081600Y-88318800D02*
X114238600Y-88318800D01*
X112278600Y-88318800D02*
X111435600Y-88318800D01*
X115041600Y-88358800D02*
X114238600Y-88358800D01*
X112278600Y-88358800D02*
X111475600Y-88358800D01*
X115000600Y-88398800D02*
X114238600Y-88398800D01*
X112278600Y-88398800D02*
X111516600Y-88398800D01*
X114957600Y-88438800D02*
X114238600Y-88438800D01*
X112278600Y-88438800D02*
X111559600Y-88438800D01*
X114912600Y-88478800D02*
X114238600Y-88478800D01*
X112278600Y-88478800D02*
X111604600Y-88478800D01*
X114864600Y-88518800D02*
X114238600Y-88518800D01*
X112278600Y-88518800D02*
X111652600Y-88518800D01*
X114814600Y-88558800D02*
X114238600Y-88558800D01*
X112278600Y-88558800D02*
X111702600Y-88558800D01*
X114762600Y-88598800D02*
X114238600Y-88598800D01*
X112278600Y-88598800D02*
X111754600Y-88598800D01*
X114706600Y-88638800D02*
X114238600Y-88638800D01*
X112278600Y-88638800D02*
X111810600Y-88638800D01*
X114648600Y-88678800D02*
X114238600Y-88678800D01*
X112278600Y-88678800D02*
X111868600Y-88678800D01*
X114585600Y-88718800D02*
X114238600Y-88718800D01*
X112278600Y-88718800D02*
X111931600Y-88718800D01*
X114519600Y-88758800D02*
X111997600Y-88758800D01*
X114447600Y-88798800D02*
X112069600Y-88798800D01*
X114370600Y-88838800D02*
X112146600Y-88838800D01*
X114286600Y-88878800D02*
X112230600Y-88878800D01*
X114192600Y-88918800D02*
X112324600Y-88918800D01*
X114087600Y-88958800D02*
X112429600Y-88958800D01*
X113965600Y-88998800D02*
X112551600Y-88998800D01*
X113817600Y-89038800D02*
X112699600Y-89038800D01*
X113612600Y-89078800D02*
X112904600Y-89078800D01*
X113258600Y-83067800D02*
X113258600Y-84267800D01*
X113908600Y-83667800D02*
X112608600Y-83667800D01*
X105791000Y-80899000D02*
X105791000Y-91059000D01*
X107061000Y-80899000D02*
X99441000Y-80899000D01*
X99441000Y-80899000D02*
X99441000Y-91059000D01*
X99441000Y-91059000D02*
X107061000Y-91059000D01*
X107061000Y-91059000D02*
X107061000Y-80899000D01*
X110399000Y-80172000D02*
X110069000Y-80172000D01*
X110069000Y-80172000D02*
X110069000Y-73752000D01*
X110069000Y-73752000D02*
X110399000Y-73752000D01*
X112359000Y-80172000D02*
X112689000Y-80172000D01*
X112689000Y-80172000D02*
X112689000Y-73752000D01*
X112689000Y-73752000D02*
X112359000Y-73752000D01*
X133842200Y-79262800D02*
X133842200Y-79592800D01*
X133842200Y-79592800D02*
X127422200Y-79592800D01*
X127422200Y-79592800D02*
X127422200Y-79262800D01*
X133842200Y-77302800D02*
X133842200Y-76972800D01*
X133842200Y-76972800D02*
X127422200Y-76972800D01*
X127422200Y-76972800D02*
X127422200Y-77302800D01*
X137918400Y-71105400D02*
X148538400Y-71105400D01*
X137918400Y-89126400D02*
X148538400Y-89126400D01*
X137918400Y-71105400D02*
X137918400Y-89126400D01*
X148538400Y-71105400D02*
X148538400Y-89126400D01*
X148538400Y-76555400D02*
X153538400Y-76555400D01*
X148538400Y-83675400D02*
X153538400Y-83675400D01*
X148538400Y-76555400D02*
X148538400Y-83675400D01*
X153538400Y-76555400D02*
X153538400Y-83675400D01*
X153538400Y-77055400D02*
X163538400Y-77055400D01*
X153538400Y-83175400D02*
X163538400Y-83175400D01*
X153538400Y-77055400D02*
X153538400Y-83175400D01*
X163538400Y-77055400D02*
X163538400Y-83175400D01*
X134587600Y-75273200D02*
X134587600Y-72453200D01*
X134587600Y-72453200D02*
X129267600Y-72453200D01*
X129267600Y-72453200D02*
X129267600Y-75273200D01*
X129267600Y-75273200D02*
X134587600Y-75273200D01*
X135927600Y-73863200D02*
X134587600Y-73863200D01*
X127927600Y-73863200D02*
X129267600Y-73863200D01*
X133747600Y-75273200D02*
X133747600Y-72453200D01*
X129267600Y-80962200D02*
X129267600Y-83782200D01*
X129267600Y-83782200D02*
X134587600Y-83782200D01*
X134587600Y-83782200D02*
X134587600Y-80962200D01*
X134587600Y-80962200D02*
X129267600Y-80962200D01*
X127927600Y-82372200D02*
X129267600Y-82372200D01*
X135927600Y-82372200D02*
X134587600Y-82372200D01*
X130107600Y-80962200D02*
X130107600Y-83782200D01*
X106311400Y-87140400D02*
X109131400Y-87140400D01*
X109131400Y-87140400D02*
X109131400Y-81820400D01*
X109131400Y-81820400D02*
X106311400Y-81820400D01*
X106311400Y-81820400D02*
X106311400Y-87140400D01*
X107721400Y-88480400D02*
X107721400Y-87140400D01*
X107721400Y-80480400D02*
X107721400Y-81820400D01*
X106311400Y-86300400D02*
X109131400Y-86300400D01*
X129580000Y-90637200D02*
X138580000Y-90637200D01*
X129480000Y-81617200D02*
X138610000Y-81617200D01*
X129480000Y-81617200D02*
X129480000Y-93287200D01*
X138610000Y-93287200D02*
X138610000Y-81617200D01*
X138610000Y-93287200D02*
X129480000Y-93287200D01*
X119888000Y-84479400D02*
X130048000Y-84479400D01*
X130048000Y-90319400D02*
X119888000Y-90319400D01*
X119888000Y-90319400D02*
X119888000Y-84479400D01*
X130048000Y-90319400D02*
X130048000Y-84479400D01*
X102036000Y-74298400D02*
X102036000Y-77898400D01*
X102763205Y-73774216D02*
G75*
G03X102036000Y-74298400I1122795J-2324184D01*
G01*
X104984807Y-73742000D02*
G75*
G02X106486000Y-76098400I-1098807J-2356400D01*
G01*
X104984807Y-78454800D02*
G75*
G03X106486000Y-76098400I-1098807J2356400D01*
G01*
X102763205Y-78422584D02*
G75*
G02X102036000Y-77898400I1122795J2324184D01*
G01*
D12*
X118618095Y-76414381D02*
X118618095Y-77223905D01*
X118665714Y-77319143D01*
X118713333Y-77366762D01*
X118808571Y-77414381D01*
X118999048Y-77414381D01*
X119094286Y-77366762D01*
X119141905Y-77319143D01*
X119189524Y-77223905D01*
X119189524Y-76414381D01*
X120189524Y-77414381D02*
X119618095Y-77414381D01*
X119903809Y-77414381D02*
X119903809Y-76414381D01*
X119808571Y-76557238D01*
X119713333Y-76652476D01*
X119618095Y-76700095D01*
X118975143Y-89193666D02*
X119022762Y-89241285D01*
X119070381Y-89384142D01*
X119070381Y-89479380D01*
X119022762Y-89622238D01*
X118927524Y-89717476D01*
X118832286Y-89765095D01*
X118641810Y-89812714D01*
X118498952Y-89812714D01*
X118308476Y-89765095D01*
X118213238Y-89717476D01*
X118118000Y-89622238D01*
X118070381Y-89479380D01*
X118070381Y-89384142D01*
X118118000Y-89241285D01*
X118165619Y-89193666D01*
X119070381Y-88241285D02*
X119070381Y-88812714D01*
X119070381Y-88527000D02*
X118070381Y-88527000D01*
X118213238Y-88622238D01*
X118308476Y-88717476D01*
X118356095Y-88812714D01*
X116054143Y-89701666D02*
X116101762Y-89749285D01*
X116149381Y-89892142D01*
X116149381Y-89987380D01*
X116101762Y-90130238D01*
X116006524Y-90225476D01*
X115911286Y-90273095D01*
X115720810Y-90320714D01*
X115577952Y-90320714D01*
X115387476Y-90273095D01*
X115292238Y-90225476D01*
X115197000Y-90130238D01*
X115149381Y-89987380D01*
X115149381Y-89892142D01*
X115197000Y-89749285D01*
X115244619Y-89701666D01*
X115244619Y-89320714D02*
X115197000Y-89273095D01*
X115149381Y-89177857D01*
X115149381Y-88939761D01*
X115197000Y-88844523D01*
X115244619Y-88796904D01*
X115339857Y-88749285D01*
X115435095Y-88749285D01*
X115577952Y-88796904D01*
X116149381Y-89368333D01*
X116149381Y-88749285D01*
X106243381Y-87859905D02*
X105243381Y-87859905D01*
X105957667Y-87526571D01*
X105243381Y-87193238D01*
X106243381Y-87193238D01*
X105243381Y-86526572D02*
X105243381Y-86336095D01*
X105291000Y-86240857D01*
X105386238Y-86145619D01*
X105576714Y-86098000D01*
X105910048Y-86098000D01*
X106100524Y-86145619D01*
X106195762Y-86240857D01*
X106243381Y-86336095D01*
X106243381Y-86526572D01*
X106195762Y-86621810D01*
X106100524Y-86717048D01*
X105910048Y-86764667D01*
X105576714Y-86764667D01*
X105386238Y-86717048D01*
X105291000Y-86621810D01*
X105243381Y-86526572D01*
X105243381Y-85812286D02*
X105243381Y-85240857D01*
X106243381Y-85526572D02*
X105243381Y-85526572D01*
X105243381Y-84717048D02*
X105243381Y-84526571D01*
X105291000Y-84431333D01*
X105386238Y-84336095D01*
X105576714Y-84288476D01*
X105910048Y-84288476D01*
X106100524Y-84336095D01*
X106195762Y-84431333D01*
X106243381Y-84526571D01*
X106243381Y-84717048D01*
X106195762Y-84812286D01*
X106100524Y-84907524D01*
X105910048Y-84955143D01*
X105576714Y-84955143D01*
X105386238Y-84907524D01*
X105291000Y-84812286D01*
X105243381Y-84717048D01*
X106243381Y-83288476D02*
X105767190Y-83621810D01*
X106243381Y-83859905D02*
X105243381Y-83859905D01*
X105243381Y-83478952D01*
X105291000Y-83383714D01*
X105338619Y-83336095D01*
X105433857Y-83288476D01*
X105576714Y-83288476D01*
X105671952Y-83336095D01*
X105719571Y-83383714D01*
X105767190Y-83478952D01*
X105767190Y-83859905D01*
X111831381Y-77001666D02*
X111355190Y-77335000D01*
X111831381Y-77573095D02*
X110831381Y-77573095D01*
X110831381Y-77192142D01*
X110879000Y-77096904D01*
X110926619Y-77049285D01*
X111021857Y-77001666D01*
X111164714Y-77001666D01*
X111259952Y-77049285D01*
X111307571Y-77096904D01*
X111355190Y-77192142D01*
X111355190Y-77573095D01*
X111831381Y-76049285D02*
X111831381Y-76620714D01*
X111831381Y-76335000D02*
X110831381Y-76335000D01*
X110974238Y-76430238D01*
X111069476Y-76525476D01*
X111117095Y-76620714D01*
X130516334Y-78684381D02*
X130183000Y-78208190D01*
X129944905Y-78684381D02*
X129944905Y-77684381D01*
X130325858Y-77684381D01*
X130421096Y-77732000D01*
X130468715Y-77779619D01*
X130516334Y-77874857D01*
X130516334Y-78017714D01*
X130468715Y-78112952D01*
X130421096Y-78160571D01*
X130325858Y-78208190D01*
X129944905Y-78208190D01*
X130897286Y-77779619D02*
X130944905Y-77732000D01*
X131040143Y-77684381D01*
X131278239Y-77684381D01*
X131373477Y-77732000D01*
X131421096Y-77779619D01*
X131468715Y-77874857D01*
X131468715Y-77970095D01*
X131421096Y-78112952D01*
X130849667Y-78684381D01*
X131468715Y-78684381D01*
X141930381Y-81176667D02*
X140930381Y-81176667D01*
X140930381Y-80795714D01*
X140978000Y-80700476D01*
X141025619Y-80652857D01*
X141120857Y-80605238D01*
X141263714Y-80605238D01*
X141358952Y-80652857D01*
X141406571Y-80700476D01*
X141454190Y-80795714D01*
X141454190Y-81176667D01*
X140930381Y-79986191D02*
X140930381Y-79795714D01*
X140978000Y-79700476D01*
X141073238Y-79605238D01*
X141263714Y-79557619D01*
X141597048Y-79557619D01*
X141787524Y-79605238D01*
X141882762Y-79700476D01*
X141930381Y-79795714D01*
X141930381Y-79986191D01*
X141882762Y-80081429D01*
X141787524Y-80176667D01*
X141597048Y-80224286D01*
X141263714Y-80224286D01*
X141073238Y-80176667D01*
X140978000Y-80081429D01*
X140930381Y-79986191D01*
X140930381Y-79271905D02*
X140930381Y-78700476D01*
X141930381Y-78986191D02*
X140930381Y-78986191D01*
X131214905Y-74366381D02*
X131214905Y-73366381D01*
X131453000Y-73366381D01*
X131595858Y-73414000D01*
X131691096Y-73509238D01*
X131738715Y-73604476D01*
X131786334Y-73794952D01*
X131786334Y-73937810D01*
X131738715Y-74128286D01*
X131691096Y-74223524D01*
X131595858Y-74318762D01*
X131453000Y-74366381D01*
X131214905Y-74366381D01*
X132738715Y-74366381D02*
X132167286Y-74366381D01*
X132453000Y-74366381D02*
X132453000Y-73366381D01*
X132357762Y-73509238D01*
X132262524Y-73604476D01*
X132167286Y-73652095D01*
X131214905Y-82875381D02*
X131214905Y-81875381D01*
X131453000Y-81875381D01*
X131595858Y-81923000D01*
X131691096Y-82018238D01*
X131738715Y-82113476D01*
X131786334Y-82303952D01*
X131786334Y-82446810D01*
X131738715Y-82637286D01*
X131691096Y-82732524D01*
X131595858Y-82827762D01*
X131453000Y-82875381D01*
X131214905Y-82875381D01*
X132167286Y-81970619D02*
X132214905Y-81923000D01*
X132310143Y-81875381D01*
X132548239Y-81875381D01*
X132643477Y-81923000D01*
X132691096Y-81970619D01*
X132738715Y-82065857D01*
X132738715Y-82161095D01*
X132691096Y-82303952D01*
X132119667Y-82875381D01*
X132738715Y-82875381D01*
X108148381Y-85193095D02*
X107148381Y-85193095D01*
X107148381Y-84955000D01*
X107196000Y-84812142D01*
X107291238Y-84716904D01*
X107386476Y-84669285D01*
X107576952Y-84621666D01*
X107719810Y-84621666D01*
X107910286Y-84669285D01*
X108005524Y-84716904D01*
X108100762Y-84812142D01*
X108148381Y-84955000D01*
X108148381Y-85193095D01*
X107148381Y-84288333D02*
X107148381Y-83669285D01*
X107529333Y-84002619D01*
X107529333Y-83859761D01*
X107576952Y-83764523D01*
X107624571Y-83716904D01*
X107719810Y-83669285D01*
X107957905Y-83669285D01*
X108053143Y-83716904D01*
X108100762Y-83764523D01*
X108148381Y-83859761D01*
X108148381Y-84145476D01*
X108100762Y-84240714D01*
X108053143Y-84288333D01*
X133246905Y-85780571D02*
X133389762Y-85828190D01*
X133437381Y-85875810D01*
X133485000Y-85971048D01*
X133485000Y-86113905D01*
X133437381Y-86209143D01*
X133389762Y-86256762D01*
X133294524Y-86304381D01*
X132913571Y-86304381D01*
X132913571Y-85304381D01*
X133246905Y-85304381D01*
X133342143Y-85352000D01*
X133389762Y-85399619D01*
X133437381Y-85494857D01*
X133437381Y-85590095D01*
X133389762Y-85685333D01*
X133342143Y-85732952D01*
X133246905Y-85780571D01*
X132913571Y-85780571D01*
X133865952Y-86018667D02*
X134342143Y-86018667D01*
X133770714Y-86304381D02*
X134104047Y-85304381D01*
X134437381Y-86304381D01*
X134627857Y-85304381D02*
X135199286Y-85304381D01*
X134913571Y-86304381D02*
X134913571Y-85304381D01*
X122468000Y-86383762D02*
X122610857Y-86431381D01*
X122848953Y-86431381D01*
X122944191Y-86383762D01*
X122991810Y-86336143D01*
X123039429Y-86240905D01*
X123039429Y-86145667D01*
X122991810Y-86050429D01*
X122944191Y-86002810D01*
X122848953Y-85955190D01*
X122658476Y-85907571D01*
X122563238Y-85859952D01*
X122515619Y-85812333D01*
X122468000Y-85717095D01*
X122468000Y-85621857D01*
X122515619Y-85526619D01*
X122563238Y-85479000D01*
X122658476Y-85431381D01*
X122896572Y-85431381D01*
X123039429Y-85479000D01*
X123372762Y-85431381D02*
X123610857Y-86431381D01*
X123801334Y-85717095D01*
X123991810Y-86431381D01*
X124229905Y-85431381D01*
X124610857Y-86431381D02*
X124610857Y-85431381D01*
X124944190Y-85431381D02*
X125515619Y-85431381D01*
X125229904Y-86431381D02*
X125229904Y-85431381D01*
X126420381Y-86336143D02*
X126372762Y-86383762D01*
X126229905Y-86431381D01*
X126134667Y-86431381D01*
X125991809Y-86383762D01*
X125896571Y-86288524D01*
X125848952Y-86193286D01*
X125801333Y-86002810D01*
X125801333Y-85859952D01*
X125848952Y-85669476D01*
X125896571Y-85574238D01*
X125991809Y-85479000D01*
X126134667Y-85431381D01*
X126229905Y-85431381D01*
X126372762Y-85479000D01*
X126420381Y-85526619D01*
X126848952Y-86431381D02*
X126848952Y-85431381D01*
X126848952Y-85907571D02*
X127420381Y-85907571D01*
X127420381Y-86431381D02*
X127420381Y-85431381D01*
X105243381Y-78414286D02*
X105243381Y-77842857D01*
X106243381Y-78128572D02*
X105243381Y-78128572D01*
X106243381Y-76938095D02*
X105767190Y-77271429D01*
X106243381Y-77509524D02*
X105243381Y-77509524D01*
X105243381Y-77128571D01*
X105291000Y-77033333D01*
X105338619Y-76985714D01*
X105433857Y-76938095D01*
X105576714Y-76938095D01*
X105671952Y-76985714D01*
X105719571Y-77033333D01*
X105767190Y-77128571D01*
X105767190Y-77509524D01*
X105957667Y-76557143D02*
X105957667Y-76080952D01*
X106243381Y-76652381D02*
X105243381Y-76319048D01*
X106243381Y-75985714D01*
X106243381Y-75652381D02*
X105243381Y-75652381D01*
X106243381Y-75080952D01*
X105243381Y-75080952D01*
X106195762Y-74652381D02*
X106243381Y-74509524D01*
X106243381Y-74271428D01*
X106195762Y-74176190D01*
X106148143Y-74128571D01*
X106052905Y-74080952D01*
X105957667Y-74080952D01*
X105862429Y-74128571D01*
X105814810Y-74176190D01*
X105767190Y-74271428D01*
X105719571Y-74461905D01*
X105671952Y-74557143D01*
X105624333Y-74604762D01*
X105529095Y-74652381D01*
X105433857Y-74652381D01*
X105338619Y-74604762D01*
X105291000Y-74557143D01*
X105243381Y-74461905D01*
X105243381Y-74223809D01*
X105291000Y-74080952D01*
M02*
