M48
INCH,TZ
T1C0.031
T2C0.039
%
G90
G05
T1
X61460Y-30560
X61460Y-33560
X61500Y-41440
X62460Y-30560
X62460Y-33560
X63460Y-30560
X63460Y-33560
X64460Y-30560
X64460Y-33560
X64500Y-35260
X64500Y-41260
X65460Y-30560
X65460Y-33560
X65500Y-35260
X65500Y-41260
X66460Y-30560
X66460Y-33560
X66500Y-35260
X66500Y-41260
X67460Y-30560
X67460Y-33560
X67500Y-35260
X67500Y-41260
X68460Y-30560
X68460Y-33560
X68500Y-35260
X68500Y-41260
X69700Y-36560
X69700Y-39560
T2
X61460Y-36060
X61460Y-37060
X61460Y-38060
X61460Y-39060
X61460Y-40060
X71420Y-32080
X71420Y-33080
X71460Y-36060
X71460Y-37060
X71460Y-38060
X71460Y-39060
X71460Y-40060
T0
M30
