G04 #@! TF.FileFunction,Copper,L1,Top,Signal*
%FSLAX46Y46*%
G04 Gerber Fmt 4.6, Leading zero omitted, Abs format (unit mm)*
G04 Created by KiCad (PCBNEW 4.0.7) date 12/07/18 00:23:05*
%MOMM*%
%LPD*%
G01*
G04 APERTURE LIST*
%ADD10C,0.100000*%
%ADD11R,1.700000X1.700000*%
%ADD12O,1.700000X1.700000*%
%ADD13R,1.600000X1.600000*%
%ADD14O,1.600000X1.600000*%
%ADD15O,1.524000X2.524000*%
%ADD16C,1.600000*%
%ADD17R,1.200000X0.900000*%
%ADD18R,1.350000X1.350000*%
%ADD19C,0.250000*%
%ADD20C,0.254000*%
G04 APERTURE END LIST*
D10*
D11*
X181406800Y-81483200D03*
D12*
X181406800Y-84023200D03*
D11*
X181508400Y-101752400D03*
D12*
X181508400Y-99212400D03*
X181508400Y-96672400D03*
X181508400Y-94132400D03*
X181508400Y-91592400D03*
D13*
X173888400Y-77622400D03*
D14*
X156108400Y-85242400D03*
X171348400Y-77622400D03*
X158648400Y-85242400D03*
X168808400Y-77622400D03*
X161188400Y-85242400D03*
X166268400Y-77622400D03*
X163728400Y-85242400D03*
X163728400Y-77622400D03*
X166268400Y-85242400D03*
X161188400Y-77622400D03*
X168808400Y-85242400D03*
X158648400Y-77622400D03*
X171348400Y-85242400D03*
X156108400Y-77622400D03*
X173888400Y-85242400D03*
D15*
X163830000Y-104800400D03*
X166370000Y-104800400D03*
X168910000Y-104800400D03*
X171450000Y-104800400D03*
X173990000Y-104800400D03*
X173990000Y-89560400D03*
X171450000Y-89560400D03*
X168910000Y-89560400D03*
X166370000Y-89560400D03*
X163830000Y-89560400D03*
D11*
X156108400Y-101752400D03*
D12*
X156108400Y-99212400D03*
X156108400Y-96672400D03*
X156108400Y-94132400D03*
X156108400Y-91592400D03*
D16*
X177038000Y-92862400D03*
D14*
X177038000Y-100482400D03*
D17*
X176547600Y-104444800D03*
X178747600Y-104444800D03*
D18*
X156210000Y-105257600D03*
D19*
X163728400Y-85242400D02*
X161188400Y-85242400D01*
X161188400Y-85242400D02*
X156362400Y-90068400D01*
X156362400Y-90068400D02*
X155600400Y-90068400D01*
X155600400Y-90068400D02*
X154279600Y-91389200D01*
X154279600Y-91389200D02*
X154279600Y-94843600D01*
X154279600Y-94843600D02*
X156108400Y-96672400D01*
X171348400Y-77622400D02*
X171348400Y-78892400D01*
X171450000Y-97586800D02*
X171450000Y-104800400D01*
X175818800Y-93218000D02*
X171450000Y-97586800D01*
X175818800Y-83362800D02*
X175818800Y-93218000D01*
X171348400Y-78892400D02*
X175818800Y-83362800D01*
X168808400Y-77622400D02*
X168808400Y-79044800D01*
X166370000Y-98552000D02*
X166370000Y-104800400D01*
X172618400Y-92303600D02*
X166370000Y-98552000D01*
X172618400Y-82854800D02*
X172618400Y-92303600D01*
X168808400Y-79044800D02*
X172618400Y-82854800D01*
X166268400Y-77622400D02*
X166268400Y-79552800D01*
X163830000Y-97942400D02*
X163830000Y-104800400D01*
X170180000Y-91592400D02*
X163830000Y-97942400D01*
X170180000Y-83464400D02*
X170180000Y-91592400D01*
X166268400Y-79552800D02*
X170180000Y-83464400D01*
X171450000Y-89560400D02*
X171450000Y-85344000D01*
X171450000Y-85344000D02*
X171348400Y-85242400D01*
X168808400Y-85242400D02*
X168808400Y-86512400D01*
X162610800Y-87630000D02*
X156108400Y-94132400D01*
X167690800Y-87630000D02*
X162610800Y-87630000D01*
X168808400Y-86512400D02*
X167690800Y-87630000D01*
X166268400Y-85242400D02*
X166268400Y-85394800D01*
X166268400Y-85394800D02*
X164947600Y-86715600D01*
X160985200Y-86715600D02*
X156108400Y-91592400D01*
X164947600Y-86715600D02*
X160985200Y-86715600D01*
X178747600Y-104444800D02*
X178747600Y-102192000D01*
X178747600Y-102192000D02*
X177038000Y-100482400D01*
X168910000Y-89560400D02*
X168910000Y-90474800D01*
X168910000Y-90474800D02*
X162102800Y-97282000D01*
X167132000Y-106578400D02*
X168910000Y-104800400D01*
X163068000Y-106578400D02*
X167132000Y-106578400D01*
X162102800Y-105613200D02*
X163068000Y-106578400D01*
X162102800Y-97282000D02*
X162102800Y-105613200D01*
D20*
G36*
X183998800Y-106325600D02*
X174930399Y-106325600D01*
X175232059Y-105952341D01*
X175387000Y-105427400D01*
X175387000Y-105200727D01*
X175409273Y-105254499D01*
X175587902Y-105433127D01*
X175821291Y-105529800D01*
X176261850Y-105529800D01*
X176420600Y-105371050D01*
X176420600Y-104571800D01*
X176400600Y-104571800D01*
X176400600Y-104317800D01*
X176420600Y-104317800D01*
X176420600Y-103518550D01*
X176261850Y-103359800D01*
X175821291Y-103359800D01*
X175587902Y-103456473D01*
X175409273Y-103635101D01*
X175312600Y-103868490D01*
X175312600Y-103921332D01*
X175232059Y-103648459D01*
X174888026Y-103222770D01*
X174407277Y-102961140D01*
X174333070Y-102946180D01*
X174117000Y-103068680D01*
X174117000Y-104673400D01*
X174137000Y-104673400D01*
X174137000Y-104927400D01*
X174117000Y-104927400D01*
X174117000Y-104947400D01*
X173863000Y-104947400D01*
X173863000Y-104927400D01*
X173843000Y-104927400D01*
X173843000Y-104673400D01*
X173863000Y-104673400D01*
X173863000Y-103068680D01*
X173646930Y-102946180D01*
X173572723Y-102961140D01*
X173091974Y-103222770D01*
X172747941Y-103648459D01*
X172729298Y-103711622D01*
X172437828Y-103275408D01*
X172210000Y-103123178D01*
X172210000Y-100454287D01*
X175603000Y-100454287D01*
X175603000Y-100510513D01*
X175712233Y-101059664D01*
X176023302Y-101525211D01*
X176488849Y-101836280D01*
X177038000Y-101945513D01*
X177361886Y-101881088D01*
X177987600Y-102506803D01*
X177987600Y-103377466D01*
X177912283Y-103391638D01*
X177696159Y-103530710D01*
X177649631Y-103598806D01*
X177507298Y-103456473D01*
X177273909Y-103359800D01*
X176833350Y-103359800D01*
X176674600Y-103518550D01*
X176674600Y-104317800D01*
X176694600Y-104317800D01*
X176694600Y-104571800D01*
X176674600Y-104571800D01*
X176674600Y-105371050D01*
X176833350Y-105529800D01*
X177273909Y-105529800D01*
X177507298Y-105433127D01*
X177648536Y-105291890D01*
X177683510Y-105346241D01*
X177895710Y-105491231D01*
X178147600Y-105542240D01*
X179347600Y-105542240D01*
X179582917Y-105497962D01*
X179799041Y-105358890D01*
X179944031Y-105146690D01*
X179995040Y-104894800D01*
X179995040Y-103994800D01*
X179950762Y-103759483D01*
X179811690Y-103543359D01*
X179599490Y-103398369D01*
X179507600Y-103379761D01*
X179507600Y-102192000D01*
X179449748Y-101901161D01*
X179406396Y-101836280D01*
X179285002Y-101654599D01*
X178532803Y-100902400D01*
X180010960Y-100902400D01*
X180010960Y-102602400D01*
X180055238Y-102837717D01*
X180194310Y-103053841D01*
X180406510Y-103198831D01*
X180658400Y-103249840D01*
X182358400Y-103249840D01*
X182593717Y-103205562D01*
X182809841Y-103066490D01*
X182954831Y-102854290D01*
X183005840Y-102602400D01*
X183005840Y-100902400D01*
X182961562Y-100667083D01*
X182822490Y-100450959D01*
X182610290Y-100305969D01*
X182502293Y-100284099D01*
X182780045Y-99979324D01*
X182949876Y-99569290D01*
X182828555Y-99339400D01*
X181635400Y-99339400D01*
X181635400Y-99359400D01*
X181381400Y-99359400D01*
X181381400Y-99339400D01*
X180188245Y-99339400D01*
X180066924Y-99569290D01*
X180236755Y-99979324D01*
X180512901Y-100282337D01*
X180423083Y-100299238D01*
X180206959Y-100438310D01*
X180061969Y-100650510D01*
X180010960Y-100902400D01*
X178532803Y-100902400D01*
X178417904Y-100787501D01*
X178473000Y-100510513D01*
X178473000Y-100454287D01*
X178363767Y-99905136D01*
X178052698Y-99439589D01*
X177587151Y-99128520D01*
X177038000Y-99019287D01*
X176488849Y-99128520D01*
X176023302Y-99439589D01*
X175712233Y-99905136D01*
X175603000Y-100454287D01*
X172210000Y-100454287D01*
X172210000Y-97901602D01*
X176217175Y-93894427D01*
X176283995Y-94116264D01*
X176821223Y-94309365D01*
X177391454Y-94282178D01*
X177792005Y-94116264D01*
X177866139Y-93870145D01*
X177038000Y-93042005D01*
X177023858Y-93056148D01*
X176844253Y-92876543D01*
X176858395Y-92862400D01*
X177217605Y-92862400D01*
X178045745Y-93690539D01*
X178291864Y-93616405D01*
X178484965Y-93079177D01*
X178457778Y-92508946D01*
X178291864Y-92108395D01*
X178045745Y-92034261D01*
X177217605Y-92862400D01*
X176858395Y-92862400D01*
X176844253Y-92848258D01*
X177023858Y-92668652D01*
X177038000Y-92682795D01*
X177866139Y-91854655D01*
X177792005Y-91608536D01*
X177747113Y-91592400D01*
X179994307Y-91592400D01*
X180107346Y-92160685D01*
X180429253Y-92642454D01*
X180758426Y-92862400D01*
X180429253Y-93082346D01*
X180107346Y-93564115D01*
X179994307Y-94132400D01*
X180107346Y-94700685D01*
X180429253Y-95182454D01*
X180758426Y-95402400D01*
X180429253Y-95622346D01*
X180107346Y-96104115D01*
X179994307Y-96672400D01*
X180107346Y-97240685D01*
X180429253Y-97722454D01*
X180769953Y-97950102D01*
X180627042Y-98017217D01*
X180236755Y-98445476D01*
X180066924Y-98855510D01*
X180188245Y-99085400D01*
X181381400Y-99085400D01*
X181381400Y-99065400D01*
X181635400Y-99065400D01*
X181635400Y-99085400D01*
X182828555Y-99085400D01*
X182949876Y-98855510D01*
X182780045Y-98445476D01*
X182389758Y-98017217D01*
X182246847Y-97950102D01*
X182587547Y-97722454D01*
X182909454Y-97240685D01*
X183022493Y-96672400D01*
X182909454Y-96104115D01*
X182587547Y-95622346D01*
X182258374Y-95402400D01*
X182587547Y-95182454D01*
X182909454Y-94700685D01*
X183022493Y-94132400D01*
X182909454Y-93564115D01*
X182587547Y-93082346D01*
X182258374Y-92862400D01*
X182587547Y-92642454D01*
X182909454Y-92160685D01*
X183022493Y-91592400D01*
X182909454Y-91024115D01*
X182587547Y-90542346D01*
X182105778Y-90220439D01*
X181537493Y-90107400D01*
X181479307Y-90107400D01*
X180911022Y-90220439D01*
X180429253Y-90542346D01*
X180107346Y-91024115D01*
X179994307Y-91592400D01*
X177747113Y-91592400D01*
X177254777Y-91415435D01*
X176684546Y-91442622D01*
X176578800Y-91486424D01*
X176578800Y-84023200D01*
X179892707Y-84023200D01*
X180005746Y-84591485D01*
X180327653Y-85073254D01*
X180809422Y-85395161D01*
X181377707Y-85508200D01*
X181435893Y-85508200D01*
X182004178Y-85395161D01*
X182485947Y-85073254D01*
X182807854Y-84591485D01*
X182920893Y-84023200D01*
X182807854Y-83454915D01*
X182485947Y-82973146D01*
X182442023Y-82943797D01*
X182616498Y-82871527D01*
X182795127Y-82692899D01*
X182891800Y-82459510D01*
X182891800Y-81768950D01*
X182733050Y-81610200D01*
X181533800Y-81610200D01*
X181533800Y-81630200D01*
X181279800Y-81630200D01*
X181279800Y-81610200D01*
X180080550Y-81610200D01*
X179921800Y-81768950D01*
X179921800Y-82459510D01*
X180018473Y-82692899D01*
X180197102Y-82871527D01*
X180371577Y-82943797D01*
X180327653Y-82973146D01*
X180005746Y-83454915D01*
X179892707Y-84023200D01*
X176578800Y-84023200D01*
X176578800Y-83362800D01*
X176520948Y-83071961D01*
X176520948Y-83071960D01*
X176356201Y-82825399D01*
X174037692Y-80506890D01*
X179921800Y-80506890D01*
X179921800Y-81197450D01*
X180080550Y-81356200D01*
X181279800Y-81356200D01*
X181279800Y-80156950D01*
X181533800Y-80156950D01*
X181533800Y-81356200D01*
X182733050Y-81356200D01*
X182891800Y-81197450D01*
X182891800Y-80506890D01*
X182795127Y-80273501D01*
X182616498Y-80094873D01*
X182383109Y-79998200D01*
X181692550Y-79998200D01*
X181533800Y-80156950D01*
X181279800Y-80156950D01*
X181121050Y-79998200D01*
X180430491Y-79998200D01*
X180197102Y-80094873D01*
X180018473Y-80273501D01*
X179921800Y-80506890D01*
X174037692Y-80506890D01*
X172262938Y-78732136D01*
X172363098Y-78665211D01*
X172459501Y-78520935D01*
X172485238Y-78657717D01*
X172624310Y-78873841D01*
X172836510Y-79018831D01*
X173088400Y-79069840D01*
X174688400Y-79069840D01*
X174923717Y-79025562D01*
X175139841Y-78886490D01*
X175284831Y-78674290D01*
X175335840Y-78422400D01*
X175335840Y-76822400D01*
X175291562Y-76587083D01*
X175152490Y-76370959D01*
X174940290Y-76225969D01*
X174688400Y-76174960D01*
X173088400Y-76174960D01*
X172853083Y-76219238D01*
X172636959Y-76358310D01*
X172491969Y-76570510D01*
X172460585Y-76725489D01*
X172363098Y-76579589D01*
X171897551Y-76268520D01*
X171348400Y-76159287D01*
X170799249Y-76268520D01*
X170333702Y-76579589D01*
X170078400Y-76961675D01*
X169823098Y-76579589D01*
X169357551Y-76268520D01*
X168808400Y-76159287D01*
X168259249Y-76268520D01*
X167793702Y-76579589D01*
X167538400Y-76961675D01*
X167283098Y-76579589D01*
X166817551Y-76268520D01*
X166268400Y-76159287D01*
X165719249Y-76268520D01*
X165253702Y-76579589D01*
X164998400Y-76961675D01*
X164743098Y-76579589D01*
X164277551Y-76268520D01*
X163728400Y-76159287D01*
X163179249Y-76268520D01*
X162713702Y-76579589D01*
X162458400Y-76961675D01*
X162203098Y-76579589D01*
X161737551Y-76268520D01*
X161188400Y-76159287D01*
X160639249Y-76268520D01*
X160173702Y-76579589D01*
X159918400Y-76961675D01*
X159663098Y-76579589D01*
X159197551Y-76268520D01*
X158648400Y-76159287D01*
X158099249Y-76268520D01*
X157633702Y-76579589D01*
X157378400Y-76961675D01*
X157123098Y-76579589D01*
X156657551Y-76268520D01*
X156108400Y-76159287D01*
X155559249Y-76268520D01*
X155093702Y-76579589D01*
X154782633Y-77045136D01*
X154673400Y-77594287D01*
X154673400Y-77650513D01*
X154782633Y-78199664D01*
X155093702Y-78665211D01*
X155559249Y-78976280D01*
X156108400Y-79085513D01*
X156657551Y-78976280D01*
X157123098Y-78665211D01*
X157378400Y-78283125D01*
X157633702Y-78665211D01*
X158099249Y-78976280D01*
X158648400Y-79085513D01*
X159197551Y-78976280D01*
X159663098Y-78665211D01*
X159918400Y-78283125D01*
X160173702Y-78665211D01*
X160639249Y-78976280D01*
X161188400Y-79085513D01*
X161737551Y-78976280D01*
X162203098Y-78665211D01*
X162458400Y-78283125D01*
X162713702Y-78665211D01*
X163179249Y-78976280D01*
X163728400Y-79085513D01*
X164277551Y-78976280D01*
X164743098Y-78665211D01*
X164998400Y-78283125D01*
X165253702Y-78665211D01*
X165508400Y-78835395D01*
X165508400Y-79552800D01*
X165566252Y-79843639D01*
X165730999Y-80090201D01*
X169420000Y-83779202D01*
X169420000Y-83930247D01*
X169357551Y-83888520D01*
X168808400Y-83779287D01*
X168259249Y-83888520D01*
X167793702Y-84199589D01*
X167538400Y-84581675D01*
X167283098Y-84199589D01*
X166817551Y-83888520D01*
X166268400Y-83779287D01*
X165719249Y-83888520D01*
X165253702Y-84199589D01*
X164998400Y-84581675D01*
X164743098Y-84199589D01*
X164277551Y-83888520D01*
X163728400Y-83779287D01*
X163179249Y-83888520D01*
X162713702Y-84199589D01*
X162524733Y-84482400D01*
X162392067Y-84482400D01*
X162203098Y-84199589D01*
X161737551Y-83888520D01*
X161188400Y-83779287D01*
X160639249Y-83888520D01*
X160173702Y-84199589D01*
X159903414Y-84604103D01*
X159800789Y-84387266D01*
X159385823Y-84011359D01*
X158997439Y-83850496D01*
X158775400Y-83972485D01*
X158775400Y-85115400D01*
X158795400Y-85115400D01*
X158795400Y-85369400D01*
X158775400Y-85369400D01*
X158775400Y-86512315D01*
X158819471Y-86536527D01*
X156047598Y-89308400D01*
X155600400Y-89308400D01*
X155309560Y-89366252D01*
X155062999Y-89530999D01*
X153742199Y-90851799D01*
X153577452Y-91098361D01*
X153519600Y-91389200D01*
X153519600Y-94843600D01*
X153577452Y-95134439D01*
X153742199Y-95381001D01*
X154667190Y-96305992D01*
X154594307Y-96672400D01*
X154707346Y-97240685D01*
X155029253Y-97722454D01*
X155369953Y-97950102D01*
X155227042Y-98017217D01*
X154836755Y-98445476D01*
X154666924Y-98855510D01*
X154788245Y-99085400D01*
X155981400Y-99085400D01*
X155981400Y-99065400D01*
X156235400Y-99065400D01*
X156235400Y-99085400D01*
X157428555Y-99085400D01*
X157549876Y-98855510D01*
X157380045Y-98445476D01*
X156989758Y-98017217D01*
X156846847Y-97950102D01*
X157187547Y-97722454D01*
X157509454Y-97240685D01*
X157622493Y-96672400D01*
X157509454Y-96104115D01*
X157187547Y-95622346D01*
X156858374Y-95402400D01*
X157187547Y-95182454D01*
X157509454Y-94700685D01*
X157622493Y-94132400D01*
X157549610Y-93765992D01*
X162467920Y-88847682D01*
X162433000Y-89023236D01*
X162433000Y-90097564D01*
X162539340Y-90632173D01*
X162842172Y-91085392D01*
X163295391Y-91388224D01*
X163830000Y-91494564D01*
X164364609Y-91388224D01*
X164817828Y-91085392D01*
X165100000Y-90663093D01*
X165382172Y-91085392D01*
X165835391Y-91388224D01*
X166370000Y-91494564D01*
X166904609Y-91388224D01*
X166956339Y-91353659D01*
X161565399Y-96744599D01*
X161400652Y-96991161D01*
X161342800Y-97282000D01*
X161342800Y-105613200D01*
X161400652Y-105904039D01*
X161565399Y-106150601D01*
X161740398Y-106325600D01*
X157390026Y-106325600D01*
X157423327Y-106292299D01*
X157520000Y-106058910D01*
X157520000Y-105543350D01*
X157361250Y-105384600D01*
X156337000Y-105384600D01*
X156337000Y-105404600D01*
X156083000Y-105404600D01*
X156083000Y-105384600D01*
X155058750Y-105384600D01*
X154900000Y-105543350D01*
X154900000Y-106058910D01*
X154996673Y-106292299D01*
X155029974Y-106325600D01*
X152602000Y-106325600D01*
X152602000Y-104456290D01*
X154900000Y-104456290D01*
X154900000Y-104971850D01*
X155058750Y-105130600D01*
X156083000Y-105130600D01*
X156083000Y-104106350D01*
X156337000Y-104106350D01*
X156337000Y-105130600D01*
X157361250Y-105130600D01*
X157520000Y-104971850D01*
X157520000Y-104456290D01*
X157423327Y-104222901D01*
X157244698Y-104044273D01*
X157011309Y-103947600D01*
X156495750Y-103947600D01*
X156337000Y-104106350D01*
X156083000Y-104106350D01*
X155924250Y-103947600D01*
X155408691Y-103947600D01*
X155175302Y-104044273D01*
X154996673Y-104222901D01*
X154900000Y-104456290D01*
X152602000Y-104456290D01*
X152602000Y-100902400D01*
X154610960Y-100902400D01*
X154610960Y-102602400D01*
X154655238Y-102837717D01*
X154794310Y-103053841D01*
X155006510Y-103198831D01*
X155258400Y-103249840D01*
X156958400Y-103249840D01*
X157193717Y-103205562D01*
X157409841Y-103066490D01*
X157554831Y-102854290D01*
X157605840Y-102602400D01*
X157605840Y-100902400D01*
X157561562Y-100667083D01*
X157422490Y-100450959D01*
X157210290Y-100305969D01*
X157102293Y-100284099D01*
X157380045Y-99979324D01*
X157549876Y-99569290D01*
X157428555Y-99339400D01*
X156235400Y-99339400D01*
X156235400Y-99359400D01*
X155981400Y-99359400D01*
X155981400Y-99339400D01*
X154788245Y-99339400D01*
X154666924Y-99569290D01*
X154836755Y-99979324D01*
X155112901Y-100282337D01*
X155023083Y-100299238D01*
X154806959Y-100438310D01*
X154661969Y-100650510D01*
X154610960Y-100902400D01*
X152602000Y-100902400D01*
X152602000Y-85214287D01*
X154673400Y-85214287D01*
X154673400Y-85270513D01*
X154782633Y-85819664D01*
X155093702Y-86285211D01*
X155559249Y-86596280D01*
X156108400Y-86705513D01*
X156657551Y-86596280D01*
X157123098Y-86285211D01*
X157393386Y-85880697D01*
X157496011Y-86097534D01*
X157910977Y-86473441D01*
X158299361Y-86634304D01*
X158521400Y-86512315D01*
X158521400Y-85369400D01*
X158501400Y-85369400D01*
X158501400Y-85115400D01*
X158521400Y-85115400D01*
X158521400Y-83972485D01*
X158299361Y-83850496D01*
X157910977Y-84011359D01*
X157496011Y-84387266D01*
X157393386Y-84604103D01*
X157123098Y-84199589D01*
X156657551Y-83888520D01*
X156108400Y-83779287D01*
X155559249Y-83888520D01*
X155093702Y-84199589D01*
X154782633Y-84665136D01*
X154673400Y-85214287D01*
X152602000Y-85214287D01*
X152602000Y-76148000D01*
X183998800Y-76148000D01*
X183998800Y-106325600D01*
X183998800Y-106325600D01*
G37*
X183998800Y-106325600D02*
X174930399Y-106325600D01*
X175232059Y-105952341D01*
X175387000Y-105427400D01*
X175387000Y-105200727D01*
X175409273Y-105254499D01*
X175587902Y-105433127D01*
X175821291Y-105529800D01*
X176261850Y-105529800D01*
X176420600Y-105371050D01*
X176420600Y-104571800D01*
X176400600Y-104571800D01*
X176400600Y-104317800D01*
X176420600Y-104317800D01*
X176420600Y-103518550D01*
X176261850Y-103359800D01*
X175821291Y-103359800D01*
X175587902Y-103456473D01*
X175409273Y-103635101D01*
X175312600Y-103868490D01*
X175312600Y-103921332D01*
X175232059Y-103648459D01*
X174888026Y-103222770D01*
X174407277Y-102961140D01*
X174333070Y-102946180D01*
X174117000Y-103068680D01*
X174117000Y-104673400D01*
X174137000Y-104673400D01*
X174137000Y-104927400D01*
X174117000Y-104927400D01*
X174117000Y-104947400D01*
X173863000Y-104947400D01*
X173863000Y-104927400D01*
X173843000Y-104927400D01*
X173843000Y-104673400D01*
X173863000Y-104673400D01*
X173863000Y-103068680D01*
X173646930Y-102946180D01*
X173572723Y-102961140D01*
X173091974Y-103222770D01*
X172747941Y-103648459D01*
X172729298Y-103711622D01*
X172437828Y-103275408D01*
X172210000Y-103123178D01*
X172210000Y-100454287D01*
X175603000Y-100454287D01*
X175603000Y-100510513D01*
X175712233Y-101059664D01*
X176023302Y-101525211D01*
X176488849Y-101836280D01*
X177038000Y-101945513D01*
X177361886Y-101881088D01*
X177987600Y-102506803D01*
X177987600Y-103377466D01*
X177912283Y-103391638D01*
X177696159Y-103530710D01*
X177649631Y-103598806D01*
X177507298Y-103456473D01*
X177273909Y-103359800D01*
X176833350Y-103359800D01*
X176674600Y-103518550D01*
X176674600Y-104317800D01*
X176694600Y-104317800D01*
X176694600Y-104571800D01*
X176674600Y-104571800D01*
X176674600Y-105371050D01*
X176833350Y-105529800D01*
X177273909Y-105529800D01*
X177507298Y-105433127D01*
X177648536Y-105291890D01*
X177683510Y-105346241D01*
X177895710Y-105491231D01*
X178147600Y-105542240D01*
X179347600Y-105542240D01*
X179582917Y-105497962D01*
X179799041Y-105358890D01*
X179944031Y-105146690D01*
X179995040Y-104894800D01*
X179995040Y-103994800D01*
X179950762Y-103759483D01*
X179811690Y-103543359D01*
X179599490Y-103398369D01*
X179507600Y-103379761D01*
X179507600Y-102192000D01*
X179449748Y-101901161D01*
X179406396Y-101836280D01*
X179285002Y-101654599D01*
X178532803Y-100902400D01*
X180010960Y-100902400D01*
X180010960Y-102602400D01*
X180055238Y-102837717D01*
X180194310Y-103053841D01*
X180406510Y-103198831D01*
X180658400Y-103249840D01*
X182358400Y-103249840D01*
X182593717Y-103205562D01*
X182809841Y-103066490D01*
X182954831Y-102854290D01*
X183005840Y-102602400D01*
X183005840Y-100902400D01*
X182961562Y-100667083D01*
X182822490Y-100450959D01*
X182610290Y-100305969D01*
X182502293Y-100284099D01*
X182780045Y-99979324D01*
X182949876Y-99569290D01*
X182828555Y-99339400D01*
X181635400Y-99339400D01*
X181635400Y-99359400D01*
X181381400Y-99359400D01*
X181381400Y-99339400D01*
X180188245Y-99339400D01*
X180066924Y-99569290D01*
X180236755Y-99979324D01*
X180512901Y-100282337D01*
X180423083Y-100299238D01*
X180206959Y-100438310D01*
X180061969Y-100650510D01*
X180010960Y-100902400D01*
X178532803Y-100902400D01*
X178417904Y-100787501D01*
X178473000Y-100510513D01*
X178473000Y-100454287D01*
X178363767Y-99905136D01*
X178052698Y-99439589D01*
X177587151Y-99128520D01*
X177038000Y-99019287D01*
X176488849Y-99128520D01*
X176023302Y-99439589D01*
X175712233Y-99905136D01*
X175603000Y-100454287D01*
X172210000Y-100454287D01*
X172210000Y-97901602D01*
X176217175Y-93894427D01*
X176283995Y-94116264D01*
X176821223Y-94309365D01*
X177391454Y-94282178D01*
X177792005Y-94116264D01*
X177866139Y-93870145D01*
X177038000Y-93042005D01*
X177023858Y-93056148D01*
X176844253Y-92876543D01*
X176858395Y-92862400D01*
X177217605Y-92862400D01*
X178045745Y-93690539D01*
X178291864Y-93616405D01*
X178484965Y-93079177D01*
X178457778Y-92508946D01*
X178291864Y-92108395D01*
X178045745Y-92034261D01*
X177217605Y-92862400D01*
X176858395Y-92862400D01*
X176844253Y-92848258D01*
X177023858Y-92668652D01*
X177038000Y-92682795D01*
X177866139Y-91854655D01*
X177792005Y-91608536D01*
X177747113Y-91592400D01*
X179994307Y-91592400D01*
X180107346Y-92160685D01*
X180429253Y-92642454D01*
X180758426Y-92862400D01*
X180429253Y-93082346D01*
X180107346Y-93564115D01*
X179994307Y-94132400D01*
X180107346Y-94700685D01*
X180429253Y-95182454D01*
X180758426Y-95402400D01*
X180429253Y-95622346D01*
X180107346Y-96104115D01*
X179994307Y-96672400D01*
X180107346Y-97240685D01*
X180429253Y-97722454D01*
X180769953Y-97950102D01*
X180627042Y-98017217D01*
X180236755Y-98445476D01*
X180066924Y-98855510D01*
X180188245Y-99085400D01*
X181381400Y-99085400D01*
X181381400Y-99065400D01*
X181635400Y-99065400D01*
X181635400Y-99085400D01*
X182828555Y-99085400D01*
X182949876Y-98855510D01*
X182780045Y-98445476D01*
X182389758Y-98017217D01*
X182246847Y-97950102D01*
X182587547Y-97722454D01*
X182909454Y-97240685D01*
X183022493Y-96672400D01*
X182909454Y-96104115D01*
X182587547Y-95622346D01*
X182258374Y-95402400D01*
X182587547Y-95182454D01*
X182909454Y-94700685D01*
X183022493Y-94132400D01*
X182909454Y-93564115D01*
X182587547Y-93082346D01*
X182258374Y-92862400D01*
X182587547Y-92642454D01*
X182909454Y-92160685D01*
X183022493Y-91592400D01*
X182909454Y-91024115D01*
X182587547Y-90542346D01*
X182105778Y-90220439D01*
X181537493Y-90107400D01*
X181479307Y-90107400D01*
X180911022Y-90220439D01*
X180429253Y-90542346D01*
X180107346Y-91024115D01*
X179994307Y-91592400D01*
X177747113Y-91592400D01*
X177254777Y-91415435D01*
X176684546Y-91442622D01*
X176578800Y-91486424D01*
X176578800Y-84023200D01*
X179892707Y-84023200D01*
X180005746Y-84591485D01*
X180327653Y-85073254D01*
X180809422Y-85395161D01*
X181377707Y-85508200D01*
X181435893Y-85508200D01*
X182004178Y-85395161D01*
X182485947Y-85073254D01*
X182807854Y-84591485D01*
X182920893Y-84023200D01*
X182807854Y-83454915D01*
X182485947Y-82973146D01*
X182442023Y-82943797D01*
X182616498Y-82871527D01*
X182795127Y-82692899D01*
X182891800Y-82459510D01*
X182891800Y-81768950D01*
X182733050Y-81610200D01*
X181533800Y-81610200D01*
X181533800Y-81630200D01*
X181279800Y-81630200D01*
X181279800Y-81610200D01*
X180080550Y-81610200D01*
X179921800Y-81768950D01*
X179921800Y-82459510D01*
X180018473Y-82692899D01*
X180197102Y-82871527D01*
X180371577Y-82943797D01*
X180327653Y-82973146D01*
X180005746Y-83454915D01*
X179892707Y-84023200D01*
X176578800Y-84023200D01*
X176578800Y-83362800D01*
X176520948Y-83071961D01*
X176520948Y-83071960D01*
X176356201Y-82825399D01*
X174037692Y-80506890D01*
X179921800Y-80506890D01*
X179921800Y-81197450D01*
X180080550Y-81356200D01*
X181279800Y-81356200D01*
X181279800Y-80156950D01*
X181533800Y-80156950D01*
X181533800Y-81356200D01*
X182733050Y-81356200D01*
X182891800Y-81197450D01*
X182891800Y-80506890D01*
X182795127Y-80273501D01*
X182616498Y-80094873D01*
X182383109Y-79998200D01*
X181692550Y-79998200D01*
X181533800Y-80156950D01*
X181279800Y-80156950D01*
X181121050Y-79998200D01*
X180430491Y-79998200D01*
X180197102Y-80094873D01*
X180018473Y-80273501D01*
X179921800Y-80506890D01*
X174037692Y-80506890D01*
X172262938Y-78732136D01*
X172363098Y-78665211D01*
X172459501Y-78520935D01*
X172485238Y-78657717D01*
X172624310Y-78873841D01*
X172836510Y-79018831D01*
X173088400Y-79069840D01*
X174688400Y-79069840D01*
X174923717Y-79025562D01*
X175139841Y-78886490D01*
X175284831Y-78674290D01*
X175335840Y-78422400D01*
X175335840Y-76822400D01*
X175291562Y-76587083D01*
X175152490Y-76370959D01*
X174940290Y-76225969D01*
X174688400Y-76174960D01*
X173088400Y-76174960D01*
X172853083Y-76219238D01*
X172636959Y-76358310D01*
X172491969Y-76570510D01*
X172460585Y-76725489D01*
X172363098Y-76579589D01*
X171897551Y-76268520D01*
X171348400Y-76159287D01*
X170799249Y-76268520D01*
X170333702Y-76579589D01*
X170078400Y-76961675D01*
X169823098Y-76579589D01*
X169357551Y-76268520D01*
X168808400Y-76159287D01*
X168259249Y-76268520D01*
X167793702Y-76579589D01*
X167538400Y-76961675D01*
X167283098Y-76579589D01*
X166817551Y-76268520D01*
X166268400Y-76159287D01*
X165719249Y-76268520D01*
X165253702Y-76579589D01*
X164998400Y-76961675D01*
X164743098Y-76579589D01*
X164277551Y-76268520D01*
X163728400Y-76159287D01*
X163179249Y-76268520D01*
X162713702Y-76579589D01*
X162458400Y-76961675D01*
X162203098Y-76579589D01*
X161737551Y-76268520D01*
X161188400Y-76159287D01*
X160639249Y-76268520D01*
X160173702Y-76579589D01*
X159918400Y-76961675D01*
X159663098Y-76579589D01*
X159197551Y-76268520D01*
X158648400Y-76159287D01*
X158099249Y-76268520D01*
X157633702Y-76579589D01*
X157378400Y-76961675D01*
X157123098Y-76579589D01*
X156657551Y-76268520D01*
X156108400Y-76159287D01*
X155559249Y-76268520D01*
X155093702Y-76579589D01*
X154782633Y-77045136D01*
X154673400Y-77594287D01*
X154673400Y-77650513D01*
X154782633Y-78199664D01*
X155093702Y-78665211D01*
X155559249Y-78976280D01*
X156108400Y-79085513D01*
X156657551Y-78976280D01*
X157123098Y-78665211D01*
X157378400Y-78283125D01*
X157633702Y-78665211D01*
X158099249Y-78976280D01*
X158648400Y-79085513D01*
X159197551Y-78976280D01*
X159663098Y-78665211D01*
X159918400Y-78283125D01*
X160173702Y-78665211D01*
X160639249Y-78976280D01*
X161188400Y-79085513D01*
X161737551Y-78976280D01*
X162203098Y-78665211D01*
X162458400Y-78283125D01*
X162713702Y-78665211D01*
X163179249Y-78976280D01*
X163728400Y-79085513D01*
X164277551Y-78976280D01*
X164743098Y-78665211D01*
X164998400Y-78283125D01*
X165253702Y-78665211D01*
X165508400Y-78835395D01*
X165508400Y-79552800D01*
X165566252Y-79843639D01*
X165730999Y-80090201D01*
X169420000Y-83779202D01*
X169420000Y-83930247D01*
X169357551Y-83888520D01*
X168808400Y-83779287D01*
X168259249Y-83888520D01*
X167793702Y-84199589D01*
X167538400Y-84581675D01*
X167283098Y-84199589D01*
X166817551Y-83888520D01*
X166268400Y-83779287D01*
X165719249Y-83888520D01*
X165253702Y-84199589D01*
X164998400Y-84581675D01*
X164743098Y-84199589D01*
X164277551Y-83888520D01*
X163728400Y-83779287D01*
X163179249Y-83888520D01*
X162713702Y-84199589D01*
X162524733Y-84482400D01*
X162392067Y-84482400D01*
X162203098Y-84199589D01*
X161737551Y-83888520D01*
X161188400Y-83779287D01*
X160639249Y-83888520D01*
X160173702Y-84199589D01*
X159903414Y-84604103D01*
X159800789Y-84387266D01*
X159385823Y-84011359D01*
X158997439Y-83850496D01*
X158775400Y-83972485D01*
X158775400Y-85115400D01*
X158795400Y-85115400D01*
X158795400Y-85369400D01*
X158775400Y-85369400D01*
X158775400Y-86512315D01*
X158819471Y-86536527D01*
X156047598Y-89308400D01*
X155600400Y-89308400D01*
X155309560Y-89366252D01*
X155062999Y-89530999D01*
X153742199Y-90851799D01*
X153577452Y-91098361D01*
X153519600Y-91389200D01*
X153519600Y-94843600D01*
X153577452Y-95134439D01*
X153742199Y-95381001D01*
X154667190Y-96305992D01*
X154594307Y-96672400D01*
X154707346Y-97240685D01*
X155029253Y-97722454D01*
X155369953Y-97950102D01*
X155227042Y-98017217D01*
X154836755Y-98445476D01*
X154666924Y-98855510D01*
X154788245Y-99085400D01*
X155981400Y-99085400D01*
X155981400Y-99065400D01*
X156235400Y-99065400D01*
X156235400Y-99085400D01*
X157428555Y-99085400D01*
X157549876Y-98855510D01*
X157380045Y-98445476D01*
X156989758Y-98017217D01*
X156846847Y-97950102D01*
X157187547Y-97722454D01*
X157509454Y-97240685D01*
X157622493Y-96672400D01*
X157509454Y-96104115D01*
X157187547Y-95622346D01*
X156858374Y-95402400D01*
X157187547Y-95182454D01*
X157509454Y-94700685D01*
X157622493Y-94132400D01*
X157549610Y-93765992D01*
X162467920Y-88847682D01*
X162433000Y-89023236D01*
X162433000Y-90097564D01*
X162539340Y-90632173D01*
X162842172Y-91085392D01*
X163295391Y-91388224D01*
X163830000Y-91494564D01*
X164364609Y-91388224D01*
X164817828Y-91085392D01*
X165100000Y-90663093D01*
X165382172Y-91085392D01*
X165835391Y-91388224D01*
X166370000Y-91494564D01*
X166904609Y-91388224D01*
X166956339Y-91353659D01*
X161565399Y-96744599D01*
X161400652Y-96991161D01*
X161342800Y-97282000D01*
X161342800Y-105613200D01*
X161400652Y-105904039D01*
X161565399Y-106150601D01*
X161740398Y-106325600D01*
X157390026Y-106325600D01*
X157423327Y-106292299D01*
X157520000Y-106058910D01*
X157520000Y-105543350D01*
X157361250Y-105384600D01*
X156337000Y-105384600D01*
X156337000Y-105404600D01*
X156083000Y-105404600D01*
X156083000Y-105384600D01*
X155058750Y-105384600D01*
X154900000Y-105543350D01*
X154900000Y-106058910D01*
X154996673Y-106292299D01*
X155029974Y-106325600D01*
X152602000Y-106325600D01*
X152602000Y-104456290D01*
X154900000Y-104456290D01*
X154900000Y-104971850D01*
X155058750Y-105130600D01*
X156083000Y-105130600D01*
X156083000Y-104106350D01*
X156337000Y-104106350D01*
X156337000Y-105130600D01*
X157361250Y-105130600D01*
X157520000Y-104971850D01*
X157520000Y-104456290D01*
X157423327Y-104222901D01*
X157244698Y-104044273D01*
X157011309Y-103947600D01*
X156495750Y-103947600D01*
X156337000Y-104106350D01*
X156083000Y-104106350D01*
X155924250Y-103947600D01*
X155408691Y-103947600D01*
X155175302Y-104044273D01*
X154996673Y-104222901D01*
X154900000Y-104456290D01*
X152602000Y-104456290D01*
X152602000Y-100902400D01*
X154610960Y-100902400D01*
X154610960Y-102602400D01*
X154655238Y-102837717D01*
X154794310Y-103053841D01*
X155006510Y-103198831D01*
X155258400Y-103249840D01*
X156958400Y-103249840D01*
X157193717Y-103205562D01*
X157409841Y-103066490D01*
X157554831Y-102854290D01*
X157605840Y-102602400D01*
X157605840Y-100902400D01*
X157561562Y-100667083D01*
X157422490Y-100450959D01*
X157210290Y-100305969D01*
X157102293Y-100284099D01*
X157380045Y-99979324D01*
X157549876Y-99569290D01*
X157428555Y-99339400D01*
X156235400Y-99339400D01*
X156235400Y-99359400D01*
X155981400Y-99359400D01*
X155981400Y-99339400D01*
X154788245Y-99339400D01*
X154666924Y-99569290D01*
X154836755Y-99979324D01*
X155112901Y-100282337D01*
X155023083Y-100299238D01*
X154806959Y-100438310D01*
X154661969Y-100650510D01*
X154610960Y-100902400D01*
X152602000Y-100902400D01*
X152602000Y-85214287D01*
X154673400Y-85214287D01*
X154673400Y-85270513D01*
X154782633Y-85819664D01*
X155093702Y-86285211D01*
X155559249Y-86596280D01*
X156108400Y-86705513D01*
X156657551Y-86596280D01*
X157123098Y-86285211D01*
X157393386Y-85880697D01*
X157496011Y-86097534D01*
X157910977Y-86473441D01*
X158299361Y-86634304D01*
X158521400Y-86512315D01*
X158521400Y-85369400D01*
X158501400Y-85369400D01*
X158501400Y-85115400D01*
X158521400Y-85115400D01*
X158521400Y-83972485D01*
X158299361Y-83850496D01*
X157910977Y-84011359D01*
X157496011Y-84387266D01*
X157393386Y-84604103D01*
X157123098Y-84199589D01*
X156657551Y-83888520D01*
X156108400Y-83779287D01*
X155559249Y-83888520D01*
X155093702Y-84199589D01*
X154782633Y-84665136D01*
X154673400Y-85214287D01*
X152602000Y-85214287D01*
X152602000Y-76148000D01*
X183998800Y-76148000D01*
X183998800Y-106325600D01*
G36*
X170333702Y-78665211D02*
X170588400Y-78835395D01*
X170588400Y-78892400D01*
X170646252Y-79183239D01*
X170810999Y-79429801D01*
X175058800Y-83677602D01*
X175058800Y-84425321D01*
X175040789Y-84387266D01*
X174625823Y-84011359D01*
X174237439Y-83850496D01*
X174015400Y-83972485D01*
X174015400Y-85115400D01*
X174035400Y-85115400D01*
X174035400Y-85369400D01*
X174015400Y-85369400D01*
X174015400Y-86512315D01*
X174237439Y-86634304D01*
X174625823Y-86473441D01*
X175040789Y-86097534D01*
X175058800Y-86059479D01*
X175058800Y-88156591D01*
X174977828Y-88035408D01*
X174524609Y-87732576D01*
X173990000Y-87626236D01*
X173455391Y-87732576D01*
X173378400Y-87784020D01*
X173378400Y-86567636D01*
X173539361Y-86634304D01*
X173761400Y-86512315D01*
X173761400Y-85369400D01*
X173741400Y-85369400D01*
X173741400Y-85115400D01*
X173761400Y-85115400D01*
X173761400Y-83972485D01*
X173539361Y-83850496D01*
X173378400Y-83917164D01*
X173378400Y-82854800D01*
X173320548Y-82563961D01*
X173155801Y-82317399D01*
X169631581Y-78793179D01*
X169823098Y-78665211D01*
X170078400Y-78283125D01*
X170333702Y-78665211D01*
X170333702Y-78665211D01*
G37*
X170333702Y-78665211D02*
X170588400Y-78835395D01*
X170588400Y-78892400D01*
X170646252Y-79183239D01*
X170810999Y-79429801D01*
X175058800Y-83677602D01*
X175058800Y-84425321D01*
X175040789Y-84387266D01*
X174625823Y-84011359D01*
X174237439Y-83850496D01*
X174015400Y-83972485D01*
X174015400Y-85115400D01*
X174035400Y-85115400D01*
X174035400Y-85369400D01*
X174015400Y-85369400D01*
X174015400Y-86512315D01*
X174237439Y-86634304D01*
X174625823Y-86473441D01*
X175040789Y-86097534D01*
X175058800Y-86059479D01*
X175058800Y-88156591D01*
X174977828Y-88035408D01*
X174524609Y-87732576D01*
X173990000Y-87626236D01*
X173455391Y-87732576D01*
X173378400Y-87784020D01*
X173378400Y-86567636D01*
X173539361Y-86634304D01*
X173761400Y-86512315D01*
X173761400Y-85369400D01*
X173741400Y-85369400D01*
X173741400Y-85115400D01*
X173761400Y-85115400D01*
X173761400Y-83972485D01*
X173539361Y-83850496D01*
X173378400Y-83917164D01*
X173378400Y-82854800D01*
X173320548Y-82563961D01*
X173155801Y-82317399D01*
X169631581Y-78793179D01*
X169823098Y-78665211D01*
X170078400Y-78283125D01*
X170333702Y-78665211D01*
M02*
