G04 #@! TF.FileFunction,Soldermask,Bot*
%FSLAX46Y46*%
G04 Gerber Fmt 4.6, Leading zero omitted, Abs format (unit mm)*
G04 Created by KiCad (PCBNEW 4.0.7) date 12/07/18 00:23:05*
%MOMM*%
%LPD*%
G01*
G04 APERTURE LIST*
%ADD10C,0.100000*%
%ADD11R,2.100000X2.100000*%
%ADD12O,2.100000X2.100000*%
%ADD13R,2.000000X2.000000*%
%ADD14O,2.000000X2.000000*%
%ADD15O,1.924000X2.924000*%
%ADD16R,1.600000X1.300000*%
%ADD17C,2.000000*%
%ADD18R,1.750000X1.750000*%
G04 APERTURE END LIST*
D10*
D11*
X181406800Y-81483200D03*
D12*
X181406800Y-84023200D03*
D11*
X181508400Y-101752400D03*
D12*
X181508400Y-99212400D03*
X181508400Y-96672400D03*
X181508400Y-94132400D03*
X181508400Y-91592400D03*
D13*
X173888400Y-77622400D03*
D14*
X156108400Y-85242400D03*
X171348400Y-77622400D03*
X158648400Y-85242400D03*
X168808400Y-77622400D03*
X161188400Y-85242400D03*
X166268400Y-77622400D03*
X163728400Y-85242400D03*
X163728400Y-77622400D03*
X166268400Y-85242400D03*
X161188400Y-77622400D03*
X168808400Y-85242400D03*
X158648400Y-77622400D03*
X171348400Y-85242400D03*
X156108400Y-77622400D03*
X173888400Y-85242400D03*
D15*
X163830000Y-104800400D03*
X166370000Y-104800400D03*
X168910000Y-104800400D03*
X171450000Y-104800400D03*
X173990000Y-104800400D03*
X173990000Y-89560400D03*
X171450000Y-89560400D03*
X168910000Y-89560400D03*
X166370000Y-89560400D03*
X163830000Y-89560400D03*
D11*
X156108400Y-101752400D03*
D12*
X156108400Y-99212400D03*
X156108400Y-96672400D03*
X156108400Y-94132400D03*
X156108400Y-91592400D03*
D16*
X153179600Y-88290400D03*
X155379600Y-88290400D03*
D17*
X177038000Y-92862400D03*
D14*
X177038000Y-100482400D03*
D18*
X156210000Y-105257600D03*
M02*
